M48
; DRILL file {KiCad 6.0.6-3a73a75311~116~ubuntu20.04.1} date Fri 30 Sep 2022 12:24:14 PM EDT
; FORMAT={-:-/ absolute / metric / decimal}
; #@! TF.CreationDate,2022-09-30T12:24:14-04:00
; #@! TF.GenerationSoftware,Kicad,Pcbnew,6.0.6-3a73a75311~116~ubuntu20.04.1
; #@! TF.FileFunction,Plated,1,2,PTH
FMAT,2
METRIC
; #@! TA.AperFunction,Plated,PTH,ViaDrill
T1C0.400
; #@! TA.AperFunction,Plated,PTH,ComponentDrill
T2C1.000
%
G90
G05
T1
X52.084Y-49.656
X52.084Y-54.656
X52.094Y-59.656
X52.094Y-64.656
X52.104Y-69.646
X52.114Y-74.646
X52.114Y-79.646
X52.114Y-84.656
X52.114Y-89.656
X52.114Y-94.656
X52.114Y-99.656
X52.114Y-104.666
X52.114Y-109.666
X52.124Y-114.696
X52.124Y-119.696
X57.084Y-49.656
X57.084Y-54.656
X57.094Y-59.656
X57.094Y-64.656
X57.104Y-69.646
X57.114Y-74.646
X57.114Y-79.646
X57.114Y-84.656
X57.114Y-89.656
X57.114Y-94.656
X57.114Y-99.656
X57.114Y-104.666
X57.114Y-109.666
X57.124Y-114.696
X57.124Y-119.696
X62.084Y-49.656
X62.084Y-54.656
X62.094Y-59.656
X62.094Y-64.656
X62.104Y-69.646
X62.114Y-74.646
X62.114Y-79.646
X62.114Y-84.656
X62.114Y-89.656
X62.114Y-94.656
X62.114Y-99.656
X62.114Y-104.666
X62.114Y-109.666
X67.084Y-49.656
X67.084Y-54.656
X67.094Y-59.656
X67.094Y-64.656
X67.104Y-69.646
X67.114Y-74.646
X67.114Y-79.646
X67.114Y-84.656
X67.114Y-94.666
X67.114Y-99.666
X67.124Y-104.656
X67.134Y-109.656
X67.134Y-114.656
X72.094Y-49.646
X72.094Y-54.646
X72.104Y-59.646
X72.104Y-64.646
X72.114Y-69.636
X72.124Y-74.636
X72.124Y-79.636
X75.946Y-92.964
X77.094Y-49.646
X77.094Y-54.646
X77.104Y-59.646
X77.104Y-64.646
X77.114Y-69.636
X77.124Y-74.636
X77.124Y-79.636
X77.47Y-93.726
X82.094Y-49.646
X82.094Y-54.646
X82.104Y-59.646
X82.104Y-64.646
X82.114Y-69.636
X82.124Y-74.636
X82.124Y-79.636
X82.124Y-84.646
X82.134Y-89.646
X82.134Y-94.646
X82.144Y-99.636
X82.154Y-104.636
X82.154Y-109.636
X87.094Y-49.646
X87.094Y-54.646
X87.104Y-59.646
X87.104Y-64.646
X87.114Y-69.636
X87.124Y-74.636
X87.124Y-79.636
X87.884Y-114.808
X89.154Y-115.316
X92.114Y-49.646
X92.114Y-54.646
X92.124Y-59.646
X92.124Y-64.646
X92.134Y-69.636
X92.144Y-74.636
X92.144Y-79.636
X92.144Y-84.646
X92.144Y-89.646
X92.154Y-94.646
X92.154Y-99.646
X92.164Y-104.636
X92.174Y-109.636
X92.174Y-114.636
X97.114Y-49.646
X97.114Y-54.646
X97.124Y-59.646
X97.124Y-64.646
X97.134Y-69.636
X97.144Y-74.636
X97.144Y-79.636
X97.144Y-84.646
X97.144Y-89.646
X97.154Y-94.646
X97.154Y-99.646
X97.164Y-104.636
X97.174Y-109.636
X97.174Y-114.636
X102.114Y-49.646
X102.114Y-54.646
X102.124Y-59.646
X102.124Y-64.646
X102.134Y-69.636
X102.144Y-74.636
X102.144Y-79.636
X103.124Y-92.964
X104.902Y-93.726
X107.114Y-49.646
X107.114Y-54.646
X107.124Y-59.646
X107.124Y-64.646
X107.134Y-69.636
X107.144Y-74.636
X107.144Y-79.636
X111.76Y-114.808
X112.124Y-49.636
X112.124Y-54.636
X112.134Y-59.636
X112.134Y-64.636
X112.144Y-69.626
X112.154Y-74.626
X112.154Y-79.626
X113.03Y-115.316
X117.124Y-49.636
X117.124Y-54.636
X117.134Y-59.636
X117.134Y-64.636
X117.144Y-69.626
X117.144Y-84.626
X117.154Y-74.626
X117.154Y-79.626
X117.154Y-89.616
X117.164Y-94.616
X117.164Y-99.616
X117.164Y-104.616
X117.174Y-109.616
X117.174Y-114.616
X122.124Y-49.636
X122.124Y-54.636
X122.134Y-59.636
X122.134Y-64.636
X122.144Y-69.626
X122.144Y-84.626
X122.154Y-74.626
X122.154Y-79.626
X122.154Y-89.616
X122.164Y-94.616
X122.164Y-99.616
X122.164Y-104.616
X122.174Y-109.616
X122.174Y-114.616
X127.124Y-49.636
X127.124Y-54.636
X127.134Y-59.636
X127.134Y-64.636
X127.144Y-69.626
X127.144Y-84.626
X127.154Y-74.626
X127.154Y-79.626
X127.154Y-89.616
X127.164Y-94.616
X127.164Y-99.616
X127.164Y-104.616
X127.174Y-109.616
X127.174Y-114.616
X132.114Y-49.646
X132.114Y-54.646
X132.124Y-59.646
X132.124Y-64.646
X132.134Y-69.636
X132.134Y-84.636
X132.144Y-74.636
X132.144Y-79.636
X132.144Y-89.626
X132.154Y-94.626
X132.154Y-99.626
X132.154Y-104.626
X132.164Y-109.626
X132.164Y-114.626
X135.89Y-115.062
X137.114Y-49.646
X137.114Y-54.646
X137.124Y-59.646
X137.124Y-64.646
X137.134Y-69.636
X137.144Y-74.636
X137.144Y-79.636
X137.414Y-115.57
X142.114Y-49.646
X142.114Y-54.646
X142.124Y-59.646
X142.124Y-64.646
X142.134Y-69.636
X142.144Y-74.636
X142.144Y-79.636
X147.114Y-49.646
X147.114Y-54.646
X147.124Y-59.646
X147.124Y-64.646
X147.134Y-69.636
X147.144Y-74.636
X147.144Y-79.636
X147.174Y-94.596
X147.184Y-99.586
X147.194Y-104.586
X147.194Y-109.586
X147.204Y-114.586
X152.124Y-49.636
X152.124Y-54.636
X152.134Y-59.636
X152.134Y-64.636
X152.144Y-69.626
X152.154Y-74.626
X152.154Y-79.626
X152.154Y-84.616
X152.164Y-89.616
X152.164Y-94.616
X152.174Y-99.606
X152.184Y-104.606
X152.184Y-109.606
X152.194Y-114.606
X157.124Y-49.636
X157.124Y-54.636
X157.134Y-59.636
X157.134Y-64.636
X157.144Y-69.626
X157.154Y-74.626
X157.154Y-79.626
X157.154Y-84.616
X157.164Y-89.616
X157.164Y-94.616
X157.174Y-99.606
X157.184Y-104.606
X157.184Y-109.606
X160.274Y-115.316
X161.29Y-115.316
X162.124Y-49.636
X162.124Y-54.636
X162.134Y-59.636
X162.134Y-64.636
X162.144Y-69.626
X162.154Y-74.626
X162.154Y-79.626
X162.154Y-84.626
X162.164Y-89.626
X162.164Y-94.626
X162.174Y-99.616
X162.184Y-104.616
X162.184Y-109.616
X167.124Y-49.636
X167.124Y-54.636
X167.134Y-59.636
X167.134Y-64.636
X167.144Y-69.626
X167.154Y-74.626
X167.154Y-79.626
X167.154Y-84.626
X167.164Y-89.626
X167.164Y-94.626
X167.174Y-99.616
X167.184Y-104.616
X167.184Y-109.616
X172.144Y-49.636
X172.144Y-54.636
X172.154Y-59.636
X172.154Y-64.636
X172.164Y-69.626
X172.174Y-74.626
X172.174Y-79.626
X173.482Y-92.71
X175.26Y-93.218
X177.144Y-49.636
X177.144Y-54.636
X177.154Y-59.636
X177.154Y-64.636
X177.164Y-69.626
X177.174Y-74.626
X177.174Y-79.626
X182.144Y-49.636
X182.144Y-54.636
X182.154Y-59.636
X182.154Y-64.636
X182.164Y-69.626
X182.174Y-74.626
X182.174Y-79.626
X182.174Y-84.626
X182.184Y-89.616
X182.194Y-94.616
X182.194Y-99.616
X184.15Y-114.808
X185.166Y-114.808
X187.144Y-49.636
X187.144Y-54.636
X187.154Y-59.636
X187.154Y-64.636
X187.164Y-69.626
X187.174Y-74.626
X187.174Y-79.626
X187.174Y-84.626
X187.184Y-89.616
X187.194Y-94.616
X187.194Y-99.616
X192.154Y-49.626
X192.154Y-54.626
X192.164Y-59.626
X192.164Y-64.626
X192.174Y-69.616
X192.184Y-74.616
X192.184Y-79.616
X192.184Y-84.616
X192.194Y-89.606
X192.204Y-94.606
X192.204Y-99.606
X197.154Y-49.626
X197.154Y-54.626
X197.164Y-59.626
X197.164Y-64.626
X197.174Y-69.616
X197.184Y-74.616
X197.184Y-79.616
X201.594Y-106.856
X201.594Y-111.256
X202.154Y-49.626
X202.154Y-54.626
X202.164Y-59.626
X202.164Y-64.626
X202.174Y-69.616
X202.184Y-74.616
X202.184Y-79.616
X202.184Y-92.456
X203.962Y-92.964
X207.154Y-49.626
X207.154Y-54.626
X207.164Y-59.626
X207.164Y-64.626
X207.174Y-69.616
X207.184Y-74.616
X207.184Y-79.616
X208.28Y-115.062
X209.55Y-115.316
X212.094Y-111.256
X213.694Y-109.076
X216.184Y-106.586
X218.684Y-104.086
X221.174Y-101.596
X223.012Y-87.376
X223.012Y-95.758
X240.594Y-93.456
X240.794Y-95.556
X243.894Y-89.856
X245.394Y-93.956
X245.594Y-95.956
X247.094Y-93.356
X247.984Y-100.906
X248.095Y-95.313
X248.394Y-93.756
X250.594Y-93.056
X250.694Y-90.856
X252.094Y-88.456
X252.114Y-100.292
X254.394Y-97.256
X254.394Y-101.756
T2
X228.092Y-87.371
X228.092Y-89.911
X228.092Y-92.451
X228.092Y-94.991
X228.092Y-97.531
X228.092Y-100.071
X228.092Y-102.611
X228.092Y-105.151
X228.092Y-107.691
X228.092Y-110.231
X228.092Y-112.771
X228.092Y-115.311
X258.544Y-91.006
X258.544Y-93.546
X258.544Y-96.086
X258.544Y-98.626
X258.544Y-101.166
X258.544Y-103.706
T0
M30
