M48
; DRILL file {KiCad (6.0.7)} date Wed 28 Sep 2022 12:10:16 PM EDT
; FORMAT={-:-/ absolute / metric / decimal}
; #@! TF.CreationDate,2022-09-28T12:10:16-04:00
; #@! TF.GenerationSoftware,Kicad,Pcbnew,(6.0.7)
; #@! TF.FileFunction,Plated,1,2,PTH
FMAT,2
METRIC
; #@! TA.AperFunction,Plated,PTH,ViaDrill
T1C0.400
; #@! TA.AperFunction,Plated,PTH,ComponentDrill
T2C1.000
%
G90
G05
T1
X64.008Y-115.062
X65.532Y-115.57
X75.946Y-92.964
X77.47Y-93.726
X87.884Y-114.808
X89.154Y-115.316
X103.124Y-92.964
X104.902Y-93.726
X111.76Y-114.808
X113.03Y-115.316
X135.89Y-115.062
X137.414Y-115.57
X144.78Y-92.71
X146.558Y-93.218
X160.274Y-115.316
X161.29Y-115.316
X173.482Y-92.71
X175.26Y-93.218
X184.15Y-114.808
X185.166Y-114.808
X201.594Y-106.856
X201.594Y-111.256
X202.184Y-92.456
X203.962Y-92.964
X208.28Y-115.062
X209.55Y-115.316
X212.094Y-111.256
X223.012Y-87.376
X223.012Y-95.758
X240.594Y-93.456
X240.794Y-95.556
X243.894Y-89.856
X245.394Y-93.956
X245.594Y-95.956
X247.094Y-93.356
X247.65Y-100.838
X248.095Y-95.313
X248.394Y-93.756
X250.594Y-93.056
X250.694Y-90.856
X252.094Y-88.456
X254.394Y-97.256
X254.394Y-101.756
T2
X228.092Y-87.371
X228.092Y-89.911
X228.092Y-92.451
X228.092Y-94.991
X228.092Y-97.531
X228.092Y-100.071
X228.092Y-102.611
X228.092Y-105.151
X228.092Y-107.691
X228.092Y-110.231
X228.092Y-112.771
X228.092Y-115.311
X258.572Y-90.688
X258.572Y-93.228
X258.572Y-95.768
X258.572Y-98.308
X258.572Y-102.056
X258.572Y-104.596
T0
M30
