G04 #@! TF.GenerationSoftware,KiCad,Pcbnew,6.0.8-f2edbf62ab~116~ubuntu20.04.1*
G04 #@! TF.CreationDate,2022-10-14T13:30:28-04:00*
G04 #@! TF.ProjectId,developmentboard,64657665-6c6f-4706-9d65-6e74626f6172,rev?*
G04 #@! TF.SameCoordinates,Original*
G04 #@! TF.FileFunction,Legend,Bot*
G04 #@! TF.FilePolarity,Positive*
%FSLAX46Y46*%
G04 Gerber Fmt 4.6, Leading zero omitted, Abs format (unit mm)*
G04 Created by KiCad (PCBNEW 6.0.8-f2edbf62ab~116~ubuntu20.04.1) date 2022-10-14 13:30:28*
%MOMM*%
%LPD*%
G01*
G04 APERTURE LIST*
%ADD10C,0.250000*%
%ADD11C,4.300000*%
%ADD12R,1.700000X1.700000*%
%ADD13O,1.700000X1.700000*%
G04 APERTURE END LIST*
D10*
X90923166Y-119608380D02*
X91256500Y-119132190D01*
X91494595Y-119608380D02*
X91494595Y-118608380D01*
X91113642Y-118608380D01*
X91018404Y-118656000D01*
X90970785Y-118703619D01*
X90923166Y-118798857D01*
X90923166Y-118941714D01*
X90970785Y-119036952D01*
X91018404Y-119084571D01*
X91113642Y-119132190D01*
X91494595Y-119132190D01*
X90494595Y-119084571D02*
X90161261Y-119084571D01*
X90018404Y-119608380D02*
X90494595Y-119608380D01*
X90494595Y-118608380D01*
X90018404Y-118608380D01*
X89732690Y-118608380D02*
X89399357Y-119608380D01*
X89066023Y-118608380D01*
X87446976Y-119608380D02*
X88018404Y-119608380D01*
X87732690Y-119608380D02*
X87732690Y-118608380D01*
X87827928Y-118751238D01*
X87923166Y-118846476D01*
X88018404Y-118894095D01*
%LPC*%
D11*
X255894000Y-52206000D03*
X44354000Y-52356000D03*
D12*
X228092000Y-87371000D03*
D13*
X228092000Y-89911000D03*
X228092000Y-92451000D03*
X228092000Y-94991000D03*
X228092000Y-97531000D03*
X228092000Y-100071000D03*
X228092000Y-102611000D03*
X228092000Y-105151000D03*
X228092000Y-107691000D03*
X228092000Y-110231000D03*
X228092000Y-112771000D03*
X228092000Y-115311000D03*
D11*
X255914000Y-120206000D03*
X44254000Y-120056000D03*
D12*
X258544000Y-91006000D03*
D13*
X258544000Y-93546000D03*
X258544000Y-96086000D03*
X258544000Y-98626000D03*
X258544000Y-101166000D03*
X258544000Y-103706000D03*
M02*
