%TF.GenerationSoftware,KiCad,Pcbnew,6.0.8-f2edbf62ab~116~ubuntu20.04.1*%
%TF.CreationDate,2022-10-14T13:30:34-04:00*%
%TF.ProjectId,developmentboard,64657665-6c6f-4706-9d65-6e74626f6172,rev?*%
%TF.SameCoordinates,Original*%
%TF.FileFunction,Drillmap*%
%TF.FilePolarity,Positive*%
%FSLAX45Y45*%
G04 Gerber Fmt 4.5, Leading zero omitted, Abs format (unit mm)*
G04 Created by KiCad (PCBNEW 6.0.8-f2edbf62ab~116~ubuntu20.04.1) date 2022-10-14 13:30:34*
%MOMM*%
%LPD*%
G01*
G04 APERTURE LIST*
%ADD10C,0.100000*%
%ADD11C,0.200000*%
%ADD12C,0.430000*%
G04 APERTURE END LIST*
D10*
X25599400Y-12517819D02*
G75*
G03*
X26109400Y-12005600I5600J504429D01*
G01*
X26109395Y-5215600D02*
G75*
G03*
X25599400Y-4715600I-502726J-2680D01*
G01*
X26109400Y-5215600D02*
X26109400Y-12005600D01*
X25599400Y-12517818D02*
X4449400Y-12515600D01*
X4439400Y-4725600D02*
G75*
G03*
X3929400Y-5245600I5962J-515944D01*
G01*
X3929400Y-11985600D02*
X3929400Y-5245600D01*
X4439400Y-4725600D02*
X25599400Y-4715600D01*
X3929401Y-11985600D02*
G75*
G03*
X4449400Y-12515600I513809J-15980D01*
G01*
D11*
D12*
X4210400Y-11790600D02*
X4640400Y-12220600D01*
X4640400Y-11790600D02*
X4210400Y-12220600D01*
X4220400Y-5020600D02*
X4650400Y-5450600D01*
X4650400Y-5020600D02*
X4220400Y-5450600D01*
X25374400Y-5005600D02*
X25804400Y-5435600D01*
X25804400Y-5005600D02*
X25374400Y-5435600D01*
X25376400Y-11805600D02*
X25806400Y-12235600D01*
X25806400Y-11805600D02*
X25376400Y-12235600D01*
D11*
X4181772Y-12833326D02*
X4181772Y-12633326D01*
X4229391Y-12633326D01*
X4257962Y-12642850D01*
X4277010Y-12661898D01*
X4286534Y-12680945D01*
X4296057Y-12719041D01*
X4296057Y-12747612D01*
X4286534Y-12785707D01*
X4277010Y-12804755D01*
X4257962Y-12823802D01*
X4229391Y-12833326D01*
X4181772Y-12833326D01*
X4381772Y-12833326D02*
X4381772Y-12699993D01*
X4381772Y-12738088D02*
X4391296Y-12719041D01*
X4400819Y-12709517D01*
X4419867Y-12699993D01*
X4438915Y-12699993D01*
X4505581Y-12833326D02*
X4505581Y-12699993D01*
X4505581Y-12633326D02*
X4496057Y-12642850D01*
X4505581Y-12652374D01*
X4515105Y-12642850D01*
X4505581Y-12633326D01*
X4505581Y-12652374D01*
X4629391Y-12833326D02*
X4610343Y-12823802D01*
X4600819Y-12804755D01*
X4600819Y-12633326D01*
X4734153Y-12833326D02*
X4715105Y-12823802D01*
X4705581Y-12804755D01*
X4705581Y-12633326D01*
X4962724Y-12833326D02*
X4962724Y-12633326D01*
X5029391Y-12776183D01*
X5096057Y-12633326D01*
X5096057Y-12833326D01*
X5277010Y-12833326D02*
X5277010Y-12728564D01*
X5267486Y-12709517D01*
X5248438Y-12699993D01*
X5210343Y-12699993D01*
X5191296Y-12709517D01*
X5277010Y-12823802D02*
X5257962Y-12833326D01*
X5210343Y-12833326D01*
X5191296Y-12823802D01*
X5181772Y-12804755D01*
X5181772Y-12785707D01*
X5191296Y-12766660D01*
X5210343Y-12757136D01*
X5257962Y-12757136D01*
X5277010Y-12747612D01*
X5372248Y-12699993D02*
X5372248Y-12899993D01*
X5372248Y-12709517D02*
X5391296Y-12699993D01*
X5429391Y-12699993D01*
X5448438Y-12709517D01*
X5457962Y-12719041D01*
X5467486Y-12738088D01*
X5467486Y-12795231D01*
X5457962Y-12814279D01*
X5448438Y-12823802D01*
X5429391Y-12833326D01*
X5391296Y-12833326D01*
X5372248Y-12823802D01*
X5553200Y-12814279D02*
X5562724Y-12823802D01*
X5553200Y-12833326D01*
X5543677Y-12823802D01*
X5553200Y-12814279D01*
X5553200Y-12833326D01*
X5553200Y-12709517D02*
X5562724Y-12719041D01*
X5553200Y-12728564D01*
X5543677Y-12719041D01*
X5553200Y-12709517D01*
X5553200Y-12728564D01*
X3724153Y-13062850D02*
X3924153Y-13262850D01*
X3924153Y-13062850D02*
X3724153Y-13262850D01*
X4267486Y-13119993D02*
X4267486Y-13253326D01*
X4219867Y-13043802D02*
X4172248Y-13186660D01*
X4296057Y-13186660D01*
X4372248Y-13234279D02*
X4381772Y-13243802D01*
X4372248Y-13253326D01*
X4362724Y-13243802D01*
X4372248Y-13234279D01*
X4372248Y-13253326D01*
X4448438Y-13053326D02*
X4572248Y-13053326D01*
X4505581Y-13129517D01*
X4534153Y-13129517D01*
X4553200Y-13139041D01*
X4562724Y-13148564D01*
X4572248Y-13167612D01*
X4572248Y-13215231D01*
X4562724Y-13234279D01*
X4553200Y-13243802D01*
X4534153Y-13253326D01*
X4477010Y-13253326D01*
X4457962Y-13243802D01*
X4448438Y-13234279D01*
X4696057Y-13053326D02*
X4715105Y-13053326D01*
X4734153Y-13062850D01*
X4743677Y-13072374D01*
X4753200Y-13091422D01*
X4762724Y-13129517D01*
X4762724Y-13177136D01*
X4753200Y-13215231D01*
X4743677Y-13234279D01*
X4734153Y-13243802D01*
X4715105Y-13253326D01*
X4696057Y-13253326D01*
X4677010Y-13243802D01*
X4667486Y-13234279D01*
X4657962Y-13215231D01*
X4648438Y-13177136D01*
X4648438Y-13129517D01*
X4657962Y-13091422D01*
X4667486Y-13072374D01*
X4677010Y-13062850D01*
X4696057Y-13053326D01*
X4886534Y-13053326D02*
X4905581Y-13053326D01*
X4924629Y-13062850D01*
X4934153Y-13072374D01*
X4943677Y-13091422D01*
X4953200Y-13129517D01*
X4953200Y-13177136D01*
X4943677Y-13215231D01*
X4934153Y-13234279D01*
X4924629Y-13243802D01*
X4905581Y-13253326D01*
X4886534Y-13253326D01*
X4867486Y-13243802D01*
X4857962Y-13234279D01*
X4848438Y-13215231D01*
X4838915Y-13177136D01*
X4838915Y-13129517D01*
X4848438Y-13091422D01*
X4857962Y-13072374D01*
X4867486Y-13062850D01*
X4886534Y-13053326D01*
X5038915Y-13253326D02*
X5038915Y-13119993D01*
X5038915Y-13139041D02*
X5048438Y-13129517D01*
X5067486Y-13119993D01*
X5096057Y-13119993D01*
X5115105Y-13129517D01*
X5124629Y-13148564D01*
X5124629Y-13253326D01*
X5124629Y-13148564D02*
X5134153Y-13129517D01*
X5153200Y-13119993D01*
X5181772Y-13119993D01*
X5200819Y-13129517D01*
X5210343Y-13148564D01*
X5210343Y-13253326D01*
X5305581Y-13253326D02*
X5305581Y-13119993D01*
X5305581Y-13139041D02*
X5315105Y-13129517D01*
X5334153Y-13119993D01*
X5362724Y-13119993D01*
X5381772Y-13129517D01*
X5391296Y-13148564D01*
X5391296Y-13253326D01*
X5391296Y-13148564D02*
X5400819Y-13129517D01*
X5419867Y-13119993D01*
X5448438Y-13119993D01*
X5467486Y-13129517D01*
X5477010Y-13148564D01*
X5477010Y-13253326D01*
X5867486Y-13043802D02*
X5696057Y-13300945D01*
X6124629Y-13053326D02*
X6143676Y-13053326D01*
X6162724Y-13062850D01*
X6172248Y-13072374D01*
X6181772Y-13091422D01*
X6191295Y-13129517D01*
X6191295Y-13177136D01*
X6181772Y-13215231D01*
X6172248Y-13234279D01*
X6162724Y-13243802D01*
X6143676Y-13253326D01*
X6124629Y-13253326D01*
X6105581Y-13243802D01*
X6096057Y-13234279D01*
X6086534Y-13215231D01*
X6077010Y-13177136D01*
X6077010Y-13129517D01*
X6086534Y-13091422D01*
X6096057Y-13072374D01*
X6105581Y-13062850D01*
X6124629Y-13053326D01*
X6277010Y-13234279D02*
X6286534Y-13243802D01*
X6277010Y-13253326D01*
X6267486Y-13243802D01*
X6277010Y-13234279D01*
X6277010Y-13253326D01*
X6477010Y-13253326D02*
X6362724Y-13253326D01*
X6419867Y-13253326D02*
X6419867Y-13053326D01*
X6400819Y-13081898D01*
X6381772Y-13100945D01*
X6362724Y-13110469D01*
X6648438Y-13053326D02*
X6610343Y-13053326D01*
X6591295Y-13062850D01*
X6581772Y-13072374D01*
X6562724Y-13100945D01*
X6553200Y-13139041D01*
X6553200Y-13215231D01*
X6562724Y-13234279D01*
X6572248Y-13243802D01*
X6591295Y-13253326D01*
X6629391Y-13253326D01*
X6648438Y-13243802D01*
X6657962Y-13234279D01*
X6667486Y-13215231D01*
X6667486Y-13167612D01*
X6657962Y-13148564D01*
X6648438Y-13139041D01*
X6629391Y-13129517D01*
X6591295Y-13129517D01*
X6572248Y-13139041D01*
X6562724Y-13148564D01*
X6553200Y-13167612D01*
X6762724Y-13253326D02*
X6800819Y-13253326D01*
X6819867Y-13243802D01*
X6829391Y-13234279D01*
X6848438Y-13205707D01*
X6857962Y-13167612D01*
X6857962Y-13091422D01*
X6848438Y-13072374D01*
X6838915Y-13062850D01*
X6819867Y-13053326D01*
X6781772Y-13053326D01*
X6762724Y-13062850D01*
X6753200Y-13072374D01*
X6743676Y-13091422D01*
X6743676Y-13139041D01*
X6753200Y-13158088D01*
X6762724Y-13167612D01*
X6781772Y-13177136D01*
X6819867Y-13177136D01*
X6838915Y-13167612D01*
X6848438Y-13158088D01*
X6857962Y-13139041D01*
X6924629Y-13053326D02*
X7048438Y-13053326D01*
X6981772Y-13129517D01*
X7010343Y-13129517D01*
X7029391Y-13139041D01*
X7038915Y-13148564D01*
X7048438Y-13167612D01*
X7048438Y-13215231D01*
X7038915Y-13234279D01*
X7029391Y-13243802D01*
X7010343Y-13253326D01*
X6953200Y-13253326D01*
X6934153Y-13243802D01*
X6924629Y-13234279D01*
X7124629Y-13053326D02*
X7124629Y-13091422D01*
X7200819Y-13053326D02*
X7200819Y-13091422D01*
X7496057Y-13329517D02*
X7486534Y-13319993D01*
X7467486Y-13291422D01*
X7457962Y-13272374D01*
X7448438Y-13243802D01*
X7438915Y-13196183D01*
X7438915Y-13158088D01*
X7448438Y-13110469D01*
X7457962Y-13081898D01*
X7467486Y-13062850D01*
X7486534Y-13034279D01*
X7496057Y-13024755D01*
X7657962Y-13119993D02*
X7657962Y-13253326D01*
X7610343Y-13043802D02*
X7562724Y-13186660D01*
X7686534Y-13186660D01*
X7915105Y-13253326D02*
X7915105Y-13053326D01*
X8000819Y-13253326D02*
X8000819Y-13148564D01*
X7991295Y-13129517D01*
X7972248Y-13119993D01*
X7943676Y-13119993D01*
X7924629Y-13129517D01*
X7915105Y-13139041D01*
X8124629Y-13253326D02*
X8105581Y-13243802D01*
X8096057Y-13234279D01*
X8086534Y-13215231D01*
X8086534Y-13158088D01*
X8096057Y-13139041D01*
X8105581Y-13129517D01*
X8124629Y-13119993D01*
X8153200Y-13119993D01*
X8172248Y-13129517D01*
X8181772Y-13139041D01*
X8191295Y-13158088D01*
X8191295Y-13215231D01*
X8181772Y-13234279D01*
X8172248Y-13243802D01*
X8153200Y-13253326D01*
X8124629Y-13253326D01*
X8305581Y-13253326D02*
X8286534Y-13243802D01*
X8277010Y-13224755D01*
X8277010Y-13053326D01*
X8457962Y-13243802D02*
X8438915Y-13253326D01*
X8400819Y-13253326D01*
X8381772Y-13243802D01*
X8372248Y-13224755D01*
X8372248Y-13148564D01*
X8381772Y-13129517D01*
X8400819Y-13119993D01*
X8438915Y-13119993D01*
X8457962Y-13129517D01*
X8467486Y-13148564D01*
X8467486Y-13167612D01*
X8372248Y-13186660D01*
X8543677Y-13243802D02*
X8562724Y-13253326D01*
X8600819Y-13253326D01*
X8619867Y-13243802D01*
X8629391Y-13224755D01*
X8629391Y-13215231D01*
X8619867Y-13196183D01*
X8600819Y-13186660D01*
X8572248Y-13186660D01*
X8553200Y-13177136D01*
X8543677Y-13158088D01*
X8543677Y-13148564D01*
X8553200Y-13129517D01*
X8572248Y-13119993D01*
X8600819Y-13119993D01*
X8619867Y-13129517D01*
X8696057Y-13329517D02*
X8705581Y-13319993D01*
X8724629Y-13291422D01*
X8734153Y-13272374D01*
X8743677Y-13243802D01*
X8753200Y-13196183D01*
X8753200Y-13158088D01*
X8743677Y-13110469D01*
X8734153Y-13081898D01*
X8724629Y-13062850D01*
X8705581Y-13034279D01*
X8696057Y-13024755D01*
X9057962Y-13329517D02*
X9048438Y-13319993D01*
X9029391Y-13291422D01*
X9019867Y-13272374D01*
X9010343Y-13243802D01*
X9000819Y-13196183D01*
X9000819Y-13158088D01*
X9010343Y-13110469D01*
X9019867Y-13081898D01*
X9029391Y-13062850D01*
X9048438Y-13034279D01*
X9057962Y-13024755D01*
X9134153Y-13119993D02*
X9134153Y-13253326D01*
X9134153Y-13139041D02*
X9143677Y-13129517D01*
X9162724Y-13119993D01*
X9191296Y-13119993D01*
X9210343Y-13129517D01*
X9219867Y-13148564D01*
X9219867Y-13253326D01*
X9343677Y-13253326D02*
X9324629Y-13243802D01*
X9315105Y-13234279D01*
X9305581Y-13215231D01*
X9305581Y-13158088D01*
X9315105Y-13139041D01*
X9324629Y-13129517D01*
X9343677Y-13119993D01*
X9372248Y-13119993D01*
X9391296Y-13129517D01*
X9400819Y-13139041D01*
X9410343Y-13158088D01*
X9410343Y-13215231D01*
X9400819Y-13234279D01*
X9391296Y-13243802D01*
X9372248Y-13253326D01*
X9343677Y-13253326D01*
X9467486Y-13119993D02*
X9543677Y-13119993D01*
X9496057Y-13053326D02*
X9496057Y-13224755D01*
X9505581Y-13243802D01*
X9524629Y-13253326D01*
X9543677Y-13253326D01*
X9762724Y-13119993D02*
X9762724Y-13319993D01*
X9762724Y-13129517D02*
X9781772Y-13119993D01*
X9819867Y-13119993D01*
X9838915Y-13129517D01*
X9848438Y-13139041D01*
X9857962Y-13158088D01*
X9857962Y-13215231D01*
X9848438Y-13234279D01*
X9838915Y-13243802D01*
X9819867Y-13253326D01*
X9781772Y-13253326D01*
X9762724Y-13243802D01*
X9972248Y-13253326D02*
X9953200Y-13243802D01*
X9943677Y-13224755D01*
X9943677Y-13053326D01*
X10134153Y-13253326D02*
X10134153Y-13148564D01*
X10124629Y-13129517D01*
X10105581Y-13119993D01*
X10067486Y-13119993D01*
X10048438Y-13129517D01*
X10134153Y-13243802D02*
X10115105Y-13253326D01*
X10067486Y-13253326D01*
X10048438Y-13243802D01*
X10038915Y-13224755D01*
X10038915Y-13205707D01*
X10048438Y-13186660D01*
X10067486Y-13177136D01*
X10115105Y-13177136D01*
X10134153Y-13167612D01*
X10200819Y-13119993D02*
X10277010Y-13119993D01*
X10229391Y-13053326D02*
X10229391Y-13224755D01*
X10238915Y-13243802D01*
X10257962Y-13253326D01*
X10277010Y-13253326D01*
X10419867Y-13243802D02*
X10400819Y-13253326D01*
X10362724Y-13253326D01*
X10343677Y-13243802D01*
X10334153Y-13224755D01*
X10334153Y-13148564D01*
X10343677Y-13129517D01*
X10362724Y-13119993D01*
X10400819Y-13119993D01*
X10419867Y-13129517D01*
X10429391Y-13148564D01*
X10429391Y-13167612D01*
X10334153Y-13186660D01*
X10600819Y-13253326D02*
X10600819Y-13053326D01*
X10600819Y-13243802D02*
X10581772Y-13253326D01*
X10543677Y-13253326D01*
X10524629Y-13243802D01*
X10515105Y-13234279D01*
X10505581Y-13215231D01*
X10505581Y-13158088D01*
X10515105Y-13139041D01*
X10524629Y-13129517D01*
X10543677Y-13119993D01*
X10581772Y-13119993D01*
X10600819Y-13129517D01*
X10677010Y-13329517D02*
X10686534Y-13319993D01*
X10705581Y-13291422D01*
X10715105Y-13272374D01*
X10724629Y-13243802D01*
X10734153Y-13196183D01*
X10734153Y-13158088D01*
X10724629Y-13110469D01*
X10715105Y-13081898D01*
X10705581Y-13062850D01*
X10686534Y-13034279D01*
X10677010Y-13024755D01*
M02*
