G04 #@! TF.GenerationSoftware,KiCad,Pcbnew,6.0.6-3a73a75311~116~ubuntu20.04.1*
G04 #@! TF.CreationDate,2022-10-05T11:55:40-04:00*
G04 #@! TF.ProjectId,developmentboard,64657665-6c6f-4706-9d65-6e74626f6172,rev?*
G04 #@! TF.SameCoordinates,Original*
G04 #@! TF.FileFunction,Copper,L2,Bot*
G04 #@! TF.FilePolarity,Positive*
%FSLAX46Y46*%
G04 Gerber Fmt 4.6, Leading zero omitted, Abs format (unit mm)*
G04 Created by KiCad (PCBNEW 6.0.6-3a73a75311~116~ubuntu20.04.1) date 2022-10-05 11:55:40*
%MOMM*%
%LPD*%
G01*
G04 APERTURE LIST*
G04 #@! TA.AperFunction,ComponentPad*
%ADD10R,1.700000X1.700000*%
G04 #@! TD*
G04 #@! TA.AperFunction,ComponentPad*
%ADD11O,1.700000X1.700000*%
G04 #@! TD*
G04 #@! TA.AperFunction,ViaPad*
%ADD12C,0.800000*%
G04 #@! TD*
G04 #@! TA.AperFunction,Conductor*
%ADD13C,1.000000*%
G04 #@! TD*
G04 #@! TA.AperFunction,Conductor*
%ADD14C,0.400000*%
G04 #@! TD*
G04 #@! TA.AperFunction,Conductor*
%ADD15C,0.250000*%
G04 #@! TD*
G04 APERTURE END LIST*
D10*
X228092000Y-87371000D03*
D11*
X228092000Y-89911000D03*
X228092000Y-92451000D03*
X228092000Y-94991000D03*
X228092000Y-97531000D03*
X228092000Y-100071000D03*
X228092000Y-102611000D03*
X228092000Y-105151000D03*
X228092000Y-107691000D03*
X228092000Y-110231000D03*
X228092000Y-112771000D03*
X228092000Y-115311000D03*
D10*
X258544000Y-91006000D03*
D11*
X258544000Y-93546000D03*
X258544000Y-96086000D03*
X258544000Y-98626000D03*
X258544000Y-101166000D03*
X258544000Y-103706000D03*
D12*
X147114000Y-49646000D03*
X97114000Y-49646000D03*
X147194000Y-104586000D03*
X52114000Y-84656000D03*
X62114000Y-94656000D03*
X122164000Y-99616000D03*
X152124000Y-54636000D03*
X104902000Y-93726000D03*
X202164000Y-59626000D03*
X97144000Y-74636000D03*
X162164000Y-89626000D03*
X132114000Y-54646000D03*
X132154000Y-94626000D03*
X62114000Y-99656000D03*
X192154000Y-54626000D03*
X162164000Y-94626000D03*
X77124000Y-74636000D03*
X52084000Y-49656000D03*
X52114000Y-94656000D03*
X127164000Y-104616000D03*
X203962000Y-92964000D03*
X82124000Y-79636000D03*
X132134000Y-69636000D03*
X122154000Y-74626000D03*
X92124000Y-64646000D03*
X152164000Y-94616000D03*
X142124000Y-64646000D03*
X72094000Y-54646000D03*
X62114000Y-89656000D03*
X52114000Y-89656000D03*
X92164000Y-104636000D03*
X157154000Y-84616000D03*
X132124000Y-64646000D03*
X92114000Y-49646000D03*
X87884000Y-114808000D03*
X197154000Y-49626000D03*
X72104000Y-59646000D03*
X157134000Y-64636000D03*
X162124000Y-49636000D03*
X207174000Y-69616000D03*
X216184000Y-106586000D03*
X247984000Y-100906000D03*
X182194000Y-99616000D03*
X67114000Y-79646000D03*
X112124000Y-54636000D03*
X177174000Y-74626000D03*
X62114000Y-84656000D03*
X132124000Y-59646000D03*
X92134000Y-69636000D03*
X82094000Y-49646000D03*
X77124000Y-79636000D03*
X67094000Y-64656000D03*
X162124000Y-54636000D03*
X172154000Y-64636000D03*
X137124000Y-64646000D03*
X185166000Y-114808000D03*
X162184000Y-109616000D03*
X52124000Y-119696000D03*
X52114000Y-74646000D03*
X142114000Y-49646000D03*
X167164000Y-94626000D03*
X67084000Y-49656000D03*
X117134000Y-59636000D03*
X127174000Y-114616000D03*
X147204000Y-114586000D03*
X72124000Y-79636000D03*
X122134000Y-64636000D03*
X67124000Y-104656000D03*
X97144000Y-84646000D03*
X187174000Y-84626000D03*
X172164000Y-69626000D03*
X107124000Y-59646000D03*
X111760000Y-114808000D03*
X77470000Y-93726000D03*
X162144000Y-69626000D03*
X207164000Y-59626000D03*
X127164000Y-99616000D03*
X102144000Y-74636000D03*
X187174000Y-79626000D03*
X107124000Y-64646000D03*
X127124000Y-49636000D03*
X107114000Y-54646000D03*
X157154000Y-79626000D03*
X92144000Y-84646000D03*
X102114000Y-49646000D03*
X167134000Y-64636000D03*
X127144000Y-84626000D03*
X72114000Y-69636000D03*
X177144000Y-49636000D03*
X182154000Y-59636000D03*
X132154000Y-99626000D03*
X117154000Y-79626000D03*
X167134000Y-59636000D03*
X62114000Y-79646000D03*
X107144000Y-74636000D03*
X122134000Y-59636000D03*
X142134000Y-69636000D03*
X107144000Y-79636000D03*
X62114000Y-104666000D03*
X182144000Y-49636000D03*
X132164000Y-114626000D03*
X167144000Y-69626000D03*
X87114000Y-69636000D03*
X162154000Y-84626000D03*
X122174000Y-109616000D03*
X117174000Y-109616000D03*
X187164000Y-69626000D03*
X152174000Y-99606000D03*
X182184000Y-89616000D03*
X52084000Y-54656000D03*
X62084000Y-49656000D03*
X202154000Y-54626000D03*
X67094000Y-59656000D03*
X62094000Y-59656000D03*
X122174000Y-114616000D03*
X175260000Y-93218000D03*
X117134000Y-64636000D03*
X167124000Y-49636000D03*
X182174000Y-79626000D03*
X107114000Y-49646000D03*
X167184000Y-104616000D03*
X147124000Y-59646000D03*
X182194000Y-94616000D03*
X137134000Y-69636000D03*
X132114000Y-49646000D03*
X82144000Y-99636000D03*
X197184000Y-79616000D03*
X57104000Y-69646000D03*
X132144000Y-79636000D03*
X152164000Y-89616000D03*
X245394000Y-93956000D03*
X62114000Y-74646000D03*
X97124000Y-64646000D03*
X117144000Y-69626000D03*
X142114000Y-54646000D03*
X213694000Y-109076000D03*
X57084000Y-54656000D03*
X248394000Y-93756000D03*
X182174000Y-84626000D03*
X67114000Y-84656000D03*
X172144000Y-49636000D03*
X57114000Y-89656000D03*
X57114000Y-94656000D03*
X97164000Y-104636000D03*
X62094000Y-64656000D03*
X202184000Y-74616000D03*
X187194000Y-94616000D03*
X187154000Y-59636000D03*
X57114000Y-74646000D03*
X92174000Y-109636000D03*
X57124000Y-119696000D03*
X197154000Y-54626000D03*
X202164000Y-64626000D03*
X103124000Y-92964000D03*
X112154000Y-74626000D03*
X137414000Y-115570000D03*
X147124000Y-64646000D03*
X77094000Y-54646000D03*
X72124000Y-74636000D03*
X132164000Y-109626000D03*
X202184000Y-92456000D03*
X57094000Y-64656000D03*
X177154000Y-64636000D03*
X152134000Y-64636000D03*
X112134000Y-64636000D03*
X160274000Y-115316000D03*
X202154000Y-49626000D03*
X92154000Y-94646000D03*
X192184000Y-79616000D03*
X162154000Y-79626000D03*
X207184000Y-79616000D03*
X184150000Y-114808000D03*
X72094000Y-49646000D03*
X172174000Y-74626000D03*
X89154000Y-115316000D03*
X122124000Y-54636000D03*
X192164000Y-64626000D03*
X117124000Y-49636000D03*
X127164000Y-94616000D03*
X122144000Y-84626000D03*
X77104000Y-64646000D03*
X112154000Y-79626000D03*
X167154000Y-74626000D03*
X192154000Y-49626000D03*
X102134000Y-69636000D03*
X67134000Y-109656000D03*
X52104000Y-69646000D03*
X117154000Y-89616000D03*
X92114000Y-54646000D03*
X57114000Y-109666000D03*
X132134000Y-84636000D03*
X147184000Y-99586000D03*
X92174000Y-114636000D03*
X92144000Y-79636000D03*
X157124000Y-54636000D03*
X182154000Y-64636000D03*
X167154000Y-79626000D03*
X132144000Y-74636000D03*
X117124000Y-54636000D03*
X87124000Y-79636000D03*
X202184000Y-79616000D03*
X167184000Y-109616000D03*
X177174000Y-79626000D03*
X75946000Y-92964000D03*
X192184000Y-74616000D03*
X82134000Y-89646000D03*
X102124000Y-64646000D03*
X92144000Y-89646000D03*
X187144000Y-49636000D03*
X87104000Y-64646000D03*
X250594000Y-93056000D03*
X97174000Y-114636000D03*
X82154000Y-104636000D03*
X152154000Y-79626000D03*
X82134000Y-94646000D03*
X57084000Y-49656000D03*
X82104000Y-59646000D03*
X112124000Y-49636000D03*
X112134000Y-59636000D03*
X157184000Y-104606000D03*
X117164000Y-99616000D03*
X57114000Y-104666000D03*
X192194000Y-89606000D03*
X152154000Y-74626000D03*
X87094000Y-49646000D03*
X142144000Y-74636000D03*
X52114000Y-104666000D03*
X117154000Y-74626000D03*
X187184000Y-89616000D03*
X97134000Y-69636000D03*
X157164000Y-89616000D03*
X157134000Y-59636000D03*
X135890000Y-115062000D03*
X221174000Y-101596000D03*
X137144000Y-79636000D03*
X82114000Y-69636000D03*
X82094000Y-54646000D03*
X192184000Y-84616000D03*
X157144000Y-69626000D03*
X182174000Y-74626000D03*
X57094000Y-59656000D03*
X97154000Y-94646000D03*
X132144000Y-89626000D03*
X52114000Y-79646000D03*
X157184000Y-109606000D03*
X187194000Y-99616000D03*
X207154000Y-49626000D03*
X57114000Y-99656000D03*
X245594000Y-95956000D03*
X252094000Y-88456000D03*
X207164000Y-64626000D03*
X107134000Y-69636000D03*
X113030000Y-115316000D03*
X218684000Y-104086000D03*
X62114000Y-109666000D03*
X117164000Y-94616000D03*
X122154000Y-89616000D03*
X248095000Y-95313000D03*
X102144000Y-79636000D03*
X122144000Y-69626000D03*
X57124000Y-114696000D03*
X147194000Y-109586000D03*
X240794000Y-95556000D03*
X137144000Y-74636000D03*
X62084000Y-54656000D03*
X162154000Y-74626000D03*
X127154000Y-79626000D03*
X127124000Y-54636000D03*
X172174000Y-79626000D03*
X167124000Y-54636000D03*
X142124000Y-59646000D03*
X82154000Y-109636000D03*
X157174000Y-99606000D03*
X87104000Y-59646000D03*
X147134000Y-69636000D03*
X82124000Y-74636000D03*
X162174000Y-99616000D03*
X67104000Y-69646000D03*
X67134000Y-114656000D03*
X202174000Y-69616000D03*
X250694000Y-90856000D03*
X152154000Y-84616000D03*
X67114000Y-99666000D03*
X87094000Y-54646000D03*
X97144000Y-89646000D03*
X247094000Y-93356000D03*
X67114000Y-94666000D03*
X52124000Y-114696000D03*
X192204000Y-99606000D03*
X82104000Y-64646000D03*
X102124000Y-59646000D03*
X209550000Y-115316000D03*
X147144000Y-79636000D03*
X127154000Y-89616000D03*
X137114000Y-54646000D03*
X57114000Y-79646000D03*
X77104000Y-59646000D03*
X187144000Y-54636000D03*
X197184000Y-74616000D03*
X97144000Y-79636000D03*
X172154000Y-59636000D03*
X92144000Y-74636000D03*
X197174000Y-69616000D03*
X152194000Y-114606000D03*
X52114000Y-99656000D03*
X147144000Y-74636000D03*
X127154000Y-74626000D03*
X62104000Y-69646000D03*
X122154000Y-79626000D03*
X122164000Y-94616000D03*
X208280000Y-115062000D03*
X192174000Y-69616000D03*
X112144000Y-69626000D03*
X97124000Y-59646000D03*
X147114000Y-54646000D03*
X117164000Y-104616000D03*
X52114000Y-109666000D03*
X197164000Y-64626000D03*
X77114000Y-69636000D03*
X152144000Y-69626000D03*
X177164000Y-69626000D03*
X52094000Y-59656000D03*
X57114000Y-84656000D03*
X52094000Y-64656000D03*
X172144000Y-54636000D03*
X127144000Y-69626000D03*
X102114000Y-54646000D03*
X127134000Y-64636000D03*
X182164000Y-69626000D03*
X207184000Y-74616000D03*
X117144000Y-84626000D03*
X192164000Y-59626000D03*
X177144000Y-54636000D03*
X142144000Y-79636000D03*
X152124000Y-49636000D03*
X157124000Y-49636000D03*
X167154000Y-84626000D03*
X122124000Y-49636000D03*
X77094000Y-49646000D03*
X152184000Y-104606000D03*
X137114000Y-49646000D03*
X243894000Y-89856000D03*
X152184000Y-109606000D03*
X92124000Y-59646000D03*
X87124000Y-74636000D03*
X157164000Y-94616000D03*
X82124000Y-84646000D03*
X67084000Y-54656000D03*
X187154000Y-64636000D03*
X162184000Y-104616000D03*
X167164000Y-89626000D03*
X240594000Y-93456000D03*
X97154000Y-99646000D03*
X122164000Y-104616000D03*
X132154000Y-104626000D03*
X72104000Y-64646000D03*
X92154000Y-99646000D03*
X137124000Y-59646000D03*
X127134000Y-59636000D03*
X162134000Y-64636000D03*
X97114000Y-54646000D03*
X162134000Y-59636000D03*
X67114000Y-74646000D03*
X207154000Y-54626000D03*
X197164000Y-59626000D03*
X117174000Y-114616000D03*
X182144000Y-54636000D03*
X177154000Y-59636000D03*
X152134000Y-59636000D03*
X167174000Y-99616000D03*
X147174000Y-94596000D03*
X187174000Y-74626000D03*
X157154000Y-74626000D03*
X192204000Y-94606000D03*
X161290000Y-115316000D03*
X127174000Y-109616000D03*
X173482000Y-92710000D03*
X97174000Y-109636000D03*
X254394000Y-97256000D03*
X201594000Y-106856000D03*
X201594000Y-111256000D03*
X254394000Y-101756000D03*
X212094000Y-111256000D03*
X252114000Y-100292500D03*
X223012000Y-87376000D03*
X223012000Y-95758000D03*
D13*
X254394000Y-101756000D02*
X254394000Y-101206000D01*
X254394000Y-101206000D02*
X254429000Y-101171000D01*
X254429000Y-101171000D02*
X258634000Y-101171000D01*
D14*
X201594000Y-111256000D02*
X212094000Y-111256000D01*
D13*
X254394000Y-101206000D02*
X254394000Y-97256000D01*
D14*
X201594000Y-111256000D02*
X201594000Y-106856000D01*
D15*
X252734000Y-94786000D02*
X253969000Y-93551000D01*
X252114000Y-100292500D02*
X252734000Y-99672500D01*
X252734000Y-99672500D02*
X252734000Y-94786000D01*
X253969000Y-93551000D02*
X258634000Y-93551000D01*
X223012000Y-95758000D02*
X223012000Y-87376000D01*
G04 #@! TA.AperFunction,Conductor*
G36*
X255966952Y-47665754D02*
G01*
X255995153Y-47669728D01*
X256015513Y-47666766D01*
X256037357Y-47665508D01*
X256293045Y-47673033D01*
X256392149Y-47675950D01*
X256403175Y-47676759D01*
X256785987Y-47721831D01*
X256796900Y-47723605D01*
X257174265Y-47802056D01*
X257184980Y-47804779D01*
X257554020Y-47916010D01*
X257564456Y-47919662D01*
X257922321Y-48062814D01*
X257932396Y-48067366D01*
X258276344Y-48241343D01*
X258285981Y-48246761D01*
X258613364Y-48450224D01*
X258622478Y-48456459D01*
X258930755Y-48687831D01*
X258939286Y-48694839D01*
X259144150Y-48878772D01*
X259226096Y-48952346D01*
X259233991Y-48960086D01*
X259497117Y-49241737D01*
X259504303Y-49250139D01*
X259741735Y-49553782D01*
X259748156Y-49562782D01*
X259958045Y-49886053D01*
X259963653Y-49895581D01*
X260138130Y-50224202D01*
X260144402Y-50236016D01*
X260149153Y-50245999D01*
X260299359Y-50600962D01*
X260303217Y-50611323D01*
X260421731Y-50978091D01*
X260424666Y-50988751D01*
X260510571Y-51364496D01*
X260512559Y-51375371D01*
X260565199Y-51757212D01*
X260566226Y-51768213D01*
X260574266Y-51931433D01*
X260583334Y-52115527D01*
X260582088Y-52140448D01*
X260580283Y-52152462D01*
X260581494Y-52161354D01*
X260581494Y-52161355D01*
X260584348Y-52182311D01*
X260585500Y-52199313D01*
X260585500Y-120011531D01*
X260584284Y-120028992D01*
X260580273Y-120057657D01*
X260581574Y-120066537D01*
X260581574Y-120066540D01*
X260583241Y-120077918D01*
X260584519Y-120099826D01*
X260574083Y-120460492D01*
X260573265Y-120471640D01*
X260527336Y-120860165D01*
X260525532Y-120871197D01*
X260445353Y-121254106D01*
X260442579Y-121264934D01*
X260328781Y-121639229D01*
X260325059Y-121649768D01*
X260178534Y-122012516D01*
X260173894Y-122022680D01*
X260036328Y-122291742D01*
X259995798Y-122371013D01*
X259990276Y-122380725D01*
X259783880Y-122708928D01*
X259782009Y-122711903D01*
X259775650Y-122721085D01*
X259677676Y-122849933D01*
X259538846Y-123032511D01*
X259531692Y-123041100D01*
X259268229Y-123330303D01*
X259260342Y-123338224D01*
X258972291Y-123602935D01*
X258963734Y-123610126D01*
X258653341Y-123848279D01*
X258644179Y-123854683D01*
X258313919Y-124064378D01*
X258304227Y-124069945D01*
X257956669Y-124249554D01*
X257946521Y-124254240D01*
X257584417Y-124402337D01*
X257573894Y-124406105D01*
X257200091Y-124521529D01*
X257189278Y-124524349D01*
X256865580Y-124593597D01*
X256806713Y-124606190D01*
X256795690Y-124608041D01*
X256407382Y-124655655D01*
X256396238Y-124656522D01*
X256187415Y-124663472D01*
X256043077Y-124668276D01*
X256018121Y-124666622D01*
X256005978Y-124664593D01*
X255985296Y-124667064D01*
X255970862Y-124668789D01*
X255955899Y-124669679D01*
X89857533Y-124652258D01*
X44539562Y-124647505D01*
X44521690Y-124646229D01*
X44502977Y-124643545D01*
X44502974Y-124643545D01*
X44494090Y-124642271D01*
X44473920Y-124645156D01*
X44451950Y-124646358D01*
X44366132Y-124643543D01*
X44078562Y-124634110D01*
X44067319Y-124633236D01*
X43666426Y-124583899D01*
X43655325Y-124582023D01*
X43260480Y-124496992D01*
X43249562Y-124494123D01*
X42863933Y-124374083D01*
X42853310Y-124370246D01*
X42479980Y-124216157D01*
X42469745Y-124211385D01*
X42111711Y-124024487D01*
X42101943Y-124018817D01*
X41762084Y-123800610D01*
X41752864Y-123794089D01*
X41668299Y-123728400D01*
X41433898Y-123546319D01*
X41425321Y-123539018D01*
X41129814Y-123263674D01*
X41121905Y-123255612D01*
X40852263Y-122954939D01*
X40845107Y-122946202D01*
X40603464Y-122622584D01*
X40597119Y-122613241D01*
X40456927Y-122385461D01*
X40385424Y-122269284D01*
X40379943Y-122259412D01*
X40199895Y-121897877D01*
X40195318Y-121887552D01*
X40190487Y-121875182D01*
X40062880Y-121548502D01*
X40048373Y-121511363D01*
X40044740Y-121500670D01*
X39932063Y-121112814D01*
X39929401Y-121101838D01*
X39920007Y-121053784D01*
X39851911Y-120705470D01*
X39850243Y-120694301D01*
X39828063Y-120480567D01*
X39808554Y-120292567D01*
X39807893Y-120281299D01*
X39807445Y-120248638D01*
X39805437Y-120102485D01*
X41590854Y-120102485D01*
X41591156Y-120106320D01*
X41609108Y-120334417D01*
X41616370Y-120426695D01*
X41681206Y-120745378D01*
X41784398Y-121053784D01*
X41924405Y-121347316D01*
X41926467Y-121350553D01*
X41926470Y-121350558D01*
X41989099Y-121448865D01*
X42099141Y-121621597D01*
X42101584Y-121624560D01*
X42101585Y-121624562D01*
X42251308Y-121806190D01*
X42306001Y-121872538D01*
X42541902Y-122096399D01*
X42803326Y-122289843D01*
X42944851Y-122369914D01*
X43083019Y-122448086D01*
X43083023Y-122448088D01*
X43086376Y-122449985D01*
X43386832Y-122574438D01*
X43472104Y-122598086D01*
X43696500Y-122660317D01*
X43696508Y-122660319D01*
X43700216Y-122661347D01*
X44021856Y-122709416D01*
X44025154Y-122709560D01*
X44136918Y-122714440D01*
X44136922Y-122714440D01*
X44138294Y-122714500D01*
X44336598Y-122714500D01*
X44578605Y-122699698D01*
X44582388Y-122698997D01*
X44582395Y-122698996D01*
X44782459Y-122661916D01*
X44898372Y-122640433D01*
X45107682Y-122574438D01*
X45204860Y-122543798D01*
X45204863Y-122543797D01*
X45208532Y-122542640D01*
X45212029Y-122541046D01*
X45212035Y-122541044D01*
X45500954Y-122409376D01*
X45500958Y-122409374D01*
X45504462Y-122407777D01*
X45533695Y-122389863D01*
X45778473Y-122239863D01*
X45778476Y-122239861D01*
X45781751Y-122237854D01*
X45784755Y-122235464D01*
X45784760Y-122235461D01*
X45909008Y-122136629D01*
X46036264Y-122035405D01*
X46038958Y-122032664D01*
X46038962Y-122032660D01*
X46261513Y-121806190D01*
X46261517Y-121806185D01*
X46264208Y-121803447D01*
X46462185Y-121545439D01*
X46627242Y-121265227D01*
X46756920Y-120966988D01*
X46766983Y-120933018D01*
X46836029Y-120699921D01*
X46849285Y-120655169D01*
X46902961Y-120334417D01*
X46906538Y-120252485D01*
X253250854Y-120252485D01*
X253251156Y-120256320D01*
X253269108Y-120484417D01*
X253276370Y-120576695D01*
X253341206Y-120895378D01*
X253444398Y-121203784D01*
X253584405Y-121497316D01*
X253586467Y-121500553D01*
X253586470Y-121500558D01*
X253617014Y-121548502D01*
X253759141Y-121771597D01*
X253761584Y-121774560D01*
X253761585Y-121774562D01*
X253962015Y-122017702D01*
X253966001Y-122022538D01*
X254201902Y-122246399D01*
X254463326Y-122439843D01*
X254604851Y-122519914D01*
X254743019Y-122598086D01*
X254743023Y-122598088D01*
X254746376Y-122599985D01*
X254749937Y-122601460D01*
X254749939Y-122601461D01*
X254844026Y-122640433D01*
X255046832Y-122724438D01*
X255150288Y-122753129D01*
X255356500Y-122810317D01*
X255356508Y-122810319D01*
X255360216Y-122811347D01*
X255681856Y-122859416D01*
X255685154Y-122859560D01*
X255796918Y-122864440D01*
X255796922Y-122864440D01*
X255798294Y-122864500D01*
X255996598Y-122864500D01*
X256238605Y-122849698D01*
X256242388Y-122848997D01*
X256242395Y-122848996D01*
X256442459Y-122811916D01*
X256558372Y-122790433D01*
X256767682Y-122724438D01*
X256864860Y-122693798D01*
X256864863Y-122693797D01*
X256868532Y-122692640D01*
X256872029Y-122691046D01*
X256872035Y-122691044D01*
X257160954Y-122559376D01*
X257160958Y-122559374D01*
X257164462Y-122557777D01*
X257187274Y-122543798D01*
X257438473Y-122389863D01*
X257438476Y-122389861D01*
X257441751Y-122387854D01*
X257444755Y-122385464D01*
X257444760Y-122385461D01*
X257693258Y-122187796D01*
X257696264Y-122185405D01*
X257698958Y-122182664D01*
X257698962Y-122182660D01*
X257921513Y-121956190D01*
X257921517Y-121956185D01*
X257924208Y-121953447D01*
X258122185Y-121695439D01*
X258287242Y-121415227D01*
X258416920Y-121116988D01*
X258418157Y-121112814D01*
X258483681Y-120891607D01*
X258509285Y-120805169D01*
X258562961Y-120484417D01*
X258577146Y-120159515D01*
X258564388Y-119997410D01*
X258551932Y-119839140D01*
X258551932Y-119839137D01*
X258551630Y-119835305D01*
X258486794Y-119516622D01*
X258383602Y-119208216D01*
X258243595Y-118914684D01*
X258198219Y-118843457D01*
X258150244Y-118768152D01*
X258068859Y-118640403D01*
X258010729Y-118569886D01*
X257864442Y-118392425D01*
X257864438Y-118392420D01*
X257861999Y-118389462D01*
X257626098Y-118165601D01*
X257364674Y-117972157D01*
X257159781Y-117856234D01*
X257084981Y-117813914D01*
X257084977Y-117813912D01*
X257081624Y-117812015D01*
X256781168Y-117687562D01*
X256677712Y-117658871D01*
X256471500Y-117601683D01*
X256471492Y-117601681D01*
X256467784Y-117600653D01*
X256146144Y-117552584D01*
X256142846Y-117552440D01*
X256031082Y-117547560D01*
X256031078Y-117547560D01*
X256029706Y-117547500D01*
X255831402Y-117547500D01*
X255589395Y-117562302D01*
X255585612Y-117563003D01*
X255585605Y-117563004D01*
X255429511Y-117591935D01*
X255269628Y-117621567D01*
X255085058Y-117679762D01*
X254963140Y-117718202D01*
X254963137Y-117718203D01*
X254959468Y-117719360D01*
X254955971Y-117720954D01*
X254955965Y-117720956D01*
X254667046Y-117852624D01*
X254667042Y-117852626D01*
X254663538Y-117854223D01*
X254660259Y-117856233D01*
X254660256Y-117856234D01*
X254403927Y-118013313D01*
X254386249Y-118024146D01*
X254383245Y-118026536D01*
X254383240Y-118026539D01*
X254258992Y-118125371D01*
X254131736Y-118226595D01*
X254129042Y-118229336D01*
X254129038Y-118229340D01*
X253906487Y-118455810D01*
X253906483Y-118455815D01*
X253903792Y-118458553D01*
X253705815Y-118716561D01*
X253540758Y-118996773D01*
X253411080Y-119295012D01*
X253318715Y-119606831D01*
X253265039Y-119927583D01*
X253250854Y-120252485D01*
X46906538Y-120252485D01*
X46917146Y-120009515D01*
X46903737Y-119839140D01*
X46891932Y-119689140D01*
X46891932Y-119689137D01*
X46891630Y-119685305D01*
X46826794Y-119366622D01*
X46723602Y-119058216D01*
X46583595Y-118764684D01*
X46552938Y-118716561D01*
X46457377Y-118566561D01*
X46408859Y-118490403D01*
X46261470Y-118311606D01*
X46204442Y-118242425D01*
X46204438Y-118242420D01*
X46201999Y-118239462D01*
X45966098Y-118015601D01*
X45704674Y-117822157D01*
X45499781Y-117706234D01*
X45424981Y-117663914D01*
X45424977Y-117663912D01*
X45421624Y-117662015D01*
X45326775Y-117622727D01*
X45182590Y-117563004D01*
X45121168Y-117537562D01*
X45017712Y-117508871D01*
X44811500Y-117451683D01*
X44811492Y-117451681D01*
X44807784Y-117450653D01*
X44486144Y-117402584D01*
X44482846Y-117402440D01*
X44371082Y-117397560D01*
X44371078Y-117397560D01*
X44369706Y-117397500D01*
X44171402Y-117397500D01*
X43929395Y-117412302D01*
X43925612Y-117413003D01*
X43925605Y-117413004D01*
X43769511Y-117441935D01*
X43609628Y-117471567D01*
X43425058Y-117529762D01*
X43303140Y-117568202D01*
X43303137Y-117568203D01*
X43299468Y-117569360D01*
X43295971Y-117570954D01*
X43295965Y-117570956D01*
X43007046Y-117702624D01*
X43007042Y-117702626D01*
X43003538Y-117704223D01*
X43000259Y-117706233D01*
X43000256Y-117706234D01*
X42755479Y-117856234D01*
X42726249Y-117874146D01*
X42723245Y-117876536D01*
X42723240Y-117876539D01*
X42605420Y-117970258D01*
X42471736Y-118076595D01*
X42469042Y-118079336D01*
X42469038Y-118079340D01*
X42246487Y-118305810D01*
X42246483Y-118305815D01*
X42243792Y-118308553D01*
X42045815Y-118566561D01*
X41880758Y-118846773D01*
X41751080Y-119145012D01*
X41658715Y-119456831D01*
X41605039Y-119777583D01*
X41590854Y-120102485D01*
X39805437Y-120102485D01*
X39802862Y-119915125D01*
X39805013Y-119890146D01*
X39805592Y-119887063D01*
X39807248Y-119878242D01*
X39803116Y-119836615D01*
X39802500Y-119824170D01*
X39802500Y-115277695D01*
X226729251Y-115277695D01*
X226729548Y-115282848D01*
X226729548Y-115282851D01*
X226735011Y-115377590D01*
X226742110Y-115500715D01*
X226743247Y-115505761D01*
X226743248Y-115505767D01*
X226763119Y-115593939D01*
X226791222Y-115718639D01*
X226875266Y-115925616D01*
X226991987Y-116116088D01*
X227138250Y-116284938D01*
X227310126Y-116427632D01*
X227503000Y-116540338D01*
X227711692Y-116620030D01*
X227716760Y-116621061D01*
X227716763Y-116621062D01*
X227824017Y-116642883D01*
X227930597Y-116664567D01*
X227935772Y-116664757D01*
X227935774Y-116664757D01*
X228148673Y-116672564D01*
X228148677Y-116672564D01*
X228153837Y-116672753D01*
X228158957Y-116672097D01*
X228158959Y-116672097D01*
X228370288Y-116645025D01*
X228370289Y-116645025D01*
X228375416Y-116644368D01*
X228380366Y-116642883D01*
X228584429Y-116581661D01*
X228584434Y-116581659D01*
X228589384Y-116580174D01*
X228789994Y-116481896D01*
X228971860Y-116352173D01*
X229130096Y-116194489D01*
X229189594Y-116111689D01*
X229257435Y-116017277D01*
X229260453Y-116013077D01*
X229359430Y-115812811D01*
X229424370Y-115599069D01*
X229453529Y-115377590D01*
X229455156Y-115311000D01*
X229436852Y-115088361D01*
X229382431Y-114871702D01*
X229293354Y-114666840D01*
X229172014Y-114479277D01*
X229021670Y-114314051D01*
X229017619Y-114310852D01*
X229017615Y-114310848D01*
X228850414Y-114178800D01*
X228850410Y-114178798D01*
X228846359Y-114175598D01*
X228805053Y-114152796D01*
X228755084Y-114102364D01*
X228740312Y-114032921D01*
X228765428Y-113966516D01*
X228792780Y-113939909D01*
X228836603Y-113908650D01*
X228971860Y-113812173D01*
X229130096Y-113654489D01*
X229189594Y-113571689D01*
X229257435Y-113477277D01*
X229260453Y-113473077D01*
X229359430Y-113272811D01*
X229424370Y-113059069D01*
X229453529Y-112837590D01*
X229455156Y-112771000D01*
X229436852Y-112548361D01*
X229382431Y-112331702D01*
X229293354Y-112126840D01*
X229203899Y-111988564D01*
X229174822Y-111943617D01*
X229174820Y-111943614D01*
X229172014Y-111939277D01*
X229021670Y-111774051D01*
X229017619Y-111770852D01*
X229017615Y-111770848D01*
X228850414Y-111638800D01*
X228850410Y-111638798D01*
X228846359Y-111635598D01*
X228805053Y-111612796D01*
X228755084Y-111562364D01*
X228740312Y-111492921D01*
X228765428Y-111426516D01*
X228792780Y-111399909D01*
X228836603Y-111368650D01*
X228971860Y-111272173D01*
X229130096Y-111114489D01*
X229189594Y-111031689D01*
X229257435Y-110937277D01*
X229260453Y-110933077D01*
X229359430Y-110732811D01*
X229405236Y-110582045D01*
X229422865Y-110524023D01*
X229422865Y-110524021D01*
X229424370Y-110519069D01*
X229453529Y-110297590D01*
X229455156Y-110231000D01*
X229436852Y-110008361D01*
X229382431Y-109791702D01*
X229293354Y-109586840D01*
X229172014Y-109399277D01*
X229021670Y-109234051D01*
X229017619Y-109230852D01*
X229017615Y-109230848D01*
X228850414Y-109098800D01*
X228850410Y-109098798D01*
X228846359Y-109095598D01*
X228805053Y-109072796D01*
X228755084Y-109022364D01*
X228740312Y-108952921D01*
X228765428Y-108886516D01*
X228792780Y-108859909D01*
X228836603Y-108828650D01*
X228971860Y-108732173D01*
X229130096Y-108574489D01*
X229189594Y-108491689D01*
X229257435Y-108397277D01*
X229260453Y-108393077D01*
X229359430Y-108192811D01*
X229424370Y-107979069D01*
X229453529Y-107757590D01*
X229455156Y-107691000D01*
X229436852Y-107468361D01*
X229382431Y-107251702D01*
X229293354Y-107046840D01*
X229172014Y-106859277D01*
X229021670Y-106694051D01*
X229017619Y-106690852D01*
X229017615Y-106690848D01*
X228850414Y-106558800D01*
X228850410Y-106558798D01*
X228846359Y-106555598D01*
X228805053Y-106532796D01*
X228755084Y-106482364D01*
X228740312Y-106412921D01*
X228765428Y-106346516D01*
X228792780Y-106319909D01*
X228836603Y-106288650D01*
X228971860Y-106192173D01*
X228982024Y-106182045D01*
X229095702Y-106068763D01*
X229130096Y-106034489D01*
X229189594Y-105951689D01*
X229257435Y-105857277D01*
X229260453Y-105853077D01*
X229359430Y-105652811D01*
X229424370Y-105439069D01*
X229453529Y-105217590D01*
X229455156Y-105151000D01*
X229436852Y-104928361D01*
X229382431Y-104711702D01*
X229293354Y-104506840D01*
X229172014Y-104319277D01*
X229021670Y-104154051D01*
X229017619Y-104150852D01*
X229017615Y-104150848D01*
X228850414Y-104018800D01*
X228850410Y-104018798D01*
X228846359Y-104015598D01*
X228805053Y-103992796D01*
X228786396Y-103973966D01*
X257212257Y-103973966D01*
X257242565Y-104108446D01*
X257245645Y-104118275D01*
X257325770Y-104315603D01*
X257330413Y-104324794D01*
X257441694Y-104506388D01*
X257447777Y-104514699D01*
X257587213Y-104675667D01*
X257594580Y-104682883D01*
X257758434Y-104818916D01*
X257766881Y-104824831D01*
X257950756Y-104932279D01*
X257960042Y-104936729D01*
X258159001Y-105012703D01*
X258168899Y-105015579D01*
X258272250Y-105036606D01*
X258286299Y-105035410D01*
X258290000Y-105025065D01*
X258290000Y-105024517D01*
X258798000Y-105024517D01*
X258802064Y-105038359D01*
X258815478Y-105040393D01*
X258822184Y-105039534D01*
X258832262Y-105037392D01*
X259036255Y-104976191D01*
X259045842Y-104972433D01*
X259237095Y-104878739D01*
X259245945Y-104873464D01*
X259419328Y-104749792D01*
X259427200Y-104743139D01*
X259578052Y-104592812D01*
X259584730Y-104584965D01*
X259709003Y-104412020D01*
X259714313Y-104403183D01*
X259808670Y-104212267D01*
X259812469Y-104202672D01*
X259874377Y-103998910D01*
X259876555Y-103988837D01*
X259877986Y-103977962D01*
X259875775Y-103963778D01*
X259862617Y-103960000D01*
X258816115Y-103960000D01*
X258800876Y-103964475D01*
X258799671Y-103965865D01*
X258798000Y-103973548D01*
X258798000Y-105024517D01*
X258290000Y-105024517D01*
X258290000Y-103978115D01*
X258285525Y-103962876D01*
X258284135Y-103961671D01*
X258276452Y-103960000D01*
X257227225Y-103960000D01*
X257213694Y-103963973D01*
X257212257Y-103973966D01*
X228786396Y-103973966D01*
X228755084Y-103942364D01*
X228740312Y-103872921D01*
X228765428Y-103806516D01*
X228792780Y-103779909D01*
X228836603Y-103748650D01*
X228971860Y-103652173D01*
X229130096Y-103494489D01*
X229189594Y-103411689D01*
X229257435Y-103317277D01*
X229260453Y-103313077D01*
X229285636Y-103262124D01*
X229357136Y-103117453D01*
X229357137Y-103117451D01*
X229359430Y-103112811D01*
X229424370Y-102899069D01*
X229453529Y-102677590D01*
X229455156Y-102611000D01*
X229436852Y-102388361D01*
X229382431Y-102171702D01*
X229293354Y-101966840D01*
X229253906Y-101905862D01*
X229174822Y-101783617D01*
X229174820Y-101783614D01*
X229172014Y-101779277D01*
X229021670Y-101614051D01*
X229017619Y-101610852D01*
X229017615Y-101610848D01*
X228850414Y-101478800D01*
X228850410Y-101478798D01*
X228846359Y-101475598D01*
X228805053Y-101452796D01*
X228755084Y-101402364D01*
X228740312Y-101332921D01*
X228765428Y-101266516D01*
X228792780Y-101239909D01*
X228853870Y-101196334D01*
X228971860Y-101112173D01*
X229130096Y-100954489D01*
X229189594Y-100871689D01*
X229257435Y-100777277D01*
X229260453Y-100773077D01*
X229285720Y-100721954D01*
X229357136Y-100577453D01*
X229357137Y-100577451D01*
X229359430Y-100572811D01*
X229424370Y-100359069D01*
X229433134Y-100292500D01*
X251200496Y-100292500D01*
X251220458Y-100482428D01*
X251279473Y-100664056D01*
X251374960Y-100829444D01*
X251379378Y-100834351D01*
X251379379Y-100834352D01*
X251498325Y-100966455D01*
X251502747Y-100971366D01*
X251657248Y-101083618D01*
X251663276Y-101086302D01*
X251663278Y-101086303D01*
X251816405Y-101154479D01*
X251831712Y-101161294D01*
X251925112Y-101181147D01*
X252012056Y-101199628D01*
X252012061Y-101199628D01*
X252018513Y-101201000D01*
X252209487Y-101201000D01*
X252215939Y-101199628D01*
X252215944Y-101199628D01*
X252302887Y-101181147D01*
X252396288Y-101161294D01*
X252411595Y-101154479D01*
X252564722Y-101086303D01*
X252564724Y-101086302D01*
X252570752Y-101083618D01*
X252725253Y-100971366D01*
X252729675Y-100966455D01*
X252848621Y-100834352D01*
X252848622Y-100834351D01*
X252853040Y-100829444D01*
X252948527Y-100664056D01*
X253007542Y-100482428D01*
X253024907Y-100317206D01*
X253051920Y-100251550D01*
X253061122Y-100241282D01*
X253126247Y-100176157D01*
X253134537Y-100168613D01*
X253141018Y-100164500D01*
X253167650Y-100136140D01*
X253228863Y-100100174D01*
X253299803Y-100103013D01*
X253357947Y-100143753D01*
X253384835Y-100209461D01*
X253385500Y-100222393D01*
X253385500Y-101148096D01*
X253384855Y-101160829D01*
X253380626Y-101202462D01*
X253383274Y-101230476D01*
X253384941Y-101248109D01*
X253385500Y-101259967D01*
X253385500Y-101805769D01*
X253399920Y-101952833D01*
X253457084Y-102142169D01*
X253549934Y-102316796D01*
X253620291Y-102403062D01*
X253671040Y-102465287D01*
X253671043Y-102465290D01*
X253674935Y-102470062D01*
X253679682Y-102473989D01*
X253679684Y-102473991D01*
X253822575Y-102592201D01*
X253822579Y-102592203D01*
X253827325Y-102596130D01*
X254001299Y-102690198D01*
X254190232Y-102748682D01*
X254196357Y-102749326D01*
X254196358Y-102749326D01*
X254380796Y-102768711D01*
X254380798Y-102768711D01*
X254386925Y-102769355D01*
X254469424Y-102761847D01*
X254577749Y-102751989D01*
X254577752Y-102751988D01*
X254583888Y-102751430D01*
X254589794Y-102749692D01*
X254589798Y-102749691D01*
X254694924Y-102718751D01*
X254773619Y-102695590D01*
X254779077Y-102692737D01*
X254779081Y-102692735D01*
X254928987Y-102614365D01*
X254948890Y-102603960D01*
X255103025Y-102480032D01*
X255230154Y-102328526D01*
X255233121Y-102323128D01*
X255233125Y-102323123D01*
X255276183Y-102244799D01*
X255326528Y-102194741D01*
X255386598Y-102179500D01*
X257592416Y-102179500D01*
X257660537Y-102199502D01*
X257672901Y-102208556D01*
X257762126Y-102282632D01*
X257811280Y-102311355D01*
X257835955Y-102325774D01*
X257884679Y-102377412D01*
X257897750Y-102447195D01*
X257871019Y-102512967D01*
X257830562Y-102546327D01*
X257822457Y-102550546D01*
X257813738Y-102556036D01*
X257643433Y-102683905D01*
X257635726Y-102690748D01*
X257488590Y-102844717D01*
X257482104Y-102852727D01*
X257362098Y-103028649D01*
X257357000Y-103037623D01*
X257267338Y-103230783D01*
X257263775Y-103240470D01*
X257208389Y-103440183D01*
X257209912Y-103448607D01*
X257222292Y-103452000D01*
X259862344Y-103452000D01*
X259875875Y-103448027D01*
X259877180Y-103438947D01*
X259835214Y-103271875D01*
X259831894Y-103262124D01*
X259746972Y-103066814D01*
X259742105Y-103057739D01*
X259626426Y-102878926D01*
X259620136Y-102870757D01*
X259476806Y-102713240D01*
X259469273Y-102706215D01*
X259302139Y-102574222D01*
X259293556Y-102568520D01*
X259256602Y-102548120D01*
X259206631Y-102497687D01*
X259191859Y-102428245D01*
X259216975Y-102361839D01*
X259244327Y-102335232D01*
X259277801Y-102311355D01*
X259423860Y-102207173D01*
X259582096Y-102049489D01*
X259662439Y-101937680D01*
X259709435Y-101872277D01*
X259712453Y-101868077D01*
X259743248Y-101805769D01*
X259809136Y-101672453D01*
X259809137Y-101672451D01*
X259811430Y-101667811D01*
X259876370Y-101454069D01*
X259905529Y-101232590D01*
X259906301Y-101201000D01*
X259907074Y-101169365D01*
X259907074Y-101169361D01*
X259907156Y-101166000D01*
X259888852Y-100943361D01*
X259834431Y-100726702D01*
X259745354Y-100521840D01*
X259624014Y-100334277D01*
X259473670Y-100169051D01*
X259469619Y-100165852D01*
X259469615Y-100165848D01*
X259302414Y-100033800D01*
X259302410Y-100033798D01*
X259298359Y-100030598D01*
X259257053Y-100007796D01*
X259207084Y-99957364D01*
X259192312Y-99887921D01*
X259217428Y-99821516D01*
X259244780Y-99794909D01*
X259306832Y-99750648D01*
X259423860Y-99667173D01*
X259477587Y-99613634D01*
X259578435Y-99513137D01*
X259582096Y-99509489D01*
X259587922Y-99501382D01*
X259709435Y-99332277D01*
X259712453Y-99328077D01*
X259754196Y-99243617D01*
X259809136Y-99132453D01*
X259809137Y-99132451D01*
X259811430Y-99127811D01*
X259876370Y-98914069D01*
X259905529Y-98692590D01*
X259906564Y-98650242D01*
X259907074Y-98629365D01*
X259907074Y-98629361D01*
X259907156Y-98626000D01*
X259888852Y-98403361D01*
X259834431Y-98186702D01*
X259745354Y-97981840D01*
X259624014Y-97794277D01*
X259473670Y-97629051D01*
X259469619Y-97625852D01*
X259469615Y-97625848D01*
X259302414Y-97493800D01*
X259302410Y-97493798D01*
X259298359Y-97490598D01*
X259257053Y-97467796D01*
X259207084Y-97417364D01*
X259192312Y-97347921D01*
X259217428Y-97281516D01*
X259244780Y-97254909D01*
X259313024Y-97206231D01*
X259423860Y-97127173D01*
X259582096Y-96969489D01*
X259641594Y-96886689D01*
X259709435Y-96792277D01*
X259712453Y-96788077D01*
X259754196Y-96703617D01*
X259809136Y-96592453D01*
X259809137Y-96592451D01*
X259811430Y-96587811D01*
X259876370Y-96374069D01*
X259905529Y-96152590D01*
X259906092Y-96129556D01*
X259907074Y-96089365D01*
X259907074Y-96089361D01*
X259907156Y-96086000D01*
X259888852Y-95863361D01*
X259834431Y-95646702D01*
X259745354Y-95441840D01*
X259624014Y-95254277D01*
X259473670Y-95089051D01*
X259469619Y-95085852D01*
X259469615Y-95085848D01*
X259302414Y-94953800D01*
X259302410Y-94953798D01*
X259298359Y-94950598D01*
X259257053Y-94927796D01*
X259207084Y-94877364D01*
X259192312Y-94807921D01*
X259217428Y-94741516D01*
X259244780Y-94714909D01*
X259288603Y-94683650D01*
X259423860Y-94587173D01*
X259582096Y-94429489D01*
X259621883Y-94374120D01*
X259709435Y-94252277D01*
X259712453Y-94248077D01*
X259754196Y-94163617D01*
X259809136Y-94052453D01*
X259809137Y-94052451D01*
X259811430Y-94047811D01*
X259876370Y-93834069D01*
X259905529Y-93612590D01*
X259906564Y-93570242D01*
X259907074Y-93549365D01*
X259907074Y-93549361D01*
X259907156Y-93546000D01*
X259888852Y-93323361D01*
X259834431Y-93106702D01*
X259745354Y-92901840D01*
X259624014Y-92714277D01*
X259620532Y-92710450D01*
X259476798Y-92552488D01*
X259445746Y-92488642D01*
X259454141Y-92418143D01*
X259499317Y-92363375D01*
X259525761Y-92349706D01*
X259632297Y-92309767D01*
X259640705Y-92306615D01*
X259757261Y-92219261D01*
X259844615Y-92102705D01*
X259895745Y-91966316D01*
X259902500Y-91904134D01*
X259902500Y-90107866D01*
X259895745Y-90045684D01*
X259844615Y-89909295D01*
X259757261Y-89792739D01*
X259640705Y-89705385D01*
X259504316Y-89654255D01*
X259442134Y-89647500D01*
X257645866Y-89647500D01*
X257583684Y-89654255D01*
X257447295Y-89705385D01*
X257330739Y-89792739D01*
X257243385Y-89909295D01*
X257192255Y-90045684D01*
X257185500Y-90107866D01*
X257185500Y-91904134D01*
X257192255Y-91966316D01*
X257243385Y-92102705D01*
X257330739Y-92219261D01*
X257447295Y-92306615D01*
X257455704Y-92309767D01*
X257455705Y-92309768D01*
X257564451Y-92350535D01*
X257621216Y-92393176D01*
X257645916Y-92459738D01*
X257630709Y-92529087D01*
X257611316Y-92555568D01*
X257529948Y-92640715D01*
X257484629Y-92688138D01*
X257365683Y-92862507D01*
X257310774Y-92907507D01*
X257261597Y-92917500D01*
X254047768Y-92917500D01*
X254036585Y-92916973D01*
X254029092Y-92915298D01*
X254021166Y-92915547D01*
X254021165Y-92915547D01*
X253961002Y-92917438D01*
X253957044Y-92917500D01*
X253929144Y-92917500D01*
X253925154Y-92918004D01*
X253913320Y-92918936D01*
X253869111Y-92920326D01*
X253861497Y-92922538D01*
X253861492Y-92922539D01*
X253849659Y-92925977D01*
X253830296Y-92929988D01*
X253810203Y-92932526D01*
X253802836Y-92935443D01*
X253802831Y-92935444D01*
X253769092Y-92948802D01*
X253757865Y-92952646D01*
X253750561Y-92954768D01*
X253715407Y-92964982D01*
X253708581Y-92969019D01*
X253697972Y-92975293D01*
X253680224Y-92983988D01*
X253661383Y-92991448D01*
X253654967Y-92996110D01*
X253654966Y-92996110D01*
X253625613Y-93017436D01*
X253615693Y-93023952D01*
X253584465Y-93042420D01*
X253584462Y-93042422D01*
X253577638Y-93046458D01*
X253563317Y-93060779D01*
X253548284Y-93073619D01*
X253531893Y-93085528D01*
X253526842Y-93091634D01*
X253503702Y-93119605D01*
X253495712Y-93128384D01*
X252341747Y-94282348D01*
X252333461Y-94289888D01*
X252326982Y-94294000D01*
X252321557Y-94299777D01*
X252280357Y-94343651D01*
X252277602Y-94346493D01*
X252257865Y-94366230D01*
X252255385Y-94369427D01*
X252247682Y-94378447D01*
X252217414Y-94410679D01*
X252213595Y-94417625D01*
X252213593Y-94417628D01*
X252207652Y-94428434D01*
X252196801Y-94444953D01*
X252184386Y-94460959D01*
X252181241Y-94468228D01*
X252181238Y-94468232D01*
X252166826Y-94501537D01*
X252161609Y-94512187D01*
X252140305Y-94550940D01*
X252138334Y-94558615D01*
X252138334Y-94558616D01*
X252135267Y-94570562D01*
X252128863Y-94589266D01*
X252120819Y-94607855D01*
X252119580Y-94615678D01*
X252119577Y-94615688D01*
X252113901Y-94651524D01*
X252111495Y-94663144D01*
X252102472Y-94698289D01*
X252100500Y-94705970D01*
X252100500Y-94726224D01*
X252098949Y-94745934D01*
X252095780Y-94765943D01*
X252096526Y-94773835D01*
X252099941Y-94809961D01*
X252100500Y-94821819D01*
X252100500Y-99264540D01*
X252080498Y-99332661D01*
X252026842Y-99379154D01*
X252000698Y-99387787D01*
X251831712Y-99423706D01*
X251825682Y-99426391D01*
X251825681Y-99426391D01*
X251663278Y-99498697D01*
X251663276Y-99498698D01*
X251657248Y-99501382D01*
X251651907Y-99505262D01*
X251651906Y-99505263D01*
X251601843Y-99541636D01*
X251502747Y-99613634D01*
X251498326Y-99618544D01*
X251498325Y-99618545D01*
X251389573Y-99739327D01*
X251374960Y-99755556D01*
X251351092Y-99796896D01*
X251304075Y-99878333D01*
X251279473Y-99920944D01*
X251220458Y-100102572D01*
X251219768Y-100109133D01*
X251219768Y-100109135D01*
X251213564Y-100168168D01*
X251200496Y-100292500D01*
X229433134Y-100292500D01*
X229453529Y-100137590D01*
X229454538Y-100096294D01*
X229455074Y-100074365D01*
X229455074Y-100074361D01*
X229455156Y-100071000D01*
X229436852Y-99848361D01*
X229382431Y-99631702D01*
X229293354Y-99426840D01*
X229232427Y-99332661D01*
X229174822Y-99243617D01*
X229174820Y-99243614D01*
X229172014Y-99239277D01*
X229021670Y-99074051D01*
X229017619Y-99070852D01*
X229017615Y-99070848D01*
X228850414Y-98938800D01*
X228850410Y-98938798D01*
X228846359Y-98935598D01*
X228805053Y-98912796D01*
X228755084Y-98862364D01*
X228740312Y-98792921D01*
X228765428Y-98726516D01*
X228792780Y-98699909D01*
X228836603Y-98668650D01*
X228971860Y-98572173D01*
X229130096Y-98414489D01*
X229189594Y-98331689D01*
X229257435Y-98237277D01*
X229260453Y-98233077D01*
X229285720Y-98181954D01*
X229357136Y-98037453D01*
X229357137Y-98037451D01*
X229359430Y-98032811D01*
X229424370Y-97819069D01*
X229453529Y-97597590D01*
X229455156Y-97531000D01*
X229436852Y-97308361D01*
X229382431Y-97091702D01*
X229293354Y-96886840D01*
X229253906Y-96825862D01*
X229174822Y-96703617D01*
X229174820Y-96703614D01*
X229172014Y-96699277D01*
X229021670Y-96534051D01*
X229017619Y-96530852D01*
X229017615Y-96530848D01*
X228850414Y-96398800D01*
X228850410Y-96398798D01*
X228846359Y-96395598D01*
X228805053Y-96372796D01*
X228755084Y-96322364D01*
X228740312Y-96252921D01*
X228765428Y-96186516D01*
X228792780Y-96159909D01*
X228844145Y-96123271D01*
X228971860Y-96032173D01*
X229130096Y-95874489D01*
X229189594Y-95791689D01*
X229257435Y-95697277D01*
X229260453Y-95693077D01*
X229285720Y-95641954D01*
X229357136Y-95497453D01*
X229357137Y-95497451D01*
X229359430Y-95492811D01*
X229424370Y-95279069D01*
X229453529Y-95057590D01*
X229453611Y-95054240D01*
X229455074Y-94994365D01*
X229455074Y-94994361D01*
X229455156Y-94991000D01*
X229436852Y-94768361D01*
X229382431Y-94551702D01*
X229293354Y-94346840D01*
X229251632Y-94282348D01*
X229174822Y-94163617D01*
X229174820Y-94163614D01*
X229172014Y-94159277D01*
X229021670Y-93994051D01*
X229017619Y-93990852D01*
X229017615Y-93990848D01*
X228850414Y-93858800D01*
X228850410Y-93858798D01*
X228846359Y-93855598D01*
X228805053Y-93832796D01*
X228755084Y-93782364D01*
X228740312Y-93712921D01*
X228765428Y-93646516D01*
X228792780Y-93619909D01*
X228836603Y-93588650D01*
X228971860Y-93492173D01*
X229130096Y-93334489D01*
X229189594Y-93251689D01*
X229257435Y-93157277D01*
X229260453Y-93153077D01*
X229285720Y-93101954D01*
X229357136Y-92957453D01*
X229357137Y-92957451D01*
X229359430Y-92952811D01*
X229424370Y-92739069D01*
X229453529Y-92517590D01*
X229455156Y-92451000D01*
X229436852Y-92228361D01*
X229382431Y-92011702D01*
X229293354Y-91806840D01*
X229172014Y-91619277D01*
X229021670Y-91454051D01*
X229017619Y-91450852D01*
X229017615Y-91450848D01*
X228850414Y-91318800D01*
X228850410Y-91318798D01*
X228846359Y-91315598D01*
X228805053Y-91292796D01*
X228755084Y-91242364D01*
X228740312Y-91172921D01*
X228765428Y-91106516D01*
X228792780Y-91079909D01*
X228836603Y-91048650D01*
X228971860Y-90952173D01*
X229130096Y-90794489D01*
X229189594Y-90711689D01*
X229257435Y-90617277D01*
X229260453Y-90613077D01*
X229359430Y-90412811D01*
X229424370Y-90199069D01*
X229453529Y-89977590D01*
X229455156Y-89911000D01*
X229436852Y-89688361D01*
X229382431Y-89471702D01*
X229293354Y-89266840D01*
X229172014Y-89079277D01*
X229168532Y-89075450D01*
X229024798Y-88917488D01*
X228993746Y-88853642D01*
X229002141Y-88783143D01*
X229047317Y-88728375D01*
X229073761Y-88714706D01*
X229180297Y-88674767D01*
X229188705Y-88671615D01*
X229305261Y-88584261D01*
X229392615Y-88467705D01*
X229443745Y-88331316D01*
X229450500Y-88269134D01*
X229450500Y-86472866D01*
X229443745Y-86410684D01*
X229392615Y-86274295D01*
X229305261Y-86157739D01*
X229188705Y-86070385D01*
X229052316Y-86019255D01*
X228990134Y-86012500D01*
X227193866Y-86012500D01*
X227131684Y-86019255D01*
X226995295Y-86070385D01*
X226878739Y-86157739D01*
X226791385Y-86274295D01*
X226740255Y-86410684D01*
X226733500Y-86472866D01*
X226733500Y-88269134D01*
X226740255Y-88331316D01*
X226791385Y-88467705D01*
X226878739Y-88584261D01*
X226995295Y-88671615D01*
X227003704Y-88674767D01*
X227003705Y-88674768D01*
X227112451Y-88715535D01*
X227169216Y-88758176D01*
X227193916Y-88824738D01*
X227178709Y-88894087D01*
X227159316Y-88920568D01*
X227032629Y-89053138D01*
X226906743Y-89237680D01*
X226812688Y-89440305D01*
X226752989Y-89655570D01*
X226729251Y-89877695D01*
X226729548Y-89882848D01*
X226729548Y-89882851D01*
X226735011Y-89977590D01*
X226742110Y-90100715D01*
X226743247Y-90105761D01*
X226743248Y-90105767D01*
X226763119Y-90193939D01*
X226791222Y-90318639D01*
X226875266Y-90525616D01*
X226991987Y-90716088D01*
X227138250Y-90884938D01*
X227310126Y-91027632D01*
X227380595Y-91068811D01*
X227383445Y-91070476D01*
X227432169Y-91122114D01*
X227445240Y-91191897D01*
X227418509Y-91257669D01*
X227378055Y-91291027D01*
X227365607Y-91297507D01*
X227361474Y-91300610D01*
X227361471Y-91300612D01*
X227337247Y-91318800D01*
X227186965Y-91431635D01*
X227032629Y-91593138D01*
X226906743Y-91777680D01*
X226812688Y-91980305D01*
X226752989Y-92195570D01*
X226729251Y-92417695D01*
X226729548Y-92422848D01*
X226729548Y-92422851D01*
X226741812Y-92635547D01*
X226742110Y-92640715D01*
X226743247Y-92645761D01*
X226743248Y-92645767D01*
X226758688Y-92714277D01*
X226791222Y-92858639D01*
X226875266Y-93065616D01*
X226991987Y-93256088D01*
X227138250Y-93424938D01*
X227310126Y-93567632D01*
X227380595Y-93608811D01*
X227383445Y-93610476D01*
X227432169Y-93662114D01*
X227445240Y-93731897D01*
X227418509Y-93797669D01*
X227378055Y-93831027D01*
X227365607Y-93837507D01*
X227361474Y-93840610D01*
X227361471Y-93840612D01*
X227337247Y-93858800D01*
X227186965Y-93971635D01*
X227032629Y-94133138D01*
X226906743Y-94317680D01*
X226860349Y-94417628D01*
X226821400Y-94501537D01*
X226812688Y-94520305D01*
X226752989Y-94735570D01*
X226729251Y-94957695D01*
X226729548Y-94962848D01*
X226729548Y-94962851D01*
X226736640Y-95085848D01*
X226742110Y-95180715D01*
X226743247Y-95185761D01*
X226743248Y-95185767D01*
X226750096Y-95216153D01*
X226791222Y-95398639D01*
X226875266Y-95605616D01*
X226991987Y-95796088D01*
X227138250Y-95964938D01*
X227310126Y-96107632D01*
X227380595Y-96148811D01*
X227383445Y-96150476D01*
X227432169Y-96202114D01*
X227445240Y-96271897D01*
X227418509Y-96337669D01*
X227378055Y-96371027D01*
X227365607Y-96377507D01*
X227361474Y-96380610D01*
X227361471Y-96380612D01*
X227286548Y-96436866D01*
X227186965Y-96511635D01*
X227183393Y-96515373D01*
X227040284Y-96665128D01*
X227032629Y-96673138D01*
X227029715Y-96677410D01*
X227029714Y-96677411D01*
X226957387Y-96783438D01*
X226906743Y-96857680D01*
X226812688Y-97060305D01*
X226752989Y-97275570D01*
X226729251Y-97497695D01*
X226729548Y-97502848D01*
X226729548Y-97502851D01*
X226735011Y-97597590D01*
X226742110Y-97720715D01*
X226743247Y-97725761D01*
X226743248Y-97725767D01*
X226751955Y-97764401D01*
X226791222Y-97938639D01*
X226875266Y-98145616D01*
X226991987Y-98336088D01*
X227138250Y-98504938D01*
X227310126Y-98647632D01*
X227380595Y-98688811D01*
X227383445Y-98690476D01*
X227432169Y-98742114D01*
X227445240Y-98811897D01*
X227418509Y-98877669D01*
X227378055Y-98911027D01*
X227365607Y-98917507D01*
X227361474Y-98920610D01*
X227361471Y-98920612D01*
X227337247Y-98938800D01*
X227186965Y-99051635D01*
X227032629Y-99213138D01*
X227029715Y-99217410D01*
X227029714Y-99217411D01*
X226997565Y-99264540D01*
X226906743Y-99397680D01*
X226812688Y-99600305D01*
X226752989Y-99815570D01*
X226729251Y-100037695D01*
X226729548Y-100042848D01*
X226729548Y-100042851D01*
X226741582Y-100251550D01*
X226742110Y-100260715D01*
X226743247Y-100265761D01*
X226743248Y-100265767D01*
X226754841Y-100317207D01*
X226791222Y-100478639D01*
X226875266Y-100685616D01*
X226926019Y-100768438D01*
X226963404Y-100829444D01*
X226991987Y-100876088D01*
X227138250Y-101044938D01*
X227310126Y-101187632D01*
X227325018Y-101196334D01*
X227383445Y-101230476D01*
X227432169Y-101282114D01*
X227445240Y-101351897D01*
X227418509Y-101417669D01*
X227378055Y-101451027D01*
X227365607Y-101457507D01*
X227361474Y-101460610D01*
X227361471Y-101460612D01*
X227337247Y-101478800D01*
X227186965Y-101591635D01*
X227032629Y-101753138D01*
X227029715Y-101757410D01*
X227029714Y-101757411D01*
X226994637Y-101808832D01*
X226906743Y-101937680D01*
X226812688Y-102140305D01*
X226752989Y-102355570D01*
X226729251Y-102577695D01*
X226729548Y-102582848D01*
X226729548Y-102582851D01*
X226740265Y-102768711D01*
X226742110Y-102800715D01*
X226743247Y-102805761D01*
X226743248Y-102805767D01*
X226757895Y-102870757D01*
X226791222Y-103018639D01*
X226875266Y-103225616D01*
X226991987Y-103416088D01*
X227138250Y-103584938D01*
X227310126Y-103727632D01*
X227380595Y-103768811D01*
X227383445Y-103770476D01*
X227432169Y-103822114D01*
X227445240Y-103891897D01*
X227418509Y-103957669D01*
X227378055Y-103991027D01*
X227365607Y-103997507D01*
X227361474Y-104000610D01*
X227361471Y-104000612D01*
X227191100Y-104128530D01*
X227186965Y-104131635D01*
X227032629Y-104293138D01*
X226906743Y-104477680D01*
X226812688Y-104680305D01*
X226752989Y-104895570D01*
X226729251Y-105117695D01*
X226729548Y-105122848D01*
X226729548Y-105122851D01*
X226735011Y-105217590D01*
X226742110Y-105340715D01*
X226743247Y-105345761D01*
X226743248Y-105345767D01*
X226763119Y-105433939D01*
X226791222Y-105558639D01*
X226875266Y-105765616D01*
X226991987Y-105956088D01*
X227138250Y-106124938D01*
X227310126Y-106267632D01*
X227380595Y-106308811D01*
X227383445Y-106310476D01*
X227432169Y-106362114D01*
X227445240Y-106431897D01*
X227418509Y-106497669D01*
X227378055Y-106531027D01*
X227365607Y-106537507D01*
X227361474Y-106540610D01*
X227361471Y-106540612D01*
X227194374Y-106666072D01*
X227186965Y-106671635D01*
X227032629Y-106833138D01*
X227029715Y-106837410D01*
X227029714Y-106837411D01*
X227014798Y-106859277D01*
X226906743Y-107017680D01*
X226812688Y-107220305D01*
X226752989Y-107435570D01*
X226729251Y-107657695D01*
X226729548Y-107662848D01*
X226729548Y-107662851D01*
X226735011Y-107757590D01*
X226742110Y-107880715D01*
X226743247Y-107885761D01*
X226743248Y-107885767D01*
X226763119Y-107973939D01*
X226791222Y-108098639D01*
X226875266Y-108305616D01*
X226991987Y-108496088D01*
X227138250Y-108664938D01*
X227310126Y-108807632D01*
X227380595Y-108848811D01*
X227383445Y-108850476D01*
X227432169Y-108902114D01*
X227445240Y-108971897D01*
X227418509Y-109037669D01*
X227378055Y-109071027D01*
X227365607Y-109077507D01*
X227361474Y-109080610D01*
X227361471Y-109080612D01*
X227337247Y-109098800D01*
X227186965Y-109211635D01*
X227032629Y-109373138D01*
X226906743Y-109557680D01*
X226812688Y-109760305D01*
X226752989Y-109975570D01*
X226729251Y-110197695D01*
X226729548Y-110202848D01*
X226729548Y-110202851D01*
X226737968Y-110348872D01*
X226742110Y-110420715D01*
X226743247Y-110425761D01*
X226743248Y-110425767D01*
X226765392Y-110524023D01*
X226791222Y-110638639D01*
X226875266Y-110845616D01*
X226991987Y-111036088D01*
X227138250Y-111204938D01*
X227310126Y-111347632D01*
X227380595Y-111388811D01*
X227383445Y-111390476D01*
X227432169Y-111442114D01*
X227445240Y-111511897D01*
X227418509Y-111577669D01*
X227378055Y-111611027D01*
X227365607Y-111617507D01*
X227361474Y-111620610D01*
X227361471Y-111620612D01*
X227337247Y-111638800D01*
X227186965Y-111751635D01*
X227032629Y-111913138D01*
X226906743Y-112097680D01*
X226812688Y-112300305D01*
X226752989Y-112515570D01*
X226729251Y-112737695D01*
X226729548Y-112742848D01*
X226729548Y-112742851D01*
X226735011Y-112837590D01*
X226742110Y-112960715D01*
X226743247Y-112965761D01*
X226743248Y-112965767D01*
X226763119Y-113053939D01*
X226791222Y-113178639D01*
X226875266Y-113385616D01*
X226991987Y-113576088D01*
X227138250Y-113744938D01*
X227310126Y-113887632D01*
X227380595Y-113928811D01*
X227383445Y-113930476D01*
X227432169Y-113982114D01*
X227445240Y-114051897D01*
X227418509Y-114117669D01*
X227378055Y-114151027D01*
X227365607Y-114157507D01*
X227361474Y-114160610D01*
X227361471Y-114160612D01*
X227337247Y-114178800D01*
X227186965Y-114291635D01*
X227032629Y-114453138D01*
X226906743Y-114637680D01*
X226812688Y-114840305D01*
X226752989Y-115055570D01*
X226729251Y-115277695D01*
X39802500Y-115277695D01*
X39802500Y-111256000D01*
X200680496Y-111256000D01*
X200700458Y-111445928D01*
X200759473Y-111627556D01*
X200854960Y-111792944D01*
X200982747Y-111934866D01*
X201137248Y-112047118D01*
X201143276Y-112049802D01*
X201143278Y-112049803D01*
X201305681Y-112122109D01*
X201311712Y-112124794D01*
X201405113Y-112144647D01*
X201492056Y-112163128D01*
X201492061Y-112163128D01*
X201498513Y-112164500D01*
X201689487Y-112164500D01*
X201695939Y-112163128D01*
X201695944Y-112163128D01*
X201782887Y-112144647D01*
X201876288Y-112124794D01*
X201882319Y-112122109D01*
X202044722Y-112049803D01*
X202044724Y-112049802D01*
X202050752Y-112047118D01*
X202131344Y-111988564D01*
X202198211Y-111964706D01*
X202205405Y-111964500D01*
X211482595Y-111964500D01*
X211550716Y-111984502D01*
X211556656Y-111988564D01*
X211637248Y-112047118D01*
X211643276Y-112049802D01*
X211643278Y-112049803D01*
X211805681Y-112122109D01*
X211811712Y-112124794D01*
X211905113Y-112144647D01*
X211992056Y-112163128D01*
X211992061Y-112163128D01*
X211998513Y-112164500D01*
X212189487Y-112164500D01*
X212195939Y-112163128D01*
X212195944Y-112163128D01*
X212282887Y-112144647D01*
X212376288Y-112124794D01*
X212382319Y-112122109D01*
X212544722Y-112049803D01*
X212544724Y-112049802D01*
X212550752Y-112047118D01*
X212705253Y-111934866D01*
X212833040Y-111792944D01*
X212928527Y-111627556D01*
X212987542Y-111445928D01*
X213007504Y-111256000D01*
X212987542Y-111066072D01*
X212928527Y-110884444D01*
X212833040Y-110719056D01*
X212820724Y-110705377D01*
X212709675Y-110582045D01*
X212709674Y-110582044D01*
X212705253Y-110577134D01*
X212606157Y-110505136D01*
X212556094Y-110468763D01*
X212556093Y-110468762D01*
X212550752Y-110464882D01*
X212544724Y-110462198D01*
X212544722Y-110462197D01*
X212382319Y-110389891D01*
X212382318Y-110389891D01*
X212376288Y-110387206D01*
X212282887Y-110367353D01*
X212195944Y-110348872D01*
X212195939Y-110348872D01*
X212189487Y-110347500D01*
X211998513Y-110347500D01*
X211992061Y-110348872D01*
X211992056Y-110348872D01*
X211905112Y-110367353D01*
X211811712Y-110387206D01*
X211805682Y-110389891D01*
X211805681Y-110389891D01*
X211643278Y-110462197D01*
X211643276Y-110462198D01*
X211637248Y-110464882D01*
X211631907Y-110468762D01*
X211631906Y-110468763D01*
X211556656Y-110523436D01*
X211489789Y-110547294D01*
X211482595Y-110547500D01*
X202428500Y-110547500D01*
X202360379Y-110527498D01*
X202313886Y-110473842D01*
X202302500Y-110421500D01*
X202302500Y-107474744D01*
X202322502Y-107406623D01*
X202326564Y-107400683D01*
X202328621Y-107397852D01*
X202333040Y-107392944D01*
X202428527Y-107227556D01*
X202487542Y-107045928D01*
X202490018Y-107022375D01*
X202506814Y-106862565D01*
X202507504Y-106856000D01*
X202487542Y-106666072D01*
X202428527Y-106484444D01*
X202333040Y-106319056D01*
X202205253Y-106177134D01*
X202050752Y-106064882D01*
X202044724Y-106062198D01*
X202044722Y-106062197D01*
X201882319Y-105989891D01*
X201882318Y-105989891D01*
X201876288Y-105987206D01*
X201748248Y-105959990D01*
X201695944Y-105948872D01*
X201695939Y-105948872D01*
X201689487Y-105947500D01*
X201498513Y-105947500D01*
X201492061Y-105948872D01*
X201492056Y-105948872D01*
X201439752Y-105959990D01*
X201311712Y-105987206D01*
X201305682Y-105989891D01*
X201305681Y-105989891D01*
X201143278Y-106062197D01*
X201143276Y-106062198D01*
X201137248Y-106064882D01*
X200982747Y-106177134D01*
X200854960Y-106319056D01*
X200759473Y-106484444D01*
X200700458Y-106666072D01*
X200680496Y-106856000D01*
X200681186Y-106862565D01*
X200697983Y-107022375D01*
X200700458Y-107045928D01*
X200759473Y-107227556D01*
X200854960Y-107392944D01*
X200859379Y-107397852D01*
X200861436Y-107400683D01*
X200885295Y-107467551D01*
X200885500Y-107474744D01*
X200885500Y-110637256D01*
X200865498Y-110705377D01*
X200861436Y-110711317D01*
X200859379Y-110714148D01*
X200854960Y-110719056D01*
X200851659Y-110724774D01*
X200851658Y-110724775D01*
X200847019Y-110732811D01*
X200759473Y-110884444D01*
X200700458Y-111066072D01*
X200680496Y-111256000D01*
X39802500Y-111256000D01*
X39802500Y-95758000D01*
X222098496Y-95758000D01*
X222118458Y-95947928D01*
X222177473Y-96129556D01*
X222180776Y-96135278D01*
X222180777Y-96135279D01*
X222210359Y-96186516D01*
X222272960Y-96294944D01*
X222277378Y-96299851D01*
X222277379Y-96299852D01*
X222363589Y-96395598D01*
X222400747Y-96436866D01*
X222471947Y-96488596D01*
X222545366Y-96541938D01*
X222555248Y-96549118D01*
X222561276Y-96551802D01*
X222561278Y-96551803D01*
X222642154Y-96587811D01*
X222729712Y-96626794D01*
X222815976Y-96645130D01*
X222910056Y-96665128D01*
X222910061Y-96665128D01*
X222916513Y-96666500D01*
X223107487Y-96666500D01*
X223113939Y-96665128D01*
X223113944Y-96665128D01*
X223208024Y-96645130D01*
X223294288Y-96626794D01*
X223381846Y-96587811D01*
X223462722Y-96551803D01*
X223462724Y-96551802D01*
X223468752Y-96549118D01*
X223478635Y-96541938D01*
X223552053Y-96488596D01*
X223623253Y-96436866D01*
X223660411Y-96395598D01*
X223746621Y-96299852D01*
X223746622Y-96299851D01*
X223751040Y-96294944D01*
X223813641Y-96186516D01*
X223843223Y-96135279D01*
X223843224Y-96135278D01*
X223846527Y-96129556D01*
X223905542Y-95947928D01*
X223925504Y-95758000D01*
X223905542Y-95568072D01*
X223846527Y-95386444D01*
X223751040Y-95221056D01*
X223677863Y-95139785D01*
X223647147Y-95075779D01*
X223645500Y-95055476D01*
X223645500Y-88078524D01*
X223665502Y-88010403D01*
X223677858Y-87994221D01*
X223751040Y-87912944D01*
X223846527Y-87747556D01*
X223905542Y-87565928D01*
X223925504Y-87376000D01*
X223905542Y-87186072D01*
X223846527Y-87004444D01*
X223751040Y-86839056D01*
X223623253Y-86697134D01*
X223468752Y-86584882D01*
X223462724Y-86582198D01*
X223462722Y-86582197D01*
X223300319Y-86509891D01*
X223300318Y-86509891D01*
X223294288Y-86507206D01*
X223200887Y-86487353D01*
X223113944Y-86468872D01*
X223113939Y-86468872D01*
X223107487Y-86467500D01*
X222916513Y-86467500D01*
X222910061Y-86468872D01*
X222910056Y-86468872D01*
X222823113Y-86487353D01*
X222729712Y-86507206D01*
X222723682Y-86509891D01*
X222723681Y-86509891D01*
X222561278Y-86582197D01*
X222561276Y-86582198D01*
X222555248Y-86584882D01*
X222400747Y-86697134D01*
X222272960Y-86839056D01*
X222177473Y-87004444D01*
X222118458Y-87186072D01*
X222098496Y-87376000D01*
X222118458Y-87565928D01*
X222177473Y-87747556D01*
X222272960Y-87912944D01*
X222346137Y-87994215D01*
X222376853Y-88058221D01*
X222378500Y-88078524D01*
X222378500Y-95055476D01*
X222358498Y-95123597D01*
X222346142Y-95139779D01*
X222272960Y-95221056D01*
X222177473Y-95386444D01*
X222118458Y-95568072D01*
X222098496Y-95758000D01*
X39802500Y-95758000D01*
X39802500Y-52502865D01*
X39803850Y-52484473D01*
X39807724Y-52458237D01*
X39806490Y-52449344D01*
X39806490Y-52449340D01*
X39804887Y-52437788D01*
X39803771Y-52415979D01*
X39804252Y-52402485D01*
X41690854Y-52402485D01*
X41696999Y-52480567D01*
X41709108Y-52634417D01*
X41716370Y-52726695D01*
X41781206Y-53045378D01*
X41884398Y-53353784D01*
X42024405Y-53647316D01*
X42026467Y-53650553D01*
X42026470Y-53650558D01*
X42057014Y-53698502D01*
X42199141Y-53921597D01*
X42201584Y-53924560D01*
X42201585Y-53924562D01*
X42351308Y-54106190D01*
X42406001Y-54172538D01*
X42641902Y-54396399D01*
X42903326Y-54589843D01*
X42921252Y-54599985D01*
X43183019Y-54748086D01*
X43183023Y-54748088D01*
X43186376Y-54749985D01*
X43189937Y-54751460D01*
X43189939Y-54751461D01*
X43284026Y-54790433D01*
X43486832Y-54874438D01*
X43590288Y-54903129D01*
X43796500Y-54960317D01*
X43796508Y-54960319D01*
X43800216Y-54961347D01*
X44121856Y-55009416D01*
X44125154Y-55009560D01*
X44236918Y-55014440D01*
X44236922Y-55014440D01*
X44238294Y-55014500D01*
X44436598Y-55014500D01*
X44678605Y-54999698D01*
X44682388Y-54998997D01*
X44682395Y-54998996D01*
X44882459Y-54961916D01*
X44998372Y-54940433D01*
X45207682Y-54874438D01*
X45304860Y-54843798D01*
X45304863Y-54843797D01*
X45308532Y-54842640D01*
X45312029Y-54841046D01*
X45312035Y-54841044D01*
X45600954Y-54709376D01*
X45600958Y-54709374D01*
X45604462Y-54707777D01*
X45627274Y-54693798D01*
X45878473Y-54539863D01*
X45878476Y-54539861D01*
X45881751Y-54537854D01*
X45884755Y-54535464D01*
X45884760Y-54535461D01*
X46133258Y-54337796D01*
X46136264Y-54335405D01*
X46138958Y-54332664D01*
X46138962Y-54332660D01*
X46361513Y-54106190D01*
X46361517Y-54106185D01*
X46364208Y-54103447D01*
X46562185Y-53845439D01*
X46727242Y-53565227D01*
X46856920Y-53266988D01*
X46949285Y-52955169D01*
X47002961Y-52634417D01*
X47017146Y-52309515D01*
X47012658Y-52252485D01*
X253230854Y-52252485D01*
X253231156Y-52256320D01*
X253249832Y-52493616D01*
X253256370Y-52576695D01*
X253321206Y-52895378D01*
X253424398Y-53203784D01*
X253564405Y-53497316D01*
X253566467Y-53500553D01*
X253566470Y-53500558D01*
X253629099Y-53598865D01*
X253739141Y-53771597D01*
X253741584Y-53774560D01*
X253741585Y-53774562D01*
X253891308Y-53956190D01*
X253946001Y-54022538D01*
X254181902Y-54246399D01*
X254443326Y-54439843D01*
X254584851Y-54519914D01*
X254723019Y-54598086D01*
X254723023Y-54598088D01*
X254726376Y-54599985D01*
X255026832Y-54724438D01*
X255112104Y-54748086D01*
X255336500Y-54810317D01*
X255336508Y-54810319D01*
X255340216Y-54811347D01*
X255661856Y-54859416D01*
X255665154Y-54859560D01*
X255776918Y-54864440D01*
X255776922Y-54864440D01*
X255778294Y-54864500D01*
X255976598Y-54864500D01*
X256218605Y-54849698D01*
X256222388Y-54848997D01*
X256222395Y-54848996D01*
X256422459Y-54811916D01*
X256538372Y-54790433D01*
X256747682Y-54724438D01*
X256844860Y-54693798D01*
X256844863Y-54693797D01*
X256848532Y-54692640D01*
X256852029Y-54691046D01*
X256852035Y-54691044D01*
X257140954Y-54559376D01*
X257140958Y-54559374D01*
X257144462Y-54557777D01*
X257173695Y-54539863D01*
X257418473Y-54389863D01*
X257418476Y-54389861D01*
X257421751Y-54387854D01*
X257424755Y-54385464D01*
X257424760Y-54385461D01*
X257549007Y-54286630D01*
X257676264Y-54185405D01*
X257678958Y-54182664D01*
X257678962Y-54182660D01*
X257901513Y-53956190D01*
X257901517Y-53956185D01*
X257904208Y-53953447D01*
X258102185Y-53695439D01*
X258267242Y-53415227D01*
X258396920Y-53116988D01*
X258489285Y-52805169D01*
X258542961Y-52484417D01*
X258557146Y-52159515D01*
X258543139Y-51981535D01*
X258531932Y-51839140D01*
X258531932Y-51839137D01*
X258531630Y-51835305D01*
X258466794Y-51516622D01*
X258363602Y-51208216D01*
X258223595Y-50914684D01*
X258192938Y-50866561D01*
X258097377Y-50716561D01*
X258048859Y-50640403D01*
X258020343Y-50605810D01*
X257844442Y-50392425D01*
X257844438Y-50392420D01*
X257841999Y-50389462D01*
X257606098Y-50165601D01*
X257344674Y-49972157D01*
X257139781Y-49856234D01*
X257064981Y-49813914D01*
X257064977Y-49813912D01*
X257061624Y-49812015D01*
X256966775Y-49772727D01*
X256822590Y-49713004D01*
X256761168Y-49687562D01*
X256657712Y-49658871D01*
X256451500Y-49601683D01*
X256451492Y-49601681D01*
X256447784Y-49600653D01*
X256126144Y-49552584D01*
X256122846Y-49552440D01*
X256011082Y-49547560D01*
X256011078Y-49547560D01*
X256009706Y-49547500D01*
X255811402Y-49547500D01*
X255569395Y-49562302D01*
X255565612Y-49563003D01*
X255565605Y-49563004D01*
X255409511Y-49591935D01*
X255249628Y-49621567D01*
X255065058Y-49679762D01*
X254943140Y-49718202D01*
X254943137Y-49718203D01*
X254939468Y-49719360D01*
X254935971Y-49720954D01*
X254935965Y-49720956D01*
X254647046Y-49852624D01*
X254647042Y-49852626D01*
X254643538Y-49854223D01*
X254640259Y-49856233D01*
X254640256Y-49856234D01*
X254395479Y-50006234D01*
X254366249Y-50024146D01*
X254363245Y-50026536D01*
X254363240Y-50026539D01*
X254245420Y-50120258D01*
X254111736Y-50226595D01*
X254109042Y-50229336D01*
X254109038Y-50229340D01*
X253886487Y-50455810D01*
X253886483Y-50455815D01*
X253883792Y-50458553D01*
X253770605Y-50606061D01*
X253691654Y-50708952D01*
X253685815Y-50716561D01*
X253642319Y-50790403D01*
X253531763Y-50978091D01*
X253520758Y-50996773D01*
X253391080Y-51295012D01*
X253389986Y-51298706D01*
X253389984Y-51298711D01*
X253349727Y-51434617D01*
X253298715Y-51606831D01*
X253245039Y-51927583D01*
X253230854Y-52252485D01*
X47012658Y-52252485D01*
X47001879Y-52115527D01*
X46991932Y-51989140D01*
X46991932Y-51989137D01*
X46991630Y-51985305D01*
X46926794Y-51666622D01*
X46823602Y-51358216D01*
X46683595Y-51064684D01*
X46638219Y-50993457D01*
X46590244Y-50918152D01*
X46508859Y-50790403D01*
X46450729Y-50719886D01*
X46304442Y-50542425D01*
X46304438Y-50542420D01*
X46301999Y-50539462D01*
X46066098Y-50315601D01*
X45804674Y-50122157D01*
X45599781Y-50006234D01*
X45524981Y-49963914D01*
X45524977Y-49963912D01*
X45521624Y-49962015D01*
X45221168Y-49837562D01*
X45117712Y-49808871D01*
X44911500Y-49751683D01*
X44911492Y-49751681D01*
X44907784Y-49750653D01*
X44586144Y-49702584D01*
X44582846Y-49702440D01*
X44471082Y-49697560D01*
X44471078Y-49697560D01*
X44469706Y-49697500D01*
X44271402Y-49697500D01*
X44029395Y-49712302D01*
X44025612Y-49713003D01*
X44025605Y-49713004D01*
X43869511Y-49741935D01*
X43709628Y-49771567D01*
X43525058Y-49829762D01*
X43403140Y-49868202D01*
X43403137Y-49868203D01*
X43399468Y-49869360D01*
X43395971Y-49870954D01*
X43395965Y-49870956D01*
X43107046Y-50002624D01*
X43107042Y-50002626D01*
X43103538Y-50004223D01*
X43100259Y-50006233D01*
X43100256Y-50006234D01*
X42843927Y-50163313D01*
X42826249Y-50174146D01*
X42823245Y-50176536D01*
X42823240Y-50176539D01*
X42748468Y-50236016D01*
X42571736Y-50376595D01*
X42569042Y-50379336D01*
X42569038Y-50379340D01*
X42346487Y-50605810D01*
X42346483Y-50605815D01*
X42343792Y-50608553D01*
X42145815Y-50866561D01*
X41980758Y-51146773D01*
X41851080Y-51445012D01*
X41849986Y-51448706D01*
X41849984Y-51448711D01*
X41809727Y-51584617D01*
X41758715Y-51756831D01*
X41705039Y-52077583D01*
X41690854Y-52402485D01*
X39804252Y-52402485D01*
X39811807Y-52190770D01*
X39816726Y-52052910D01*
X39817593Y-52041989D01*
X39820814Y-52015882D01*
X39865808Y-51651104D01*
X39867622Y-51640297D01*
X39873940Y-51610627D01*
X39949643Y-51255087D01*
X39952385Y-51244493D01*
X40067594Y-50867858D01*
X40071255Y-50857522D01*
X40218768Y-50492352D01*
X40223314Y-50482372D01*
X40348756Y-50236016D01*
X40402029Y-50131395D01*
X40407414Y-50121868D01*
X40615973Y-49787756D01*
X40622165Y-49778736D01*
X40858983Y-49464026D01*
X40865943Y-49455569D01*
X41129235Y-49162635D01*
X41136899Y-49154821D01*
X41424651Y-48885904D01*
X41432982Y-48878772D01*
X41743015Y-48635903D01*
X41751934Y-48629522D01*
X42081919Y-48414526D01*
X42091358Y-48408945D01*
X42107780Y-48400177D01*
X42438796Y-48223451D01*
X42448673Y-48218718D01*
X42810916Y-48064140D01*
X42821180Y-48060279D01*
X43195488Y-47937785D01*
X43206049Y-47934831D01*
X43589596Y-47845346D01*
X43600374Y-47843322D01*
X43990235Y-47787528D01*
X44001148Y-47786448D01*
X44014068Y-47785736D01*
X44356423Y-47766858D01*
X44381305Y-47767952D01*
X44384771Y-47768451D01*
X44384778Y-47768451D01*
X44393660Y-47769729D01*
X44402549Y-47768462D01*
X44421649Y-47765740D01*
X44439368Y-47764479D01*
X154978336Y-47712239D01*
X255949316Y-47664521D01*
X255966952Y-47665754D01*
G37*
G04 #@! TD.AperFunction*
M02*
