G04 #@! TF.GenerationSoftware,KiCad,Pcbnew,6.0.6-3a73a75311~116~ubuntu20.04.1*
G04 #@! TF.CreationDate,2022-10-05T11:55:40-04:00*
G04 #@! TF.ProjectId,developmentboard,64657665-6c6f-4706-9d65-6e74626f6172,rev?*
G04 #@! TF.SameCoordinates,Original*
G04 #@! TF.FileFunction,Legend,Top*
G04 #@! TF.FilePolarity,Positive*
%FSLAX46Y46*%
G04 Gerber Fmt 4.6, Leading zero omitted, Abs format (unit mm)*
G04 Created by KiCad (PCBNEW 6.0.6-3a73a75311~116~ubuntu20.04.1) date 2022-10-05 11:55:40*
%MOMM*%
%LPD*%
G01*
G04 APERTURE LIST*
G04 Aperture macros list*
%AMRoundRect*
0 Rectangle with rounded corners*
0 $1 Rounding radius*
0 $2 $3 $4 $5 $6 $7 $8 $9 X,Y pos of 4 corners*
0 Add a 4 corners polygon primitive as box body*
4,1,4,$2,$3,$4,$5,$6,$7,$8,$9,$2,$3,0*
0 Add four circle primitives for the rounded corners*
1,1,$1+$1,$2,$3*
1,1,$1+$1,$4,$5*
1,1,$1+$1,$6,$7*
1,1,$1+$1,$8,$9*
0 Add four rect primitives between the rounded corners*
20,1,$1+$1,$2,$3,$4,$5,0*
20,1,$1+$1,$4,$5,$6,$7,0*
20,1,$1+$1,$6,$7,$8,$9,0*
20,1,$1+$1,$8,$9,$2,$3,0*%
G04 Aperture macros list end*
%ADD10C,0.300000*%
%ADD11C,0.150000*%
%ADD12C,0.120000*%
%ADD13RoundRect,0.225000X-0.225000X-0.250000X0.225000X-0.250000X0.225000X0.250000X-0.225000X0.250000X0*%
%ADD14RoundRect,0.225000X0.225000X0.250000X-0.225000X0.250000X-0.225000X-0.250000X0.225000X-0.250000X0*%
%ADD15RoundRect,0.150000X-0.150000X0.587500X-0.150000X-0.587500X0.150000X-0.587500X0.150000X0.587500X0*%
%ADD16RoundRect,0.225000X0.250000X-0.225000X0.250000X0.225000X-0.250000X0.225000X-0.250000X-0.225000X0*%
%ADD17C,4.300000*%
%ADD18RoundRect,0.225000X-0.250000X0.225000X-0.250000X-0.225000X0.250000X-0.225000X0.250000X0.225000X0*%
%ADD19R,1.700000X1.700000*%
%ADD20O,1.700000X1.700000*%
%ADD21RoundRect,0.150000X0.150000X-0.587500X0.150000X0.587500X-0.150000X0.587500X-0.150000X-0.587500X0*%
%ADD22RoundRect,0.250000X1.075000X-0.312500X1.075000X0.312500X-1.075000X0.312500X-1.075000X-0.312500X0*%
%ADD23RoundRect,0.075000X-0.075000X0.662500X-0.075000X-0.662500X0.075000X-0.662500X0.075000X0.662500X0*%
G04 APERTURE END LIST*
D10*
X134613047Y-110970285D02*
X134517809Y-111065523D01*
X134232095Y-111160761D01*
X134041619Y-111160761D01*
X133755904Y-111065523D01*
X133565428Y-110875047D01*
X133470190Y-110684571D01*
X133374952Y-110303619D01*
X133374952Y-110017904D01*
X133470190Y-109636952D01*
X133565428Y-109446476D01*
X133755904Y-109256000D01*
X134041619Y-109160761D01*
X134232095Y-109160761D01*
X134517809Y-109256000D01*
X134613047Y-109351238D01*
X135470190Y-111160761D02*
X135470190Y-109160761D01*
X135470190Y-110113142D02*
X136613047Y-110113142D01*
X136613047Y-111160761D02*
X136613047Y-109160761D01*
X138517809Y-109160761D02*
X137565428Y-109160761D01*
X137470190Y-110113142D01*
X137565428Y-110017904D01*
X137755904Y-109922666D01*
X138232095Y-109922666D01*
X138422571Y-110017904D01*
X138517809Y-110113142D01*
X138613047Y-110303619D01*
X138613047Y-110779809D01*
X138517809Y-110970285D01*
X138422571Y-111065523D01*
X138232095Y-111160761D01*
X137755904Y-111160761D01*
X137565428Y-111065523D01*
X137470190Y-110970285D01*
X253751142Y-101306000D02*
X253608285Y-101234571D01*
X253394000Y-101234571D01*
X253179714Y-101306000D01*
X253036857Y-101448857D01*
X252965428Y-101591714D01*
X252894000Y-101877428D01*
X252894000Y-102091714D01*
X252965428Y-102377428D01*
X253036857Y-102520285D01*
X253179714Y-102663142D01*
X253394000Y-102734571D01*
X253536857Y-102734571D01*
X253751142Y-102663142D01*
X253822571Y-102591714D01*
X253822571Y-102091714D01*
X253536857Y-102091714D01*
X254465428Y-102734571D02*
X254465428Y-101234571D01*
X255322571Y-102734571D01*
X255322571Y-101234571D01*
X256036857Y-102734571D02*
X256036857Y-101234571D01*
X256394000Y-101234571D01*
X256608285Y-101306000D01*
X256751142Y-101448857D01*
X256822571Y-101591714D01*
X256894000Y-101877428D01*
X256894000Y-102091714D01*
X256822571Y-102377428D01*
X256751142Y-102520285D01*
X256608285Y-102663142D01*
X256394000Y-102734571D01*
X256036857Y-102734571D01*
X231358285Y-113291714D02*
X231286857Y-113363142D01*
X231072571Y-113434571D01*
X230929714Y-113434571D01*
X230715428Y-113363142D01*
X230572571Y-113220285D01*
X230501142Y-113077428D01*
X230429714Y-112791714D01*
X230429714Y-112577428D01*
X230501142Y-112291714D01*
X230572571Y-112148857D01*
X230715428Y-112006000D01*
X230929714Y-111934571D01*
X231072571Y-111934571D01*
X231286857Y-112006000D01*
X231358285Y-112077428D01*
X232001142Y-113434571D02*
X232001142Y-111934571D01*
X232001142Y-112648857D02*
X232858285Y-112648857D01*
X232858285Y-113434571D02*
X232858285Y-111934571D01*
X234358285Y-113434571D02*
X233501142Y-113434571D01*
X233929714Y-113434571D02*
X233929714Y-111934571D01*
X233786857Y-112148857D01*
X233644000Y-112291714D01*
X233501142Y-112363142D01*
X42798761Y-101051238D02*
X40798761Y-101051238D01*
X40798761Y-100575047D01*
X40894000Y-100289333D01*
X41084476Y-100098857D01*
X41274952Y-100003619D01*
X41655904Y-99908380D01*
X41941619Y-99908380D01*
X42322571Y-100003619D01*
X42513047Y-100098857D01*
X42703523Y-100289333D01*
X42798761Y-100575047D01*
X42798761Y-101051238D01*
X42703523Y-98289333D02*
X42798761Y-98479809D01*
X42798761Y-98860761D01*
X42703523Y-99051238D01*
X42513047Y-99146476D01*
X41751142Y-99146476D01*
X41560666Y-99051238D01*
X41465428Y-98860761D01*
X41465428Y-98479809D01*
X41560666Y-98289333D01*
X41751142Y-98194095D01*
X41941619Y-98194095D01*
X42132095Y-99146476D01*
X42703523Y-97432190D02*
X42798761Y-97241714D01*
X42798761Y-96860761D01*
X42703523Y-96670285D01*
X42513047Y-96575047D01*
X42417809Y-96575047D01*
X42227333Y-96670285D01*
X42132095Y-96860761D01*
X42132095Y-97146476D01*
X42036857Y-97336952D01*
X41846380Y-97432190D01*
X41751142Y-97432190D01*
X41560666Y-97336952D01*
X41465428Y-97146476D01*
X41465428Y-96860761D01*
X41560666Y-96670285D01*
X42798761Y-95717904D02*
X41465428Y-95717904D01*
X40798761Y-95717904D02*
X40894000Y-95813142D01*
X40989238Y-95717904D01*
X40894000Y-95622666D01*
X40798761Y-95717904D01*
X40989238Y-95717904D01*
X41465428Y-93908380D02*
X43084476Y-93908380D01*
X43274952Y-94003619D01*
X43370190Y-94098857D01*
X43465428Y-94289333D01*
X43465428Y-94575047D01*
X43370190Y-94765523D01*
X42703523Y-93908380D02*
X42798761Y-94098857D01*
X42798761Y-94479809D01*
X42703523Y-94670285D01*
X42608285Y-94765523D01*
X42417809Y-94860761D01*
X41846380Y-94860761D01*
X41655904Y-94765523D01*
X41560666Y-94670285D01*
X41465428Y-94479809D01*
X41465428Y-94098857D01*
X41560666Y-93908380D01*
X41465428Y-92956000D02*
X42798761Y-92956000D01*
X41655904Y-92956000D02*
X41560666Y-92860761D01*
X41465428Y-92670285D01*
X41465428Y-92384571D01*
X41560666Y-92194095D01*
X41751142Y-92098857D01*
X42798761Y-92098857D01*
X42703523Y-90384571D02*
X42798761Y-90575047D01*
X42798761Y-90956000D01*
X42703523Y-91146476D01*
X42513047Y-91241714D01*
X41751142Y-91241714D01*
X41560666Y-91146476D01*
X41465428Y-90956000D01*
X41465428Y-90575047D01*
X41560666Y-90384571D01*
X41751142Y-90289333D01*
X41941619Y-90289333D01*
X42132095Y-91241714D01*
X42798761Y-88575047D02*
X40798761Y-88575047D01*
X42703523Y-88575047D02*
X42798761Y-88765523D01*
X42798761Y-89146476D01*
X42703523Y-89336952D01*
X42608285Y-89432190D01*
X42417809Y-89527428D01*
X41846380Y-89527428D01*
X41655904Y-89432190D01*
X41560666Y-89336952D01*
X41465428Y-89146476D01*
X41465428Y-88765523D01*
X41560666Y-88575047D01*
X42798761Y-86098857D02*
X41465428Y-86098857D01*
X40798761Y-86098857D02*
X40894000Y-86194095D01*
X40989238Y-86098857D01*
X40894000Y-86003619D01*
X40798761Y-86098857D01*
X40989238Y-86098857D01*
X41465428Y-85146476D02*
X42798761Y-85146476D01*
X41655904Y-85146476D02*
X41560666Y-85051238D01*
X41465428Y-84860761D01*
X41465428Y-84575047D01*
X41560666Y-84384571D01*
X41751142Y-84289333D01*
X42798761Y-84289333D01*
X40798761Y-81432190D02*
X40798761Y-81051238D01*
X40894000Y-80860761D01*
X41084476Y-80670285D01*
X41465428Y-80575047D01*
X42132095Y-80575047D01*
X42513047Y-80670285D01*
X42703523Y-80860761D01*
X42798761Y-81051238D01*
X42798761Y-81432190D01*
X42703523Y-81622666D01*
X42513047Y-81813142D01*
X42132095Y-81908380D01*
X41465428Y-81908380D01*
X41084476Y-81813142D01*
X40894000Y-81622666D01*
X40798761Y-81432190D01*
X42798761Y-79717904D02*
X41465428Y-79717904D01*
X41846380Y-79717904D02*
X41655904Y-79622666D01*
X41560666Y-79527428D01*
X41465428Y-79336952D01*
X41465428Y-79146476D01*
X42798761Y-78194095D02*
X42703523Y-78384571D01*
X42608285Y-78479809D01*
X42417809Y-78575047D01*
X41846380Y-78575047D01*
X41655904Y-78479809D01*
X41560666Y-78384571D01*
X41465428Y-78194095D01*
X41465428Y-77908380D01*
X41560666Y-77717904D01*
X41655904Y-77622666D01*
X41846380Y-77527428D01*
X42417809Y-77527428D01*
X42608285Y-77622666D01*
X42703523Y-77717904D01*
X42798761Y-77908380D01*
X42798761Y-78194095D01*
X41465428Y-76670285D02*
X42798761Y-76670285D01*
X41655904Y-76670285D02*
X41560666Y-76575047D01*
X41465428Y-76384571D01*
X41465428Y-76098857D01*
X41560666Y-75908380D01*
X41751142Y-75813142D01*
X42798761Y-75813142D01*
X42798761Y-74575047D02*
X42703523Y-74765523D01*
X42608285Y-74860761D01*
X42417809Y-74956000D01*
X41846380Y-74956000D01*
X41655904Y-74860761D01*
X41560666Y-74765523D01*
X41465428Y-74575047D01*
X41465428Y-74289333D01*
X41560666Y-74098857D01*
X41655904Y-74003619D01*
X41846380Y-73908380D01*
X42417809Y-73908380D01*
X42608285Y-74003619D01*
X42703523Y-74098857D01*
X42798761Y-74289333D01*
X42798761Y-74575047D01*
X42798761Y-71527428D02*
X40798761Y-71527428D01*
X42227333Y-70860761D01*
X40798761Y-70194095D01*
X42798761Y-70194095D01*
X41751142Y-69241714D02*
X41751142Y-68575047D01*
X42798761Y-68289333D02*
X42798761Y-69241714D01*
X40798761Y-69241714D01*
X40798761Y-68289333D01*
X228070428Y-59813142D02*
X228070428Y-56813142D01*
X229070428Y-58956000D01*
X230070428Y-56813142D01*
X230070428Y-59813142D01*
X231499000Y-59813142D02*
X231499000Y-56813142D01*
X232927571Y-59813142D02*
X232927571Y-56813142D01*
X233641857Y-56813142D01*
X234070428Y-56956000D01*
X234356142Y-57241714D01*
X234499000Y-57527428D01*
X234641857Y-58098857D01*
X234641857Y-58527428D01*
X234499000Y-59098857D01*
X234356142Y-59384571D01*
X234070428Y-59670285D01*
X233641857Y-59813142D01*
X232927571Y-59813142D01*
X235927571Y-59813142D02*
X235927571Y-56813142D01*
X239641857Y-59813142D02*
X239641857Y-56813142D01*
X241356142Y-59813142D02*
X240070428Y-58098857D01*
X241356142Y-56813142D02*
X239641857Y-58527428D01*
X243784714Y-59670285D02*
X243499000Y-59813142D01*
X242927571Y-59813142D01*
X242641857Y-59670285D01*
X242499000Y-59384571D01*
X242499000Y-58241714D01*
X242641857Y-57956000D01*
X242927571Y-57813142D01*
X243499000Y-57813142D01*
X243784714Y-57956000D01*
X243927571Y-58241714D01*
X243927571Y-58527428D01*
X242499000Y-58813142D01*
X244927571Y-57813142D02*
X245641857Y-59813142D01*
X246356142Y-57813142D02*
X245641857Y-59813142D01*
X245356142Y-60527428D01*
X245213285Y-60670285D01*
X244927571Y-60813142D01*
X247499000Y-59813142D02*
X247499000Y-56813142D01*
X247499000Y-57956000D02*
X247784714Y-57813142D01*
X248356142Y-57813142D01*
X248641857Y-57956000D01*
X248784714Y-58098857D01*
X248927571Y-58384571D01*
X248927571Y-59241714D01*
X248784714Y-59527428D01*
X248641857Y-59670285D01*
X248356142Y-59813142D01*
X247784714Y-59813142D01*
X247499000Y-59670285D01*
X250641857Y-59813142D02*
X250356142Y-59670285D01*
X250213285Y-59527428D01*
X250070428Y-59241714D01*
X250070428Y-58384571D01*
X250213285Y-58098857D01*
X250356142Y-57956000D01*
X250641857Y-57813142D01*
X251070428Y-57813142D01*
X251356142Y-57956000D01*
X251499000Y-58098857D01*
X251641857Y-58384571D01*
X251641857Y-59241714D01*
X251499000Y-59527428D01*
X251356142Y-59670285D01*
X251070428Y-59813142D01*
X250641857Y-59813142D01*
X254213285Y-59813142D02*
X254213285Y-58241714D01*
X254070428Y-57956000D01*
X253784714Y-57813142D01*
X253213285Y-57813142D01*
X252927571Y-57956000D01*
X254213285Y-59670285D02*
X253927571Y-59813142D01*
X253213285Y-59813142D01*
X252927571Y-59670285D01*
X252784714Y-59384571D01*
X252784714Y-59098857D01*
X252927571Y-58813142D01*
X253213285Y-58670285D01*
X253927571Y-58670285D01*
X254213285Y-58527428D01*
X255641857Y-59813142D02*
X255641857Y-57813142D01*
X255641857Y-58384571D02*
X255784714Y-58098857D01*
X255927571Y-57956000D01*
X256213285Y-57813142D01*
X256499000Y-57813142D01*
X258784714Y-59813142D02*
X258784714Y-56813142D01*
X258784714Y-59670285D02*
X258499000Y-59813142D01*
X257927571Y-59813142D01*
X257641857Y-59670285D01*
X257499000Y-59527428D01*
X257356142Y-59241714D01*
X257356142Y-58384571D01*
X257499000Y-58098857D01*
X257641857Y-57956000D01*
X257927571Y-57813142D01*
X258499000Y-57813142D01*
X258784714Y-57956000D01*
X241465666Y-62160761D02*
X241465666Y-63779809D01*
X241560904Y-63970285D01*
X241656142Y-64065523D01*
X241846619Y-64160761D01*
X242227571Y-64160761D01*
X242418047Y-64065523D01*
X242513285Y-63970285D01*
X242608523Y-63779809D01*
X242608523Y-62160761D01*
X243560904Y-64160761D02*
X243560904Y-62160761D01*
X244227571Y-63589333D01*
X244894238Y-62160761D01*
X244894238Y-64160761D01*
X246703761Y-64160761D02*
X246703761Y-63113142D01*
X246608523Y-62922666D01*
X246418047Y-62827428D01*
X246037095Y-62827428D01*
X245846619Y-62922666D01*
X246703761Y-64065523D02*
X246513285Y-64160761D01*
X246037095Y-64160761D01*
X245846619Y-64065523D01*
X245751380Y-63875047D01*
X245751380Y-63684571D01*
X245846619Y-63494095D01*
X246037095Y-63398857D01*
X246513285Y-63398857D01*
X246703761Y-63303619D01*
X247656142Y-64160761D02*
X247656142Y-62827428D01*
X247656142Y-62160761D02*
X247560904Y-62256000D01*
X247656142Y-62351238D01*
X247751380Y-62256000D01*
X247656142Y-62160761D01*
X247656142Y-62351238D01*
X248608523Y-62827428D02*
X248608523Y-64160761D01*
X248608523Y-63017904D02*
X248703761Y-62922666D01*
X248894238Y-62827428D01*
X249179952Y-62827428D01*
X249370428Y-62922666D01*
X249465666Y-63113142D01*
X249465666Y-64160761D01*
X251179952Y-64065523D02*
X250989476Y-64160761D01*
X250608523Y-64160761D01*
X250418047Y-64065523D01*
X250322809Y-63875047D01*
X250322809Y-63113142D01*
X250418047Y-62922666D01*
X250608523Y-62827428D01*
X250989476Y-62827428D01*
X251179952Y-62922666D01*
X251275190Y-63113142D01*
X251275190Y-63303619D01*
X250322809Y-63494095D01*
X253656142Y-63113142D02*
X254322809Y-63113142D01*
X254608523Y-64160761D02*
X253656142Y-64160761D01*
X253656142Y-62160761D01*
X254608523Y-62160761D01*
X256608523Y-63970285D02*
X256513285Y-64065523D01*
X256227571Y-64160761D01*
X256037095Y-64160761D01*
X255751380Y-64065523D01*
X255560904Y-63875047D01*
X255465666Y-63684571D01*
X255370428Y-63303619D01*
X255370428Y-63017904D01*
X255465666Y-62636952D01*
X255560904Y-62446476D01*
X255751380Y-62256000D01*
X256037095Y-62160761D01*
X256227571Y-62160761D01*
X256513285Y-62256000D01*
X256608523Y-62351238D01*
X257465666Y-63113142D02*
X258132333Y-63113142D01*
X258418047Y-64160761D02*
X257465666Y-64160761D01*
X257465666Y-62160761D01*
X258418047Y-62160761D01*
X231458285Y-98091714D02*
X231386857Y-98163142D01*
X231172571Y-98234571D01*
X231029714Y-98234571D01*
X230815428Y-98163142D01*
X230672571Y-98020285D01*
X230601142Y-97877428D01*
X230529714Y-97591714D01*
X230529714Y-97377428D01*
X230601142Y-97091714D01*
X230672571Y-96948857D01*
X230815428Y-96806000D01*
X231029714Y-96734571D01*
X231172571Y-96734571D01*
X231386857Y-96806000D01*
X231458285Y-96877428D01*
X232101142Y-98234571D02*
X232101142Y-96734571D01*
X232101142Y-97448857D02*
X232958285Y-97448857D01*
X232958285Y-98234571D02*
X232958285Y-96734571D01*
X233529714Y-96734571D02*
X234529714Y-96734571D01*
X233886857Y-98234571D01*
X143513047Y-88870285D02*
X143417809Y-88965523D01*
X143132095Y-89060761D01*
X142941619Y-89060761D01*
X142655904Y-88965523D01*
X142465428Y-88775047D01*
X142370190Y-88584571D01*
X142274952Y-88203619D01*
X142274952Y-87917904D01*
X142370190Y-87536952D01*
X142465428Y-87346476D01*
X142655904Y-87156000D01*
X142941619Y-87060761D01*
X143132095Y-87060761D01*
X143417809Y-87156000D01*
X143513047Y-87251238D01*
X144370190Y-89060761D02*
X144370190Y-87060761D01*
X144370190Y-88013142D02*
X145513047Y-88013142D01*
X145513047Y-89060761D02*
X145513047Y-87060761D01*
X147322571Y-87060761D02*
X146941619Y-87060761D01*
X146751142Y-87156000D01*
X146655904Y-87251238D01*
X146465428Y-87536952D01*
X146370190Y-87917904D01*
X146370190Y-88679809D01*
X146465428Y-88870285D01*
X146560666Y-88965523D01*
X146751142Y-89060761D01*
X147132095Y-89060761D01*
X147322571Y-88965523D01*
X147417809Y-88870285D01*
X147513047Y-88679809D01*
X147513047Y-88203619D01*
X147417809Y-88013142D01*
X147322571Y-87917904D01*
X147132095Y-87822666D01*
X146751142Y-87822666D01*
X146560666Y-87917904D01*
X146465428Y-88013142D01*
X146370190Y-88203619D01*
X231258285Y-115991714D02*
X231186857Y-116063142D01*
X230972571Y-116134571D01*
X230829714Y-116134571D01*
X230615428Y-116063142D01*
X230472571Y-115920285D01*
X230401142Y-115777428D01*
X230329714Y-115491714D01*
X230329714Y-115277428D01*
X230401142Y-114991714D01*
X230472571Y-114848857D01*
X230615428Y-114706000D01*
X230829714Y-114634571D01*
X230972571Y-114634571D01*
X231186857Y-114706000D01*
X231258285Y-114777428D01*
X231901142Y-116134571D02*
X231901142Y-114634571D01*
X231901142Y-115348857D02*
X232758285Y-115348857D01*
X232758285Y-116134571D02*
X232758285Y-114634571D01*
X233758285Y-114634571D02*
X233901142Y-114634571D01*
X234044000Y-114706000D01*
X234115428Y-114777428D01*
X234186857Y-114920285D01*
X234258285Y-115206000D01*
X234258285Y-115563142D01*
X234186857Y-115848857D01*
X234115428Y-115991714D01*
X234044000Y-116063142D01*
X233901142Y-116134571D01*
X233758285Y-116134571D01*
X233615428Y-116063142D01*
X233544000Y-115991714D01*
X233472571Y-115848857D01*
X233401142Y-115563142D01*
X233401142Y-115206000D01*
X233472571Y-114920285D01*
X233544000Y-114777428D01*
X233615428Y-114706000D01*
X233758285Y-114634571D01*
X254101142Y-98891714D02*
X254029714Y-98963142D01*
X253815428Y-99034571D01*
X253672571Y-99034571D01*
X253458285Y-98963142D01*
X253315428Y-98820285D01*
X253244000Y-98677428D01*
X253172571Y-98391714D01*
X253172571Y-98177428D01*
X253244000Y-97891714D01*
X253315428Y-97748857D01*
X253458285Y-97606000D01*
X253672571Y-97534571D01*
X253815428Y-97534571D01*
X254029714Y-97606000D01*
X254101142Y-97677428D01*
X255458285Y-99034571D02*
X254744000Y-99034571D01*
X254744000Y-97534571D01*
X255958285Y-99034571D02*
X255958285Y-97534571D01*
X256815428Y-99034571D02*
X256172571Y-98177428D01*
X256815428Y-97534571D02*
X255958285Y-98391714D01*
X254751142Y-92634571D02*
X255608285Y-92634571D01*
X255179714Y-94134571D02*
X255179714Y-92634571D01*
X255965428Y-92634571D02*
X256965428Y-94134571D01*
X256965428Y-92634571D02*
X255965428Y-94134571D01*
X201160666Y-88370285D02*
X201065428Y-88465523D01*
X200779714Y-88560761D01*
X200589238Y-88560761D01*
X200303523Y-88465523D01*
X200113047Y-88275047D01*
X200017809Y-88084571D01*
X199922571Y-87703619D01*
X199922571Y-87417904D01*
X200017809Y-87036952D01*
X200113047Y-86846476D01*
X200303523Y-86656000D01*
X200589238Y-86560761D01*
X200779714Y-86560761D01*
X201065428Y-86656000D01*
X201160666Y-86751238D01*
X202017809Y-88560761D02*
X202017809Y-86560761D01*
X202017809Y-87513142D02*
X203160666Y-87513142D01*
X203160666Y-88560761D02*
X203160666Y-86560761D01*
X205160666Y-88560761D02*
X204017809Y-88560761D01*
X204589238Y-88560761D02*
X204589238Y-86560761D01*
X204398761Y-86846476D01*
X204208285Y-87036952D01*
X204017809Y-87132190D01*
X206398761Y-86560761D02*
X206589238Y-86560761D01*
X206779714Y-86656000D01*
X206874952Y-86751238D01*
X206970190Y-86941714D01*
X207065428Y-87322666D01*
X207065428Y-87798857D01*
X206970190Y-88179809D01*
X206874952Y-88370285D01*
X206779714Y-88465523D01*
X206589238Y-88560761D01*
X206398761Y-88560761D01*
X206208285Y-88465523D01*
X206113047Y-88370285D01*
X206017809Y-88179809D01*
X205922571Y-87798857D01*
X205922571Y-87322666D01*
X206017809Y-86941714D01*
X206113047Y-86751238D01*
X206208285Y-86656000D01*
X206398761Y-86560761D01*
X206960666Y-111270285D02*
X206865428Y-111365523D01*
X206579714Y-111460761D01*
X206389238Y-111460761D01*
X206103523Y-111365523D01*
X205913047Y-111175047D01*
X205817809Y-110984571D01*
X205722571Y-110603619D01*
X205722571Y-110317904D01*
X205817809Y-109936952D01*
X205913047Y-109746476D01*
X206103523Y-109556000D01*
X206389238Y-109460761D01*
X206579714Y-109460761D01*
X206865428Y-109556000D01*
X206960666Y-109651238D01*
X207817809Y-111460761D02*
X207817809Y-109460761D01*
X207817809Y-110413142D02*
X208960666Y-110413142D01*
X208960666Y-111460761D02*
X208960666Y-109460761D01*
X210960666Y-111460761D02*
X209817809Y-111460761D01*
X210389238Y-111460761D02*
X210389238Y-109460761D01*
X210198761Y-109746476D01*
X210008285Y-109936952D01*
X209817809Y-110032190D01*
X212865428Y-111460761D02*
X211722571Y-111460761D01*
X212294000Y-111460761D02*
X212294000Y-109460761D01*
X212103523Y-109746476D01*
X211913047Y-109936952D01*
X211722571Y-110032190D01*
X111113047Y-111070285D02*
X111017809Y-111165523D01*
X110732095Y-111260761D01*
X110541619Y-111260761D01*
X110255904Y-111165523D01*
X110065428Y-110975047D01*
X109970190Y-110784571D01*
X109874952Y-110403619D01*
X109874952Y-110117904D01*
X109970190Y-109736952D01*
X110065428Y-109546476D01*
X110255904Y-109356000D01*
X110541619Y-109260761D01*
X110732095Y-109260761D01*
X111017809Y-109356000D01*
X111113047Y-109451238D01*
X111970190Y-111260761D02*
X111970190Y-109260761D01*
X111970190Y-110213142D02*
X113113047Y-110213142D01*
X113113047Y-111260761D02*
X113113047Y-109260761D01*
X114922571Y-109927428D02*
X114922571Y-111260761D01*
X114446380Y-109165523D02*
X113970190Y-110594095D01*
X115208285Y-110594095D01*
X237065666Y-68850761D02*
X236113285Y-68850761D01*
X236113285Y-66850761D01*
X238589476Y-68850761D02*
X238589476Y-67803142D01*
X238494238Y-67612666D01*
X238303761Y-67517428D01*
X237922809Y-67517428D01*
X237732333Y-67612666D01*
X238589476Y-68755523D02*
X238399000Y-68850761D01*
X237922809Y-68850761D01*
X237732333Y-68755523D01*
X237637095Y-68565047D01*
X237637095Y-68374571D01*
X237732333Y-68184095D01*
X237922809Y-68088857D01*
X238399000Y-68088857D01*
X238589476Y-67993619D01*
X239541857Y-67517428D02*
X239541857Y-68850761D01*
X239541857Y-67707904D02*
X239637095Y-67612666D01*
X239827571Y-67517428D01*
X240113285Y-67517428D01*
X240303761Y-67612666D01*
X240399000Y-67803142D01*
X240399000Y-68850761D01*
X242208523Y-68850761D02*
X242208523Y-66850761D01*
X242208523Y-68755523D02*
X242018047Y-68850761D01*
X241637095Y-68850761D01*
X241446619Y-68755523D01*
X241351380Y-68660285D01*
X241256142Y-68469809D01*
X241256142Y-67898380D01*
X241351380Y-67707904D01*
X241446619Y-67612666D01*
X241637095Y-67517428D01*
X242018047Y-67517428D01*
X242208523Y-67612666D01*
X242970428Y-67517428D02*
X243446619Y-68850761D01*
X243922809Y-67517428D02*
X243446619Y-68850761D01*
X243256142Y-69326952D01*
X243160904Y-69422190D01*
X242970428Y-69517428D01*
X244684714Y-67517428D02*
X244684714Y-68850761D01*
X244684714Y-67707904D02*
X244779952Y-67612666D01*
X244970428Y-67517428D01*
X245256142Y-67517428D01*
X245446619Y-67612666D01*
X245541857Y-67803142D01*
X245541857Y-68850761D01*
X248684714Y-67803142D02*
X248018047Y-67803142D01*
X248018047Y-68850761D02*
X248018047Y-66850761D01*
X248970428Y-66850761D01*
X249732333Y-68850761D02*
X249732333Y-67517428D01*
X249732333Y-67898380D02*
X249827571Y-67707904D01*
X249922809Y-67612666D01*
X250113285Y-67517428D01*
X250303761Y-67517428D01*
X251827571Y-68850761D02*
X251827571Y-67803142D01*
X251732333Y-67612666D01*
X251541857Y-67517428D01*
X251160904Y-67517428D01*
X250970428Y-67612666D01*
X251827571Y-68755523D02*
X251637095Y-68850761D01*
X251160904Y-68850761D01*
X250970428Y-68755523D01*
X250875190Y-68565047D01*
X250875190Y-68374571D01*
X250970428Y-68184095D01*
X251160904Y-68088857D01*
X251637095Y-68088857D01*
X251827571Y-67993619D01*
X252779952Y-67517428D02*
X252779952Y-68850761D01*
X252779952Y-67707904D02*
X252875190Y-67612666D01*
X253065666Y-67517428D01*
X253351380Y-67517428D01*
X253541857Y-67612666D01*
X253637095Y-67803142D01*
X253637095Y-68850761D01*
X255446619Y-68755523D02*
X255256142Y-68850761D01*
X254875190Y-68850761D01*
X254684714Y-68755523D01*
X254589476Y-68660285D01*
X254494238Y-68469809D01*
X254494238Y-67898380D01*
X254589476Y-67707904D01*
X254684714Y-67612666D01*
X254875190Y-67517428D01*
X255256142Y-67517428D01*
X255446619Y-67612666D01*
X256303761Y-68850761D02*
X256303761Y-67517428D01*
X256303761Y-66850761D02*
X256208523Y-66946000D01*
X256303761Y-67041238D01*
X256399000Y-66946000D01*
X256303761Y-66850761D01*
X256303761Y-67041238D01*
X257160904Y-68755523D02*
X257351380Y-68850761D01*
X257732333Y-68850761D01*
X257922809Y-68755523D01*
X258018047Y-68565047D01*
X258018047Y-68469809D01*
X257922809Y-68279333D01*
X257732333Y-68184095D01*
X257446619Y-68184095D01*
X257256142Y-68088857D01*
X257160904Y-67898380D01*
X257160904Y-67803142D01*
X257256142Y-67612666D01*
X257446619Y-67517428D01*
X257732333Y-67517428D01*
X257922809Y-67612666D01*
X239160904Y-70070761D02*
X239160904Y-71499333D01*
X239065666Y-71785047D01*
X238875190Y-71975523D01*
X238589476Y-72070761D01*
X238399000Y-72070761D01*
X240970428Y-72070761D02*
X240970428Y-71023142D01*
X240875190Y-70832666D01*
X240684714Y-70737428D01*
X240303761Y-70737428D01*
X240113285Y-70832666D01*
X240970428Y-71975523D02*
X240779952Y-72070761D01*
X240303761Y-72070761D01*
X240113285Y-71975523D01*
X240018047Y-71785047D01*
X240018047Y-71594571D01*
X240113285Y-71404095D01*
X240303761Y-71308857D01*
X240779952Y-71308857D01*
X240970428Y-71213619D01*
X242779952Y-71975523D02*
X242589476Y-72070761D01*
X242208523Y-72070761D01*
X242018047Y-71975523D01*
X241922809Y-71880285D01*
X241827571Y-71689809D01*
X241827571Y-71118380D01*
X241922809Y-70927904D01*
X242018047Y-70832666D01*
X242208523Y-70737428D01*
X242589476Y-70737428D01*
X242779952Y-70832666D01*
X243922809Y-72070761D02*
X243732333Y-71975523D01*
X243637095Y-71880285D01*
X243541857Y-71689809D01*
X243541857Y-71118380D01*
X243637095Y-70927904D01*
X243732333Y-70832666D01*
X243922809Y-70737428D01*
X244208523Y-70737428D01*
X244399000Y-70832666D01*
X244494238Y-70927904D01*
X244589476Y-71118380D01*
X244589476Y-71689809D01*
X244494238Y-71880285D01*
X244399000Y-71975523D01*
X244208523Y-72070761D01*
X243922809Y-72070761D01*
X245446619Y-72070761D02*
X245446619Y-70070761D01*
X245446619Y-70832666D02*
X245637095Y-70737428D01*
X246018047Y-70737428D01*
X246208523Y-70832666D01*
X246303761Y-70927904D01*
X246399000Y-71118380D01*
X246399000Y-71689809D01*
X246303761Y-71880285D01*
X246208523Y-71975523D01*
X246018047Y-72070761D01*
X245637095Y-72070761D01*
X245446619Y-71975523D01*
X248779952Y-72070761D02*
X248779952Y-70070761D01*
X249446619Y-71499333D01*
X250113285Y-70070761D01*
X250113285Y-72070761D01*
X251827571Y-71975523D02*
X251637095Y-72070761D01*
X251256142Y-72070761D01*
X251065666Y-71975523D01*
X250970428Y-71785047D01*
X250970428Y-71023142D01*
X251065666Y-70832666D01*
X251256142Y-70737428D01*
X251637095Y-70737428D01*
X251827571Y-70832666D01*
X251922809Y-71023142D01*
X251922809Y-71213619D01*
X250970428Y-71404095D01*
X253637095Y-72070761D02*
X253637095Y-71023142D01*
X253541857Y-70832666D01*
X253351380Y-70737428D01*
X252970428Y-70737428D01*
X252779952Y-70832666D01*
X253637095Y-71975523D02*
X253446619Y-72070761D01*
X252970428Y-72070761D01*
X252779952Y-71975523D01*
X252684714Y-71785047D01*
X252684714Y-71594571D01*
X252779952Y-71404095D01*
X252970428Y-71308857D01*
X253446619Y-71308857D01*
X253637095Y-71213619D01*
X254875190Y-72070761D02*
X254684714Y-71975523D01*
X254589476Y-71785047D01*
X254589476Y-70070761D01*
X256399000Y-71975523D02*
X256208523Y-72070761D01*
X255827571Y-72070761D01*
X255637095Y-71975523D01*
X255541857Y-71785047D01*
X255541857Y-71023142D01*
X255637095Y-70832666D01*
X255827571Y-70737428D01*
X256208523Y-70737428D01*
X256399000Y-70832666D01*
X256494238Y-71023142D01*
X256494238Y-71213619D01*
X255541857Y-71404095D01*
X257160904Y-70737428D02*
X257637095Y-72070761D01*
X258113285Y-70737428D02*
X257637095Y-72070761D01*
X257446619Y-72546952D01*
X257351380Y-72642190D01*
X257160904Y-72737428D01*
X159213047Y-111370285D02*
X159117809Y-111465523D01*
X158832095Y-111560761D01*
X158641619Y-111560761D01*
X158355904Y-111465523D01*
X158165428Y-111275047D01*
X158070190Y-111084571D01*
X157974952Y-110703619D01*
X157974952Y-110417904D01*
X158070190Y-110036952D01*
X158165428Y-109846476D01*
X158355904Y-109656000D01*
X158641619Y-109560761D01*
X158832095Y-109560761D01*
X159117809Y-109656000D01*
X159213047Y-109751238D01*
X160070190Y-111560761D02*
X160070190Y-109560761D01*
X160070190Y-110513142D02*
X161213047Y-110513142D01*
X161213047Y-111560761D02*
X161213047Y-109560761D01*
X161974952Y-109560761D02*
X163308285Y-109560761D01*
X162451142Y-111560761D01*
X231358285Y-108291714D02*
X231286857Y-108363142D01*
X231072571Y-108434571D01*
X230929714Y-108434571D01*
X230715428Y-108363142D01*
X230572571Y-108220285D01*
X230501142Y-108077428D01*
X230429714Y-107791714D01*
X230429714Y-107577428D01*
X230501142Y-107291714D01*
X230572571Y-107148857D01*
X230715428Y-107006000D01*
X230929714Y-106934571D01*
X231072571Y-106934571D01*
X231286857Y-107006000D01*
X231358285Y-107077428D01*
X232001142Y-108434571D02*
X232001142Y-106934571D01*
X232001142Y-107648857D02*
X232858285Y-107648857D01*
X232858285Y-108434571D02*
X232858285Y-106934571D01*
X233429714Y-106934571D02*
X234358285Y-106934571D01*
X233858285Y-107506000D01*
X234072571Y-107506000D01*
X234215428Y-107577428D01*
X234286857Y-107648857D01*
X234358285Y-107791714D01*
X234358285Y-108148857D01*
X234286857Y-108291714D01*
X234215428Y-108363142D01*
X234072571Y-108434571D01*
X233644000Y-108434571D01*
X233501142Y-108363142D01*
X233429714Y-108291714D01*
X231544000Y-90491714D02*
X231472571Y-90563142D01*
X231258285Y-90634571D01*
X231115428Y-90634571D01*
X230901142Y-90563142D01*
X230758285Y-90420285D01*
X230686857Y-90277428D01*
X230615428Y-89991714D01*
X230615428Y-89777428D01*
X230686857Y-89491714D01*
X230758285Y-89348857D01*
X230901142Y-89206000D01*
X231115428Y-89134571D01*
X231258285Y-89134571D01*
X231472571Y-89206000D01*
X231544000Y-89277428D01*
X232186857Y-90634571D02*
X232186857Y-89134571D01*
X232186857Y-89848857D02*
X233044000Y-89848857D01*
X233044000Y-90634571D02*
X233044000Y-89134571D01*
X234544000Y-90634571D02*
X233686857Y-90634571D01*
X234115428Y-90634571D02*
X234115428Y-89134571D01*
X233972571Y-89348857D01*
X233829714Y-89491714D01*
X233686857Y-89563142D01*
X235472571Y-89134571D02*
X235615428Y-89134571D01*
X235758285Y-89206000D01*
X235829714Y-89277428D01*
X235901142Y-89420285D01*
X235972571Y-89706000D01*
X235972571Y-90063142D01*
X235901142Y-90348857D01*
X235829714Y-90491714D01*
X235758285Y-90563142D01*
X235615428Y-90634571D01*
X235472571Y-90634571D01*
X235329714Y-90563142D01*
X235258285Y-90491714D01*
X235186857Y-90348857D01*
X235115428Y-90063142D01*
X235115428Y-89706000D01*
X235186857Y-89420285D01*
X235258285Y-89277428D01*
X235329714Y-89206000D01*
X235472571Y-89134571D01*
X231544000Y-87891714D02*
X231472571Y-87963142D01*
X231258285Y-88034571D01*
X231115428Y-88034571D01*
X230901142Y-87963142D01*
X230758285Y-87820285D01*
X230686857Y-87677428D01*
X230615428Y-87391714D01*
X230615428Y-87177428D01*
X230686857Y-86891714D01*
X230758285Y-86748857D01*
X230901142Y-86606000D01*
X231115428Y-86534571D01*
X231258285Y-86534571D01*
X231472571Y-86606000D01*
X231544000Y-86677428D01*
X232186857Y-88034571D02*
X232186857Y-86534571D01*
X232186857Y-87248857D02*
X233044000Y-87248857D01*
X233044000Y-88034571D02*
X233044000Y-86534571D01*
X234544000Y-88034571D02*
X233686857Y-88034571D01*
X234115428Y-88034571D02*
X234115428Y-86534571D01*
X233972571Y-86748857D01*
X233829714Y-86891714D01*
X233686857Y-86963142D01*
X235972571Y-88034571D02*
X235115428Y-88034571D01*
X235544000Y-88034571D02*
X235544000Y-86534571D01*
X235401142Y-86748857D01*
X235258285Y-86891714D01*
X235115428Y-86963142D01*
X253136857Y-103834571D02*
X254065428Y-103834571D01*
X253565428Y-104406000D01*
X253779714Y-104406000D01*
X253922571Y-104477428D01*
X253994000Y-104548857D01*
X254065428Y-104691714D01*
X254065428Y-105048857D01*
X253994000Y-105191714D01*
X253922571Y-105263142D01*
X253779714Y-105334571D01*
X253351142Y-105334571D01*
X253208285Y-105263142D01*
X253136857Y-105191714D01*
X254494000Y-103834571D02*
X254994000Y-105334571D01*
X255494000Y-103834571D01*
X255851142Y-103834571D02*
X256779714Y-103834571D01*
X256279714Y-104406000D01*
X256494000Y-104406000D01*
X256636857Y-104477428D01*
X256708285Y-104548857D01*
X256779714Y-104691714D01*
X256779714Y-105048857D01*
X256708285Y-105191714D01*
X256636857Y-105263142D01*
X256494000Y-105334571D01*
X256065428Y-105334571D01*
X255922571Y-105263142D01*
X255851142Y-105191714D01*
X172513047Y-88970285D02*
X172417809Y-89065523D01*
X172132095Y-89160761D01*
X171941619Y-89160761D01*
X171655904Y-89065523D01*
X171465428Y-88875047D01*
X171370190Y-88684571D01*
X171274952Y-88303619D01*
X171274952Y-88017904D01*
X171370190Y-87636952D01*
X171465428Y-87446476D01*
X171655904Y-87256000D01*
X171941619Y-87160761D01*
X172132095Y-87160761D01*
X172417809Y-87256000D01*
X172513047Y-87351238D01*
X173370190Y-89160761D02*
X173370190Y-87160761D01*
X173370190Y-88113142D02*
X174513047Y-88113142D01*
X174513047Y-89160761D02*
X174513047Y-87160761D01*
X175751142Y-88017904D02*
X175560666Y-87922666D01*
X175465428Y-87827428D01*
X175370190Y-87636952D01*
X175370190Y-87541714D01*
X175465428Y-87351238D01*
X175560666Y-87256000D01*
X175751142Y-87160761D01*
X176132095Y-87160761D01*
X176322571Y-87256000D01*
X176417809Y-87351238D01*
X176513047Y-87541714D01*
X176513047Y-87636952D01*
X176417809Y-87827428D01*
X176322571Y-87922666D01*
X176132095Y-88017904D01*
X175751142Y-88017904D01*
X175560666Y-88113142D01*
X175465428Y-88208380D01*
X175370190Y-88398857D01*
X175370190Y-88779809D01*
X175465428Y-88970285D01*
X175560666Y-89065523D01*
X175751142Y-89160761D01*
X176132095Y-89160761D01*
X176322571Y-89065523D01*
X176417809Y-88970285D01*
X176513047Y-88779809D01*
X176513047Y-88398857D01*
X176417809Y-88208380D01*
X176322571Y-88113142D01*
X176132095Y-88017904D01*
X86713047Y-110570285D02*
X86617809Y-110665523D01*
X86332095Y-110760761D01*
X86141619Y-110760761D01*
X85855904Y-110665523D01*
X85665428Y-110475047D01*
X85570190Y-110284571D01*
X85474952Y-109903619D01*
X85474952Y-109617904D01*
X85570190Y-109236952D01*
X85665428Y-109046476D01*
X85855904Y-108856000D01*
X86141619Y-108760761D01*
X86332095Y-108760761D01*
X86617809Y-108856000D01*
X86713047Y-108951238D01*
X87570190Y-110760761D02*
X87570190Y-108760761D01*
X87570190Y-109713142D02*
X88713047Y-109713142D01*
X88713047Y-110760761D02*
X88713047Y-108760761D01*
X89570190Y-108951238D02*
X89665428Y-108856000D01*
X89855904Y-108760761D01*
X90332095Y-108760761D01*
X90522571Y-108856000D01*
X90617809Y-108951238D01*
X90713047Y-109141714D01*
X90713047Y-109332190D01*
X90617809Y-109617904D01*
X89474952Y-110760761D01*
X90713047Y-110760761D01*
X231458285Y-95591714D02*
X231386857Y-95663142D01*
X231172571Y-95734571D01*
X231029714Y-95734571D01*
X230815428Y-95663142D01*
X230672571Y-95520285D01*
X230601142Y-95377428D01*
X230529714Y-95091714D01*
X230529714Y-94877428D01*
X230601142Y-94591714D01*
X230672571Y-94448857D01*
X230815428Y-94306000D01*
X231029714Y-94234571D01*
X231172571Y-94234571D01*
X231386857Y-94306000D01*
X231458285Y-94377428D01*
X232101142Y-95734571D02*
X232101142Y-94234571D01*
X232101142Y-94948857D02*
X232958285Y-94948857D01*
X232958285Y-95734571D02*
X232958285Y-94234571D01*
X233886857Y-94877428D02*
X233744000Y-94806000D01*
X233672571Y-94734571D01*
X233601142Y-94591714D01*
X233601142Y-94520285D01*
X233672571Y-94377428D01*
X233744000Y-94306000D01*
X233886857Y-94234571D01*
X234172571Y-94234571D01*
X234315428Y-94306000D01*
X234386857Y-94377428D01*
X234458285Y-94520285D01*
X234458285Y-94591714D01*
X234386857Y-94734571D01*
X234315428Y-94806000D01*
X234172571Y-94877428D01*
X233886857Y-94877428D01*
X233744000Y-94948857D01*
X233672571Y-95020285D01*
X233601142Y-95163142D01*
X233601142Y-95448857D01*
X233672571Y-95591714D01*
X233744000Y-95663142D01*
X233886857Y-95734571D01*
X234172571Y-95734571D01*
X234315428Y-95663142D01*
X234386857Y-95591714D01*
X234458285Y-95448857D01*
X234458285Y-95163142D01*
X234386857Y-95020285D01*
X234315428Y-94948857D01*
X234172571Y-94877428D01*
X231558285Y-93091714D02*
X231486857Y-93163142D01*
X231272571Y-93234571D01*
X231129714Y-93234571D01*
X230915428Y-93163142D01*
X230772571Y-93020285D01*
X230701142Y-92877428D01*
X230629714Y-92591714D01*
X230629714Y-92377428D01*
X230701142Y-92091714D01*
X230772571Y-91948857D01*
X230915428Y-91806000D01*
X231129714Y-91734571D01*
X231272571Y-91734571D01*
X231486857Y-91806000D01*
X231558285Y-91877428D01*
X232201142Y-93234571D02*
X232201142Y-91734571D01*
X232201142Y-92448857D02*
X233058285Y-92448857D01*
X233058285Y-93234571D02*
X233058285Y-91734571D01*
X233844000Y-93234571D02*
X234129714Y-93234571D01*
X234272571Y-93163142D01*
X234344000Y-93091714D01*
X234486857Y-92877428D01*
X234558285Y-92591714D01*
X234558285Y-92020285D01*
X234486857Y-91877428D01*
X234415428Y-91806000D01*
X234272571Y-91734571D01*
X233986857Y-91734571D01*
X233844000Y-91806000D01*
X233772571Y-91877428D01*
X233701142Y-92020285D01*
X233701142Y-92377428D01*
X233772571Y-92520285D01*
X233844000Y-92591714D01*
X233986857Y-92663142D01*
X234272571Y-92663142D01*
X234415428Y-92591714D01*
X234486857Y-92520285D01*
X234558285Y-92377428D01*
X102213047Y-88970285D02*
X102117809Y-89065523D01*
X101832095Y-89160761D01*
X101641619Y-89160761D01*
X101355904Y-89065523D01*
X101165428Y-88875047D01*
X101070190Y-88684571D01*
X100974952Y-88303619D01*
X100974952Y-88017904D01*
X101070190Y-87636952D01*
X101165428Y-87446476D01*
X101355904Y-87256000D01*
X101641619Y-87160761D01*
X101832095Y-87160761D01*
X102117809Y-87256000D01*
X102213047Y-87351238D01*
X103070190Y-89160761D02*
X103070190Y-87160761D01*
X103070190Y-88113142D02*
X104213047Y-88113142D01*
X104213047Y-89160761D02*
X104213047Y-87160761D01*
X104974952Y-87160761D02*
X106213047Y-87160761D01*
X105546380Y-87922666D01*
X105832095Y-87922666D01*
X106022571Y-88017904D01*
X106117809Y-88113142D01*
X106213047Y-88303619D01*
X106213047Y-88779809D01*
X106117809Y-88970285D01*
X106022571Y-89065523D01*
X105832095Y-89160761D01*
X105260666Y-89160761D01*
X105070190Y-89065523D01*
X104974952Y-88970285D01*
X255444000Y-96491714D02*
X255372571Y-96563142D01*
X255158285Y-96634571D01*
X255015428Y-96634571D01*
X254801142Y-96563142D01*
X254658285Y-96420285D01*
X254586857Y-96277428D01*
X254515428Y-95991714D01*
X254515428Y-95777428D01*
X254586857Y-95491714D01*
X254658285Y-95348857D01*
X254801142Y-95206000D01*
X255015428Y-95134571D01*
X255158285Y-95134571D01*
X255372571Y-95206000D01*
X255444000Y-95277428D01*
X256015428Y-96563142D02*
X256229714Y-96634571D01*
X256586857Y-96634571D01*
X256729714Y-96563142D01*
X256801142Y-96491714D01*
X256872571Y-96348857D01*
X256872571Y-96206000D01*
X256801142Y-96063142D01*
X256729714Y-95991714D01*
X256586857Y-95920285D01*
X256301142Y-95848857D01*
X256158285Y-95777428D01*
X256086857Y-95706000D01*
X256015428Y-95563142D01*
X256015428Y-95420285D01*
X256086857Y-95277428D01*
X256158285Y-95206000D01*
X256301142Y-95134571D01*
X256658285Y-95134571D01*
X256872571Y-95206000D01*
X231358285Y-105691714D02*
X231286857Y-105763142D01*
X231072571Y-105834571D01*
X230929714Y-105834571D01*
X230715428Y-105763142D01*
X230572571Y-105620285D01*
X230501142Y-105477428D01*
X230429714Y-105191714D01*
X230429714Y-104977428D01*
X230501142Y-104691714D01*
X230572571Y-104548857D01*
X230715428Y-104406000D01*
X230929714Y-104334571D01*
X231072571Y-104334571D01*
X231286857Y-104406000D01*
X231358285Y-104477428D01*
X232001142Y-105834571D02*
X232001142Y-104334571D01*
X232001142Y-105048857D02*
X232858285Y-105048857D01*
X232858285Y-105834571D02*
X232858285Y-104334571D01*
X234215428Y-104834571D02*
X234215428Y-105834571D01*
X233858285Y-104263142D02*
X233501142Y-105334571D01*
X234429714Y-105334571D01*
X241767114Y-106564942D02*
X242052828Y-106660180D01*
X242148066Y-106755419D01*
X242243304Y-106945895D01*
X242243304Y-107231609D01*
X242148066Y-107422085D01*
X242052828Y-107517323D01*
X241862352Y-107612561D01*
X241100447Y-107612561D01*
X241100447Y-105612561D01*
X241767114Y-105612561D01*
X241957590Y-105707800D01*
X242052828Y-105803038D01*
X242148066Y-105993514D01*
X242148066Y-106183990D01*
X242052828Y-106374466D01*
X241957590Y-106469704D01*
X241767114Y-106564942D01*
X241100447Y-106564942D01*
X243100447Y-107612561D02*
X243100447Y-106279228D01*
X243100447Y-106660180D02*
X243195685Y-106469704D01*
X243290923Y-106374466D01*
X243481400Y-106279228D01*
X243671876Y-106279228D01*
X245195685Y-107612561D02*
X245195685Y-106564942D01*
X245100447Y-106374466D01*
X244909971Y-106279228D01*
X244529019Y-106279228D01*
X244338542Y-106374466D01*
X245195685Y-107517323D02*
X245005209Y-107612561D01*
X244529019Y-107612561D01*
X244338542Y-107517323D01*
X244243304Y-107326847D01*
X244243304Y-107136371D01*
X244338542Y-106945895D01*
X244529019Y-106850657D01*
X245005209Y-106850657D01*
X245195685Y-106755419D01*
X246148066Y-107612561D02*
X246148066Y-106279228D01*
X246148066Y-105612561D02*
X246052828Y-105707800D01*
X246148066Y-105803038D01*
X246243304Y-105707800D01*
X246148066Y-105612561D01*
X246148066Y-105803038D01*
X247100447Y-106279228D02*
X247100447Y-107612561D01*
X247100447Y-106469704D02*
X247195685Y-106374466D01*
X247386161Y-106279228D01*
X247671876Y-106279228D01*
X247862352Y-106374466D01*
X247957590Y-106564942D01*
X247957590Y-107612561D01*
X250433780Y-107612561D02*
X250433780Y-105612561D01*
X250433780Y-106564942D02*
X251576638Y-106564942D01*
X251576638Y-107612561D02*
X251576638Y-105612561D01*
X253290923Y-107517323D02*
X253100447Y-107612561D01*
X252719495Y-107612561D01*
X252529019Y-107517323D01*
X252433780Y-107326847D01*
X252433780Y-106564942D01*
X252529019Y-106374466D01*
X252719495Y-106279228D01*
X253100447Y-106279228D01*
X253290923Y-106374466D01*
X253386161Y-106564942D01*
X253386161Y-106755419D01*
X252433780Y-106945895D01*
X255100447Y-107612561D02*
X255100447Y-106564942D01*
X255005209Y-106374466D01*
X254814733Y-106279228D01*
X254433780Y-106279228D01*
X254243304Y-106374466D01*
X255100447Y-107517323D02*
X254909971Y-107612561D01*
X254433780Y-107612561D01*
X254243304Y-107517323D01*
X254148066Y-107326847D01*
X254148066Y-107136371D01*
X254243304Y-106945895D01*
X254433780Y-106850657D01*
X254909971Y-106850657D01*
X255100447Y-106755419D01*
X256909971Y-107612561D02*
X256909971Y-105612561D01*
X256909971Y-107517323D02*
X256719495Y-107612561D01*
X256338542Y-107612561D01*
X256148066Y-107517323D01*
X256052828Y-107422085D01*
X255957590Y-107231609D01*
X255957590Y-106660180D01*
X256052828Y-106469704D01*
X256148066Y-106374466D01*
X256338542Y-106279228D01*
X256719495Y-106279228D01*
X256909971Y-106374466D01*
X258624257Y-107517323D02*
X258433780Y-107612561D01*
X258052828Y-107612561D01*
X257862352Y-107517323D01*
X257767114Y-107326847D01*
X257767114Y-106564942D01*
X257862352Y-106374466D01*
X258052828Y-106279228D01*
X258433780Y-106279228D01*
X258624257Y-106374466D01*
X258719495Y-106564942D01*
X258719495Y-106755419D01*
X257767114Y-106945895D01*
X259576638Y-107612561D02*
X259576638Y-106279228D01*
X259576638Y-106660180D02*
X259671876Y-106469704D01*
X259767114Y-106374466D01*
X259957590Y-106279228D01*
X260148066Y-106279228D01*
X231458285Y-100591714D02*
X231386857Y-100663142D01*
X231172571Y-100734571D01*
X231029714Y-100734571D01*
X230815428Y-100663142D01*
X230672571Y-100520285D01*
X230601142Y-100377428D01*
X230529714Y-100091714D01*
X230529714Y-99877428D01*
X230601142Y-99591714D01*
X230672571Y-99448857D01*
X230815428Y-99306000D01*
X231029714Y-99234571D01*
X231172571Y-99234571D01*
X231386857Y-99306000D01*
X231458285Y-99377428D01*
X232101142Y-100734571D02*
X232101142Y-99234571D01*
X232101142Y-99948857D02*
X232958285Y-99948857D01*
X232958285Y-100734571D02*
X232958285Y-99234571D01*
X234315428Y-99234571D02*
X234029714Y-99234571D01*
X233886857Y-99306000D01*
X233815428Y-99377428D01*
X233672571Y-99591714D01*
X233601142Y-99877428D01*
X233601142Y-100448857D01*
X233672571Y-100591714D01*
X233744000Y-100663142D01*
X233886857Y-100734571D01*
X234172571Y-100734571D01*
X234315428Y-100663142D01*
X234386857Y-100591714D01*
X234458285Y-100448857D01*
X234458285Y-100091714D01*
X234386857Y-99948857D01*
X234315428Y-99877428D01*
X234172571Y-99806000D01*
X233886857Y-99806000D01*
X233744000Y-99877428D01*
X233672571Y-99948857D01*
X233601142Y-100091714D01*
X231358285Y-110691714D02*
X231286857Y-110763142D01*
X231072571Y-110834571D01*
X230929714Y-110834571D01*
X230715428Y-110763142D01*
X230572571Y-110620285D01*
X230501142Y-110477428D01*
X230429714Y-110191714D01*
X230429714Y-109977428D01*
X230501142Y-109691714D01*
X230572571Y-109548857D01*
X230715428Y-109406000D01*
X230929714Y-109334571D01*
X231072571Y-109334571D01*
X231286857Y-109406000D01*
X231358285Y-109477428D01*
X232001142Y-110834571D02*
X232001142Y-109334571D01*
X232001142Y-110048857D02*
X232858285Y-110048857D01*
X232858285Y-110834571D02*
X232858285Y-109334571D01*
X233501142Y-109477428D02*
X233572571Y-109406000D01*
X233715428Y-109334571D01*
X234072571Y-109334571D01*
X234215428Y-109406000D01*
X234286857Y-109477428D01*
X234358285Y-109620285D01*
X234358285Y-109763142D01*
X234286857Y-109977428D01*
X233429714Y-110834571D01*
X234358285Y-110834571D01*
X62413047Y-110870285D02*
X62317809Y-110965523D01*
X62032095Y-111060761D01*
X61841619Y-111060761D01*
X61555904Y-110965523D01*
X61365428Y-110775047D01*
X61270190Y-110584571D01*
X61174952Y-110203619D01*
X61174952Y-109917904D01*
X61270190Y-109536952D01*
X61365428Y-109346476D01*
X61555904Y-109156000D01*
X61841619Y-109060761D01*
X62032095Y-109060761D01*
X62317809Y-109156000D01*
X62413047Y-109251238D01*
X63270190Y-111060761D02*
X63270190Y-109060761D01*
X63270190Y-110013142D02*
X64413047Y-110013142D01*
X64413047Y-111060761D02*
X64413047Y-109060761D01*
X65746380Y-109060761D02*
X65936857Y-109060761D01*
X66127333Y-109156000D01*
X66222571Y-109251238D01*
X66317809Y-109441714D01*
X66413047Y-109822666D01*
X66413047Y-110298857D01*
X66317809Y-110679809D01*
X66222571Y-110870285D01*
X66127333Y-110965523D01*
X65936857Y-111060761D01*
X65746380Y-111060761D01*
X65555904Y-110965523D01*
X65460666Y-110870285D01*
X65365428Y-110679809D01*
X65270190Y-110298857D01*
X65270190Y-109822666D01*
X65365428Y-109441714D01*
X65460666Y-109251238D01*
X65555904Y-109156000D01*
X65746380Y-109060761D01*
X74413047Y-88670285D02*
X74317809Y-88765523D01*
X74032095Y-88860761D01*
X73841619Y-88860761D01*
X73555904Y-88765523D01*
X73365428Y-88575047D01*
X73270190Y-88384571D01*
X73174952Y-88003619D01*
X73174952Y-87717904D01*
X73270190Y-87336952D01*
X73365428Y-87146476D01*
X73555904Y-86956000D01*
X73841619Y-86860761D01*
X74032095Y-86860761D01*
X74317809Y-86956000D01*
X74413047Y-87051238D01*
X75270190Y-88860761D02*
X75270190Y-86860761D01*
X75270190Y-87813142D02*
X76413047Y-87813142D01*
X76413047Y-88860761D02*
X76413047Y-86860761D01*
X78413047Y-88860761D02*
X77270190Y-88860761D01*
X77841619Y-88860761D02*
X77841619Y-86860761D01*
X77651142Y-87146476D01*
X77460666Y-87336952D01*
X77270190Y-87432190D01*
X183413047Y-111070285D02*
X183317809Y-111165523D01*
X183032095Y-111260761D01*
X182841619Y-111260761D01*
X182555904Y-111165523D01*
X182365428Y-110975047D01*
X182270190Y-110784571D01*
X182174952Y-110403619D01*
X182174952Y-110117904D01*
X182270190Y-109736952D01*
X182365428Y-109546476D01*
X182555904Y-109356000D01*
X182841619Y-109260761D01*
X183032095Y-109260761D01*
X183317809Y-109356000D01*
X183413047Y-109451238D01*
X184270190Y-111260761D02*
X184270190Y-109260761D01*
X184270190Y-110213142D02*
X185413047Y-110213142D01*
X185413047Y-111260761D02*
X185413047Y-109260761D01*
X186460666Y-111260761D02*
X186841619Y-111260761D01*
X187032095Y-111165523D01*
X187127333Y-111070285D01*
X187317809Y-110784571D01*
X187413047Y-110403619D01*
X187413047Y-109641714D01*
X187317809Y-109451238D01*
X187222571Y-109356000D01*
X187032095Y-109260761D01*
X186651142Y-109260761D01*
X186460666Y-109356000D01*
X186365428Y-109451238D01*
X186270190Y-109641714D01*
X186270190Y-110117904D01*
X186365428Y-110308380D01*
X186460666Y-110403619D01*
X186651142Y-110498857D01*
X187032095Y-110498857D01*
X187222571Y-110403619D01*
X187317809Y-110308380D01*
X187413047Y-110117904D01*
X231358285Y-103191714D02*
X231286857Y-103263142D01*
X231072571Y-103334571D01*
X230929714Y-103334571D01*
X230715428Y-103263142D01*
X230572571Y-103120285D01*
X230501142Y-102977428D01*
X230429714Y-102691714D01*
X230429714Y-102477428D01*
X230501142Y-102191714D01*
X230572571Y-102048857D01*
X230715428Y-101906000D01*
X230929714Y-101834571D01*
X231072571Y-101834571D01*
X231286857Y-101906000D01*
X231358285Y-101977428D01*
X232001142Y-103334571D02*
X232001142Y-101834571D01*
X232001142Y-102548857D02*
X232858285Y-102548857D01*
X232858285Y-103334571D02*
X232858285Y-101834571D01*
X234286857Y-101834571D02*
X233572571Y-101834571D01*
X233501142Y-102548857D01*
X233572571Y-102477428D01*
X233715428Y-102406000D01*
X234072571Y-102406000D01*
X234215428Y-102477428D01*
X234286857Y-102548857D01*
X234358285Y-102691714D01*
X234358285Y-103048857D01*
X234286857Y-103191714D01*
X234215428Y-103263142D01*
X234072571Y-103334571D01*
X233715428Y-103334571D01*
X233572571Y-103263142D01*
X233501142Y-103191714D01*
X255444000Y-91534571D02*
X254944000Y-90820285D01*
X254586857Y-91534571D02*
X254586857Y-90034571D01*
X255158285Y-90034571D01*
X255301142Y-90106000D01*
X255372571Y-90177428D01*
X255444000Y-90320285D01*
X255444000Y-90534571D01*
X255372571Y-90677428D01*
X255301142Y-90748857D01*
X255158285Y-90820285D01*
X254586857Y-90820285D01*
X255944000Y-90034571D02*
X256944000Y-91534571D01*
X256944000Y-90034571D02*
X255944000Y-91534571D01*
D11*
X251951142Y-90113142D02*
X251903523Y-90160761D01*
X251760666Y-90208380D01*
X251665428Y-90208380D01*
X251522571Y-90160761D01*
X251427333Y-90065523D01*
X251379714Y-89970285D01*
X251332095Y-89779809D01*
X251332095Y-89636952D01*
X251379714Y-89446476D01*
X251427333Y-89351238D01*
X251522571Y-89256000D01*
X251665428Y-89208380D01*
X251760666Y-89208380D01*
X251903523Y-89256000D01*
X251951142Y-89303619D01*
X252903523Y-90208380D02*
X252332095Y-90208380D01*
X252617809Y-90208380D02*
X252617809Y-89208380D01*
X252522571Y-89351238D01*
X252427333Y-89446476D01*
X252332095Y-89494095D01*
X253236857Y-89208380D02*
X253855904Y-89208380D01*
X253522571Y-89589333D01*
X253665428Y-89589333D01*
X253760666Y-89636952D01*
X253808285Y-89684571D01*
X253855904Y-89779809D01*
X253855904Y-90017904D01*
X253808285Y-90113142D01*
X253760666Y-90160761D01*
X253665428Y-90208380D01*
X253379714Y-90208380D01*
X253284476Y-90160761D01*
X253236857Y-90113142D01*
X245201142Y-102853142D02*
X245153523Y-102900761D01*
X245010666Y-102948380D01*
X244915428Y-102948380D01*
X244772571Y-102900761D01*
X244677333Y-102805523D01*
X244629714Y-102710285D01*
X244582095Y-102519809D01*
X244582095Y-102376952D01*
X244629714Y-102186476D01*
X244677333Y-102091238D01*
X244772571Y-101996000D01*
X244915428Y-101948380D01*
X245010666Y-101948380D01*
X245153523Y-101996000D01*
X245201142Y-102043619D01*
X246153523Y-102948380D02*
X245582095Y-102948380D01*
X245867809Y-102948380D02*
X245867809Y-101948380D01*
X245772571Y-102091238D01*
X245677333Y-102186476D01*
X245582095Y-102234095D01*
X247058285Y-101948380D02*
X246582095Y-101948380D01*
X246534476Y-102424571D01*
X246582095Y-102376952D01*
X246677333Y-102329333D01*
X246915428Y-102329333D01*
X247010666Y-102376952D01*
X247058285Y-102424571D01*
X247105904Y-102519809D01*
X247105904Y-102757904D01*
X247058285Y-102853142D01*
X247010666Y-102900761D01*
X246915428Y-102948380D01*
X246677333Y-102948380D01*
X246582095Y-102900761D01*
X246534476Y-102853142D01*
X109928845Y-115354880D02*
X109928845Y-116164404D01*
X109976464Y-116259642D01*
X110024083Y-116307261D01*
X110119321Y-116354880D01*
X110309797Y-116354880D01*
X110405035Y-116307261D01*
X110452654Y-116259642D01*
X110500273Y-116164404D01*
X110500273Y-115354880D01*
X111405035Y-115354880D02*
X111214559Y-115354880D01*
X111119321Y-115402500D01*
X111071702Y-115450119D01*
X110976464Y-115592976D01*
X110928845Y-115783452D01*
X110928845Y-116164404D01*
X110976464Y-116259642D01*
X111024083Y-116307261D01*
X111119321Y-116354880D01*
X111309797Y-116354880D01*
X111405035Y-116307261D01*
X111452654Y-116259642D01*
X111500273Y-116164404D01*
X111500273Y-115926309D01*
X111452654Y-115831071D01*
X111405035Y-115783452D01*
X111309797Y-115735833D01*
X111119321Y-115735833D01*
X111024083Y-115783452D01*
X110976464Y-115831071D01*
X110928845Y-115926309D01*
X113318083Y-116513642D02*
X113270464Y-116561261D01*
X113127607Y-116608880D01*
X113032369Y-116608880D01*
X112889511Y-116561261D01*
X112794273Y-116466023D01*
X112746654Y-116370785D01*
X112699035Y-116180309D01*
X112699035Y-116037452D01*
X112746654Y-115846976D01*
X112794273Y-115751738D01*
X112889511Y-115656500D01*
X113032369Y-115608880D01*
X113127607Y-115608880D01*
X113270464Y-115656500D01*
X113318083Y-115704119D01*
X114222845Y-115608880D02*
X113746654Y-115608880D01*
X113699035Y-116085071D01*
X113746654Y-116037452D01*
X113841892Y-115989833D01*
X114079988Y-115989833D01*
X114175226Y-116037452D01*
X114222845Y-116085071D01*
X114270464Y-116180309D01*
X114270464Y-116418404D01*
X114222845Y-116513642D01*
X114175226Y-116561261D01*
X114079988Y-116608880D01*
X113841892Y-116608880D01*
X113746654Y-116561261D01*
X113699035Y-116513642D01*
X209869892Y-116767642D02*
X209822273Y-116815261D01*
X209679416Y-116862880D01*
X209584178Y-116862880D01*
X209441321Y-116815261D01*
X209346083Y-116720023D01*
X209298464Y-116624785D01*
X209250845Y-116434309D01*
X209250845Y-116291452D01*
X209298464Y-116100976D01*
X209346083Y-116005738D01*
X209441321Y-115910500D01*
X209584178Y-115862880D01*
X209679416Y-115862880D01*
X209822273Y-115910500D01*
X209869892Y-115958119D01*
X210822273Y-116862880D02*
X210250845Y-116862880D01*
X210536559Y-116862880D02*
X210536559Y-115862880D01*
X210441321Y-116005738D01*
X210346083Y-116100976D01*
X210250845Y-116148595D01*
X211203226Y-115958119D02*
X211250845Y-115910500D01*
X211346083Y-115862880D01*
X211584178Y-115862880D01*
X211679416Y-115910500D01*
X211727035Y-115958119D01*
X211774654Y-116053357D01*
X211774654Y-116148595D01*
X211727035Y-116291452D01*
X211155607Y-116862880D01*
X211774654Y-116862880D01*
X242251142Y-89113142D02*
X242203523Y-89160761D01*
X242060666Y-89208380D01*
X241965428Y-89208380D01*
X241822571Y-89160761D01*
X241727333Y-89065523D01*
X241679714Y-88970285D01*
X241632095Y-88779809D01*
X241632095Y-88636952D01*
X241679714Y-88446476D01*
X241727333Y-88351238D01*
X241822571Y-88256000D01*
X241965428Y-88208380D01*
X242060666Y-88208380D01*
X242203523Y-88256000D01*
X242251142Y-88303619D01*
X243203523Y-89208380D02*
X242632095Y-89208380D01*
X242917809Y-89208380D02*
X242917809Y-88208380D01*
X242822571Y-88351238D01*
X242727333Y-88446476D01*
X242632095Y-88494095D01*
X244060666Y-88541714D02*
X244060666Y-89208380D01*
X243822571Y-88160761D02*
X243584476Y-88875047D01*
X244203523Y-88875047D01*
X255132095Y-47358380D02*
X255132095Y-46358380D01*
X255132095Y-46834571D02*
X255703523Y-46834571D01*
X255703523Y-47358380D02*
X255703523Y-46358380D01*
X256132095Y-46453619D02*
X256179714Y-46406000D01*
X256274952Y-46358380D01*
X256513047Y-46358380D01*
X256608285Y-46406000D01*
X256655904Y-46453619D01*
X256703523Y-46548857D01*
X256703523Y-46644095D01*
X256655904Y-46786952D01*
X256084476Y-47358380D01*
X256703523Y-47358380D01*
X146325333Y-94415642D02*
X146277714Y-94463261D01*
X146134857Y-94510880D01*
X146039619Y-94510880D01*
X145896761Y-94463261D01*
X145801523Y-94368023D01*
X145753904Y-94272785D01*
X145706285Y-94082309D01*
X145706285Y-93939452D01*
X145753904Y-93748976D01*
X145801523Y-93653738D01*
X145896761Y-93558500D01*
X146039619Y-93510880D01*
X146134857Y-93510880D01*
X146277714Y-93558500D01*
X146325333Y-93606119D01*
X146658666Y-93510880D02*
X147325333Y-93510880D01*
X146896761Y-94510880D01*
X89188083Y-116592142D02*
X89140464Y-116639761D01*
X88997607Y-116687380D01*
X88902369Y-116687380D01*
X88759511Y-116639761D01*
X88664273Y-116544523D01*
X88616654Y-116449285D01*
X88569035Y-116258809D01*
X88569035Y-116115952D01*
X88616654Y-115925476D01*
X88664273Y-115830238D01*
X88759511Y-115735000D01*
X88902369Y-115687380D01*
X88997607Y-115687380D01*
X89140464Y-115735000D01*
X89188083Y-115782619D01*
X89521416Y-115687380D02*
X90140464Y-115687380D01*
X89807130Y-116068333D01*
X89949988Y-116068333D01*
X90045226Y-116115952D01*
X90092845Y-116163571D01*
X90140464Y-116258809D01*
X90140464Y-116496904D01*
X90092845Y-116592142D01*
X90045226Y-116639761D01*
X89949988Y-116687380D01*
X89664273Y-116687380D01*
X89569035Y-116639761D01*
X89521416Y-116592142D01*
X252781142Y-95765857D02*
X252828761Y-95813476D01*
X252876380Y-95956333D01*
X252876380Y-96051571D01*
X252828761Y-96194428D01*
X252733523Y-96289666D01*
X252638285Y-96337285D01*
X252447809Y-96384904D01*
X252304952Y-96384904D01*
X252114476Y-96337285D01*
X252019238Y-96289666D01*
X251924000Y-96194428D01*
X251876380Y-96051571D01*
X251876380Y-95956333D01*
X251924000Y-95813476D01*
X251971619Y-95765857D01*
X252876380Y-94813476D02*
X252876380Y-95384904D01*
X252876380Y-95099190D02*
X251876380Y-95099190D01*
X252019238Y-95194428D01*
X252114476Y-95289666D01*
X252162095Y-95384904D01*
X251876380Y-93956333D02*
X251876380Y-94146809D01*
X251924000Y-94242047D01*
X251971619Y-94289666D01*
X252114476Y-94384904D01*
X252304952Y-94432523D01*
X252685904Y-94432523D01*
X252781142Y-94384904D01*
X252828761Y-94337285D01*
X252876380Y-94242047D01*
X252876380Y-94051571D01*
X252828761Y-93956333D01*
X252781142Y-93908714D01*
X252685904Y-93861095D01*
X252447809Y-93861095D01*
X252352571Y-93908714D01*
X252304952Y-93956333D01*
X252257333Y-94051571D01*
X252257333Y-94242047D01*
X252304952Y-94337285D01*
X252352571Y-94384904D01*
X252447809Y-94432523D01*
X65312083Y-116846142D02*
X65264464Y-116893761D01*
X65121607Y-116941380D01*
X65026369Y-116941380D01*
X64883511Y-116893761D01*
X64788273Y-116798523D01*
X64740654Y-116703285D01*
X64693035Y-116512809D01*
X64693035Y-116369952D01*
X64740654Y-116179476D01*
X64788273Y-116084238D01*
X64883511Y-115989000D01*
X65026369Y-115941380D01*
X65121607Y-115941380D01*
X65264464Y-115989000D01*
X65312083Y-116036619D01*
X66264464Y-116941380D02*
X65693035Y-116941380D01*
X65978750Y-116941380D02*
X65978750Y-115941380D01*
X65883511Y-116084238D01*
X65788273Y-116179476D01*
X65693035Y-116227095D01*
X175027333Y-94415642D02*
X174979714Y-94463261D01*
X174836857Y-94510880D01*
X174741619Y-94510880D01*
X174598761Y-94463261D01*
X174503523Y-94368023D01*
X174455904Y-94272785D01*
X174408285Y-94082309D01*
X174408285Y-93939452D01*
X174455904Y-93748976D01*
X174503523Y-93653738D01*
X174598761Y-93558500D01*
X174741619Y-93510880D01*
X174836857Y-93510880D01*
X174979714Y-93558500D01*
X175027333Y-93606119D01*
X175503523Y-94510880D02*
X175694000Y-94510880D01*
X175789238Y-94463261D01*
X175836857Y-94415642D01*
X175932095Y-94272785D01*
X175979714Y-94082309D01*
X175979714Y-93701357D01*
X175932095Y-93606119D01*
X175884476Y-93558500D01*
X175789238Y-93510880D01*
X175598761Y-93510880D01*
X175503523Y-93558500D01*
X175455904Y-93606119D01*
X175408285Y-93701357D01*
X175408285Y-93939452D01*
X175455904Y-94034690D01*
X175503523Y-94082309D01*
X175598761Y-94129928D01*
X175789238Y-94129928D01*
X175884476Y-94082309D01*
X175932095Y-94034690D01*
X175979714Y-93939452D01*
X185739892Y-116767642D02*
X185692273Y-116815261D01*
X185549416Y-116862880D01*
X185454178Y-116862880D01*
X185311321Y-116815261D01*
X185216083Y-116720023D01*
X185168464Y-116624785D01*
X185120845Y-116434309D01*
X185120845Y-116291452D01*
X185168464Y-116100976D01*
X185216083Y-116005738D01*
X185311321Y-115910500D01*
X185454178Y-115862880D01*
X185549416Y-115862880D01*
X185692273Y-115910500D01*
X185739892Y-115958119D01*
X186692273Y-116862880D02*
X186120845Y-116862880D01*
X186406559Y-116862880D02*
X186406559Y-115862880D01*
X186311321Y-116005738D01*
X186216083Y-116100976D01*
X186120845Y-116148595D01*
X187311321Y-115862880D02*
X187406559Y-115862880D01*
X187501797Y-115910500D01*
X187549416Y-115958119D01*
X187597035Y-116053357D01*
X187644654Y-116243833D01*
X187644654Y-116481928D01*
X187597035Y-116672404D01*
X187549416Y-116767642D01*
X187501797Y-116815261D01*
X187406559Y-116862880D01*
X187311321Y-116862880D01*
X187216083Y-116815261D01*
X187168464Y-116767642D01*
X187120845Y-116672404D01*
X187073226Y-116481928D01*
X187073226Y-116243833D01*
X187120845Y-116053357D01*
X187168464Y-115958119D01*
X187216083Y-115910500D01*
X187311321Y-115862880D01*
X203761142Y-93653642D02*
X203713523Y-93701261D01*
X203570666Y-93748880D01*
X203475428Y-93748880D01*
X203332571Y-93701261D01*
X203237333Y-93606023D01*
X203189714Y-93510785D01*
X203142095Y-93320309D01*
X203142095Y-93177452D01*
X203189714Y-92986976D01*
X203237333Y-92891738D01*
X203332571Y-92796500D01*
X203475428Y-92748880D01*
X203570666Y-92748880D01*
X203713523Y-92796500D01*
X203761142Y-92844119D01*
X204713523Y-93748880D02*
X204142095Y-93748880D01*
X204427809Y-93748880D02*
X204427809Y-92748880D01*
X204332571Y-92891738D01*
X204237333Y-92986976D01*
X204142095Y-93034595D01*
X205665904Y-93748880D02*
X205094476Y-93748880D01*
X205380190Y-93748880D02*
X205380190Y-92748880D01*
X205284952Y-92891738D01*
X205189714Y-92986976D01*
X205094476Y-93034595D01*
X43592095Y-47508380D02*
X43592095Y-46508380D01*
X43592095Y-46984571D02*
X44163523Y-46984571D01*
X44163523Y-47508380D02*
X44163523Y-46508380D01*
X44544476Y-46508380D02*
X45163523Y-46508380D01*
X44830190Y-46889333D01*
X44973047Y-46889333D01*
X45068285Y-46936952D01*
X45115904Y-46984571D01*
X45163523Y-47079809D01*
X45163523Y-47317904D01*
X45115904Y-47413142D01*
X45068285Y-47460761D01*
X44973047Y-47508380D01*
X44687333Y-47508380D01*
X44592095Y-47460761D01*
X44544476Y-47413142D01*
X101280095Y-93764880D02*
X101280095Y-94574404D01*
X101327714Y-94669642D01*
X101375333Y-94717261D01*
X101470571Y-94764880D01*
X101661047Y-94764880D01*
X101756285Y-94717261D01*
X101803904Y-94669642D01*
X101851523Y-94574404D01*
X101851523Y-93764880D01*
X102803904Y-93764880D02*
X102327714Y-93764880D01*
X102280095Y-94241071D01*
X102327714Y-94193452D01*
X102422952Y-94145833D01*
X102661047Y-94145833D01*
X102756285Y-94193452D01*
X102803904Y-94241071D01*
X102851523Y-94336309D01*
X102851523Y-94574404D01*
X102803904Y-94669642D01*
X102756285Y-94717261D01*
X102661047Y-94764880D01*
X102422952Y-94764880D01*
X102327714Y-94717261D01*
X102280095Y-94669642D01*
X158364345Y-115862880D02*
X158364345Y-116672404D01*
X158411964Y-116767642D01*
X158459583Y-116815261D01*
X158554821Y-116862880D01*
X158745297Y-116862880D01*
X158840535Y-116815261D01*
X158888154Y-116767642D01*
X158935773Y-116672404D01*
X158935773Y-115862880D01*
X159459583Y-116862880D02*
X159650059Y-116862880D01*
X159745297Y-116815261D01*
X159792916Y-116767642D01*
X159888154Y-116624785D01*
X159935773Y-116434309D01*
X159935773Y-116053357D01*
X159888154Y-115958119D01*
X159840535Y-115910500D01*
X159745297Y-115862880D01*
X159554821Y-115862880D01*
X159459583Y-115910500D01*
X159411964Y-115958119D01*
X159364345Y-116053357D01*
X159364345Y-116291452D01*
X159411964Y-116386690D01*
X159459583Y-116434309D01*
X159554821Y-116481928D01*
X159745297Y-116481928D01*
X159840535Y-116434309D01*
X159888154Y-116386690D01*
X159935773Y-116291452D01*
X227758666Y-84493380D02*
X227758666Y-85207666D01*
X227711047Y-85350523D01*
X227615809Y-85445761D01*
X227472952Y-85493380D01*
X227377714Y-85493380D01*
X228139619Y-84493380D02*
X228758666Y-84493380D01*
X228425333Y-84874333D01*
X228568190Y-84874333D01*
X228663428Y-84921952D01*
X228711047Y-84969571D01*
X228758666Y-85064809D01*
X228758666Y-85302904D01*
X228711047Y-85398142D01*
X228663428Y-85445761D01*
X228568190Y-85493380D01*
X228282476Y-85493380D01*
X228187238Y-85445761D01*
X228139619Y-85398142D01*
X137448083Y-116767642D02*
X137400464Y-116815261D01*
X137257607Y-116862880D01*
X137162369Y-116862880D01*
X137019511Y-116815261D01*
X136924273Y-116720023D01*
X136876654Y-116624785D01*
X136829035Y-116434309D01*
X136829035Y-116291452D01*
X136876654Y-116100976D01*
X136924273Y-116005738D01*
X137019511Y-115910500D01*
X137162369Y-115862880D01*
X137257607Y-115862880D01*
X137400464Y-115910500D01*
X137448083Y-115958119D01*
X138305226Y-115862880D02*
X138114750Y-115862880D01*
X138019511Y-115910500D01*
X137971892Y-115958119D01*
X137876654Y-116100976D01*
X137829035Y-116291452D01*
X137829035Y-116672404D01*
X137876654Y-116767642D01*
X137924273Y-116815261D01*
X138019511Y-116862880D01*
X138209988Y-116862880D01*
X138305226Y-116815261D01*
X138352845Y-116767642D01*
X138400464Y-116672404D01*
X138400464Y-116434309D01*
X138352845Y-116339071D01*
X138305226Y-116291452D01*
X138209988Y-116243833D01*
X138019511Y-116243833D01*
X137924273Y-116291452D01*
X137876654Y-116339071D01*
X137829035Y-116434309D01*
X73660095Y-93686380D02*
X73660095Y-94495904D01*
X73707714Y-94591142D01*
X73755333Y-94638761D01*
X73850571Y-94686380D01*
X74041047Y-94686380D01*
X74136285Y-94638761D01*
X74183904Y-94591142D01*
X74231523Y-94495904D01*
X74231523Y-93686380D01*
X74612476Y-93686380D02*
X75231523Y-93686380D01*
X74898190Y-94067333D01*
X75041047Y-94067333D01*
X75136285Y-94114952D01*
X75183904Y-94162571D01*
X75231523Y-94257809D01*
X75231523Y-94495904D01*
X75183904Y-94591142D01*
X75136285Y-94638761D01*
X75041047Y-94686380D01*
X74755333Y-94686380D01*
X74660095Y-94638761D01*
X74612476Y-94591142D01*
X248455904Y-83708380D02*
X248455904Y-84517904D01*
X248503523Y-84613142D01*
X248551142Y-84660761D01*
X248646380Y-84708380D01*
X248836857Y-84708380D01*
X248932095Y-84660761D01*
X248979714Y-84613142D01*
X249027333Y-84517904D01*
X249027333Y-83708380D01*
X250027333Y-84708380D02*
X249455904Y-84708380D01*
X249741619Y-84708380D02*
X249741619Y-83708380D01*
X249646380Y-83851238D01*
X249551142Y-83946476D01*
X249455904Y-83994095D01*
X250884476Y-84041714D02*
X250884476Y-84708380D01*
X250646380Y-83660761D02*
X250408285Y-84375047D01*
X251027333Y-84375047D01*
X244266380Y-86622666D02*
X243790190Y-86956000D01*
X244266380Y-87194095D02*
X243266380Y-87194095D01*
X243266380Y-86813142D01*
X243314000Y-86717904D01*
X243361619Y-86670285D01*
X243456857Y-86622666D01*
X243599714Y-86622666D01*
X243694952Y-86670285D01*
X243742571Y-86717904D01*
X243790190Y-86813142D01*
X243790190Y-87194095D01*
X244266380Y-85670285D02*
X244266380Y-86241714D01*
X244266380Y-85956000D02*
X243266380Y-85956000D01*
X243409238Y-86051238D01*
X243504476Y-86146476D01*
X243552095Y-86241714D01*
X104669333Y-94669642D02*
X104621714Y-94717261D01*
X104478857Y-94764880D01*
X104383619Y-94764880D01*
X104240761Y-94717261D01*
X104145523Y-94622023D01*
X104097904Y-94526785D01*
X104050285Y-94336309D01*
X104050285Y-94193452D01*
X104097904Y-94002976D01*
X104145523Y-93907738D01*
X104240761Y-93812500D01*
X104383619Y-93764880D01*
X104478857Y-93764880D01*
X104621714Y-93812500D01*
X104669333Y-93860119D01*
X105526476Y-94098214D02*
X105526476Y-94764880D01*
X105288380Y-93717261D02*
X105050285Y-94431547D01*
X105669333Y-94431547D01*
X61922845Y-115941380D02*
X61922845Y-116750904D01*
X61970464Y-116846142D01*
X62018083Y-116893761D01*
X62113321Y-116941380D01*
X62303797Y-116941380D01*
X62399035Y-116893761D01*
X62446654Y-116846142D01*
X62494273Y-116750904D01*
X62494273Y-115941380D01*
X62922845Y-116036619D02*
X62970464Y-115989000D01*
X63065702Y-115941380D01*
X63303797Y-115941380D01*
X63399035Y-115989000D01*
X63446654Y-116036619D01*
X63494273Y-116131857D01*
X63494273Y-116227095D01*
X63446654Y-116369952D01*
X62875226Y-116941380D01*
X63494273Y-116941380D01*
X133804845Y-115862880D02*
X133804845Y-116672404D01*
X133852464Y-116767642D01*
X133900083Y-116815261D01*
X133995321Y-116862880D01*
X134185797Y-116862880D01*
X134281035Y-116815261D01*
X134328654Y-116767642D01*
X134376273Y-116672404D01*
X134376273Y-115862880D01*
X134757226Y-115862880D02*
X135423892Y-115862880D01*
X134995321Y-116862880D01*
X255152095Y-115358380D02*
X255152095Y-114358380D01*
X255152095Y-114834571D02*
X255723523Y-114834571D01*
X255723523Y-115358380D02*
X255723523Y-114358380D01*
X256723523Y-115358380D02*
X256152095Y-115358380D01*
X256437809Y-115358380D02*
X256437809Y-114358380D01*
X256342571Y-114501238D01*
X256247333Y-114596476D01*
X256152095Y-114644095D01*
X43492095Y-115208380D02*
X43492095Y-114208380D01*
X43492095Y-114684571D02*
X44063523Y-114684571D01*
X44063523Y-115208380D02*
X44063523Y-114208380D01*
X44968285Y-114541714D02*
X44968285Y-115208380D01*
X44730190Y-114160761D02*
X44492095Y-114875047D01*
X45111142Y-114875047D01*
X142936095Y-93510880D02*
X142936095Y-94320404D01*
X142983714Y-94415642D01*
X143031333Y-94463261D01*
X143126571Y-94510880D01*
X143317047Y-94510880D01*
X143412285Y-94463261D01*
X143459904Y-94415642D01*
X143507523Y-94320404D01*
X143507523Y-93510880D01*
X144126571Y-93939452D02*
X144031333Y-93891833D01*
X143983714Y-93844214D01*
X143936095Y-93748976D01*
X143936095Y-93701357D01*
X143983714Y-93606119D01*
X144031333Y-93558500D01*
X144126571Y-93510880D01*
X144317047Y-93510880D01*
X144412285Y-93558500D01*
X144459904Y-93606119D01*
X144507523Y-93701357D01*
X144507523Y-93748976D01*
X144459904Y-93844214D01*
X144412285Y-93891833D01*
X144317047Y-93939452D01*
X144126571Y-93939452D01*
X144031333Y-93987071D01*
X143983714Y-94034690D01*
X143936095Y-94129928D01*
X143936095Y-94320404D01*
X143983714Y-94415642D01*
X144031333Y-94463261D01*
X144126571Y-94510880D01*
X144317047Y-94510880D01*
X144412285Y-94463261D01*
X144459904Y-94415642D01*
X144507523Y-94320404D01*
X144507523Y-94129928D01*
X144459904Y-94034690D01*
X144412285Y-93987071D01*
X144317047Y-93939452D01*
X205972654Y-115862880D02*
X205972654Y-116672404D01*
X206020273Y-116767642D01*
X206067892Y-116815261D01*
X206163130Y-116862880D01*
X206353607Y-116862880D01*
X206448845Y-116815261D01*
X206496464Y-116767642D01*
X206544083Y-116672404D01*
X206544083Y-115862880D01*
X207544083Y-116862880D02*
X206972654Y-116862880D01*
X207258369Y-116862880D02*
X207258369Y-115862880D01*
X207163130Y-116005738D01*
X207067892Y-116100976D01*
X206972654Y-116148595D01*
X207877416Y-115862880D02*
X208496464Y-115862880D01*
X208163130Y-116243833D01*
X208305988Y-116243833D01*
X208401226Y-116291452D01*
X208448845Y-116339071D01*
X208496464Y-116434309D01*
X208496464Y-116672404D01*
X208448845Y-116767642D01*
X208401226Y-116815261D01*
X208305988Y-116862880D01*
X208020273Y-116862880D01*
X207925035Y-116815261D01*
X207877416Y-116767642D01*
X199863904Y-93002880D02*
X199863904Y-93812404D01*
X199911523Y-93907642D01*
X199959142Y-93955261D01*
X200054380Y-94002880D01*
X200244857Y-94002880D01*
X200340095Y-93955261D01*
X200387714Y-93907642D01*
X200435333Y-93812404D01*
X200435333Y-93002880D01*
X201435333Y-94002880D02*
X200863904Y-94002880D01*
X201149619Y-94002880D02*
X201149619Y-93002880D01*
X201054380Y-93145738D01*
X200959142Y-93240976D01*
X200863904Y-93288595D01*
X201816285Y-93098119D02*
X201863904Y-93050500D01*
X201959142Y-93002880D01*
X202197238Y-93002880D01*
X202292476Y-93050500D01*
X202340095Y-93098119D01*
X202387714Y-93193357D01*
X202387714Y-93288595D01*
X202340095Y-93431452D01*
X201768666Y-94002880D01*
X202387714Y-94002880D01*
X161753583Y-116767642D02*
X161705964Y-116815261D01*
X161563107Y-116862880D01*
X161467869Y-116862880D01*
X161325011Y-116815261D01*
X161229773Y-116720023D01*
X161182154Y-116624785D01*
X161134535Y-116434309D01*
X161134535Y-116291452D01*
X161182154Y-116100976D01*
X161229773Y-116005738D01*
X161325011Y-115910500D01*
X161467869Y-115862880D01*
X161563107Y-115862880D01*
X161705964Y-115910500D01*
X161753583Y-115958119D01*
X162325011Y-116291452D02*
X162229773Y-116243833D01*
X162182154Y-116196214D01*
X162134535Y-116100976D01*
X162134535Y-116053357D01*
X162182154Y-115958119D01*
X162229773Y-115910500D01*
X162325011Y-115862880D01*
X162515488Y-115862880D01*
X162610726Y-115910500D01*
X162658345Y-115958119D01*
X162705964Y-116053357D01*
X162705964Y-116100976D01*
X162658345Y-116196214D01*
X162610726Y-116243833D01*
X162515488Y-116291452D01*
X162325011Y-116291452D01*
X162229773Y-116339071D01*
X162182154Y-116386690D01*
X162134535Y-116481928D01*
X162134535Y-116672404D01*
X162182154Y-116767642D01*
X162229773Y-116815261D01*
X162325011Y-116862880D01*
X162515488Y-116862880D01*
X162610726Y-116815261D01*
X162658345Y-116767642D01*
X162705964Y-116672404D01*
X162705964Y-116481928D01*
X162658345Y-116386690D01*
X162610726Y-116339071D01*
X162515488Y-116291452D01*
X171161904Y-93510880D02*
X171161904Y-94320404D01*
X171209523Y-94415642D01*
X171257142Y-94463261D01*
X171352380Y-94510880D01*
X171542857Y-94510880D01*
X171638095Y-94463261D01*
X171685714Y-94415642D01*
X171733333Y-94320404D01*
X171733333Y-93510880D01*
X172733333Y-94510880D02*
X172161904Y-94510880D01*
X172447619Y-94510880D02*
X172447619Y-93510880D01*
X172352380Y-93653738D01*
X172257142Y-93748976D01*
X172161904Y-93796595D01*
X173352380Y-93510880D02*
X173447619Y-93510880D01*
X173542857Y-93558500D01*
X173590476Y-93606119D01*
X173638095Y-93701357D01*
X173685714Y-93891833D01*
X173685714Y-94129928D01*
X173638095Y-94320404D01*
X173590476Y-94415642D01*
X173542857Y-94463261D01*
X173447619Y-94510880D01*
X173352380Y-94510880D01*
X173257142Y-94463261D01*
X173209523Y-94415642D01*
X173161904Y-94320404D01*
X173114285Y-94129928D01*
X173114285Y-93891833D01*
X173161904Y-93701357D01*
X173209523Y-93606119D01*
X173257142Y-93558500D01*
X173352380Y-93510880D01*
X250347380Y-93344904D02*
X251156904Y-93344904D01*
X251252142Y-93297285D01*
X251299761Y-93249666D01*
X251347380Y-93154428D01*
X251347380Y-92963952D01*
X251299761Y-92868714D01*
X251252142Y-92821095D01*
X251156904Y-92773476D01*
X250347380Y-92773476D01*
X251347380Y-91773476D02*
X251347380Y-92344904D01*
X251347380Y-92059190D02*
X250347380Y-92059190D01*
X250490238Y-92154428D01*
X250585476Y-92249666D01*
X250633095Y-92344904D01*
X258210666Y-88128380D02*
X258210666Y-88842666D01*
X258163047Y-88985523D01*
X258067809Y-89080761D01*
X257924952Y-89128380D01*
X257829714Y-89128380D01*
X259210666Y-89128380D02*
X258639238Y-89128380D01*
X258924952Y-89128380D02*
X258924952Y-88128380D01*
X258829714Y-88271238D01*
X258734476Y-88366476D01*
X258639238Y-88414095D01*
X182096654Y-115862880D02*
X182096654Y-116672404D01*
X182144273Y-116767642D01*
X182191892Y-116815261D01*
X182287130Y-116862880D01*
X182477607Y-116862880D01*
X182572845Y-116815261D01*
X182620464Y-116767642D01*
X182668083Y-116672404D01*
X182668083Y-115862880D01*
X183668083Y-116862880D02*
X183096654Y-116862880D01*
X183382369Y-116862880D02*
X183382369Y-115862880D01*
X183287130Y-116005738D01*
X183191892Y-116100976D01*
X183096654Y-116148595D01*
X184620464Y-116862880D02*
X184049035Y-116862880D01*
X184334750Y-116862880D02*
X184334750Y-115862880D01*
X184239511Y-116005738D01*
X184144273Y-116100976D01*
X184049035Y-116148595D01*
X86052845Y-115687380D02*
X86052845Y-116496904D01*
X86100464Y-116592142D01*
X86148083Y-116639761D01*
X86243321Y-116687380D01*
X86433797Y-116687380D01*
X86529035Y-116639761D01*
X86576654Y-116592142D01*
X86624273Y-116496904D01*
X86624273Y-115687380D01*
X87529035Y-116020714D02*
X87529035Y-116687380D01*
X87290940Y-115639761D02*
X87052845Y-116354047D01*
X87671892Y-116354047D01*
X77303333Y-94845142D02*
X77255714Y-94892761D01*
X77112857Y-94940380D01*
X77017619Y-94940380D01*
X76874761Y-94892761D01*
X76779523Y-94797523D01*
X76731904Y-94702285D01*
X76684285Y-94511809D01*
X76684285Y-94368952D01*
X76731904Y-94178476D01*
X76779523Y-94083238D01*
X76874761Y-93988000D01*
X77017619Y-93940380D01*
X77112857Y-93940380D01*
X77255714Y-93988000D01*
X77303333Y-94035619D01*
X77684285Y-94035619D02*
X77731904Y-93988000D01*
X77827142Y-93940380D01*
X78065238Y-93940380D01*
X78160476Y-93988000D01*
X78208095Y-94035619D01*
X78255714Y-94130857D01*
X78255714Y-94226095D01*
X78208095Y-94368952D01*
X77636666Y-94940380D01*
X78255714Y-94940380D01*
D12*
X249272420Y-90166000D02*
X249553580Y-90166000D01*
X249272420Y-89146000D02*
X249553580Y-89146000D01*
X245984580Y-100556000D02*
X245703420Y-100556000D01*
X245984580Y-101576000D02*
X245703420Y-101576000D01*
X112250750Y-113362500D02*
X112250750Y-111687500D01*
X109130750Y-113362500D02*
X109130750Y-114012500D01*
X109130750Y-113362500D02*
X109130750Y-112712500D01*
X112250750Y-113362500D02*
X112250750Y-114012500D01*
X113994750Y-113503080D02*
X113994750Y-113221920D01*
X112974750Y-113503080D02*
X112974750Y-113221920D01*
X209494750Y-113757080D02*
X209494750Y-113475920D01*
X210514750Y-113757080D02*
X210514750Y-113475920D01*
X245716420Y-89146000D02*
X245997580Y-89146000D01*
X245716420Y-90166000D02*
X245997580Y-90166000D01*
X147002000Y-91405080D02*
X147002000Y-91123920D01*
X145982000Y-91405080D02*
X145982000Y-91123920D01*
X88844750Y-113581580D02*
X88844750Y-113300420D01*
X89864750Y-113581580D02*
X89864750Y-113300420D01*
X251504000Y-94982420D02*
X251504000Y-95263580D01*
X250484000Y-94982420D02*
X250484000Y-95263580D01*
X65988750Y-113835580D02*
X65988750Y-113554420D01*
X64968750Y-113835580D02*
X64968750Y-113554420D01*
X175704000Y-91405080D02*
X175704000Y-91123920D01*
X174684000Y-91405080D02*
X174684000Y-91123920D01*
X186638750Y-113757080D02*
X186638750Y-113475920D01*
X185618750Y-113757080D02*
X185618750Y-113475920D01*
X204406000Y-91151080D02*
X204406000Y-90869920D01*
X203386000Y-91151080D02*
X203386000Y-90869920D01*
X100482000Y-91518500D02*
X100482000Y-92168500D01*
X103602000Y-91518500D02*
X103602000Y-89843500D01*
X103602000Y-91518500D02*
X103602000Y-92168500D01*
X100482000Y-91518500D02*
X100482000Y-90868500D01*
X160764750Y-113616500D02*
X160764750Y-111941500D01*
X160764750Y-113616500D02*
X160764750Y-114266500D01*
X157644750Y-113616500D02*
X157644750Y-112966500D01*
X157644750Y-113616500D02*
X157644750Y-114266500D01*
X229422000Y-88641000D02*
X229422000Y-116641000D01*
X226762000Y-87371000D02*
X226762000Y-86041000D01*
X226762000Y-116641000D02*
X229422000Y-116641000D01*
X226762000Y-86041000D02*
X228092000Y-86041000D01*
X226762000Y-88641000D02*
X229422000Y-88641000D01*
X226762000Y-88641000D02*
X226762000Y-116641000D01*
X137104750Y-113757080D02*
X137104750Y-113475920D01*
X138124750Y-113757080D02*
X138124750Y-113475920D01*
X76236000Y-91440000D02*
X76236000Y-89765000D01*
X73116000Y-91440000D02*
X73116000Y-90790000D01*
X73116000Y-91440000D02*
X73116000Y-92090000D01*
X76236000Y-91440000D02*
X76236000Y-92090000D01*
X251254000Y-86856000D02*
X251254000Y-87506000D01*
X248134000Y-86856000D02*
X248134000Y-88531000D01*
X248134000Y-86856000D02*
X248134000Y-86206000D01*
X251254000Y-86856000D02*
X251254000Y-86206000D01*
X247449000Y-87179737D02*
X247449000Y-85732263D01*
X244739000Y-87179737D02*
X244739000Y-85732263D01*
X104326000Y-91659080D02*
X104326000Y-91377920D01*
X105346000Y-91659080D02*
X105346000Y-91377920D01*
X61124750Y-113695000D02*
X61124750Y-114345000D01*
X61124750Y-113695000D02*
X61124750Y-113045000D01*
X64244750Y-113695000D02*
X64244750Y-112020000D01*
X64244750Y-113695000D02*
X64244750Y-114345000D01*
X133260750Y-113616500D02*
X133260750Y-112966500D01*
X133260750Y-113616500D02*
X133260750Y-114266500D01*
X136380750Y-113616500D02*
X136380750Y-111941500D01*
X136380750Y-113616500D02*
X136380750Y-114266500D01*
X142138000Y-91264500D02*
X142138000Y-91914500D01*
X145258000Y-91264500D02*
X145258000Y-89589500D01*
X145258000Y-91264500D02*
X145258000Y-91914500D01*
X142138000Y-91264500D02*
X142138000Y-90614500D01*
X205650750Y-113616500D02*
X205650750Y-114266500D01*
X205650750Y-113616500D02*
X205650750Y-112966500D01*
X208770750Y-113616500D02*
X208770750Y-111941500D01*
X208770750Y-113616500D02*
X208770750Y-114266500D01*
X199542000Y-91010500D02*
X199542000Y-91660500D01*
X202662000Y-91010500D02*
X202662000Y-89335500D01*
X199542000Y-91010500D02*
X199542000Y-90360500D01*
X202662000Y-91010500D02*
X202662000Y-91660500D01*
X162430250Y-113757080D02*
X162430250Y-113475920D01*
X161410250Y-113757080D02*
X161410250Y-113475920D01*
X173960000Y-91264500D02*
X173960000Y-89589500D01*
X170840000Y-91264500D02*
X170840000Y-91914500D01*
X173960000Y-91264500D02*
X173960000Y-91914500D01*
X170840000Y-91264500D02*
X170840000Y-90614500D01*
X250055000Y-94488000D02*
X250055000Y-90888000D01*
X240135000Y-94488000D02*
X240135000Y-92288000D01*
X250055000Y-94488000D02*
X250055000Y-96688000D01*
X240135000Y-94488000D02*
X240135000Y-96688000D01*
X257214000Y-89676000D02*
X258544000Y-89676000D01*
X257214000Y-92276000D02*
X259874000Y-92276000D01*
X259874000Y-92276000D02*
X259874000Y-105036000D01*
X257214000Y-91006000D02*
X257214000Y-89676000D01*
X257214000Y-92276000D02*
X257214000Y-105036000D01*
X257214000Y-105036000D02*
X259874000Y-105036000D01*
X181774750Y-113616500D02*
X181774750Y-112966500D01*
X184894750Y-113616500D02*
X184894750Y-111941500D01*
X184894750Y-113616500D02*
X184894750Y-114266500D01*
X181774750Y-113616500D02*
X181774750Y-114266500D01*
X85254750Y-113441000D02*
X85254750Y-112791000D01*
X88374750Y-113441000D02*
X88374750Y-114091000D01*
X85254750Y-113441000D02*
X85254750Y-114091000D01*
X88374750Y-113441000D02*
X88374750Y-111766000D01*
X76960000Y-91834580D02*
X76960000Y-91553420D01*
X77980000Y-91834580D02*
X77980000Y-91553420D01*
%LPC*%
D13*
X248638000Y-89656000D03*
X250188000Y-89656000D03*
D14*
X246619000Y-101066000D03*
X245069000Y-101066000D03*
D15*
X111640750Y-112425000D03*
X109740750Y-112425000D03*
X110690750Y-114300000D03*
D16*
X113484750Y-114137500D03*
X113484750Y-112587500D03*
X210004750Y-114391500D03*
X210004750Y-112841500D03*
D13*
X245082000Y-89656000D03*
X246632000Y-89656000D03*
D17*
X255894000Y-52206000D03*
D16*
X146492000Y-92039500D03*
X146492000Y-90489500D03*
X89354750Y-114216000D03*
X89354750Y-112666000D03*
D18*
X250994000Y-94348000D03*
X250994000Y-95898000D03*
D16*
X65478750Y-114470000D03*
X65478750Y-112920000D03*
X175194000Y-92039500D03*
X175194000Y-90489500D03*
X186128750Y-114391500D03*
X186128750Y-112841500D03*
X203896000Y-91785500D03*
X203896000Y-90235500D03*
D17*
X44354000Y-52356000D03*
D15*
X102992000Y-90581000D03*
X101092000Y-90581000D03*
X102042000Y-92456000D03*
X160154750Y-112679000D03*
X158254750Y-112679000D03*
X159204750Y-114554000D03*
D19*
X228092000Y-87371000D03*
D20*
X228092000Y-89911000D03*
X228092000Y-92451000D03*
X228092000Y-94991000D03*
X228092000Y-97531000D03*
X228092000Y-100071000D03*
X228092000Y-102611000D03*
X228092000Y-105151000D03*
X228092000Y-107691000D03*
X228092000Y-110231000D03*
X228092000Y-112771000D03*
X228092000Y-115311000D03*
D16*
X137614750Y-114391500D03*
X137614750Y-112841500D03*
D15*
X75626000Y-90502500D03*
X73726000Y-90502500D03*
X74676000Y-92377500D03*
D21*
X248744000Y-87793500D03*
X250644000Y-87793500D03*
X249694000Y-85918500D03*
D22*
X246094000Y-87918500D03*
X246094000Y-84993500D03*
D16*
X104836000Y-92293500D03*
X104836000Y-90743500D03*
D15*
X63634750Y-112757500D03*
X61734750Y-112757500D03*
X62684750Y-114632500D03*
X135770750Y-112679000D03*
X133870750Y-112679000D03*
X134820750Y-114554000D03*
D17*
X255914000Y-120206000D03*
X44254000Y-120056000D03*
D15*
X144648000Y-90327000D03*
X142748000Y-90327000D03*
X143698000Y-92202000D03*
X208160750Y-112679000D03*
X206260750Y-112679000D03*
X207210750Y-114554000D03*
X202052000Y-90073000D03*
X200152000Y-90073000D03*
X201102000Y-91948000D03*
D16*
X161920250Y-114391500D03*
X161920250Y-112841500D03*
D15*
X173350000Y-90327000D03*
X171450000Y-90327000D03*
X172400000Y-92202000D03*
D23*
X249595000Y-91625500D03*
X249095000Y-91625500D03*
X248595000Y-91625500D03*
X248095000Y-91625500D03*
X247595000Y-91625500D03*
X247095000Y-91625500D03*
X246595000Y-91625500D03*
X246095000Y-91625500D03*
X245595000Y-91625500D03*
X245095000Y-91625500D03*
X244595000Y-91625500D03*
X244095000Y-91625500D03*
X243595000Y-91625500D03*
X243095000Y-91625500D03*
X242595000Y-91625500D03*
X242095000Y-91625500D03*
X241595000Y-91625500D03*
X241095000Y-91625500D03*
X240595000Y-91625500D03*
X240595000Y-97350500D03*
X241095000Y-97350500D03*
X241595000Y-97350500D03*
X242095000Y-97350500D03*
X242595000Y-97350500D03*
X243095000Y-97350500D03*
X243595000Y-97350500D03*
X244095000Y-97350500D03*
X244595000Y-97350500D03*
X245095000Y-97350500D03*
X245595000Y-97350500D03*
X246095000Y-97350500D03*
X246595000Y-97350500D03*
X247095000Y-97350500D03*
X247595000Y-97350500D03*
X248095000Y-97350500D03*
X248595000Y-97350500D03*
X249095000Y-97350500D03*
X249595000Y-97350500D03*
D19*
X258544000Y-91006000D03*
D20*
X258544000Y-93546000D03*
X258544000Y-96086000D03*
X258544000Y-98626000D03*
X258544000Y-101166000D03*
X258544000Y-103706000D03*
D15*
X184284750Y-112679000D03*
X182384750Y-112679000D03*
X183334750Y-114554000D03*
X87764750Y-112503500D03*
X85864750Y-112503500D03*
X86814750Y-114378500D03*
D16*
X77470000Y-92469000D03*
X77470000Y-90919000D03*
M02*
