G04 #@! TF.GenerationSoftware,KiCad,Pcbnew,(6.0.7)*
G04 #@! TF.CreationDate,2022-09-28T12:09:05-04:00*
G04 #@! TF.ProjectId,developmentboard,64657665-6c6f-4706-9d65-6e74626f6172,rev?*
G04 #@! TF.SameCoordinates,Original*
G04 #@! TF.FileFunction,Copper,L1,Top*
G04 #@! TF.FilePolarity,Positive*
%FSLAX46Y46*%
G04 Gerber Fmt 4.6, Leading zero omitted, Abs format (unit mm)*
G04 Created by KiCad (PCBNEW (6.0.7)) date 2022-09-28 12:09:05*
%MOMM*%
%LPD*%
G01*
G04 APERTURE LIST*
G04 Aperture macros list*
%AMRoundRect*
0 Rectangle with rounded corners*
0 $1 Rounding radius*
0 $2 $3 $4 $5 $6 $7 $8 $9 X,Y pos of 4 corners*
0 Add a 4 corners polygon primitive as box body*
4,1,4,$2,$3,$4,$5,$6,$7,$8,$9,$2,$3,0*
0 Add four circle primitives for the rounded corners*
1,1,$1+$1,$2,$3*
1,1,$1+$1,$4,$5*
1,1,$1+$1,$6,$7*
1,1,$1+$1,$8,$9*
0 Add four rect primitives between the rounded corners*
20,1,$1+$1,$2,$3,$4,$5,0*
20,1,$1+$1,$4,$5,$6,$7,0*
20,1,$1+$1,$6,$7,$8,$9,0*
20,1,$1+$1,$8,$9,$2,$3,0*%
G04 Aperture macros list end*
G04 #@! TA.AperFunction,SMDPad,CuDef*
%ADD10RoundRect,0.225000X-0.225000X-0.250000X0.225000X-0.250000X0.225000X0.250000X-0.225000X0.250000X0*%
G04 #@! TD*
G04 #@! TA.AperFunction,SMDPad,CuDef*
%ADD11RoundRect,0.225000X0.225000X0.250000X-0.225000X0.250000X-0.225000X-0.250000X0.225000X-0.250000X0*%
G04 #@! TD*
G04 #@! TA.AperFunction,SMDPad,CuDef*
%ADD12RoundRect,0.150000X-0.150000X0.587500X-0.150000X-0.587500X0.150000X-0.587500X0.150000X0.587500X0*%
G04 #@! TD*
G04 #@! TA.AperFunction,ComponentPad*
%ADD13R,1.700000X1.700000*%
G04 #@! TD*
G04 #@! TA.AperFunction,ComponentPad*
%ADD14O,1.700000X1.700000*%
G04 #@! TD*
G04 #@! TA.AperFunction,SMDPad,CuDef*
%ADD15RoundRect,0.225000X0.250000X-0.225000X0.250000X0.225000X-0.250000X0.225000X-0.250000X-0.225000X0*%
G04 #@! TD*
G04 #@! TA.AperFunction,SMDPad,CuDef*
%ADD16RoundRect,0.225000X-0.250000X0.225000X-0.250000X-0.225000X0.250000X-0.225000X0.250000X0.225000X0*%
G04 #@! TD*
G04 #@! TA.AperFunction,SMDPad,CuDef*
%ADD17RoundRect,0.150000X0.150000X-0.587500X0.150000X0.587500X-0.150000X0.587500X-0.150000X-0.587500X0*%
G04 #@! TD*
G04 #@! TA.AperFunction,SMDPad,CuDef*
%ADD18RoundRect,0.250000X1.075000X-0.312500X1.075000X0.312500X-1.075000X0.312500X-1.075000X-0.312500X0*%
G04 #@! TD*
G04 #@! TA.AperFunction,SMDPad,CuDef*
%ADD19RoundRect,0.075000X-0.075000X0.662500X-0.075000X-0.662500X0.075000X-0.662500X0.075000X0.662500X0*%
G04 #@! TD*
G04 #@! TA.AperFunction,ViaPad*
%ADD20C,0.800000*%
G04 #@! TD*
G04 #@! TA.AperFunction,Conductor*
%ADD21C,0.250000*%
G04 #@! TD*
G04 APERTURE END LIST*
D10*
X248638000Y-89656000D03*
X250188000Y-89656000D03*
D11*
X246505000Y-100838000D03*
X244955000Y-100838000D03*
D12*
X111640750Y-112425000D03*
X109740750Y-112425000D03*
X110690750Y-114300000D03*
D13*
X258572000Y-90688000D03*
D14*
X258572000Y-93228000D03*
X258572000Y-95768000D03*
X258572000Y-98308000D03*
D15*
X113484750Y-114137500D03*
X113484750Y-112587500D03*
D13*
X258572000Y-102056000D03*
D14*
X258572000Y-104596000D03*
D15*
X210004750Y-114391500D03*
X210004750Y-112841500D03*
D10*
X245082000Y-89656000D03*
X246632000Y-89656000D03*
D15*
X146492000Y-92039500D03*
X146492000Y-90489500D03*
X89354750Y-114216000D03*
X89354750Y-112666000D03*
D16*
X250994000Y-94348000D03*
X250994000Y-95898000D03*
D15*
X65478750Y-114470000D03*
X65478750Y-112920000D03*
X175194000Y-92039500D03*
X175194000Y-90489500D03*
X186128750Y-114391500D03*
X186128750Y-112841500D03*
X203896000Y-91785500D03*
X203896000Y-90235500D03*
D12*
X102992000Y-90581000D03*
X101092000Y-90581000D03*
X102042000Y-92456000D03*
X160154750Y-112679000D03*
X158254750Y-112679000D03*
X159204750Y-114554000D03*
D13*
X228092000Y-87371000D03*
D14*
X228092000Y-89911000D03*
X228092000Y-92451000D03*
X228092000Y-94991000D03*
X228092000Y-97531000D03*
X228092000Y-100071000D03*
X228092000Y-102611000D03*
X228092000Y-105151000D03*
X228092000Y-107691000D03*
X228092000Y-110231000D03*
X228092000Y-112771000D03*
X228092000Y-115311000D03*
D15*
X137614750Y-114391500D03*
X137614750Y-112841500D03*
D12*
X75626000Y-90502500D03*
X73726000Y-90502500D03*
X74676000Y-92377500D03*
D17*
X248744000Y-87793500D03*
X250644000Y-87793500D03*
X249694000Y-85918500D03*
D18*
X246094000Y-87918500D03*
X246094000Y-84993500D03*
D15*
X104836000Y-92293500D03*
X104836000Y-90743500D03*
D12*
X63634750Y-112757500D03*
X61734750Y-112757500D03*
X62684750Y-114632500D03*
X135770750Y-112679000D03*
X133870750Y-112679000D03*
X134820750Y-114554000D03*
X144648000Y-90327000D03*
X142748000Y-90327000D03*
X143698000Y-92202000D03*
X208160750Y-112679000D03*
X206260750Y-112679000D03*
X207210750Y-114554000D03*
X202052000Y-90073000D03*
X200152000Y-90073000D03*
X201102000Y-91948000D03*
D15*
X161920250Y-114391500D03*
X161920250Y-112841500D03*
D12*
X173350000Y-90327000D03*
X171450000Y-90327000D03*
X172400000Y-92202000D03*
D19*
X249595000Y-91625500D03*
X249095000Y-91625500D03*
X248595000Y-91625500D03*
X248095000Y-91625500D03*
X247595000Y-91625500D03*
X247095000Y-91625500D03*
X246595000Y-91625500D03*
X246095000Y-91625500D03*
X245595000Y-91625500D03*
X245095000Y-91625500D03*
X244595000Y-91625500D03*
X244095000Y-91625500D03*
X243595000Y-91625500D03*
X243095000Y-91625500D03*
X242595000Y-91625500D03*
X242095000Y-91625500D03*
X241595000Y-91625500D03*
X241095000Y-91625500D03*
X240595000Y-91625500D03*
X240595000Y-97350500D03*
X241095000Y-97350500D03*
X241595000Y-97350500D03*
X242095000Y-97350500D03*
X242595000Y-97350500D03*
X243095000Y-97350500D03*
X243595000Y-97350500D03*
X244095000Y-97350500D03*
X244595000Y-97350500D03*
X245095000Y-97350500D03*
X245595000Y-97350500D03*
X246095000Y-97350500D03*
X246595000Y-97350500D03*
X247095000Y-97350500D03*
X247595000Y-97350500D03*
X248095000Y-97350500D03*
X248595000Y-97350500D03*
X249095000Y-97350500D03*
X249595000Y-97350500D03*
D12*
X184284750Y-112679000D03*
X182384750Y-112679000D03*
X183334750Y-114554000D03*
X87764750Y-112503500D03*
X85864750Y-112503500D03*
X86814750Y-114378500D03*
D15*
X77470000Y-92469000D03*
X77470000Y-90919000D03*
D20*
X104902000Y-93726000D03*
X203962000Y-92964000D03*
X87884000Y-114808000D03*
X247650000Y-100838000D03*
X185166000Y-114808000D03*
X111760000Y-114808000D03*
X77470000Y-93726000D03*
X175260000Y-93218000D03*
X245394000Y-93956000D03*
X248394000Y-93756000D03*
X65532000Y-115570000D03*
X103124000Y-92964000D03*
X137414000Y-115570000D03*
X202184000Y-92456000D03*
X160274000Y-115316000D03*
X184150000Y-114808000D03*
X89154000Y-115316000D03*
X75946000Y-92964000D03*
X250594000Y-93056000D03*
X135890000Y-115062000D03*
X245594000Y-95956000D03*
X252094000Y-88456000D03*
X113030000Y-115316000D03*
X248095000Y-95313000D03*
X240794000Y-95556000D03*
X250694000Y-90856000D03*
X247094000Y-93356000D03*
X209550000Y-115316000D03*
X144780000Y-92710000D03*
X208280000Y-115062000D03*
X64008000Y-115062000D03*
X243894000Y-89856000D03*
X240594000Y-93456000D03*
X146558000Y-93218000D03*
X161290000Y-115316000D03*
X173482000Y-92710000D03*
X254394000Y-97256000D03*
X201594000Y-106856000D03*
X201594000Y-111256000D03*
X254394000Y-101756000D03*
X212094000Y-111256000D03*
X223012000Y-87376000D03*
X223012000Y-95758000D03*
D21*
X247595000Y-97350500D02*
X247595000Y-98512000D01*
X247595000Y-98512000D02*
X247751000Y-98668000D01*
X247751000Y-98668000D02*
X255154000Y-98668000D01*
X255154000Y-98668000D02*
X256032000Y-97790000D01*
X256032000Y-97790000D02*
X256032000Y-89154000D01*
X259724000Y-88626000D02*
X260164000Y-89066000D01*
X256032000Y-89154000D02*
X256560000Y-88626000D01*
X256560000Y-88626000D02*
X259724000Y-88626000D01*
X260174000Y-89076000D02*
X260174000Y-92886000D01*
X260174000Y-92886000D02*
X259832000Y-93228000D01*
X259832000Y-93228000D02*
X258572000Y-93228000D01*
X183334750Y-114554000D02*
X183896000Y-114554000D01*
X159512000Y-114554000D02*
X160274000Y-115316000D01*
X245595000Y-90429000D02*
X245082000Y-89916000D01*
X87454500Y-114378500D02*
X87884000Y-114808000D01*
X247095000Y-91625500D02*
X247095000Y-93171000D01*
X247142000Y-93308000D02*
X247094000Y-93356000D01*
X250644000Y-87893500D02*
X251531500Y-87893500D01*
X207772000Y-114554000D02*
X208280000Y-115062000D01*
X245593478Y-93218000D02*
X245594000Y-93218522D01*
X172974000Y-92202000D02*
X172400000Y-92202000D01*
X240792000Y-95504000D02*
X240792000Y-95554000D01*
X247142000Y-93218000D02*
X247142000Y-93308000D01*
X104836000Y-93660000D02*
X104902000Y-93726000D01*
X146492000Y-92039500D02*
X146492000Y-93152000D01*
X207210750Y-114554000D02*
X207772000Y-114554000D01*
X113484750Y-114861250D02*
X113030000Y-115316000D01*
X246505000Y-100838000D02*
X247650000Y-100838000D01*
X248595000Y-91625500D02*
X248595000Y-93543000D01*
X74676000Y-92377500D02*
X75359500Y-92377500D01*
X245595000Y-91625500D02*
X245595000Y-90429000D01*
X250188000Y-90350000D02*
X250188000Y-89916000D01*
X250694000Y-90856000D02*
X250188000Y-90350000D01*
X161920250Y-114685750D02*
X161290000Y-115316000D01*
X144272000Y-92202000D02*
X144780000Y-92710000D01*
X102616000Y-92456000D02*
X103124000Y-92964000D01*
X247095000Y-93171000D02*
X247142000Y-93218000D01*
X245594000Y-93218522D02*
X245594522Y-93218000D01*
X89354750Y-114216000D02*
X89354750Y-115115250D01*
X183896000Y-114554000D02*
X184150000Y-114808000D01*
X245594000Y-93218522D02*
X245594000Y-93756000D01*
X201102000Y-91948000D02*
X201676000Y-91948000D01*
X240792000Y-95554000D02*
X240794000Y-95556000D01*
X65478750Y-115516750D02*
X65532000Y-115570000D01*
X248412000Y-93726000D02*
X248412000Y-93738000D01*
X240595000Y-97350500D02*
X240595000Y-95701000D01*
X210004750Y-114391500D02*
X210004750Y-114861250D01*
X159204750Y-114554000D02*
X159512000Y-114554000D01*
X62684750Y-114632500D02*
X63578500Y-114632500D01*
X250810000Y-93272000D02*
X250810000Y-94348000D01*
X240595000Y-95701000D02*
X240792000Y-95504000D01*
X248095000Y-97350500D02*
X248095000Y-95313000D01*
X173482000Y-92710000D02*
X172974000Y-92202000D01*
X137614750Y-114391500D02*
X137614750Y-115369250D01*
X203896000Y-91785500D02*
X203896000Y-92898000D01*
X243954000Y-89916000D02*
X243894000Y-89856000D01*
X175260000Y-93218000D02*
X175260000Y-93096000D01*
X146492000Y-93152000D02*
X146558000Y-93218000D01*
X161920250Y-114391500D02*
X161920250Y-114685750D01*
X210004750Y-114861250D02*
X209550000Y-115316000D01*
X175260000Y-93096000D02*
X175194000Y-93030000D01*
X245594000Y-93756000D02*
X245394000Y-93956000D01*
X240595000Y-91625500D02*
X240595000Y-93415000D01*
X102042000Y-92456000D02*
X102616000Y-92456000D01*
X110690750Y-114300000D02*
X111252000Y-114300000D01*
X175194000Y-93030000D02*
X175194000Y-92039500D01*
X245595000Y-96035000D02*
X245618000Y-96012000D01*
X134820750Y-114554000D02*
X135382000Y-114554000D01*
X248595000Y-93543000D02*
X248412000Y-93726000D01*
X65478750Y-114470000D02*
X65478750Y-115516750D01*
X245595000Y-97350500D02*
X245595000Y-96035000D01*
X113484750Y-114137500D02*
X113484750Y-114861250D01*
X135382000Y-114554000D02*
X135890000Y-115062000D01*
X250594000Y-93056000D02*
X250810000Y-93272000D01*
X77470000Y-92469000D02*
X77470000Y-93726000D01*
X185582500Y-114391500D02*
X185166000Y-114808000D01*
X245595000Y-91625500D02*
X245595000Y-93195000D01*
X104836000Y-92293500D02*
X104836000Y-93660000D01*
X89354750Y-115115250D02*
X89154000Y-115316000D01*
X86814750Y-114378500D02*
X87454500Y-114378500D01*
X201676000Y-91948000D02*
X202184000Y-92456000D01*
X186128750Y-114391500D02*
X185582500Y-114391500D01*
X75359500Y-92377500D02*
X75946000Y-92964000D01*
X111252000Y-114300000D02*
X111760000Y-114808000D01*
X63578500Y-114632500D02*
X64008000Y-115062000D01*
X245082000Y-89916000D02*
X243954000Y-89916000D01*
X245595000Y-91625500D02*
X245095000Y-91625500D01*
X251531500Y-87893500D02*
X252094000Y-88456000D01*
X248412000Y-93738000D02*
X248394000Y-93756000D01*
X137614750Y-115369250D02*
X137414000Y-115570000D01*
X143698000Y-92202000D02*
X144272000Y-92202000D01*
X203896000Y-92898000D02*
X203962000Y-92964000D01*
X137452250Y-112679000D02*
X137614750Y-112841500D01*
X246632000Y-89656000D02*
X246632000Y-88456500D01*
X89192250Y-112503500D02*
X89354750Y-112666000D01*
X248595000Y-97350500D02*
X248595000Y-96547315D01*
X135770750Y-112679000D02*
X137452250Y-112679000D01*
X111640750Y-112425000D02*
X113322250Y-112425000D01*
X247595000Y-91625500D02*
X247595000Y-90384000D01*
X77307500Y-90756500D02*
X77470000Y-90919000D01*
X87510750Y-112503500D02*
X89192250Y-112503500D01*
X202052000Y-90073000D02*
X203733500Y-90073000D01*
X113322250Y-112425000D02*
X113484750Y-112587500D01*
X75626000Y-90756500D02*
X77307500Y-90756500D01*
X249244315Y-95898000D02*
X250810000Y-95898000D01*
X208160750Y-112679000D02*
X209842250Y-112679000D01*
X175031500Y-90327000D02*
X175194000Y-90489500D01*
X173350000Y-90327000D02*
X175031500Y-90327000D01*
X160154750Y-112679000D02*
X161757750Y-112679000D01*
X248595000Y-96547315D02*
X249244315Y-95898000D01*
X203733500Y-90073000D02*
X203896000Y-90235500D01*
X63634750Y-112757500D02*
X65316250Y-112757500D01*
X246632000Y-88456500D02*
X246194000Y-88018500D01*
X247595000Y-90384000D02*
X247127000Y-89916000D01*
X146329500Y-90327000D02*
X146492000Y-90489500D01*
X65316250Y-112757500D02*
X65478750Y-112920000D01*
X144648000Y-90327000D02*
X146329500Y-90327000D01*
X185966250Y-112679000D02*
X186128750Y-112841500D01*
X247127000Y-89916000D02*
X246632000Y-89916000D01*
X104673500Y-90581000D02*
X104836000Y-90743500D01*
X245095000Y-97350500D02*
X245095000Y-100698000D01*
X209842250Y-112679000D02*
X210004750Y-112841500D01*
X184284750Y-112679000D02*
X185966250Y-112679000D01*
X102992000Y-90581000D02*
X104673500Y-90581000D01*
X161757750Y-112679000D02*
X161920250Y-112841500D01*
X245095000Y-100698000D02*
X244955000Y-100838000D01*
X248744000Y-87893500D02*
X248744000Y-89550000D01*
X248694000Y-87743500D02*
X248694000Y-86256000D01*
X248694000Y-86256000D02*
X247531500Y-85093500D01*
X248744000Y-87793500D02*
X248694000Y-87743500D01*
X248744000Y-89550000D02*
X248638000Y-89656000D01*
X248095000Y-91625500D02*
X248095000Y-90459000D01*
X248095000Y-90459000D02*
X248638000Y-89916000D01*
X248759000Y-89535000D02*
X248638000Y-89656000D01*
X247531500Y-85093500D02*
X246194000Y-85093500D01*
X247095000Y-97350500D02*
X247095000Y-98774000D01*
X247095000Y-98774000D02*
X247439000Y-99118000D01*
X256794000Y-98044000D02*
X256794000Y-91186000D01*
X257292000Y-90688000D02*
X258572000Y-90688000D01*
X255720000Y-99118000D02*
X256794000Y-98044000D01*
X247439000Y-99118000D02*
X255720000Y-99118000D01*
X256794000Y-91186000D02*
X257292000Y-90688000D01*
X250137000Y-100038000D02*
X259118000Y-100038000D01*
X260096000Y-99060000D02*
X260096000Y-97292000D01*
X246095000Y-99298000D02*
X246835000Y-100038000D01*
X246873000Y-100038000D02*
X250137000Y-100038000D01*
X259118000Y-100038000D02*
X260096000Y-99060000D01*
X246095000Y-97350500D02*
X246095000Y-99298000D01*
X246835000Y-100038000D02*
X246873000Y-100038000D01*
X260096000Y-97292000D02*
X258572000Y-95768000D01*
X246595000Y-99036000D02*
X247127000Y-99568000D01*
X247127000Y-99568000D02*
X257312000Y-99568000D01*
X246595000Y-97350500D02*
X246595000Y-99036000D01*
X257312000Y-99568000D02*
X258572000Y-98308000D01*
X222758000Y-96012000D02*
X223012000Y-95758000D01*
X241336188Y-88820000D02*
X237918000Y-88820000D01*
X206260750Y-112679000D02*
X222758000Y-96181750D01*
X237918000Y-88820000D02*
X236469000Y-87371000D01*
X236469000Y-87371000D02*
X228092000Y-87371000D01*
X223012000Y-87376000D02*
X224790000Y-87376000D01*
X242570000Y-91650500D02*
X242570000Y-90053812D01*
X224790000Y-87376000D02*
X224795000Y-87371000D01*
X242570000Y-90053812D02*
X241336188Y-88820000D01*
X242595000Y-91625500D02*
X242570000Y-91650500D01*
X222758000Y-96181750D02*
X222758000Y-96012000D01*
X224795000Y-87371000D02*
X228092000Y-87371000D01*
X220731000Y-89911000D02*
X228092000Y-89911000D01*
X242095000Y-91625500D02*
X242095000Y-90215208D01*
X237374000Y-89270000D02*
X236728000Y-89916000D01*
X201930000Y-96266000D02*
X214376000Y-96266000D01*
X214376000Y-96266000D02*
X220731000Y-89911000D01*
X200152000Y-94488000D02*
X201930000Y-96266000D01*
X241149792Y-89270000D02*
X237374000Y-89270000D01*
X242095000Y-90215208D02*
X241149792Y-89270000D01*
X236723000Y-89911000D02*
X228092000Y-89911000D01*
X236728000Y-89916000D02*
X236723000Y-89911000D01*
X200152000Y-90073000D02*
X200152000Y-94488000D01*
X238194000Y-89720000D02*
X235526000Y-92388000D01*
X203708000Y-109220000D02*
X203962000Y-109220000D01*
X240963396Y-89720000D02*
X240226000Y-89720000D01*
X240963396Y-89720000D02*
X238194000Y-89720000D01*
X182384750Y-111747250D02*
X184912000Y-109220000D01*
X238194000Y-89720000D02*
X235463000Y-92451000D01*
X235463000Y-92451000D02*
X228092000Y-92451000D01*
X203962000Y-109220000D02*
X220731000Y-92451000D01*
X184912000Y-109220000D02*
X203708000Y-109220000D01*
X220731000Y-92451000D02*
X228092000Y-92451000D01*
X241595000Y-91625500D02*
X241595000Y-90351604D01*
X241595000Y-90351604D02*
X240963396Y-89720000D01*
X240226000Y-89720000D02*
X238194000Y-89720000D01*
X182384750Y-112679000D02*
X182384750Y-111747250D01*
X220477000Y-94991000D02*
X228092000Y-94991000D01*
X240777000Y-90170000D02*
X238760000Y-90170000D01*
X171450000Y-90327000D02*
X171450000Y-114300000D01*
X199644000Y-115824000D02*
X220477000Y-94991000D01*
X172974000Y-115824000D02*
X199644000Y-115824000D01*
X233929000Y-94991000D02*
X228092000Y-94991000D01*
X241095000Y-90488000D02*
X240777000Y-90170000D01*
X171450000Y-114300000D02*
X172974000Y-115824000D01*
X238760000Y-90170000D02*
X233934000Y-94996000D01*
X233934000Y-94996000D02*
X233929000Y-94991000D01*
X241095000Y-91625500D02*
X241095000Y-90488000D01*
X236118000Y-98704000D02*
X234945000Y-97531000D01*
X241095000Y-97350500D02*
X241095000Y-98488000D01*
X228092000Y-97884000D02*
X228092000Y-97531000D01*
X240879000Y-98704000D02*
X236118000Y-98704000D01*
X158254750Y-116598750D02*
X158267500Y-116586000D01*
X158254750Y-112679000D02*
X158254750Y-116598750D01*
X158267500Y-116586000D02*
X209390000Y-116586000D01*
X234945000Y-97531000D02*
X228092000Y-97531000D01*
X209390000Y-116586000D02*
X228092000Y-97884000D01*
X241095000Y-98488000D02*
X240879000Y-98704000D01*
X142748000Y-112522000D02*
X147610000Y-117384000D01*
X147610000Y-117384000D02*
X210779000Y-117384000D01*
X235204000Y-100076000D02*
X235199000Y-100071000D01*
X235199000Y-100071000D02*
X228092000Y-100071000D01*
X210779000Y-117384000D02*
X228092000Y-100071000D01*
X236126000Y-99154000D02*
X235204000Y-100076000D01*
X241191000Y-99154000D02*
X236126000Y-99154000D01*
X241595000Y-98750000D02*
X241191000Y-99154000D01*
X241595000Y-97350500D02*
X241595000Y-98750000D01*
X142748000Y-90327000D02*
X142748000Y-112522000D01*
X133870750Y-112679000D02*
X133870750Y-115836750D01*
X136144000Y-118110000D02*
X212593000Y-118110000D01*
X233680000Y-102616000D02*
X233675000Y-102611000D01*
X233675000Y-102611000D02*
X228092000Y-102611000D01*
X212593000Y-118110000D02*
X228092000Y-102611000D01*
X133870750Y-115836750D02*
X136144000Y-118110000D01*
X242095000Y-99009208D02*
X241500208Y-99604000D01*
X242095000Y-97350500D02*
X242095000Y-99009208D01*
X241500208Y-99604000D02*
X236692000Y-99604000D01*
X236692000Y-99604000D02*
X233680000Y-102616000D01*
X237258000Y-100054000D02*
X232161000Y-105151000D01*
X242595000Y-97350500D02*
X242595000Y-99100000D01*
X109740750Y-115709250D02*
X112903500Y-118872000D01*
X242595000Y-99100000D02*
X242617802Y-99122802D01*
X232161000Y-105151000D02*
X228092000Y-105151000D01*
X241686604Y-100054000D02*
X237258000Y-100054000D01*
X242617802Y-99122802D02*
X241686604Y-100054000D01*
X214371000Y-118872000D02*
X228092000Y-105151000D01*
X112903500Y-118872000D02*
X214371000Y-118872000D01*
X109740750Y-112425000D02*
X109740750Y-115709250D01*
X228092000Y-107691000D02*
X232415000Y-107691000D01*
X234188000Y-104140000D02*
X237824000Y-100504000D01*
X109728000Y-119634000D02*
X216149000Y-119634000D01*
X237824000Y-100504000D02*
X241873000Y-100504000D01*
X232415000Y-107691000D02*
X234188000Y-105918000D01*
X101092000Y-90581000D02*
X101092000Y-110998000D01*
X216149000Y-119634000D02*
X228092000Y-107691000D01*
X234188000Y-105918000D02*
X234188000Y-104140000D01*
X101092000Y-110998000D02*
X109728000Y-119634000D01*
X243095000Y-99282000D02*
X243095000Y-97350500D01*
X241873000Y-100504000D02*
X243095000Y-99282000D01*
X235458000Y-103886000D02*
X235458000Y-107188000D01*
X85864750Y-115836750D02*
X90424000Y-120396000D01*
X90424000Y-120396000D02*
X217927000Y-120396000D01*
X243595000Y-97350500D02*
X243595000Y-99541208D01*
X243595000Y-99541208D02*
X242182208Y-100954000D01*
X217927000Y-120396000D02*
X228092000Y-110231000D01*
X85864750Y-112503500D02*
X85864750Y-115836750D01*
X232415000Y-110231000D02*
X228092000Y-110231000D01*
X238390000Y-100954000D02*
X235458000Y-103886000D01*
X242182208Y-100954000D02*
X238390000Y-100954000D01*
X235458000Y-107188000D02*
X232415000Y-110231000D01*
X233177000Y-112771000D02*
X235712000Y-110236000D01*
X78994000Y-121158000D02*
X219705000Y-121158000D01*
X244095000Y-97350500D02*
X244095000Y-99677604D01*
X73726000Y-115890000D02*
X78994000Y-121158000D01*
X73726000Y-90502500D02*
X73726000Y-115890000D01*
X219705000Y-121158000D02*
X228092000Y-112771000D01*
X244095000Y-99677604D02*
X242368604Y-101404000D01*
X236220000Y-109728000D02*
X236220000Y-104140000D01*
X238956000Y-101404000D02*
X236220000Y-104140000D01*
X242368604Y-101404000D02*
X238956000Y-101404000D01*
X228092000Y-112771000D02*
X233177000Y-112771000D01*
X235712000Y-110236000D02*
X236220000Y-109728000D01*
X236982000Y-104394000D02*
X239522000Y-101854000D01*
X61734750Y-116598750D02*
X67056000Y-121920000D01*
X61734750Y-112757500D02*
X61734750Y-116598750D01*
X242555000Y-101854000D02*
X239522000Y-101854000D01*
X236982000Y-112268000D02*
X236982000Y-104394000D01*
X244595000Y-97350500D02*
X244595000Y-99814000D01*
X228092000Y-116586000D02*
X228092000Y-115311000D01*
X228092000Y-115311000D02*
X233939000Y-115311000D01*
X244595000Y-99814000D02*
X242809000Y-101600000D01*
X233939000Y-115311000D02*
X236982000Y-112268000D01*
X242809000Y-101600000D02*
X242555000Y-101854000D01*
X67056000Y-121920000D02*
X222758000Y-121920000D01*
X222758000Y-121920000D02*
X228092000Y-116586000D01*
X246595000Y-91625500D02*
X246095000Y-91625500D01*
G04 #@! TA.AperFunction,Conductor*
G36*
X255966952Y-47665754D02*
G01*
X255995153Y-47669728D01*
X256015513Y-47666766D01*
X256037357Y-47665508D01*
X256293045Y-47673033D01*
X256392149Y-47675950D01*
X256403175Y-47676759D01*
X256785987Y-47721831D01*
X256796900Y-47723605D01*
X257174265Y-47802056D01*
X257184980Y-47804779D01*
X257554020Y-47916010D01*
X257564456Y-47919662D01*
X257922321Y-48062814D01*
X257932396Y-48067366D01*
X258276344Y-48241343D01*
X258285981Y-48246761D01*
X258613364Y-48450224D01*
X258622478Y-48456459D01*
X258930755Y-48687831D01*
X258939286Y-48694839D01*
X259144150Y-48878772D01*
X259226096Y-48952346D01*
X259233991Y-48960086D01*
X259497117Y-49241737D01*
X259504303Y-49250139D01*
X259741735Y-49553782D01*
X259748156Y-49562782D01*
X259958045Y-49886053D01*
X259963653Y-49895581D01*
X260144402Y-50236016D01*
X260149152Y-50245996D01*
X260168081Y-50290729D01*
X260299359Y-50600962D01*
X260303217Y-50611323D01*
X260421731Y-50978091D01*
X260424666Y-50988751D01*
X260510571Y-51364496D01*
X260512559Y-51375371D01*
X260565199Y-51757212D01*
X260566227Y-51768220D01*
X260583334Y-52115527D01*
X260582088Y-52140448D01*
X260580283Y-52152462D01*
X260581494Y-52161354D01*
X260581494Y-52161355D01*
X260584348Y-52182311D01*
X260585500Y-52199313D01*
X260585500Y-88287404D01*
X260565498Y-88355525D01*
X260511842Y-88402018D01*
X260441568Y-88412122D01*
X260376988Y-88382628D01*
X260370405Y-88376499D01*
X260227647Y-88233741D01*
X260220113Y-88225463D01*
X260216000Y-88218982D01*
X260203048Y-88206819D01*
X260166365Y-88172373D01*
X260163519Y-88169615D01*
X260146571Y-88152666D01*
X260143770Y-88149865D01*
X260140573Y-88147385D01*
X260131551Y-88139680D01*
X260118122Y-88127069D01*
X260099321Y-88109414D01*
X260092375Y-88105595D01*
X260092372Y-88105593D01*
X260081566Y-88099652D01*
X260065047Y-88088801D01*
X260064583Y-88088441D01*
X260049041Y-88076386D01*
X260041772Y-88073241D01*
X260041768Y-88073238D01*
X260008463Y-88058826D01*
X259997813Y-88053609D01*
X259959060Y-88032305D01*
X259939437Y-88027267D01*
X259920734Y-88020863D01*
X259909420Y-88015967D01*
X259909419Y-88015967D01*
X259902145Y-88012819D01*
X259894322Y-88011580D01*
X259894312Y-88011577D01*
X259858476Y-88005901D01*
X259846856Y-88003495D01*
X259811711Y-87994472D01*
X259811710Y-87994472D01*
X259804030Y-87992500D01*
X259783776Y-87992500D01*
X259764065Y-87990949D01*
X259751886Y-87989020D01*
X259744057Y-87987780D01*
X259714786Y-87990547D01*
X259700039Y-87991941D01*
X259688181Y-87992500D01*
X256638768Y-87992500D01*
X256627585Y-87991973D01*
X256620092Y-87990298D01*
X256612166Y-87990547D01*
X256612165Y-87990547D01*
X256552002Y-87992438D01*
X256548044Y-87992500D01*
X256520144Y-87992500D01*
X256516154Y-87993004D01*
X256504320Y-87993936D01*
X256460111Y-87995326D01*
X256452497Y-87997538D01*
X256452492Y-87997539D01*
X256440659Y-88000977D01*
X256421296Y-88004988D01*
X256401203Y-88007526D01*
X256393836Y-88010443D01*
X256393831Y-88010444D01*
X256360092Y-88023802D01*
X256348865Y-88027646D01*
X256306407Y-88039982D01*
X256299581Y-88044019D01*
X256288972Y-88050293D01*
X256271224Y-88058988D01*
X256252383Y-88066448D01*
X256245967Y-88071110D01*
X256245966Y-88071110D01*
X256216613Y-88092436D01*
X256206693Y-88098952D01*
X256175465Y-88117420D01*
X256175462Y-88117422D01*
X256168638Y-88121458D01*
X256154317Y-88135779D01*
X256139284Y-88148619D01*
X256122893Y-88160528D01*
X256109287Y-88176975D01*
X256094712Y-88194593D01*
X256086722Y-88203374D01*
X255639742Y-88650353D01*
X255631463Y-88657887D01*
X255624982Y-88662000D01*
X255606468Y-88681716D01*
X255578357Y-88711651D01*
X255575602Y-88714493D01*
X255555865Y-88734230D01*
X255553385Y-88737427D01*
X255545682Y-88746447D01*
X255515414Y-88778679D01*
X255511595Y-88785625D01*
X255511593Y-88785628D01*
X255505652Y-88796434D01*
X255494801Y-88812953D01*
X255482386Y-88828959D01*
X255479241Y-88836228D01*
X255479238Y-88836232D01*
X255464826Y-88869537D01*
X255459609Y-88880187D01*
X255438305Y-88918940D01*
X255436334Y-88926615D01*
X255436334Y-88926616D01*
X255433267Y-88938562D01*
X255426863Y-88957266D01*
X255418819Y-88975855D01*
X255417580Y-88983678D01*
X255417577Y-88983688D01*
X255411901Y-89019524D01*
X255409495Y-89031144D01*
X255402751Y-89057411D01*
X255398500Y-89073970D01*
X255398500Y-89094224D01*
X255396949Y-89113934D01*
X255393780Y-89133943D01*
X255394526Y-89141835D01*
X255397941Y-89177961D01*
X255398500Y-89189819D01*
X255398500Y-97475405D01*
X255378498Y-97543526D01*
X255361595Y-97564501D01*
X254928499Y-97997596D01*
X254866187Y-98031621D01*
X254839404Y-98034500D01*
X250379500Y-98034500D01*
X250311379Y-98014498D01*
X250264886Y-97960842D01*
X250253500Y-97908500D01*
X250253500Y-96905403D01*
X250273502Y-96837282D01*
X250327158Y-96790789D01*
X250397432Y-96780685D01*
X250432751Y-96791209D01*
X250439057Y-96794150D01*
X250587814Y-96843491D01*
X250601190Y-96846358D01*
X250692097Y-96855672D01*
X250698513Y-96856000D01*
X250721885Y-96856000D01*
X250737124Y-96851525D01*
X250738329Y-96850135D01*
X250740000Y-96842452D01*
X250740000Y-96837885D01*
X251248000Y-96837885D01*
X251252475Y-96853124D01*
X251253865Y-96854329D01*
X251261548Y-96856000D01*
X251289438Y-96856000D01*
X251295953Y-96855663D01*
X251388057Y-96846106D01*
X251401456Y-96843212D01*
X251550107Y-96793619D01*
X251563286Y-96787445D01*
X251696173Y-96705212D01*
X251707574Y-96696176D01*
X251817986Y-96585571D01*
X251826998Y-96574160D01*
X251909004Y-96441120D01*
X251915151Y-96427939D01*
X251964491Y-96279186D01*
X251967358Y-96265810D01*
X251976672Y-96174903D01*
X251976929Y-96169874D01*
X251972525Y-96154876D01*
X251971135Y-96153671D01*
X251963452Y-96152000D01*
X251266115Y-96152000D01*
X251250876Y-96156475D01*
X251249671Y-96157865D01*
X251248000Y-96165548D01*
X251248000Y-96837885D01*
X250740000Y-96837885D01*
X250740000Y-95770000D01*
X250760002Y-95701879D01*
X250813658Y-95655386D01*
X250866000Y-95644000D01*
X251958885Y-95644000D01*
X251974124Y-95639525D01*
X251975329Y-95638135D01*
X251977000Y-95630452D01*
X251977000Y-95627562D01*
X251976663Y-95621047D01*
X251967106Y-95528943D01*
X251964212Y-95515544D01*
X251914619Y-95366893D01*
X251908445Y-95353714D01*
X251826212Y-95220827D01*
X251812629Y-95203689D01*
X251814559Y-95202159D01*
X251786097Y-95150120D01*
X251791113Y-95079301D01*
X251814799Y-95042383D01*
X251813843Y-95041628D01*
X251818381Y-95035882D01*
X251823552Y-95030702D01*
X251871265Y-94953298D01*
X251909462Y-94891331D01*
X251909463Y-94891329D01*
X251913302Y-94885101D01*
X251967149Y-94722757D01*
X251977500Y-94621732D01*
X251977500Y-94074268D01*
X251966887Y-93971981D01*
X251948186Y-93915928D01*
X251915073Y-93816676D01*
X251915072Y-93816674D01*
X251912756Y-93809732D01*
X251894132Y-93779635D01*
X251826606Y-93670515D01*
X251822752Y-93664287D01*
X251813277Y-93654828D01*
X251706882Y-93548619D01*
X251701702Y-93543448D01*
X251636765Y-93503420D01*
X251562331Y-93457538D01*
X251562329Y-93457537D01*
X251556101Y-93453698D01*
X251549154Y-93451394D01*
X251542519Y-93448300D01*
X251543428Y-93446350D01*
X251493778Y-93411955D01*
X251466539Y-93346392D01*
X251471970Y-93293854D01*
X251485502Y-93252206D01*
X251487542Y-93245928D01*
X251488429Y-93237494D01*
X251506814Y-93062565D01*
X251507504Y-93056000D01*
X251502914Y-93012331D01*
X251488232Y-92872635D01*
X251488232Y-92872633D01*
X251487542Y-92866072D01*
X251428527Y-92684444D01*
X251419182Y-92668257D01*
X251336341Y-92524774D01*
X251333040Y-92519056D01*
X251284327Y-92464954D01*
X251209675Y-92382045D01*
X251209674Y-92382044D01*
X251205253Y-92377134D01*
X251106157Y-92305136D01*
X251056094Y-92268763D01*
X251056093Y-92268762D01*
X251050752Y-92264882D01*
X251044724Y-92262198D01*
X251044722Y-92262197D01*
X250882319Y-92189891D01*
X250882318Y-92189891D01*
X250876288Y-92187206D01*
X250780211Y-92166784D01*
X250695944Y-92148872D01*
X250695939Y-92148872D01*
X250689487Y-92147500D01*
X250498513Y-92147500D01*
X250492061Y-92148872D01*
X250492056Y-92148872D01*
X250438496Y-92160257D01*
X250405696Y-92167229D01*
X250334906Y-92161827D01*
X250278274Y-92119010D01*
X250253780Y-92052373D01*
X250253500Y-92043982D01*
X250253500Y-91846087D01*
X250273502Y-91777966D01*
X250327158Y-91731473D01*
X250397432Y-91721369D01*
X250411222Y-91724576D01*
X250411712Y-91724794D01*
X250443134Y-91731473D01*
X250592056Y-91763128D01*
X250592061Y-91763128D01*
X250598513Y-91764500D01*
X250789487Y-91764500D01*
X250795939Y-91763128D01*
X250795944Y-91763128D01*
X250905935Y-91739748D01*
X250976288Y-91724794D01*
X250986101Y-91720425D01*
X251144722Y-91649803D01*
X251144724Y-91649802D01*
X251150752Y-91647118D01*
X251193562Y-91616015D01*
X251219121Y-91597445D01*
X251305253Y-91534866D01*
X251327783Y-91509844D01*
X251428621Y-91397852D01*
X251428622Y-91397851D01*
X251433040Y-91392944D01*
X251522855Y-91237380D01*
X251525223Y-91233279D01*
X251525224Y-91233278D01*
X251528527Y-91227556D01*
X251587542Y-91045928D01*
X251589813Y-91024327D01*
X251606814Y-90862565D01*
X251607504Y-90856000D01*
X251596680Y-90753012D01*
X251588232Y-90672635D01*
X251588232Y-90672633D01*
X251587542Y-90666072D01*
X251528527Y-90484444D01*
X251520988Y-90471385D01*
X251457282Y-90361044D01*
X251433040Y-90319056D01*
X251373713Y-90253166D01*
X251309675Y-90182045D01*
X251309674Y-90182044D01*
X251305253Y-90177134D01*
X251227978Y-90120990D01*
X251194966Y-90097005D01*
X251151612Y-90040782D01*
X251143683Y-89982226D01*
X251144535Y-89973913D01*
X251146500Y-89954732D01*
X251146500Y-89357268D01*
X251135887Y-89254981D01*
X251081756Y-89092732D01*
X251084634Y-89091772D01*
X251075911Y-89035171D01*
X251104749Y-88970295D01*
X251136659Y-88943390D01*
X251168475Y-88924574D01*
X251237289Y-88907116D01*
X251304620Y-88929633D01*
X251341730Y-88970029D01*
X251354960Y-88992944D01*
X251359378Y-88997851D01*
X251359379Y-88997852D01*
X251477111Y-89128607D01*
X251482747Y-89134866D01*
X251492339Y-89141835D01*
X251613016Y-89229512D01*
X251637248Y-89247118D01*
X251643276Y-89249802D01*
X251643278Y-89249803D01*
X251798824Y-89319056D01*
X251811712Y-89324794D01*
X251902022Y-89343990D01*
X251992056Y-89363128D01*
X251992061Y-89363128D01*
X251998513Y-89364500D01*
X252189487Y-89364500D01*
X252195939Y-89363128D01*
X252195944Y-89363128D01*
X252285978Y-89343990D01*
X252376288Y-89324794D01*
X252389176Y-89319056D01*
X252544722Y-89249803D01*
X252544724Y-89249802D01*
X252550752Y-89247118D01*
X252574985Y-89229512D01*
X252695661Y-89141835D01*
X252705253Y-89134866D01*
X252710889Y-89128607D01*
X252828621Y-88997852D01*
X252828622Y-88997851D01*
X252833040Y-88992944D01*
X252896431Y-88883147D01*
X252925223Y-88833279D01*
X252925224Y-88833278D01*
X252928527Y-88827556D01*
X252987542Y-88645928D01*
X252989401Y-88628246D01*
X253006814Y-88462565D01*
X253007504Y-88456000D01*
X253002892Y-88412122D01*
X252988232Y-88272635D01*
X252988232Y-88272633D01*
X252987542Y-88266072D01*
X252928527Y-88084444D01*
X252913834Y-88058994D01*
X252876931Y-87995077D01*
X252833040Y-87919056D01*
X252705253Y-87777134D01*
X252550752Y-87664882D01*
X252544724Y-87662198D01*
X252544722Y-87662197D01*
X252382319Y-87589891D01*
X252382318Y-87589891D01*
X252376288Y-87587206D01*
X252282887Y-87567353D01*
X252195944Y-87548872D01*
X252195939Y-87548872D01*
X252189487Y-87547500D01*
X252133595Y-87547500D01*
X252065474Y-87527498D01*
X252044500Y-87510595D01*
X252035152Y-87501247D01*
X252027612Y-87492961D01*
X252023500Y-87486482D01*
X251973848Y-87439856D01*
X251971007Y-87437102D01*
X251951270Y-87417365D01*
X251948073Y-87414885D01*
X251939051Y-87407180D01*
X251912600Y-87382341D01*
X251906821Y-87376914D01*
X251899875Y-87373095D01*
X251899872Y-87373093D01*
X251889066Y-87367152D01*
X251872547Y-87356301D01*
X251872083Y-87355941D01*
X251856541Y-87343886D01*
X251849272Y-87340741D01*
X251849268Y-87340738D01*
X251815963Y-87326326D01*
X251805313Y-87321109D01*
X251766560Y-87299805D01*
X251746937Y-87294767D01*
X251728234Y-87288363D01*
X251716920Y-87283467D01*
X251716919Y-87283467D01*
X251709645Y-87280319D01*
X251701822Y-87279080D01*
X251701812Y-87279077D01*
X251665976Y-87273401D01*
X251654356Y-87270995D01*
X251619211Y-87261972D01*
X251619210Y-87261972D01*
X251611530Y-87260000D01*
X251591276Y-87260000D01*
X251571561Y-87258448D01*
X251558488Y-87256377D01*
X251494336Y-87225963D01*
X251456811Y-87165693D01*
X251452708Y-87139482D01*
X251452500Y-87139498D01*
X251450067Y-87108579D01*
X251450066Y-87108574D01*
X251449562Y-87102169D01*
X251411891Y-86972502D01*
X251405357Y-86950012D01*
X251405356Y-86950010D01*
X251403145Y-86942399D01*
X251354320Y-86859841D01*
X251322491Y-86806020D01*
X251322489Y-86806017D01*
X251318453Y-86799193D01*
X251200807Y-86681547D01*
X251193983Y-86677511D01*
X251193980Y-86677509D01*
X251064427Y-86600892D01*
X251064428Y-86600892D01*
X251057601Y-86596855D01*
X251049990Y-86594644D01*
X251049988Y-86594643D01*
X250967209Y-86570594D01*
X250897831Y-86550438D01*
X250891426Y-86549934D01*
X250891421Y-86549933D01*
X250862958Y-86547693D01*
X250862950Y-86547693D01*
X250860502Y-86547500D01*
X250628500Y-86547500D01*
X250560379Y-86527498D01*
X250513886Y-86473842D01*
X250502500Y-86421500D01*
X250502500Y-85264498D01*
X250502307Y-85262042D01*
X250500067Y-85233579D01*
X250500066Y-85233574D01*
X250499562Y-85227169D01*
X250453145Y-85067399D01*
X250436107Y-85038589D01*
X250372491Y-84931020D01*
X250372489Y-84931017D01*
X250368453Y-84924193D01*
X250250807Y-84806547D01*
X250243983Y-84802511D01*
X250243980Y-84802509D01*
X250114427Y-84725892D01*
X250114428Y-84725892D01*
X250107601Y-84721855D01*
X250099990Y-84719644D01*
X250099988Y-84719643D01*
X250006449Y-84692468D01*
X249947831Y-84675438D01*
X249941426Y-84674934D01*
X249941421Y-84674933D01*
X249912958Y-84672693D01*
X249912950Y-84672693D01*
X249910502Y-84672500D01*
X249477498Y-84672500D01*
X249475050Y-84672693D01*
X249475042Y-84672693D01*
X249446579Y-84674933D01*
X249446574Y-84674934D01*
X249440169Y-84675438D01*
X249381551Y-84692468D01*
X249288012Y-84719643D01*
X249288010Y-84719644D01*
X249280399Y-84721855D01*
X249273572Y-84725892D01*
X249273573Y-84725892D01*
X249144020Y-84802509D01*
X249144017Y-84802511D01*
X249137193Y-84806547D01*
X249019547Y-84924193D01*
X249015511Y-84931017D01*
X249015509Y-84931020D01*
X248951893Y-85038589D01*
X248934855Y-85067399D01*
X248888438Y-85227169D01*
X248887934Y-85233576D01*
X248887933Y-85233580D01*
X248885998Y-85258175D01*
X248860713Y-85324517D01*
X248803576Y-85366658D01*
X248732726Y-85371217D01*
X248671291Y-85337386D01*
X248035152Y-84701247D01*
X248027612Y-84692961D01*
X248023500Y-84686482D01*
X248011202Y-84674933D01*
X247973849Y-84639857D01*
X247971007Y-84637102D01*
X247954834Y-84620929D01*
X247920808Y-84558617D01*
X247918602Y-84544840D01*
X247917371Y-84532978D01*
X247916526Y-84524834D01*
X247860550Y-84357054D01*
X247767478Y-84206652D01*
X247642303Y-84081695D01*
X247636072Y-84077854D01*
X247497968Y-83992725D01*
X247497966Y-83992724D01*
X247491738Y-83988885D01*
X247331254Y-83935655D01*
X247330389Y-83935368D01*
X247330387Y-83935368D01*
X247323861Y-83933203D01*
X247317025Y-83932503D01*
X247317022Y-83932502D01*
X247273969Y-83928091D01*
X247219400Y-83922500D01*
X244968600Y-83922500D01*
X244965354Y-83922837D01*
X244965350Y-83922837D01*
X244869692Y-83932762D01*
X244869688Y-83932763D01*
X244862834Y-83933474D01*
X244856298Y-83935655D01*
X244856296Y-83935655D01*
X244724194Y-83979728D01*
X244695054Y-83989450D01*
X244544652Y-84082522D01*
X244419695Y-84207697D01*
X244326885Y-84358262D01*
X244271203Y-84526139D01*
X244260500Y-84630600D01*
X244260500Y-85356400D01*
X244271474Y-85462166D01*
X244327450Y-85629946D01*
X244420522Y-85780348D01*
X244545697Y-85905305D01*
X244696262Y-85998115D01*
X244768361Y-86022029D01*
X244857611Y-86051632D01*
X244857613Y-86051632D01*
X244864139Y-86053797D01*
X244870975Y-86054497D01*
X244870978Y-86054498D01*
X244914031Y-86058909D01*
X244968600Y-86064500D01*
X247219400Y-86064500D01*
X247222646Y-86064163D01*
X247222650Y-86064163D01*
X247318308Y-86054238D01*
X247318312Y-86054237D01*
X247325166Y-86053526D01*
X247331702Y-86051345D01*
X247331704Y-86051345D01*
X247430445Y-86018402D01*
X247454073Y-86010519D01*
X247525022Y-86007935D01*
X247583044Y-86040948D01*
X248023595Y-86481499D01*
X248057621Y-86543811D01*
X248060500Y-86570594D01*
X248060500Y-86780022D01*
X248042953Y-86844161D01*
X248040683Y-86848000D01*
X247984855Y-86942399D01*
X247982644Y-86950010D01*
X247982643Y-86950012D01*
X247952585Y-87053474D01*
X247914372Y-87113309D01*
X247849876Y-87142987D01*
X247779574Y-87133084D01*
X247742570Y-87107494D01*
X247647171Y-87012261D01*
X247635760Y-87003249D01*
X247497757Y-86918184D01*
X247484576Y-86912037D01*
X247330290Y-86860862D01*
X247316914Y-86857995D01*
X247222562Y-86848328D01*
X247216145Y-86848000D01*
X246366115Y-86848000D01*
X246350876Y-86852475D01*
X246349671Y-86853865D01*
X246348000Y-86861548D01*
X246348000Y-88046500D01*
X246327998Y-88114621D01*
X246274342Y-88161114D01*
X246222000Y-88172500D01*
X244279116Y-88172500D01*
X244263877Y-88176975D01*
X244262672Y-88178365D01*
X244261001Y-88186048D01*
X244261001Y-88278095D01*
X244261338Y-88284614D01*
X244271257Y-88380206D01*
X244274149Y-88393600D01*
X244325588Y-88547784D01*
X244331762Y-88560963D01*
X244406486Y-88681716D01*
X244425324Y-88750168D01*
X244404163Y-88817938D01*
X244388515Y-88837037D01*
X244320218Y-88905453D01*
X244277448Y-88948298D01*
X244275450Y-88946303D01*
X244228089Y-88979865D01*
X244160956Y-88983947D01*
X243995944Y-88948872D01*
X243995939Y-88948872D01*
X243989487Y-88947500D01*
X243798513Y-88947500D01*
X243792061Y-88948872D01*
X243792056Y-88948872D01*
X243708392Y-88966656D01*
X243611712Y-88987206D01*
X243605682Y-88989891D01*
X243605681Y-88989891D01*
X243443278Y-89062197D01*
X243443276Y-89062198D01*
X243437248Y-89064882D01*
X243431907Y-89068762D01*
X243431906Y-89068763D01*
X243411020Y-89083938D01*
X243282747Y-89177134D01*
X243278326Y-89182044D01*
X243278325Y-89182045D01*
X243162224Y-89310989D01*
X243154960Y-89319056D01*
X243081942Y-89445528D01*
X243081937Y-89445536D01*
X243030555Y-89494529D01*
X242960841Y-89507965D01*
X242894930Y-89481579D01*
X242883723Y-89471631D01*
X242411923Y-88999830D01*
X241839840Y-88427747D01*
X241832300Y-88419461D01*
X241828188Y-88412982D01*
X241816513Y-88402018D01*
X241778537Y-88366357D01*
X241775695Y-88363602D01*
X241755958Y-88343865D01*
X241752761Y-88341385D01*
X241743739Y-88333680D01*
X241717288Y-88308841D01*
X241711509Y-88303414D01*
X241704563Y-88299595D01*
X241704560Y-88299593D01*
X241693754Y-88293652D01*
X241677235Y-88282801D01*
X241676771Y-88282441D01*
X241661229Y-88270386D01*
X241653960Y-88267241D01*
X241653956Y-88267238D01*
X241620651Y-88252826D01*
X241610001Y-88247609D01*
X241571248Y-88226305D01*
X241551625Y-88221267D01*
X241532922Y-88214863D01*
X241521608Y-88209967D01*
X241521607Y-88209967D01*
X241514333Y-88206819D01*
X241506510Y-88205580D01*
X241506500Y-88205577D01*
X241470664Y-88199901D01*
X241459044Y-88197495D01*
X241423899Y-88188472D01*
X241423898Y-88188472D01*
X241416218Y-88186500D01*
X241395964Y-88186500D01*
X241376253Y-88184949D01*
X241364074Y-88183020D01*
X241356245Y-88181780D01*
X241348353Y-88182526D01*
X241312227Y-88185941D01*
X241300369Y-88186500D01*
X238232595Y-88186500D01*
X238164474Y-88166498D01*
X238143500Y-88149595D01*
X237640290Y-87646385D01*
X244261000Y-87646385D01*
X244265475Y-87661624D01*
X244266865Y-87662829D01*
X244274548Y-87664500D01*
X245821885Y-87664500D01*
X245837124Y-87660025D01*
X245838329Y-87658635D01*
X245840000Y-87650952D01*
X245840000Y-86866116D01*
X245835525Y-86850877D01*
X245834135Y-86849672D01*
X245826452Y-86848001D01*
X244971905Y-86848001D01*
X244965386Y-86848338D01*
X244869794Y-86858257D01*
X244856400Y-86861149D01*
X244702216Y-86912588D01*
X244689038Y-86918761D01*
X244551193Y-87004063D01*
X244539792Y-87013099D01*
X244425261Y-87127829D01*
X244416249Y-87139240D01*
X244331184Y-87277243D01*
X244325037Y-87290424D01*
X244273862Y-87444710D01*
X244270995Y-87458086D01*
X244261328Y-87552438D01*
X244261000Y-87558855D01*
X244261000Y-87646385D01*
X237640290Y-87646385D01*
X236972652Y-86978747D01*
X236965112Y-86970461D01*
X236961000Y-86963982D01*
X236911348Y-86917356D01*
X236908507Y-86914602D01*
X236888770Y-86894865D01*
X236885573Y-86892385D01*
X236876551Y-86884680D01*
X236850100Y-86859841D01*
X236844321Y-86854414D01*
X236837375Y-86850595D01*
X236837372Y-86850593D01*
X236826566Y-86844652D01*
X236810047Y-86833801D01*
X236809583Y-86833441D01*
X236794041Y-86821386D01*
X236786772Y-86818241D01*
X236786768Y-86818238D01*
X236753463Y-86803826D01*
X236742813Y-86798609D01*
X236704060Y-86777305D01*
X236684437Y-86772267D01*
X236665734Y-86765863D01*
X236654420Y-86760967D01*
X236654419Y-86760967D01*
X236647145Y-86757819D01*
X236639322Y-86756580D01*
X236639312Y-86756577D01*
X236603476Y-86750901D01*
X236591856Y-86748495D01*
X236556711Y-86739472D01*
X236556710Y-86739472D01*
X236549030Y-86737500D01*
X236528776Y-86737500D01*
X236509065Y-86735949D01*
X236496886Y-86734020D01*
X236489057Y-86732780D01*
X236459786Y-86735547D01*
X236445039Y-86736941D01*
X236433181Y-86737500D01*
X229576500Y-86737500D01*
X229508379Y-86717498D01*
X229461886Y-86663842D01*
X229450500Y-86611500D01*
X229450500Y-86472866D01*
X229443745Y-86410684D01*
X229392615Y-86274295D01*
X229305261Y-86157739D01*
X229188705Y-86070385D01*
X229052316Y-86019255D01*
X228990134Y-86012500D01*
X227193866Y-86012500D01*
X227131684Y-86019255D01*
X226995295Y-86070385D01*
X226878739Y-86157739D01*
X226791385Y-86274295D01*
X226740255Y-86410684D01*
X226733500Y-86472866D01*
X226733500Y-86611500D01*
X226713498Y-86679621D01*
X226659842Y-86726114D01*
X226607500Y-86737500D01*
X224873767Y-86737500D01*
X224862584Y-86736973D01*
X224855091Y-86735298D01*
X224847165Y-86735547D01*
X224847164Y-86735547D01*
X224787014Y-86737438D01*
X224783055Y-86737500D01*
X224755144Y-86737500D01*
X224751210Y-86737997D01*
X224751209Y-86737997D01*
X224751144Y-86738005D01*
X224739307Y-86738938D01*
X224695111Y-86740327D01*
X224691275Y-86741441D01*
X224677823Y-86742500D01*
X223720200Y-86742500D01*
X223652079Y-86722498D01*
X223632853Y-86706157D01*
X223632580Y-86706460D01*
X223627668Y-86702037D01*
X223623253Y-86697134D01*
X223577431Y-86663842D01*
X223474094Y-86588763D01*
X223474093Y-86588762D01*
X223468752Y-86584882D01*
X223462724Y-86582198D01*
X223462722Y-86582197D01*
X223300319Y-86509891D01*
X223300318Y-86509891D01*
X223294288Y-86507206D01*
X223173347Y-86481499D01*
X223113944Y-86468872D01*
X223113939Y-86468872D01*
X223107487Y-86467500D01*
X222916513Y-86467500D01*
X222910061Y-86468872D01*
X222910056Y-86468872D01*
X222850653Y-86481499D01*
X222729712Y-86507206D01*
X222723682Y-86509891D01*
X222723681Y-86509891D01*
X222561278Y-86582197D01*
X222561276Y-86582198D01*
X222555248Y-86584882D01*
X222549907Y-86588762D01*
X222549906Y-86588763D01*
X222533212Y-86600892D01*
X222400747Y-86697134D01*
X222396326Y-86702044D01*
X222396325Y-86702045D01*
X222277692Y-86833801D01*
X222272960Y-86839056D01*
X222177473Y-87004444D01*
X222118458Y-87186072D01*
X222117768Y-87192633D01*
X222117768Y-87192635D01*
X222111184Y-87255280D01*
X222098496Y-87376000D01*
X222099186Y-87382565D01*
X222117715Y-87558855D01*
X222118458Y-87565928D01*
X222177473Y-87747556D01*
X222272960Y-87912944D01*
X222277378Y-87917851D01*
X222277379Y-87917852D01*
X222372777Y-88023802D01*
X222400747Y-88054866D01*
X222475826Y-88109414D01*
X222546178Y-88160528D01*
X222555248Y-88167118D01*
X222561276Y-88169802D01*
X222561278Y-88169803D01*
X222704886Y-88233741D01*
X222729712Y-88244794D01*
X222823112Y-88264647D01*
X222910056Y-88283128D01*
X222910061Y-88283128D01*
X222916513Y-88284500D01*
X223107487Y-88284500D01*
X223113939Y-88283128D01*
X223113944Y-88283128D01*
X223200888Y-88264647D01*
X223294288Y-88244794D01*
X223319114Y-88233741D01*
X223462722Y-88169803D01*
X223462724Y-88169802D01*
X223468752Y-88167118D01*
X223477823Y-88160528D01*
X223617803Y-88058826D01*
X223623253Y-88054866D01*
X223627668Y-88049963D01*
X223632580Y-88045540D01*
X223633705Y-88046789D01*
X223687014Y-88013949D01*
X223720200Y-88009500D01*
X224711233Y-88009500D01*
X224722416Y-88010027D01*
X224729909Y-88011702D01*
X224737835Y-88011453D01*
X224737836Y-88011453D01*
X224797986Y-88009562D01*
X224801945Y-88009500D01*
X224829856Y-88009500D01*
X224833791Y-88009003D01*
X224833856Y-88008995D01*
X224845693Y-88008062D01*
X224889889Y-88006673D01*
X224893725Y-88005559D01*
X224907177Y-88004500D01*
X226607500Y-88004500D01*
X226675621Y-88024502D01*
X226722114Y-88078158D01*
X226733500Y-88130500D01*
X226733500Y-88269134D01*
X226740255Y-88331316D01*
X226791385Y-88467705D01*
X226878739Y-88584261D01*
X226995295Y-88671615D01*
X227003704Y-88674767D01*
X227003705Y-88674768D01*
X227112451Y-88715535D01*
X227169216Y-88758176D01*
X227193916Y-88824738D01*
X227178709Y-88894087D01*
X227159316Y-88920568D01*
X227059147Y-89025389D01*
X227032629Y-89053138D01*
X227029715Y-89057410D01*
X227029714Y-89057411D01*
X226917095Y-89222504D01*
X226862184Y-89267507D01*
X226813007Y-89277500D01*
X220809767Y-89277500D01*
X220798584Y-89276973D01*
X220791091Y-89275298D01*
X220783165Y-89275547D01*
X220783164Y-89275547D01*
X220723014Y-89277438D01*
X220719055Y-89277500D01*
X220691144Y-89277500D01*
X220687210Y-89277997D01*
X220687209Y-89277997D01*
X220687144Y-89278005D01*
X220675307Y-89278938D01*
X220643490Y-89279938D01*
X220639029Y-89280078D01*
X220631110Y-89280327D01*
X220620653Y-89283365D01*
X220611658Y-89285978D01*
X220592306Y-89289986D01*
X220589916Y-89290288D01*
X220572203Y-89292526D01*
X220564834Y-89295443D01*
X220564832Y-89295444D01*
X220531097Y-89308800D01*
X220519869Y-89312645D01*
X220477407Y-89324982D01*
X220470585Y-89329016D01*
X220470579Y-89329019D01*
X220459968Y-89335294D01*
X220442218Y-89343990D01*
X220430756Y-89348528D01*
X220430751Y-89348531D01*
X220423383Y-89351448D01*
X220410877Y-89360534D01*
X220387625Y-89377427D01*
X220377707Y-89383943D01*
X220369407Y-89388852D01*
X220339637Y-89406458D01*
X220325313Y-89420782D01*
X220310281Y-89433621D01*
X220293893Y-89445528D01*
X220268768Y-89475899D01*
X220265712Y-89479593D01*
X220257722Y-89488373D01*
X214150500Y-95595595D01*
X214088188Y-95629621D01*
X214061405Y-95632500D01*
X202244594Y-95632500D01*
X202176473Y-95612498D01*
X202155499Y-95595595D01*
X200822405Y-94262500D01*
X200788379Y-94200188D01*
X200785500Y-94173405D01*
X200785500Y-93320000D01*
X200805502Y-93251879D01*
X200859158Y-93205386D01*
X200911500Y-93194000D01*
X201318502Y-93194000D01*
X201320950Y-93193807D01*
X201320958Y-93193807D01*
X201349421Y-93191567D01*
X201349426Y-93191566D01*
X201355831Y-93191062D01*
X201506762Y-93147213D01*
X201577759Y-93147416D01*
X201615976Y-93166274D01*
X201714002Y-93237494D01*
X201727248Y-93247118D01*
X201733276Y-93249802D01*
X201733278Y-93249803D01*
X201860600Y-93306490D01*
X201901712Y-93324794D01*
X201995113Y-93344647D01*
X202082056Y-93363128D01*
X202082061Y-93363128D01*
X202088513Y-93364500D01*
X202279487Y-93364500D01*
X202285939Y-93363128D01*
X202285944Y-93363128D01*
X202372887Y-93344647D01*
X202466288Y-93324794D01*
X202507400Y-93306490D01*
X202634722Y-93249803D01*
X202634724Y-93249802D01*
X202640752Y-93247118D01*
X202671794Y-93224565D01*
X202746342Y-93170402D01*
X202795253Y-93134866D01*
X202848743Y-93075460D01*
X202909188Y-93038221D01*
X202980172Y-93039573D01*
X203039156Y-93079087D01*
X203065370Y-93141118D01*
X203066394Y-93140900D01*
X203067523Y-93146212D01*
X203067688Y-93146602D01*
X203068458Y-93153928D01*
X203127473Y-93335556D01*
X203130776Y-93341278D01*
X203130777Y-93341279D01*
X203158252Y-93388866D01*
X203222960Y-93500944D01*
X203227378Y-93505851D01*
X203227379Y-93505852D01*
X203333136Y-93623307D01*
X203350747Y-93642866D01*
X203428094Y-93699062D01*
X203497516Y-93749500D01*
X203505248Y-93755118D01*
X203511276Y-93757802D01*
X203511278Y-93757803D01*
X203667947Y-93827556D01*
X203679712Y-93832794D01*
X203756016Y-93849013D01*
X203860056Y-93871128D01*
X203860061Y-93871128D01*
X203866513Y-93872500D01*
X204057487Y-93872500D01*
X204063939Y-93871128D01*
X204063944Y-93871128D01*
X204167984Y-93849013D01*
X204244288Y-93832794D01*
X204256053Y-93827556D01*
X204412722Y-93757803D01*
X204412724Y-93757802D01*
X204418752Y-93755118D01*
X204426485Y-93749500D01*
X204495906Y-93699062D01*
X204573253Y-93642866D01*
X204590864Y-93623307D01*
X204696621Y-93505852D01*
X204696622Y-93505851D01*
X204701040Y-93500944D01*
X204765748Y-93388866D01*
X204793223Y-93341279D01*
X204793224Y-93341278D01*
X204796527Y-93335556D01*
X204855542Y-93153928D01*
X204856417Y-93145608D01*
X204874814Y-92970565D01*
X204875504Y-92964000D01*
X204865901Y-92872635D01*
X204856232Y-92780635D01*
X204856232Y-92780633D01*
X204855542Y-92774072D01*
X204796527Y-92592444D01*
X204762755Y-92533949D01*
X204746017Y-92464954D01*
X204764614Y-92404834D01*
X204811460Y-92328835D01*
X204811462Y-92328830D01*
X204815302Y-92322601D01*
X204869149Y-92160257D01*
X204869908Y-92152856D01*
X204877935Y-92074507D01*
X204879500Y-92059232D01*
X204879500Y-91511768D01*
X204879128Y-91508176D01*
X204871234Y-91432101D01*
X204868887Y-91409481D01*
X204852521Y-91360427D01*
X204817073Y-91254176D01*
X204817072Y-91254174D01*
X204814756Y-91247232D01*
X204808660Y-91237380D01*
X204728606Y-91108015D01*
X204724752Y-91101787D01*
X204719570Y-91096614D01*
X204715023Y-91090877D01*
X204716830Y-91089445D01*
X204688098Y-91036925D01*
X204693108Y-90966105D01*
X204716499Y-90929647D01*
X204715448Y-90928817D01*
X204728998Y-90911660D01*
X204811004Y-90778620D01*
X204817151Y-90765439D01*
X204866491Y-90616686D01*
X204869358Y-90603310D01*
X204878672Y-90512403D01*
X204878929Y-90507374D01*
X204874525Y-90492376D01*
X204873135Y-90491171D01*
X204865452Y-90489500D01*
X202986000Y-90489500D01*
X202917879Y-90469498D01*
X202871386Y-90415842D01*
X202860000Y-90363500D01*
X202860000Y-90345115D01*
X202855525Y-90329876D01*
X202854135Y-90328671D01*
X202846452Y-90327000D01*
X201262116Y-90327000D01*
X201246877Y-90331475D01*
X201245672Y-90332865D01*
X201244001Y-90340548D01*
X201244001Y-90576000D01*
X201223999Y-90644121D01*
X201170343Y-90690614D01*
X201118001Y-90702000D01*
X201086500Y-90702000D01*
X201018379Y-90681998D01*
X200971886Y-90628342D01*
X200960500Y-90576000D01*
X200960500Y-89800885D01*
X201244000Y-89800885D01*
X201248475Y-89816124D01*
X201249865Y-89817329D01*
X201257548Y-89819000D01*
X201779885Y-89819000D01*
X201795124Y-89814525D01*
X201796329Y-89813135D01*
X201798000Y-89805452D01*
X201798000Y-89800885D01*
X202306000Y-89800885D01*
X202310475Y-89816124D01*
X202311865Y-89817329D01*
X202319548Y-89819000D01*
X202788061Y-89819000D01*
X202856182Y-89839002D01*
X202902675Y-89892658D01*
X202912996Y-89955357D01*
X202913492Y-89955382D01*
X202913376Y-89957660D01*
X202913405Y-89957839D01*
X202913328Y-89958589D01*
X202913071Y-89963626D01*
X202917475Y-89978624D01*
X202918865Y-89979829D01*
X202926548Y-89981500D01*
X203623885Y-89981500D01*
X203639124Y-89977025D01*
X203640329Y-89975635D01*
X203642000Y-89967952D01*
X203642000Y-89963385D01*
X204150000Y-89963385D01*
X204154475Y-89978624D01*
X204155865Y-89979829D01*
X204163548Y-89981500D01*
X204860885Y-89981500D01*
X204876124Y-89977025D01*
X204877329Y-89975635D01*
X204879000Y-89967952D01*
X204879000Y-89965062D01*
X204878663Y-89958547D01*
X204869106Y-89866443D01*
X204866212Y-89853044D01*
X204816619Y-89704393D01*
X204810445Y-89691214D01*
X204728212Y-89558327D01*
X204719176Y-89546926D01*
X204608571Y-89436514D01*
X204597160Y-89427502D01*
X204464120Y-89345496D01*
X204450939Y-89339349D01*
X204302186Y-89290009D01*
X204288810Y-89287142D01*
X204197903Y-89277828D01*
X204191486Y-89277500D01*
X204168115Y-89277500D01*
X204152876Y-89281975D01*
X204151671Y-89283365D01*
X204150000Y-89291048D01*
X204150000Y-89963385D01*
X203642000Y-89963385D01*
X203642000Y-89295615D01*
X203637525Y-89280376D01*
X203636135Y-89279171D01*
X203628452Y-89277500D01*
X203600562Y-89277500D01*
X203594047Y-89277837D01*
X203501943Y-89287394D01*
X203488544Y-89290288D01*
X203339893Y-89339881D01*
X203326714Y-89346055D01*
X203193827Y-89428288D01*
X203182426Y-89437324D01*
X203075172Y-89544765D01*
X203012889Y-89578844D01*
X202942069Y-89573841D01*
X202885197Y-89531344D01*
X202860328Y-89464845D01*
X202859999Y-89455747D01*
X202859999Y-89421517D01*
X202859805Y-89416580D01*
X202857570Y-89388164D01*
X202855270Y-89375569D01*
X202812893Y-89229710D01*
X202806648Y-89215279D01*
X202730089Y-89085822D01*
X202720449Y-89073396D01*
X202614104Y-88967051D01*
X202601678Y-88957411D01*
X202472221Y-88880852D01*
X202457790Y-88874607D01*
X202323395Y-88835561D01*
X202309294Y-88835601D01*
X202306000Y-88842870D01*
X202306000Y-89800885D01*
X201798000Y-89800885D01*
X201798000Y-88848622D01*
X201794027Y-88835091D01*
X201786129Y-88833956D01*
X201646210Y-88874607D01*
X201631779Y-88880852D01*
X201502322Y-88957411D01*
X201489896Y-88967051D01*
X201383551Y-89073396D01*
X201373911Y-89085822D01*
X201297352Y-89215279D01*
X201291107Y-89229710D01*
X201248731Y-89375565D01*
X201246430Y-89388167D01*
X201244193Y-89416584D01*
X201244000Y-89421514D01*
X201244000Y-89800885D01*
X200960500Y-89800885D01*
X200960500Y-89418998D01*
X200960296Y-89416404D01*
X200958067Y-89388079D01*
X200958066Y-89388074D01*
X200957562Y-89381669D01*
X200924395Y-89267507D01*
X200913357Y-89229512D01*
X200913356Y-89229510D01*
X200911145Y-89221899D01*
X200859674Y-89134866D01*
X200830491Y-89085520D01*
X200830489Y-89085517D01*
X200826453Y-89078693D01*
X200708807Y-88961047D01*
X200701983Y-88957011D01*
X200701980Y-88957009D01*
X200591438Y-88891635D01*
X200565601Y-88876355D01*
X200557990Y-88874144D01*
X200557988Y-88874143D01*
X200505769Y-88858972D01*
X200405831Y-88829938D01*
X200399426Y-88829434D01*
X200399421Y-88829433D01*
X200370958Y-88827193D01*
X200370950Y-88827193D01*
X200368502Y-88827000D01*
X199935498Y-88827000D01*
X199933050Y-88827193D01*
X199933042Y-88827193D01*
X199904579Y-88829433D01*
X199904574Y-88829434D01*
X199898169Y-88829938D01*
X199798231Y-88858972D01*
X199746012Y-88874143D01*
X199746010Y-88874144D01*
X199738399Y-88876355D01*
X199712562Y-88891635D01*
X199602020Y-88957009D01*
X199602017Y-88957011D01*
X199595193Y-88961047D01*
X199477547Y-89078693D01*
X199473511Y-89085517D01*
X199473509Y-89085520D01*
X199444326Y-89134866D01*
X199392855Y-89221899D01*
X199390644Y-89229510D01*
X199390643Y-89229512D01*
X199379605Y-89267507D01*
X199346438Y-89381669D01*
X199345934Y-89388074D01*
X199345933Y-89388079D01*
X199343704Y-89416404D01*
X199343500Y-89418998D01*
X199343500Y-90727002D01*
X199343693Y-90729450D01*
X199343693Y-90729458D01*
X199345822Y-90756500D01*
X199346438Y-90764331D01*
X199367652Y-90837351D01*
X199389241Y-90911660D01*
X199392855Y-90924101D01*
X199396892Y-90930927D01*
X199473509Y-91060480D01*
X199473511Y-91060483D01*
X199477547Y-91067307D01*
X199483155Y-91072915D01*
X199488011Y-91079175D01*
X199486504Y-91080344D01*
X199515621Y-91133667D01*
X199518500Y-91160450D01*
X199518500Y-94409233D01*
X199517973Y-94420416D01*
X199516298Y-94427909D01*
X199516547Y-94435835D01*
X199516547Y-94435836D01*
X199518438Y-94495986D01*
X199518500Y-94499945D01*
X199518500Y-94527856D01*
X199518997Y-94531790D01*
X199518997Y-94531791D01*
X199519005Y-94531856D01*
X199519938Y-94543693D01*
X199521327Y-94587889D01*
X199523732Y-94596166D01*
X199526978Y-94607339D01*
X199530987Y-94626700D01*
X199533526Y-94646797D01*
X199536445Y-94654168D01*
X199536445Y-94654170D01*
X199549804Y-94687912D01*
X199553649Y-94699142D01*
X199565982Y-94741593D01*
X199570015Y-94748412D01*
X199570017Y-94748417D01*
X199576293Y-94759028D01*
X199584988Y-94776776D01*
X199592448Y-94795617D01*
X199597110Y-94802033D01*
X199597110Y-94802034D01*
X199618436Y-94831387D01*
X199624952Y-94841307D01*
X199647458Y-94879362D01*
X199661779Y-94893683D01*
X199674619Y-94908716D01*
X199686528Y-94925107D01*
X199720605Y-94953298D01*
X199729384Y-94961288D01*
X201426343Y-96658247D01*
X201433887Y-96666537D01*
X201438000Y-96673018D01*
X201443777Y-96678443D01*
X201487667Y-96719658D01*
X201490509Y-96722413D01*
X201510231Y-96742135D01*
X201513373Y-96744572D01*
X201513433Y-96744619D01*
X201522445Y-96752317D01*
X201535878Y-96764931D01*
X201554679Y-96782586D01*
X201570365Y-96791209D01*
X201572431Y-96792345D01*
X201588953Y-96803198D01*
X201604959Y-96815614D01*
X201612237Y-96818764D01*
X201612238Y-96818764D01*
X201645537Y-96833174D01*
X201656187Y-96838391D01*
X201694940Y-96859695D01*
X201702615Y-96861666D01*
X201702616Y-96861666D01*
X201714562Y-96864733D01*
X201733267Y-96871137D01*
X201751855Y-96879181D01*
X201759678Y-96880420D01*
X201759688Y-96880423D01*
X201795524Y-96886099D01*
X201807144Y-96888505D01*
X201836139Y-96895949D01*
X201849970Y-96899500D01*
X201870224Y-96899500D01*
X201889934Y-96901051D01*
X201909943Y-96904220D01*
X201917835Y-96903474D01*
X201936580Y-96901702D01*
X201953962Y-96900059D01*
X201965819Y-96899500D01*
X214297233Y-96899500D01*
X214308416Y-96900027D01*
X214315909Y-96901702D01*
X214323835Y-96901453D01*
X214323836Y-96901453D01*
X214383986Y-96899562D01*
X214387945Y-96899500D01*
X214415856Y-96899500D01*
X214419791Y-96899003D01*
X214419856Y-96898995D01*
X214431693Y-96898062D01*
X214467365Y-96896941D01*
X214467970Y-96896922D01*
X214475889Y-96896673D01*
X214495343Y-96891021D01*
X214514700Y-96887013D01*
X214526930Y-96885468D01*
X214526931Y-96885468D01*
X214534797Y-96884474D01*
X214542168Y-96881555D01*
X214542170Y-96881555D01*
X214575912Y-96868196D01*
X214587142Y-96864351D01*
X214621983Y-96854229D01*
X214621984Y-96854229D01*
X214629593Y-96852018D01*
X214636412Y-96847985D01*
X214636417Y-96847983D01*
X214647028Y-96841707D01*
X214664776Y-96833012D01*
X214683617Y-96825552D01*
X214719387Y-96799564D01*
X214729307Y-96793048D01*
X214760535Y-96774580D01*
X214760538Y-96774578D01*
X214767362Y-96770542D01*
X214781683Y-96756221D01*
X214796717Y-96743380D01*
X214798702Y-96741938D01*
X214813107Y-96731472D01*
X214841298Y-96697395D01*
X214849288Y-96688616D01*
X220956499Y-90581405D01*
X221018811Y-90547379D01*
X221045594Y-90544500D01*
X226816274Y-90544500D01*
X226884395Y-90564502D01*
X226923707Y-90604665D01*
X226991987Y-90716088D01*
X226995367Y-90719990D01*
X227006352Y-90732671D01*
X227138250Y-90884938D01*
X227310126Y-91027632D01*
X227365822Y-91060178D01*
X227383445Y-91070476D01*
X227432169Y-91122114D01*
X227445240Y-91191897D01*
X227418509Y-91257669D01*
X227378055Y-91291027D01*
X227365607Y-91297507D01*
X227361474Y-91300610D01*
X227361471Y-91300612D01*
X227191100Y-91428530D01*
X227186965Y-91431635D01*
X227179997Y-91438927D01*
X227038238Y-91587269D01*
X227032629Y-91593138D01*
X227029715Y-91597410D01*
X227029714Y-91597411D01*
X226917095Y-91762504D01*
X226862184Y-91807507D01*
X226813007Y-91817500D01*
X220809767Y-91817500D01*
X220798584Y-91816973D01*
X220791091Y-91815298D01*
X220783165Y-91815547D01*
X220783164Y-91815547D01*
X220723014Y-91817438D01*
X220719055Y-91817500D01*
X220691144Y-91817500D01*
X220687210Y-91817997D01*
X220687209Y-91817997D01*
X220687144Y-91818005D01*
X220675307Y-91818938D01*
X220643490Y-91819938D01*
X220639029Y-91820078D01*
X220631110Y-91820327D01*
X220619634Y-91823661D01*
X220611658Y-91825978D01*
X220592306Y-91829986D01*
X220585235Y-91830880D01*
X220572203Y-91832526D01*
X220564834Y-91835443D01*
X220564832Y-91835444D01*
X220531097Y-91848800D01*
X220519869Y-91852645D01*
X220477407Y-91864982D01*
X220470585Y-91869016D01*
X220470579Y-91869019D01*
X220459968Y-91875294D01*
X220442218Y-91883990D01*
X220430756Y-91888528D01*
X220430751Y-91888531D01*
X220423383Y-91891448D01*
X220409733Y-91901365D01*
X220387625Y-91917427D01*
X220377707Y-91923943D01*
X220374936Y-91925582D01*
X220339637Y-91946458D01*
X220325313Y-91960782D01*
X220310281Y-91973621D01*
X220293893Y-91985528D01*
X220268256Y-92016518D01*
X220265712Y-92019593D01*
X220257722Y-92028373D01*
X203736500Y-108549595D01*
X203674188Y-108583621D01*
X203647405Y-108586500D01*
X184990767Y-108586500D01*
X184979584Y-108585973D01*
X184972091Y-108584298D01*
X184964165Y-108584547D01*
X184964164Y-108584547D01*
X184904014Y-108586438D01*
X184900055Y-108586500D01*
X184872144Y-108586500D01*
X184868210Y-108586997D01*
X184868209Y-108586997D01*
X184868144Y-108587005D01*
X184856307Y-108587938D01*
X184824490Y-108588938D01*
X184820029Y-108589078D01*
X184812110Y-108589327D01*
X184794454Y-108594456D01*
X184792658Y-108594978D01*
X184773306Y-108598986D01*
X184766235Y-108599880D01*
X184753203Y-108601526D01*
X184745834Y-108604443D01*
X184745832Y-108604444D01*
X184712097Y-108617800D01*
X184700869Y-108621645D01*
X184658407Y-108633982D01*
X184651585Y-108638016D01*
X184651579Y-108638019D01*
X184640968Y-108644294D01*
X184623218Y-108652990D01*
X184611756Y-108657528D01*
X184611751Y-108657531D01*
X184604383Y-108660448D01*
X184597968Y-108665109D01*
X184568625Y-108686427D01*
X184558707Y-108692943D01*
X184540019Y-108703995D01*
X184520637Y-108715458D01*
X184506313Y-108729782D01*
X184491281Y-108742621D01*
X184474893Y-108754528D01*
X184446712Y-108788593D01*
X184438722Y-108797373D01*
X181992497Y-111243598D01*
X181984211Y-111251138D01*
X181977732Y-111255250D01*
X181972307Y-111261027D01*
X181931107Y-111304901D01*
X181928352Y-111307743D01*
X181908615Y-111327480D01*
X181906135Y-111330677D01*
X181898432Y-111339697D01*
X181868164Y-111371929D01*
X181864345Y-111378875D01*
X181864343Y-111378878D01*
X181858402Y-111389684D01*
X181847551Y-111406203D01*
X181835136Y-111422209D01*
X181831991Y-111429478D01*
X181831988Y-111429482D01*
X181817576Y-111462787D01*
X181812359Y-111473437D01*
X181791055Y-111512190D01*
X181789084Y-111519865D01*
X181789084Y-111519866D01*
X181786017Y-111531812D01*
X181779613Y-111550516D01*
X181771569Y-111569105D01*
X181770330Y-111576930D01*
X181770329Y-111576932D01*
X181767751Y-111593209D01*
X181732397Y-111662593D01*
X181710297Y-111684693D01*
X181706261Y-111691517D01*
X181706259Y-111691520D01*
X181655192Y-111777870D01*
X181625605Y-111827899D01*
X181623394Y-111835510D01*
X181623393Y-111835512D01*
X181620031Y-111847084D01*
X181579188Y-111987669D01*
X181578684Y-111994074D01*
X181578683Y-111994079D01*
X181578178Y-112000501D01*
X181576250Y-112024998D01*
X181576250Y-113333002D01*
X181576443Y-113335450D01*
X181576443Y-113335458D01*
X181578167Y-113357355D01*
X181579188Y-113370331D01*
X181601994Y-113448831D01*
X181621991Y-113517660D01*
X181625605Y-113530101D01*
X181629642Y-113536927D01*
X181706259Y-113666480D01*
X181706261Y-113666483D01*
X181710297Y-113673307D01*
X181827943Y-113790953D01*
X181834767Y-113794989D01*
X181834770Y-113794991D01*
X181913467Y-113841532D01*
X181971149Y-113875645D01*
X181978760Y-113877856D01*
X181978762Y-113877857D01*
X181991068Y-113881432D01*
X182130919Y-113922062D01*
X182137324Y-113922566D01*
X182137329Y-113922567D01*
X182165792Y-113924807D01*
X182165800Y-113924807D01*
X182168248Y-113925000D01*
X182400250Y-113925000D01*
X182468371Y-113945002D01*
X182514864Y-113998658D01*
X182526250Y-114051000D01*
X182526250Y-115064500D01*
X182506248Y-115132621D01*
X182452592Y-115179114D01*
X182400250Y-115190500D01*
X173288595Y-115190500D01*
X173220474Y-115170498D01*
X173199500Y-115153595D01*
X172120405Y-114074500D01*
X172086379Y-114012188D01*
X172083500Y-113985405D01*
X172083500Y-93574000D01*
X172103502Y-93505879D01*
X172157158Y-93459386D01*
X172209500Y-93448000D01*
X172616502Y-93448000D01*
X172618950Y-93447807D01*
X172618958Y-93447807D01*
X172647421Y-93445567D01*
X172647426Y-93445566D01*
X172653831Y-93445062D01*
X172804762Y-93401213D01*
X172875759Y-93401416D01*
X172913976Y-93420274D01*
X173017063Y-93495171D01*
X173025248Y-93501118D01*
X173031276Y-93503802D01*
X173031278Y-93503803D01*
X173188944Y-93574000D01*
X173199712Y-93578794D01*
X173293113Y-93598647D01*
X173380056Y-93617128D01*
X173380061Y-93617128D01*
X173386513Y-93618500D01*
X173577487Y-93618500D01*
X173583939Y-93617128D01*
X173583944Y-93617128D01*
X173670887Y-93598647D01*
X173764288Y-93578794D01*
X173775056Y-93574000D01*
X173932722Y-93503803D01*
X173932724Y-93503802D01*
X173938752Y-93501118D01*
X173946938Y-93495171D01*
X174018377Y-93443267D01*
X174093253Y-93388866D01*
X174146743Y-93329460D01*
X174207188Y-93292221D01*
X174278172Y-93293573D01*
X174337156Y-93333087D01*
X174363370Y-93395118D01*
X174364394Y-93394900D01*
X174365523Y-93400212D01*
X174365688Y-93400602D01*
X174366458Y-93407928D01*
X174425473Y-93589556D01*
X174428776Y-93595278D01*
X174428777Y-93595279D01*
X174444959Y-93623307D01*
X174520960Y-93754944D01*
X174525378Y-93759851D01*
X174525379Y-93759852D01*
X174615777Y-93860249D01*
X174648747Y-93896866D01*
X174684178Y-93922608D01*
X174787767Y-93997870D01*
X174803248Y-94009118D01*
X174809276Y-94011802D01*
X174809278Y-94011803D01*
X174971681Y-94084109D01*
X174977712Y-94086794D01*
X175071113Y-94106647D01*
X175158056Y-94125128D01*
X175158061Y-94125128D01*
X175164513Y-94126500D01*
X175355487Y-94126500D01*
X175361939Y-94125128D01*
X175361944Y-94125128D01*
X175448887Y-94106647D01*
X175542288Y-94086794D01*
X175548319Y-94084109D01*
X175710722Y-94011803D01*
X175710724Y-94011802D01*
X175716752Y-94009118D01*
X175732234Y-93997870D01*
X175835822Y-93922608D01*
X175871253Y-93896866D01*
X175904223Y-93860249D01*
X175994621Y-93759852D01*
X175994622Y-93759851D01*
X175999040Y-93754944D01*
X176075041Y-93623307D01*
X176091223Y-93595279D01*
X176091224Y-93595278D01*
X176094527Y-93589556D01*
X176153542Y-93407928D01*
X176154889Y-93395118D01*
X176172814Y-93224565D01*
X176173504Y-93218000D01*
X176165704Y-93143791D01*
X176154232Y-93034635D01*
X176154232Y-93034633D01*
X176153542Y-93028072D01*
X176094527Y-92846444D01*
X176060755Y-92787949D01*
X176044017Y-92718954D01*
X176062614Y-92658834D01*
X176109460Y-92582835D01*
X176109462Y-92582830D01*
X176113302Y-92576601D01*
X176167149Y-92414257D01*
X176168115Y-92404834D01*
X176177172Y-92316430D01*
X176177500Y-92313232D01*
X176177500Y-91765768D01*
X176177162Y-91762504D01*
X176169241Y-91686169D01*
X176166887Y-91663481D01*
X176145333Y-91598877D01*
X176115073Y-91508176D01*
X176115072Y-91508174D01*
X176112756Y-91501232D01*
X176106660Y-91491380D01*
X176026606Y-91362015D01*
X176022752Y-91355787D01*
X176017570Y-91350614D01*
X176013023Y-91344877D01*
X176014830Y-91343445D01*
X175986098Y-91290925D01*
X175991108Y-91220105D01*
X176014499Y-91183647D01*
X176013448Y-91182817D01*
X176026998Y-91165660D01*
X176109004Y-91032620D01*
X176115151Y-91019439D01*
X176164491Y-90870686D01*
X176167358Y-90857310D01*
X176176672Y-90766403D01*
X176176929Y-90761374D01*
X176172525Y-90746376D01*
X176171135Y-90745171D01*
X176163452Y-90743500D01*
X174284000Y-90743500D01*
X174215879Y-90723498D01*
X174169386Y-90669842D01*
X174158000Y-90617500D01*
X174158000Y-90599115D01*
X174153525Y-90583876D01*
X174152135Y-90582671D01*
X174144452Y-90581000D01*
X172560116Y-90581000D01*
X172544877Y-90585475D01*
X172543672Y-90586865D01*
X172542001Y-90594548D01*
X172542001Y-90830000D01*
X172521999Y-90898121D01*
X172468343Y-90944614D01*
X172416001Y-90956000D01*
X172384500Y-90956000D01*
X172316379Y-90935998D01*
X172269886Y-90882342D01*
X172258500Y-90830000D01*
X172258500Y-90054885D01*
X172542000Y-90054885D01*
X172546475Y-90070124D01*
X172547865Y-90071329D01*
X172555548Y-90073000D01*
X173077885Y-90073000D01*
X173093124Y-90068525D01*
X173094329Y-90067135D01*
X173096000Y-90059452D01*
X173096000Y-90054885D01*
X173604000Y-90054885D01*
X173608475Y-90070124D01*
X173609865Y-90071329D01*
X173617548Y-90073000D01*
X174086061Y-90073000D01*
X174154182Y-90093002D01*
X174200675Y-90146658D01*
X174210996Y-90209357D01*
X174211492Y-90209382D01*
X174211376Y-90211660D01*
X174211405Y-90211839D01*
X174211328Y-90212589D01*
X174211071Y-90217626D01*
X174215475Y-90232624D01*
X174216865Y-90233829D01*
X174224548Y-90235500D01*
X174921885Y-90235500D01*
X174937124Y-90231025D01*
X174938329Y-90229635D01*
X174940000Y-90221952D01*
X174940000Y-90217385D01*
X175448000Y-90217385D01*
X175452475Y-90232624D01*
X175453865Y-90233829D01*
X175461548Y-90235500D01*
X176158885Y-90235500D01*
X176174124Y-90231025D01*
X176175329Y-90229635D01*
X176177000Y-90221952D01*
X176177000Y-90219062D01*
X176176663Y-90212547D01*
X176167106Y-90120443D01*
X176164212Y-90107044D01*
X176114619Y-89958393D01*
X176108445Y-89945214D01*
X176026212Y-89812327D01*
X176017176Y-89800926D01*
X175906571Y-89690514D01*
X175895160Y-89681502D01*
X175762120Y-89599496D01*
X175748939Y-89593349D01*
X175600186Y-89544009D01*
X175586810Y-89541142D01*
X175495903Y-89531828D01*
X175489486Y-89531500D01*
X175466115Y-89531500D01*
X175450876Y-89535975D01*
X175449671Y-89537365D01*
X175448000Y-89545048D01*
X175448000Y-90217385D01*
X174940000Y-90217385D01*
X174940000Y-89549615D01*
X174935525Y-89534376D01*
X174934135Y-89533171D01*
X174926452Y-89531500D01*
X174898562Y-89531500D01*
X174892047Y-89531837D01*
X174799943Y-89541394D01*
X174786544Y-89544288D01*
X174637893Y-89593881D01*
X174624714Y-89600055D01*
X174491827Y-89682288D01*
X174480426Y-89691324D01*
X174373172Y-89798765D01*
X174310889Y-89832844D01*
X174240069Y-89827841D01*
X174183197Y-89785344D01*
X174158328Y-89718845D01*
X174157999Y-89709747D01*
X174157999Y-89675517D01*
X174157805Y-89670580D01*
X174155570Y-89642164D01*
X174153270Y-89629569D01*
X174110893Y-89483710D01*
X174104648Y-89469279D01*
X174028089Y-89339822D01*
X174018449Y-89327396D01*
X173912104Y-89221051D01*
X173899678Y-89211411D01*
X173770221Y-89134852D01*
X173755790Y-89128607D01*
X173621395Y-89089561D01*
X173607294Y-89089601D01*
X173604000Y-89096870D01*
X173604000Y-90054885D01*
X173096000Y-90054885D01*
X173096000Y-89102622D01*
X173092027Y-89089091D01*
X173084129Y-89087956D01*
X172944210Y-89128607D01*
X172929779Y-89134852D01*
X172800322Y-89211411D01*
X172787896Y-89221051D01*
X172681551Y-89327396D01*
X172671911Y-89339822D01*
X172595352Y-89469279D01*
X172589107Y-89483710D01*
X172546731Y-89629565D01*
X172544430Y-89642167D01*
X172542193Y-89670584D01*
X172542000Y-89675514D01*
X172542000Y-90054885D01*
X172258500Y-90054885D01*
X172258500Y-89672998D01*
X172257415Y-89659210D01*
X172256067Y-89642079D01*
X172256066Y-89642074D01*
X172255562Y-89635669D01*
X172216898Y-89502584D01*
X172211357Y-89483512D01*
X172211356Y-89483510D01*
X172209145Y-89475899D01*
X172180523Y-89427502D01*
X172128491Y-89339520D01*
X172128489Y-89339517D01*
X172124453Y-89332693D01*
X172006807Y-89215047D01*
X171999983Y-89211011D01*
X171999980Y-89211009D01*
X171892411Y-89147393D01*
X171863601Y-89130355D01*
X171855990Y-89128144D01*
X171855988Y-89128143D01*
X171768142Y-89102622D01*
X171703831Y-89083938D01*
X171697426Y-89083434D01*
X171697421Y-89083433D01*
X171668958Y-89081193D01*
X171668950Y-89081193D01*
X171666502Y-89081000D01*
X171233498Y-89081000D01*
X171231050Y-89081193D01*
X171231042Y-89081193D01*
X171202579Y-89083433D01*
X171202574Y-89083434D01*
X171196169Y-89083938D01*
X171131858Y-89102622D01*
X171044012Y-89128143D01*
X171044010Y-89128144D01*
X171036399Y-89130355D01*
X171007589Y-89147393D01*
X170900020Y-89211009D01*
X170900017Y-89211011D01*
X170893193Y-89215047D01*
X170775547Y-89332693D01*
X170771511Y-89339517D01*
X170771509Y-89339520D01*
X170719477Y-89427502D01*
X170690855Y-89475899D01*
X170688644Y-89483510D01*
X170688643Y-89483512D01*
X170683102Y-89502584D01*
X170644438Y-89635669D01*
X170643934Y-89642074D01*
X170643933Y-89642079D01*
X170642585Y-89659210D01*
X170641500Y-89672998D01*
X170641500Y-90981002D01*
X170641693Y-90983450D01*
X170641693Y-90983458D01*
X170643417Y-91005355D01*
X170644438Y-91018331D01*
X170667264Y-91096899D01*
X170687241Y-91165660D01*
X170690855Y-91178101D01*
X170694892Y-91184927D01*
X170771509Y-91314480D01*
X170771511Y-91314483D01*
X170775547Y-91321307D01*
X170781155Y-91326915D01*
X170786011Y-91333175D01*
X170784504Y-91334344D01*
X170813621Y-91387667D01*
X170816500Y-91414450D01*
X170816500Y-114221233D01*
X170815973Y-114232416D01*
X170814298Y-114239909D01*
X170814547Y-114247835D01*
X170814547Y-114247836D01*
X170816438Y-114307986D01*
X170816500Y-114311945D01*
X170816500Y-114339856D01*
X170816997Y-114343790D01*
X170816997Y-114343791D01*
X170817005Y-114343856D01*
X170817938Y-114355693D01*
X170819327Y-114399889D01*
X170824978Y-114419339D01*
X170828987Y-114438700D01*
X170831526Y-114458797D01*
X170834445Y-114466168D01*
X170834445Y-114466170D01*
X170847804Y-114499912D01*
X170851649Y-114511142D01*
X170858382Y-114534317D01*
X170863982Y-114553593D01*
X170868015Y-114560412D01*
X170868017Y-114560417D01*
X170874293Y-114571028D01*
X170882988Y-114588776D01*
X170890448Y-114607617D01*
X170895110Y-114614033D01*
X170895110Y-114614034D01*
X170916436Y-114643387D01*
X170922952Y-114653307D01*
X170939230Y-114680831D01*
X170945458Y-114691362D01*
X170959779Y-114705683D01*
X170972619Y-114720716D01*
X170984528Y-114737107D01*
X171011392Y-114759331D01*
X171018605Y-114765298D01*
X171027384Y-114773288D01*
X171991501Y-115737405D01*
X172025527Y-115799717D01*
X172020462Y-115870532D01*
X171977915Y-115927368D01*
X171911395Y-115952179D01*
X171902406Y-115952500D01*
X162189800Y-115952500D01*
X162121679Y-115932498D01*
X162075186Y-115878842D01*
X162065082Y-115808568D01*
X162080681Y-115763500D01*
X162121223Y-115693279D01*
X162121224Y-115693278D01*
X162124527Y-115687556D01*
X162183542Y-115505928D01*
X162189041Y-115453611D01*
X162216052Y-115387955D01*
X162274273Y-115347325D01*
X162301347Y-115341454D01*
X162314412Y-115340099D01*
X162314417Y-115340098D01*
X162321269Y-115339387D01*
X162391368Y-115316000D01*
X162476574Y-115287573D01*
X162476576Y-115287572D01*
X162483518Y-115285256D01*
X162495737Y-115277695D01*
X162622735Y-115199106D01*
X162628963Y-115195252D01*
X162749802Y-115074202D01*
X162754190Y-115067084D01*
X162835712Y-114934831D01*
X162835713Y-114934829D01*
X162839552Y-114928601D01*
X162893399Y-114766257D01*
X162903750Y-114665232D01*
X162903750Y-114117768D01*
X162902123Y-114102082D01*
X162898064Y-114062967D01*
X162893137Y-114015481D01*
X162867903Y-113939847D01*
X162841323Y-113860176D01*
X162841322Y-113860174D01*
X162839006Y-113853232D01*
X162802966Y-113794991D01*
X162752856Y-113714015D01*
X162749002Y-113707787D01*
X162743820Y-113702614D01*
X162739273Y-113696877D01*
X162741080Y-113695445D01*
X162712348Y-113642925D01*
X162717358Y-113572105D01*
X162740749Y-113535647D01*
X162739698Y-113534817D01*
X162753248Y-113517660D01*
X162835254Y-113384620D01*
X162841401Y-113371439D01*
X162890741Y-113222686D01*
X162893608Y-113209310D01*
X162902922Y-113118403D01*
X162903179Y-113113374D01*
X162898775Y-113098376D01*
X162897385Y-113097171D01*
X162889702Y-113095500D01*
X161023250Y-113095500D01*
X160955129Y-113075498D01*
X160908636Y-113021842D01*
X160897250Y-112969500D01*
X160897250Y-112951115D01*
X160892775Y-112935876D01*
X160891385Y-112934671D01*
X160883702Y-112933000D01*
X160426865Y-112933000D01*
X160411626Y-112937475D01*
X160410421Y-112938865D01*
X160408750Y-112946548D01*
X160408750Y-113903378D01*
X160412723Y-113916909D01*
X160420621Y-113918044D01*
X160560540Y-113877393D01*
X160574971Y-113871148D01*
X160704428Y-113794589D01*
X160716854Y-113784949D01*
X160807772Y-113694031D01*
X160870084Y-113660005D01*
X160940899Y-113665070D01*
X160997735Y-113707617D01*
X161022546Y-113774137D01*
X161006208Y-113840751D01*
X161007883Y-113841532D01*
X161004789Y-113848168D01*
X161000948Y-113854399D01*
X160947101Y-114016743D01*
X160946401Y-114023580D01*
X160946400Y-114023582D01*
X160942167Y-114064901D01*
X160936750Y-114117768D01*
X160936750Y-114396974D01*
X160916748Y-114465095D01*
X160862001Y-114512080D01*
X160847202Y-114518669D01*
X160833250Y-114524881D01*
X160762884Y-114534317D01*
X160730753Y-114524882D01*
X160730752Y-114524882D01*
X160582322Y-114458797D01*
X160562319Y-114449891D01*
X160562318Y-114449891D01*
X160556288Y-114447206D01*
X160462887Y-114427353D01*
X160375944Y-114408872D01*
X160375939Y-114408872D01*
X160369487Y-114407500D01*
X160313595Y-114407500D01*
X160245474Y-114387498D01*
X160224500Y-114370595D01*
X160050155Y-114196250D01*
X160016129Y-114133938D01*
X160013250Y-114107155D01*
X160013250Y-113899998D01*
X160013057Y-113897542D01*
X160010817Y-113869079D01*
X160010816Y-113869074D01*
X160010312Y-113862669D01*
X159967196Y-113714260D01*
X159966107Y-113710512D01*
X159966106Y-113710510D01*
X159963895Y-113702899D01*
X159938642Y-113660199D01*
X159918297Y-113625797D01*
X159900750Y-113561658D01*
X159900750Y-112951115D01*
X159896275Y-112935876D01*
X159894885Y-112934671D01*
X159887202Y-112933000D01*
X159364866Y-112933000D01*
X159349627Y-112937475D01*
X159348422Y-112938865D01*
X159346751Y-112946548D01*
X159346751Y-113182000D01*
X159326749Y-113250121D01*
X159273093Y-113296614D01*
X159220751Y-113308000D01*
X159189250Y-113308000D01*
X159121129Y-113287998D01*
X159074636Y-113234342D01*
X159063250Y-113182000D01*
X159063250Y-112406885D01*
X159346750Y-112406885D01*
X159351225Y-112422124D01*
X159352615Y-112423329D01*
X159360298Y-112425000D01*
X159882635Y-112425000D01*
X159897874Y-112420525D01*
X159899079Y-112419135D01*
X159900750Y-112411452D01*
X159900750Y-112406885D01*
X160408750Y-112406885D01*
X160413225Y-112422124D01*
X160414615Y-112423329D01*
X160422298Y-112425000D01*
X160876750Y-112425000D01*
X160944871Y-112445002D01*
X160991364Y-112498658D01*
X161002750Y-112551000D01*
X161002750Y-112569385D01*
X161007225Y-112584624D01*
X161008615Y-112585829D01*
X161016298Y-112587500D01*
X161648135Y-112587500D01*
X161663374Y-112583025D01*
X161664579Y-112581635D01*
X161666250Y-112573952D01*
X161666250Y-112569385D01*
X162174250Y-112569385D01*
X162178725Y-112584624D01*
X162180115Y-112585829D01*
X162187798Y-112587500D01*
X162885135Y-112587500D01*
X162900374Y-112583025D01*
X162901579Y-112581635D01*
X162903250Y-112573952D01*
X162903250Y-112571062D01*
X162902913Y-112564547D01*
X162893356Y-112472443D01*
X162890462Y-112459044D01*
X162840869Y-112310393D01*
X162834695Y-112297214D01*
X162752462Y-112164327D01*
X162743426Y-112152926D01*
X162632821Y-112042514D01*
X162621410Y-112033502D01*
X162488370Y-111951496D01*
X162475189Y-111945349D01*
X162326436Y-111896009D01*
X162313060Y-111893142D01*
X162222153Y-111883828D01*
X162215736Y-111883500D01*
X162192365Y-111883500D01*
X162177126Y-111887975D01*
X162175921Y-111889365D01*
X162174250Y-111897048D01*
X162174250Y-112569385D01*
X161666250Y-112569385D01*
X161666250Y-111901615D01*
X161661775Y-111886376D01*
X161660385Y-111885171D01*
X161652702Y-111883500D01*
X161624812Y-111883500D01*
X161618297Y-111883837D01*
X161526193Y-111893394D01*
X161512794Y-111896288D01*
X161364143Y-111945881D01*
X161350964Y-111952055D01*
X161218077Y-112034288D01*
X161206676Y-112043324D01*
X161175225Y-112074830D01*
X161112943Y-112108909D01*
X161042123Y-112103906D01*
X160985250Y-112061409D01*
X160962205Y-112000368D01*
X160961477Y-112000501D01*
X160960748Y-111996507D01*
X160960440Y-111995692D01*
X160960320Y-111994164D01*
X160958020Y-111981569D01*
X160915643Y-111835710D01*
X160909398Y-111821279D01*
X160832839Y-111691822D01*
X160823199Y-111679396D01*
X160716854Y-111573051D01*
X160704428Y-111563411D01*
X160574971Y-111486852D01*
X160560540Y-111480607D01*
X160426145Y-111441561D01*
X160412044Y-111441601D01*
X160408750Y-111448870D01*
X160408750Y-112406885D01*
X159900750Y-112406885D01*
X159900750Y-111454622D01*
X159896777Y-111441091D01*
X159888879Y-111439956D01*
X159748960Y-111480607D01*
X159734529Y-111486852D01*
X159605072Y-111563411D01*
X159592646Y-111573051D01*
X159486301Y-111679396D01*
X159476661Y-111691822D01*
X159400102Y-111821279D01*
X159393857Y-111835710D01*
X159351481Y-111981565D01*
X159349180Y-111994167D01*
X159346943Y-112022584D01*
X159346750Y-112027514D01*
X159346750Y-112406885D01*
X159063250Y-112406885D01*
X159063250Y-112024998D01*
X159061322Y-112000501D01*
X159060817Y-111994079D01*
X159060816Y-111994074D01*
X159060312Y-111987669D01*
X159019469Y-111847084D01*
X159016107Y-111835512D01*
X159016106Y-111835510D01*
X159013895Y-111827899D01*
X158984308Y-111777870D01*
X158933241Y-111691520D01*
X158933239Y-111691517D01*
X158929203Y-111684693D01*
X158811557Y-111567047D01*
X158804733Y-111563011D01*
X158804730Y-111563009D01*
X158675177Y-111486392D01*
X158675178Y-111486392D01*
X158668351Y-111482355D01*
X158660740Y-111480144D01*
X158660738Y-111480143D01*
X158600997Y-111462787D01*
X158508581Y-111435938D01*
X158502176Y-111435434D01*
X158502171Y-111435433D01*
X158473708Y-111433193D01*
X158473700Y-111433193D01*
X158471252Y-111433000D01*
X158038248Y-111433000D01*
X158035800Y-111433193D01*
X158035792Y-111433193D01*
X158007329Y-111435433D01*
X158007324Y-111435434D01*
X158000919Y-111435938D01*
X157908503Y-111462787D01*
X157848762Y-111480143D01*
X157848760Y-111480144D01*
X157841149Y-111482355D01*
X157834322Y-111486392D01*
X157834323Y-111486392D01*
X157704770Y-111563009D01*
X157704767Y-111563011D01*
X157697943Y-111567047D01*
X157580297Y-111684693D01*
X157576261Y-111691517D01*
X157576259Y-111691520D01*
X157525192Y-111777870D01*
X157495605Y-111827899D01*
X157493394Y-111835510D01*
X157493393Y-111835512D01*
X157490031Y-111847084D01*
X157449188Y-111987669D01*
X157448684Y-111994074D01*
X157448683Y-111994079D01*
X157448178Y-112000501D01*
X157446250Y-112024998D01*
X157446250Y-113333002D01*
X157446443Y-113335450D01*
X157446443Y-113335458D01*
X157448167Y-113357355D01*
X157449188Y-113370331D01*
X157471994Y-113448831D01*
X157491991Y-113517660D01*
X157495605Y-113530101D01*
X157499642Y-113536927D01*
X157576259Y-113666480D01*
X157576261Y-113666483D01*
X157580297Y-113673307D01*
X157585905Y-113678915D01*
X157590761Y-113685175D01*
X157589254Y-113686344D01*
X157618371Y-113739667D01*
X157621250Y-113766450D01*
X157621250Y-116538974D01*
X157619699Y-116558684D01*
X157616530Y-116578693D01*
X157617276Y-116586585D01*
X157617276Y-116586586D01*
X157619739Y-116612643D01*
X157606236Y-116682344D01*
X157557194Y-116733679D01*
X157494298Y-116750500D01*
X147924595Y-116750500D01*
X147856474Y-116730498D01*
X147835500Y-116713595D01*
X143418405Y-112296500D01*
X143384379Y-112234188D01*
X143381500Y-112207405D01*
X143381500Y-93574000D01*
X143401502Y-93505879D01*
X143455158Y-93459386D01*
X143507500Y-93448000D01*
X143914502Y-93448000D01*
X143916950Y-93447807D01*
X143916958Y-93447807D01*
X143945421Y-93445567D01*
X143945426Y-93445566D01*
X143951831Y-93445062D01*
X144102762Y-93401213D01*
X144173759Y-93401416D01*
X144211976Y-93420274D01*
X144315063Y-93495171D01*
X144323248Y-93501118D01*
X144329276Y-93503802D01*
X144329278Y-93503803D01*
X144486944Y-93574000D01*
X144497712Y-93578794D01*
X144591113Y-93598647D01*
X144678056Y-93617128D01*
X144678061Y-93617128D01*
X144684513Y-93618500D01*
X144875487Y-93618500D01*
X144881939Y-93617128D01*
X144881944Y-93617128D01*
X144968887Y-93598647D01*
X145062288Y-93578794D01*
X145073056Y-93574000D01*
X145230722Y-93503803D01*
X145230724Y-93503802D01*
X145236752Y-93501118D01*
X145244938Y-93495171D01*
X145316377Y-93443267D01*
X145391253Y-93388866D01*
X145444743Y-93329460D01*
X145505188Y-93292221D01*
X145576172Y-93293573D01*
X145635156Y-93333087D01*
X145661370Y-93395118D01*
X145662394Y-93394900D01*
X145663523Y-93400212D01*
X145663688Y-93400602D01*
X145664458Y-93407928D01*
X145723473Y-93589556D01*
X145726776Y-93595278D01*
X145726777Y-93595279D01*
X145742959Y-93623307D01*
X145818960Y-93754944D01*
X145823378Y-93759851D01*
X145823379Y-93759852D01*
X145913777Y-93860249D01*
X145946747Y-93896866D01*
X145982178Y-93922608D01*
X146085767Y-93997870D01*
X146101248Y-94009118D01*
X146107276Y-94011802D01*
X146107278Y-94011803D01*
X146269681Y-94084109D01*
X146275712Y-94086794D01*
X146369113Y-94106647D01*
X146456056Y-94125128D01*
X146456061Y-94125128D01*
X146462513Y-94126500D01*
X146653487Y-94126500D01*
X146659939Y-94125128D01*
X146659944Y-94125128D01*
X146746887Y-94106647D01*
X146840288Y-94086794D01*
X146846319Y-94084109D01*
X147008722Y-94011803D01*
X147008724Y-94011802D01*
X147014752Y-94009118D01*
X147030234Y-93997870D01*
X147133822Y-93922608D01*
X147169253Y-93896866D01*
X147202223Y-93860249D01*
X147292621Y-93759852D01*
X147292622Y-93759851D01*
X147297040Y-93754944D01*
X147373041Y-93623307D01*
X147389223Y-93595279D01*
X147389224Y-93595278D01*
X147392527Y-93589556D01*
X147451542Y-93407928D01*
X147452889Y-93395118D01*
X147470814Y-93224565D01*
X147471504Y-93218000D01*
X147463704Y-93143791D01*
X147452232Y-93034635D01*
X147452232Y-93034633D01*
X147451542Y-93028072D01*
X147392527Y-92846444D01*
X147358755Y-92787949D01*
X147342017Y-92718954D01*
X147360614Y-92658834D01*
X147407460Y-92582835D01*
X147407462Y-92582830D01*
X147411302Y-92576601D01*
X147465149Y-92414257D01*
X147466115Y-92404834D01*
X147475172Y-92316430D01*
X147475500Y-92313232D01*
X147475500Y-91765768D01*
X147475162Y-91762504D01*
X147467241Y-91686169D01*
X147464887Y-91663481D01*
X147443333Y-91598877D01*
X147413073Y-91508176D01*
X147413072Y-91508174D01*
X147410756Y-91501232D01*
X147404660Y-91491380D01*
X147324606Y-91362015D01*
X147320752Y-91355787D01*
X147315570Y-91350614D01*
X147311023Y-91344877D01*
X147312830Y-91343445D01*
X147284098Y-91290925D01*
X147289108Y-91220105D01*
X147312499Y-91183647D01*
X147311448Y-91182817D01*
X147324998Y-91165660D01*
X147407004Y-91032620D01*
X147413151Y-91019439D01*
X147462491Y-90870686D01*
X147465358Y-90857310D01*
X147474672Y-90766403D01*
X147474929Y-90761374D01*
X147470525Y-90746376D01*
X147469135Y-90745171D01*
X147461452Y-90743500D01*
X145582000Y-90743500D01*
X145513879Y-90723498D01*
X145467386Y-90669842D01*
X145456000Y-90617500D01*
X145456000Y-90599115D01*
X145451525Y-90583876D01*
X145450135Y-90582671D01*
X145442452Y-90581000D01*
X143858116Y-90581000D01*
X143842877Y-90585475D01*
X143841672Y-90586865D01*
X143840001Y-90594548D01*
X143840001Y-90830000D01*
X143819999Y-90898121D01*
X143766343Y-90944614D01*
X143714001Y-90956000D01*
X143682500Y-90956000D01*
X143614379Y-90935998D01*
X143567886Y-90882342D01*
X143556500Y-90830000D01*
X143556500Y-90054885D01*
X143840000Y-90054885D01*
X143844475Y-90070124D01*
X143845865Y-90071329D01*
X143853548Y-90073000D01*
X144375885Y-90073000D01*
X144391124Y-90068525D01*
X144392329Y-90067135D01*
X144394000Y-90059452D01*
X144394000Y-90054885D01*
X144902000Y-90054885D01*
X144906475Y-90070124D01*
X144907865Y-90071329D01*
X144915548Y-90073000D01*
X145384061Y-90073000D01*
X145452182Y-90093002D01*
X145498675Y-90146658D01*
X145508996Y-90209357D01*
X145509492Y-90209382D01*
X145509376Y-90211660D01*
X145509405Y-90211839D01*
X145509328Y-90212589D01*
X145509071Y-90217626D01*
X145513475Y-90232624D01*
X145514865Y-90233829D01*
X145522548Y-90235500D01*
X146219885Y-90235500D01*
X146235124Y-90231025D01*
X146236329Y-90229635D01*
X146238000Y-90221952D01*
X146238000Y-90217385D01*
X146746000Y-90217385D01*
X146750475Y-90232624D01*
X146751865Y-90233829D01*
X146759548Y-90235500D01*
X147456885Y-90235500D01*
X147472124Y-90231025D01*
X147473329Y-90229635D01*
X147475000Y-90221952D01*
X147475000Y-90219062D01*
X147474663Y-90212547D01*
X147465106Y-90120443D01*
X147462212Y-90107044D01*
X147412619Y-89958393D01*
X147406445Y-89945214D01*
X147324212Y-89812327D01*
X147315176Y-89800926D01*
X147204571Y-89690514D01*
X147193160Y-89681502D01*
X147060120Y-89599496D01*
X147046939Y-89593349D01*
X146898186Y-89544009D01*
X146884810Y-89541142D01*
X146793903Y-89531828D01*
X146787486Y-89531500D01*
X146764115Y-89531500D01*
X146748876Y-89535975D01*
X146747671Y-89537365D01*
X146746000Y-89545048D01*
X146746000Y-90217385D01*
X146238000Y-90217385D01*
X146238000Y-89549615D01*
X146233525Y-89534376D01*
X146232135Y-89533171D01*
X146224452Y-89531500D01*
X146196562Y-89531500D01*
X146190047Y-89531837D01*
X146097943Y-89541394D01*
X146084544Y-89544288D01*
X145935893Y-89593881D01*
X145922714Y-89600055D01*
X145789827Y-89682288D01*
X145778426Y-89691324D01*
X145671172Y-89798765D01*
X145608889Y-89832844D01*
X145538069Y-89827841D01*
X145481197Y-89785344D01*
X145456328Y-89718845D01*
X145455999Y-89709747D01*
X145455999Y-89675517D01*
X145455805Y-89670580D01*
X145453570Y-89642164D01*
X145451270Y-89629569D01*
X145408893Y-89483710D01*
X145402648Y-89469279D01*
X145326089Y-89339822D01*
X145316449Y-89327396D01*
X145210104Y-89221051D01*
X145197678Y-89211411D01*
X145068221Y-89134852D01*
X145053790Y-89128607D01*
X144919395Y-89089561D01*
X144905294Y-89089601D01*
X144902000Y-89096870D01*
X144902000Y-90054885D01*
X144394000Y-90054885D01*
X144394000Y-89102622D01*
X144390027Y-89089091D01*
X144382129Y-89087956D01*
X144242210Y-89128607D01*
X144227779Y-89134852D01*
X144098322Y-89211411D01*
X144085896Y-89221051D01*
X143979551Y-89327396D01*
X143969911Y-89339822D01*
X143893352Y-89469279D01*
X143887107Y-89483710D01*
X143844731Y-89629565D01*
X143842430Y-89642167D01*
X143840193Y-89670584D01*
X143840000Y-89675514D01*
X143840000Y-90054885D01*
X143556500Y-90054885D01*
X143556500Y-89672998D01*
X143555415Y-89659210D01*
X143554067Y-89642079D01*
X143554066Y-89642074D01*
X143553562Y-89635669D01*
X143514898Y-89502584D01*
X143509357Y-89483512D01*
X143509356Y-89483510D01*
X143507145Y-89475899D01*
X143478523Y-89427502D01*
X143426491Y-89339520D01*
X143426489Y-89339517D01*
X143422453Y-89332693D01*
X143304807Y-89215047D01*
X143297983Y-89211011D01*
X143297980Y-89211009D01*
X143190411Y-89147393D01*
X143161601Y-89130355D01*
X143153990Y-89128144D01*
X143153988Y-89128143D01*
X143066142Y-89102622D01*
X143001831Y-89083938D01*
X142995426Y-89083434D01*
X142995421Y-89083433D01*
X142966958Y-89081193D01*
X142966950Y-89081193D01*
X142964502Y-89081000D01*
X142531498Y-89081000D01*
X142529050Y-89081193D01*
X142529042Y-89081193D01*
X142500579Y-89083433D01*
X142500574Y-89083434D01*
X142494169Y-89083938D01*
X142429858Y-89102622D01*
X142342012Y-89128143D01*
X142342010Y-89128144D01*
X142334399Y-89130355D01*
X142305589Y-89147393D01*
X142198020Y-89211009D01*
X142198017Y-89211011D01*
X142191193Y-89215047D01*
X142073547Y-89332693D01*
X142069511Y-89339517D01*
X142069509Y-89339520D01*
X142017477Y-89427502D01*
X141988855Y-89475899D01*
X141986644Y-89483510D01*
X141986643Y-89483512D01*
X141981102Y-89502584D01*
X141942438Y-89635669D01*
X141941934Y-89642074D01*
X141941933Y-89642079D01*
X141940585Y-89659210D01*
X141939500Y-89672998D01*
X141939500Y-90981002D01*
X141939693Y-90983450D01*
X141939693Y-90983458D01*
X141941417Y-91005355D01*
X141942438Y-91018331D01*
X141965264Y-91096899D01*
X141985241Y-91165660D01*
X141988855Y-91178101D01*
X141992892Y-91184927D01*
X142069509Y-91314480D01*
X142069511Y-91314483D01*
X142073547Y-91321307D01*
X142079155Y-91326915D01*
X142084011Y-91333175D01*
X142082504Y-91334344D01*
X142111621Y-91387667D01*
X142114500Y-91414450D01*
X142114500Y-112443233D01*
X142113973Y-112454416D01*
X142112298Y-112461909D01*
X142112547Y-112469835D01*
X142112547Y-112469836D01*
X142114438Y-112529986D01*
X142114500Y-112533945D01*
X142114500Y-112561856D01*
X142114997Y-112565790D01*
X142114997Y-112565791D01*
X142115005Y-112565856D01*
X142115938Y-112577693D01*
X142117327Y-112621889D01*
X142122978Y-112641339D01*
X142126987Y-112660700D01*
X142127892Y-112667860D01*
X142129526Y-112680797D01*
X142132445Y-112688168D01*
X142132445Y-112688170D01*
X142145804Y-112721912D01*
X142149649Y-112733142D01*
X142158516Y-112763663D01*
X142161982Y-112775593D01*
X142166015Y-112782412D01*
X142166017Y-112782417D01*
X142172293Y-112793028D01*
X142180988Y-112810776D01*
X142188448Y-112829617D01*
X142193110Y-112836033D01*
X142193110Y-112836034D01*
X142214436Y-112865387D01*
X142220952Y-112875307D01*
X142243458Y-112913362D01*
X142257779Y-112927683D01*
X142270619Y-112942716D01*
X142282528Y-112959107D01*
X142288634Y-112964158D01*
X142316605Y-112987298D01*
X142325384Y-112995288D01*
X146591501Y-117261405D01*
X146625527Y-117323717D01*
X146620462Y-117394532D01*
X146577915Y-117451368D01*
X146511395Y-117476179D01*
X146502406Y-117476500D01*
X136458594Y-117476500D01*
X136390473Y-117456498D01*
X136369499Y-117439595D01*
X134945000Y-116015095D01*
X134910974Y-115952783D01*
X134916039Y-115881967D01*
X134958586Y-115825132D01*
X135025106Y-115800321D01*
X135034095Y-115800000D01*
X135037252Y-115800000D01*
X135039700Y-115799807D01*
X135039708Y-115799807D01*
X135068171Y-115797567D01*
X135068176Y-115797566D01*
X135074581Y-115797062D01*
X135216404Y-115755859D01*
X135287401Y-115756062D01*
X135325618Y-115774920D01*
X135416670Y-115841073D01*
X135433248Y-115853118D01*
X135439276Y-115855802D01*
X135439278Y-115855803D01*
X135585330Y-115920829D01*
X135607712Y-115930794D01*
X135701112Y-115950647D01*
X135788056Y-115969128D01*
X135788061Y-115969128D01*
X135794513Y-115970500D01*
X135985487Y-115970500D01*
X135991939Y-115969128D01*
X135991944Y-115969128D01*
X136078888Y-115950647D01*
X136172288Y-115930794D01*
X136194670Y-115920829D01*
X136340722Y-115855803D01*
X136340724Y-115855802D01*
X136346752Y-115853118D01*
X136371478Y-115835153D01*
X136438344Y-115811296D01*
X136507496Y-115827376D01*
X136556976Y-115878289D01*
X136565370Y-115898151D01*
X136579473Y-115941556D01*
X136582776Y-115947278D01*
X136582777Y-115947279D01*
X136588689Y-115957518D01*
X136674960Y-116106944D01*
X136679378Y-116111851D01*
X136679379Y-116111852D01*
X136746292Y-116186166D01*
X136802747Y-116248866D01*
X136901609Y-116320694D01*
X136949063Y-116355171D01*
X136957248Y-116361118D01*
X136963276Y-116363802D01*
X136963278Y-116363803D01*
X137125681Y-116436109D01*
X137131712Y-116438794D01*
X137225113Y-116458647D01*
X137312056Y-116477128D01*
X137312061Y-116477128D01*
X137318513Y-116478500D01*
X137509487Y-116478500D01*
X137515939Y-116477128D01*
X137515944Y-116477128D01*
X137602887Y-116458647D01*
X137696288Y-116438794D01*
X137702319Y-116436109D01*
X137864722Y-116363803D01*
X137864724Y-116363802D01*
X137870752Y-116361118D01*
X137878938Y-116355171D01*
X137926391Y-116320694D01*
X138025253Y-116248866D01*
X138081708Y-116186166D01*
X138148621Y-116111852D01*
X138148622Y-116111851D01*
X138153040Y-116106944D01*
X138239311Y-115957518D01*
X138245223Y-115947279D01*
X138245224Y-115947278D01*
X138248527Y-115941556D01*
X138307542Y-115759928D01*
X138308680Y-115749106D01*
X138326814Y-115576565D01*
X138327504Y-115570000D01*
X138324673Y-115543062D01*
X138308233Y-115386642D01*
X138308232Y-115386635D01*
X138307542Y-115380072D01*
X138296902Y-115347325D01*
X138289831Y-115325562D01*
X138287804Y-115254594D01*
X138323541Y-115195330D01*
X138323463Y-115195252D01*
X138323780Y-115194934D01*
X138444302Y-115074202D01*
X138448690Y-115067084D01*
X138530212Y-114934831D01*
X138530213Y-114934829D01*
X138534052Y-114928601D01*
X138587899Y-114766257D01*
X138598250Y-114665232D01*
X138598250Y-114117768D01*
X138596623Y-114102082D01*
X138592564Y-114062967D01*
X138587637Y-114015481D01*
X138562403Y-113939847D01*
X138535823Y-113860176D01*
X138535822Y-113860174D01*
X138533506Y-113853232D01*
X138497466Y-113794991D01*
X138447356Y-113714015D01*
X138443502Y-113707787D01*
X138438320Y-113702614D01*
X138433773Y-113696877D01*
X138435580Y-113695445D01*
X138406848Y-113642925D01*
X138411858Y-113572105D01*
X138435249Y-113535647D01*
X138434198Y-113534817D01*
X138447748Y-113517660D01*
X138529754Y-113384620D01*
X138535901Y-113371439D01*
X138585241Y-113222686D01*
X138588108Y-113209310D01*
X138597422Y-113118403D01*
X138597679Y-113113374D01*
X138593275Y-113098376D01*
X138591885Y-113097171D01*
X138584202Y-113095500D01*
X136704750Y-113095500D01*
X136636629Y-113075498D01*
X136590136Y-113021842D01*
X136578750Y-112969500D01*
X136578750Y-112951115D01*
X136574275Y-112935876D01*
X136572885Y-112934671D01*
X136565202Y-112933000D01*
X134980866Y-112933000D01*
X134965627Y-112937475D01*
X134964422Y-112938865D01*
X134962751Y-112946548D01*
X134962751Y-113182000D01*
X134942749Y-113250121D01*
X134889093Y-113296614D01*
X134836751Y-113308000D01*
X134805250Y-113308000D01*
X134737129Y-113287998D01*
X134690636Y-113234342D01*
X134679250Y-113182000D01*
X134679250Y-112406885D01*
X134962750Y-112406885D01*
X134967225Y-112422124D01*
X134968615Y-112423329D01*
X134976298Y-112425000D01*
X135498635Y-112425000D01*
X135513874Y-112420525D01*
X135515079Y-112419135D01*
X135516750Y-112411452D01*
X135516750Y-112406885D01*
X136024750Y-112406885D01*
X136029225Y-112422124D01*
X136030615Y-112423329D01*
X136038298Y-112425000D01*
X136506811Y-112425000D01*
X136574932Y-112445002D01*
X136621425Y-112498658D01*
X136631746Y-112561357D01*
X136632242Y-112561382D01*
X136632126Y-112563660D01*
X136632155Y-112563839D01*
X136632078Y-112564589D01*
X136631821Y-112569626D01*
X136636225Y-112584624D01*
X136637615Y-112585829D01*
X136645298Y-112587500D01*
X137342635Y-112587500D01*
X137357874Y-112583025D01*
X137359079Y-112581635D01*
X137360750Y-112573952D01*
X137360750Y-112569385D01*
X137868750Y-112569385D01*
X137873225Y-112584624D01*
X137874615Y-112585829D01*
X137882298Y-112587500D01*
X138579635Y-112587500D01*
X138594874Y-112583025D01*
X138596079Y-112581635D01*
X138597750Y-112573952D01*
X138597750Y-112571062D01*
X138597413Y-112564547D01*
X138587856Y-112472443D01*
X138584962Y-112459044D01*
X138535369Y-112310393D01*
X138529195Y-112297214D01*
X138446962Y-112164327D01*
X138437926Y-112152926D01*
X138327321Y-112042514D01*
X138315910Y-112033502D01*
X138182870Y-111951496D01*
X138169689Y-111945349D01*
X138020936Y-111896009D01*
X138007560Y-111893142D01*
X137916653Y-111883828D01*
X137910236Y-111883500D01*
X137886865Y-111883500D01*
X137871626Y-111887975D01*
X137870421Y-111889365D01*
X137868750Y-111897048D01*
X137868750Y-112569385D01*
X137360750Y-112569385D01*
X137360750Y-111901615D01*
X137356275Y-111886376D01*
X137354885Y-111885171D01*
X137347202Y-111883500D01*
X137319312Y-111883500D01*
X137312797Y-111883837D01*
X137220693Y-111893394D01*
X137207294Y-111896288D01*
X137058643Y-111945881D01*
X137045464Y-111952055D01*
X136912577Y-112034288D01*
X136901176Y-112043324D01*
X136793922Y-112150765D01*
X136731639Y-112184844D01*
X136660819Y-112179841D01*
X136603947Y-112137344D01*
X136579078Y-112070845D01*
X136578749Y-112061747D01*
X136578749Y-112027517D01*
X136578555Y-112022580D01*
X136576320Y-111994164D01*
X136574020Y-111981569D01*
X136531643Y-111835710D01*
X136525398Y-111821279D01*
X136448839Y-111691822D01*
X136439199Y-111679396D01*
X136332854Y-111573051D01*
X136320428Y-111563411D01*
X136190971Y-111486852D01*
X136176540Y-111480607D01*
X136042145Y-111441561D01*
X136028044Y-111441601D01*
X136024750Y-111448870D01*
X136024750Y-112406885D01*
X135516750Y-112406885D01*
X135516750Y-111454622D01*
X135512777Y-111441091D01*
X135504879Y-111439956D01*
X135364960Y-111480607D01*
X135350529Y-111486852D01*
X135221072Y-111563411D01*
X135208646Y-111573051D01*
X135102301Y-111679396D01*
X135092661Y-111691822D01*
X135016102Y-111821279D01*
X135009857Y-111835710D01*
X134967481Y-111981565D01*
X134965180Y-111994167D01*
X134962943Y-112022584D01*
X134962750Y-112027514D01*
X134962750Y-112406885D01*
X134679250Y-112406885D01*
X134679250Y-112024998D01*
X134677322Y-112000501D01*
X134676817Y-111994079D01*
X134676816Y-111994074D01*
X134676312Y-111987669D01*
X134635469Y-111847084D01*
X134632107Y-111835512D01*
X134632106Y-111835510D01*
X134629895Y-111827899D01*
X134600308Y-111777870D01*
X134549241Y-111691520D01*
X134549239Y-111691517D01*
X134545203Y-111684693D01*
X134427557Y-111567047D01*
X134420733Y-111563011D01*
X134420730Y-111563009D01*
X134291177Y-111486392D01*
X134291178Y-111486392D01*
X134284351Y-111482355D01*
X134276740Y-111480144D01*
X134276738Y-111480143D01*
X134216997Y-111462787D01*
X134124581Y-111435938D01*
X134118176Y-111435434D01*
X134118171Y-111435433D01*
X134089708Y-111433193D01*
X134089700Y-111433193D01*
X134087252Y-111433000D01*
X133654248Y-111433000D01*
X133651800Y-111433193D01*
X133651792Y-111433193D01*
X133623329Y-111435433D01*
X133623324Y-111435434D01*
X133616919Y-111435938D01*
X133524503Y-111462787D01*
X133464762Y-111480143D01*
X133464760Y-111480144D01*
X133457149Y-111482355D01*
X133450322Y-111486392D01*
X133450323Y-111486392D01*
X133320770Y-111563009D01*
X133320767Y-111563011D01*
X133313943Y-111567047D01*
X133196297Y-111684693D01*
X133192261Y-111691517D01*
X133192259Y-111691520D01*
X133141192Y-111777870D01*
X133111605Y-111827899D01*
X133109394Y-111835510D01*
X133109393Y-111835512D01*
X133106031Y-111847084D01*
X133065188Y-111987669D01*
X133064684Y-111994074D01*
X133064683Y-111994079D01*
X133064178Y-112000501D01*
X133062250Y-112024998D01*
X133062250Y-113333002D01*
X133062443Y-113335450D01*
X133062443Y-113335458D01*
X133064167Y-113357355D01*
X133065188Y-113370331D01*
X133087994Y-113448831D01*
X133107991Y-113517660D01*
X133111605Y-113530101D01*
X133115642Y-113536927D01*
X133192259Y-113666480D01*
X133192261Y-113666483D01*
X133196297Y-113673307D01*
X133201905Y-113678915D01*
X133206761Y-113685175D01*
X133205254Y-113686344D01*
X133234371Y-113739667D01*
X133237250Y-113766450D01*
X133237250Y-115757983D01*
X133236723Y-115769166D01*
X133235048Y-115776659D01*
X133235297Y-115784585D01*
X133235297Y-115784586D01*
X133237188Y-115844736D01*
X133237250Y-115848695D01*
X133237250Y-115876606D01*
X133237747Y-115880540D01*
X133237747Y-115880541D01*
X133237755Y-115880606D01*
X133238688Y-115892443D01*
X133240077Y-115936639D01*
X133245479Y-115955233D01*
X133245728Y-115956089D01*
X133249737Y-115975450D01*
X133252276Y-115995547D01*
X133255195Y-116002918D01*
X133255195Y-116002920D01*
X133268554Y-116036662D01*
X133272399Y-116047892D01*
X133282521Y-116082733D01*
X133284732Y-116090343D01*
X133288765Y-116097162D01*
X133288767Y-116097167D01*
X133295043Y-116107778D01*
X133303738Y-116125526D01*
X133311198Y-116144367D01*
X133315860Y-116150783D01*
X133315860Y-116150784D01*
X133337186Y-116180137D01*
X133343702Y-116190057D01*
X133348481Y-116198137D01*
X133366208Y-116228112D01*
X133380529Y-116242433D01*
X133393369Y-116257466D01*
X133405278Y-116273857D01*
X133422665Y-116288241D01*
X133439355Y-116302048D01*
X133448134Y-116310038D01*
X135161500Y-118023405D01*
X135195526Y-118085717D01*
X135190461Y-118156533D01*
X135147914Y-118213368D01*
X135081394Y-118238179D01*
X135072405Y-118238500D01*
X113218094Y-118238500D01*
X113149973Y-118218498D01*
X113128999Y-118201595D01*
X110688500Y-115761095D01*
X110654474Y-115698783D01*
X110659539Y-115627967D01*
X110702086Y-115571132D01*
X110768606Y-115546321D01*
X110777595Y-115546000D01*
X110907252Y-115546000D01*
X110909700Y-115545807D01*
X110909708Y-115545807D01*
X110938171Y-115543567D01*
X110938176Y-115543566D01*
X110944581Y-115543062D01*
X111086404Y-115501859D01*
X111157401Y-115502062D01*
X111195618Y-115520920D01*
X111273297Y-115577357D01*
X111303248Y-115599118D01*
X111309276Y-115601802D01*
X111309278Y-115601803D01*
X111471677Y-115674107D01*
X111477712Y-115676794D01*
X111571113Y-115696647D01*
X111658056Y-115715128D01*
X111658061Y-115715128D01*
X111664513Y-115716500D01*
X111855487Y-115716500D01*
X111861939Y-115715128D01*
X111861944Y-115715128D01*
X112021225Y-115681271D01*
X112042288Y-115676794D01*
X112048321Y-115674108D01*
X112048324Y-115674107D01*
X112055562Y-115670884D01*
X112125929Y-115661449D01*
X112190226Y-115691555D01*
X112215931Y-115722989D01*
X112290960Y-115852944D01*
X112295378Y-115857851D01*
X112295379Y-115857852D01*
X112380855Y-115952783D01*
X112418747Y-115994866D01*
X112483870Y-116042181D01*
X112559552Y-116097167D01*
X112573248Y-116107118D01*
X112579276Y-116109802D01*
X112579278Y-116109803D01*
X112734220Y-116178787D01*
X112747712Y-116184794D01*
X112810486Y-116198137D01*
X112928056Y-116223128D01*
X112928061Y-116223128D01*
X112934513Y-116224500D01*
X113125487Y-116224500D01*
X113131939Y-116223128D01*
X113131944Y-116223128D01*
X113249514Y-116198137D01*
X113312288Y-116184794D01*
X113325780Y-116178787D01*
X113480722Y-116109803D01*
X113480724Y-116109802D01*
X113486752Y-116107118D01*
X113500449Y-116097167D01*
X113576130Y-116042181D01*
X113641253Y-115994866D01*
X113679145Y-115952783D01*
X113764621Y-115857852D01*
X113764622Y-115857851D01*
X113769040Y-115852944D01*
X113844069Y-115722990D01*
X113861223Y-115693279D01*
X113861224Y-115693278D01*
X113864527Y-115687556D01*
X113923542Y-115505928D01*
X113925546Y-115486866D01*
X113936770Y-115380072D01*
X113941183Y-115338079D01*
X113968196Y-115272423D01*
X113974642Y-115264998D01*
X113984412Y-115254594D01*
X114001336Y-115236571D01*
X114005157Y-115229621D01*
X114011096Y-115218818D01*
X114021952Y-115202291D01*
X114029507Y-115192552D01*
X114029508Y-115192550D01*
X114034364Y-115186290D01*
X114051924Y-115145710D01*
X114057141Y-115135062D01*
X114074625Y-115103259D01*
X114074626Y-115103257D01*
X114078445Y-115096310D01*
X114083483Y-115076687D01*
X114089887Y-115057984D01*
X114094781Y-115046675D01*
X114094782Y-115046673D01*
X114097931Y-115039395D01*
X114098306Y-115037027D01*
X114135194Y-114979267D01*
X114151675Y-114967111D01*
X114187243Y-114945101D01*
X114193463Y-114941252D01*
X114314302Y-114820202D01*
X114347554Y-114766257D01*
X114400212Y-114680831D01*
X114400213Y-114680829D01*
X114404052Y-114674601D01*
X114457899Y-114512257D01*
X114460834Y-114483617D01*
X114462833Y-114464099D01*
X114468250Y-114411232D01*
X114468250Y-113863768D01*
X114467878Y-113860176D01*
X114462564Y-113808967D01*
X114457637Y-113761481D01*
X114435815Y-113696073D01*
X114405823Y-113606176D01*
X114405822Y-113606174D01*
X114403506Y-113599232D01*
X114397410Y-113589380D01*
X114317356Y-113460015D01*
X114313502Y-113453787D01*
X114308320Y-113448614D01*
X114303773Y-113442877D01*
X114305580Y-113441445D01*
X114276848Y-113388925D01*
X114281858Y-113318105D01*
X114305249Y-113281647D01*
X114304198Y-113280817D01*
X114317748Y-113263660D01*
X114399754Y-113130620D01*
X114405901Y-113117439D01*
X114455241Y-112968686D01*
X114458108Y-112955310D01*
X114467422Y-112864403D01*
X114467679Y-112859374D01*
X114463275Y-112844376D01*
X114461885Y-112843171D01*
X114454202Y-112841500D01*
X112574750Y-112841500D01*
X112506629Y-112821498D01*
X112460136Y-112767842D01*
X112448750Y-112715500D01*
X112448750Y-112697115D01*
X112444275Y-112681876D01*
X112442885Y-112680671D01*
X112435202Y-112679000D01*
X110850866Y-112679000D01*
X110835627Y-112683475D01*
X110834422Y-112684865D01*
X110832751Y-112692548D01*
X110832751Y-112928000D01*
X110812749Y-112996121D01*
X110759093Y-113042614D01*
X110706751Y-113054000D01*
X110675250Y-113054000D01*
X110607129Y-113033998D01*
X110560636Y-112980342D01*
X110549250Y-112928000D01*
X110549250Y-112152885D01*
X110832750Y-112152885D01*
X110837225Y-112168124D01*
X110838615Y-112169329D01*
X110846298Y-112171000D01*
X111368635Y-112171000D01*
X111383874Y-112166525D01*
X111385079Y-112165135D01*
X111386750Y-112157452D01*
X111386750Y-112152885D01*
X111894750Y-112152885D01*
X111899225Y-112168124D01*
X111900615Y-112169329D01*
X111908298Y-112171000D01*
X112376811Y-112171000D01*
X112444932Y-112191002D01*
X112491425Y-112244658D01*
X112501746Y-112307357D01*
X112502242Y-112307382D01*
X112502126Y-112309660D01*
X112502155Y-112309839D01*
X112502078Y-112310589D01*
X112501821Y-112315626D01*
X112506225Y-112330624D01*
X112507615Y-112331829D01*
X112515298Y-112333500D01*
X113212635Y-112333500D01*
X113227874Y-112329025D01*
X113229079Y-112327635D01*
X113230750Y-112319952D01*
X113230750Y-112315385D01*
X113738750Y-112315385D01*
X113743225Y-112330624D01*
X113744615Y-112331829D01*
X113752298Y-112333500D01*
X114449635Y-112333500D01*
X114464874Y-112329025D01*
X114466079Y-112327635D01*
X114467750Y-112319952D01*
X114467750Y-112317062D01*
X114467413Y-112310547D01*
X114457856Y-112218443D01*
X114454962Y-112205044D01*
X114405369Y-112056393D01*
X114399195Y-112043214D01*
X114316962Y-111910327D01*
X114307926Y-111898926D01*
X114197321Y-111788514D01*
X114185910Y-111779502D01*
X114052870Y-111697496D01*
X114039689Y-111691349D01*
X113890936Y-111642009D01*
X113877560Y-111639142D01*
X113786653Y-111629828D01*
X113780236Y-111629500D01*
X113756865Y-111629500D01*
X113741626Y-111633975D01*
X113740421Y-111635365D01*
X113738750Y-111643048D01*
X113738750Y-112315385D01*
X113230750Y-112315385D01*
X113230750Y-111647615D01*
X113226275Y-111632376D01*
X113224885Y-111631171D01*
X113217202Y-111629500D01*
X113189312Y-111629500D01*
X113182797Y-111629837D01*
X113090693Y-111639394D01*
X113077294Y-111642288D01*
X112928643Y-111691881D01*
X112915464Y-111698055D01*
X112782577Y-111780288D01*
X112771176Y-111789324D01*
X112663922Y-111896765D01*
X112601639Y-111930844D01*
X112530819Y-111925841D01*
X112473947Y-111883344D01*
X112449078Y-111816845D01*
X112448749Y-111807747D01*
X112448749Y-111773517D01*
X112448555Y-111768580D01*
X112446320Y-111740164D01*
X112444020Y-111727569D01*
X112401643Y-111581710D01*
X112395398Y-111567279D01*
X112318839Y-111437822D01*
X112309199Y-111425396D01*
X112202854Y-111319051D01*
X112190428Y-111309411D01*
X112060971Y-111232852D01*
X112046540Y-111226607D01*
X111912145Y-111187561D01*
X111898044Y-111187601D01*
X111894750Y-111194870D01*
X111894750Y-112152885D01*
X111386750Y-112152885D01*
X111386750Y-111200622D01*
X111382777Y-111187091D01*
X111374879Y-111185956D01*
X111234960Y-111226607D01*
X111220529Y-111232852D01*
X111091072Y-111309411D01*
X111078646Y-111319051D01*
X110972301Y-111425396D01*
X110962661Y-111437822D01*
X110886102Y-111567279D01*
X110879857Y-111581710D01*
X110837481Y-111727565D01*
X110835180Y-111740167D01*
X110832943Y-111768584D01*
X110832750Y-111773514D01*
X110832750Y-112152885D01*
X110549250Y-112152885D01*
X110549250Y-111770998D01*
X110548219Y-111757896D01*
X110546817Y-111740079D01*
X110546816Y-111740074D01*
X110546312Y-111733669D01*
X110505505Y-111593209D01*
X110502107Y-111581512D01*
X110502106Y-111581510D01*
X110499895Y-111573899D01*
X110480685Y-111541416D01*
X110419241Y-111437520D01*
X110419239Y-111437517D01*
X110415203Y-111430693D01*
X110297557Y-111313047D01*
X110290733Y-111309011D01*
X110290730Y-111309009D01*
X110161177Y-111232392D01*
X110161178Y-111232392D01*
X110154351Y-111228355D01*
X110146740Y-111226144D01*
X110146738Y-111226143D01*
X110049564Y-111197912D01*
X109994581Y-111181938D01*
X109988176Y-111181434D01*
X109988171Y-111181433D01*
X109959708Y-111179193D01*
X109959700Y-111179193D01*
X109957252Y-111179000D01*
X109524248Y-111179000D01*
X109521800Y-111179193D01*
X109521792Y-111179193D01*
X109493329Y-111181433D01*
X109493324Y-111181434D01*
X109486919Y-111181938D01*
X109431936Y-111197912D01*
X109334762Y-111226143D01*
X109334760Y-111226144D01*
X109327149Y-111228355D01*
X109320322Y-111232392D01*
X109320323Y-111232392D01*
X109190770Y-111309009D01*
X109190767Y-111309011D01*
X109183943Y-111313047D01*
X109066297Y-111430693D01*
X109062261Y-111437517D01*
X109062259Y-111437520D01*
X109000815Y-111541416D01*
X108981605Y-111573899D01*
X108979394Y-111581510D01*
X108979393Y-111581512D01*
X108975995Y-111593209D01*
X108935188Y-111733669D01*
X108934684Y-111740074D01*
X108934683Y-111740079D01*
X108933281Y-111757896D01*
X108932250Y-111770998D01*
X108932250Y-113079002D01*
X108932443Y-113081450D01*
X108932443Y-113081458D01*
X108934585Y-113108668D01*
X108935188Y-113116331D01*
X108954381Y-113182393D01*
X108977991Y-113263660D01*
X108981605Y-113276101D01*
X108985642Y-113282927D01*
X109062259Y-113412480D01*
X109062261Y-113412483D01*
X109066297Y-113419307D01*
X109071905Y-113424915D01*
X109076761Y-113431175D01*
X109075254Y-113432344D01*
X109104371Y-113485667D01*
X109107250Y-113512450D01*
X109107250Y-115630483D01*
X109106723Y-115641666D01*
X109105048Y-115649159D01*
X109105297Y-115657085D01*
X109105297Y-115657086D01*
X109107188Y-115717236D01*
X109107250Y-115721195D01*
X109107250Y-115749106D01*
X109107747Y-115753040D01*
X109107747Y-115753041D01*
X109107755Y-115753106D01*
X109108688Y-115764943D01*
X109110077Y-115809139D01*
X109115728Y-115828589D01*
X109119737Y-115847950D01*
X109122276Y-115868047D01*
X109125195Y-115875418D01*
X109125195Y-115875420D01*
X109138554Y-115909162D01*
X109142399Y-115920392D01*
X109149329Y-115944247D01*
X109154732Y-115962843D01*
X109158765Y-115969662D01*
X109158767Y-115969667D01*
X109165043Y-115980278D01*
X109173738Y-115998026D01*
X109181198Y-116016867D01*
X109185860Y-116023283D01*
X109185860Y-116023284D01*
X109207186Y-116052637D01*
X109213702Y-116062557D01*
X109230135Y-116090343D01*
X109236208Y-116100612D01*
X109250529Y-116114933D01*
X109263369Y-116129966D01*
X109275278Y-116146357D01*
X109281384Y-116151408D01*
X109309355Y-116174548D01*
X109318134Y-116182538D01*
X111921000Y-118785405D01*
X111955026Y-118847717D01*
X111949961Y-118918533D01*
X111907414Y-118975368D01*
X111840894Y-119000179D01*
X111831905Y-119000500D01*
X110042595Y-119000500D01*
X109974474Y-118980498D01*
X109953500Y-118963595D01*
X101762405Y-110772500D01*
X101728379Y-110710188D01*
X101725500Y-110683405D01*
X101725500Y-93828000D01*
X101745502Y-93759879D01*
X101799158Y-93713386D01*
X101851500Y-93702000D01*
X102258502Y-93702000D01*
X102260950Y-93701807D01*
X102260958Y-93701807D01*
X102289421Y-93699567D01*
X102289426Y-93699566D01*
X102295831Y-93699062D01*
X102446762Y-93655213D01*
X102517759Y-93655416D01*
X102555976Y-93674274D01*
X102659516Y-93749500D01*
X102667248Y-93755118D01*
X102673276Y-93757802D01*
X102673278Y-93757803D01*
X102829947Y-93827556D01*
X102841712Y-93832794D01*
X102918016Y-93849013D01*
X103022056Y-93871128D01*
X103022061Y-93871128D01*
X103028513Y-93872500D01*
X103219487Y-93872500D01*
X103225939Y-93871128D01*
X103225944Y-93871128D01*
X103329984Y-93849013D01*
X103406288Y-93832794D01*
X103418053Y-93827556D01*
X103574722Y-93757803D01*
X103574724Y-93757802D01*
X103580752Y-93755118D01*
X103588485Y-93749500D01*
X103657906Y-93699062D01*
X103735253Y-93642866D01*
X103772378Y-93601635D01*
X103832820Y-93564397D01*
X103903803Y-93565748D01*
X103962788Y-93605261D01*
X103991047Y-93670392D01*
X103991321Y-93699115D01*
X103989186Y-93719432D01*
X103988496Y-93726000D01*
X103989186Y-93732565D01*
X104006863Y-93900749D01*
X104008458Y-93915928D01*
X104067473Y-94097556D01*
X104162960Y-94262944D01*
X104167378Y-94267851D01*
X104167379Y-94267852D01*
X104286325Y-94399955D01*
X104290747Y-94404866D01*
X104333751Y-94436110D01*
X104437319Y-94511357D01*
X104445248Y-94517118D01*
X104451276Y-94519802D01*
X104451278Y-94519803D01*
X104604203Y-94587889D01*
X104619712Y-94594794D01*
X104701215Y-94612118D01*
X104800056Y-94633128D01*
X104800061Y-94633128D01*
X104806513Y-94634500D01*
X104997487Y-94634500D01*
X105003939Y-94633128D01*
X105003944Y-94633128D01*
X105102785Y-94612118D01*
X105184288Y-94594794D01*
X105199797Y-94587889D01*
X105352722Y-94519803D01*
X105352724Y-94519802D01*
X105358752Y-94517118D01*
X105366682Y-94511357D01*
X105470249Y-94436110D01*
X105513253Y-94404866D01*
X105517675Y-94399955D01*
X105636621Y-94267852D01*
X105636622Y-94267851D01*
X105641040Y-94262944D01*
X105736527Y-94097556D01*
X105795542Y-93915928D01*
X105797138Y-93900749D01*
X105814814Y-93732565D01*
X105815504Y-93726000D01*
X105807582Y-93650627D01*
X105796232Y-93542635D01*
X105796232Y-93542633D01*
X105795542Y-93536072D01*
X105736527Y-93354444D01*
X105722103Y-93329460D01*
X105644343Y-93194777D01*
X105641040Y-93189056D01*
X105631836Y-93178834D01*
X105601119Y-93114826D01*
X105609882Y-93044373D01*
X105636301Y-93005504D01*
X105660378Y-92981386D01*
X105660382Y-92981381D01*
X105665552Y-92976202D01*
X105669393Y-92969971D01*
X105751462Y-92836831D01*
X105751463Y-92836829D01*
X105755302Y-92830601D01*
X105809149Y-92668257D01*
X105810115Y-92658834D01*
X105819172Y-92570430D01*
X105819500Y-92567232D01*
X105819500Y-92019768D01*
X105808887Y-91917481D01*
X105791372Y-91864982D01*
X105757073Y-91762176D01*
X105757072Y-91762174D01*
X105754756Y-91755232D01*
X105736770Y-91726166D01*
X105668606Y-91616015D01*
X105664752Y-91609787D01*
X105659570Y-91604614D01*
X105655023Y-91598877D01*
X105656830Y-91597445D01*
X105628098Y-91544925D01*
X105633108Y-91474105D01*
X105656499Y-91437647D01*
X105655448Y-91436817D01*
X105668998Y-91419660D01*
X105751004Y-91286620D01*
X105757151Y-91273439D01*
X105806491Y-91124686D01*
X105809358Y-91111310D01*
X105818672Y-91020403D01*
X105818929Y-91015374D01*
X105814525Y-91000376D01*
X105813135Y-90999171D01*
X105805452Y-90997500D01*
X103926000Y-90997500D01*
X103857879Y-90977498D01*
X103811386Y-90923842D01*
X103800000Y-90871500D01*
X103800000Y-90853115D01*
X103795525Y-90837876D01*
X103794135Y-90836671D01*
X103786452Y-90835000D01*
X102202116Y-90835000D01*
X102186877Y-90839475D01*
X102185672Y-90840865D01*
X102184001Y-90848548D01*
X102184001Y-91084000D01*
X102163999Y-91152121D01*
X102110343Y-91198614D01*
X102058001Y-91210000D01*
X102026500Y-91210000D01*
X101958379Y-91189998D01*
X101911886Y-91136342D01*
X101900500Y-91084000D01*
X101900500Y-90308885D01*
X102184000Y-90308885D01*
X102188475Y-90324124D01*
X102189865Y-90325329D01*
X102197548Y-90327000D01*
X102719885Y-90327000D01*
X102735124Y-90322525D01*
X102736329Y-90321135D01*
X102738000Y-90313452D01*
X102738000Y-90308885D01*
X103246000Y-90308885D01*
X103250475Y-90324124D01*
X103251865Y-90325329D01*
X103259548Y-90327000D01*
X103728061Y-90327000D01*
X103796182Y-90347002D01*
X103842675Y-90400658D01*
X103852996Y-90463357D01*
X103853492Y-90463382D01*
X103853376Y-90465660D01*
X103853405Y-90465839D01*
X103853328Y-90466589D01*
X103853071Y-90471626D01*
X103857475Y-90486624D01*
X103858865Y-90487829D01*
X103866548Y-90489500D01*
X104563885Y-90489500D01*
X104579124Y-90485025D01*
X104580329Y-90483635D01*
X104582000Y-90475952D01*
X104582000Y-90471385D01*
X105090000Y-90471385D01*
X105094475Y-90486624D01*
X105095865Y-90487829D01*
X105103548Y-90489500D01*
X105800885Y-90489500D01*
X105816124Y-90485025D01*
X105817329Y-90483635D01*
X105819000Y-90475952D01*
X105819000Y-90473062D01*
X105818663Y-90466547D01*
X105809106Y-90374443D01*
X105806212Y-90361044D01*
X105756619Y-90212393D01*
X105750445Y-90199214D01*
X105668212Y-90066327D01*
X105659176Y-90054926D01*
X105548571Y-89944514D01*
X105537160Y-89935502D01*
X105404120Y-89853496D01*
X105390939Y-89847349D01*
X105242186Y-89798009D01*
X105228810Y-89795142D01*
X105137903Y-89785828D01*
X105131486Y-89785500D01*
X105108115Y-89785500D01*
X105092876Y-89789975D01*
X105091671Y-89791365D01*
X105090000Y-89799048D01*
X105090000Y-90471385D01*
X104582000Y-90471385D01*
X104582000Y-89803615D01*
X104577525Y-89788376D01*
X104576135Y-89787171D01*
X104568452Y-89785500D01*
X104540562Y-89785500D01*
X104534047Y-89785837D01*
X104441943Y-89795394D01*
X104428544Y-89798288D01*
X104279893Y-89847881D01*
X104266714Y-89854055D01*
X104133827Y-89936288D01*
X104122426Y-89945324D01*
X104015172Y-90052765D01*
X103952889Y-90086844D01*
X103882069Y-90081841D01*
X103825197Y-90039344D01*
X103800328Y-89972845D01*
X103799999Y-89963747D01*
X103799999Y-89929517D01*
X103799805Y-89924580D01*
X103797570Y-89896164D01*
X103795270Y-89883569D01*
X103752893Y-89737710D01*
X103746648Y-89723279D01*
X103670089Y-89593822D01*
X103660449Y-89581396D01*
X103554104Y-89475051D01*
X103541678Y-89465411D01*
X103412221Y-89388852D01*
X103397790Y-89382607D01*
X103263395Y-89343561D01*
X103249294Y-89343601D01*
X103246000Y-89350870D01*
X103246000Y-90308885D01*
X102738000Y-90308885D01*
X102738000Y-89356622D01*
X102734027Y-89343091D01*
X102726129Y-89341956D01*
X102586210Y-89382607D01*
X102571779Y-89388852D01*
X102442322Y-89465411D01*
X102429896Y-89475051D01*
X102323551Y-89581396D01*
X102313911Y-89593822D01*
X102237352Y-89723279D01*
X102231107Y-89737710D01*
X102188731Y-89883565D01*
X102186430Y-89896167D01*
X102184193Y-89924584D01*
X102184000Y-89929514D01*
X102184000Y-90308885D01*
X101900500Y-90308885D01*
X101900500Y-89926998D01*
X101900307Y-89924542D01*
X101898067Y-89896079D01*
X101898066Y-89896074D01*
X101897562Y-89889669D01*
X101867253Y-89785344D01*
X101853357Y-89737512D01*
X101853356Y-89737510D01*
X101851145Y-89729899D01*
X101822523Y-89681502D01*
X101770491Y-89593520D01*
X101770489Y-89593517D01*
X101766453Y-89586693D01*
X101648807Y-89469047D01*
X101641983Y-89465011D01*
X101641980Y-89465009D01*
X101512427Y-89388392D01*
X101512428Y-89388392D01*
X101505601Y-89384355D01*
X101497990Y-89382144D01*
X101497988Y-89382143D01*
X101432536Y-89363128D01*
X101345831Y-89337938D01*
X101339426Y-89337434D01*
X101339421Y-89337433D01*
X101310958Y-89335193D01*
X101310950Y-89335193D01*
X101308502Y-89335000D01*
X100875498Y-89335000D01*
X100873050Y-89335193D01*
X100873042Y-89335193D01*
X100844579Y-89337433D01*
X100844574Y-89337434D01*
X100838169Y-89337938D01*
X100751464Y-89363128D01*
X100686012Y-89382143D01*
X100686010Y-89382144D01*
X100678399Y-89384355D01*
X100671572Y-89388392D01*
X100671573Y-89388392D01*
X100542020Y-89465009D01*
X100542017Y-89465011D01*
X100535193Y-89469047D01*
X100417547Y-89586693D01*
X100413511Y-89593517D01*
X100413509Y-89593520D01*
X100361477Y-89681502D01*
X100332855Y-89729899D01*
X100330644Y-89737510D01*
X100330643Y-89737512D01*
X100316747Y-89785344D01*
X100286438Y-89889669D01*
X100285934Y-89896074D01*
X100285933Y-89896079D01*
X100283693Y-89924542D01*
X100283500Y-89926998D01*
X100283500Y-91235002D01*
X100283693Y-91237450D01*
X100283693Y-91237458D01*
X100285873Y-91265148D01*
X100286438Y-91272331D01*
X100307837Y-91345988D01*
X100329241Y-91419660D01*
X100332855Y-91432101D01*
X100336892Y-91438927D01*
X100413509Y-91568480D01*
X100413511Y-91568483D01*
X100417547Y-91575307D01*
X100423155Y-91580915D01*
X100428011Y-91587175D01*
X100426504Y-91588344D01*
X100455621Y-91641667D01*
X100458500Y-91668450D01*
X100458500Y-110919233D01*
X100457973Y-110930416D01*
X100456298Y-110937909D01*
X100456547Y-110945835D01*
X100456547Y-110945836D01*
X100458438Y-111005986D01*
X100458500Y-111009945D01*
X100458500Y-111037856D01*
X100458997Y-111041790D01*
X100458997Y-111041791D01*
X100459005Y-111041856D01*
X100459938Y-111053693D01*
X100461327Y-111097889D01*
X100466150Y-111114489D01*
X100466978Y-111117339D01*
X100470987Y-111136700D01*
X100473526Y-111156797D01*
X100476445Y-111164168D01*
X100476445Y-111164170D01*
X100489804Y-111197912D01*
X100493649Y-111209142D01*
X100505982Y-111251593D01*
X100510015Y-111258412D01*
X100510017Y-111258417D01*
X100516293Y-111269028D01*
X100524988Y-111286776D01*
X100532448Y-111305617D01*
X100537110Y-111312033D01*
X100537110Y-111312034D01*
X100558436Y-111341387D01*
X100564952Y-111351307D01*
X100581258Y-111378878D01*
X100587458Y-111389362D01*
X100601779Y-111403683D01*
X100614619Y-111418716D01*
X100626528Y-111435107D01*
X100634330Y-111441561D01*
X100660605Y-111463298D01*
X100669384Y-111471288D01*
X108745501Y-119547405D01*
X108779527Y-119609717D01*
X108774462Y-119680532D01*
X108731915Y-119737368D01*
X108665395Y-119762179D01*
X108656406Y-119762500D01*
X90738595Y-119762500D01*
X90670474Y-119742498D01*
X90649500Y-119725595D01*
X86763500Y-115839595D01*
X86729474Y-115777283D01*
X86734539Y-115706468D01*
X86777086Y-115649632D01*
X86843606Y-115624821D01*
X86852595Y-115624500D01*
X87031252Y-115624500D01*
X87033700Y-115624307D01*
X87033708Y-115624307D01*
X87062171Y-115622067D01*
X87062176Y-115622066D01*
X87068581Y-115621562D01*
X87168519Y-115592528D01*
X87220738Y-115577357D01*
X87220740Y-115577356D01*
X87228351Y-115575145D01*
X87235175Y-115571109D01*
X87235178Y-115571108D01*
X87248569Y-115563189D01*
X87317385Y-115545730D01*
X87386769Y-115569708D01*
X87427248Y-115599118D01*
X87433276Y-115601802D01*
X87433278Y-115601803D01*
X87595677Y-115674107D01*
X87601712Y-115676794D01*
X87695113Y-115696647D01*
X87782056Y-115715128D01*
X87782061Y-115715128D01*
X87788513Y-115716500D01*
X87979487Y-115716500D01*
X87985939Y-115715128D01*
X87985944Y-115715128D01*
X88145225Y-115681271D01*
X88166288Y-115676794D01*
X88172321Y-115674108D01*
X88172324Y-115674107D01*
X88179562Y-115670884D01*
X88249929Y-115661449D01*
X88314226Y-115691555D01*
X88339931Y-115722989D01*
X88414960Y-115852944D01*
X88419378Y-115857851D01*
X88419379Y-115857852D01*
X88504855Y-115952783D01*
X88542747Y-115994866D01*
X88607870Y-116042181D01*
X88683552Y-116097167D01*
X88697248Y-116107118D01*
X88703276Y-116109802D01*
X88703278Y-116109803D01*
X88858220Y-116178787D01*
X88871712Y-116184794D01*
X88934486Y-116198137D01*
X89052056Y-116223128D01*
X89052061Y-116223128D01*
X89058513Y-116224500D01*
X89249487Y-116224500D01*
X89255939Y-116223128D01*
X89255944Y-116223128D01*
X89373514Y-116198137D01*
X89436288Y-116184794D01*
X89449780Y-116178787D01*
X89604722Y-116109803D01*
X89604724Y-116109802D01*
X89610752Y-116107118D01*
X89624449Y-116097167D01*
X89700130Y-116042181D01*
X89765253Y-115994866D01*
X89803145Y-115952783D01*
X89888621Y-115857852D01*
X89888622Y-115857851D01*
X89893040Y-115852944D01*
X89968069Y-115722990D01*
X89985223Y-115693279D01*
X89985224Y-115693278D01*
X89988527Y-115687556D01*
X90047542Y-115505928D01*
X90049546Y-115486866D01*
X90066814Y-115322565D01*
X90067504Y-115316000D01*
X90060726Y-115251508D01*
X90048233Y-115132642D01*
X90048232Y-115132638D01*
X90047542Y-115126072D01*
X90045501Y-115119790D01*
X90045332Y-115118996D01*
X90050734Y-115048205D01*
X90079406Y-115003781D01*
X90179131Y-114903882D01*
X90184302Y-114898702D01*
X90274052Y-114753101D01*
X90327899Y-114590757D01*
X90329921Y-114571028D01*
X90334631Y-114525056D01*
X90338250Y-114489732D01*
X90338250Y-113942268D01*
X90337878Y-113938676D01*
X90333864Y-113899998D01*
X90327637Y-113839981D01*
X90305670Y-113774137D01*
X90275823Y-113684676D01*
X90275822Y-113684674D01*
X90273506Y-113677732D01*
X90267410Y-113667880D01*
X90187356Y-113538515D01*
X90183502Y-113532287D01*
X90178320Y-113527114D01*
X90173773Y-113521377D01*
X90175580Y-113519945D01*
X90146848Y-113467425D01*
X90151858Y-113396605D01*
X90175249Y-113360147D01*
X90174198Y-113359317D01*
X90187748Y-113342160D01*
X90269754Y-113209120D01*
X90275901Y-113195939D01*
X90325241Y-113047186D01*
X90328108Y-113033810D01*
X90337422Y-112942903D01*
X90337679Y-112937874D01*
X90333275Y-112922876D01*
X90331885Y-112921671D01*
X90324202Y-112920000D01*
X88457750Y-112920000D01*
X88389629Y-112899998D01*
X88343136Y-112846342D01*
X88331750Y-112794000D01*
X88331750Y-112775615D01*
X88327275Y-112760376D01*
X88325885Y-112759171D01*
X88318202Y-112757500D01*
X86974866Y-112757500D01*
X86959627Y-112761975D01*
X86958422Y-112763365D01*
X86956751Y-112771048D01*
X86956751Y-113006500D01*
X86936749Y-113074621D01*
X86883093Y-113121114D01*
X86830751Y-113132500D01*
X86799250Y-113132500D01*
X86731129Y-113112498D01*
X86684636Y-113058842D01*
X86673250Y-113006500D01*
X86673250Y-112231385D01*
X86956750Y-112231385D01*
X86961225Y-112246624D01*
X86962615Y-112247829D01*
X86970298Y-112249500D01*
X87492635Y-112249500D01*
X87507874Y-112245025D01*
X87509079Y-112243635D01*
X87510750Y-112235952D01*
X87510750Y-112231385D01*
X88018750Y-112231385D01*
X88023225Y-112246624D01*
X88024615Y-112247829D01*
X88032298Y-112249500D01*
X88486750Y-112249500D01*
X88554871Y-112269502D01*
X88601364Y-112323158D01*
X88612750Y-112375500D01*
X88612750Y-112393885D01*
X88617225Y-112409124D01*
X88618615Y-112410329D01*
X88626298Y-112412000D01*
X89082635Y-112412000D01*
X89097874Y-112407525D01*
X89099079Y-112406135D01*
X89100750Y-112398452D01*
X89100750Y-112393885D01*
X89608750Y-112393885D01*
X89613225Y-112409124D01*
X89614615Y-112410329D01*
X89622298Y-112412000D01*
X90319635Y-112412000D01*
X90334874Y-112407525D01*
X90336079Y-112406135D01*
X90337750Y-112398452D01*
X90337750Y-112395562D01*
X90337413Y-112389047D01*
X90327856Y-112296943D01*
X90324962Y-112283544D01*
X90275369Y-112134893D01*
X90269195Y-112121714D01*
X90186962Y-111988827D01*
X90177926Y-111977426D01*
X90067321Y-111867014D01*
X90055910Y-111858002D01*
X89922870Y-111775996D01*
X89909689Y-111769849D01*
X89760936Y-111720509D01*
X89747560Y-111717642D01*
X89656653Y-111708328D01*
X89650236Y-111708000D01*
X89626865Y-111708000D01*
X89611626Y-111712475D01*
X89610421Y-111713865D01*
X89608750Y-111721548D01*
X89608750Y-112393885D01*
X89100750Y-112393885D01*
X89100750Y-111726115D01*
X89096275Y-111710876D01*
X89094885Y-111709671D01*
X89087202Y-111708000D01*
X89059312Y-111708000D01*
X89052797Y-111708337D01*
X88960693Y-111717894D01*
X88947294Y-111720788D01*
X88798643Y-111770381D01*
X88785471Y-111776552D01*
X88734917Y-111807835D01*
X88666464Y-111826672D01*
X88598695Y-111805510D01*
X88553124Y-111751069D01*
X88547617Y-111735843D01*
X88525644Y-111660212D01*
X88519398Y-111645779D01*
X88442839Y-111516322D01*
X88433199Y-111503896D01*
X88326854Y-111397551D01*
X88314428Y-111387911D01*
X88184971Y-111311352D01*
X88170540Y-111305107D01*
X88036145Y-111266061D01*
X88022044Y-111266101D01*
X88018750Y-111273370D01*
X88018750Y-112231385D01*
X87510750Y-112231385D01*
X87510750Y-111279122D01*
X87506777Y-111265591D01*
X87498879Y-111264456D01*
X87358960Y-111305107D01*
X87344529Y-111311352D01*
X87215072Y-111387911D01*
X87202646Y-111397551D01*
X87096301Y-111503896D01*
X87086661Y-111516322D01*
X87010102Y-111645779D01*
X87003857Y-111660210D01*
X86961481Y-111806065D01*
X86959180Y-111818667D01*
X86956943Y-111847084D01*
X86956750Y-111852014D01*
X86956750Y-112231385D01*
X86673250Y-112231385D01*
X86673250Y-111849498D01*
X86672165Y-111835710D01*
X86670817Y-111818579D01*
X86670816Y-111818574D01*
X86670312Y-111812169D01*
X86636997Y-111697496D01*
X86626107Y-111660012D01*
X86626106Y-111660010D01*
X86623895Y-111652399D01*
X86582090Y-111581710D01*
X86543241Y-111516020D01*
X86543239Y-111516017D01*
X86539203Y-111509193D01*
X86421557Y-111391547D01*
X86414733Y-111387511D01*
X86414730Y-111387509D01*
X86285177Y-111310892D01*
X86285178Y-111310892D01*
X86278351Y-111306855D01*
X86270740Y-111304644D01*
X86270738Y-111304643D01*
X86209276Y-111286787D01*
X86118581Y-111260438D01*
X86112176Y-111259934D01*
X86112171Y-111259933D01*
X86083708Y-111257693D01*
X86083700Y-111257693D01*
X86081252Y-111257500D01*
X85648248Y-111257500D01*
X85645800Y-111257693D01*
X85645792Y-111257693D01*
X85617329Y-111259933D01*
X85617324Y-111259934D01*
X85610919Y-111260438D01*
X85520224Y-111286787D01*
X85458762Y-111304643D01*
X85458760Y-111304644D01*
X85451149Y-111306855D01*
X85444322Y-111310892D01*
X85444323Y-111310892D01*
X85314770Y-111387509D01*
X85314767Y-111387511D01*
X85307943Y-111391547D01*
X85190297Y-111509193D01*
X85186261Y-111516017D01*
X85186259Y-111516020D01*
X85147410Y-111581710D01*
X85105605Y-111652399D01*
X85103394Y-111660010D01*
X85103393Y-111660012D01*
X85092503Y-111697496D01*
X85059188Y-111812169D01*
X85058684Y-111818574D01*
X85058683Y-111818579D01*
X85057335Y-111835710D01*
X85056250Y-111849498D01*
X85056250Y-113157502D01*
X85056443Y-113159950D01*
X85056443Y-113159958D01*
X85058167Y-113181855D01*
X85059188Y-113194831D01*
X85082799Y-113276101D01*
X85103312Y-113346707D01*
X85105605Y-113354601D01*
X85109642Y-113361427D01*
X85186259Y-113490980D01*
X85186261Y-113490983D01*
X85190297Y-113497807D01*
X85195905Y-113503415D01*
X85200761Y-113509675D01*
X85199254Y-113510844D01*
X85228371Y-113564167D01*
X85231250Y-113590950D01*
X85231250Y-115757983D01*
X85230723Y-115769166D01*
X85229048Y-115776659D01*
X85229297Y-115784585D01*
X85229297Y-115784586D01*
X85231188Y-115844736D01*
X85231250Y-115848695D01*
X85231250Y-115876606D01*
X85231747Y-115880540D01*
X85231747Y-115880541D01*
X85231755Y-115880606D01*
X85232688Y-115892443D01*
X85234077Y-115936639D01*
X85239479Y-115955233D01*
X85239728Y-115956089D01*
X85243737Y-115975450D01*
X85246276Y-115995547D01*
X85249195Y-116002918D01*
X85249195Y-116002920D01*
X85262554Y-116036662D01*
X85266399Y-116047892D01*
X85276521Y-116082733D01*
X85278732Y-116090343D01*
X85282765Y-116097162D01*
X85282767Y-116097167D01*
X85289043Y-116107778D01*
X85297738Y-116125526D01*
X85305198Y-116144367D01*
X85309860Y-116150783D01*
X85309860Y-116150784D01*
X85331186Y-116180137D01*
X85337702Y-116190057D01*
X85342481Y-116198137D01*
X85360208Y-116228112D01*
X85374529Y-116242433D01*
X85387369Y-116257466D01*
X85399278Y-116273857D01*
X85416665Y-116288241D01*
X85433355Y-116302048D01*
X85442134Y-116310038D01*
X89441501Y-120309405D01*
X89475527Y-120371717D01*
X89470462Y-120442532D01*
X89427915Y-120499368D01*
X89361395Y-120524179D01*
X89352406Y-120524500D01*
X79308594Y-120524500D01*
X79240473Y-120504498D01*
X79219499Y-120487595D01*
X74396405Y-115664500D01*
X74362379Y-115602188D01*
X74359500Y-115575405D01*
X74359500Y-93749500D01*
X74379502Y-93681379D01*
X74433158Y-93634886D01*
X74485500Y-93623500D01*
X74892502Y-93623500D01*
X74894950Y-93623307D01*
X74894958Y-93623307D01*
X74923421Y-93621067D01*
X74923426Y-93621066D01*
X74929831Y-93620562D01*
X75029769Y-93591528D01*
X75081988Y-93576357D01*
X75081990Y-93576356D01*
X75089601Y-93574145D01*
X75120425Y-93555916D01*
X75189236Y-93538457D01*
X75256568Y-93560973D01*
X75278191Y-93580054D01*
X75334747Y-93642866D01*
X75412094Y-93699062D01*
X75481516Y-93749500D01*
X75489248Y-93755118D01*
X75495276Y-93757802D01*
X75495278Y-93757803D01*
X75651947Y-93827556D01*
X75663712Y-93832794D01*
X75740016Y-93849013D01*
X75844056Y-93871128D01*
X75844061Y-93871128D01*
X75850513Y-93872500D01*
X76041487Y-93872500D01*
X76047939Y-93871128D01*
X76047944Y-93871128D01*
X76151984Y-93849013D01*
X76228288Y-93832794D01*
X76242760Y-93826351D01*
X76307180Y-93797669D01*
X76394116Y-93758963D01*
X76464482Y-93749529D01*
X76528779Y-93779635D01*
X76566593Y-93839724D01*
X76570674Y-93860899D01*
X76575768Y-93909365D01*
X76576458Y-93915928D01*
X76635473Y-94097556D01*
X76730960Y-94262944D01*
X76735378Y-94267851D01*
X76735379Y-94267852D01*
X76854325Y-94399955D01*
X76858747Y-94404866D01*
X76901751Y-94436110D01*
X77005319Y-94511357D01*
X77013248Y-94517118D01*
X77019276Y-94519802D01*
X77019278Y-94519803D01*
X77172203Y-94587889D01*
X77187712Y-94594794D01*
X77269215Y-94612118D01*
X77368056Y-94633128D01*
X77368061Y-94633128D01*
X77374513Y-94634500D01*
X77565487Y-94634500D01*
X77571939Y-94633128D01*
X77571944Y-94633128D01*
X77670785Y-94612118D01*
X77752288Y-94594794D01*
X77767797Y-94587889D01*
X77920722Y-94519803D01*
X77920724Y-94519802D01*
X77926752Y-94517118D01*
X77934682Y-94511357D01*
X78038249Y-94436110D01*
X78081253Y-94404866D01*
X78085675Y-94399955D01*
X78204621Y-94267852D01*
X78204622Y-94267851D01*
X78209040Y-94262944D01*
X78304527Y-94097556D01*
X78363542Y-93915928D01*
X78365138Y-93900749D01*
X78382814Y-93732565D01*
X78383504Y-93726000D01*
X78375582Y-93650627D01*
X78364232Y-93542635D01*
X78364232Y-93542633D01*
X78363542Y-93536072D01*
X78304527Y-93354444D01*
X78289994Y-93329271D01*
X78276841Y-93306490D01*
X78260103Y-93237494D01*
X78283324Y-93170402D01*
X78289873Y-93162652D01*
X78289843Y-93162628D01*
X78294381Y-93156882D01*
X78299552Y-93151702D01*
X78303902Y-93144645D01*
X78385462Y-93012331D01*
X78385463Y-93012329D01*
X78389302Y-93006101D01*
X78443149Y-92843757D01*
X78445534Y-92820486D01*
X78452513Y-92752365D01*
X78453500Y-92742732D01*
X78453500Y-92195268D01*
X78442887Y-92092981D01*
X78409076Y-91991637D01*
X78391073Y-91937676D01*
X78391072Y-91937674D01*
X78388756Y-91930732D01*
X78379762Y-91916197D01*
X78302606Y-91791515D01*
X78298752Y-91785287D01*
X78293570Y-91780114D01*
X78289023Y-91774377D01*
X78290830Y-91772945D01*
X78262098Y-91720425D01*
X78267108Y-91649605D01*
X78290499Y-91613147D01*
X78289448Y-91612317D01*
X78302998Y-91595160D01*
X78385004Y-91462120D01*
X78391151Y-91448939D01*
X78440491Y-91300186D01*
X78443358Y-91286810D01*
X78452672Y-91195903D01*
X78452929Y-91190874D01*
X78448525Y-91175876D01*
X78447135Y-91174671D01*
X78439452Y-91173000D01*
X77342000Y-91173000D01*
X77273879Y-91152998D01*
X77227386Y-91099342D01*
X77216000Y-91047000D01*
X77216000Y-90646885D01*
X77724000Y-90646885D01*
X77728475Y-90662124D01*
X77729865Y-90663329D01*
X77737548Y-90665000D01*
X78434885Y-90665000D01*
X78450124Y-90660525D01*
X78451329Y-90659135D01*
X78453000Y-90651452D01*
X78453000Y-90648562D01*
X78452663Y-90642047D01*
X78443106Y-90549943D01*
X78440212Y-90536544D01*
X78390619Y-90387893D01*
X78384445Y-90374714D01*
X78302212Y-90241827D01*
X78293176Y-90230426D01*
X78182571Y-90120014D01*
X78171160Y-90111002D01*
X78038120Y-90028996D01*
X78024939Y-90022849D01*
X77876186Y-89973509D01*
X77862810Y-89970642D01*
X77771903Y-89961328D01*
X77765486Y-89961000D01*
X77742115Y-89961000D01*
X77726876Y-89965475D01*
X77725671Y-89966865D01*
X77724000Y-89974548D01*
X77724000Y-90646885D01*
X77216000Y-90646885D01*
X77216000Y-89979115D01*
X77211525Y-89963876D01*
X77210135Y-89962671D01*
X77202452Y-89961000D01*
X77174562Y-89961000D01*
X77168047Y-89961337D01*
X77075943Y-89970894D01*
X77062544Y-89973788D01*
X76913893Y-90023381D01*
X76900714Y-90029555D01*
X76767827Y-90111788D01*
X76756426Y-90120824D01*
X76649172Y-90228265D01*
X76586889Y-90262344D01*
X76516069Y-90257341D01*
X76459197Y-90214844D01*
X76434328Y-90148345D01*
X76433999Y-90139247D01*
X76433999Y-89851017D01*
X76433805Y-89846080D01*
X76431570Y-89817664D01*
X76429270Y-89805069D01*
X76386893Y-89659210D01*
X76380648Y-89644779D01*
X76304089Y-89515322D01*
X76294449Y-89502896D01*
X76188104Y-89396551D01*
X76175678Y-89386911D01*
X76046221Y-89310352D01*
X76031790Y-89304107D01*
X75897395Y-89265061D01*
X75883294Y-89265101D01*
X75880000Y-89272370D01*
X75880000Y-90630500D01*
X75859998Y-90698621D01*
X75806342Y-90745114D01*
X75754000Y-90756500D01*
X74836116Y-90756500D01*
X74820877Y-90760975D01*
X74819672Y-90762365D01*
X74818001Y-90770048D01*
X74818001Y-91005500D01*
X74797999Y-91073621D01*
X74744343Y-91120114D01*
X74692001Y-91131500D01*
X74660500Y-91131500D01*
X74592379Y-91111498D01*
X74545886Y-91057842D01*
X74534500Y-91005500D01*
X74534500Y-90230385D01*
X74818000Y-90230385D01*
X74822475Y-90245624D01*
X74823865Y-90246829D01*
X74831548Y-90248500D01*
X75353885Y-90248500D01*
X75369124Y-90244025D01*
X75370329Y-90242635D01*
X75372000Y-90234952D01*
X75372000Y-89278122D01*
X75368027Y-89264591D01*
X75360129Y-89263456D01*
X75220210Y-89304107D01*
X75205779Y-89310352D01*
X75076322Y-89386911D01*
X75063896Y-89396551D01*
X74957551Y-89502896D01*
X74947911Y-89515322D01*
X74871352Y-89644779D01*
X74865107Y-89659210D01*
X74822731Y-89805065D01*
X74820430Y-89817667D01*
X74818193Y-89846084D01*
X74818000Y-89851014D01*
X74818000Y-90230385D01*
X74534500Y-90230385D01*
X74534500Y-89848498D01*
X74533268Y-89832844D01*
X74532067Y-89817579D01*
X74532066Y-89817574D01*
X74531562Y-89811169D01*
X74490718Y-89670580D01*
X74487357Y-89659012D01*
X74487356Y-89659010D01*
X74485145Y-89651399D01*
X74451094Y-89593822D01*
X74404491Y-89515020D01*
X74404489Y-89515017D01*
X74400453Y-89508193D01*
X74282807Y-89390547D01*
X74275983Y-89386511D01*
X74275980Y-89386509D01*
X74146427Y-89309892D01*
X74146428Y-89309892D01*
X74139601Y-89305855D01*
X74131990Y-89303644D01*
X74131988Y-89303643D01*
X74062189Y-89283365D01*
X73979831Y-89259438D01*
X73973426Y-89258934D01*
X73973421Y-89258933D01*
X73944958Y-89256693D01*
X73944950Y-89256693D01*
X73942502Y-89256500D01*
X73509498Y-89256500D01*
X73507050Y-89256693D01*
X73507042Y-89256693D01*
X73478579Y-89258933D01*
X73478574Y-89258934D01*
X73472169Y-89259438D01*
X73389811Y-89283365D01*
X73320012Y-89303643D01*
X73320010Y-89303644D01*
X73312399Y-89305855D01*
X73305572Y-89309892D01*
X73305573Y-89309892D01*
X73176020Y-89386509D01*
X73176017Y-89386511D01*
X73169193Y-89390547D01*
X73051547Y-89508193D01*
X73047511Y-89515017D01*
X73047509Y-89515020D01*
X73000906Y-89593822D01*
X72966855Y-89651399D01*
X72964644Y-89659010D01*
X72964643Y-89659012D01*
X72961282Y-89670580D01*
X72920438Y-89811169D01*
X72919934Y-89817574D01*
X72919933Y-89817579D01*
X72918732Y-89832844D01*
X72917500Y-89848498D01*
X72917500Y-91156502D01*
X72917693Y-91158950D01*
X72917693Y-91158958D01*
X72919770Y-91185341D01*
X72920438Y-91193831D01*
X72939474Y-91259355D01*
X72964610Y-91345872D01*
X72966855Y-91353601D01*
X72970892Y-91360427D01*
X73047509Y-91489980D01*
X73047511Y-91489983D01*
X73051547Y-91496807D01*
X73057155Y-91502415D01*
X73062011Y-91508675D01*
X73060504Y-91509844D01*
X73089621Y-91563167D01*
X73092500Y-91589950D01*
X73092500Y-115811233D01*
X73091973Y-115822416D01*
X73090298Y-115829909D01*
X73090547Y-115837833D01*
X73090547Y-115837835D01*
X73092438Y-115897972D01*
X73092500Y-115901932D01*
X73092500Y-115929856D01*
X73092997Y-115933790D01*
X73092997Y-115933791D01*
X73093005Y-115933856D01*
X73093938Y-115945693D01*
X73095327Y-115989889D01*
X73099113Y-116002920D01*
X73100978Y-116009339D01*
X73104987Y-116028700D01*
X73107526Y-116048797D01*
X73110445Y-116056168D01*
X73110445Y-116056170D01*
X73123804Y-116089912D01*
X73127649Y-116101142D01*
X73133125Y-116119990D01*
X73139982Y-116143593D01*
X73144015Y-116150412D01*
X73144017Y-116150417D01*
X73150293Y-116161028D01*
X73158988Y-116178776D01*
X73166448Y-116197617D01*
X73171110Y-116204033D01*
X73171110Y-116204034D01*
X73192436Y-116233387D01*
X73198952Y-116243307D01*
X73213227Y-116267444D01*
X73221458Y-116281362D01*
X73235779Y-116295683D01*
X73248619Y-116310716D01*
X73260528Y-116327107D01*
X73266634Y-116332158D01*
X73294605Y-116355298D01*
X73303384Y-116363288D01*
X78011500Y-121071405D01*
X78045526Y-121133717D01*
X78040461Y-121204532D01*
X77997914Y-121261368D01*
X77931394Y-121286179D01*
X77922405Y-121286500D01*
X67370594Y-121286500D01*
X67302473Y-121266498D01*
X67281499Y-121249595D01*
X62405155Y-116373250D01*
X62371129Y-116310938D01*
X62368250Y-116284155D01*
X62368250Y-116004500D01*
X62388252Y-115936379D01*
X62441908Y-115889886D01*
X62494250Y-115878500D01*
X62901252Y-115878500D01*
X62903700Y-115878307D01*
X62903708Y-115878307D01*
X62932171Y-115876067D01*
X62932176Y-115876066D01*
X62938581Y-115875562D01*
X63057294Y-115841073D01*
X63090738Y-115831357D01*
X63090740Y-115831356D01*
X63098351Y-115829145D01*
X63206900Y-115764949D01*
X63234726Y-115748493D01*
X63234727Y-115748492D01*
X63241557Y-115744453D01*
X63244933Y-115741077D01*
X63309707Y-115715644D01*
X63379330Y-115729543D01*
X63396364Y-115741393D01*
X63396747Y-115740866D01*
X63534670Y-115841073D01*
X63551248Y-115853118D01*
X63557276Y-115855802D01*
X63557278Y-115855803D01*
X63703330Y-115920829D01*
X63725712Y-115930794D01*
X63819112Y-115950647D01*
X63906056Y-115969128D01*
X63906061Y-115969128D01*
X63912513Y-115970500D01*
X64103487Y-115970500D01*
X64109939Y-115969128D01*
X64109944Y-115969128D01*
X64196888Y-115950647D01*
X64290288Y-115930794D01*
X64312670Y-115920829D01*
X64458722Y-115855803D01*
X64458724Y-115855802D01*
X64464752Y-115853118D01*
X64489478Y-115835153D01*
X64556344Y-115811296D01*
X64625496Y-115827376D01*
X64674976Y-115878289D01*
X64683370Y-115898151D01*
X64697473Y-115941556D01*
X64700776Y-115947278D01*
X64700777Y-115947279D01*
X64706689Y-115957518D01*
X64792960Y-116106944D01*
X64797378Y-116111851D01*
X64797379Y-116111852D01*
X64864292Y-116186166D01*
X64920747Y-116248866D01*
X65019609Y-116320694D01*
X65067063Y-116355171D01*
X65075248Y-116361118D01*
X65081276Y-116363802D01*
X65081278Y-116363803D01*
X65243681Y-116436109D01*
X65249712Y-116438794D01*
X65343113Y-116458647D01*
X65430056Y-116477128D01*
X65430061Y-116477128D01*
X65436513Y-116478500D01*
X65627487Y-116478500D01*
X65633939Y-116477128D01*
X65633944Y-116477128D01*
X65720887Y-116458647D01*
X65814288Y-116438794D01*
X65820319Y-116436109D01*
X65982722Y-116363803D01*
X65982724Y-116363802D01*
X65988752Y-116361118D01*
X65996938Y-116355171D01*
X66044391Y-116320694D01*
X66143253Y-116248866D01*
X66199708Y-116186166D01*
X66266621Y-116111852D01*
X66266622Y-116111851D01*
X66271040Y-116106944D01*
X66357311Y-115957518D01*
X66363223Y-115947279D01*
X66363224Y-115947278D01*
X66366527Y-115941556D01*
X66425542Y-115759928D01*
X66426680Y-115749106D01*
X66444814Y-115576565D01*
X66445504Y-115570000D01*
X66428173Y-115405101D01*
X66426232Y-115386635D01*
X66426232Y-115386633D01*
X66425542Y-115380072D01*
X66366527Y-115198444D01*
X66362325Y-115191165D01*
X66362078Y-115190150D01*
X66360539Y-115186693D01*
X66361171Y-115186412D01*
X66345585Y-115122172D01*
X66364183Y-115062046D01*
X66394211Y-115013333D01*
X66394213Y-115013330D01*
X66398052Y-115007101D01*
X66451899Y-114844757D01*
X66462250Y-114743732D01*
X66462250Y-114196268D01*
X66451637Y-114093981D01*
X66427915Y-114022879D01*
X66399823Y-113938676D01*
X66399822Y-113938674D01*
X66397506Y-113931732D01*
X66377869Y-113899998D01*
X66311356Y-113792515D01*
X66307502Y-113786287D01*
X66302320Y-113781114D01*
X66297773Y-113775377D01*
X66299580Y-113773945D01*
X66270848Y-113721425D01*
X66275858Y-113650605D01*
X66299249Y-113614147D01*
X66298198Y-113613317D01*
X66311748Y-113596160D01*
X66393754Y-113463120D01*
X66399901Y-113449939D01*
X66449241Y-113301186D01*
X66452108Y-113287810D01*
X66461422Y-113196903D01*
X66461679Y-113191874D01*
X66457275Y-113176876D01*
X66455885Y-113175671D01*
X66448202Y-113174000D01*
X64568750Y-113174000D01*
X64500629Y-113153998D01*
X64454136Y-113100342D01*
X64442750Y-113048000D01*
X64442750Y-113029615D01*
X64438275Y-113014376D01*
X64436885Y-113013171D01*
X64429202Y-113011500D01*
X62844866Y-113011500D01*
X62829627Y-113015975D01*
X62828422Y-113017365D01*
X62826751Y-113025048D01*
X62826751Y-113260500D01*
X62806749Y-113328621D01*
X62753093Y-113375114D01*
X62700751Y-113386500D01*
X62669250Y-113386500D01*
X62601129Y-113366498D01*
X62554636Y-113312842D01*
X62543250Y-113260500D01*
X62543250Y-112485385D01*
X62826750Y-112485385D01*
X62831225Y-112500624D01*
X62832615Y-112501829D01*
X62840298Y-112503500D01*
X63362635Y-112503500D01*
X63377874Y-112499025D01*
X63379079Y-112497635D01*
X63380750Y-112489952D01*
X63380750Y-112485385D01*
X63888750Y-112485385D01*
X63893225Y-112500624D01*
X63894615Y-112501829D01*
X63902298Y-112503500D01*
X64370811Y-112503500D01*
X64438932Y-112523502D01*
X64485425Y-112577158D01*
X64495746Y-112639857D01*
X64496242Y-112639882D01*
X64496126Y-112642160D01*
X64496155Y-112642339D01*
X64496079Y-112643082D01*
X64495821Y-112648126D01*
X64500225Y-112663124D01*
X64501615Y-112664329D01*
X64509298Y-112666000D01*
X65206635Y-112666000D01*
X65221874Y-112661525D01*
X65223079Y-112660135D01*
X65224750Y-112652452D01*
X65224750Y-112647885D01*
X65732750Y-112647885D01*
X65737225Y-112663124D01*
X65738615Y-112664329D01*
X65746298Y-112666000D01*
X66443635Y-112666000D01*
X66458874Y-112661525D01*
X66460079Y-112660135D01*
X66461750Y-112652452D01*
X66461750Y-112649562D01*
X66461413Y-112643047D01*
X66451856Y-112550943D01*
X66448962Y-112537544D01*
X66399369Y-112388893D01*
X66393195Y-112375714D01*
X66310962Y-112242827D01*
X66301926Y-112231426D01*
X66191321Y-112121014D01*
X66179910Y-112112002D01*
X66046870Y-112029996D01*
X66033689Y-112023849D01*
X65884936Y-111974509D01*
X65871560Y-111971642D01*
X65780653Y-111962328D01*
X65774236Y-111962000D01*
X65750865Y-111962000D01*
X65735626Y-111966475D01*
X65734421Y-111967865D01*
X65732750Y-111975548D01*
X65732750Y-112647885D01*
X65224750Y-112647885D01*
X65224750Y-111980115D01*
X65220275Y-111964876D01*
X65218885Y-111963671D01*
X65211202Y-111962000D01*
X65183312Y-111962000D01*
X65176797Y-111962337D01*
X65084693Y-111971894D01*
X65071294Y-111974788D01*
X64922643Y-112024381D01*
X64909464Y-112030555D01*
X64776577Y-112112788D01*
X64765176Y-112121824D01*
X64657922Y-112229265D01*
X64595639Y-112263344D01*
X64524819Y-112258341D01*
X64467947Y-112215844D01*
X64443078Y-112149345D01*
X64442749Y-112140247D01*
X64442749Y-112106017D01*
X64442555Y-112101080D01*
X64440320Y-112072664D01*
X64438020Y-112060069D01*
X64395643Y-111914210D01*
X64389398Y-111899779D01*
X64312839Y-111770322D01*
X64303199Y-111757896D01*
X64196854Y-111651551D01*
X64184428Y-111641911D01*
X64054971Y-111565352D01*
X64040540Y-111559107D01*
X63906145Y-111520061D01*
X63892044Y-111520101D01*
X63888750Y-111527370D01*
X63888750Y-112485385D01*
X63380750Y-112485385D01*
X63380750Y-111533122D01*
X63376777Y-111519591D01*
X63368879Y-111518456D01*
X63228960Y-111559107D01*
X63214529Y-111565352D01*
X63085072Y-111641911D01*
X63072646Y-111651551D01*
X62966301Y-111757896D01*
X62956661Y-111770322D01*
X62880102Y-111899779D01*
X62873857Y-111914210D01*
X62831481Y-112060065D01*
X62829180Y-112072667D01*
X62826943Y-112101084D01*
X62826750Y-112106014D01*
X62826750Y-112485385D01*
X62543250Y-112485385D01*
X62543250Y-112103498D01*
X62540994Y-112074830D01*
X62540817Y-112072579D01*
X62540816Y-112072574D01*
X62540312Y-112066169D01*
X62506997Y-111951496D01*
X62496107Y-111914012D01*
X62496106Y-111914010D01*
X62493895Y-111906399D01*
X62458791Y-111847042D01*
X62413241Y-111770020D01*
X62413239Y-111770017D01*
X62409203Y-111763193D01*
X62291557Y-111645547D01*
X62284733Y-111641511D01*
X62284730Y-111641509D01*
X62155177Y-111564892D01*
X62155178Y-111564892D01*
X62148351Y-111560855D01*
X62140740Y-111558644D01*
X62140738Y-111558643D01*
X62048383Y-111531812D01*
X61988581Y-111514438D01*
X61982176Y-111513934D01*
X61982171Y-111513933D01*
X61953708Y-111511693D01*
X61953700Y-111511693D01*
X61951252Y-111511500D01*
X61518248Y-111511500D01*
X61515800Y-111511693D01*
X61515792Y-111511693D01*
X61487329Y-111513933D01*
X61487324Y-111513934D01*
X61480919Y-111514438D01*
X61421117Y-111531812D01*
X61328762Y-111558643D01*
X61328760Y-111558644D01*
X61321149Y-111560855D01*
X61314322Y-111564892D01*
X61314323Y-111564892D01*
X61184770Y-111641509D01*
X61184767Y-111641511D01*
X61177943Y-111645547D01*
X61060297Y-111763193D01*
X61056261Y-111770017D01*
X61056259Y-111770020D01*
X61010709Y-111847042D01*
X60975605Y-111906399D01*
X60973394Y-111914010D01*
X60973393Y-111914012D01*
X60962503Y-111951496D01*
X60929188Y-112066169D01*
X60928684Y-112072574D01*
X60928683Y-112072579D01*
X60928506Y-112074830D01*
X60926250Y-112103498D01*
X60926250Y-113411502D01*
X60926443Y-113413950D01*
X60926443Y-113413958D01*
X60928607Y-113441445D01*
X60929188Y-113448831D01*
X60949479Y-113518673D01*
X60971991Y-113596160D01*
X60975605Y-113608601D01*
X60979642Y-113615427D01*
X61056259Y-113744980D01*
X61056261Y-113744983D01*
X61060297Y-113751807D01*
X61065905Y-113757415D01*
X61070761Y-113763675D01*
X61069254Y-113764844D01*
X61098371Y-113818167D01*
X61101250Y-113844950D01*
X61101250Y-116519983D01*
X61100723Y-116531166D01*
X61099048Y-116538659D01*
X61099297Y-116546585D01*
X61099297Y-116546586D01*
X61101188Y-116606736D01*
X61101250Y-116610695D01*
X61101250Y-116638606D01*
X61101747Y-116642540D01*
X61101747Y-116642541D01*
X61101755Y-116642606D01*
X61102688Y-116654443D01*
X61104077Y-116698639D01*
X61109728Y-116718089D01*
X61113737Y-116737450D01*
X61116276Y-116757547D01*
X61119195Y-116764918D01*
X61119195Y-116764920D01*
X61132554Y-116798662D01*
X61136399Y-116809892D01*
X61148732Y-116852343D01*
X61152765Y-116859162D01*
X61152767Y-116859167D01*
X61159043Y-116869778D01*
X61167738Y-116887526D01*
X61175198Y-116906367D01*
X61179860Y-116912783D01*
X61179860Y-116912784D01*
X61201186Y-116942137D01*
X61207702Y-116952057D01*
X61230208Y-116990112D01*
X61244529Y-117004433D01*
X61257369Y-117019466D01*
X61269278Y-117035857D01*
X61275384Y-117040908D01*
X61303355Y-117064048D01*
X61312134Y-117072038D01*
X66552348Y-122312253D01*
X66559888Y-122320539D01*
X66564000Y-122327018D01*
X66569777Y-122332443D01*
X66613651Y-122373643D01*
X66616493Y-122376398D01*
X66636230Y-122396135D01*
X66639427Y-122398615D01*
X66648447Y-122406318D01*
X66680679Y-122436586D01*
X66687625Y-122440405D01*
X66687628Y-122440407D01*
X66698434Y-122446348D01*
X66714953Y-122457199D01*
X66730959Y-122469614D01*
X66738228Y-122472759D01*
X66738232Y-122472762D01*
X66771537Y-122487174D01*
X66782187Y-122492391D01*
X66820940Y-122513695D01*
X66828615Y-122515666D01*
X66828616Y-122515666D01*
X66840562Y-122518733D01*
X66859267Y-122525137D01*
X66877855Y-122533181D01*
X66885678Y-122534420D01*
X66885688Y-122534423D01*
X66921524Y-122540099D01*
X66933144Y-122542505D01*
X66964959Y-122550673D01*
X66975970Y-122553500D01*
X66996224Y-122553500D01*
X67015934Y-122555051D01*
X67035943Y-122558220D01*
X67043835Y-122557474D01*
X67062580Y-122555702D01*
X67079962Y-122554059D01*
X67091819Y-122553500D01*
X222679233Y-122553500D01*
X222690416Y-122554027D01*
X222697909Y-122555702D01*
X222705835Y-122555453D01*
X222705836Y-122555453D01*
X222765986Y-122553562D01*
X222769945Y-122553500D01*
X222797856Y-122553500D01*
X222801791Y-122553003D01*
X222801856Y-122552995D01*
X222813693Y-122552062D01*
X222845951Y-122551048D01*
X222849970Y-122550922D01*
X222857889Y-122550673D01*
X222877343Y-122545021D01*
X222896700Y-122541013D01*
X222908930Y-122539468D01*
X222908931Y-122539468D01*
X222916797Y-122538474D01*
X222924168Y-122535555D01*
X222924170Y-122535555D01*
X222957912Y-122522196D01*
X222969142Y-122518351D01*
X223003983Y-122508229D01*
X223003984Y-122508229D01*
X223011593Y-122506018D01*
X223018412Y-122501985D01*
X223018417Y-122501983D01*
X223029028Y-122495707D01*
X223046776Y-122487012D01*
X223065617Y-122479552D01*
X223101387Y-122453564D01*
X223111307Y-122447048D01*
X223142535Y-122428580D01*
X223142538Y-122428578D01*
X223149362Y-122424542D01*
X223163683Y-122410221D01*
X223178717Y-122397380D01*
X223188694Y-122390131D01*
X223195107Y-122385472D01*
X223223298Y-122351395D01*
X223231288Y-122342616D01*
X225271419Y-120302485D01*
X253230854Y-120302485D01*
X253231156Y-120306320D01*
X253249108Y-120534417D01*
X253256370Y-120626695D01*
X253321206Y-120945378D01*
X253424398Y-121253784D01*
X253426052Y-121257253D01*
X253426053Y-121257254D01*
X253440003Y-121286500D01*
X253564405Y-121547316D01*
X253739141Y-121821597D01*
X253741584Y-121824560D01*
X253741585Y-121824562D01*
X253917364Y-122037798D01*
X253946001Y-122072538D01*
X254181902Y-122296399D01*
X254443326Y-122489843D01*
X254538691Y-122543798D01*
X254723019Y-122648086D01*
X254723023Y-122648088D01*
X254726376Y-122649985D01*
X254729937Y-122651460D01*
X254729939Y-122651461D01*
X254753806Y-122661347D01*
X255026832Y-122774438D01*
X255130288Y-122803129D01*
X255336500Y-122860317D01*
X255336508Y-122860319D01*
X255340216Y-122861347D01*
X255661856Y-122909416D01*
X255665154Y-122909560D01*
X255776918Y-122914440D01*
X255776922Y-122914440D01*
X255778294Y-122914500D01*
X255976598Y-122914500D01*
X256218605Y-122899698D01*
X256222388Y-122898997D01*
X256222395Y-122898996D01*
X256422459Y-122861916D01*
X256538372Y-122840433D01*
X256747682Y-122774438D01*
X256844860Y-122743798D01*
X256844863Y-122743797D01*
X256848532Y-122742640D01*
X256852029Y-122741046D01*
X256852035Y-122741044D01*
X257140954Y-122609376D01*
X257140958Y-122609374D01*
X257144462Y-122607777D01*
X257147744Y-122605766D01*
X257418473Y-122439863D01*
X257418476Y-122439861D01*
X257421751Y-122437854D01*
X257424755Y-122435464D01*
X257424760Y-122435461D01*
X257579653Y-122312253D01*
X257676264Y-122235405D01*
X257678958Y-122232664D01*
X257678962Y-122232660D01*
X257901513Y-122006190D01*
X257901517Y-122006185D01*
X257904208Y-122003447D01*
X258057674Y-121803447D01*
X258099835Y-121748502D01*
X258099837Y-121748498D01*
X258102185Y-121745439D01*
X258267242Y-121465227D01*
X258396920Y-121166988D01*
X258406776Y-121133717D01*
X258488191Y-120858861D01*
X258489285Y-120855169D01*
X258542961Y-120534417D01*
X258557146Y-120209515D01*
X258541104Y-120005680D01*
X258531932Y-119889140D01*
X258531932Y-119889137D01*
X258531630Y-119885305D01*
X258466794Y-119566622D01*
X258363602Y-119258216D01*
X258223595Y-118964684D01*
X258048859Y-118690403D01*
X258046415Y-118687438D01*
X257844442Y-118442425D01*
X257844438Y-118442420D01*
X257841999Y-118439462D01*
X257606098Y-118215601D01*
X257344674Y-118022157D01*
X257139781Y-117906234D01*
X257064981Y-117863914D01*
X257064977Y-117863912D01*
X257061624Y-117862015D01*
X256761168Y-117737562D01*
X256648203Y-117706234D01*
X256451500Y-117651683D01*
X256451492Y-117651681D01*
X256447784Y-117650653D01*
X256126144Y-117602584D01*
X256122846Y-117602440D01*
X256011082Y-117597560D01*
X256011078Y-117597560D01*
X256009706Y-117597500D01*
X255811402Y-117597500D01*
X255569395Y-117612302D01*
X255565612Y-117613003D01*
X255565605Y-117613004D01*
X255409512Y-117641934D01*
X255249628Y-117671567D01*
X255065058Y-117729762D01*
X254943140Y-117768202D01*
X254943137Y-117768203D01*
X254939468Y-117769360D01*
X254935971Y-117770954D01*
X254935965Y-117770956D01*
X254647046Y-117902624D01*
X254647042Y-117902626D01*
X254643538Y-117904223D01*
X254640259Y-117906233D01*
X254640256Y-117906234D01*
X254449051Y-118023405D01*
X254366249Y-118074146D01*
X254363245Y-118076536D01*
X254363240Y-118076539D01*
X254363170Y-118076595D01*
X254111736Y-118276595D01*
X254109042Y-118279336D01*
X254109038Y-118279340D01*
X253886487Y-118505810D01*
X253886483Y-118505815D01*
X253883792Y-118508553D01*
X253685815Y-118766561D01*
X253520758Y-119046773D01*
X253391080Y-119345012D01*
X253389986Y-119348706D01*
X253389984Y-119348711D01*
X253384679Y-119366622D01*
X253298715Y-119656831D01*
X253245039Y-119977583D01*
X253230854Y-120302485D01*
X225271419Y-120302485D01*
X228484247Y-117089657D01*
X228492537Y-117082113D01*
X228499018Y-117078000D01*
X228545659Y-117028332D01*
X228548413Y-117025491D01*
X228568134Y-117005770D01*
X228570612Y-117002575D01*
X228578318Y-116993553D01*
X228603158Y-116967101D01*
X228608586Y-116961321D01*
X228618346Y-116943568D01*
X228629199Y-116927045D01*
X228636753Y-116917306D01*
X228641613Y-116911041D01*
X228659176Y-116870457D01*
X228664383Y-116859827D01*
X228685695Y-116821060D01*
X228687666Y-116813383D01*
X228687668Y-116813378D01*
X228690732Y-116801442D01*
X228697138Y-116782730D01*
X228702033Y-116771419D01*
X228705181Y-116764145D01*
X228706421Y-116756317D01*
X228706423Y-116756310D01*
X228712099Y-116720476D01*
X228714505Y-116708856D01*
X228723528Y-116673711D01*
X228723528Y-116673710D01*
X228725500Y-116666030D01*
X228725500Y-116645776D01*
X228727051Y-116626065D01*
X228728980Y-116613886D01*
X228730220Y-116606057D01*
X228729474Y-116598165D01*
X228729723Y-116590242D01*
X228731838Y-116590308D01*
X228743253Y-116531384D01*
X228789684Y-116482048D01*
X228789994Y-116481896D01*
X228971860Y-116352173D01*
X228987744Y-116336345D01*
X229056886Y-116267444D01*
X229130096Y-116194489D01*
X229176460Y-116129967D01*
X229257435Y-116017277D01*
X229260453Y-116013077D01*
X229262746Y-116008437D01*
X229264446Y-116005608D01*
X229316674Y-115957518D01*
X229372451Y-115944500D01*
X233860233Y-115944500D01*
X233871416Y-115945027D01*
X233878909Y-115946702D01*
X233886835Y-115946453D01*
X233886836Y-115946453D01*
X233946986Y-115944562D01*
X233950945Y-115944500D01*
X233978856Y-115944500D01*
X233982791Y-115944003D01*
X233982856Y-115943995D01*
X233994693Y-115943062D01*
X234026951Y-115942048D01*
X234030970Y-115941922D01*
X234038889Y-115941673D01*
X234058343Y-115936021D01*
X234077700Y-115932013D01*
X234089930Y-115930468D01*
X234089931Y-115930468D01*
X234097797Y-115929474D01*
X234105168Y-115926555D01*
X234105170Y-115926555D01*
X234138912Y-115913196D01*
X234150142Y-115909351D01*
X234184983Y-115899229D01*
X234184984Y-115899229D01*
X234192593Y-115897018D01*
X234199412Y-115892985D01*
X234199417Y-115892983D01*
X234210028Y-115886707D01*
X234227776Y-115878012D01*
X234246617Y-115870552D01*
X234264782Y-115857355D01*
X234282387Y-115844564D01*
X234292307Y-115838048D01*
X234323535Y-115819580D01*
X234323538Y-115819578D01*
X234330362Y-115815542D01*
X234344684Y-115801220D01*
X234359717Y-115788380D01*
X234376107Y-115776472D01*
X234404298Y-115742395D01*
X234412288Y-115733616D01*
X237374253Y-112771652D01*
X237382539Y-112764112D01*
X237389018Y-112760000D01*
X237435644Y-112710348D01*
X237438398Y-112707507D01*
X237458135Y-112687770D01*
X237460615Y-112684573D01*
X237468320Y-112675551D01*
X237478858Y-112664329D01*
X237498586Y-112643321D01*
X237502405Y-112636375D01*
X237502407Y-112636372D01*
X237508348Y-112625566D01*
X237519199Y-112609047D01*
X237526758Y-112599301D01*
X237531614Y-112593041D01*
X237534759Y-112585772D01*
X237534762Y-112585768D01*
X237549174Y-112552463D01*
X237554391Y-112541813D01*
X237575695Y-112503060D01*
X237580733Y-112483437D01*
X237587137Y-112464734D01*
X237592033Y-112453420D01*
X237592033Y-112453419D01*
X237595181Y-112446145D01*
X237596420Y-112438322D01*
X237596423Y-112438312D01*
X237602099Y-112402476D01*
X237604505Y-112390856D01*
X237613528Y-112355711D01*
X237613528Y-112355710D01*
X237615500Y-112348030D01*
X237615500Y-112327776D01*
X237617051Y-112308065D01*
X237618980Y-112295886D01*
X237620220Y-112288057D01*
X237616059Y-112244038D01*
X237615500Y-112232181D01*
X237615500Y-104863966D01*
X257240257Y-104863966D01*
X257270565Y-104998446D01*
X257273645Y-105008275D01*
X257353770Y-105205603D01*
X257358413Y-105214794D01*
X257469694Y-105396388D01*
X257475777Y-105404699D01*
X257615213Y-105565667D01*
X257622580Y-105572883D01*
X257786434Y-105708916D01*
X257794881Y-105714831D01*
X257978756Y-105822279D01*
X257988042Y-105826729D01*
X258187001Y-105902703D01*
X258196899Y-105905579D01*
X258300250Y-105926606D01*
X258314299Y-105925410D01*
X258318000Y-105915065D01*
X258318000Y-105914517D01*
X258826000Y-105914517D01*
X258830064Y-105928359D01*
X258843478Y-105930393D01*
X258850184Y-105929534D01*
X258860262Y-105927392D01*
X259064255Y-105866191D01*
X259073842Y-105862433D01*
X259265095Y-105768739D01*
X259273945Y-105763464D01*
X259447328Y-105639792D01*
X259455200Y-105633139D01*
X259606052Y-105482812D01*
X259612730Y-105474965D01*
X259737003Y-105302020D01*
X259742313Y-105293183D01*
X259836670Y-105102267D01*
X259840469Y-105092672D01*
X259902377Y-104888910D01*
X259904555Y-104878837D01*
X259905986Y-104867962D01*
X259903775Y-104853778D01*
X259890617Y-104850000D01*
X258844115Y-104850000D01*
X258828876Y-104854475D01*
X258827671Y-104855865D01*
X258826000Y-104863548D01*
X258826000Y-105914517D01*
X258318000Y-105914517D01*
X258318000Y-104868115D01*
X258313525Y-104852876D01*
X258312135Y-104851671D01*
X258304452Y-104850000D01*
X257255225Y-104850000D01*
X257241694Y-104853973D01*
X257240257Y-104863966D01*
X237615500Y-104863966D01*
X237615500Y-104708594D01*
X237635502Y-104640473D01*
X237652405Y-104619499D01*
X239747499Y-102524405D01*
X239809811Y-102490379D01*
X239836594Y-102487500D01*
X242476233Y-102487500D01*
X242487416Y-102488027D01*
X242494909Y-102489702D01*
X242502835Y-102489453D01*
X242502836Y-102489453D01*
X242562986Y-102487562D01*
X242566945Y-102487500D01*
X242594856Y-102487500D01*
X242598791Y-102487003D01*
X242598856Y-102486995D01*
X242610693Y-102486062D01*
X242642951Y-102485048D01*
X242646970Y-102484922D01*
X242654889Y-102484673D01*
X242674343Y-102479021D01*
X242693700Y-102475013D01*
X242705930Y-102473468D01*
X242705931Y-102473468D01*
X242713797Y-102472474D01*
X242721168Y-102469555D01*
X242721170Y-102469555D01*
X242754912Y-102456196D01*
X242766142Y-102452351D01*
X242800983Y-102442229D01*
X242800984Y-102442229D01*
X242808593Y-102440018D01*
X242815412Y-102435985D01*
X242815417Y-102435983D01*
X242826028Y-102429707D01*
X242843776Y-102421012D01*
X242862617Y-102413552D01*
X242898387Y-102387564D01*
X242908307Y-102381048D01*
X242939535Y-102362580D01*
X242939538Y-102362578D01*
X242946362Y-102358542D01*
X242960683Y-102344221D01*
X242975717Y-102331380D01*
X242985694Y-102324131D01*
X242992107Y-102319472D01*
X243020298Y-102285395D01*
X243028288Y-102276616D01*
X243888847Y-101416057D01*
X243951159Y-101382031D01*
X244021974Y-101387096D01*
X244078810Y-101429643D01*
X244085086Y-101438848D01*
X244147791Y-101540176D01*
X244156824Y-101551574D01*
X244267429Y-101661986D01*
X244278840Y-101670998D01*
X244411880Y-101753004D01*
X244425061Y-101759151D01*
X244573814Y-101808491D01*
X244587190Y-101811358D01*
X244678097Y-101820672D01*
X244683126Y-101820929D01*
X244698124Y-101816525D01*
X244699329Y-101815135D01*
X244701000Y-101807452D01*
X244701000Y-100710000D01*
X244721002Y-100641879D01*
X244774658Y-100595386D01*
X244827000Y-100584000D01*
X245083000Y-100584000D01*
X245151121Y-100604002D01*
X245197614Y-100657658D01*
X245209000Y-100710000D01*
X245209000Y-101802885D01*
X245213475Y-101818124D01*
X245214865Y-101819329D01*
X245222548Y-101821000D01*
X245225438Y-101821000D01*
X245231953Y-101820663D01*
X245324057Y-101811106D01*
X245337456Y-101808212D01*
X245486107Y-101758619D01*
X245499286Y-101752445D01*
X245632173Y-101670212D01*
X245649311Y-101656629D01*
X245650841Y-101658559D01*
X245702880Y-101630097D01*
X245773699Y-101635113D01*
X245810617Y-101658799D01*
X245811372Y-101657843D01*
X245817118Y-101662381D01*
X245822298Y-101667552D01*
X245828528Y-101671392D01*
X245828529Y-101671393D01*
X245960020Y-101752445D01*
X245967899Y-101757302D01*
X246130243Y-101811149D01*
X246137080Y-101811849D01*
X246137082Y-101811850D01*
X246178401Y-101816083D01*
X246231268Y-101821500D01*
X246778732Y-101821500D01*
X246781978Y-101821163D01*
X246781982Y-101821163D01*
X246816083Y-101817625D01*
X246881019Y-101810887D01*
X246915737Y-101799304D01*
X247036324Y-101759073D01*
X247036326Y-101759072D01*
X247043268Y-101756756D01*
X247169311Y-101678759D01*
X247237761Y-101659922D01*
X247286861Y-101670797D01*
X247367712Y-101706794D01*
X247461112Y-101726647D01*
X247548056Y-101745128D01*
X247548061Y-101745128D01*
X247554513Y-101746500D01*
X247745487Y-101746500D01*
X247751939Y-101745128D01*
X247751944Y-101745128D01*
X247838887Y-101726647D01*
X247932288Y-101706794D01*
X247995256Y-101678759D01*
X248100722Y-101631803D01*
X248100724Y-101631802D01*
X248106752Y-101629118D01*
X248122234Y-101617870D01*
X248162157Y-101588864D01*
X248261253Y-101516866D01*
X248298411Y-101475598D01*
X248384621Y-101379852D01*
X248384622Y-101379851D01*
X248389040Y-101374944D01*
X248451641Y-101266516D01*
X248481223Y-101215279D01*
X248481224Y-101215278D01*
X248484527Y-101209556D01*
X248543542Y-101027928D01*
X248563504Y-100838000D01*
X248562814Y-100831432D01*
X248560632Y-100810669D01*
X248573405Y-100740831D01*
X248621908Y-100688985D01*
X248685942Y-100671500D01*
X257235185Y-100671500D01*
X257303306Y-100691502D01*
X257349799Y-100745158D01*
X257359903Y-100815432D01*
X257336011Y-100873065D01*
X257271385Y-100959295D01*
X257220255Y-101095684D01*
X257213500Y-101157866D01*
X257213500Y-102954134D01*
X257220255Y-103016316D01*
X257271385Y-103152705D01*
X257358739Y-103269261D01*
X257475295Y-103356615D01*
X257483704Y-103359767D01*
X257483705Y-103359768D01*
X257592960Y-103400726D01*
X257649725Y-103443367D01*
X257674425Y-103509929D01*
X257659218Y-103579278D01*
X257639825Y-103605759D01*
X257516590Y-103734717D01*
X257510104Y-103742727D01*
X257390098Y-103918649D01*
X257385000Y-103927623D01*
X257295338Y-104120783D01*
X257291775Y-104130470D01*
X257236389Y-104330183D01*
X257237912Y-104338607D01*
X257250292Y-104342000D01*
X259890344Y-104342000D01*
X259903875Y-104338027D01*
X259905180Y-104328947D01*
X259863214Y-104161875D01*
X259859894Y-104152124D01*
X259774972Y-103956814D01*
X259770105Y-103947739D01*
X259654426Y-103768926D01*
X259648136Y-103760757D01*
X259504293Y-103602677D01*
X259473241Y-103538831D01*
X259481635Y-103468333D01*
X259526812Y-103413564D01*
X259553256Y-103399895D01*
X259660297Y-103359767D01*
X259668705Y-103356615D01*
X259785261Y-103269261D01*
X259872615Y-103152705D01*
X259923745Y-103016316D01*
X259930500Y-102954134D01*
X259930500Y-101157866D01*
X259923745Y-101095684D01*
X259872615Y-100959295D01*
X259785261Y-100842739D01*
X259668705Y-100755385D01*
X259660296Y-100752233D01*
X259660295Y-100752232D01*
X259618570Y-100736590D01*
X259584401Y-100723781D01*
X259527636Y-100681140D01*
X259502936Y-100614579D01*
X259518143Y-100545230D01*
X259544523Y-100515267D01*
X259542917Y-100513556D01*
X259548694Y-100508131D01*
X259555107Y-100503472D01*
X259560157Y-100497368D01*
X259560162Y-100497363D01*
X259583293Y-100469402D01*
X259591283Y-100460621D01*
X260370405Y-99681500D01*
X260432717Y-99647475D01*
X260503533Y-99652540D01*
X260560368Y-99695087D01*
X260585179Y-99761607D01*
X260585500Y-99770596D01*
X260585500Y-120011531D01*
X260584284Y-120028992D01*
X260580273Y-120057657D01*
X260581574Y-120066537D01*
X260581574Y-120066540D01*
X260583241Y-120077918D01*
X260584519Y-120099826D01*
X260574083Y-120460492D01*
X260573265Y-120471640D01*
X260527336Y-120860165D01*
X260525532Y-120871197D01*
X260445353Y-121254106D01*
X260442579Y-121264934D01*
X260328781Y-121639229D01*
X260325059Y-121649768D01*
X260178534Y-122012516D01*
X260173894Y-122022680D01*
X260033947Y-122296399D01*
X259995798Y-122371013D01*
X259990276Y-122380725D01*
X259783880Y-122708928D01*
X259782009Y-122711903D01*
X259775650Y-122721085D01*
X259684366Y-122841135D01*
X259538846Y-123032511D01*
X259531692Y-123041100D01*
X259268229Y-123330303D01*
X259260342Y-123338224D01*
X258972291Y-123602935D01*
X258963734Y-123610126D01*
X258653341Y-123848279D01*
X258644179Y-123854683D01*
X258313919Y-124064378D01*
X258304227Y-124069945D01*
X257956669Y-124249554D01*
X257946521Y-124254240D01*
X257584417Y-124402337D01*
X257573894Y-124406105D01*
X257200091Y-124521529D01*
X257189278Y-124524349D01*
X256865580Y-124593597D01*
X256806713Y-124606190D01*
X256795690Y-124608041D01*
X256407382Y-124655655D01*
X256396238Y-124656522D01*
X256187415Y-124663472D01*
X256043077Y-124668276D01*
X256018121Y-124666622D01*
X256005978Y-124664593D01*
X255985296Y-124667064D01*
X255970862Y-124668789D01*
X255955899Y-124669679D01*
X89857533Y-124652258D01*
X44539562Y-124647505D01*
X44521690Y-124646229D01*
X44502977Y-124643545D01*
X44502974Y-124643545D01*
X44494090Y-124642271D01*
X44473920Y-124645156D01*
X44451950Y-124646358D01*
X44366132Y-124643543D01*
X44078562Y-124634110D01*
X44067319Y-124633236D01*
X43666426Y-124583899D01*
X43655325Y-124582023D01*
X43260480Y-124496992D01*
X43249562Y-124494123D01*
X42863933Y-124374083D01*
X42853310Y-124370246D01*
X42479980Y-124216157D01*
X42469745Y-124211385D01*
X42111711Y-124024487D01*
X42101943Y-124018817D01*
X41762084Y-123800610D01*
X41752864Y-123794089D01*
X41668299Y-123728400D01*
X41433898Y-123546319D01*
X41425321Y-123539018D01*
X41129814Y-123263674D01*
X41121905Y-123255612D01*
X40852263Y-122954939D01*
X40845107Y-122946202D01*
X40603464Y-122622584D01*
X40597119Y-122613241D01*
X40461771Y-122393331D01*
X40385424Y-122269284D01*
X40379943Y-122259412D01*
X40199895Y-121897877D01*
X40195318Y-121887552D01*
X40190487Y-121875182D01*
X40062880Y-121548502D01*
X40048373Y-121511363D01*
X40044740Y-121500670D01*
X39932063Y-121112814D01*
X39929401Y-121101838D01*
X39923452Y-121071405D01*
X39851911Y-120705470D01*
X39850243Y-120694301D01*
X39828792Y-120487595D01*
X39808554Y-120292567D01*
X39807893Y-120281299D01*
X39805437Y-120102485D01*
X41630854Y-120102485D01*
X41639580Y-120213362D01*
X41649108Y-120334417D01*
X41656370Y-120426695D01*
X41721206Y-120745378D01*
X41824398Y-121053784D01*
X41964405Y-121347316D01*
X41966467Y-121350553D01*
X41966470Y-121350558D01*
X42029099Y-121448865D01*
X42139141Y-121621597D01*
X42141584Y-121624560D01*
X42141585Y-121624562D01*
X42306453Y-121824562D01*
X42346001Y-121872538D01*
X42581902Y-122096399D01*
X42843326Y-122289843D01*
X42909033Y-122327018D01*
X43123019Y-122448086D01*
X43123023Y-122448088D01*
X43126376Y-122449985D01*
X43129937Y-122451460D01*
X43129939Y-122451461D01*
X43216158Y-122487174D01*
X43426832Y-122574438D01*
X43530288Y-122603129D01*
X43736500Y-122660317D01*
X43736508Y-122660319D01*
X43740216Y-122661347D01*
X44061856Y-122709416D01*
X44065154Y-122709560D01*
X44176918Y-122714440D01*
X44176922Y-122714440D01*
X44178294Y-122714500D01*
X44376598Y-122714500D01*
X44618605Y-122699698D01*
X44622388Y-122698997D01*
X44622395Y-122698996D01*
X44822459Y-122661916D01*
X44938372Y-122640433D01*
X45147682Y-122574438D01*
X45244860Y-122543798D01*
X45244863Y-122543797D01*
X45248532Y-122542640D01*
X45252029Y-122541046D01*
X45252035Y-122541044D01*
X45540954Y-122409376D01*
X45540958Y-122409374D01*
X45544462Y-122407777D01*
X45553473Y-122402255D01*
X45818473Y-122239863D01*
X45818476Y-122239861D01*
X45821751Y-122237854D01*
X45824755Y-122235464D01*
X45824760Y-122235461D01*
X45949008Y-122136629D01*
X46076264Y-122035405D01*
X46078958Y-122032664D01*
X46078962Y-122032660D01*
X46301513Y-121806190D01*
X46301517Y-121806185D01*
X46304208Y-121803447D01*
X46502185Y-121545439D01*
X46654711Y-121286500D01*
X46665289Y-121268543D01*
X46665291Y-121268540D01*
X46667242Y-121265227D01*
X46796920Y-120966988D01*
X46802241Y-120949027D01*
X46876029Y-120699921D01*
X46889285Y-120655169D01*
X46942961Y-120334417D01*
X46957146Y-120009515D01*
X46943807Y-119840030D01*
X46931932Y-119689140D01*
X46931932Y-119689137D01*
X46931630Y-119685305D01*
X46866794Y-119366622D01*
X46763602Y-119058216D01*
X46623595Y-118764684D01*
X46448859Y-118490403D01*
X46409309Y-118442425D01*
X46244442Y-118242425D01*
X46244438Y-118242420D01*
X46241999Y-118239462D01*
X46006098Y-118015601D01*
X45744674Y-117822157D01*
X45539781Y-117706234D01*
X45464981Y-117663914D01*
X45464977Y-117663912D01*
X45461624Y-117662015D01*
X45436681Y-117651683D01*
X45317797Y-117602440D01*
X45161168Y-117537562D01*
X45057712Y-117508871D01*
X44851500Y-117451683D01*
X44851492Y-117451681D01*
X44847784Y-117450653D01*
X44526144Y-117402584D01*
X44522846Y-117402440D01*
X44411082Y-117397560D01*
X44411078Y-117397560D01*
X44409706Y-117397500D01*
X44211402Y-117397500D01*
X43969395Y-117412302D01*
X43965612Y-117413003D01*
X43965605Y-117413004D01*
X43822134Y-117439595D01*
X43649628Y-117471567D01*
X43633983Y-117476500D01*
X43343140Y-117568202D01*
X43343137Y-117568203D01*
X43339468Y-117569360D01*
X43335971Y-117570954D01*
X43335965Y-117570956D01*
X43047046Y-117702624D01*
X43047042Y-117702626D01*
X43043538Y-117704223D01*
X43040259Y-117706233D01*
X43040256Y-117706234D01*
X42788454Y-117860539D01*
X42766249Y-117874146D01*
X42763245Y-117876536D01*
X42763240Y-117876539D01*
X42638993Y-117975370D01*
X42511736Y-118076595D01*
X42509042Y-118079336D01*
X42509038Y-118079340D01*
X42286487Y-118305810D01*
X42286483Y-118305815D01*
X42283792Y-118308553D01*
X42185371Y-118436818D01*
X42127984Y-118511606D01*
X42085815Y-118566561D01*
X41920758Y-118846773D01*
X41791080Y-119145012D01*
X41698715Y-119456831D01*
X41645039Y-119777583D01*
X41630854Y-120102485D01*
X39805437Y-120102485D01*
X39805384Y-120098638D01*
X39802862Y-119915125D01*
X39805013Y-119890146D01*
X39805592Y-119887063D01*
X39807248Y-119878242D01*
X39803116Y-119836615D01*
X39802500Y-119824170D01*
X39802500Y-52502865D01*
X39803850Y-52484473D01*
X39807724Y-52458237D01*
X39806490Y-52449344D01*
X39806490Y-52449340D01*
X39804887Y-52437788D01*
X39803771Y-52415979D01*
X39807821Y-52302485D01*
X41630854Y-52302485D01*
X41631156Y-52306320D01*
X41649108Y-52534417D01*
X41656370Y-52626695D01*
X41721206Y-52945378D01*
X41824398Y-53253784D01*
X41964405Y-53547316D01*
X42139141Y-53821597D01*
X42141584Y-53824560D01*
X42141585Y-53824562D01*
X42291308Y-54006190D01*
X42346001Y-54072538D01*
X42581902Y-54296399D01*
X42843326Y-54489843D01*
X42984851Y-54569914D01*
X43123019Y-54648086D01*
X43123023Y-54648088D01*
X43126376Y-54649985D01*
X43426832Y-54774438D01*
X43530288Y-54803129D01*
X43736500Y-54860317D01*
X43736508Y-54860319D01*
X43740216Y-54861347D01*
X44061856Y-54909416D01*
X44065154Y-54909560D01*
X44176918Y-54914440D01*
X44176922Y-54914440D01*
X44178294Y-54914500D01*
X44376598Y-54914500D01*
X44618605Y-54899698D01*
X44622388Y-54898997D01*
X44622395Y-54898996D01*
X44822459Y-54861916D01*
X44938372Y-54840433D01*
X45147682Y-54774438D01*
X45244860Y-54743798D01*
X45244863Y-54743797D01*
X45248532Y-54742640D01*
X45252029Y-54741046D01*
X45252035Y-54741044D01*
X45540954Y-54609376D01*
X45540958Y-54609374D01*
X45544462Y-54607777D01*
X45821751Y-54437854D01*
X45824755Y-54435464D01*
X45824760Y-54435461D01*
X45949008Y-54336629D01*
X46076264Y-54235405D01*
X46078958Y-54232664D01*
X46078962Y-54232660D01*
X46301513Y-54006190D01*
X46301517Y-54006185D01*
X46304208Y-54003447D01*
X46502185Y-53745439D01*
X46667242Y-53465227D01*
X46796920Y-53166988D01*
X46889285Y-52855169D01*
X46942961Y-52534417D01*
X46953087Y-52302485D01*
X253230854Y-52302485D01*
X253231156Y-52306320D01*
X253249108Y-52534417D01*
X253256370Y-52626695D01*
X253321206Y-52945378D01*
X253424398Y-53253784D01*
X253564405Y-53547316D01*
X253739141Y-53821597D01*
X253741584Y-53824560D01*
X253741585Y-53824562D01*
X253891308Y-54006190D01*
X253946001Y-54072538D01*
X254181902Y-54296399D01*
X254443326Y-54489843D01*
X254584851Y-54569914D01*
X254723019Y-54648086D01*
X254723023Y-54648088D01*
X254726376Y-54649985D01*
X255026832Y-54774438D01*
X255130288Y-54803129D01*
X255336500Y-54860317D01*
X255336508Y-54860319D01*
X255340216Y-54861347D01*
X255661856Y-54909416D01*
X255665154Y-54909560D01*
X255776918Y-54914440D01*
X255776922Y-54914440D01*
X255778294Y-54914500D01*
X255976598Y-54914500D01*
X256218605Y-54899698D01*
X256222388Y-54898997D01*
X256222395Y-54898996D01*
X256422459Y-54861916D01*
X256538372Y-54840433D01*
X256747682Y-54774438D01*
X256844860Y-54743798D01*
X256844863Y-54743797D01*
X256848532Y-54742640D01*
X256852029Y-54741046D01*
X256852035Y-54741044D01*
X257140954Y-54609376D01*
X257140958Y-54609374D01*
X257144462Y-54607777D01*
X257421751Y-54437854D01*
X257424755Y-54435464D01*
X257424760Y-54435461D01*
X257549008Y-54336629D01*
X257676264Y-54235405D01*
X257678958Y-54232664D01*
X257678962Y-54232660D01*
X257901513Y-54006190D01*
X257901517Y-54006185D01*
X257904208Y-54003447D01*
X258102185Y-53745439D01*
X258267242Y-53465227D01*
X258396920Y-53166988D01*
X258489285Y-52855169D01*
X258542961Y-52534417D01*
X258557146Y-52209515D01*
X258541907Y-52015882D01*
X258531932Y-51889140D01*
X258531932Y-51889137D01*
X258531630Y-51885305D01*
X258466794Y-51566622D01*
X258363602Y-51258216D01*
X258223595Y-50964684D01*
X258048859Y-50690403D01*
X258046415Y-50687438D01*
X257844442Y-50442425D01*
X257844438Y-50442420D01*
X257841999Y-50439462D01*
X257606098Y-50215601D01*
X257344674Y-50022157D01*
X257139781Y-49906234D01*
X257064981Y-49863914D01*
X257064977Y-49863912D01*
X257061624Y-49862015D01*
X256761168Y-49737562D01*
X256657712Y-49708871D01*
X256451500Y-49651683D01*
X256451492Y-49651681D01*
X256447784Y-49650653D01*
X256126144Y-49602584D01*
X256122846Y-49602440D01*
X256011082Y-49597560D01*
X256011078Y-49597560D01*
X256009706Y-49597500D01*
X255811402Y-49597500D01*
X255569395Y-49612302D01*
X255565612Y-49613003D01*
X255565605Y-49613004D01*
X255409512Y-49641934D01*
X255249628Y-49671567D01*
X255065058Y-49729762D01*
X254943140Y-49768202D01*
X254943137Y-49768203D01*
X254939468Y-49769360D01*
X254935971Y-49770954D01*
X254935965Y-49770956D01*
X254647046Y-49902624D01*
X254647042Y-49902626D01*
X254643538Y-49904223D01*
X254366249Y-50074146D01*
X254363245Y-50076536D01*
X254363240Y-50076539D01*
X254238992Y-50175371D01*
X254111736Y-50276595D01*
X254109042Y-50279336D01*
X254109038Y-50279340D01*
X253886487Y-50505810D01*
X253886483Y-50505815D01*
X253883792Y-50508553D01*
X253685815Y-50766561D01*
X253520758Y-51046773D01*
X253391080Y-51345012D01*
X253389986Y-51348706D01*
X253389984Y-51348711D01*
X253383710Y-51369892D01*
X253298715Y-51656831D01*
X253245039Y-51977583D01*
X253230854Y-52302485D01*
X46953087Y-52302485D01*
X46957146Y-52209515D01*
X46941907Y-52015882D01*
X46931932Y-51889140D01*
X46931932Y-51889137D01*
X46931630Y-51885305D01*
X46866794Y-51566622D01*
X46763602Y-51258216D01*
X46623595Y-50964684D01*
X46448859Y-50690403D01*
X46446415Y-50687438D01*
X46244442Y-50442425D01*
X46244438Y-50442420D01*
X46241999Y-50439462D01*
X46006098Y-50215601D01*
X45744674Y-50022157D01*
X45539781Y-49906234D01*
X45464981Y-49863914D01*
X45464977Y-49863912D01*
X45461624Y-49862015D01*
X45161168Y-49737562D01*
X45057712Y-49708871D01*
X44851500Y-49651683D01*
X44851492Y-49651681D01*
X44847784Y-49650653D01*
X44526144Y-49602584D01*
X44522846Y-49602440D01*
X44411082Y-49597560D01*
X44411078Y-49597560D01*
X44409706Y-49597500D01*
X44211402Y-49597500D01*
X43969395Y-49612302D01*
X43965612Y-49613003D01*
X43965605Y-49613004D01*
X43809512Y-49641934D01*
X43649628Y-49671567D01*
X43465058Y-49729762D01*
X43343140Y-49768202D01*
X43343137Y-49768203D01*
X43339468Y-49769360D01*
X43335971Y-49770954D01*
X43335965Y-49770956D01*
X43047046Y-49902624D01*
X43047042Y-49902626D01*
X43043538Y-49904223D01*
X42766249Y-50074146D01*
X42763245Y-50076536D01*
X42763240Y-50076539D01*
X42638993Y-50175370D01*
X42511736Y-50276595D01*
X42509042Y-50279336D01*
X42509038Y-50279340D01*
X42286487Y-50505810D01*
X42286483Y-50505815D01*
X42283792Y-50508553D01*
X42085815Y-50766561D01*
X41920758Y-51046773D01*
X41791080Y-51345012D01*
X41789986Y-51348706D01*
X41789984Y-51348711D01*
X41783710Y-51369892D01*
X41698715Y-51656831D01*
X41645039Y-51977583D01*
X41630854Y-52302485D01*
X39807821Y-52302485D01*
X39807958Y-52298638D01*
X39816726Y-52052910D01*
X39817593Y-52041989D01*
X39820814Y-52015882D01*
X39865808Y-51651104D01*
X39867622Y-51640297D01*
X39882507Y-51570393D01*
X39949643Y-51255087D01*
X39952385Y-51244493D01*
X40067594Y-50867858D01*
X40071255Y-50857522D01*
X40218768Y-50492352D01*
X40223314Y-50482372D01*
X40348756Y-50236016D01*
X40402029Y-50131395D01*
X40407414Y-50121868D01*
X40615973Y-49787756D01*
X40622165Y-49778736D01*
X40858983Y-49464026D01*
X40865943Y-49455569D01*
X41129235Y-49162635D01*
X41136899Y-49154821D01*
X41424651Y-48885904D01*
X41432982Y-48878772D01*
X41743015Y-48635903D01*
X41751934Y-48629522D01*
X42081919Y-48414526D01*
X42091358Y-48408945D01*
X42107780Y-48400177D01*
X42438796Y-48223451D01*
X42448673Y-48218718D01*
X42810916Y-48064140D01*
X42821180Y-48060279D01*
X43195488Y-47937785D01*
X43206049Y-47934831D01*
X43589596Y-47845346D01*
X43600374Y-47843322D01*
X43990235Y-47787528D01*
X44001148Y-47786448D01*
X44014068Y-47785736D01*
X44356423Y-47766858D01*
X44381305Y-47767952D01*
X44384771Y-47768451D01*
X44384778Y-47768451D01*
X44393660Y-47769729D01*
X44402549Y-47768462D01*
X44421649Y-47765740D01*
X44439368Y-47764479D01*
X154978336Y-47712239D01*
X255949316Y-47664521D01*
X255966952Y-47665754D01*
G37*
G04 #@! TD.AperFunction*
G04 #@! TA.AperFunction,Conductor*
G36*
X226884395Y-93104502D02*
G01*
X226923707Y-93144665D01*
X226991987Y-93256088D01*
X227138250Y-93424938D01*
X227310126Y-93567632D01*
X227363953Y-93599086D01*
X227383445Y-93610476D01*
X227432169Y-93662114D01*
X227445240Y-93731897D01*
X227418509Y-93797669D01*
X227378055Y-93831027D01*
X227365607Y-93837507D01*
X227361474Y-93840610D01*
X227361471Y-93840612D01*
X227191100Y-93968530D01*
X227186965Y-93971635D01*
X227161894Y-93997870D01*
X227040284Y-94125128D01*
X227032629Y-94133138D01*
X227029715Y-94137410D01*
X227029714Y-94137411D01*
X226917095Y-94302504D01*
X226862184Y-94347507D01*
X226813007Y-94357500D01*
X220555767Y-94357500D01*
X220544584Y-94356973D01*
X220537091Y-94355298D01*
X220529165Y-94355547D01*
X220529164Y-94355547D01*
X220469014Y-94357438D01*
X220465055Y-94357500D01*
X220437144Y-94357500D01*
X220433210Y-94357997D01*
X220433209Y-94357997D01*
X220433144Y-94358005D01*
X220421307Y-94358938D01*
X220389490Y-94359938D01*
X220385029Y-94360078D01*
X220377110Y-94360327D01*
X220359454Y-94365456D01*
X220357658Y-94365978D01*
X220338306Y-94369986D01*
X220331235Y-94370880D01*
X220318203Y-94372526D01*
X220310834Y-94375443D01*
X220310832Y-94375444D01*
X220277097Y-94388800D01*
X220265869Y-94392645D01*
X220223407Y-94404982D01*
X220216584Y-94409017D01*
X220216582Y-94409018D01*
X220205972Y-94415293D01*
X220188224Y-94423988D01*
X220169383Y-94431448D01*
X220162967Y-94436110D01*
X220162966Y-94436110D01*
X220133613Y-94457436D01*
X220123693Y-94463952D01*
X220092465Y-94482420D01*
X220092462Y-94482422D01*
X220085638Y-94486458D01*
X220071317Y-94500779D01*
X220056284Y-94513619D01*
X220039893Y-94525528D01*
X220034842Y-94531634D01*
X220011702Y-94559605D01*
X220003712Y-94568384D01*
X199418500Y-115153595D01*
X199356188Y-115187621D01*
X199329405Y-115190500D01*
X187112297Y-115190500D01*
X187044176Y-115170498D01*
X186997683Y-115116842D01*
X186987579Y-115046568D01*
X187005037Y-114998384D01*
X187044212Y-114934831D01*
X187044213Y-114934829D01*
X187048052Y-114928601D01*
X187101899Y-114766257D01*
X187112250Y-114665232D01*
X187112250Y-114117768D01*
X187110623Y-114102082D01*
X187106564Y-114062967D01*
X187101637Y-114015481D01*
X187076403Y-113939847D01*
X187049823Y-113860176D01*
X187049822Y-113860174D01*
X187047506Y-113853232D01*
X187011466Y-113794991D01*
X186961356Y-113714015D01*
X186957502Y-113707787D01*
X186952320Y-113702614D01*
X186947773Y-113696877D01*
X186949580Y-113695445D01*
X186920848Y-113642925D01*
X186925858Y-113572105D01*
X186949249Y-113535647D01*
X186948198Y-113534817D01*
X186961748Y-113517660D01*
X187043754Y-113384620D01*
X187049901Y-113371439D01*
X187099241Y-113222686D01*
X187102108Y-113209310D01*
X187111422Y-113118403D01*
X187111679Y-113113374D01*
X187107275Y-113098376D01*
X187105885Y-113097171D01*
X187098202Y-113095500D01*
X185218750Y-113095500D01*
X185150629Y-113075498D01*
X185104136Y-113021842D01*
X185092750Y-112969500D01*
X185092750Y-112951115D01*
X185088275Y-112935876D01*
X185086885Y-112934671D01*
X185079202Y-112933000D01*
X183494866Y-112933000D01*
X183479627Y-112937475D01*
X183478422Y-112938865D01*
X183476751Y-112946548D01*
X183476751Y-113182000D01*
X183456749Y-113250121D01*
X183403093Y-113296614D01*
X183350751Y-113308000D01*
X183319250Y-113308000D01*
X183251129Y-113287998D01*
X183204636Y-113234342D01*
X183193250Y-113182000D01*
X183193250Y-112024998D01*
X183191312Y-112000368D01*
X183190817Y-111994082D01*
X183190817Y-111994079D01*
X183190312Y-111987669D01*
X183180358Y-111953406D01*
X183177315Y-111942931D01*
X183177520Y-111871935D01*
X183209218Y-111818686D01*
X183312668Y-111715236D01*
X183374980Y-111681210D01*
X183445795Y-111686275D01*
X183502631Y-111728822D01*
X183527442Y-111795342D01*
X183522760Y-111839484D01*
X183481482Y-111981562D01*
X183479180Y-111994167D01*
X183476943Y-112022584D01*
X183476750Y-112027514D01*
X183476750Y-112406885D01*
X183481225Y-112422124D01*
X183482615Y-112423329D01*
X183490298Y-112425000D01*
X184012635Y-112425000D01*
X184027874Y-112420525D01*
X184029079Y-112419135D01*
X184030750Y-112411452D01*
X184030750Y-112406885D01*
X184538750Y-112406885D01*
X184543225Y-112422124D01*
X184544615Y-112423329D01*
X184552298Y-112425000D01*
X185020811Y-112425000D01*
X185088932Y-112445002D01*
X185135425Y-112498658D01*
X185145746Y-112561357D01*
X185146242Y-112561382D01*
X185146126Y-112563660D01*
X185146155Y-112563839D01*
X185146078Y-112564589D01*
X185145821Y-112569626D01*
X185150225Y-112584624D01*
X185151615Y-112585829D01*
X185159298Y-112587500D01*
X185856635Y-112587500D01*
X185871874Y-112583025D01*
X185873079Y-112581635D01*
X185874750Y-112573952D01*
X185874750Y-112569385D01*
X186382750Y-112569385D01*
X186387225Y-112584624D01*
X186388615Y-112585829D01*
X186396298Y-112587500D01*
X187093635Y-112587500D01*
X187108874Y-112583025D01*
X187110079Y-112581635D01*
X187111750Y-112573952D01*
X187111750Y-112571062D01*
X187111413Y-112564547D01*
X187101856Y-112472443D01*
X187098962Y-112459044D01*
X187049369Y-112310393D01*
X187043195Y-112297214D01*
X186960962Y-112164327D01*
X186951926Y-112152926D01*
X186841321Y-112042514D01*
X186829910Y-112033502D01*
X186696870Y-111951496D01*
X186683689Y-111945349D01*
X186534936Y-111896009D01*
X186521560Y-111893142D01*
X186430653Y-111883828D01*
X186424236Y-111883500D01*
X186400865Y-111883500D01*
X186385626Y-111887975D01*
X186384421Y-111889365D01*
X186382750Y-111897048D01*
X186382750Y-112569385D01*
X185874750Y-112569385D01*
X185874750Y-111901615D01*
X185870275Y-111886376D01*
X185868885Y-111885171D01*
X185861202Y-111883500D01*
X185833312Y-111883500D01*
X185826797Y-111883837D01*
X185734693Y-111893394D01*
X185721294Y-111896288D01*
X185572643Y-111945881D01*
X185559464Y-111952055D01*
X185426577Y-112034288D01*
X185415176Y-112043324D01*
X185307922Y-112150765D01*
X185245639Y-112184844D01*
X185174819Y-112179841D01*
X185117947Y-112137344D01*
X185093078Y-112070845D01*
X185092749Y-112061747D01*
X185092749Y-112027517D01*
X185092555Y-112022580D01*
X185090320Y-111994164D01*
X185088020Y-111981569D01*
X185045643Y-111835710D01*
X185039398Y-111821279D01*
X184962839Y-111691822D01*
X184953199Y-111679396D01*
X184846854Y-111573051D01*
X184834428Y-111563411D01*
X184704971Y-111486852D01*
X184690540Y-111480607D01*
X184556145Y-111441561D01*
X184542044Y-111441601D01*
X184538750Y-111448870D01*
X184538750Y-112406885D01*
X184030750Y-112406885D01*
X184030750Y-111454622D01*
X184026777Y-111441091D01*
X184018879Y-111439956D01*
X183882734Y-111479510D01*
X183811738Y-111479307D01*
X183752122Y-111440754D01*
X183722813Y-111376089D01*
X183733117Y-111305844D01*
X183758486Y-111269418D01*
X185137499Y-109890405D01*
X185199811Y-109856379D01*
X185226594Y-109853500D01*
X203883233Y-109853500D01*
X203894416Y-109854027D01*
X203901909Y-109855702D01*
X203909835Y-109855453D01*
X203909836Y-109855453D01*
X203969986Y-109853562D01*
X203973945Y-109853500D01*
X204001856Y-109853500D01*
X204005791Y-109853003D01*
X204005856Y-109852995D01*
X204017693Y-109852062D01*
X204049951Y-109851048D01*
X204053970Y-109850922D01*
X204061889Y-109850673D01*
X204081343Y-109845021D01*
X204100700Y-109841013D01*
X204112930Y-109839468D01*
X204112931Y-109839468D01*
X204120797Y-109838474D01*
X204128168Y-109835555D01*
X204128170Y-109835555D01*
X204161912Y-109822196D01*
X204173142Y-109818351D01*
X204207983Y-109808229D01*
X204207984Y-109808229D01*
X204215593Y-109806018D01*
X204222412Y-109801985D01*
X204222417Y-109801983D01*
X204233028Y-109795707D01*
X204250776Y-109787012D01*
X204269617Y-109779552D01*
X204305387Y-109753564D01*
X204315307Y-109747048D01*
X204346535Y-109728580D01*
X204346538Y-109728578D01*
X204353362Y-109724542D01*
X204367683Y-109710221D01*
X204382717Y-109697380D01*
X204392694Y-109690131D01*
X204399107Y-109685472D01*
X204427298Y-109651395D01*
X204435288Y-109642616D01*
X220956499Y-93121405D01*
X221018811Y-93087379D01*
X221045594Y-93084500D01*
X226816274Y-93084500D01*
X226884395Y-93104502D01*
G37*
G04 #@! TD.AperFunction*
G04 #@! TA.AperFunction,Conductor*
G36*
X226884395Y-95644502D02*
G01*
X226923707Y-95684665D01*
X226991987Y-95796088D01*
X227138250Y-95964938D01*
X227310126Y-96107632D01*
X227380595Y-96148811D01*
X227383445Y-96150476D01*
X227432169Y-96202114D01*
X227445240Y-96271897D01*
X227418509Y-96337669D01*
X227378055Y-96371027D01*
X227365607Y-96377507D01*
X227361474Y-96380610D01*
X227361471Y-96380612D01*
X227201806Y-96500492D01*
X227186965Y-96511635D01*
X227032629Y-96673138D01*
X227029715Y-96677410D01*
X227029714Y-96677411D01*
X226950832Y-96793048D01*
X226906743Y-96857680D01*
X226868011Y-96941121D01*
X226816842Y-97051357D01*
X226812688Y-97060305D01*
X226752989Y-97275570D01*
X226729251Y-97497695D01*
X226729548Y-97502848D01*
X226729548Y-97502851D01*
X226733103Y-97564501D01*
X226742110Y-97720715D01*
X226743247Y-97725761D01*
X226743248Y-97725767D01*
X226767304Y-97832508D01*
X226791222Y-97938639D01*
X226800238Y-97960842D01*
X226860931Y-98110314D01*
X226868027Y-98180955D01*
X226833283Y-98246813D01*
X211143512Y-113936583D01*
X211081200Y-113970609D01*
X211010385Y-113965544D01*
X210953549Y-113922997D01*
X210934894Y-113887365D01*
X210925823Y-113860176D01*
X210925822Y-113860174D01*
X210923506Y-113853232D01*
X210887466Y-113794991D01*
X210837356Y-113714015D01*
X210833502Y-113707787D01*
X210828320Y-113702614D01*
X210823773Y-113696877D01*
X210825580Y-113695445D01*
X210796848Y-113642925D01*
X210801858Y-113572105D01*
X210825249Y-113535647D01*
X210824198Y-113534817D01*
X210837748Y-113517660D01*
X210919754Y-113384620D01*
X210925901Y-113371439D01*
X210975241Y-113222686D01*
X210978108Y-113209310D01*
X210987422Y-113118403D01*
X210987679Y-113113374D01*
X210983275Y-113098376D01*
X210981885Y-113097171D01*
X210974202Y-113095500D01*
X209094750Y-113095500D01*
X209026629Y-113075498D01*
X208980136Y-113021842D01*
X208968750Y-112969500D01*
X208968750Y-112951115D01*
X208964275Y-112935876D01*
X208962885Y-112934671D01*
X208955202Y-112933000D01*
X208032750Y-112933000D01*
X207964629Y-112912998D01*
X207918136Y-112859342D01*
X207906750Y-112807000D01*
X207906750Y-112551000D01*
X207926752Y-112482879D01*
X207980408Y-112436386D01*
X208032750Y-112425000D01*
X208896811Y-112425000D01*
X208964932Y-112445002D01*
X209011425Y-112498658D01*
X209021746Y-112561357D01*
X209022242Y-112561382D01*
X209022126Y-112563660D01*
X209022155Y-112563839D01*
X209022078Y-112564589D01*
X209021821Y-112569626D01*
X209026225Y-112584624D01*
X209027615Y-112585829D01*
X209035298Y-112587500D01*
X209732635Y-112587500D01*
X209747874Y-112583025D01*
X209749079Y-112581635D01*
X209750750Y-112573952D01*
X209750750Y-112569385D01*
X210258750Y-112569385D01*
X210263225Y-112584624D01*
X210264615Y-112585829D01*
X210272298Y-112587500D01*
X210969635Y-112587500D01*
X210984874Y-112583025D01*
X210986079Y-112581635D01*
X210987750Y-112573952D01*
X210987750Y-112571062D01*
X210987413Y-112564547D01*
X210977856Y-112472443D01*
X210974962Y-112459044D01*
X210925369Y-112310393D01*
X210919195Y-112297214D01*
X210836962Y-112164327D01*
X210827926Y-112152926D01*
X210717321Y-112042514D01*
X210705910Y-112033502D01*
X210572870Y-111951496D01*
X210559689Y-111945349D01*
X210410936Y-111896009D01*
X210397560Y-111893142D01*
X210306653Y-111883828D01*
X210300236Y-111883500D01*
X210276865Y-111883500D01*
X210261626Y-111887975D01*
X210260421Y-111889365D01*
X210258750Y-111897048D01*
X210258750Y-112569385D01*
X209750750Y-112569385D01*
X209750750Y-111901615D01*
X209746275Y-111886376D01*
X209744885Y-111885171D01*
X209737202Y-111883500D01*
X209709312Y-111883500D01*
X209702797Y-111883837D01*
X209610693Y-111893394D01*
X209597294Y-111896288D01*
X209448643Y-111945881D01*
X209435464Y-111952055D01*
X209302577Y-112034288D01*
X209291176Y-112043324D01*
X209183922Y-112150765D01*
X209121639Y-112184844D01*
X209050819Y-112179841D01*
X208993947Y-112137344D01*
X208969078Y-112070845D01*
X208968749Y-112061747D01*
X208968749Y-112027517D01*
X208968555Y-112022580D01*
X208966320Y-111994164D01*
X208964020Y-111981569D01*
X208921643Y-111835710D01*
X208915398Y-111821279D01*
X208838839Y-111691822D01*
X208829199Y-111679396D01*
X208722854Y-111573051D01*
X208710424Y-111563409D01*
X208574899Y-111483261D01*
X208526446Y-111431369D01*
X208513740Y-111361518D01*
X208540815Y-111295887D01*
X208549942Y-111285712D01*
X223150247Y-96685407D01*
X223158536Y-96677864D01*
X223165018Y-96673750D01*
X223170443Y-96667973D01*
X223170762Y-96667709D01*
X223224878Y-96641549D01*
X223287824Y-96628169D01*
X223287833Y-96628166D01*
X223294288Y-96626794D01*
X223396234Y-96581405D01*
X223462722Y-96551803D01*
X223462724Y-96551802D01*
X223468752Y-96549118D01*
X223475987Y-96543862D01*
X223554917Y-96486515D01*
X223623253Y-96436866D01*
X223660411Y-96395598D01*
X223746621Y-96299852D01*
X223746622Y-96299851D01*
X223751040Y-96294944D01*
X223825747Y-96165548D01*
X223843223Y-96135279D01*
X223843224Y-96135278D01*
X223846527Y-96129556D01*
X223905542Y-95947928D01*
X223909023Y-95914813D01*
X223924814Y-95764565D01*
X223925504Y-95758000D01*
X223924814Y-95751435D01*
X223924814Y-95750500D01*
X223944816Y-95682379D01*
X223998472Y-95635886D01*
X224050814Y-95624500D01*
X226816274Y-95624500D01*
X226884395Y-95644502D01*
G37*
G04 #@! TD.AperFunction*
M02*
