G04 #@! TF.GenerationSoftware,KiCad,Pcbnew,(6.0.7)*
G04 #@! TF.CreationDate,2022-11-23T08:19:57-05:00*
G04 #@! TF.ProjectId,powerboard,706f7765-7262-46f6-9172-642e6b696361,rev?*
G04 #@! TF.SameCoordinates,Original*
G04 #@! TF.FileFunction,Paste,Top*
G04 #@! TF.FilePolarity,Positive*
%FSLAX46Y46*%
G04 Gerber Fmt 4.6, Leading zero omitted, Abs format (unit mm)*
G04 Created by KiCad (PCBNEW (6.0.7)) date 2022-11-23 08:19:57*
%MOMM*%
%LPD*%
G01*
G04 APERTURE LIST*
G04 Aperture macros list*
%AMRoundRect*
0 Rectangle with rounded corners*
0 $1 Rounding radius*
0 $2 $3 $4 $5 $6 $7 $8 $9 X,Y pos of 4 corners*
0 Add a 4 corners polygon primitive as box body*
4,1,4,$2,$3,$4,$5,$6,$7,$8,$9,$2,$3,0*
0 Add four circle primitives for the rounded corners*
1,1,$1+$1,$2,$3*
1,1,$1+$1,$4,$5*
1,1,$1+$1,$6,$7*
1,1,$1+$1,$8,$9*
0 Add four rect primitives between the rounded corners*
20,1,$1+$1,$2,$3,$4,$5,0*
20,1,$1+$1,$4,$5,$6,$7,0*
20,1,$1+$1,$6,$7,$8,$9,0*
20,1,$1+$1,$8,$9,$2,$3,0*%
G04 Aperture macros list end*
%ADD10RoundRect,0.200000X0.200000X0.275000X-0.200000X0.275000X-0.200000X-0.275000X0.200000X-0.275000X0*%
%ADD11O,0.890000X1.550000*%
%ADD12O,1.250000X0.950000*%
%ADD13R,0.400000X1.350000*%
%ADD14R,1.500000X1.550000*%
%ADD15R,1.200000X1.550000*%
%ADD16RoundRect,0.225000X0.225000X0.250000X-0.225000X0.250000X-0.225000X-0.250000X0.225000X-0.250000X0*%
%ADD17RoundRect,0.250000X0.250000X0.475000X-0.250000X0.475000X-0.250000X-0.475000X0.250000X-0.475000X0*%
%ADD18RoundRect,0.225000X-0.225000X-0.250000X0.225000X-0.250000X0.225000X0.250000X-0.225000X0.250000X0*%
%ADD19RoundRect,0.218750X-0.218750X-0.256250X0.218750X-0.256250X0.218750X0.256250X-0.218750X0.256250X0*%
%ADD20RoundRect,0.200000X-0.200000X-0.275000X0.200000X-0.275000X0.200000X0.275000X-0.200000X0.275000X0*%
%ADD21RoundRect,0.140000X0.140000X0.170000X-0.140000X0.170000X-0.140000X-0.170000X0.140000X-0.170000X0*%
%ADD22RoundRect,0.225000X0.250000X-0.225000X0.250000X0.225000X-0.250000X0.225000X-0.250000X-0.225000X0*%
%ADD23RoundRect,0.140000X0.170000X-0.140000X0.170000X0.140000X-0.170000X0.140000X-0.170000X-0.140000X0*%
%ADD24RoundRect,0.140000X-0.170000X0.140000X-0.170000X-0.140000X0.170000X-0.140000X0.170000X0.140000X0*%
%ADD25RoundRect,0.150000X-0.512500X-0.150000X0.512500X-0.150000X0.512500X0.150000X-0.512500X0.150000X0*%
%ADD26R,1.700000X0.650000*%
%ADD27R,1.400000X1.200000*%
%ADD28RoundRect,0.135000X0.185000X-0.135000X0.185000X0.135000X-0.185000X0.135000X-0.185000X-0.135000X0*%
%ADD29RoundRect,0.250000X-0.292217X-0.292217X0.292217X-0.292217X0.292217X0.292217X-0.292217X0.292217X0*%
%ADD30RoundRect,0.050000X-0.387500X-0.050000X0.387500X-0.050000X0.387500X0.050000X-0.387500X0.050000X0*%
%ADD31RoundRect,0.050000X-0.050000X-0.387500X0.050000X-0.387500X0.050000X0.387500X-0.050000X0.387500X0*%
%ADD32RoundRect,0.200000X0.275000X-0.200000X0.275000X0.200000X-0.275000X0.200000X-0.275000X-0.200000X0*%
%ADD33RoundRect,0.250000X-1.450000X0.312500X-1.450000X-0.312500X1.450000X-0.312500X1.450000X0.312500X0*%
%ADD34RoundRect,0.250000X-0.250000X-0.475000X0.250000X-0.475000X0.250000X0.475000X-0.250000X0.475000X0*%
G04 APERTURE END LIST*
D10*
X74485000Y-48615600D03*
X72835000Y-48615600D03*
D11*
X73081000Y-16637000D03*
X80081000Y-16637000D03*
D12*
X74081000Y-19337000D03*
X79081000Y-19337000D03*
D13*
X77881000Y-19337000D03*
X77231000Y-19337000D03*
X76581000Y-19337000D03*
X75931000Y-19337000D03*
X75281000Y-19337000D03*
D14*
X75581000Y-16637000D03*
D15*
X79481000Y-16637000D03*
D14*
X77581000Y-16637000D03*
D15*
X73681000Y-16637000D03*
D16*
X70955200Y-50165000D03*
X69405200Y-50165000D03*
D17*
X92075000Y-17018000D03*
X90175000Y-17018000D03*
X85051750Y-23195200D03*
X83151750Y-23195200D03*
D18*
X115150600Y-39700200D03*
X116700600Y-39700200D03*
D19*
X59461300Y-45821600D03*
X61036300Y-45821600D03*
D17*
X85051750Y-25227200D03*
X83151750Y-25227200D03*
D20*
X114999000Y-59306400D03*
X116649000Y-59306400D03*
D21*
X128115000Y-30962600D03*
X127155000Y-30962600D03*
D22*
X71805800Y-28486400D03*
X71805800Y-26936400D03*
D18*
X115074400Y-56184800D03*
X116624400Y-56184800D03*
D17*
X85077150Y-19131200D03*
X83177150Y-19131200D03*
D18*
X115125200Y-47040800D03*
X116675200Y-47040800D03*
D20*
X60008000Y-24180800D03*
X61658000Y-24180800D03*
X115075200Y-50215800D03*
X116725200Y-50215800D03*
D10*
X108267000Y-22529800D03*
X106617000Y-22529800D03*
D23*
X105105200Y-22463400D03*
X105105200Y-21503400D03*
D24*
X105308400Y-27637800D03*
X105308400Y-28597800D03*
D10*
X64629800Y-40335200D03*
X62979800Y-40335200D03*
X116750600Y-41173400D03*
X115100600Y-41173400D03*
D17*
X92075000Y-21031200D03*
X90175000Y-21031200D03*
D10*
X64629800Y-44983400D03*
X62979800Y-44983400D03*
D25*
X85656650Y-27020400D03*
X85656650Y-27970400D03*
X85656650Y-28920400D03*
X87931650Y-28920400D03*
X87931650Y-27020400D03*
D10*
X64629800Y-41884600D03*
X62979800Y-41884600D03*
D18*
X73672400Y-50215800D03*
X75222400Y-50215800D03*
D17*
X85074800Y-17119600D03*
X83174800Y-17119600D03*
D20*
X115100600Y-42646600D03*
X116750600Y-42646600D03*
D17*
X92075000Y-19024600D03*
X90175000Y-19024600D03*
D26*
X62415400Y-28752800D03*
X62415400Y-30022800D03*
X62415400Y-31292800D03*
X62415400Y-32562800D03*
X69715400Y-32562800D03*
X69715400Y-31292800D03*
X69715400Y-30022800D03*
X69715400Y-28752800D03*
D27*
X73540800Y-51905800D03*
X71340800Y-51905800D03*
X71340800Y-53605800D03*
X73540800Y-53605800D03*
D19*
X59461300Y-42595800D03*
X61036300Y-42595800D03*
X59461300Y-44196000D03*
X61036300Y-44196000D03*
D17*
X92075000Y-23037800D03*
X90175000Y-23037800D03*
D28*
X76377800Y-31294800D03*
X76377800Y-30274800D03*
D10*
X116649000Y-57734200D03*
X114999000Y-57734200D03*
D19*
X59461300Y-47447200D03*
X61036300Y-47447200D03*
D10*
X116725200Y-48641000D03*
X115075200Y-48641000D03*
D17*
X85077150Y-21163200D03*
X83177150Y-21163200D03*
D10*
X108368600Y-27838400D03*
X106718600Y-27838400D03*
D29*
X75076900Y-39208150D03*
X76351900Y-40483150D03*
X75076900Y-40483150D03*
X76351900Y-39208150D03*
D30*
X72276900Y-37245650D03*
X72276900Y-37645650D03*
X72276900Y-38045650D03*
X72276900Y-38445650D03*
X72276900Y-38845650D03*
X72276900Y-39245650D03*
X72276900Y-39645650D03*
X72276900Y-40045650D03*
X72276900Y-40445650D03*
X72276900Y-40845650D03*
X72276900Y-41245650D03*
X72276900Y-41645650D03*
X72276900Y-42045650D03*
X72276900Y-42445650D03*
D31*
X73114400Y-43283150D03*
X73514400Y-43283150D03*
X73914400Y-43283150D03*
X74314400Y-43283150D03*
X74714400Y-43283150D03*
X75114400Y-43283150D03*
X75514400Y-43283150D03*
X75914400Y-43283150D03*
X76314400Y-43283150D03*
X76714400Y-43283150D03*
X77114400Y-43283150D03*
X77514400Y-43283150D03*
X77914400Y-43283150D03*
X78314400Y-43283150D03*
D30*
X79151900Y-42445650D03*
X79151900Y-42045650D03*
X79151900Y-41645650D03*
X79151900Y-41245650D03*
X79151900Y-40845650D03*
X79151900Y-40445650D03*
X79151900Y-40045650D03*
X79151900Y-39645650D03*
X79151900Y-39245650D03*
X79151900Y-38845650D03*
X79151900Y-38445650D03*
X79151900Y-38045650D03*
X79151900Y-37645650D03*
X79151900Y-37245650D03*
D31*
X78314400Y-36408150D03*
X77914400Y-36408150D03*
X77514400Y-36408150D03*
X77114400Y-36408150D03*
X76714400Y-36408150D03*
X76314400Y-36408150D03*
X75914400Y-36408150D03*
X75514400Y-36408150D03*
X75114400Y-36408150D03*
X74714400Y-36408150D03*
X74314400Y-36408150D03*
X73914400Y-36408150D03*
X73514400Y-36408150D03*
X73114400Y-36408150D03*
D32*
X127457200Y-29527000D03*
X127457200Y-27877000D03*
D33*
X90881200Y-27047100D03*
X90881200Y-31322100D03*
D17*
X92075000Y-25069800D03*
X90175000Y-25069800D03*
D34*
X97856000Y-17729200D03*
X99756000Y-17729200D03*
D10*
X64629800Y-43434000D03*
X62979800Y-43434000D03*
D28*
X77444600Y-31294800D03*
X77444600Y-30274800D03*
M02*
