%TF.GenerationSoftware,KiCad,Pcbnew,(6.0.7)*%
%TF.CreationDate,2022-11-23T08:20:42-05:00*%
%TF.ProjectId,powerboard,706f7765-7262-46f6-9172-642e6b696361,rev?*%
%TF.SameCoordinates,Original*%
%TF.FileFunction,Drillmap*%
%TF.FilePolarity,Positive*%
%FSLAX45Y45*%
G04 Gerber Fmt 4.5, Leading zero omitted, Abs format (unit mm)*
G04 Created by KiCad (PCBNEW (6.0.7)) date 2022-11-23 08:20:42*
%MOMM*%
%LPD*%
G01*
G04 APERTURE LIST*
%ADD10C,0.100000*%
%ADD11C,0.200000*%
G04 APERTURE END LIST*
D10*
X13008610Y-6588760D02*
X4888230Y-6588760D01*
X4888230Y-6588760D02*
X4888230Y-1518920D01*
X4888230Y-1518920D02*
X13008610Y-1518920D01*
X13008610Y-1518920D02*
X13008610Y-6588760D01*
D11*
X5140849Y-6904236D02*
X5140849Y-6704236D01*
X5188468Y-6704236D01*
X5217040Y-6713760D01*
X5236087Y-6732808D01*
X5245611Y-6751855D01*
X5255135Y-6789950D01*
X5255135Y-6818522D01*
X5245611Y-6856617D01*
X5236087Y-6875665D01*
X5217040Y-6894712D01*
X5188468Y-6904236D01*
X5140849Y-6904236D01*
X5340849Y-6904236D02*
X5340849Y-6770903D01*
X5340849Y-6808998D02*
X5350373Y-6789950D01*
X5359897Y-6780427D01*
X5378944Y-6770903D01*
X5397992Y-6770903D01*
X5464659Y-6904236D02*
X5464659Y-6770903D01*
X5464659Y-6704236D02*
X5455135Y-6713760D01*
X5464659Y-6723284D01*
X5474182Y-6713760D01*
X5464659Y-6704236D01*
X5464659Y-6723284D01*
X5588468Y-6904236D02*
X5569420Y-6894712D01*
X5559897Y-6875665D01*
X5559897Y-6704236D01*
X5693230Y-6904236D02*
X5674182Y-6894712D01*
X5664658Y-6875665D01*
X5664658Y-6704236D01*
X5921801Y-6904236D02*
X5921801Y-6704236D01*
X5988468Y-6847093D01*
X6055135Y-6704236D01*
X6055135Y-6904236D01*
X6236087Y-6904236D02*
X6236087Y-6799474D01*
X6226563Y-6780427D01*
X6207516Y-6770903D01*
X6169420Y-6770903D01*
X6150373Y-6780427D01*
X6236087Y-6894712D02*
X6217039Y-6904236D01*
X6169420Y-6904236D01*
X6150373Y-6894712D01*
X6140849Y-6875665D01*
X6140849Y-6856617D01*
X6150373Y-6837569D01*
X6169420Y-6828046D01*
X6217039Y-6828046D01*
X6236087Y-6818522D01*
X6331325Y-6770903D02*
X6331325Y-6970903D01*
X6331325Y-6780427D02*
X6350373Y-6770903D01*
X6388468Y-6770903D01*
X6407516Y-6780427D01*
X6417039Y-6789950D01*
X6426563Y-6808998D01*
X6426563Y-6866141D01*
X6417039Y-6885188D01*
X6407516Y-6894712D01*
X6388468Y-6904236D01*
X6350373Y-6904236D01*
X6331325Y-6894712D01*
X6512278Y-6885188D02*
X6521801Y-6894712D01*
X6512278Y-6904236D01*
X6502754Y-6894712D01*
X6512278Y-6885188D01*
X6512278Y-6904236D01*
X6512278Y-6780427D02*
X6521801Y-6789950D01*
X6512278Y-6799474D01*
X6502754Y-6789950D01*
X6512278Y-6780427D01*
X6512278Y-6799474D01*
M02*
