G04 #@! TF.GenerationSoftware,KiCad,Pcbnew,(6.0.7)*
G04 #@! TF.CreationDate,2022-11-23T08:19:57-05:00*
G04 #@! TF.ProjectId,powerboard,706f7765-7262-46f6-9172-642e6b696361,rev?*
G04 #@! TF.SameCoordinates,Original*
G04 #@! TF.FileFunction,Copper,L2,Inr*
G04 #@! TF.FilePolarity,Positive*
%FSLAX46Y46*%
G04 Gerber Fmt 4.6, Leading zero omitted, Abs format (unit mm)*
G04 Created by KiCad (PCBNEW (6.0.7)) date 2022-11-23 08:19:57*
%MOMM*%
%LPD*%
G01*
G04 APERTURE LIST*
G04 #@! TA.AperFunction,ComponentPad*
%ADD10C,2.000000*%
G04 #@! TD*
G04 #@! TA.AperFunction,ComponentPad*
%ADD11R,1.700000X1.700000*%
G04 #@! TD*
G04 #@! TA.AperFunction,ComponentPad*
%ADD12O,1.700000X1.700000*%
G04 #@! TD*
G04 #@! TA.AperFunction,ComponentPad*
%ADD13O,0.890000X1.550000*%
G04 #@! TD*
G04 #@! TA.AperFunction,ComponentPad*
%ADD14O,1.250000X0.950000*%
G04 #@! TD*
G04 #@! TA.AperFunction,ComponentPad*
%ADD15R,2.000000X2.000000*%
G04 #@! TD*
G04 #@! TA.AperFunction,ComponentPad*
%ADD16R,3.200000X2.000000*%
G04 #@! TD*
G04 #@! TA.AperFunction,ComponentPad*
%ADD17C,0.600000*%
G04 #@! TD*
G04 #@! TA.AperFunction,ViaPad*
%ADD18C,0.800000*%
G04 #@! TD*
G04 APERTURE END LIST*
D10*
X125500200Y-37374000D03*
X119000200Y-37374000D03*
X125500200Y-41874000D03*
X119000200Y-41874000D03*
D11*
X87975200Y-58978800D03*
D12*
X90515200Y-58978800D03*
X93055200Y-58978800D03*
D13*
X80081000Y-16637000D03*
D14*
X74081000Y-19337000D03*
D13*
X73081000Y-16637000D03*
D14*
X79081000Y-19337000D03*
D10*
X125424000Y-54036400D03*
X118924000Y-54036400D03*
X125424000Y-58536400D03*
X118924000Y-58536400D03*
D11*
X107340400Y-55676800D03*
D12*
X107340400Y-53136800D03*
X107340400Y-50596800D03*
X107340400Y-48056800D03*
D11*
X53244200Y-49224800D03*
D12*
X53244200Y-51764800D03*
X53244200Y-54304800D03*
X53244200Y-56844800D03*
X53244200Y-59384800D03*
X53244200Y-61924800D03*
D11*
X78094600Y-58978800D03*
D12*
X80634600Y-58978800D03*
X83174600Y-58978800D03*
D11*
X100533600Y-55676800D03*
D12*
X100533600Y-53136800D03*
X100533600Y-50596800D03*
X100533600Y-48056800D03*
D11*
X63068200Y-17729200D03*
D12*
X60528200Y-17729200D03*
D15*
X110580600Y-22646000D03*
D10*
X110580600Y-27646000D03*
X110580600Y-25146000D03*
D16*
X118080600Y-30746000D03*
X118080600Y-19546000D03*
D10*
X125080600Y-27646000D03*
X125080600Y-22646000D03*
D11*
X97510600Y-25659000D03*
D12*
X97510600Y-23119000D03*
D10*
X125449400Y-44943200D03*
X118949400Y-44943200D03*
X118949400Y-49443200D03*
X125449400Y-49443200D03*
D11*
X80545750Y-24460200D03*
D12*
X80545750Y-27000200D03*
D17*
X76989400Y-41120650D03*
X74439400Y-39845650D03*
X75714400Y-39845650D03*
X74439400Y-41120650D03*
X75714400Y-41120650D03*
X76989400Y-38570650D03*
X74439400Y-38570650D03*
X75714400Y-38570650D03*
X76989400Y-39845650D03*
D11*
X52933600Y-43967400D03*
D12*
X52933600Y-41427400D03*
X52933600Y-38887400D03*
X52933600Y-36347400D03*
X52933600Y-33807400D03*
X52933600Y-31267400D03*
X52933600Y-28727400D03*
X52933600Y-26187400D03*
X52933600Y-23647400D03*
X52933600Y-21107400D03*
D18*
X65963800Y-24282400D03*
X103403400Y-42722800D03*
X70637400Y-26720800D03*
X100025200Y-35280600D03*
X99517200Y-19329400D03*
X66395600Y-58216800D03*
X89560400Y-33045400D03*
X52171600Y-16662400D03*
X101930200Y-35280600D03*
X93167200Y-45161200D03*
X81991200Y-34366200D03*
X116255800Y-45212000D03*
X72390000Y-56565800D03*
X58267600Y-44602400D03*
X113436400Y-36931600D03*
X72186800Y-59918600D03*
X67868800Y-24282400D03*
X75717400Y-26822400D03*
X77724000Y-52654200D03*
X88188800Y-50901600D03*
X89560400Y-34696400D03*
X81508600Y-31216600D03*
X81762600Y-21183600D03*
X88188800Y-52552600D03*
X103403400Y-41071800D03*
X67360800Y-50571400D03*
X75107800Y-31064200D03*
X65786000Y-36195000D03*
X105308400Y-41071800D03*
X72186800Y-58267600D03*
X76403200Y-55067200D03*
X105638600Y-36931600D03*
X75717400Y-28473400D03*
X111531400Y-35280600D03*
X67360800Y-52476400D03*
X125704600Y-31445200D03*
X66395600Y-59867800D03*
X123315185Y-64312800D03*
X68300600Y-59867800D03*
X100634800Y-23698200D03*
X93167200Y-43510200D03*
X111531400Y-36931600D03*
X82524600Y-50698400D03*
X91465400Y-34696400D03*
X70281800Y-59918600D03*
X78460600Y-50088800D03*
X105079800Y-20574000D03*
X72263000Y-50241200D03*
X103809800Y-16662400D03*
X101930200Y-36931600D03*
X115951000Y-37896800D03*
X96951800Y-29946600D03*
X95072200Y-43510200D03*
X78079600Y-26847800D03*
X89542260Y-64389000D03*
X91465400Y-33045400D03*
X95072200Y-45161200D03*
X75895200Y-22961600D03*
X69215000Y-48387000D03*
X75260200Y-20802600D03*
X116128800Y-54635400D03*
X70764400Y-47167800D03*
X113436400Y-35280600D03*
X62523920Y-64312800D03*
X66370200Y-61544200D03*
X109728000Y-17145000D03*
X109728000Y-36931600D03*
X107823000Y-35280600D03*
X82524600Y-52349400D03*
X74447400Y-28778200D03*
X103051430Y-64363600D03*
X77393800Y-47980600D03*
X58267600Y-45618400D03*
X95808800Y-28981400D03*
X107823000Y-36931600D03*
X73913500Y-32067147D03*
X103733600Y-36931600D03*
X71247000Y-33553400D03*
X116560600Y-64312800D03*
X88153200Y-21056600D03*
X65963800Y-21005800D03*
X79273400Y-32435800D03*
X69278505Y-64312800D03*
X68300600Y-58216800D03*
X83949350Y-27998550D03*
X75793600Y-47929800D03*
X100634800Y-22047200D03*
X105638600Y-35280600D03*
X69723000Y-24282400D03*
X76033090Y-64287400D03*
X70281800Y-58267600D03*
X109728000Y-35280600D03*
X72161400Y-61595000D03*
X128346200Y-43535600D03*
X128219200Y-50292000D03*
X69723000Y-22656800D03*
X68275200Y-61544200D03*
X128295400Y-36779200D03*
X73583602Y-45923002D03*
X78079600Y-28498800D03*
X85902800Y-33045400D03*
X67868800Y-22656800D03*
X64465200Y-32486600D03*
X75184000Y-53594000D03*
X69494400Y-36347400D03*
X105308400Y-42722800D03*
X125272800Y-17145000D03*
X87807800Y-34696400D03*
X85902800Y-34696400D03*
X100025200Y-36931600D03*
X65963800Y-22656800D03*
X83515200Y-32258000D03*
X86283800Y-50901600D03*
X70256400Y-61595000D03*
X128397000Y-56935917D03*
X58242200Y-46634400D03*
X86283800Y-52552600D03*
X75895200Y-24612600D03*
X128117600Y-64262000D03*
X105460800Y-16662400D03*
X58242200Y-43484800D03*
X69723000Y-21005800D03*
X103733600Y-35280600D03*
X67868800Y-21005800D03*
X105308400Y-29692600D03*
X78079600Y-22987000D03*
X57048400Y-28194000D03*
X96296845Y-64389000D03*
X50520600Y-16662400D03*
X84582000Y-40274815D03*
X78079600Y-24638000D03*
X69037200Y-55448200D03*
X128168400Y-16916400D03*
X87807800Y-33045400D03*
X95046800Y-31597600D03*
X82787675Y-64414400D03*
X109806015Y-64338200D03*
X80086200Y-35280600D03*
X81051400Y-37109400D03*
X70942200Y-36296600D03*
X70017647Y-41367178D03*
X75844400Y-46634400D03*
X83286600Y-40411400D03*
X73228200Y-28727400D03*
X113842800Y-51460400D03*
X113639600Y-60629800D03*
X113538000Y-43942000D03*
X98044000Y-19202400D03*
X75311000Y-32334200D03*
X75184000Y-33578800D03*
X77114400Y-46583600D03*
X78384400Y-34315400D03*
X61315600Y-36423600D03*
X56235600Y-41122600D03*
X59918600Y-39827200D03*
X56108600Y-36372800D03*
X69875400Y-43484800D03*
X68808600Y-42722800D03*
G04 #@! TA.AperFunction,Conductor*
G36*
X72245924Y-15609702D02*
G01*
X72292417Y-15663358D01*
X72302521Y-15733632D01*
X72281017Y-15787970D01*
X72248476Y-15834444D01*
X72242280Y-15845531D01*
X72170460Y-16011495D01*
X72166618Y-16023607D01*
X72129323Y-16202134D01*
X72128085Y-16211666D01*
X72128000Y-16214889D01*
X72128000Y-16364885D01*
X72132475Y-16380124D01*
X72133865Y-16381329D01*
X72141548Y-16383000D01*
X74015885Y-16383000D01*
X74031124Y-16378525D01*
X74032329Y-16377135D01*
X74034000Y-16369452D01*
X74034000Y-16261808D01*
X74033677Y-16255433D01*
X74019995Y-16120733D01*
X74017441Y-16108293D01*
X73963365Y-15935736D01*
X73958356Y-15924048D01*
X73876727Y-15776786D01*
X73861196Y-15707509D01*
X73885583Y-15640833D01*
X73942148Y-15597926D01*
X73986929Y-15589700D01*
X79177803Y-15589700D01*
X79245924Y-15609702D01*
X79292417Y-15663358D01*
X79302521Y-15733632D01*
X79281017Y-15787970D01*
X79248476Y-15834444D01*
X79242280Y-15845531D01*
X79170460Y-16011495D01*
X79166618Y-16023607D01*
X79129323Y-16202134D01*
X79128085Y-16211666D01*
X79128000Y-16214889D01*
X79128000Y-16364885D01*
X79132475Y-16380124D01*
X79133865Y-16381329D01*
X79141548Y-16383000D01*
X81015885Y-16383000D01*
X81031124Y-16378525D01*
X81032329Y-16377135D01*
X81034000Y-16369452D01*
X81034000Y-16261808D01*
X81033677Y-16255433D01*
X81019995Y-16120733D01*
X81017441Y-16108293D01*
X80963365Y-15935736D01*
X80958356Y-15924048D01*
X80876727Y-15776786D01*
X80861196Y-15707509D01*
X80885583Y-15640833D01*
X80942148Y-15597926D01*
X80986929Y-15589700D01*
X129559600Y-15589700D01*
X129627721Y-15609702D01*
X129674214Y-15663358D01*
X129685600Y-15715700D01*
X129685600Y-65361100D01*
X129665598Y-65429221D01*
X129611942Y-65475714D01*
X129559600Y-65487100D01*
X49408800Y-65487100D01*
X49340679Y-65467098D01*
X49294186Y-65413442D01*
X49282800Y-65361100D01*
X49282800Y-62192766D01*
X51912457Y-62192766D01*
X51942765Y-62327246D01*
X51945845Y-62337075D01*
X52025970Y-62534403D01*
X52030613Y-62543594D01*
X52141894Y-62725188D01*
X52147977Y-62733499D01*
X52287413Y-62894467D01*
X52294780Y-62901683D01*
X52458634Y-63037716D01*
X52467081Y-63043631D01*
X52650956Y-63151079D01*
X52660242Y-63155529D01*
X52859201Y-63231503D01*
X52869099Y-63234379D01*
X52972450Y-63255406D01*
X52986499Y-63254210D01*
X52990200Y-63243865D01*
X52990200Y-63243317D01*
X53498200Y-63243317D01*
X53502264Y-63257159D01*
X53515678Y-63259193D01*
X53522384Y-63258334D01*
X53532462Y-63256192D01*
X53736455Y-63194991D01*
X53746042Y-63191233D01*
X53937295Y-63097539D01*
X53946145Y-63092264D01*
X54119528Y-62968592D01*
X54127400Y-62961939D01*
X54278252Y-62811612D01*
X54284930Y-62803765D01*
X54409203Y-62630820D01*
X54414513Y-62621983D01*
X54508870Y-62431067D01*
X54512669Y-62421472D01*
X54574577Y-62217710D01*
X54576755Y-62207637D01*
X54578186Y-62196762D01*
X54575975Y-62182578D01*
X54562817Y-62178800D01*
X53516315Y-62178800D01*
X53501076Y-62183275D01*
X53499871Y-62184665D01*
X53498200Y-62192348D01*
X53498200Y-63243317D01*
X52990200Y-63243317D01*
X52990200Y-62196915D01*
X52985725Y-62181676D01*
X52984335Y-62180471D01*
X52976652Y-62178800D01*
X51927425Y-62178800D01*
X51913894Y-62182773D01*
X51912457Y-62192766D01*
X49282800Y-62192766D01*
X49282800Y-61658983D01*
X51908589Y-61658983D01*
X51910112Y-61667407D01*
X51922492Y-61670800D01*
X54562544Y-61670800D01*
X54576075Y-61666827D01*
X54577380Y-61657747D01*
X54535414Y-61490675D01*
X54532094Y-61480924D01*
X54447172Y-61285614D01*
X54442305Y-61276539D01*
X54326626Y-61097726D01*
X54320336Y-61089557D01*
X54177006Y-60932040D01*
X54169473Y-60925015D01*
X54002339Y-60793022D01*
X53993752Y-60787317D01*
X53807317Y-60684399D01*
X53797905Y-60680169D01*
X53655669Y-60629800D01*
X113033918Y-60629800D01*
X113054556Y-60786562D01*
X113115064Y-60932641D01*
X113211318Y-61058082D01*
X113336759Y-61154336D01*
X113482838Y-61214844D01*
X113639600Y-61235482D01*
X113647788Y-61234404D01*
X113788174Y-61215922D01*
X113796362Y-61214844D01*
X113942441Y-61154336D01*
X114067882Y-61058082D01*
X114164136Y-60932641D01*
X114224644Y-60786562D01*
X114245282Y-60629800D01*
X114224644Y-60473038D01*
X114164136Y-60326959D01*
X114067882Y-60201518D01*
X113942441Y-60105264D01*
X113796362Y-60044756D01*
X113639600Y-60024118D01*
X113482838Y-60044756D01*
X113336759Y-60105264D01*
X113211318Y-60201518D01*
X113115064Y-60326959D01*
X113054556Y-60473038D01*
X113033918Y-60629800D01*
X53655669Y-60629800D01*
X53606231Y-60612293D01*
X53548695Y-60570699D01*
X53522779Y-60504601D01*
X53536713Y-60434985D01*
X53586072Y-60383954D01*
X53614406Y-60372162D01*
X53619990Y-60370603D01*
X53619999Y-60370600D01*
X53625925Y-60368945D01*
X53631414Y-60366172D01*
X53631420Y-60366170D01*
X53804316Y-60278833D01*
X53809810Y-60276058D01*
X53972151Y-60149224D01*
X54071479Y-60034151D01*
X54102740Y-59997934D01*
X54102740Y-59997933D01*
X54106764Y-59993272D01*
X54127587Y-59956618D01*
X54174820Y-59873472D01*
X54174822Y-59873469D01*
X76736601Y-59873469D01*
X76736971Y-59880290D01*
X76742495Y-59931152D01*
X76746121Y-59946404D01*
X76791276Y-60066854D01*
X76799814Y-60082449D01*
X76876315Y-60184524D01*
X76888876Y-60197085D01*
X76990951Y-60273586D01*
X77006546Y-60282124D01*
X77126994Y-60327278D01*
X77142249Y-60330905D01*
X77193114Y-60336431D01*
X77199928Y-60336800D01*
X77822485Y-60336800D01*
X77837724Y-60332325D01*
X77838929Y-60330935D01*
X77840600Y-60323252D01*
X77840600Y-60318684D01*
X78348600Y-60318684D01*
X78353075Y-60333923D01*
X78354465Y-60335128D01*
X78362148Y-60336799D01*
X78989269Y-60336799D01*
X78996090Y-60336429D01*
X79046952Y-60330905D01*
X79062204Y-60327279D01*
X79182654Y-60282124D01*
X79198249Y-60273586D01*
X79300324Y-60197085D01*
X79312885Y-60184524D01*
X79389386Y-60082449D01*
X79397924Y-60066854D01*
X79443078Y-59946406D01*
X79446705Y-59931151D01*
X79452231Y-59880286D01*
X79452600Y-59873472D01*
X79452600Y-59497992D01*
X79472602Y-59429871D01*
X79526258Y-59383378D01*
X79596532Y-59373274D01*
X79661112Y-59402768D01*
X79690667Y-59440398D01*
X79747312Y-59550618D01*
X79817892Y-59639668D01*
X79871160Y-59706875D01*
X79875277Y-59712070D01*
X79879970Y-59716064D01*
X79879971Y-59716065D01*
X79988337Y-59808291D01*
X80032164Y-59845591D01*
X80211998Y-59946097D01*
X80306838Y-59976913D01*
X80402071Y-60007856D01*
X80402075Y-60007857D01*
X80407929Y-60009759D01*
X80612494Y-60034151D01*
X80618629Y-60033679D01*
X80618631Y-60033679D01*
X80674639Y-60029369D01*
X80817900Y-60018346D01*
X80823830Y-60016690D01*
X80823832Y-60016690D01*
X81010397Y-59964600D01*
X81010396Y-59964600D01*
X81016325Y-59962945D01*
X81021814Y-59960172D01*
X81021820Y-59960170D01*
X81194716Y-59872833D01*
X81200210Y-59870058D01*
X81362551Y-59743224D01*
X81372278Y-59731956D01*
X81493140Y-59591934D01*
X81493140Y-59591933D01*
X81497164Y-59587272D01*
X81517987Y-59550618D01*
X81560053Y-59476568D01*
X81598923Y-59408144D01*
X81663951Y-59212663D01*
X81689771Y-59008274D01*
X81690183Y-58978800D01*
X81688738Y-58964062D01*
X82119120Y-58964062D01*
X82136359Y-59169353D01*
X82138058Y-59175278D01*
X82180540Y-59323429D01*
X82193144Y-59367386D01*
X82195959Y-59372863D01*
X82195960Y-59372866D01*
X82284497Y-59545141D01*
X82287312Y-59550618D01*
X82357892Y-59639668D01*
X82411160Y-59706875D01*
X82415277Y-59712070D01*
X82419970Y-59716064D01*
X82419971Y-59716065D01*
X82528337Y-59808291D01*
X82572164Y-59845591D01*
X82751998Y-59946097D01*
X82846838Y-59976913D01*
X82942071Y-60007856D01*
X82942075Y-60007857D01*
X82947929Y-60009759D01*
X83152494Y-60034151D01*
X83158629Y-60033679D01*
X83158631Y-60033679D01*
X83214639Y-60029369D01*
X83357900Y-60018346D01*
X83363830Y-60016690D01*
X83363832Y-60016690D01*
X83550397Y-59964600D01*
X83550396Y-59964600D01*
X83556325Y-59962945D01*
X83561814Y-59960172D01*
X83561820Y-59960170D01*
X83733457Y-59873469D01*
X86617201Y-59873469D01*
X86617571Y-59880290D01*
X86623095Y-59931152D01*
X86626721Y-59946404D01*
X86671876Y-60066854D01*
X86680414Y-60082449D01*
X86756915Y-60184524D01*
X86769476Y-60197085D01*
X86871551Y-60273586D01*
X86887146Y-60282124D01*
X87007594Y-60327278D01*
X87022849Y-60330905D01*
X87073714Y-60336431D01*
X87080528Y-60336800D01*
X87703085Y-60336800D01*
X87718324Y-60332325D01*
X87719529Y-60330935D01*
X87721200Y-60323252D01*
X87721200Y-60318684D01*
X88229200Y-60318684D01*
X88233675Y-60333923D01*
X88235065Y-60335128D01*
X88242748Y-60336799D01*
X88869869Y-60336799D01*
X88876690Y-60336429D01*
X88927552Y-60330905D01*
X88942804Y-60327279D01*
X89063254Y-60282124D01*
X89078849Y-60273586D01*
X89180924Y-60197085D01*
X89193485Y-60184524D01*
X89269986Y-60082449D01*
X89278524Y-60066854D01*
X89323678Y-59946406D01*
X89327305Y-59931151D01*
X89332831Y-59880286D01*
X89333200Y-59873472D01*
X89333200Y-59497992D01*
X89353202Y-59429871D01*
X89406858Y-59383378D01*
X89477132Y-59373274D01*
X89541712Y-59402768D01*
X89571267Y-59440398D01*
X89627912Y-59550618D01*
X89698492Y-59639668D01*
X89751760Y-59706875D01*
X89755877Y-59712070D01*
X89760570Y-59716064D01*
X89760571Y-59716065D01*
X89868937Y-59808291D01*
X89912764Y-59845591D01*
X90092598Y-59946097D01*
X90187438Y-59976913D01*
X90282671Y-60007856D01*
X90282675Y-60007857D01*
X90288529Y-60009759D01*
X90493094Y-60034151D01*
X90499229Y-60033679D01*
X90499231Y-60033679D01*
X90555239Y-60029369D01*
X90698500Y-60018346D01*
X90704430Y-60016690D01*
X90704432Y-60016690D01*
X90890997Y-59964600D01*
X90890996Y-59964600D01*
X90896925Y-59962945D01*
X90902414Y-59960172D01*
X90902420Y-59960170D01*
X91075316Y-59872833D01*
X91080810Y-59870058D01*
X91243151Y-59743224D01*
X91252878Y-59731956D01*
X91373740Y-59591934D01*
X91373740Y-59591933D01*
X91377764Y-59587272D01*
X91398587Y-59550618D01*
X91440653Y-59476568D01*
X91479523Y-59408144D01*
X91544551Y-59212663D01*
X91570371Y-59008274D01*
X91570783Y-58978800D01*
X91569338Y-58964062D01*
X91999720Y-58964062D01*
X92016959Y-59169353D01*
X92018658Y-59175278D01*
X92061140Y-59323429D01*
X92073744Y-59367386D01*
X92076559Y-59372863D01*
X92076560Y-59372866D01*
X92165097Y-59545141D01*
X92167912Y-59550618D01*
X92238492Y-59639668D01*
X92291760Y-59706875D01*
X92295877Y-59712070D01*
X92300570Y-59716064D01*
X92300571Y-59716065D01*
X92408937Y-59808291D01*
X92452764Y-59845591D01*
X92632598Y-59946097D01*
X92727438Y-59976913D01*
X92822671Y-60007856D01*
X92822675Y-60007857D01*
X92828529Y-60009759D01*
X93033094Y-60034151D01*
X93039229Y-60033679D01*
X93039231Y-60033679D01*
X93095239Y-60029369D01*
X93238500Y-60018346D01*
X93244430Y-60016690D01*
X93244432Y-60016690D01*
X93430997Y-59964600D01*
X93430996Y-59964600D01*
X93436925Y-59962945D01*
X93442414Y-59960172D01*
X93442420Y-59960170D01*
X93615316Y-59872833D01*
X93620810Y-59870058D01*
X93783151Y-59743224D01*
X93792878Y-59731956D01*
X93913740Y-59591934D01*
X93913740Y-59591933D01*
X93917764Y-59587272D01*
X93938587Y-59550618D01*
X93980653Y-59476568D01*
X94019523Y-59408144D01*
X94084551Y-59212663D01*
X94110371Y-59008274D01*
X94110783Y-58978800D01*
X94090680Y-58773770D01*
X94031135Y-58576549D01*
X93993007Y-58504840D01*
X117718770Y-58504840D01*
X117733200Y-58725004D01*
X117734621Y-58730600D01*
X117734622Y-58730605D01*
X117786090Y-58933257D01*
X117787511Y-58938852D01*
X117789928Y-58944094D01*
X117789928Y-58944095D01*
X117828046Y-59026779D01*
X117879883Y-59139221D01*
X118007222Y-59319402D01*
X118165264Y-59473361D01*
X118170060Y-59476566D01*
X118170063Y-59476568D01*
X118288113Y-59555446D01*
X118348717Y-59595940D01*
X118354020Y-59598218D01*
X118354023Y-59598220D01*
X118546129Y-59680755D01*
X118551436Y-59683035D01*
X118631088Y-59701058D01*
X118760995Y-59730454D01*
X118761001Y-59730455D01*
X118766632Y-59731729D01*
X118772403Y-59731956D01*
X118772405Y-59731956D01*
X118840211Y-59734620D01*
X118987098Y-59740391D01*
X119096275Y-59724561D01*
X119199738Y-59709560D01*
X119199743Y-59709559D01*
X119205452Y-59708731D01*
X119210916Y-59706876D01*
X119210921Y-59706875D01*
X119408907Y-59639668D01*
X119408912Y-59639666D01*
X119414379Y-59637810D01*
X119448569Y-59618663D01*
X119579851Y-59545141D01*
X119606884Y-59530002D01*
X119714621Y-59440398D01*
X119772086Y-59392604D01*
X119776518Y-59388918D01*
X119917602Y-59219284D01*
X120025410Y-59026779D01*
X120027266Y-59021312D01*
X120027268Y-59021307D01*
X120094475Y-58823321D01*
X120094476Y-58823316D01*
X120096331Y-58817852D01*
X120097159Y-58812143D01*
X120097160Y-58812138D01*
X120123479Y-58630615D01*
X120127991Y-58599498D01*
X120129643Y-58536400D01*
X120126743Y-58504840D01*
X124218770Y-58504840D01*
X124233200Y-58725004D01*
X124234621Y-58730600D01*
X124234622Y-58730605D01*
X124286090Y-58933257D01*
X124287511Y-58938852D01*
X124289928Y-58944094D01*
X124289928Y-58944095D01*
X124328046Y-59026779D01*
X124379883Y-59139221D01*
X124507222Y-59319402D01*
X124665264Y-59473361D01*
X124670060Y-59476566D01*
X124670063Y-59476568D01*
X124788113Y-59555446D01*
X124848717Y-59595940D01*
X124854020Y-59598218D01*
X124854023Y-59598220D01*
X125046129Y-59680755D01*
X125051436Y-59683035D01*
X125131088Y-59701058D01*
X125260995Y-59730454D01*
X125261001Y-59730455D01*
X125266632Y-59731729D01*
X125272403Y-59731956D01*
X125272405Y-59731956D01*
X125340211Y-59734620D01*
X125487098Y-59740391D01*
X125596275Y-59724561D01*
X125699738Y-59709560D01*
X125699743Y-59709559D01*
X125705452Y-59708731D01*
X125710916Y-59706876D01*
X125710921Y-59706875D01*
X125908907Y-59639668D01*
X125908912Y-59639666D01*
X125914379Y-59637810D01*
X125948569Y-59618663D01*
X126079851Y-59545141D01*
X126106884Y-59530002D01*
X126214621Y-59440398D01*
X126272086Y-59392604D01*
X126276518Y-59388918D01*
X126417602Y-59219284D01*
X126525410Y-59026779D01*
X126527266Y-59021312D01*
X126527268Y-59021307D01*
X126594475Y-58823321D01*
X126594476Y-58823316D01*
X126596331Y-58817852D01*
X126597159Y-58812143D01*
X126597160Y-58812138D01*
X126623479Y-58630615D01*
X126627991Y-58599498D01*
X126629643Y-58536400D01*
X126609454Y-58316689D01*
X126549565Y-58104336D01*
X126469192Y-57941355D01*
X126454535Y-57911634D01*
X126451980Y-57906453D01*
X126382943Y-57814001D01*
X126323420Y-57734291D01*
X126323420Y-57734290D01*
X126319967Y-57729667D01*
X126208540Y-57626665D01*
X126162189Y-57583818D01*
X126162186Y-57583816D01*
X126157949Y-57579899D01*
X125971350Y-57462164D01*
X125766421Y-57380406D01*
X125760761Y-57379280D01*
X125760757Y-57379279D01*
X125555691Y-57338489D01*
X125555688Y-57338489D01*
X125550024Y-57337362D01*
X125544249Y-57337286D01*
X125544245Y-57337286D01*
X125433504Y-57335837D01*
X125329406Y-57334474D01*
X125323709Y-57335453D01*
X125323708Y-57335453D01*
X125117654Y-57370859D01*
X125117653Y-57370859D01*
X125111957Y-57371838D01*
X124904957Y-57448204D01*
X124715341Y-57561014D01*
X124549457Y-57706490D01*
X124412863Y-57879760D01*
X124310131Y-58075020D01*
X124244703Y-58285733D01*
X124218770Y-58504840D01*
X120126743Y-58504840D01*
X120109454Y-58316689D01*
X120049565Y-58104336D01*
X119969192Y-57941355D01*
X119954535Y-57911634D01*
X119951980Y-57906453D01*
X119882943Y-57814001D01*
X119823420Y-57734291D01*
X119823420Y-57734290D01*
X119819967Y-57729667D01*
X119708540Y-57626665D01*
X119662189Y-57583818D01*
X119662186Y-57583816D01*
X119657949Y-57579899D01*
X119471350Y-57462164D01*
X119266421Y-57380406D01*
X119260761Y-57379280D01*
X119260757Y-57379279D01*
X119055691Y-57338489D01*
X119055688Y-57338489D01*
X119050024Y-57337362D01*
X119044249Y-57337286D01*
X119044245Y-57337286D01*
X118933504Y-57335837D01*
X118829406Y-57334474D01*
X118823709Y-57335453D01*
X118823708Y-57335453D01*
X118617654Y-57370859D01*
X118617653Y-57370859D01*
X118611957Y-57371838D01*
X118404957Y-57448204D01*
X118215341Y-57561014D01*
X118049457Y-57706490D01*
X117912863Y-57879760D01*
X117810131Y-58075020D01*
X117744703Y-58285733D01*
X117718770Y-58504840D01*
X93993007Y-58504840D01*
X93934418Y-58394649D01*
X93845588Y-58285733D01*
X93808106Y-58239775D01*
X93808103Y-58239772D01*
X93804211Y-58235000D01*
X93786986Y-58220750D01*
X93650225Y-58107611D01*
X93650221Y-58107609D01*
X93645475Y-58103682D01*
X93464255Y-58005697D01*
X93267454Y-57944777D01*
X93261329Y-57944133D01*
X93261328Y-57944133D01*
X93068698Y-57923887D01*
X93068696Y-57923887D01*
X93062569Y-57923243D01*
X92975729Y-57931146D01*
X92863542Y-57941355D01*
X92863539Y-57941356D01*
X92857403Y-57941914D01*
X92659772Y-58000080D01*
X92477202Y-58095526D01*
X92472401Y-58099386D01*
X92472398Y-58099388D01*
X92462171Y-58107611D01*
X92316647Y-58224615D01*
X92184224Y-58382430D01*
X92181256Y-58387828D01*
X92181253Y-58387833D01*
X92097542Y-58540104D01*
X92084976Y-58562962D01*
X92022684Y-58759332D01*
X92021998Y-58765449D01*
X92021997Y-58765453D01*
X92003175Y-58933257D01*
X91999720Y-58964062D01*
X91569338Y-58964062D01*
X91550680Y-58773770D01*
X91491135Y-58576549D01*
X91394418Y-58394649D01*
X91305588Y-58285733D01*
X91268106Y-58239775D01*
X91268103Y-58239772D01*
X91264211Y-58235000D01*
X91246986Y-58220750D01*
X91110225Y-58107611D01*
X91110221Y-58107609D01*
X91105475Y-58103682D01*
X90924255Y-58005697D01*
X90727454Y-57944777D01*
X90721329Y-57944133D01*
X90721328Y-57944133D01*
X90528698Y-57923887D01*
X90528696Y-57923887D01*
X90522569Y-57923243D01*
X90435729Y-57931146D01*
X90323542Y-57941355D01*
X90323539Y-57941356D01*
X90317403Y-57941914D01*
X90119772Y-58000080D01*
X89937202Y-58095526D01*
X89932401Y-58099386D01*
X89932398Y-58099388D01*
X89922171Y-58107611D01*
X89776647Y-58224615D01*
X89644224Y-58382430D01*
X89641254Y-58387833D01*
X89641253Y-58387834D01*
X89569614Y-58518145D01*
X89519268Y-58568204D01*
X89449851Y-58583097D01*
X89383402Y-58558096D01*
X89341018Y-58501139D01*
X89333199Y-58457444D01*
X89333199Y-58084131D01*
X89332829Y-58077310D01*
X89327305Y-58026448D01*
X89323679Y-58011196D01*
X89278524Y-57890746D01*
X89269986Y-57875151D01*
X89193485Y-57773076D01*
X89180924Y-57760515D01*
X89078849Y-57684014D01*
X89063254Y-57675476D01*
X88942806Y-57630322D01*
X88927551Y-57626695D01*
X88876686Y-57621169D01*
X88869872Y-57620800D01*
X88247315Y-57620800D01*
X88232076Y-57625275D01*
X88230871Y-57626665D01*
X88229200Y-57634348D01*
X88229200Y-60318684D01*
X87721200Y-60318684D01*
X87721200Y-59250915D01*
X87716725Y-59235676D01*
X87715335Y-59234471D01*
X87707652Y-59232800D01*
X86635316Y-59232800D01*
X86620077Y-59237275D01*
X86618872Y-59238665D01*
X86617201Y-59246348D01*
X86617201Y-59873469D01*
X83733457Y-59873469D01*
X83734716Y-59872833D01*
X83740210Y-59870058D01*
X83902551Y-59743224D01*
X83912278Y-59731956D01*
X84033140Y-59591934D01*
X84033140Y-59591933D01*
X84037164Y-59587272D01*
X84057987Y-59550618D01*
X84100053Y-59476568D01*
X84138923Y-59408144D01*
X84203951Y-59212663D01*
X84229771Y-59008274D01*
X84230183Y-58978800D01*
X84210080Y-58773770D01*
X84189826Y-58706685D01*
X86617200Y-58706685D01*
X86621675Y-58721924D01*
X86623065Y-58723129D01*
X86630748Y-58724800D01*
X87703085Y-58724800D01*
X87718324Y-58720325D01*
X87719529Y-58718935D01*
X87721200Y-58711252D01*
X87721200Y-57638916D01*
X87716725Y-57623677D01*
X87715335Y-57622472D01*
X87707652Y-57620801D01*
X87080531Y-57620801D01*
X87073710Y-57621171D01*
X87022848Y-57626695D01*
X87007596Y-57630321D01*
X86887146Y-57675476D01*
X86871551Y-57684014D01*
X86769476Y-57760515D01*
X86756915Y-57773076D01*
X86680414Y-57875151D01*
X86671876Y-57890746D01*
X86626722Y-58011194D01*
X86623095Y-58026449D01*
X86617569Y-58077314D01*
X86617200Y-58084128D01*
X86617200Y-58706685D01*
X84189826Y-58706685D01*
X84150535Y-58576549D01*
X84053818Y-58394649D01*
X83964988Y-58285733D01*
X83927506Y-58239775D01*
X83927503Y-58239772D01*
X83923611Y-58235000D01*
X83906386Y-58220750D01*
X83769625Y-58107611D01*
X83769621Y-58107609D01*
X83764875Y-58103682D01*
X83583655Y-58005697D01*
X83386854Y-57944777D01*
X83380729Y-57944133D01*
X83380728Y-57944133D01*
X83188098Y-57923887D01*
X83188096Y-57923887D01*
X83181969Y-57923243D01*
X83095129Y-57931146D01*
X82982942Y-57941355D01*
X82982939Y-57941356D01*
X82976803Y-57941914D01*
X82779172Y-58000080D01*
X82596602Y-58095526D01*
X82591801Y-58099386D01*
X82591798Y-58099388D01*
X82581571Y-58107611D01*
X82436047Y-58224615D01*
X82303624Y-58382430D01*
X82300656Y-58387828D01*
X82300653Y-58387833D01*
X82216942Y-58540104D01*
X82204376Y-58562962D01*
X82142084Y-58759332D01*
X82141398Y-58765449D01*
X82141397Y-58765453D01*
X82122575Y-58933257D01*
X82119120Y-58964062D01*
X81688738Y-58964062D01*
X81670080Y-58773770D01*
X81610535Y-58576549D01*
X81513818Y-58394649D01*
X81424988Y-58285733D01*
X81387506Y-58239775D01*
X81387503Y-58239772D01*
X81383611Y-58235000D01*
X81366386Y-58220750D01*
X81229625Y-58107611D01*
X81229621Y-58107609D01*
X81224875Y-58103682D01*
X81043655Y-58005697D01*
X80846854Y-57944777D01*
X80840729Y-57944133D01*
X80840728Y-57944133D01*
X80648098Y-57923887D01*
X80648096Y-57923887D01*
X80641969Y-57923243D01*
X80555129Y-57931146D01*
X80442942Y-57941355D01*
X80442939Y-57941356D01*
X80436803Y-57941914D01*
X80239172Y-58000080D01*
X80056602Y-58095526D01*
X80051801Y-58099386D01*
X80051798Y-58099388D01*
X80041571Y-58107611D01*
X79896047Y-58224615D01*
X79763624Y-58382430D01*
X79760654Y-58387833D01*
X79760653Y-58387834D01*
X79689014Y-58518145D01*
X79638668Y-58568204D01*
X79569251Y-58583097D01*
X79502802Y-58558096D01*
X79460418Y-58501139D01*
X79452599Y-58457444D01*
X79452599Y-58084131D01*
X79452229Y-58077310D01*
X79446705Y-58026448D01*
X79443079Y-58011196D01*
X79397924Y-57890746D01*
X79389386Y-57875151D01*
X79312885Y-57773076D01*
X79300324Y-57760515D01*
X79198249Y-57684014D01*
X79182654Y-57675476D01*
X79062206Y-57630322D01*
X79046951Y-57626695D01*
X78996086Y-57621169D01*
X78989272Y-57620800D01*
X78366715Y-57620800D01*
X78351476Y-57625275D01*
X78350271Y-57626665D01*
X78348600Y-57634348D01*
X78348600Y-60318684D01*
X77840600Y-60318684D01*
X77840600Y-59250915D01*
X77836125Y-59235676D01*
X77834735Y-59234471D01*
X77827052Y-59232800D01*
X76754716Y-59232800D01*
X76739477Y-59237275D01*
X76738272Y-59238665D01*
X76736601Y-59246348D01*
X76736601Y-59873469D01*
X54174822Y-59873469D01*
X54208523Y-59814144D01*
X54273551Y-59618663D01*
X54299371Y-59414274D01*
X54299674Y-59392604D01*
X54299734Y-59388322D01*
X54299734Y-59388318D01*
X54299783Y-59384800D01*
X54279680Y-59179770D01*
X54220135Y-58982549D01*
X54123418Y-58800649D01*
X54046783Y-58706685D01*
X76736600Y-58706685D01*
X76741075Y-58721924D01*
X76742465Y-58723129D01*
X76750148Y-58724800D01*
X77822485Y-58724800D01*
X77837724Y-58720325D01*
X77838929Y-58718935D01*
X77840600Y-58711252D01*
X77840600Y-57638916D01*
X77836125Y-57623677D01*
X77834735Y-57622472D01*
X77827052Y-57620801D01*
X77199931Y-57620801D01*
X77193110Y-57621171D01*
X77142248Y-57626695D01*
X77126996Y-57630321D01*
X77006546Y-57675476D01*
X76990951Y-57684014D01*
X76888876Y-57760515D01*
X76876315Y-57773076D01*
X76799814Y-57875151D01*
X76791276Y-57890746D01*
X76746122Y-58011194D01*
X76742495Y-58026449D01*
X76736969Y-58077314D01*
X76736600Y-58084128D01*
X76736600Y-58706685D01*
X54046783Y-58706685D01*
X53997106Y-58645775D01*
X53997103Y-58645772D01*
X53993211Y-58641000D01*
X53943044Y-58599498D01*
X53839225Y-58513611D01*
X53839221Y-58513609D01*
X53834475Y-58509682D01*
X53653255Y-58411697D01*
X53456454Y-58350777D01*
X53450329Y-58350133D01*
X53450328Y-58350133D01*
X53257698Y-58329887D01*
X53257696Y-58329887D01*
X53251569Y-58329243D01*
X53164729Y-58337146D01*
X53052542Y-58347355D01*
X53052539Y-58347356D01*
X53046403Y-58347914D01*
X52848772Y-58406080D01*
X52666202Y-58501526D01*
X52661401Y-58505386D01*
X52661398Y-58505388D01*
X52548962Y-58595789D01*
X52505647Y-58630615D01*
X52373224Y-58788430D01*
X52370256Y-58793828D01*
X52370253Y-58793833D01*
X52293605Y-58933257D01*
X52273976Y-58968962D01*
X52211684Y-59165332D01*
X52210998Y-59171449D01*
X52210997Y-59171453D01*
X52202084Y-59250915D01*
X52188720Y-59370062D01*
X52189236Y-59376206D01*
X52201841Y-59526308D01*
X52205959Y-59575353D01*
X52207658Y-59581278D01*
X52255182Y-59747013D01*
X52262744Y-59773386D01*
X52265559Y-59778863D01*
X52265560Y-59778866D01*
X52351505Y-59946097D01*
X52356912Y-59956618D01*
X52484877Y-60118070D01*
X52489570Y-60122064D01*
X52489571Y-60122065D01*
X52577720Y-60197085D01*
X52641764Y-60251591D01*
X52821598Y-60352097D01*
X52886637Y-60373229D01*
X52945242Y-60413302D01*
X52972880Y-60478698D01*
X52960774Y-60548655D01*
X52912768Y-60600962D01*
X52886846Y-60612827D01*
X52721068Y-60667012D01*
X52711559Y-60671009D01*
X52522663Y-60769342D01*
X52513938Y-60774836D01*
X52343633Y-60902705D01*
X52335926Y-60909548D01*
X52188790Y-61063517D01*
X52182304Y-61071527D01*
X52062298Y-61247449D01*
X52057200Y-61256423D01*
X51967538Y-61449583D01*
X51963975Y-61459270D01*
X51908589Y-61658983D01*
X49282800Y-61658983D01*
X49282800Y-56830062D01*
X52188720Y-56830062D01*
X52205959Y-57035353D01*
X52262744Y-57233386D01*
X52265559Y-57238863D01*
X52265560Y-57238866D01*
X52339401Y-57382546D01*
X52356912Y-57416618D01*
X52484877Y-57578070D01*
X52489570Y-57582064D01*
X52489571Y-57582065D01*
X52551004Y-57634348D01*
X52641764Y-57711591D01*
X52821598Y-57812097D01*
X52916438Y-57842913D01*
X53011671Y-57873856D01*
X53011675Y-57873857D01*
X53017529Y-57875759D01*
X53222094Y-57900151D01*
X53228229Y-57899679D01*
X53228231Y-57899679D01*
X53284239Y-57895369D01*
X53427500Y-57884346D01*
X53433430Y-57882690D01*
X53433432Y-57882690D01*
X53619997Y-57830600D01*
X53619996Y-57830600D01*
X53625925Y-57828945D01*
X53631414Y-57826172D01*
X53631420Y-57826170D01*
X53804316Y-57738833D01*
X53809810Y-57736058D01*
X53823003Y-57725751D01*
X53934147Y-57638916D01*
X53972151Y-57609224D01*
X53997464Y-57579899D01*
X54102740Y-57457934D01*
X54102740Y-57457933D01*
X54106764Y-57453272D01*
X54127587Y-57416618D01*
X54172653Y-57337286D01*
X54208523Y-57274144D01*
X54273551Y-57078663D01*
X54299371Y-56874274D01*
X54299783Y-56844800D01*
X54279680Y-56639770D01*
X54251534Y-56546548D01*
X99483100Y-56546548D01*
X99494733Y-56605031D01*
X99539048Y-56671352D01*
X99605369Y-56715667D01*
X99617538Y-56718088D01*
X99617539Y-56718088D01*
X99657784Y-56726093D01*
X99663852Y-56727300D01*
X101403348Y-56727300D01*
X101409416Y-56726093D01*
X101449661Y-56718088D01*
X101449662Y-56718088D01*
X101461831Y-56715667D01*
X101528152Y-56671352D01*
X101572467Y-56605031D01*
X101584100Y-56546548D01*
X106289900Y-56546548D01*
X106301533Y-56605031D01*
X106345848Y-56671352D01*
X106412169Y-56715667D01*
X106424338Y-56718088D01*
X106424339Y-56718088D01*
X106464584Y-56726093D01*
X106470652Y-56727300D01*
X108210148Y-56727300D01*
X108216216Y-56726093D01*
X108256461Y-56718088D01*
X108256462Y-56718088D01*
X108268631Y-56715667D01*
X108334952Y-56671352D01*
X108379267Y-56605031D01*
X108390900Y-56546548D01*
X108390900Y-55269070D01*
X118056160Y-55269070D01*
X118061887Y-55276720D01*
X118233042Y-55381605D01*
X118241837Y-55386087D01*
X118451988Y-55473134D01*
X118461373Y-55476183D01*
X118682554Y-55529285D01*
X118692301Y-55530828D01*
X118919070Y-55548675D01*
X118928930Y-55548675D01*
X119155699Y-55530828D01*
X119165446Y-55529285D01*
X119386627Y-55476183D01*
X119396012Y-55473134D01*
X119606163Y-55386087D01*
X119614958Y-55381605D01*
X119782445Y-55278968D01*
X119791400Y-55269070D01*
X124556160Y-55269070D01*
X124561887Y-55276720D01*
X124733042Y-55381605D01*
X124741837Y-55386087D01*
X124951988Y-55473134D01*
X124961373Y-55476183D01*
X125182554Y-55529285D01*
X125192301Y-55530828D01*
X125419070Y-55548675D01*
X125428930Y-55548675D01*
X125655699Y-55530828D01*
X125665446Y-55529285D01*
X125886627Y-55476183D01*
X125896012Y-55473134D01*
X126106163Y-55386087D01*
X126114958Y-55381605D01*
X126282445Y-55278968D01*
X126291907Y-55268510D01*
X126288124Y-55259734D01*
X125436812Y-54408422D01*
X125422868Y-54400808D01*
X125421035Y-54400939D01*
X125414420Y-54405190D01*
X124562920Y-55256690D01*
X124556160Y-55269070D01*
X119791400Y-55269070D01*
X119791907Y-55268510D01*
X119788124Y-55259734D01*
X118936812Y-54408422D01*
X118922868Y-54400808D01*
X118921035Y-54400939D01*
X118914420Y-54405190D01*
X118062920Y-55256690D01*
X118056160Y-55269070D01*
X108390900Y-55269070D01*
X108390900Y-54807052D01*
X108379267Y-54748569D01*
X108334952Y-54682248D01*
X108268631Y-54637933D01*
X108256462Y-54635512D01*
X108256461Y-54635512D01*
X108216216Y-54627507D01*
X108210148Y-54626300D01*
X106470652Y-54626300D01*
X106464584Y-54627507D01*
X106424339Y-54635512D01*
X106424338Y-54635512D01*
X106412169Y-54637933D01*
X106345848Y-54682248D01*
X106301533Y-54748569D01*
X106289900Y-54807052D01*
X106289900Y-56546548D01*
X101584100Y-56546548D01*
X101584100Y-54807052D01*
X101572467Y-54748569D01*
X101528152Y-54682248D01*
X101461831Y-54637933D01*
X101449662Y-54635512D01*
X101449661Y-54635512D01*
X101409416Y-54627507D01*
X101403348Y-54626300D01*
X99663852Y-54626300D01*
X99657784Y-54627507D01*
X99617539Y-54635512D01*
X99617538Y-54635512D01*
X99605369Y-54637933D01*
X99539048Y-54682248D01*
X99494733Y-54748569D01*
X99483100Y-54807052D01*
X99483100Y-56546548D01*
X54251534Y-56546548D01*
X54220135Y-56442549D01*
X54123418Y-56260649D01*
X54050059Y-56170702D01*
X53997106Y-56105775D01*
X53997103Y-56105772D01*
X53993211Y-56101000D01*
X53975986Y-56086750D01*
X53839225Y-55973611D01*
X53839221Y-55973609D01*
X53834475Y-55969682D01*
X53653255Y-55871697D01*
X53456454Y-55810777D01*
X53450329Y-55810133D01*
X53450328Y-55810133D01*
X53257698Y-55789887D01*
X53257696Y-55789887D01*
X53251569Y-55789243D01*
X53164729Y-55797146D01*
X53052542Y-55807355D01*
X53052539Y-55807356D01*
X53046403Y-55807914D01*
X52848772Y-55866080D01*
X52666202Y-55961526D01*
X52661401Y-55965386D01*
X52661398Y-55965388D01*
X52651171Y-55973611D01*
X52505647Y-56090615D01*
X52373224Y-56248430D01*
X52370256Y-56253828D01*
X52370253Y-56253833D01*
X52363515Y-56266090D01*
X52273976Y-56428962D01*
X52211684Y-56625332D01*
X52210998Y-56631449D01*
X52210997Y-56631453D01*
X52189407Y-56823937D01*
X52188720Y-56830062D01*
X49282800Y-56830062D01*
X49282800Y-54290062D01*
X52188720Y-54290062D01*
X52205959Y-54495353D01*
X52207658Y-54501278D01*
X52248820Y-54644826D01*
X52262744Y-54693386D01*
X52265559Y-54698863D01*
X52265560Y-54698866D01*
X52321160Y-54807052D01*
X52356912Y-54876618D01*
X52484877Y-55038070D01*
X52641764Y-55171591D01*
X52821598Y-55272097D01*
X52916438Y-55302913D01*
X53011671Y-55333856D01*
X53011675Y-55333857D01*
X53017529Y-55335759D01*
X53222094Y-55360151D01*
X53228229Y-55359679D01*
X53228231Y-55359679D01*
X53284239Y-55355369D01*
X53427500Y-55344346D01*
X53433430Y-55342690D01*
X53433432Y-55342690D01*
X53619997Y-55290600D01*
X53619996Y-55290600D01*
X53625925Y-55288945D01*
X53631414Y-55286172D01*
X53631420Y-55286170D01*
X53804316Y-55198833D01*
X53809810Y-55196058D01*
X53972151Y-55069224D01*
X54106764Y-54913272D01*
X54127587Y-54876618D01*
X54167105Y-54807052D01*
X54208523Y-54734144D01*
X54273551Y-54538663D01*
X54299371Y-54334274D01*
X54299783Y-54304800D01*
X54279680Y-54099770D01*
X54220135Y-53902549D01*
X54123418Y-53720649D01*
X54050059Y-53630702D01*
X53997106Y-53565775D01*
X53997103Y-53565772D01*
X53993211Y-53561000D01*
X53975986Y-53546750D01*
X53839225Y-53433611D01*
X53839221Y-53433609D01*
X53834475Y-53429682D01*
X53653255Y-53331697D01*
X53456454Y-53270777D01*
X53450329Y-53270133D01*
X53450328Y-53270133D01*
X53257698Y-53249887D01*
X53257696Y-53249887D01*
X53251569Y-53249243D01*
X53164729Y-53257146D01*
X53052542Y-53267355D01*
X53052539Y-53267356D01*
X53046403Y-53267914D01*
X52848772Y-53326080D01*
X52666202Y-53421526D01*
X52661401Y-53425386D01*
X52661398Y-53425388D01*
X52530210Y-53530866D01*
X52505647Y-53550615D01*
X52373224Y-53708430D01*
X52370256Y-53713828D01*
X52370253Y-53713833D01*
X52287018Y-53865239D01*
X52273976Y-53888962D01*
X52211684Y-54085332D01*
X52210998Y-54091449D01*
X52210997Y-54091453D01*
X52190090Y-54277846D01*
X52188720Y-54290062D01*
X49282800Y-54290062D01*
X49282800Y-51750062D01*
X52188720Y-51750062D01*
X52189236Y-51756206D01*
X52201968Y-51907822D01*
X52205959Y-51955353D01*
X52262744Y-52153386D01*
X52265559Y-52158863D01*
X52265560Y-52158866D01*
X52354097Y-52331141D01*
X52356912Y-52336618D01*
X52484877Y-52498070D01*
X52489570Y-52502064D01*
X52489571Y-52502065D01*
X52600670Y-52596617D01*
X52641764Y-52631591D01*
X52821598Y-52732097D01*
X52916438Y-52762913D01*
X53011671Y-52793856D01*
X53011675Y-52793857D01*
X53017529Y-52795759D01*
X53222094Y-52820151D01*
X53228229Y-52819679D01*
X53228231Y-52819679D01*
X53284239Y-52815369D01*
X53427500Y-52804346D01*
X53433430Y-52802690D01*
X53433432Y-52802690D01*
X53619997Y-52750600D01*
X53619996Y-52750600D01*
X53625925Y-52748945D01*
X53631414Y-52746172D01*
X53631420Y-52746170D01*
X53804316Y-52658833D01*
X53809810Y-52656058D01*
X53972151Y-52529224D01*
X53976553Y-52524125D01*
X54102740Y-52377934D01*
X54102740Y-52377933D01*
X54106764Y-52373272D01*
X54127587Y-52336618D01*
X54205476Y-52199507D01*
X54208523Y-52194144D01*
X54273551Y-51998663D01*
X54299371Y-51794274D01*
X54299783Y-51764800D01*
X54279680Y-51559770D01*
X54220135Y-51362549D01*
X54123418Y-51180649D01*
X54050059Y-51090702D01*
X53997106Y-51025775D01*
X53997103Y-51025772D01*
X53993211Y-51021000D01*
X53980658Y-51010615D01*
X53839225Y-50893611D01*
X53839221Y-50893609D01*
X53834475Y-50889682D01*
X53788394Y-50864766D01*
X99201857Y-50864766D01*
X99232165Y-50999246D01*
X99235245Y-51009075D01*
X99315370Y-51206403D01*
X99320013Y-51215594D01*
X99431294Y-51397188D01*
X99437377Y-51405499D01*
X99576813Y-51566467D01*
X99584180Y-51573683D01*
X99748034Y-51709716D01*
X99756481Y-51715631D01*
X99940356Y-51823079D01*
X99949642Y-51827529D01*
X100148601Y-51903503D01*
X100163466Y-51907822D01*
X100162889Y-51909808D01*
X100217860Y-51938882D01*
X100252710Y-52000736D01*
X100248588Y-52071613D01*
X100206801Y-52129009D01*
X100165530Y-52150028D01*
X100144089Y-52156338D01*
X100144084Y-52156340D01*
X100138172Y-52158080D01*
X99955602Y-52253526D01*
X99950801Y-52257386D01*
X99950798Y-52257388D01*
X99940571Y-52265611D01*
X99795047Y-52382615D01*
X99662624Y-52540430D01*
X99659656Y-52545828D01*
X99659653Y-52545833D01*
X99582204Y-52686713D01*
X99563376Y-52720962D01*
X99501084Y-52917332D01*
X99500398Y-52923449D01*
X99500397Y-52923453D01*
X99478807Y-53115937D01*
X99478120Y-53122062D01*
X99495359Y-53327353D01*
X99552144Y-53525386D01*
X99554959Y-53530863D01*
X99554960Y-53530866D01*
X99627489Y-53671992D01*
X99646312Y-53708618D01*
X99774277Y-53870070D01*
X99778970Y-53874064D01*
X99778971Y-53874065D01*
X99790134Y-53883565D01*
X99931164Y-54003591D01*
X99936542Y-54006597D01*
X99936544Y-54006598D01*
X99984563Y-54033435D01*
X100110998Y-54104097D01*
X100205838Y-54134913D01*
X100301071Y-54165856D01*
X100301075Y-54165857D01*
X100306929Y-54167759D01*
X100511494Y-54192151D01*
X100517629Y-54191679D01*
X100517631Y-54191679D01*
X100573639Y-54187369D01*
X100716900Y-54176346D01*
X100722830Y-54174690D01*
X100722832Y-54174690D01*
X100909397Y-54122600D01*
X100909396Y-54122600D01*
X100915325Y-54120945D01*
X100920814Y-54118172D01*
X100920820Y-54118170D01*
X101076826Y-54039365D01*
X101099210Y-54028058D01*
X101104932Y-54023588D01*
X101256701Y-53905013D01*
X101261551Y-53901224D01*
X101272136Y-53888962D01*
X101392140Y-53749934D01*
X101392140Y-53749933D01*
X101396164Y-53745272D01*
X101416987Y-53708618D01*
X101494876Y-53571507D01*
X101497923Y-53566144D01*
X101562951Y-53370663D01*
X101588771Y-53166274D01*
X101589183Y-53136800D01*
X101569080Y-52931770D01*
X101509535Y-52734549D01*
X101412818Y-52552649D01*
X101339459Y-52462702D01*
X101286506Y-52397775D01*
X101286503Y-52397772D01*
X101282611Y-52393000D01*
X101265386Y-52378750D01*
X101128625Y-52265611D01*
X101128621Y-52265609D01*
X101123875Y-52261682D01*
X100942655Y-52163697D01*
X100891783Y-52147950D01*
X100832625Y-52108699D01*
X100804077Y-52043695D01*
X100815205Y-51973576D01*
X100862476Y-51920604D01*
X100892835Y-51906899D01*
X101025855Y-51866991D01*
X101035442Y-51863233D01*
X101226695Y-51769539D01*
X101235545Y-51764264D01*
X101408928Y-51640592D01*
X101416800Y-51633939D01*
X101567652Y-51483612D01*
X101574330Y-51475765D01*
X101698603Y-51302820D01*
X101703913Y-51293983D01*
X101798270Y-51103067D01*
X101802069Y-51093472D01*
X101863977Y-50889710D01*
X101866155Y-50879637D01*
X101867586Y-50868762D01*
X101866963Y-50864766D01*
X106008657Y-50864766D01*
X106038965Y-50999246D01*
X106042045Y-51009075D01*
X106122170Y-51206403D01*
X106126813Y-51215594D01*
X106238094Y-51397188D01*
X106244177Y-51405499D01*
X106383613Y-51566467D01*
X106390980Y-51573683D01*
X106554834Y-51709716D01*
X106563281Y-51715631D01*
X106747156Y-51823079D01*
X106756442Y-51827529D01*
X106955401Y-51903503D01*
X106970266Y-51907822D01*
X106969689Y-51909808D01*
X107024660Y-51938882D01*
X107059510Y-52000736D01*
X107055388Y-52071613D01*
X107013601Y-52129009D01*
X106972330Y-52150028D01*
X106950889Y-52156338D01*
X106950884Y-52156340D01*
X106944972Y-52158080D01*
X106762402Y-52253526D01*
X106757601Y-52257386D01*
X106757598Y-52257388D01*
X106747371Y-52265611D01*
X106601847Y-52382615D01*
X106469424Y-52540430D01*
X106466456Y-52545828D01*
X106466453Y-52545833D01*
X106389004Y-52686713D01*
X106370176Y-52720962D01*
X106307884Y-52917332D01*
X106307198Y-52923449D01*
X106307197Y-52923453D01*
X106285607Y-53115937D01*
X106284920Y-53122062D01*
X106302159Y-53327353D01*
X106358944Y-53525386D01*
X106361759Y-53530863D01*
X106361760Y-53530866D01*
X106434289Y-53671992D01*
X106453112Y-53708618D01*
X106581077Y-53870070D01*
X106585770Y-53874064D01*
X106585771Y-53874065D01*
X106596934Y-53883565D01*
X106737964Y-54003591D01*
X106743342Y-54006597D01*
X106743344Y-54006598D01*
X106791363Y-54033435D01*
X106917798Y-54104097D01*
X107012638Y-54134913D01*
X107107871Y-54165856D01*
X107107875Y-54165857D01*
X107113729Y-54167759D01*
X107318294Y-54192151D01*
X107324429Y-54191679D01*
X107324431Y-54191679D01*
X107380439Y-54187369D01*
X107523700Y-54176346D01*
X107529630Y-54174690D01*
X107529632Y-54174690D01*
X107716197Y-54122600D01*
X107716196Y-54122600D01*
X107722125Y-54120945D01*
X107727614Y-54118172D01*
X107727620Y-54118170D01*
X107879736Y-54041330D01*
X117411725Y-54041330D01*
X117429572Y-54268099D01*
X117431115Y-54277846D01*
X117484217Y-54499027D01*
X117487266Y-54508412D01*
X117574313Y-54718563D01*
X117578795Y-54727358D01*
X117681432Y-54894845D01*
X117691890Y-54904307D01*
X117700666Y-54900524D01*
X118551978Y-54049212D01*
X118558356Y-54037532D01*
X119288408Y-54037532D01*
X119288539Y-54039365D01*
X119292790Y-54045980D01*
X120144290Y-54897480D01*
X120156670Y-54904240D01*
X120164320Y-54898513D01*
X120269205Y-54727358D01*
X120273687Y-54718563D01*
X120360734Y-54508412D01*
X120363783Y-54499027D01*
X120416885Y-54277846D01*
X120418428Y-54268099D01*
X120436275Y-54041330D01*
X123911725Y-54041330D01*
X123929572Y-54268099D01*
X123931115Y-54277846D01*
X123984217Y-54499027D01*
X123987266Y-54508412D01*
X124074313Y-54718563D01*
X124078795Y-54727358D01*
X124181432Y-54894845D01*
X124191890Y-54904307D01*
X124200666Y-54900524D01*
X125051978Y-54049212D01*
X125058356Y-54037532D01*
X125788408Y-54037532D01*
X125788539Y-54039365D01*
X125792790Y-54045980D01*
X126644290Y-54897480D01*
X126656670Y-54904240D01*
X126664320Y-54898513D01*
X126769205Y-54727358D01*
X126773687Y-54718563D01*
X126860734Y-54508412D01*
X126863783Y-54499027D01*
X126916885Y-54277846D01*
X126918428Y-54268099D01*
X126936275Y-54041330D01*
X126936275Y-54031470D01*
X126918428Y-53804701D01*
X126916885Y-53794954D01*
X126863783Y-53573773D01*
X126860734Y-53564388D01*
X126773687Y-53354237D01*
X126769205Y-53345442D01*
X126666568Y-53177955D01*
X126656110Y-53168493D01*
X126647334Y-53172276D01*
X125796022Y-54023588D01*
X125788408Y-54037532D01*
X125058356Y-54037532D01*
X125059592Y-54035268D01*
X125059461Y-54033435D01*
X125055210Y-54026820D01*
X124203710Y-53175320D01*
X124191330Y-53168560D01*
X124183680Y-53174287D01*
X124078795Y-53345442D01*
X124074313Y-53354237D01*
X123987266Y-53564388D01*
X123984217Y-53573773D01*
X123931115Y-53794954D01*
X123929572Y-53804701D01*
X123911725Y-54031470D01*
X123911725Y-54041330D01*
X120436275Y-54041330D01*
X120436275Y-54031470D01*
X120418428Y-53804701D01*
X120416885Y-53794954D01*
X120363783Y-53573773D01*
X120360734Y-53564388D01*
X120273687Y-53354237D01*
X120269205Y-53345442D01*
X120166568Y-53177955D01*
X120156110Y-53168493D01*
X120147334Y-53172276D01*
X119296022Y-54023588D01*
X119288408Y-54037532D01*
X118558356Y-54037532D01*
X118559592Y-54035268D01*
X118559461Y-54033435D01*
X118555210Y-54026820D01*
X117703710Y-53175320D01*
X117691330Y-53168560D01*
X117683680Y-53174287D01*
X117578795Y-53345442D01*
X117574313Y-53354237D01*
X117487266Y-53564388D01*
X117484217Y-53573773D01*
X117431115Y-53794954D01*
X117429572Y-53804701D01*
X117411725Y-54031470D01*
X117411725Y-54041330D01*
X107879736Y-54041330D01*
X107883626Y-54039365D01*
X107906010Y-54028058D01*
X107911732Y-54023588D01*
X108063501Y-53905013D01*
X108068351Y-53901224D01*
X108078936Y-53888962D01*
X108198940Y-53749934D01*
X108198940Y-53749933D01*
X108202964Y-53745272D01*
X108223787Y-53708618D01*
X108301676Y-53571507D01*
X108304723Y-53566144D01*
X108369751Y-53370663D01*
X108395571Y-53166274D01*
X108395983Y-53136800D01*
X108375880Y-52931770D01*
X108337391Y-52804290D01*
X118056093Y-52804290D01*
X118059876Y-52813066D01*
X118911188Y-53664378D01*
X118925132Y-53671992D01*
X118926965Y-53671861D01*
X118933580Y-53667610D01*
X119785080Y-52816110D01*
X119791534Y-52804290D01*
X124556093Y-52804290D01*
X124559876Y-52813066D01*
X125411188Y-53664378D01*
X125425132Y-53671992D01*
X125426965Y-53671861D01*
X125433580Y-53667610D01*
X126285080Y-52816110D01*
X126291840Y-52803730D01*
X126286113Y-52796080D01*
X126114958Y-52691195D01*
X126106163Y-52686713D01*
X125896012Y-52599666D01*
X125886627Y-52596617D01*
X125665446Y-52543515D01*
X125655699Y-52541972D01*
X125428930Y-52524125D01*
X125419070Y-52524125D01*
X125192301Y-52541972D01*
X125182554Y-52543515D01*
X124961373Y-52596617D01*
X124951988Y-52599666D01*
X124741837Y-52686713D01*
X124733042Y-52691195D01*
X124565555Y-52793832D01*
X124556093Y-52804290D01*
X119791534Y-52804290D01*
X119791840Y-52803730D01*
X119786113Y-52796080D01*
X119614958Y-52691195D01*
X119606163Y-52686713D01*
X119396012Y-52599666D01*
X119386627Y-52596617D01*
X119165446Y-52543515D01*
X119155699Y-52541972D01*
X118928930Y-52524125D01*
X118919070Y-52524125D01*
X118692301Y-52541972D01*
X118682554Y-52543515D01*
X118461373Y-52596617D01*
X118451988Y-52599666D01*
X118241837Y-52686713D01*
X118233042Y-52691195D01*
X118065555Y-52793832D01*
X118056093Y-52804290D01*
X108337391Y-52804290D01*
X108316335Y-52734549D01*
X108219618Y-52552649D01*
X108146259Y-52462702D01*
X108093306Y-52397775D01*
X108093303Y-52397772D01*
X108089411Y-52393000D01*
X108072186Y-52378750D01*
X107935425Y-52265611D01*
X107935421Y-52265609D01*
X107930675Y-52261682D01*
X107749455Y-52163697D01*
X107698583Y-52147950D01*
X107639425Y-52108699D01*
X107610877Y-52043695D01*
X107622005Y-51973576D01*
X107669276Y-51920604D01*
X107699635Y-51906899D01*
X107832655Y-51866991D01*
X107842242Y-51863233D01*
X108033495Y-51769539D01*
X108042345Y-51764264D01*
X108215728Y-51640592D01*
X108223600Y-51633939D01*
X108374452Y-51483612D01*
X108381130Y-51475765D01*
X108392171Y-51460400D01*
X113237118Y-51460400D01*
X113257756Y-51617162D01*
X113318264Y-51763241D01*
X113414518Y-51888682D01*
X113539959Y-51984936D01*
X113686038Y-52045444D01*
X113842800Y-52066082D01*
X113850988Y-52065004D01*
X113991374Y-52046522D01*
X113999562Y-52045444D01*
X114145641Y-51984936D01*
X114271082Y-51888682D01*
X114367336Y-51763241D01*
X114427844Y-51617162D01*
X114448482Y-51460400D01*
X114427844Y-51303638D01*
X114367336Y-51157559D01*
X114271082Y-51032118D01*
X114145641Y-50935864D01*
X113999562Y-50875356D01*
X113842800Y-50854718D01*
X113686038Y-50875356D01*
X113539959Y-50935864D01*
X113414518Y-51032118D01*
X113318264Y-51157559D01*
X113257756Y-51303638D01*
X113237118Y-51460400D01*
X108392171Y-51460400D01*
X108505403Y-51302820D01*
X108510713Y-51293983D01*
X108605070Y-51103067D01*
X108608869Y-51093472D01*
X108670777Y-50889710D01*
X108672955Y-50879637D01*
X108674386Y-50868762D01*
X108672175Y-50854578D01*
X108659017Y-50850800D01*
X106023625Y-50850800D01*
X106010094Y-50854773D01*
X106008657Y-50864766D01*
X101866963Y-50864766D01*
X101865375Y-50854578D01*
X101852217Y-50850800D01*
X99216825Y-50850800D01*
X99203294Y-50854773D01*
X99201857Y-50864766D01*
X53788394Y-50864766D01*
X53653255Y-50791697D01*
X53456454Y-50730777D01*
X53450329Y-50730133D01*
X53450328Y-50730133D01*
X53257698Y-50709887D01*
X53257696Y-50709887D01*
X53251569Y-50709243D01*
X53164729Y-50717146D01*
X53052542Y-50727355D01*
X53052539Y-50727356D01*
X53046403Y-50727914D01*
X52848772Y-50786080D01*
X52666202Y-50881526D01*
X52661401Y-50885386D01*
X52661398Y-50885388D01*
X52519787Y-50999246D01*
X52505647Y-51010615D01*
X52373224Y-51168430D01*
X52370256Y-51173828D01*
X52370253Y-51173833D01*
X52276943Y-51343565D01*
X52273976Y-51348962D01*
X52211684Y-51545332D01*
X52210998Y-51551449D01*
X52210997Y-51551453D01*
X52209313Y-51566467D01*
X52188720Y-51750062D01*
X49282800Y-51750062D01*
X49282800Y-50330983D01*
X99197989Y-50330983D01*
X99199512Y-50339407D01*
X99211892Y-50342800D01*
X101851944Y-50342800D01*
X101865475Y-50338827D01*
X101866602Y-50330983D01*
X106004789Y-50330983D01*
X106006312Y-50339407D01*
X106018692Y-50342800D01*
X108658744Y-50342800D01*
X108672275Y-50338827D01*
X108673580Y-50329747D01*
X108631614Y-50162675D01*
X108628294Y-50152924D01*
X108543372Y-49957614D01*
X108538505Y-49948539D01*
X108422826Y-49769726D01*
X108416536Y-49761557D01*
X108273206Y-49604040D01*
X108265673Y-49597015D01*
X108098539Y-49465022D01*
X108089952Y-49459317D01*
X108003586Y-49411640D01*
X117744170Y-49411640D01*
X117758600Y-49631804D01*
X117760021Y-49637400D01*
X117760022Y-49637405D01*
X117784940Y-49735517D01*
X117812911Y-49845652D01*
X117815328Y-49850894D01*
X117815328Y-49850895D01*
X117851069Y-49928423D01*
X117905283Y-50046021D01*
X118032622Y-50226202D01*
X118190664Y-50380161D01*
X118195460Y-50383366D01*
X118195463Y-50383368D01*
X118279661Y-50439627D01*
X118374117Y-50502740D01*
X118379420Y-50505018D01*
X118379423Y-50505020D01*
X118571529Y-50587555D01*
X118576836Y-50589835D01*
X118656488Y-50607858D01*
X118786395Y-50637254D01*
X118786401Y-50637255D01*
X118792032Y-50638529D01*
X118797803Y-50638756D01*
X118797805Y-50638756D01*
X118865611Y-50641420D01*
X119012498Y-50647191D01*
X119121675Y-50631361D01*
X119225138Y-50616360D01*
X119225143Y-50616359D01*
X119230852Y-50615531D01*
X119236316Y-50613676D01*
X119236321Y-50613675D01*
X119434307Y-50546468D01*
X119434312Y-50546466D01*
X119439779Y-50544610D01*
X119632284Y-50436802D01*
X119801918Y-50295718D01*
X119874009Y-50209039D01*
X119939308Y-50130526D01*
X119939310Y-50130523D01*
X119943002Y-50126084D01*
X120050810Y-49933579D01*
X120052666Y-49928112D01*
X120052668Y-49928107D01*
X120119875Y-49730121D01*
X120119876Y-49730116D01*
X120121731Y-49724652D01*
X120122559Y-49718943D01*
X120122560Y-49718938D01*
X120152858Y-49509972D01*
X120153391Y-49506298D01*
X120155043Y-49443200D01*
X120152143Y-49411640D01*
X124244170Y-49411640D01*
X124258600Y-49631804D01*
X124260021Y-49637400D01*
X124260022Y-49637405D01*
X124284940Y-49735517D01*
X124312911Y-49845652D01*
X124315328Y-49850894D01*
X124315328Y-49850895D01*
X124351069Y-49928423D01*
X124405283Y-50046021D01*
X124532622Y-50226202D01*
X124690664Y-50380161D01*
X124695460Y-50383366D01*
X124695463Y-50383368D01*
X124779661Y-50439627D01*
X124874117Y-50502740D01*
X124879420Y-50505018D01*
X124879423Y-50505020D01*
X125071529Y-50587555D01*
X125076836Y-50589835D01*
X125156488Y-50607858D01*
X125286395Y-50637254D01*
X125286401Y-50637255D01*
X125292032Y-50638529D01*
X125297803Y-50638756D01*
X125297805Y-50638756D01*
X125365611Y-50641420D01*
X125512498Y-50647191D01*
X125621675Y-50631361D01*
X125725138Y-50616360D01*
X125725143Y-50616359D01*
X125730852Y-50615531D01*
X125736316Y-50613676D01*
X125736321Y-50613675D01*
X125934307Y-50546468D01*
X125934312Y-50546466D01*
X125939779Y-50544610D01*
X126132284Y-50436802D01*
X126301918Y-50295718D01*
X126374009Y-50209039D01*
X126439308Y-50130526D01*
X126439310Y-50130523D01*
X126443002Y-50126084D01*
X126550810Y-49933579D01*
X126552666Y-49928112D01*
X126552668Y-49928107D01*
X126619875Y-49730121D01*
X126619876Y-49730116D01*
X126621731Y-49724652D01*
X126622559Y-49718943D01*
X126622560Y-49718938D01*
X126652858Y-49509972D01*
X126653391Y-49506298D01*
X126655043Y-49443200D01*
X126634854Y-49223489D01*
X126574965Y-49011136D01*
X126477380Y-48813253D01*
X126460069Y-48790070D01*
X126348820Y-48641091D01*
X126348820Y-48641090D01*
X126345367Y-48636467D01*
X126247986Y-48546449D01*
X126187589Y-48490618D01*
X126187586Y-48490616D01*
X126183349Y-48486699D01*
X125996750Y-48368964D01*
X125791821Y-48287206D01*
X125786161Y-48286080D01*
X125786157Y-48286079D01*
X125581091Y-48245289D01*
X125581088Y-48245289D01*
X125575424Y-48244162D01*
X125569649Y-48244086D01*
X125569645Y-48244086D01*
X125458904Y-48242637D01*
X125354806Y-48241274D01*
X125349109Y-48242253D01*
X125349108Y-48242253D01*
X125143054Y-48277659D01*
X125143053Y-48277659D01*
X125137357Y-48278638D01*
X124930357Y-48355004D01*
X124740741Y-48467814D01*
X124574857Y-48613290D01*
X124438263Y-48786560D01*
X124335531Y-48981820D01*
X124270103Y-49192533D01*
X124244170Y-49411640D01*
X120152143Y-49411640D01*
X120134854Y-49223489D01*
X120074965Y-49011136D01*
X119977380Y-48813253D01*
X119960069Y-48790070D01*
X119848820Y-48641091D01*
X119848820Y-48641090D01*
X119845367Y-48636467D01*
X119747986Y-48546449D01*
X119687589Y-48490618D01*
X119687586Y-48490616D01*
X119683349Y-48486699D01*
X119496750Y-48368964D01*
X119291821Y-48287206D01*
X119286161Y-48286080D01*
X119286157Y-48286079D01*
X119081091Y-48245289D01*
X119081088Y-48245289D01*
X119075424Y-48244162D01*
X119069649Y-48244086D01*
X119069645Y-48244086D01*
X118958904Y-48242637D01*
X118854806Y-48241274D01*
X118849109Y-48242253D01*
X118849108Y-48242253D01*
X118643054Y-48277659D01*
X118643053Y-48277659D01*
X118637357Y-48278638D01*
X118430357Y-48355004D01*
X118240741Y-48467814D01*
X118074857Y-48613290D01*
X117938263Y-48786560D01*
X117835531Y-48981820D01*
X117770103Y-49192533D01*
X117744170Y-49411640D01*
X108003586Y-49411640D01*
X107903517Y-49356399D01*
X107894105Y-49352169D01*
X107702431Y-49284293D01*
X107644895Y-49242699D01*
X107618979Y-49176601D01*
X107632913Y-49106985D01*
X107682272Y-49055954D01*
X107710606Y-49044162D01*
X107716190Y-49042603D01*
X107716199Y-49042600D01*
X107722125Y-49040945D01*
X107727614Y-49038172D01*
X107727620Y-49038170D01*
X107900516Y-48950833D01*
X107906010Y-48948058D01*
X108068351Y-48821224D01*
X108075232Y-48813253D01*
X108198940Y-48669934D01*
X108198940Y-48669933D01*
X108202964Y-48665272D01*
X108223787Y-48628618D01*
X108301676Y-48491507D01*
X108304723Y-48486144D01*
X108369751Y-48290663D01*
X108395571Y-48086274D01*
X108395983Y-48056800D01*
X108375880Y-47851770D01*
X108316335Y-47654549D01*
X108219618Y-47472649D01*
X108146259Y-47382702D01*
X108093306Y-47317775D01*
X108093303Y-47317772D01*
X108089411Y-47313000D01*
X108072186Y-47298750D01*
X107935425Y-47185611D01*
X107935421Y-47185609D01*
X107930675Y-47181682D01*
X107749455Y-47083697D01*
X107552654Y-47022777D01*
X107546529Y-47022133D01*
X107546528Y-47022133D01*
X107353898Y-47001887D01*
X107353896Y-47001887D01*
X107347769Y-47001243D01*
X107260929Y-47009146D01*
X107148742Y-47019355D01*
X107148739Y-47019356D01*
X107142603Y-47019914D01*
X106944972Y-47078080D01*
X106762402Y-47173526D01*
X106757601Y-47177386D01*
X106757598Y-47177388D01*
X106606654Y-47298750D01*
X106601847Y-47302615D01*
X106469424Y-47460430D01*
X106466456Y-47465828D01*
X106466453Y-47465833D01*
X106459715Y-47478090D01*
X106370176Y-47640962D01*
X106307884Y-47837332D01*
X106307198Y-47843449D01*
X106307197Y-47843453D01*
X106285607Y-48035937D01*
X106284920Y-48042062D01*
X106285436Y-48048206D01*
X106301589Y-48240561D01*
X106302159Y-48247353D01*
X106358944Y-48445386D01*
X106361759Y-48450863D01*
X106361760Y-48450866D01*
X106447569Y-48617832D01*
X106453112Y-48628618D01*
X106581077Y-48790070D01*
X106737964Y-48923591D01*
X106917798Y-49024097D01*
X106982837Y-49045229D01*
X107041442Y-49085302D01*
X107069080Y-49150698D01*
X107056974Y-49220655D01*
X107008968Y-49272962D01*
X106983046Y-49284827D01*
X106817268Y-49339012D01*
X106807759Y-49343009D01*
X106618863Y-49441342D01*
X106610138Y-49446836D01*
X106439833Y-49574705D01*
X106432126Y-49581548D01*
X106284990Y-49735517D01*
X106278504Y-49743527D01*
X106158498Y-49919449D01*
X106153400Y-49928423D01*
X106063738Y-50121583D01*
X106060175Y-50131270D01*
X106004789Y-50330983D01*
X101866602Y-50330983D01*
X101866780Y-50329747D01*
X101824814Y-50162675D01*
X101821494Y-50152924D01*
X101736572Y-49957614D01*
X101731705Y-49948539D01*
X101616026Y-49769726D01*
X101609736Y-49761557D01*
X101466406Y-49604040D01*
X101458873Y-49597015D01*
X101291739Y-49465022D01*
X101283152Y-49459317D01*
X101096717Y-49356399D01*
X101087305Y-49352169D01*
X100895631Y-49284293D01*
X100838095Y-49242699D01*
X100812179Y-49176601D01*
X100826113Y-49106985D01*
X100875472Y-49055954D01*
X100903806Y-49044162D01*
X100909390Y-49042603D01*
X100909399Y-49042600D01*
X100915325Y-49040945D01*
X100920814Y-49038172D01*
X100920820Y-49038170D01*
X101093716Y-48950833D01*
X101099210Y-48948058D01*
X101261551Y-48821224D01*
X101268432Y-48813253D01*
X101392140Y-48669934D01*
X101392140Y-48669933D01*
X101396164Y-48665272D01*
X101416987Y-48628618D01*
X101494876Y-48491507D01*
X101497923Y-48486144D01*
X101562951Y-48290663D01*
X101588771Y-48086274D01*
X101589183Y-48056800D01*
X101569080Y-47851770D01*
X101509535Y-47654549D01*
X101412818Y-47472649D01*
X101339459Y-47382702D01*
X101286506Y-47317775D01*
X101286503Y-47317772D01*
X101282611Y-47313000D01*
X101265386Y-47298750D01*
X101128625Y-47185611D01*
X101128621Y-47185609D01*
X101123875Y-47181682D01*
X100942655Y-47083697D01*
X100745854Y-47022777D01*
X100739729Y-47022133D01*
X100739728Y-47022133D01*
X100547098Y-47001887D01*
X100547096Y-47001887D01*
X100540969Y-47001243D01*
X100454129Y-47009146D01*
X100341942Y-47019355D01*
X100341939Y-47019356D01*
X100335803Y-47019914D01*
X100138172Y-47078080D01*
X99955602Y-47173526D01*
X99950801Y-47177386D01*
X99950798Y-47177388D01*
X99799854Y-47298750D01*
X99795047Y-47302615D01*
X99662624Y-47460430D01*
X99659656Y-47465828D01*
X99659653Y-47465833D01*
X99652915Y-47478090D01*
X99563376Y-47640962D01*
X99501084Y-47837332D01*
X99500398Y-47843449D01*
X99500397Y-47843453D01*
X99478807Y-48035937D01*
X99478120Y-48042062D01*
X99478636Y-48048206D01*
X99494789Y-48240561D01*
X99495359Y-48247353D01*
X99552144Y-48445386D01*
X99554959Y-48450863D01*
X99554960Y-48450866D01*
X99640769Y-48617832D01*
X99646312Y-48628618D01*
X99774277Y-48790070D01*
X99931164Y-48923591D01*
X100110998Y-49024097D01*
X100176037Y-49045229D01*
X100234642Y-49085302D01*
X100262280Y-49150698D01*
X100250174Y-49220655D01*
X100202168Y-49272962D01*
X100176246Y-49284827D01*
X100010468Y-49339012D01*
X100000959Y-49343009D01*
X99812063Y-49441342D01*
X99803338Y-49446836D01*
X99633033Y-49574705D01*
X99625326Y-49581548D01*
X99478190Y-49735517D01*
X99471704Y-49743527D01*
X99351698Y-49919449D01*
X99346600Y-49928423D01*
X99256938Y-50121583D01*
X99253375Y-50131270D01*
X99197989Y-50330983D01*
X49282800Y-50330983D01*
X49282800Y-50094548D01*
X52193700Y-50094548D01*
X52194907Y-50100616D01*
X52199078Y-50121583D01*
X52205333Y-50153031D01*
X52249648Y-50219352D01*
X52315969Y-50263667D01*
X52328138Y-50266088D01*
X52328139Y-50266088D01*
X52368384Y-50274093D01*
X52374452Y-50275300D01*
X54113948Y-50275300D01*
X54120016Y-50274093D01*
X54160261Y-50266088D01*
X54160262Y-50266088D01*
X54172431Y-50263667D01*
X54238752Y-50219352D01*
X54283067Y-50153031D01*
X54289323Y-50121583D01*
X54293493Y-50100616D01*
X54294700Y-50094548D01*
X54294700Y-48355052D01*
X54283067Y-48296569D01*
X54238752Y-48230248D01*
X54172431Y-48185933D01*
X54160262Y-48183512D01*
X54160261Y-48183512D01*
X54120016Y-48175507D01*
X54113948Y-48174300D01*
X52374452Y-48174300D01*
X52368384Y-48175507D01*
X52328139Y-48183512D01*
X52328138Y-48183512D01*
X52315969Y-48185933D01*
X52249648Y-48230248D01*
X52205333Y-48296569D01*
X52193700Y-48355052D01*
X52193700Y-50094548D01*
X49282800Y-50094548D01*
X49282800Y-46634400D01*
X75238718Y-46634400D01*
X75259356Y-46791162D01*
X75319864Y-46937241D01*
X75416118Y-47062682D01*
X75422664Y-47067705D01*
X75436185Y-47078080D01*
X75541559Y-47158936D01*
X75687638Y-47219444D01*
X75844400Y-47240082D01*
X75852588Y-47239004D01*
X75992974Y-47220522D01*
X76001162Y-47219444D01*
X76147241Y-47158936D01*
X76252615Y-47078080D01*
X76266136Y-47067705D01*
X76272682Y-47062682D01*
X76368936Y-46937241D01*
X76372095Y-46929613D01*
X76372098Y-46929609D01*
X76376537Y-46918892D01*
X76421086Y-46863612D01*
X76488450Y-46841192D01*
X76557241Y-46858751D01*
X76592908Y-46890408D01*
X76678449Y-47001887D01*
X76686118Y-47011882D01*
X76692664Y-47016905D01*
X76698852Y-47021653D01*
X76811559Y-47108136D01*
X76957638Y-47168644D01*
X77114400Y-47189282D01*
X77122588Y-47188204D01*
X77262974Y-47169722D01*
X77271162Y-47168644D01*
X77417241Y-47108136D01*
X77529948Y-47021653D01*
X77536136Y-47016905D01*
X77542682Y-47011882D01*
X77638936Y-46886441D01*
X77699444Y-46740362D01*
X77720082Y-46583600D01*
X77699444Y-46426838D01*
X77638936Y-46280759D01*
X77558452Y-46175870D01*
X118081560Y-46175870D01*
X118087287Y-46183520D01*
X118258442Y-46288405D01*
X118267237Y-46292887D01*
X118477388Y-46379934D01*
X118486773Y-46382983D01*
X118707954Y-46436085D01*
X118717701Y-46437628D01*
X118944470Y-46455475D01*
X118954330Y-46455475D01*
X119181099Y-46437628D01*
X119190846Y-46436085D01*
X119412027Y-46382983D01*
X119421412Y-46379934D01*
X119631563Y-46292887D01*
X119640358Y-46288405D01*
X119807845Y-46185768D01*
X119816800Y-46175870D01*
X124581560Y-46175870D01*
X124587287Y-46183520D01*
X124758442Y-46288405D01*
X124767237Y-46292887D01*
X124977388Y-46379934D01*
X124986773Y-46382983D01*
X125207954Y-46436085D01*
X125217701Y-46437628D01*
X125444470Y-46455475D01*
X125454330Y-46455475D01*
X125681099Y-46437628D01*
X125690846Y-46436085D01*
X125912027Y-46382983D01*
X125921412Y-46379934D01*
X126131563Y-46292887D01*
X126140358Y-46288405D01*
X126307845Y-46185768D01*
X126317307Y-46175310D01*
X126313524Y-46166534D01*
X125462212Y-45315222D01*
X125448268Y-45307608D01*
X125446435Y-45307739D01*
X125439820Y-45311990D01*
X124588320Y-46163490D01*
X124581560Y-46175870D01*
X119816800Y-46175870D01*
X119817307Y-46175310D01*
X119813524Y-46166534D01*
X118962212Y-45315222D01*
X118948268Y-45307608D01*
X118946435Y-45307739D01*
X118939820Y-45311990D01*
X118088320Y-46163490D01*
X118081560Y-46175870D01*
X77558452Y-46175870D01*
X77542682Y-46155318D01*
X77417241Y-46059064D01*
X77271162Y-45998556D01*
X77114400Y-45977918D01*
X76957638Y-45998556D01*
X76811559Y-46059064D01*
X76686118Y-46155318D01*
X76589864Y-46280759D01*
X76586705Y-46288387D01*
X76586702Y-46288391D01*
X76582263Y-46299108D01*
X76537714Y-46354388D01*
X76470350Y-46376808D01*
X76401559Y-46359249D01*
X76365892Y-46327592D01*
X76277705Y-46212664D01*
X76272682Y-46206118D01*
X76147241Y-46109864D01*
X76001162Y-46049356D01*
X75844400Y-46028718D01*
X75687638Y-46049356D01*
X75541559Y-46109864D01*
X75416118Y-46206118D01*
X75319864Y-46331559D01*
X75259356Y-46477638D01*
X75238718Y-46634400D01*
X49282800Y-46634400D01*
X49282800Y-44837148D01*
X51883100Y-44837148D01*
X51894733Y-44895631D01*
X51939048Y-44961952D01*
X52005369Y-45006267D01*
X52017538Y-45008688D01*
X52017539Y-45008688D01*
X52057784Y-45016693D01*
X52063852Y-45017900D01*
X53803348Y-45017900D01*
X53809416Y-45016693D01*
X53849661Y-45008688D01*
X53849662Y-45008688D01*
X53861831Y-45006267D01*
X53928152Y-44961952D01*
X53937388Y-44948130D01*
X117437125Y-44948130D01*
X117454972Y-45174899D01*
X117456515Y-45184646D01*
X117509617Y-45405827D01*
X117512666Y-45415212D01*
X117599713Y-45625363D01*
X117604195Y-45634158D01*
X117706832Y-45801645D01*
X117717290Y-45811107D01*
X117726066Y-45807324D01*
X118577378Y-44956012D01*
X118583756Y-44944332D01*
X119313808Y-44944332D01*
X119313939Y-44946165D01*
X119318190Y-44952780D01*
X120169690Y-45804280D01*
X120182070Y-45811040D01*
X120189720Y-45805313D01*
X120294605Y-45634158D01*
X120299087Y-45625363D01*
X120386134Y-45415212D01*
X120389183Y-45405827D01*
X120442285Y-45184646D01*
X120443828Y-45174899D01*
X120461675Y-44948130D01*
X123937125Y-44948130D01*
X123954972Y-45174899D01*
X123956515Y-45184646D01*
X124009617Y-45405827D01*
X124012666Y-45415212D01*
X124099713Y-45625363D01*
X124104195Y-45634158D01*
X124206832Y-45801645D01*
X124217290Y-45811107D01*
X124226066Y-45807324D01*
X125077378Y-44956012D01*
X125083756Y-44944332D01*
X125813808Y-44944332D01*
X125813939Y-44946165D01*
X125818190Y-44952780D01*
X126669690Y-45804280D01*
X126682070Y-45811040D01*
X126689720Y-45805313D01*
X126794605Y-45634158D01*
X126799087Y-45625363D01*
X126886134Y-45415212D01*
X126889183Y-45405827D01*
X126942285Y-45184646D01*
X126943828Y-45174899D01*
X126961675Y-44948130D01*
X126961675Y-44938270D01*
X126943828Y-44711501D01*
X126942285Y-44701754D01*
X126889183Y-44480573D01*
X126886134Y-44471188D01*
X126799087Y-44261037D01*
X126794605Y-44252242D01*
X126691968Y-44084755D01*
X126681510Y-44075293D01*
X126672734Y-44079076D01*
X125821422Y-44930388D01*
X125813808Y-44944332D01*
X125083756Y-44944332D01*
X125084992Y-44942068D01*
X125084861Y-44940235D01*
X125080610Y-44933620D01*
X124229110Y-44082120D01*
X124216730Y-44075360D01*
X124209080Y-44081087D01*
X124104195Y-44252242D01*
X124099713Y-44261037D01*
X124012666Y-44471188D01*
X124009617Y-44480573D01*
X123956515Y-44701754D01*
X123954972Y-44711501D01*
X123937125Y-44938270D01*
X123937125Y-44948130D01*
X120461675Y-44948130D01*
X120461675Y-44938270D01*
X120443828Y-44711501D01*
X120442285Y-44701754D01*
X120389183Y-44480573D01*
X120386134Y-44471188D01*
X120299087Y-44261037D01*
X120294605Y-44252242D01*
X120191968Y-44084755D01*
X120181510Y-44075293D01*
X120172734Y-44079076D01*
X119321422Y-44930388D01*
X119313808Y-44944332D01*
X118583756Y-44944332D01*
X118584992Y-44942068D01*
X118584861Y-44940235D01*
X118580610Y-44933620D01*
X117729110Y-44082120D01*
X117716730Y-44075360D01*
X117709080Y-44081087D01*
X117604195Y-44252242D01*
X117599713Y-44261037D01*
X117512666Y-44471188D01*
X117509617Y-44480573D01*
X117456515Y-44701754D01*
X117454972Y-44711501D01*
X117437125Y-44938270D01*
X117437125Y-44948130D01*
X53937388Y-44948130D01*
X53972467Y-44895631D01*
X53984100Y-44837148D01*
X53984100Y-43097652D01*
X53972467Y-43039169D01*
X53928152Y-42972848D01*
X53861831Y-42928533D01*
X53849662Y-42926112D01*
X53849661Y-42926112D01*
X53809416Y-42918107D01*
X53803348Y-42916900D01*
X52063852Y-42916900D01*
X52057784Y-42918107D01*
X52017539Y-42926112D01*
X52017538Y-42926112D01*
X52005369Y-42928533D01*
X51939048Y-42972848D01*
X51894733Y-43039169D01*
X51883100Y-43097652D01*
X51883100Y-44837148D01*
X49282800Y-44837148D01*
X49282800Y-42722800D01*
X68202918Y-42722800D01*
X68223556Y-42879562D01*
X68284064Y-43025641D01*
X68380318Y-43151082D01*
X68505759Y-43247336D01*
X68651838Y-43307844D01*
X68808600Y-43328482D01*
X68816788Y-43327404D01*
X68957174Y-43308922D01*
X68965362Y-43307844D01*
X69110287Y-43247814D01*
X69180877Y-43240225D01*
X69244364Y-43272004D01*
X69280591Y-43333062D01*
X69283427Y-43380669D01*
X69269718Y-43484800D01*
X69290356Y-43641562D01*
X69350864Y-43787641D01*
X69447118Y-43913082D01*
X69572559Y-44009336D01*
X69718638Y-44069844D01*
X69875400Y-44090482D01*
X69883588Y-44089404D01*
X70023974Y-44070922D01*
X70032162Y-44069844D01*
X70178241Y-44009336D01*
X70265995Y-43942000D01*
X112932318Y-43942000D01*
X112952956Y-44098762D01*
X113013464Y-44244841D01*
X113109718Y-44370282D01*
X113235159Y-44466536D01*
X113381238Y-44527044D01*
X113538000Y-44547682D01*
X113546188Y-44546604D01*
X113686574Y-44528122D01*
X113694762Y-44527044D01*
X113840841Y-44466536D01*
X113966282Y-44370282D01*
X114062536Y-44244841D01*
X114123044Y-44098762D01*
X114143682Y-43942000D01*
X114123044Y-43785238D01*
X114092331Y-43711090D01*
X118081493Y-43711090D01*
X118085276Y-43719866D01*
X118936588Y-44571178D01*
X118950532Y-44578792D01*
X118952365Y-44578661D01*
X118958980Y-44574410D01*
X119810480Y-43722910D01*
X119816934Y-43711090D01*
X124581493Y-43711090D01*
X124585276Y-43719866D01*
X125436588Y-44571178D01*
X125450532Y-44578792D01*
X125452365Y-44578661D01*
X125458980Y-44574410D01*
X126310480Y-43722910D01*
X126317240Y-43710530D01*
X126311513Y-43702880D01*
X126140358Y-43597995D01*
X126131563Y-43593513D01*
X125921412Y-43506466D01*
X125912027Y-43503417D01*
X125690846Y-43450315D01*
X125681099Y-43448772D01*
X125454330Y-43430925D01*
X125444470Y-43430925D01*
X125217701Y-43448772D01*
X125207954Y-43450315D01*
X124986773Y-43503417D01*
X124977388Y-43506466D01*
X124767237Y-43593513D01*
X124758442Y-43597995D01*
X124590955Y-43700632D01*
X124581493Y-43711090D01*
X119816934Y-43711090D01*
X119817240Y-43710530D01*
X119811513Y-43702880D01*
X119640358Y-43597995D01*
X119631563Y-43593513D01*
X119421412Y-43506466D01*
X119412027Y-43503417D01*
X119190846Y-43450315D01*
X119181099Y-43448772D01*
X118954330Y-43430925D01*
X118944470Y-43430925D01*
X118717701Y-43448772D01*
X118707954Y-43450315D01*
X118486773Y-43503417D01*
X118477388Y-43506466D01*
X118267237Y-43593513D01*
X118258442Y-43597995D01*
X118090955Y-43700632D01*
X118081493Y-43711090D01*
X114092331Y-43711090D01*
X114062536Y-43639159D01*
X113966282Y-43513718D01*
X113952858Y-43503417D01*
X113881642Y-43448772D01*
X113840841Y-43417464D01*
X113694762Y-43356956D01*
X113538000Y-43336318D01*
X113381238Y-43356956D01*
X113235159Y-43417464D01*
X113194358Y-43448772D01*
X113123143Y-43503417D01*
X113109718Y-43513718D01*
X113013464Y-43639159D01*
X112952956Y-43785238D01*
X112932318Y-43942000D01*
X70265995Y-43942000D01*
X70303682Y-43913082D01*
X70399936Y-43787641D01*
X70460444Y-43641562D01*
X70481082Y-43484800D01*
X70460444Y-43328038D01*
X70399936Y-43181959D01*
X70303682Y-43056518D01*
X70178241Y-42960264D01*
X70032162Y-42899756D01*
X69875400Y-42879118D01*
X69718638Y-42899756D01*
X69711009Y-42902916D01*
X69573713Y-42959786D01*
X69503123Y-42967375D01*
X69439636Y-42935596D01*
X69403409Y-42874538D01*
X69400573Y-42826931D01*
X69413204Y-42730988D01*
X69414282Y-42722800D01*
X69393644Y-42566038D01*
X69333136Y-42419959D01*
X69236882Y-42294518D01*
X69111441Y-42198264D01*
X68965362Y-42137756D01*
X68808600Y-42117118D01*
X68651838Y-42137756D01*
X68505759Y-42198264D01*
X68380318Y-42294518D01*
X68284064Y-42419959D01*
X68223556Y-42566038D01*
X68202918Y-42722800D01*
X49282800Y-42722800D01*
X49282800Y-41412662D01*
X51878120Y-41412662D01*
X51878636Y-41418806D01*
X51890149Y-41555905D01*
X51895359Y-41617953D01*
X51897058Y-41623878D01*
X51947699Y-41800483D01*
X51952144Y-41815986D01*
X51954959Y-41821463D01*
X51954960Y-41821466D01*
X52014387Y-41937098D01*
X52046312Y-41999218D01*
X52174277Y-42160670D01*
X52178970Y-42164664D01*
X52178971Y-42164665D01*
X52310321Y-42276452D01*
X52331164Y-42294191D01*
X52336542Y-42297197D01*
X52336544Y-42297198D01*
X52368163Y-42314869D01*
X52510998Y-42394697D01*
X52588746Y-42419959D01*
X52701071Y-42456456D01*
X52701075Y-42456457D01*
X52706929Y-42458359D01*
X52911494Y-42482751D01*
X52917629Y-42482279D01*
X52917631Y-42482279D01*
X52973639Y-42477969D01*
X53116900Y-42466946D01*
X53122830Y-42465290D01*
X53122832Y-42465290D01*
X53309397Y-42413200D01*
X53309396Y-42413200D01*
X53315325Y-42411545D01*
X53320814Y-42408772D01*
X53320820Y-42408770D01*
X53493716Y-42321433D01*
X53499210Y-42318658D01*
X53521730Y-42301064D01*
X53656701Y-42195613D01*
X53661551Y-42191824D01*
X53697879Y-42149738D01*
X53792140Y-42040534D01*
X53792140Y-42040533D01*
X53796164Y-42035872D01*
X53816987Y-41999218D01*
X53850188Y-41940772D01*
X53897923Y-41856744D01*
X53962951Y-41661263D01*
X53988771Y-41456874D01*
X53989183Y-41427400D01*
X53969080Y-41222370D01*
X53938957Y-41122600D01*
X55629918Y-41122600D01*
X55630996Y-41130788D01*
X55645908Y-41244053D01*
X55650556Y-41279362D01*
X55711064Y-41425441D01*
X55807318Y-41550882D01*
X55932759Y-41647136D01*
X56078838Y-41707644D01*
X56235600Y-41728282D01*
X56243788Y-41727204D01*
X56384174Y-41708722D01*
X56392362Y-41707644D01*
X56538441Y-41647136D01*
X56663882Y-41550882D01*
X56760136Y-41425441D01*
X56784269Y-41367178D01*
X69411965Y-41367178D01*
X69413043Y-41375366D01*
X69428487Y-41492672D01*
X69432603Y-41523940D01*
X69493111Y-41670019D01*
X69589365Y-41795460D01*
X69714806Y-41891714D01*
X69860885Y-41952222D01*
X70017647Y-41972860D01*
X70025835Y-41971782D01*
X70166221Y-41953300D01*
X70174409Y-41952222D01*
X70320488Y-41891714D01*
X70380059Y-41846004D01*
X74078875Y-41846004D01*
X74081658Y-41849723D01*
X74236080Y-41907152D01*
X74249678Y-41910542D01*
X74415390Y-41932654D01*
X74429386Y-41932947D01*
X74595877Y-41917794D01*
X74609604Y-41914977D01*
X74768602Y-41863316D01*
X74781353Y-41857531D01*
X74788169Y-41853468D01*
X74795090Y-41846004D01*
X75353875Y-41846004D01*
X75356658Y-41849723D01*
X75511080Y-41907152D01*
X75524678Y-41910542D01*
X75690390Y-41932654D01*
X75704386Y-41932947D01*
X75870877Y-41917794D01*
X75884604Y-41914977D01*
X76043602Y-41863316D01*
X76056353Y-41857531D01*
X76063169Y-41853468D01*
X76070090Y-41846004D01*
X76628875Y-41846004D01*
X76631658Y-41849723D01*
X76786080Y-41907152D01*
X76799678Y-41910542D01*
X76965390Y-41932654D01*
X76979386Y-41932947D01*
X77145877Y-41917794D01*
X77159604Y-41914977D01*
X77318602Y-41863316D01*
X77331353Y-41857531D01*
X77338169Y-41853468D01*
X77347758Y-41843126D01*
X77347472Y-41842440D01*
X117794970Y-41842440D01*
X117809400Y-42062604D01*
X117810821Y-42068200D01*
X117810822Y-42068205D01*
X117845130Y-42203291D01*
X117863711Y-42276452D01*
X117866128Y-42281694D01*
X117866128Y-42281695D01*
X117904246Y-42364379D01*
X117956083Y-42476821D01*
X118083422Y-42657002D01*
X118241464Y-42810961D01*
X118246260Y-42814166D01*
X118246263Y-42814168D01*
X118379085Y-42902916D01*
X118424917Y-42933540D01*
X118430220Y-42935818D01*
X118430223Y-42935820D01*
X118621528Y-43018011D01*
X118627636Y-43020635D01*
X118707288Y-43038658D01*
X118837195Y-43068054D01*
X118837201Y-43068055D01*
X118842832Y-43069329D01*
X118848603Y-43069556D01*
X118848605Y-43069556D01*
X118916411Y-43072220D01*
X119063298Y-43077991D01*
X119172475Y-43062161D01*
X119275938Y-43047160D01*
X119275943Y-43047159D01*
X119281652Y-43046331D01*
X119287116Y-43044476D01*
X119287121Y-43044475D01*
X119485107Y-42977268D01*
X119485112Y-42977266D01*
X119490579Y-42975410D01*
X119683084Y-42867602D01*
X119731986Y-42826931D01*
X119848286Y-42730204D01*
X119852718Y-42726518D01*
X119993802Y-42556884D01*
X120070484Y-42419959D01*
X120098786Y-42369422D01*
X120098787Y-42369420D01*
X120101610Y-42364379D01*
X120103466Y-42358912D01*
X120103468Y-42358907D01*
X120170675Y-42160921D01*
X120170676Y-42160916D01*
X120172531Y-42155452D01*
X120173359Y-42149743D01*
X120173360Y-42149738D01*
X120203658Y-41940772D01*
X120204191Y-41937098D01*
X120205843Y-41874000D01*
X120202943Y-41842440D01*
X124294970Y-41842440D01*
X124309400Y-42062604D01*
X124310821Y-42068200D01*
X124310822Y-42068205D01*
X124345130Y-42203291D01*
X124363711Y-42276452D01*
X124366128Y-42281694D01*
X124366128Y-42281695D01*
X124404246Y-42364379D01*
X124456083Y-42476821D01*
X124583422Y-42657002D01*
X124741464Y-42810961D01*
X124746260Y-42814166D01*
X124746263Y-42814168D01*
X124879085Y-42902916D01*
X124924917Y-42933540D01*
X124930220Y-42935818D01*
X124930223Y-42935820D01*
X125121528Y-43018011D01*
X125127636Y-43020635D01*
X125207288Y-43038658D01*
X125337195Y-43068054D01*
X125337201Y-43068055D01*
X125342832Y-43069329D01*
X125348603Y-43069556D01*
X125348605Y-43069556D01*
X125416411Y-43072220D01*
X125563298Y-43077991D01*
X125672475Y-43062161D01*
X125775938Y-43047160D01*
X125775943Y-43047159D01*
X125781652Y-43046331D01*
X125787116Y-43044476D01*
X125787121Y-43044475D01*
X125985107Y-42977268D01*
X125985112Y-42977266D01*
X125990579Y-42975410D01*
X126183084Y-42867602D01*
X126231986Y-42826931D01*
X126348286Y-42730204D01*
X126352718Y-42726518D01*
X126493802Y-42556884D01*
X126570484Y-42419959D01*
X126598786Y-42369422D01*
X126598787Y-42369420D01*
X126601610Y-42364379D01*
X126603466Y-42358912D01*
X126603468Y-42358907D01*
X126670675Y-42160921D01*
X126670676Y-42160916D01*
X126672531Y-42155452D01*
X126673359Y-42149743D01*
X126673360Y-42149738D01*
X126703658Y-41940772D01*
X126704191Y-41937098D01*
X126705843Y-41874000D01*
X126685654Y-41654289D01*
X126625765Y-41441936D01*
X126528180Y-41244053D01*
X126511989Y-41222370D01*
X126399620Y-41071891D01*
X126399620Y-41071890D01*
X126396167Y-41067267D01*
X126278189Y-40958209D01*
X126238389Y-40921418D01*
X126238386Y-40921416D01*
X126234149Y-40917499D01*
X126047550Y-40799764D01*
X125842621Y-40718006D01*
X125836961Y-40716880D01*
X125836957Y-40716879D01*
X125631891Y-40676089D01*
X125631888Y-40676089D01*
X125626224Y-40674962D01*
X125620449Y-40674886D01*
X125620445Y-40674886D01*
X125509704Y-40673437D01*
X125405606Y-40672074D01*
X125399909Y-40673053D01*
X125399908Y-40673053D01*
X125193854Y-40708459D01*
X125193853Y-40708459D01*
X125188157Y-40709438D01*
X124981157Y-40785804D01*
X124976196Y-40788756D01*
X124976195Y-40788756D01*
X124877172Y-40847669D01*
X124791541Y-40898614D01*
X124625657Y-41044090D01*
X124489063Y-41217360D01*
X124386331Y-41412620D01*
X124320903Y-41623333D01*
X124294970Y-41842440D01*
X120202943Y-41842440D01*
X120185654Y-41654289D01*
X120125765Y-41441936D01*
X120028180Y-41244053D01*
X120011989Y-41222370D01*
X119899620Y-41071891D01*
X119899620Y-41071890D01*
X119896167Y-41067267D01*
X119778189Y-40958209D01*
X119738389Y-40921418D01*
X119738386Y-40921416D01*
X119734149Y-40917499D01*
X119547550Y-40799764D01*
X119342621Y-40718006D01*
X119336961Y-40716880D01*
X119336957Y-40716879D01*
X119131891Y-40676089D01*
X119131888Y-40676089D01*
X119126224Y-40674962D01*
X119120449Y-40674886D01*
X119120445Y-40674886D01*
X119009704Y-40673437D01*
X118905606Y-40672074D01*
X118899909Y-40673053D01*
X118899908Y-40673053D01*
X118693854Y-40708459D01*
X118693853Y-40708459D01*
X118688157Y-40709438D01*
X118481157Y-40785804D01*
X118476196Y-40788756D01*
X118476195Y-40788756D01*
X118377172Y-40847669D01*
X118291541Y-40898614D01*
X118125657Y-41044090D01*
X117989063Y-41217360D01*
X117886331Y-41412620D01*
X117820903Y-41623333D01*
X117794970Y-41842440D01*
X77347472Y-41842440D01*
X77344252Y-41834712D01*
X77002212Y-41492672D01*
X76988268Y-41485058D01*
X76986435Y-41485189D01*
X76979821Y-41489440D01*
X76635632Y-41833629D01*
X76628875Y-41846004D01*
X76070090Y-41846004D01*
X76072758Y-41843126D01*
X76069252Y-41834712D01*
X75727212Y-41492672D01*
X75713268Y-41485058D01*
X75711435Y-41485189D01*
X75704821Y-41489440D01*
X75360632Y-41833629D01*
X75353875Y-41846004D01*
X74795090Y-41846004D01*
X74797758Y-41843126D01*
X74794252Y-41834712D01*
X74452212Y-41492672D01*
X74438268Y-41485058D01*
X74436435Y-41485189D01*
X74429821Y-41489440D01*
X74085632Y-41833629D01*
X74078875Y-41846004D01*
X70380059Y-41846004D01*
X70445929Y-41795460D01*
X70542183Y-41670019D01*
X70602691Y-41523940D01*
X70606808Y-41492672D01*
X70622251Y-41375366D01*
X70623329Y-41367178D01*
X70602691Y-41210416D01*
X70563711Y-41116310D01*
X73627054Y-41116310D01*
X73643368Y-41282697D01*
X73646279Y-41296391D01*
X73699050Y-41455025D01*
X73704924Y-41467738D01*
X73706168Y-41469793D01*
X73716574Y-41479307D01*
X73725194Y-41475645D01*
X74067379Y-41133461D01*
X74074992Y-41119518D01*
X74074861Y-41117684D01*
X74070610Y-41111071D01*
X73726858Y-40767319D01*
X73714483Y-40760562D01*
X73709326Y-40764422D01*
X73708673Y-40765739D01*
X73651496Y-40922830D01*
X73648203Y-40936445D01*
X73627250Y-41102303D01*
X73627054Y-41116310D01*
X70563711Y-41116310D01*
X70542183Y-41064337D01*
X70445929Y-40938896D01*
X70320488Y-40842642D01*
X70174409Y-40782134D01*
X70017647Y-40761496D01*
X69860885Y-40782134D01*
X69714806Y-40842642D01*
X69589365Y-40938896D01*
X69493111Y-41064337D01*
X69432603Y-41210416D01*
X69411965Y-41367178D01*
X56784269Y-41367178D01*
X56820644Y-41279362D01*
X56825293Y-41244053D01*
X56840204Y-41130788D01*
X56841282Y-41122600D01*
X56820644Y-40965838D01*
X56760136Y-40819759D01*
X56663882Y-40694318D01*
X56538441Y-40598064D01*
X56392362Y-40537556D01*
X56235600Y-40516918D01*
X56078838Y-40537556D01*
X55932759Y-40598064D01*
X55807318Y-40694318D01*
X55711064Y-40819759D01*
X55650556Y-40965838D01*
X55629918Y-41122600D01*
X53938957Y-41122600D01*
X53909535Y-41025149D01*
X53812818Y-40843249D01*
X53712944Y-40720792D01*
X53686506Y-40688375D01*
X53686503Y-40688372D01*
X53682611Y-40683600D01*
X53673532Y-40676089D01*
X53528625Y-40556211D01*
X53528621Y-40556209D01*
X53523875Y-40552282D01*
X53398111Y-40484282D01*
X74166309Y-40484282D01*
X74166440Y-40486117D01*
X74170688Y-40492727D01*
X74439400Y-40761440D01*
X75064089Y-41386128D01*
X75078032Y-41393741D01*
X75079867Y-41393610D01*
X75086477Y-41389362D01*
X75625305Y-40850535D01*
X75687617Y-40816510D01*
X75758433Y-40821575D01*
X75803495Y-40850535D01*
X76339092Y-41386131D01*
X76353030Y-41393742D01*
X76354866Y-41393610D01*
X76361478Y-41389361D01*
X76629057Y-41121782D01*
X77353808Y-41121782D01*
X77353939Y-41123616D01*
X77358190Y-41130229D01*
X77701904Y-41473943D01*
X77714279Y-41480700D01*
X77718096Y-41477843D01*
X77774465Y-41329452D01*
X77777949Y-41315883D01*
X77801644Y-41147277D01*
X77802251Y-41139391D01*
X77802458Y-41124612D01*
X77802071Y-41116711D01*
X77783092Y-40947505D01*
X77779990Y-40933852D01*
X77725010Y-40775972D01*
X77721681Y-40769022D01*
X77713005Y-40761309D01*
X77703958Y-40765303D01*
X77361421Y-41107839D01*
X77353808Y-41121782D01*
X76629057Y-41121782D01*
X76989400Y-40761440D01*
X77254878Y-40495961D01*
X77262491Y-40482018D01*
X77262360Y-40480183D01*
X77258110Y-40473570D01*
X77195940Y-40411400D01*
X82680918Y-40411400D01*
X82701556Y-40568162D01*
X82762064Y-40714241D01*
X82858318Y-40839682D01*
X82983759Y-40935936D01*
X83129838Y-40996444D01*
X83286600Y-41017082D01*
X83294788Y-41016004D01*
X83435174Y-40997522D01*
X83443362Y-40996444D01*
X83589441Y-40935936D01*
X83714882Y-40839682D01*
X83811136Y-40714241D01*
X83871644Y-40568162D01*
X83892282Y-40411400D01*
X83871644Y-40254638D01*
X83811136Y-40108559D01*
X83714882Y-39983118D01*
X83589441Y-39886864D01*
X83443362Y-39826356D01*
X83387579Y-39819012D01*
X83294788Y-39806796D01*
X83286600Y-39805718D01*
X83278412Y-39806796D01*
X83185622Y-39819012D01*
X83129838Y-39826356D01*
X82983759Y-39886864D01*
X82858318Y-39983118D01*
X82762064Y-40108559D01*
X82701556Y-40254638D01*
X82680918Y-40411400D01*
X77195940Y-40411400D01*
X76719285Y-39934745D01*
X76685259Y-39872433D01*
X76687094Y-39846782D01*
X77353808Y-39846782D01*
X77353939Y-39848616D01*
X77358190Y-39855229D01*
X77701904Y-40198943D01*
X77714279Y-40205700D01*
X77718096Y-40202843D01*
X77774465Y-40054452D01*
X77777949Y-40040883D01*
X77801644Y-39872277D01*
X77802251Y-39864391D01*
X77802458Y-39849612D01*
X77802071Y-39841711D01*
X77783092Y-39672505D01*
X77779990Y-39658852D01*
X77725010Y-39500972D01*
X77721681Y-39494022D01*
X77713005Y-39486309D01*
X77703958Y-39490303D01*
X77361421Y-39832839D01*
X77353808Y-39846782D01*
X76687094Y-39846782D01*
X76690324Y-39801618D01*
X76719285Y-39756555D01*
X76989400Y-39486440D01*
X77254877Y-39220962D01*
X77262491Y-39207018D01*
X77262360Y-39205183D01*
X77258112Y-39198573D01*
X76631322Y-38571782D01*
X77353808Y-38571782D01*
X77353939Y-38573616D01*
X77358190Y-38580229D01*
X77701904Y-38923943D01*
X77714279Y-38930700D01*
X77718096Y-38927843D01*
X77774465Y-38779452D01*
X77777949Y-38765883D01*
X77800324Y-38606670D01*
X118132360Y-38606670D01*
X118138087Y-38614320D01*
X118309242Y-38719205D01*
X118318037Y-38723687D01*
X118528188Y-38810734D01*
X118537573Y-38813783D01*
X118758754Y-38866885D01*
X118768501Y-38868428D01*
X118995270Y-38886275D01*
X119005130Y-38886275D01*
X119231899Y-38868428D01*
X119241646Y-38866885D01*
X119462827Y-38813783D01*
X119472212Y-38810734D01*
X119682363Y-38723687D01*
X119691158Y-38719205D01*
X119858645Y-38616568D01*
X119867600Y-38606670D01*
X124632360Y-38606670D01*
X124638087Y-38614320D01*
X124809242Y-38719205D01*
X124818037Y-38723687D01*
X125028188Y-38810734D01*
X125037573Y-38813783D01*
X125258754Y-38866885D01*
X125268501Y-38868428D01*
X125495270Y-38886275D01*
X125505130Y-38886275D01*
X125731899Y-38868428D01*
X125741646Y-38866885D01*
X125962827Y-38813783D01*
X125972212Y-38810734D01*
X126182363Y-38723687D01*
X126191158Y-38719205D01*
X126358645Y-38616568D01*
X126368107Y-38606110D01*
X126364324Y-38597334D01*
X125513012Y-37746022D01*
X125499068Y-37738408D01*
X125497235Y-37738539D01*
X125490620Y-37742790D01*
X124639120Y-38594290D01*
X124632360Y-38606670D01*
X119867600Y-38606670D01*
X119868107Y-38606110D01*
X119864324Y-38597334D01*
X119013012Y-37746022D01*
X118999068Y-37738408D01*
X118997235Y-37738539D01*
X118990620Y-37742790D01*
X118139120Y-38594290D01*
X118132360Y-38606670D01*
X77800324Y-38606670D01*
X77801644Y-38597277D01*
X77802251Y-38589391D01*
X77802458Y-38574612D01*
X77802071Y-38566711D01*
X77783092Y-38397505D01*
X77779990Y-38383852D01*
X77725010Y-38225972D01*
X77721681Y-38219022D01*
X77713005Y-38211309D01*
X77703958Y-38215303D01*
X77361421Y-38557839D01*
X77353808Y-38571782D01*
X76631322Y-38571782D01*
X76630190Y-38570650D01*
X76364711Y-38305172D01*
X76350768Y-38297559D01*
X76348933Y-38297690D01*
X76342323Y-38301938D01*
X76073610Y-38570650D01*
X75803495Y-38840766D01*
X75741183Y-38874791D01*
X75670367Y-38869726D01*
X75625305Y-38840765D01*
X75355190Y-38570650D01*
X75089712Y-38305173D01*
X75075768Y-38297559D01*
X75073933Y-38297690D01*
X75067323Y-38301938D01*
X74439400Y-38929860D01*
X74173922Y-39195339D01*
X74166309Y-39209282D01*
X74166440Y-39211117D01*
X74170690Y-39217730D01*
X74709515Y-39756555D01*
X74743541Y-39818867D01*
X74738476Y-39889682D01*
X74709515Y-39934745D01*
X74439400Y-40204860D01*
X74173923Y-40470338D01*
X74166309Y-40484282D01*
X53398111Y-40484282D01*
X53342655Y-40454297D01*
X53145854Y-40393377D01*
X53139729Y-40392733D01*
X53139728Y-40392733D01*
X52947098Y-40372487D01*
X52947096Y-40372487D01*
X52940969Y-40371843D01*
X52854129Y-40379746D01*
X52741942Y-40389955D01*
X52741939Y-40389956D01*
X52735803Y-40390514D01*
X52538172Y-40448680D01*
X52355602Y-40544126D01*
X52350801Y-40547986D01*
X52350798Y-40547988D01*
X52288516Y-40598064D01*
X52195047Y-40673215D01*
X52062624Y-40831030D01*
X52059656Y-40836428D01*
X52059653Y-40836433D01*
X51966343Y-41006165D01*
X51963376Y-41011562D01*
X51961513Y-41017435D01*
X51924708Y-41133461D01*
X51901084Y-41207932D01*
X51900398Y-41214049D01*
X51900397Y-41214053D01*
X51897551Y-41239426D01*
X51878120Y-41412662D01*
X49282800Y-41412662D01*
X49282800Y-38872662D01*
X51878120Y-38872662D01*
X51895359Y-39077953D01*
X51897058Y-39083878D01*
X51943350Y-39245316D01*
X51952144Y-39275986D01*
X51954959Y-39281463D01*
X51954960Y-39281466D01*
X52015322Y-39398918D01*
X52046312Y-39459218D01*
X52174277Y-39620670D01*
X52178970Y-39624664D01*
X52178971Y-39624665D01*
X52222188Y-39661445D01*
X52331164Y-39754191D01*
X52510998Y-39854697D01*
X52600272Y-39883704D01*
X52701071Y-39916456D01*
X52701075Y-39916457D01*
X52706929Y-39918359D01*
X52911494Y-39942751D01*
X52917629Y-39942279D01*
X52917631Y-39942279D01*
X52973639Y-39937969D01*
X53116900Y-39926946D01*
X53122830Y-39925290D01*
X53122832Y-39925290D01*
X53309397Y-39873200D01*
X53309396Y-39873200D01*
X53315325Y-39871545D01*
X53320814Y-39868772D01*
X53320820Y-39868770D01*
X53403114Y-39827200D01*
X59312918Y-39827200D01*
X59333556Y-39983962D01*
X59394064Y-40130041D01*
X59490318Y-40255482D01*
X59615759Y-40351736D01*
X59761838Y-40412244D01*
X59770026Y-40413322D01*
X59840219Y-40422563D01*
X59918600Y-40432882D01*
X59926788Y-40431804D01*
X60067174Y-40413322D01*
X60075362Y-40412244D01*
X60221441Y-40351736D01*
X60346882Y-40255482D01*
X60443136Y-40130041D01*
X60503644Y-39983962D01*
X60522424Y-39841310D01*
X73627054Y-39841310D01*
X73643368Y-40007697D01*
X73646279Y-40021391D01*
X73699050Y-40180025D01*
X73704924Y-40192738D01*
X73706168Y-40194793D01*
X73716574Y-40204307D01*
X73725194Y-40200645D01*
X74067379Y-39858461D01*
X74074992Y-39844518D01*
X74074861Y-39842684D01*
X74070610Y-39836071D01*
X73726858Y-39492319D01*
X73714483Y-39485562D01*
X73709326Y-39489422D01*
X73708673Y-39490739D01*
X73651496Y-39647830D01*
X73648203Y-39661445D01*
X73627250Y-39827303D01*
X73627054Y-39841310D01*
X60522424Y-39841310D01*
X60524282Y-39827200D01*
X60503644Y-39670438D01*
X60443136Y-39524359D01*
X60346882Y-39398918D01*
X60221441Y-39302664D01*
X60075362Y-39242156D01*
X59918600Y-39221518D01*
X59761838Y-39242156D01*
X59615759Y-39302664D01*
X59490318Y-39398918D01*
X59394064Y-39524359D01*
X59333556Y-39670438D01*
X59312918Y-39827200D01*
X53403114Y-39827200D01*
X53493716Y-39781433D01*
X53499210Y-39778658D01*
X53661551Y-39651824D01*
X53796164Y-39495872D01*
X53816987Y-39459218D01*
X53894876Y-39322107D01*
X53897923Y-39316744D01*
X53962951Y-39121263D01*
X53988771Y-38916874D01*
X53989183Y-38887400D01*
X53969080Y-38682370D01*
X53934039Y-38566310D01*
X73627054Y-38566310D01*
X73643368Y-38732697D01*
X73646279Y-38746391D01*
X73699050Y-38905025D01*
X73704924Y-38917738D01*
X73706168Y-38919793D01*
X73716574Y-38929307D01*
X73725194Y-38925645D01*
X74067379Y-38583461D01*
X74074992Y-38569518D01*
X74074861Y-38567684D01*
X74070610Y-38561071D01*
X73726858Y-38217319D01*
X73714483Y-38210562D01*
X73709326Y-38214422D01*
X73708673Y-38215739D01*
X73651496Y-38372830D01*
X73648203Y-38386445D01*
X73627250Y-38552303D01*
X73627054Y-38566310D01*
X53934039Y-38566310D01*
X53909535Y-38485149D01*
X53812818Y-38303249D01*
X53727492Y-38198629D01*
X53686506Y-38148375D01*
X53686503Y-38148372D01*
X53682611Y-38143600D01*
X53665386Y-38129350D01*
X53528625Y-38016211D01*
X53528621Y-38016209D01*
X53523875Y-38012282D01*
X53342655Y-37914297D01*
X53145854Y-37853377D01*
X53139729Y-37852733D01*
X53139728Y-37852733D01*
X53089454Y-37847449D01*
X74080416Y-37847449D01*
X74084240Y-37856279D01*
X74426589Y-38198629D01*
X74440532Y-38206242D01*
X74442366Y-38206111D01*
X74448979Y-38201860D01*
X74792314Y-37858525D01*
X74798362Y-37847449D01*
X75355416Y-37847449D01*
X75359240Y-37856279D01*
X75701589Y-38198629D01*
X75715532Y-38206242D01*
X75717366Y-38206111D01*
X75723979Y-38201860D01*
X76067314Y-37858525D01*
X76073362Y-37847449D01*
X76630416Y-37847449D01*
X76634240Y-37856279D01*
X76976589Y-38198629D01*
X76990532Y-38206242D01*
X76992366Y-38206111D01*
X76998979Y-38201860D01*
X77342314Y-37858525D01*
X77349071Y-37846150D01*
X77344505Y-37840050D01*
X77339202Y-37837463D01*
X77181709Y-37781382D01*
X77168085Y-37778186D01*
X77002070Y-37758391D01*
X76988073Y-37758293D01*
X76821804Y-37775768D01*
X76808125Y-37778776D01*
X76649863Y-37832652D01*
X76639255Y-37837644D01*
X76630416Y-37847449D01*
X76073362Y-37847449D01*
X76074071Y-37846150D01*
X76069505Y-37840050D01*
X76064202Y-37837463D01*
X75906709Y-37781382D01*
X75893085Y-37778186D01*
X75727070Y-37758391D01*
X75713073Y-37758293D01*
X75546804Y-37775768D01*
X75533125Y-37778776D01*
X75374863Y-37832652D01*
X75364255Y-37837644D01*
X75355416Y-37847449D01*
X74798362Y-37847449D01*
X74799071Y-37846150D01*
X74794505Y-37840050D01*
X74789202Y-37837463D01*
X74631709Y-37781382D01*
X74618085Y-37778186D01*
X74452070Y-37758391D01*
X74438073Y-37758293D01*
X74271804Y-37775768D01*
X74258125Y-37778776D01*
X74099863Y-37832652D01*
X74089255Y-37837644D01*
X74080416Y-37847449D01*
X53089454Y-37847449D01*
X52947098Y-37832487D01*
X52947096Y-37832487D01*
X52940969Y-37831843D01*
X52854129Y-37839746D01*
X52741942Y-37849955D01*
X52741939Y-37849956D01*
X52735803Y-37850514D01*
X52538172Y-37908680D01*
X52355602Y-38004126D01*
X52350801Y-38007986D01*
X52350798Y-38007988D01*
X52279942Y-38064958D01*
X52195047Y-38133215D01*
X52062624Y-38291030D01*
X52059656Y-38296428D01*
X52059653Y-38296433D01*
X52010169Y-38386445D01*
X51963376Y-38471562D01*
X51901084Y-38667932D01*
X51900398Y-38674049D01*
X51900397Y-38674053D01*
X51895333Y-38719205D01*
X51878120Y-38872662D01*
X49282800Y-38872662D01*
X49282800Y-36332662D01*
X51878120Y-36332662D01*
X51878636Y-36338806D01*
X51894483Y-36527516D01*
X51895359Y-36537953D01*
X51897058Y-36543878D01*
X51936963Y-36683042D01*
X51952144Y-36735986D01*
X51954959Y-36741463D01*
X51954960Y-36741466D01*
X52035066Y-36897336D01*
X52046312Y-36919218D01*
X52174277Y-37080670D01*
X52178970Y-37084664D01*
X52178971Y-37084665D01*
X52235241Y-37132554D01*
X52331164Y-37214191D01*
X52510998Y-37314697D01*
X52605838Y-37345513D01*
X52701071Y-37376456D01*
X52701075Y-37376457D01*
X52706929Y-37378359D01*
X52911494Y-37402751D01*
X52917629Y-37402279D01*
X52917631Y-37402279D01*
X52973639Y-37397969D01*
X53116900Y-37386946D01*
X53122830Y-37385290D01*
X53122832Y-37385290D01*
X53309397Y-37333200D01*
X53309396Y-37333200D01*
X53315325Y-37331545D01*
X53320814Y-37328772D01*
X53320820Y-37328770D01*
X53493716Y-37241433D01*
X53499210Y-37238658D01*
X53661551Y-37111824D01*
X53663643Y-37109400D01*
X80445718Y-37109400D01*
X80466356Y-37266162D01*
X80526864Y-37412241D01*
X80623118Y-37537682D01*
X80748559Y-37633936D01*
X80894638Y-37694444D01*
X81051400Y-37715082D01*
X81059588Y-37714004D01*
X81199974Y-37695522D01*
X81208162Y-37694444D01*
X81354241Y-37633936D01*
X81479682Y-37537682D01*
X81575936Y-37412241D01*
X81589734Y-37378930D01*
X117487925Y-37378930D01*
X117505772Y-37605699D01*
X117507315Y-37615446D01*
X117560417Y-37836627D01*
X117563466Y-37846012D01*
X117650513Y-38056163D01*
X117654995Y-38064958D01*
X117757632Y-38232445D01*
X117768090Y-38241907D01*
X117776866Y-38238124D01*
X118628178Y-37386812D01*
X118634556Y-37375132D01*
X119364608Y-37375132D01*
X119364739Y-37376965D01*
X119368990Y-37383580D01*
X120220490Y-38235080D01*
X120232870Y-38241840D01*
X120240520Y-38236113D01*
X120345405Y-38064958D01*
X120349887Y-38056163D01*
X120436934Y-37846012D01*
X120439983Y-37836627D01*
X120493085Y-37615446D01*
X120494628Y-37605699D01*
X120512475Y-37378930D01*
X123987925Y-37378930D01*
X124005772Y-37605699D01*
X124007315Y-37615446D01*
X124060417Y-37836627D01*
X124063466Y-37846012D01*
X124150513Y-38056163D01*
X124154995Y-38064958D01*
X124257632Y-38232445D01*
X124268090Y-38241907D01*
X124276866Y-38238124D01*
X125128178Y-37386812D01*
X125134556Y-37375132D01*
X125864608Y-37375132D01*
X125864739Y-37376965D01*
X125868990Y-37383580D01*
X126720490Y-38235080D01*
X126732870Y-38241840D01*
X126740520Y-38236113D01*
X126845405Y-38064958D01*
X126849887Y-38056163D01*
X126936934Y-37846012D01*
X126939983Y-37836627D01*
X126993085Y-37615446D01*
X126994628Y-37605699D01*
X127012475Y-37378930D01*
X127012475Y-37369070D01*
X126994628Y-37142301D01*
X126993085Y-37132554D01*
X126939983Y-36911373D01*
X126936934Y-36901988D01*
X126849887Y-36691837D01*
X126845405Y-36683042D01*
X126742768Y-36515555D01*
X126732310Y-36506093D01*
X126723534Y-36509876D01*
X125872222Y-37361188D01*
X125864608Y-37375132D01*
X125134556Y-37375132D01*
X125135792Y-37372868D01*
X125135661Y-37371035D01*
X125131410Y-37364420D01*
X124279910Y-36512920D01*
X124267530Y-36506160D01*
X124259880Y-36511887D01*
X124154995Y-36683042D01*
X124150513Y-36691837D01*
X124063466Y-36901988D01*
X124060417Y-36911373D01*
X124007315Y-37132554D01*
X124005772Y-37142301D01*
X123987925Y-37369070D01*
X123987925Y-37378930D01*
X120512475Y-37378930D01*
X120512475Y-37369070D01*
X120494628Y-37142301D01*
X120493085Y-37132554D01*
X120439983Y-36911373D01*
X120436934Y-36901988D01*
X120349887Y-36691837D01*
X120345405Y-36683042D01*
X120242768Y-36515555D01*
X120232310Y-36506093D01*
X120223534Y-36509876D01*
X119372222Y-37361188D01*
X119364608Y-37375132D01*
X118634556Y-37375132D01*
X118635792Y-37372868D01*
X118635661Y-37371035D01*
X118631410Y-37364420D01*
X117779910Y-36512920D01*
X117767530Y-36506160D01*
X117759880Y-36511887D01*
X117654995Y-36683042D01*
X117650513Y-36691837D01*
X117563466Y-36901988D01*
X117560417Y-36911373D01*
X117507315Y-37132554D01*
X117505772Y-37142301D01*
X117487925Y-37369070D01*
X117487925Y-37378930D01*
X81589734Y-37378930D01*
X81636444Y-37266162D01*
X81657082Y-37109400D01*
X81639846Y-36978482D01*
X81637522Y-36960826D01*
X81636444Y-36952638D01*
X81575936Y-36806559D01*
X81479682Y-36681118D01*
X81354241Y-36584864D01*
X81208162Y-36524356D01*
X81185512Y-36521374D01*
X81059588Y-36504796D01*
X81051400Y-36503718D01*
X81043212Y-36504796D01*
X80917289Y-36521374D01*
X80894638Y-36524356D01*
X80748559Y-36584864D01*
X80623118Y-36681118D01*
X80526864Y-36806559D01*
X80466356Y-36952638D01*
X80465278Y-36960826D01*
X80462954Y-36978482D01*
X80445718Y-37109400D01*
X53663643Y-37109400D01*
X53749683Y-37009722D01*
X53792140Y-36960534D01*
X53792140Y-36960533D01*
X53796164Y-36955872D01*
X53803415Y-36943109D01*
X53852385Y-36856905D01*
X53897923Y-36776744D01*
X53962951Y-36581263D01*
X53988771Y-36376874D01*
X53988828Y-36372800D01*
X55502918Y-36372800D01*
X55503996Y-36380988D01*
X55520296Y-36504796D01*
X55523556Y-36529562D01*
X55584064Y-36675641D01*
X55680318Y-36801082D01*
X55805759Y-36897336D01*
X55951838Y-36957844D01*
X55960026Y-36958922D01*
X56030219Y-36968163D01*
X56108600Y-36978482D01*
X56116788Y-36977404D01*
X56257174Y-36958922D01*
X56265362Y-36957844D01*
X56411441Y-36897336D01*
X56536882Y-36801082D01*
X56633136Y-36675641D01*
X56693644Y-36529562D01*
X56696905Y-36504796D01*
X56707594Y-36423600D01*
X60709918Y-36423600D01*
X60730556Y-36580362D01*
X60791064Y-36726441D01*
X60887318Y-36851882D01*
X61012759Y-36948136D01*
X61158838Y-37008644D01*
X61315600Y-37029282D01*
X61323788Y-37028204D01*
X61464174Y-37009722D01*
X61472362Y-37008644D01*
X61618441Y-36948136D01*
X61743882Y-36851882D01*
X61840136Y-36726441D01*
X61900644Y-36580362D01*
X61921282Y-36423600D01*
X61904562Y-36296600D01*
X70336518Y-36296600D01*
X70357156Y-36453362D01*
X70417664Y-36599441D01*
X70513918Y-36724882D01*
X70639359Y-36821136D01*
X70785438Y-36881644D01*
X70942200Y-36902282D01*
X70950388Y-36901204D01*
X71090774Y-36882722D01*
X71098962Y-36881644D01*
X71245041Y-36821136D01*
X71370482Y-36724882D01*
X71466736Y-36599441D01*
X71527244Y-36453362D01*
X71547882Y-36296600D01*
X71537276Y-36216038D01*
X71528322Y-36148026D01*
X71527514Y-36141890D01*
X118132293Y-36141890D01*
X118136076Y-36150666D01*
X118987388Y-37001978D01*
X119001332Y-37009592D01*
X119003165Y-37009461D01*
X119009780Y-37005210D01*
X119861280Y-36153710D01*
X119867734Y-36141890D01*
X124632293Y-36141890D01*
X124636076Y-36150666D01*
X125487388Y-37001978D01*
X125501332Y-37009592D01*
X125503165Y-37009461D01*
X125509780Y-37005210D01*
X126361280Y-36153710D01*
X126368040Y-36141330D01*
X126362313Y-36133680D01*
X126191158Y-36028795D01*
X126182363Y-36024313D01*
X125972212Y-35937266D01*
X125962827Y-35934217D01*
X125741646Y-35881115D01*
X125731899Y-35879572D01*
X125505130Y-35861725D01*
X125495270Y-35861725D01*
X125268501Y-35879572D01*
X125258754Y-35881115D01*
X125037573Y-35934217D01*
X125028188Y-35937266D01*
X124818037Y-36024313D01*
X124809242Y-36028795D01*
X124641755Y-36131432D01*
X124632293Y-36141890D01*
X119867734Y-36141890D01*
X119868040Y-36141330D01*
X119862313Y-36133680D01*
X119691158Y-36028795D01*
X119682363Y-36024313D01*
X119472212Y-35937266D01*
X119462827Y-35934217D01*
X119241646Y-35881115D01*
X119231899Y-35879572D01*
X119005130Y-35861725D01*
X118995270Y-35861725D01*
X118768501Y-35879572D01*
X118758754Y-35881115D01*
X118537573Y-35934217D01*
X118528188Y-35937266D01*
X118318037Y-36024313D01*
X118309242Y-36028795D01*
X118141755Y-36131432D01*
X118132293Y-36141890D01*
X71527514Y-36141890D01*
X71527244Y-36139838D01*
X71466736Y-35993759D01*
X71383439Y-35885204D01*
X71375505Y-35874864D01*
X71370482Y-35868318D01*
X71245041Y-35772064D01*
X71098962Y-35711556D01*
X70942200Y-35690918D01*
X70785438Y-35711556D01*
X70639359Y-35772064D01*
X70513918Y-35868318D01*
X70508895Y-35874864D01*
X70500961Y-35885204D01*
X70417664Y-35993759D01*
X70357156Y-36139838D01*
X70356078Y-36148026D01*
X70347124Y-36216038D01*
X70336518Y-36296600D01*
X61904562Y-36296600D01*
X61900644Y-36266838D01*
X61840136Y-36120759D01*
X61743882Y-35995318D01*
X61618441Y-35899064D01*
X61472362Y-35838556D01*
X61315600Y-35817918D01*
X61158838Y-35838556D01*
X61012759Y-35899064D01*
X60887318Y-35995318D01*
X60791064Y-36120759D01*
X60730556Y-36266838D01*
X60709918Y-36423600D01*
X56707594Y-36423600D01*
X56713204Y-36380988D01*
X56714282Y-36372800D01*
X56693644Y-36216038D01*
X56633136Y-36069959D01*
X56536882Y-35944518D01*
X56523458Y-35934217D01*
X56429973Y-35862484D01*
X56411441Y-35848264D01*
X56265362Y-35787756D01*
X56108600Y-35767118D01*
X55951838Y-35787756D01*
X55805759Y-35848264D01*
X55787227Y-35862484D01*
X55693743Y-35934217D01*
X55680318Y-35944518D01*
X55584064Y-36069959D01*
X55523556Y-36216038D01*
X55502918Y-36372800D01*
X53988828Y-36372800D01*
X53989183Y-36347400D01*
X53969080Y-36142370D01*
X53909535Y-35945149D01*
X53812818Y-35763249D01*
X53739459Y-35673302D01*
X53686506Y-35608375D01*
X53686503Y-35608372D01*
X53682611Y-35603600D01*
X53649020Y-35575811D01*
X53528625Y-35476211D01*
X53528621Y-35476209D01*
X53523875Y-35472282D01*
X53342655Y-35374297D01*
X53145854Y-35313377D01*
X53139729Y-35312733D01*
X53139728Y-35312733D01*
X52947098Y-35292487D01*
X52947096Y-35292487D01*
X52940969Y-35291843D01*
X52854129Y-35299746D01*
X52741942Y-35309955D01*
X52741939Y-35309956D01*
X52735803Y-35310514D01*
X52538172Y-35368680D01*
X52355602Y-35464126D01*
X52350801Y-35467986D01*
X52350798Y-35467988D01*
X52340571Y-35476211D01*
X52195047Y-35593215D01*
X52062624Y-35751030D01*
X52059656Y-35756428D01*
X52059653Y-35756433D01*
X51991109Y-35881115D01*
X51963376Y-35931562D01*
X51901084Y-36127932D01*
X51900398Y-36134049D01*
X51900397Y-36134053D01*
X51878807Y-36326537D01*
X51878120Y-36332662D01*
X49282800Y-36332662D01*
X49282800Y-35280600D01*
X79480518Y-35280600D01*
X79501156Y-35437362D01*
X79561664Y-35583441D01*
X79657918Y-35708882D01*
X79783359Y-35805136D01*
X79929438Y-35865644D01*
X80086200Y-35886282D01*
X80094388Y-35885204D01*
X80234774Y-35866722D01*
X80242962Y-35865644D01*
X80389041Y-35805136D01*
X80514482Y-35708882D01*
X80610736Y-35583441D01*
X80671244Y-35437362D01*
X80691882Y-35280600D01*
X80671244Y-35123838D01*
X80610736Y-34977759D01*
X80514482Y-34852318D01*
X80389041Y-34756064D01*
X80242962Y-34695556D01*
X80086200Y-34674918D01*
X79929438Y-34695556D01*
X79783359Y-34756064D01*
X79657918Y-34852318D01*
X79561664Y-34977759D01*
X79501156Y-35123838D01*
X79480518Y-35280600D01*
X49282800Y-35280600D01*
X49282800Y-33792662D01*
X51878120Y-33792662D01*
X51895359Y-33997953D01*
X51897058Y-34003878D01*
X51943783Y-34166826D01*
X51952144Y-34195986D01*
X51954959Y-34201463D01*
X51954960Y-34201466D01*
X51975847Y-34242107D01*
X52046312Y-34379218D01*
X52174277Y-34540670D01*
X52178970Y-34544664D01*
X52178971Y-34544665D01*
X52256458Y-34610611D01*
X52331164Y-34674191D01*
X52510998Y-34774697D01*
X52605838Y-34805513D01*
X52701071Y-34836456D01*
X52701075Y-34836457D01*
X52706929Y-34838359D01*
X52911494Y-34862751D01*
X52917629Y-34862279D01*
X52917631Y-34862279D01*
X52973639Y-34857969D01*
X53116900Y-34846946D01*
X53122830Y-34845290D01*
X53122832Y-34845290D01*
X53309397Y-34793200D01*
X53309396Y-34793200D01*
X53315325Y-34791545D01*
X53320814Y-34788772D01*
X53320820Y-34788770D01*
X53493716Y-34701433D01*
X53499210Y-34698658D01*
X53661551Y-34571824D01*
X53796164Y-34415872D01*
X53816987Y-34379218D01*
X53853240Y-34315400D01*
X77778718Y-34315400D01*
X77799356Y-34472162D01*
X77859864Y-34618241D01*
X77956118Y-34743682D01*
X78081559Y-34839936D01*
X78227638Y-34900444D01*
X78384400Y-34921082D01*
X78392588Y-34920004D01*
X78532974Y-34901522D01*
X78541162Y-34900444D01*
X78687241Y-34839936D01*
X78812682Y-34743682D01*
X78908936Y-34618241D01*
X78969444Y-34472162D01*
X78990082Y-34315400D01*
X78972846Y-34184482D01*
X78970522Y-34166826D01*
X78969444Y-34158638D01*
X78908936Y-34012559D01*
X78812682Y-33887118D01*
X78687241Y-33790864D01*
X78541162Y-33730356D01*
X78518512Y-33727374D01*
X78392588Y-33710796D01*
X78384400Y-33709718D01*
X78376212Y-33710796D01*
X78250289Y-33727374D01*
X78227638Y-33730356D01*
X78081559Y-33790864D01*
X77956118Y-33887118D01*
X77859864Y-34012559D01*
X77799356Y-34158638D01*
X77798278Y-34166826D01*
X77795954Y-34184482D01*
X77778718Y-34315400D01*
X53853240Y-34315400D01*
X53897923Y-34236744D01*
X53962951Y-34041263D01*
X53988771Y-33836874D01*
X53989183Y-33807400D01*
X53969080Y-33602370D01*
X53961964Y-33578800D01*
X74578318Y-33578800D01*
X74579396Y-33586988D01*
X74595696Y-33710796D01*
X74598956Y-33735562D01*
X74659464Y-33881641D01*
X74755718Y-34007082D01*
X74881159Y-34103336D01*
X75027238Y-34163844D01*
X75035426Y-34164922D01*
X75105619Y-34174163D01*
X75184000Y-34184482D01*
X75192188Y-34183404D01*
X75332574Y-34164922D01*
X75340762Y-34163844D01*
X75486841Y-34103336D01*
X75612282Y-34007082D01*
X75708536Y-33881641D01*
X75769044Y-33735562D01*
X75772305Y-33710796D01*
X75788604Y-33586988D01*
X75789682Y-33578800D01*
X75769044Y-33422038D01*
X75708536Y-33275959D01*
X75612282Y-33150518D01*
X75605736Y-33145495D01*
X75605732Y-33145491D01*
X75539019Y-33094300D01*
X75497152Y-33036962D01*
X75492930Y-32966091D01*
X75527694Y-32904188D01*
X75567505Y-32877929D01*
X75572070Y-32876038D01*
X75613841Y-32858736D01*
X75726548Y-32772253D01*
X75732736Y-32767505D01*
X75739282Y-32762482D01*
X75835536Y-32637041D01*
X75896044Y-32490962D01*
X75916682Y-32334200D01*
X75896044Y-32177438D01*
X75835536Y-32031359D01*
X75739282Y-31905918D01*
X75613841Y-31809664D01*
X75507819Y-31765748D01*
X116280100Y-31765748D01*
X116291733Y-31824231D01*
X116336048Y-31890552D01*
X116402369Y-31934867D01*
X116414538Y-31937288D01*
X116414539Y-31937288D01*
X116454784Y-31945293D01*
X116460852Y-31946500D01*
X119700348Y-31946500D01*
X119706416Y-31945293D01*
X119746661Y-31937288D01*
X119746662Y-31937288D01*
X119758831Y-31934867D01*
X119825152Y-31890552D01*
X119869467Y-31824231D01*
X119881100Y-31765748D01*
X119881100Y-29726252D01*
X119869467Y-29667769D01*
X119825152Y-29601448D01*
X119758831Y-29557133D01*
X119746662Y-29554712D01*
X119746661Y-29554712D01*
X119706416Y-29546707D01*
X119700348Y-29545500D01*
X116460852Y-29545500D01*
X116454784Y-29546707D01*
X116414539Y-29554712D01*
X116414538Y-29554712D01*
X116402369Y-29557133D01*
X116336048Y-29601448D01*
X116291733Y-29667769D01*
X116280100Y-29726252D01*
X116280100Y-31765748D01*
X75507819Y-31765748D01*
X75467762Y-31749156D01*
X75311000Y-31728518D01*
X75154238Y-31749156D01*
X75008159Y-31809664D01*
X74882718Y-31905918D01*
X74786464Y-32031359D01*
X74725956Y-32177438D01*
X74705318Y-32334200D01*
X74725956Y-32490962D01*
X74786464Y-32637041D01*
X74882718Y-32762482D01*
X74889264Y-32767505D01*
X74889268Y-32767509D01*
X74955981Y-32818700D01*
X74997848Y-32876038D01*
X75002070Y-32946909D01*
X74967306Y-33008812D01*
X74927495Y-33035071D01*
X74881159Y-33054264D01*
X74755718Y-33150518D01*
X74659464Y-33275959D01*
X74598956Y-33422038D01*
X74578318Y-33578800D01*
X53961964Y-33578800D01*
X53909535Y-33405149D01*
X53812818Y-33223249D01*
X53739459Y-33133302D01*
X53686506Y-33068375D01*
X53686503Y-33068372D01*
X53682611Y-33063600D01*
X53677862Y-33059671D01*
X53528625Y-32936211D01*
X53528621Y-32936209D01*
X53523875Y-32932282D01*
X53342655Y-32834297D01*
X53145854Y-32773377D01*
X53139729Y-32772733D01*
X53139728Y-32772733D01*
X52947098Y-32752487D01*
X52947096Y-32752487D01*
X52940969Y-32751843D01*
X52854129Y-32759746D01*
X52741942Y-32769955D01*
X52741939Y-32769956D01*
X52735803Y-32770514D01*
X52538172Y-32828680D01*
X52355602Y-32924126D01*
X52350801Y-32927986D01*
X52350798Y-32927988D01*
X52294668Y-32973118D01*
X52195047Y-33053215D01*
X52062624Y-33211030D01*
X52059656Y-33216428D01*
X52059653Y-33216433D01*
X52026929Y-33275959D01*
X51963376Y-33391562D01*
X51901084Y-33587932D01*
X51900398Y-33594049D01*
X51900397Y-33594053D01*
X51885109Y-33730356D01*
X51878120Y-33792662D01*
X49282800Y-33792662D01*
X49282800Y-31252662D01*
X51878120Y-31252662D01*
X51895359Y-31457953D01*
X51952144Y-31655986D01*
X51954959Y-31661463D01*
X51954960Y-31661466D01*
X52011672Y-31771816D01*
X52046312Y-31839218D01*
X52174277Y-32000670D01*
X52178970Y-32004664D01*
X52178971Y-32004665D01*
X52210337Y-32031359D01*
X52331164Y-32134191D01*
X52510998Y-32234697D01*
X52605838Y-32265513D01*
X52701071Y-32296456D01*
X52701075Y-32296457D01*
X52706929Y-32298359D01*
X52911494Y-32322751D01*
X52917629Y-32322279D01*
X52917631Y-32322279D01*
X52973639Y-32317969D01*
X53116900Y-32306946D01*
X53122830Y-32305290D01*
X53122832Y-32305290D01*
X53309397Y-32253200D01*
X53309396Y-32253200D01*
X53315325Y-32251545D01*
X53320814Y-32248772D01*
X53320820Y-32248770D01*
X53493716Y-32161433D01*
X53499210Y-32158658D01*
X53661551Y-32031824D01*
X53745242Y-31934867D01*
X53792140Y-31880534D01*
X53792140Y-31880533D01*
X53796164Y-31875872D01*
X53816987Y-31839218D01*
X53862238Y-31759561D01*
X53897923Y-31696744D01*
X53962951Y-31501263D01*
X53988771Y-31296874D01*
X53989183Y-31267400D01*
X53969080Y-31062370D01*
X53909535Y-30865149D01*
X53853308Y-30759400D01*
X88925400Y-30759400D01*
X92811600Y-30759400D01*
X92811600Y-27660600D01*
X88925400Y-27660600D01*
X88925400Y-30759400D01*
X53853308Y-30759400D01*
X53812818Y-30683249D01*
X53739459Y-30593302D01*
X53686506Y-30528375D01*
X53686503Y-30528372D01*
X53682611Y-30523600D01*
X53665386Y-30509350D01*
X53528625Y-30396211D01*
X53528621Y-30396209D01*
X53523875Y-30392282D01*
X53342655Y-30294297D01*
X53145854Y-30233377D01*
X53139729Y-30232733D01*
X53139728Y-30232733D01*
X52947098Y-30212487D01*
X52947096Y-30212487D01*
X52940969Y-30211843D01*
X52854129Y-30219746D01*
X52741942Y-30229955D01*
X52741939Y-30229956D01*
X52735803Y-30230514D01*
X52538172Y-30288680D01*
X52355602Y-30384126D01*
X52350801Y-30387986D01*
X52350798Y-30387988D01*
X52340571Y-30396211D01*
X52195047Y-30513215D01*
X52062624Y-30671030D01*
X52059656Y-30676428D01*
X52059653Y-30676433D01*
X52016502Y-30754925D01*
X51963376Y-30851562D01*
X51901084Y-31047932D01*
X51900398Y-31054049D01*
X51900397Y-31054053D01*
X51878807Y-31246537D01*
X51878120Y-31252662D01*
X49282800Y-31252662D01*
X49282800Y-28712662D01*
X51878120Y-28712662D01*
X51878636Y-28718806D01*
X51888925Y-28841329D01*
X51895359Y-28917953D01*
X51897058Y-28923878D01*
X51929436Y-29036792D01*
X51952144Y-29115986D01*
X51954959Y-29121463D01*
X51954960Y-29121466D01*
X51975126Y-29160705D01*
X52046312Y-29299218D01*
X52174277Y-29460670D01*
X52331164Y-29594191D01*
X52336542Y-29597197D01*
X52336544Y-29597198D01*
X52368163Y-29614869D01*
X52510998Y-29694697D01*
X52589439Y-29720184D01*
X52701071Y-29756456D01*
X52701075Y-29756457D01*
X52706929Y-29758359D01*
X52911494Y-29782751D01*
X52917629Y-29782279D01*
X52917631Y-29782279D01*
X52973639Y-29777969D01*
X53116900Y-29766946D01*
X53122830Y-29765290D01*
X53122832Y-29765290D01*
X53309397Y-29713200D01*
X53309396Y-29713200D01*
X53315325Y-29711545D01*
X53320814Y-29708772D01*
X53320820Y-29708770D01*
X53493716Y-29621433D01*
X53499210Y-29618658D01*
X53661551Y-29491824D01*
X53796164Y-29335872D01*
X53816987Y-29299218D01*
X53894876Y-29162107D01*
X53897923Y-29156744D01*
X53962951Y-28961263D01*
X53988771Y-28756874D01*
X53989183Y-28727400D01*
X72622518Y-28727400D01*
X72643156Y-28884162D01*
X72703664Y-29030241D01*
X72799918Y-29155682D01*
X72925359Y-29251936D01*
X73071438Y-29312444D01*
X73228200Y-29333082D01*
X73236388Y-29332004D01*
X73376774Y-29313522D01*
X73384962Y-29312444D01*
X73531041Y-29251936D01*
X73656482Y-29155682D01*
X73752736Y-29030241D01*
X73813244Y-28884162D01*
X73833882Y-28727400D01*
X73813244Y-28570638D01*
X73752736Y-28424559D01*
X73656482Y-28299118D01*
X73531041Y-28202864D01*
X73384962Y-28142356D01*
X73228200Y-28121718D01*
X73071438Y-28142356D01*
X72925359Y-28202864D01*
X72799918Y-28299118D01*
X72703664Y-28424559D01*
X72643156Y-28570638D01*
X72622518Y-28727400D01*
X53989183Y-28727400D01*
X53969080Y-28522370D01*
X53909535Y-28325149D01*
X53812818Y-28143249D01*
X53721994Y-28031888D01*
X53686506Y-27988375D01*
X53686503Y-27988372D01*
X53682611Y-27983600D01*
X53670058Y-27973215D01*
X53528625Y-27856211D01*
X53528621Y-27856209D01*
X53523875Y-27852282D01*
X53342655Y-27754297D01*
X53145854Y-27693377D01*
X53139729Y-27692733D01*
X53139728Y-27692733D01*
X52947098Y-27672487D01*
X52947096Y-27672487D01*
X52940969Y-27671843D01*
X52865456Y-27678715D01*
X52741942Y-27689955D01*
X52741939Y-27689956D01*
X52735803Y-27690514D01*
X52538172Y-27748680D01*
X52532707Y-27751537D01*
X52446887Y-27796403D01*
X52355602Y-27844126D01*
X52350801Y-27847986D01*
X52350798Y-27847988D01*
X52251965Y-27927452D01*
X52195047Y-27973215D01*
X52062624Y-28131030D01*
X52059656Y-28136428D01*
X52059653Y-28136433D01*
X51970217Y-28299118D01*
X51963376Y-28311562D01*
X51901084Y-28507932D01*
X51900398Y-28514049D01*
X51900397Y-28514053D01*
X51894906Y-28563009D01*
X51878120Y-28712662D01*
X49282800Y-28712662D01*
X49282800Y-26172662D01*
X51878120Y-26172662D01*
X51878636Y-26178806D01*
X51894380Y-26366290D01*
X51895359Y-26377953D01*
X51897058Y-26383878D01*
X51950320Y-26569624D01*
X51952144Y-26575986D01*
X51954959Y-26581463D01*
X51954960Y-26581466D01*
X52043497Y-26753741D01*
X52046312Y-26759218D01*
X52174277Y-26920670D01*
X52178970Y-26924664D01*
X52178971Y-26924665D01*
X52302357Y-27029674D01*
X52331164Y-27054191D01*
X52510998Y-27154697D01*
X52587346Y-27179504D01*
X52701071Y-27216456D01*
X52701075Y-27216457D01*
X52706929Y-27218359D01*
X52911494Y-27242751D01*
X52917629Y-27242279D01*
X52917631Y-27242279D01*
X52973639Y-27237969D01*
X53116900Y-27226946D01*
X53122830Y-27225290D01*
X53122832Y-27225290D01*
X53268495Y-27184620D01*
X53315325Y-27171545D01*
X53320814Y-27168772D01*
X53320820Y-27168770D01*
X53493716Y-27081433D01*
X53499210Y-27078658D01*
X53618496Y-26985462D01*
X79490270Y-26985462D01*
X79507509Y-27190753D01*
X79509208Y-27196678D01*
X79518023Y-27227418D01*
X79564294Y-27388786D01*
X79567109Y-27394263D01*
X79567110Y-27394266D01*
X79587997Y-27434907D01*
X79658462Y-27572018D01*
X79786427Y-27733470D01*
X79791120Y-27737464D01*
X79791121Y-27737465D01*
X79930648Y-27856211D01*
X79943314Y-27866991D01*
X80123148Y-27967497D01*
X80187404Y-27988375D01*
X80313221Y-28029256D01*
X80313225Y-28029257D01*
X80319079Y-28031159D01*
X80523644Y-28055551D01*
X80529779Y-28055079D01*
X80529781Y-28055079D01*
X80585789Y-28050769D01*
X80729050Y-28039746D01*
X80734980Y-28038090D01*
X80734982Y-28038090D01*
X80921547Y-27986000D01*
X80921546Y-27986000D01*
X80927475Y-27984345D01*
X80932964Y-27981572D01*
X80932970Y-27981570D01*
X81105866Y-27894233D01*
X81111360Y-27891458D01*
X81273701Y-27764624D01*
X81284998Y-27751537D01*
X81403335Y-27614440D01*
X109375370Y-27614440D01*
X109389800Y-27834604D01*
X109391221Y-27840200D01*
X109391222Y-27840205D01*
X109427830Y-27984345D01*
X109444111Y-28048452D01*
X109446528Y-28053694D01*
X109446528Y-28053695D01*
X109486905Y-28141278D01*
X109536483Y-28248821D01*
X109663822Y-28429002D01*
X109821864Y-28582961D01*
X109826660Y-28586166D01*
X109826663Y-28586168D01*
X109910861Y-28642427D01*
X110005317Y-28705540D01*
X110010620Y-28707818D01*
X110010623Y-28707820D01*
X110202729Y-28790355D01*
X110208036Y-28792635D01*
X110287688Y-28810658D01*
X110417595Y-28840054D01*
X110417601Y-28840055D01*
X110423232Y-28841329D01*
X110429003Y-28841556D01*
X110429005Y-28841556D01*
X110496811Y-28844220D01*
X110643698Y-28849991D01*
X110752875Y-28834161D01*
X110856338Y-28819160D01*
X110856343Y-28819159D01*
X110862052Y-28818331D01*
X110867516Y-28816476D01*
X110867521Y-28816475D01*
X111065507Y-28749268D01*
X111065512Y-28749266D01*
X111070979Y-28747410D01*
X111100421Y-28730922D01*
X111151475Y-28702330D01*
X111263484Y-28639602D01*
X111355577Y-28563009D01*
X111428686Y-28502204D01*
X111433118Y-28498518D01*
X111490934Y-28429002D01*
X111570508Y-28333326D01*
X111570510Y-28333323D01*
X111574202Y-28328884D01*
X111682010Y-28136379D01*
X111683866Y-28130912D01*
X111683868Y-28130907D01*
X111751075Y-27932921D01*
X111751076Y-27932916D01*
X111752931Y-27927452D01*
X111753759Y-27921743D01*
X111753760Y-27921738D01*
X111777215Y-27759966D01*
X111784591Y-27709098D01*
X111786243Y-27646000D01*
X111783343Y-27614440D01*
X123875370Y-27614440D01*
X123889800Y-27834604D01*
X123891221Y-27840200D01*
X123891222Y-27840205D01*
X123927830Y-27984345D01*
X123944111Y-28048452D01*
X123946528Y-28053694D01*
X123946528Y-28053695D01*
X123986905Y-28141278D01*
X124036483Y-28248821D01*
X124163822Y-28429002D01*
X124321864Y-28582961D01*
X124326660Y-28586166D01*
X124326663Y-28586168D01*
X124410861Y-28642427D01*
X124505317Y-28705540D01*
X124510620Y-28707818D01*
X124510623Y-28707820D01*
X124702729Y-28790355D01*
X124708036Y-28792635D01*
X124787688Y-28810658D01*
X124917595Y-28840054D01*
X124917601Y-28840055D01*
X124923232Y-28841329D01*
X124929003Y-28841556D01*
X124929005Y-28841556D01*
X124996811Y-28844220D01*
X125143698Y-28849991D01*
X125252875Y-28834161D01*
X125356338Y-28819160D01*
X125356343Y-28819159D01*
X125362052Y-28818331D01*
X125367516Y-28816476D01*
X125367521Y-28816475D01*
X125565507Y-28749268D01*
X125565512Y-28749266D01*
X125570979Y-28747410D01*
X125600421Y-28730922D01*
X125651475Y-28702330D01*
X125763484Y-28639602D01*
X125855577Y-28563009D01*
X125928686Y-28502204D01*
X125933118Y-28498518D01*
X125990934Y-28429002D01*
X126070508Y-28333326D01*
X126070510Y-28333323D01*
X126074202Y-28328884D01*
X126182010Y-28136379D01*
X126183866Y-28130912D01*
X126183868Y-28130907D01*
X126251075Y-27932921D01*
X126251076Y-27932916D01*
X126252931Y-27927452D01*
X126253759Y-27921743D01*
X126253760Y-27921738D01*
X126277215Y-27759966D01*
X126284591Y-27709098D01*
X126286243Y-27646000D01*
X126266054Y-27426289D01*
X126253807Y-27382862D01*
X126236109Y-27320112D01*
X126206165Y-27213936D01*
X126108580Y-27016053D01*
X126090325Y-26991606D01*
X125980020Y-26843891D01*
X125980020Y-26843890D01*
X125976567Y-26839267D01*
X125836186Y-26709500D01*
X125818789Y-26693418D01*
X125818786Y-26693416D01*
X125814549Y-26689499D01*
X125627950Y-26571764D01*
X125423021Y-26490006D01*
X125417361Y-26488880D01*
X125417357Y-26488879D01*
X125212291Y-26448089D01*
X125212288Y-26448089D01*
X125206624Y-26446962D01*
X125200849Y-26446886D01*
X125200845Y-26446886D01*
X125090104Y-26445437D01*
X124986006Y-26444074D01*
X124980309Y-26445053D01*
X124980308Y-26445053D01*
X124774254Y-26480459D01*
X124774253Y-26480459D01*
X124768557Y-26481438D01*
X124561557Y-26557804D01*
X124556596Y-26560756D01*
X124556595Y-26560756D01*
X124394611Y-26657127D01*
X124371941Y-26670614D01*
X124206057Y-26816090D01*
X124069463Y-26989360D01*
X123966731Y-27184620D01*
X123901303Y-27395333D01*
X123875370Y-27614440D01*
X111783343Y-27614440D01*
X111766054Y-27426289D01*
X111753807Y-27382862D01*
X111736109Y-27320112D01*
X111706165Y-27213936D01*
X111608580Y-27016053D01*
X111590325Y-26991606D01*
X111480020Y-26843891D01*
X111480020Y-26843890D01*
X111476567Y-26839267D01*
X111336186Y-26709500D01*
X111318789Y-26693418D01*
X111318786Y-26693416D01*
X111314549Y-26689499D01*
X111305304Y-26683666D01*
X111258364Y-26630403D01*
X111247672Y-26560216D01*
X111276622Y-26495391D01*
X111306700Y-26469670D01*
X111439045Y-26388568D01*
X111448507Y-26378110D01*
X111444724Y-26369334D01*
X110593412Y-25518022D01*
X110579468Y-25510408D01*
X110577635Y-25510539D01*
X110571020Y-25514790D01*
X109719520Y-26366290D01*
X109712760Y-26378670D01*
X109718487Y-26386320D01*
X109853798Y-26469240D01*
X109901430Y-26521888D01*
X109913036Y-26591929D01*
X109884932Y-26657127D01*
X109871046Y-26671399D01*
X109706057Y-26816090D01*
X109569463Y-26989360D01*
X109466731Y-27184620D01*
X109401303Y-27395333D01*
X109375370Y-27614440D01*
X81403335Y-27614440D01*
X81404290Y-27613334D01*
X81404290Y-27613333D01*
X81408314Y-27608672D01*
X81429137Y-27572018D01*
X81507026Y-27434907D01*
X81510073Y-27429544D01*
X81575101Y-27234063D01*
X81600921Y-27029674D01*
X81601333Y-27000200D01*
X81581230Y-26795170D01*
X81521685Y-26597949D01*
X81484891Y-26528748D01*
X96460100Y-26528748D01*
X96461307Y-26534816D01*
X96465880Y-26557804D01*
X96471733Y-26587231D01*
X96516048Y-26653552D01*
X96582369Y-26697867D01*
X96594538Y-26700288D01*
X96594539Y-26700288D01*
X96634784Y-26708293D01*
X96640852Y-26709500D01*
X98380348Y-26709500D01*
X98386416Y-26708293D01*
X98426661Y-26700288D01*
X98426662Y-26700288D01*
X98438831Y-26697867D01*
X98505152Y-26653552D01*
X98549467Y-26587231D01*
X98555321Y-26557804D01*
X98559893Y-26534816D01*
X98561100Y-26528748D01*
X98561100Y-25150930D01*
X109068325Y-25150930D01*
X109086172Y-25377699D01*
X109087715Y-25387446D01*
X109140817Y-25608627D01*
X109143866Y-25618012D01*
X109230913Y-25828163D01*
X109235395Y-25836958D01*
X109338032Y-26004445D01*
X109348490Y-26013907D01*
X109357266Y-26010124D01*
X110208578Y-25158812D01*
X110214956Y-25147132D01*
X110945008Y-25147132D01*
X110945139Y-25148965D01*
X110949390Y-25155580D01*
X111800890Y-26007080D01*
X111813270Y-26013840D01*
X111820920Y-26008113D01*
X111925805Y-25836958D01*
X111930287Y-25828163D01*
X112017334Y-25618012D01*
X112020383Y-25608627D01*
X112073485Y-25387446D01*
X112075028Y-25377699D01*
X112092875Y-25150930D01*
X112092875Y-25141070D01*
X112075028Y-24914301D01*
X112073485Y-24904554D01*
X112020383Y-24683373D01*
X112017334Y-24673988D01*
X111930287Y-24463837D01*
X111925805Y-24455042D01*
X111823168Y-24287555D01*
X111812710Y-24278093D01*
X111803934Y-24281876D01*
X110952622Y-25133188D01*
X110945008Y-25147132D01*
X110214956Y-25147132D01*
X110216192Y-25144868D01*
X110216061Y-25143035D01*
X110211810Y-25136420D01*
X109360310Y-24284920D01*
X109347930Y-24278160D01*
X109340280Y-24283887D01*
X109235395Y-24455042D01*
X109230913Y-24463837D01*
X109143866Y-24673988D01*
X109140817Y-24683373D01*
X109087715Y-24904554D01*
X109086172Y-24914301D01*
X109068325Y-25141070D01*
X109068325Y-25150930D01*
X98561100Y-25150930D01*
X98561100Y-24789252D01*
X98549467Y-24730769D01*
X98505152Y-24664448D01*
X98438831Y-24620133D01*
X98426662Y-24617712D01*
X98426661Y-24617712D01*
X98386416Y-24609707D01*
X98380348Y-24608500D01*
X96640852Y-24608500D01*
X96634784Y-24609707D01*
X96594539Y-24617712D01*
X96594538Y-24617712D01*
X96582369Y-24620133D01*
X96516048Y-24664448D01*
X96471733Y-24730769D01*
X96460100Y-24789252D01*
X96460100Y-26528748D01*
X81484891Y-26528748D01*
X81424968Y-26416049D01*
X81351609Y-26326102D01*
X81298656Y-26261175D01*
X81298653Y-26261172D01*
X81294761Y-26256400D01*
X81251218Y-26220378D01*
X81140775Y-26129011D01*
X81140771Y-26129009D01*
X81136025Y-26125082D01*
X80954805Y-26027097D01*
X80758004Y-25966177D01*
X80751879Y-25965533D01*
X80751878Y-25965533D01*
X80559248Y-25945287D01*
X80559246Y-25945287D01*
X80553119Y-25944643D01*
X80466279Y-25952546D01*
X80354092Y-25962755D01*
X80354089Y-25962756D01*
X80347953Y-25963314D01*
X80150322Y-26021480D01*
X79967752Y-26116926D01*
X79962951Y-26120786D01*
X79962948Y-26120788D01*
X79875719Y-26190922D01*
X79807197Y-26246015D01*
X79674774Y-26403830D01*
X79671806Y-26409228D01*
X79671803Y-26409233D01*
X79628018Y-26488879D01*
X79575526Y-26584362D01*
X79513234Y-26780732D01*
X79512548Y-26786849D01*
X79512547Y-26786853D01*
X79494043Y-26951824D01*
X79490270Y-26985462D01*
X53618496Y-26985462D01*
X53661551Y-26951824D01*
X53754716Y-26843891D01*
X53792140Y-26800534D01*
X53792140Y-26800533D01*
X53796164Y-26795872D01*
X53816987Y-26759218D01*
X53856592Y-26689499D01*
X53897923Y-26616744D01*
X53962951Y-26421263D01*
X53988771Y-26216874D01*
X53989183Y-26187400D01*
X53969080Y-25982370D01*
X53909535Y-25785149D01*
X53812818Y-25603249D01*
X53736352Y-25509493D01*
X53686506Y-25448375D01*
X53686503Y-25448372D01*
X53682611Y-25443600D01*
X53665386Y-25429350D01*
X53545230Y-25329948D01*
X79495250Y-25329948D01*
X79506883Y-25388431D01*
X79551198Y-25454752D01*
X79617519Y-25499067D01*
X79629688Y-25501488D01*
X79629689Y-25501488D01*
X79669934Y-25509493D01*
X79676002Y-25510700D01*
X81415498Y-25510700D01*
X81421566Y-25509493D01*
X81461811Y-25501488D01*
X81461812Y-25501488D01*
X81473981Y-25499067D01*
X81540302Y-25454752D01*
X81584617Y-25388431D01*
X81596250Y-25329948D01*
X81596250Y-23590452D01*
X81584617Y-23531969D01*
X81540302Y-23465648D01*
X81473981Y-23421333D01*
X81461812Y-23418912D01*
X81461811Y-23418912D01*
X81421566Y-23410907D01*
X81415498Y-23409700D01*
X79676002Y-23409700D01*
X79669934Y-23410907D01*
X79629689Y-23418912D01*
X79629688Y-23418912D01*
X79617519Y-23421333D01*
X79551198Y-23465648D01*
X79506883Y-23531969D01*
X79495250Y-23590452D01*
X79495250Y-25329948D01*
X53545230Y-25329948D01*
X53528625Y-25316211D01*
X53528621Y-25316209D01*
X53523875Y-25312282D01*
X53342655Y-25214297D01*
X53145854Y-25153377D01*
X53139729Y-25152733D01*
X53139728Y-25152733D01*
X52947098Y-25132487D01*
X52947096Y-25132487D01*
X52940969Y-25131843D01*
X52854129Y-25139746D01*
X52741942Y-25149955D01*
X52741939Y-25149956D01*
X52735803Y-25150514D01*
X52538172Y-25208680D01*
X52355602Y-25304126D01*
X52350801Y-25307986D01*
X52350798Y-25307988D01*
X52199854Y-25429350D01*
X52195047Y-25433215D01*
X52062624Y-25591030D01*
X52059656Y-25596428D01*
X52059653Y-25596433D01*
X51966343Y-25766165D01*
X51963376Y-25771562D01*
X51901084Y-25967932D01*
X51900398Y-25974049D01*
X51900397Y-25974053D01*
X51883786Y-26122151D01*
X51878120Y-26172662D01*
X49282800Y-26172662D01*
X49282800Y-21375366D01*
X51601857Y-21375366D01*
X51632165Y-21509846D01*
X51635245Y-21519675D01*
X51715370Y-21717003D01*
X51720013Y-21726194D01*
X51831294Y-21907788D01*
X51837377Y-21916099D01*
X51976813Y-22077067D01*
X51984180Y-22084283D01*
X52148034Y-22220316D01*
X52156481Y-22226231D01*
X52340356Y-22333679D01*
X52349642Y-22338129D01*
X52548601Y-22414103D01*
X52563466Y-22418422D01*
X52562889Y-22420408D01*
X52617860Y-22449482D01*
X52652710Y-22511336D01*
X52648588Y-22582213D01*
X52606801Y-22639609D01*
X52565530Y-22660628D01*
X52544089Y-22666938D01*
X52544084Y-22666940D01*
X52538172Y-22668680D01*
X52532707Y-22671537D01*
X52460981Y-22709035D01*
X52355602Y-22764126D01*
X52350801Y-22767986D01*
X52350798Y-22767988D01*
X52340571Y-22776211D01*
X52195047Y-22893215D01*
X52062624Y-23051030D01*
X52059656Y-23056428D01*
X52059653Y-23056433D01*
X51966343Y-23226165D01*
X51963376Y-23231562D01*
X51961513Y-23237435D01*
X51906868Y-23409700D01*
X51901084Y-23427932D01*
X51900398Y-23434049D01*
X51900397Y-23434053D01*
X51882161Y-23596639D01*
X51878120Y-23632662D01*
X51878636Y-23638806D01*
X51891379Y-23790552D01*
X51895359Y-23837953D01*
X51897058Y-23843878D01*
X51944767Y-24010258D01*
X51952144Y-24035986D01*
X51954959Y-24041463D01*
X51954960Y-24041466D01*
X52043497Y-24213741D01*
X52046312Y-24219218D01*
X52174277Y-24380670D01*
X52331164Y-24514191D01*
X52510998Y-24614697D01*
X52605838Y-24645513D01*
X52701071Y-24676456D01*
X52701075Y-24676457D01*
X52706929Y-24678359D01*
X52911494Y-24702751D01*
X52917629Y-24702279D01*
X52917631Y-24702279D01*
X52973639Y-24697969D01*
X53116900Y-24686946D01*
X53122830Y-24685290D01*
X53122832Y-24685290D01*
X53309397Y-24633200D01*
X53309396Y-24633200D01*
X53315325Y-24631545D01*
X53320814Y-24628772D01*
X53320820Y-24628770D01*
X53493716Y-24541433D01*
X53499210Y-24538658D01*
X53661551Y-24411824D01*
X53796164Y-24255872D01*
X53816987Y-24219218D01*
X53882925Y-24103145D01*
X53897923Y-24076744D01*
X53962951Y-23881263D01*
X53988771Y-23676874D01*
X53989183Y-23647400D01*
X53969080Y-23442370D01*
X53909535Y-23245149D01*
X53834625Y-23104262D01*
X96455120Y-23104262D01*
X96472359Y-23309553D01*
X96474058Y-23315478D01*
X96520076Y-23475961D01*
X96529144Y-23507586D01*
X96531959Y-23513063D01*
X96531960Y-23513066D01*
X96620497Y-23685341D01*
X96623312Y-23690818D01*
X96751277Y-23852270D01*
X96755970Y-23856264D01*
X96755971Y-23856265D01*
X96768000Y-23866502D01*
X96908164Y-23985791D01*
X96913542Y-23988797D01*
X96913544Y-23988798D01*
X96945163Y-24006469D01*
X97087998Y-24086297D01*
X97182838Y-24117113D01*
X97278071Y-24148056D01*
X97278075Y-24148057D01*
X97283929Y-24149959D01*
X97488494Y-24174351D01*
X97494629Y-24173879D01*
X97494631Y-24173879D01*
X97550639Y-24169569D01*
X97693900Y-24158546D01*
X97699830Y-24156890D01*
X97699832Y-24156890D01*
X97886397Y-24104800D01*
X97886396Y-24104800D01*
X97892325Y-24103145D01*
X97897814Y-24100372D01*
X97897820Y-24100370D01*
X98070716Y-24013033D01*
X98076210Y-24010258D01*
X98238551Y-23883424D01*
X98257121Y-23861911D01*
X98369140Y-23732134D01*
X98369140Y-23732133D01*
X98373164Y-23727472D01*
X98393987Y-23690818D01*
X98408228Y-23665748D01*
X109380100Y-23665748D01*
X109391733Y-23724231D01*
X109436048Y-23790552D01*
X109502369Y-23834867D01*
X109514538Y-23837288D01*
X109514539Y-23837288D01*
X109547670Y-23843878D01*
X109560852Y-23846500D01*
X109600750Y-23846500D01*
X109668871Y-23866502D01*
X109716458Y-23922623D01*
X109716477Y-23922667D01*
X110567788Y-24773978D01*
X110581732Y-24781592D01*
X110583565Y-24781461D01*
X110590180Y-24777210D01*
X111441680Y-23925710D01*
X111449105Y-23912113D01*
X111482549Y-23878670D01*
X124212760Y-23878670D01*
X124218487Y-23886320D01*
X124389642Y-23991205D01*
X124398437Y-23995687D01*
X124608588Y-24082734D01*
X124617973Y-24085783D01*
X124839154Y-24138885D01*
X124848901Y-24140428D01*
X125075670Y-24158275D01*
X125085530Y-24158275D01*
X125312299Y-24140428D01*
X125322046Y-24138885D01*
X125543227Y-24085783D01*
X125552612Y-24082734D01*
X125762763Y-23995687D01*
X125771558Y-23991205D01*
X125939045Y-23888568D01*
X125948507Y-23878110D01*
X125944724Y-23869334D01*
X125093412Y-23018022D01*
X125079468Y-23010408D01*
X125077635Y-23010539D01*
X125071020Y-23014790D01*
X124219520Y-23866290D01*
X124212760Y-23878670D01*
X111482549Y-23878670D01*
X111499308Y-23861911D01*
X111559692Y-23846500D01*
X111600348Y-23846500D01*
X111613530Y-23843878D01*
X111646661Y-23837288D01*
X111646662Y-23837288D01*
X111658831Y-23834867D01*
X111725152Y-23790552D01*
X111769467Y-23724231D01*
X111781100Y-23665748D01*
X111781100Y-22650930D01*
X123568325Y-22650930D01*
X123586172Y-22877699D01*
X123587715Y-22887446D01*
X123640817Y-23108627D01*
X123643866Y-23118012D01*
X123730913Y-23328163D01*
X123735395Y-23336958D01*
X123838032Y-23504445D01*
X123848490Y-23513907D01*
X123857266Y-23510124D01*
X124708578Y-22658812D01*
X124714956Y-22647132D01*
X125445008Y-22647132D01*
X125445139Y-22648965D01*
X125449390Y-22655580D01*
X126300890Y-23507080D01*
X126313270Y-23513840D01*
X126320920Y-23508113D01*
X126425805Y-23336958D01*
X126430287Y-23328163D01*
X126517334Y-23118012D01*
X126520383Y-23108627D01*
X126573485Y-22887446D01*
X126575028Y-22877699D01*
X126592875Y-22650930D01*
X126592875Y-22641070D01*
X126575028Y-22414301D01*
X126573485Y-22404554D01*
X126520383Y-22183373D01*
X126517334Y-22173988D01*
X126430287Y-21963837D01*
X126425805Y-21955042D01*
X126323168Y-21787555D01*
X126312710Y-21778093D01*
X126303934Y-21781876D01*
X125452622Y-22633188D01*
X125445008Y-22647132D01*
X124714956Y-22647132D01*
X124716192Y-22644868D01*
X124716061Y-22643035D01*
X124711810Y-22636420D01*
X123860310Y-21784920D01*
X123847930Y-21778160D01*
X123840280Y-21783887D01*
X123735395Y-21955042D01*
X123730913Y-21963837D01*
X123643866Y-22173988D01*
X123640817Y-22183373D01*
X123587715Y-22404554D01*
X123586172Y-22414301D01*
X123568325Y-22641070D01*
X123568325Y-22650930D01*
X111781100Y-22650930D01*
X111781100Y-21626252D01*
X111769467Y-21567769D01*
X111725152Y-21501448D01*
X111658831Y-21457133D01*
X111646662Y-21454712D01*
X111646661Y-21454712D01*
X111606416Y-21446707D01*
X111600348Y-21445500D01*
X109560852Y-21445500D01*
X109554784Y-21446707D01*
X109514539Y-21454712D01*
X109514538Y-21454712D01*
X109502369Y-21457133D01*
X109436048Y-21501448D01*
X109391733Y-21567769D01*
X109380100Y-21626252D01*
X109380100Y-23665748D01*
X98408228Y-23665748D01*
X98411743Y-23659561D01*
X98474923Y-23548344D01*
X98539951Y-23352863D01*
X98565771Y-23148474D01*
X98566183Y-23119000D01*
X98546080Y-22913970D01*
X98486535Y-22716749D01*
X98389818Y-22534849D01*
X98294862Y-22418422D01*
X98263506Y-22379975D01*
X98263503Y-22379972D01*
X98259611Y-22375200D01*
X98146459Y-22281592D01*
X98105625Y-22247811D01*
X98105621Y-22247809D01*
X98100875Y-22243882D01*
X97919655Y-22145897D01*
X97722854Y-22084977D01*
X97716729Y-22084333D01*
X97716728Y-22084333D01*
X97524098Y-22064087D01*
X97524096Y-22064087D01*
X97517969Y-22063443D01*
X97431129Y-22071346D01*
X97318942Y-22081555D01*
X97318939Y-22081556D01*
X97312803Y-22082114D01*
X97115172Y-22140280D01*
X96932602Y-22235726D01*
X96927801Y-22239586D01*
X96927798Y-22239588D01*
X96805238Y-22338129D01*
X96772047Y-22364815D01*
X96639624Y-22522630D01*
X96636656Y-22528028D01*
X96636653Y-22528033D01*
X96557762Y-22671537D01*
X96540376Y-22703162D01*
X96478084Y-22899532D01*
X96477398Y-22905649D01*
X96477397Y-22905653D01*
X96465156Y-23014790D01*
X96455120Y-23104262D01*
X53834625Y-23104262D01*
X53812818Y-23063249D01*
X53691069Y-22913970D01*
X53686506Y-22908375D01*
X53686503Y-22908372D01*
X53682611Y-22903600D01*
X53675773Y-22897943D01*
X53528625Y-22776211D01*
X53528621Y-22776209D01*
X53523875Y-22772282D01*
X53342655Y-22674297D01*
X53291783Y-22658550D01*
X53232625Y-22619299D01*
X53204077Y-22554295D01*
X53215205Y-22484176D01*
X53262476Y-22431204D01*
X53292835Y-22417499D01*
X53425855Y-22377591D01*
X53435442Y-22373833D01*
X53626695Y-22280139D01*
X53635545Y-22274864D01*
X53808928Y-22151192D01*
X53816800Y-22144539D01*
X53967652Y-21994212D01*
X53974330Y-21986365D01*
X54098603Y-21813420D01*
X54103913Y-21804583D01*
X54198270Y-21613667D01*
X54202069Y-21604072D01*
X54259851Y-21413890D01*
X124212693Y-21413890D01*
X124216476Y-21422666D01*
X125067788Y-22273978D01*
X125081732Y-22281592D01*
X125083565Y-22281461D01*
X125090180Y-22277210D01*
X125941680Y-21425710D01*
X125948440Y-21413330D01*
X125942713Y-21405680D01*
X125771558Y-21300795D01*
X125762763Y-21296313D01*
X125552612Y-21209266D01*
X125543227Y-21206217D01*
X125322046Y-21153115D01*
X125312299Y-21151572D01*
X125085530Y-21133725D01*
X125075670Y-21133725D01*
X124848901Y-21151572D01*
X124839154Y-21153115D01*
X124617973Y-21206217D01*
X124608588Y-21209266D01*
X124398437Y-21296313D01*
X124389642Y-21300795D01*
X124222155Y-21403432D01*
X124212693Y-21413890D01*
X54259851Y-21413890D01*
X54263977Y-21400310D01*
X54266155Y-21390237D01*
X54267586Y-21379362D01*
X54265375Y-21365178D01*
X54252217Y-21361400D01*
X51616825Y-21361400D01*
X51603294Y-21365373D01*
X51601857Y-21375366D01*
X49282800Y-21375366D01*
X49282800Y-20841583D01*
X51597989Y-20841583D01*
X51599512Y-20850007D01*
X51611892Y-20853400D01*
X52661485Y-20853400D01*
X52676724Y-20848925D01*
X52677929Y-20847535D01*
X52679600Y-20839852D01*
X52679600Y-20835285D01*
X53187600Y-20835285D01*
X53192075Y-20850524D01*
X53193465Y-20851729D01*
X53201148Y-20853400D01*
X54251944Y-20853400D01*
X54265475Y-20849427D01*
X54266780Y-20840347D01*
X54224814Y-20673275D01*
X54221494Y-20663524D01*
X54178980Y-20565748D01*
X116280100Y-20565748D01*
X116291733Y-20624231D01*
X116336048Y-20690552D01*
X116402369Y-20734867D01*
X116414538Y-20737288D01*
X116414539Y-20737288D01*
X116454784Y-20745293D01*
X116460852Y-20746500D01*
X119700348Y-20746500D01*
X119706416Y-20745293D01*
X119746661Y-20737288D01*
X119746662Y-20737288D01*
X119758831Y-20734867D01*
X119825152Y-20690552D01*
X119869467Y-20624231D01*
X119881100Y-20565748D01*
X119881100Y-18526252D01*
X119874610Y-18493624D01*
X119871888Y-18479939D01*
X119871888Y-18479938D01*
X119869467Y-18467769D01*
X119825152Y-18401448D01*
X119793258Y-18380137D01*
X119769147Y-18364026D01*
X119758831Y-18357133D01*
X119746662Y-18354712D01*
X119746661Y-18354712D01*
X119706416Y-18346707D01*
X119700348Y-18345500D01*
X116460852Y-18345500D01*
X116454784Y-18346707D01*
X116414539Y-18354712D01*
X116414538Y-18354712D01*
X116402369Y-18357133D01*
X116392053Y-18364026D01*
X116367942Y-18380137D01*
X116336048Y-18401448D01*
X116291733Y-18467769D01*
X116289312Y-18479938D01*
X116289312Y-18479939D01*
X116286590Y-18493624D01*
X116280100Y-18526252D01*
X116280100Y-20565748D01*
X54178980Y-20565748D01*
X54136572Y-20468214D01*
X54131705Y-20459139D01*
X54016026Y-20280326D01*
X54009736Y-20272157D01*
X53866406Y-20114640D01*
X53858873Y-20107615D01*
X53691739Y-19975622D01*
X53683152Y-19969917D01*
X53496717Y-19866999D01*
X53487305Y-19862769D01*
X53286559Y-19791680D01*
X53276588Y-19789046D01*
X53205437Y-19776372D01*
X53192140Y-19777832D01*
X53187600Y-19792389D01*
X53187600Y-20835285D01*
X52679600Y-20835285D01*
X52679600Y-19790502D01*
X52675682Y-19777158D01*
X52661406Y-19775171D01*
X52622924Y-19781060D01*
X52612888Y-19783451D01*
X52410468Y-19849612D01*
X52400959Y-19853609D01*
X52212063Y-19951942D01*
X52203338Y-19957436D01*
X52033033Y-20085305D01*
X52025326Y-20092148D01*
X51878190Y-20246117D01*
X51871704Y-20254127D01*
X51751698Y-20430049D01*
X51746600Y-20439023D01*
X51656938Y-20632183D01*
X51653375Y-20641870D01*
X51597989Y-20841583D01*
X49282800Y-20841583D01*
X49282800Y-19601075D01*
X72980725Y-19601075D01*
X73040723Y-19764145D01*
X73046297Y-19775573D01*
X73144799Y-19934440D01*
X73152549Y-19944504D01*
X73280986Y-20080322D01*
X73290606Y-20088625D01*
X73443731Y-20195845D01*
X73454820Y-20202042D01*
X73626382Y-20276284D01*
X73638485Y-20280123D01*
X73809264Y-20315801D01*
X73823325Y-20314678D01*
X73827000Y-20304571D01*
X73827000Y-20296390D01*
X74335000Y-20296390D01*
X74339216Y-20310750D01*
X74351695Y-20312809D01*
X74423331Y-20305533D01*
X74435770Y-20302979D01*
X74614143Y-20247080D01*
X74625831Y-20242071D01*
X74789320Y-20151447D01*
X74799753Y-20144196D01*
X74941688Y-20022544D01*
X74950441Y-20013353D01*
X75065021Y-19865636D01*
X75071745Y-19854876D01*
X75154281Y-19687140D01*
X75158709Y-19675233D01*
X75176083Y-19608531D01*
X75175853Y-19601075D01*
X77980725Y-19601075D01*
X78040723Y-19764145D01*
X78046297Y-19775573D01*
X78144799Y-19934440D01*
X78152549Y-19944504D01*
X78280986Y-20080322D01*
X78290606Y-20088625D01*
X78443731Y-20195845D01*
X78454820Y-20202042D01*
X78626382Y-20276284D01*
X78638485Y-20280123D01*
X78809264Y-20315801D01*
X78823325Y-20314678D01*
X78827000Y-20304571D01*
X78827000Y-20296390D01*
X79335000Y-20296390D01*
X79339216Y-20310750D01*
X79351695Y-20312809D01*
X79423331Y-20305533D01*
X79435770Y-20302979D01*
X79614143Y-20247080D01*
X79625831Y-20242071D01*
X79789320Y-20151447D01*
X79799753Y-20144196D01*
X79941688Y-20022544D01*
X79950441Y-20013353D01*
X80065021Y-19865636D01*
X80071745Y-19854876D01*
X80154281Y-19687140D01*
X80158709Y-19675233D01*
X80176083Y-19608531D01*
X80175649Y-19594436D01*
X80167468Y-19591000D01*
X79353115Y-19591000D01*
X79337876Y-19595475D01*
X79336671Y-19596865D01*
X79335000Y-19604548D01*
X79335000Y-20296390D01*
X78827000Y-20296390D01*
X78827000Y-19609115D01*
X78822525Y-19593876D01*
X78821135Y-19592671D01*
X78813452Y-19591000D01*
X77995133Y-19591000D01*
X77981602Y-19594973D01*
X77980725Y-19601075D01*
X75175853Y-19601075D01*
X75175649Y-19594436D01*
X75167468Y-19591000D01*
X74353115Y-19591000D01*
X74337876Y-19595475D01*
X74336671Y-19596865D01*
X74335000Y-19604548D01*
X74335000Y-20296390D01*
X73827000Y-20296390D01*
X73827000Y-19609115D01*
X73822525Y-19593876D01*
X73821135Y-19592671D01*
X73813452Y-19591000D01*
X72995133Y-19591000D01*
X72981602Y-19594973D01*
X72980725Y-19601075D01*
X49282800Y-19601075D01*
X49282800Y-19202400D01*
X97438318Y-19202400D01*
X97458956Y-19359162D01*
X97519464Y-19505241D01*
X97615718Y-19630682D01*
X97741159Y-19726936D01*
X97887238Y-19787444D01*
X98044000Y-19808082D01*
X98052188Y-19807004D01*
X98192574Y-19788522D01*
X98200762Y-19787444D01*
X98346841Y-19726936D01*
X98472282Y-19630682D01*
X98568536Y-19505241D01*
X98629044Y-19359162D01*
X98649682Y-19202400D01*
X98629044Y-19045638D01*
X98568536Y-18899559D01*
X98472282Y-18774118D01*
X98346841Y-18677864D01*
X98200762Y-18617356D01*
X98044000Y-18596718D01*
X97887238Y-18617356D01*
X97741159Y-18677864D01*
X97615718Y-18774118D01*
X97519464Y-18899559D01*
X97458956Y-19045638D01*
X97438318Y-19202400D01*
X49282800Y-19202400D01*
X49282800Y-17714462D01*
X59472720Y-17714462D01*
X59473236Y-17720606D01*
X59487067Y-17885309D01*
X59489959Y-17919753D01*
X59491658Y-17925678D01*
X59513347Y-18001315D01*
X59546744Y-18117786D01*
X59549559Y-18123263D01*
X59549560Y-18123266D01*
X59615850Y-18252252D01*
X59640912Y-18301018D01*
X59768877Y-18462470D01*
X59925764Y-18595991D01*
X60105598Y-18696497D01*
X60200438Y-18727313D01*
X60295671Y-18758256D01*
X60295675Y-18758257D01*
X60301529Y-18760159D01*
X60506094Y-18784551D01*
X60512229Y-18784079D01*
X60512231Y-18784079D01*
X60568239Y-18779769D01*
X60711500Y-18768746D01*
X60717430Y-18767090D01*
X60717432Y-18767090D01*
X60903997Y-18715000D01*
X60903996Y-18715000D01*
X60909925Y-18713345D01*
X60915414Y-18710572D01*
X60915420Y-18710570D01*
X61088316Y-18623233D01*
X61093810Y-18620458D01*
X61138715Y-18585375D01*
X61219123Y-18522553D01*
X61256151Y-18493624D01*
X61267964Y-18479939D01*
X61386740Y-18342334D01*
X61386740Y-18342333D01*
X61390764Y-18337672D01*
X61411587Y-18301018D01*
X61474645Y-18190015D01*
X61525684Y-18140664D01*
X61595302Y-18126742D01*
X61661396Y-18152668D01*
X61702981Y-18210211D01*
X61710201Y-18252252D01*
X61710201Y-18623869D01*
X61710571Y-18630690D01*
X61716095Y-18681552D01*
X61719721Y-18696804D01*
X61764876Y-18817254D01*
X61773414Y-18832849D01*
X61849915Y-18934924D01*
X61862476Y-18947485D01*
X61964551Y-19023986D01*
X61980146Y-19032524D01*
X62100594Y-19077678D01*
X62115849Y-19081305D01*
X62166714Y-19086831D01*
X62173528Y-19087200D01*
X62796085Y-19087200D01*
X62811324Y-19082725D01*
X62812529Y-19081335D01*
X62814200Y-19073652D01*
X62814200Y-19069084D01*
X63322200Y-19069084D01*
X63326675Y-19084323D01*
X63328065Y-19085528D01*
X63335748Y-19087199D01*
X63962869Y-19087199D01*
X63969690Y-19086829D01*
X64020552Y-19081305D01*
X64035804Y-19077679D01*
X64068374Y-19065469D01*
X72985917Y-19065469D01*
X72986351Y-19079564D01*
X72994532Y-19083000D01*
X73808885Y-19083000D01*
X73824124Y-19078525D01*
X73825329Y-19077135D01*
X73827000Y-19069452D01*
X73827000Y-19064885D01*
X74335000Y-19064885D01*
X74339475Y-19080124D01*
X74340865Y-19081329D01*
X74348548Y-19083000D01*
X75166867Y-19083000D01*
X75180398Y-19079027D01*
X75181275Y-19072925D01*
X75178532Y-19065469D01*
X77985917Y-19065469D01*
X77986351Y-19079564D01*
X77994532Y-19083000D01*
X78808885Y-19083000D01*
X78824124Y-19078525D01*
X78825329Y-19077135D01*
X78827000Y-19069452D01*
X78827000Y-19064885D01*
X79335000Y-19064885D01*
X79339475Y-19080124D01*
X79340865Y-19081329D01*
X79348548Y-19083000D01*
X80166867Y-19083000D01*
X80180398Y-19079027D01*
X80181275Y-19072925D01*
X80121277Y-18909855D01*
X80115703Y-18898427D01*
X80017201Y-18739560D01*
X80009451Y-18729496D01*
X79881014Y-18593678D01*
X79871394Y-18585375D01*
X79718269Y-18478155D01*
X79707180Y-18471958D01*
X79535618Y-18397716D01*
X79523515Y-18393877D01*
X79352736Y-18358199D01*
X79338675Y-18359322D01*
X79335000Y-18369429D01*
X79335000Y-19064885D01*
X78827000Y-19064885D01*
X78827000Y-18377610D01*
X78822784Y-18363250D01*
X78810305Y-18361191D01*
X78738669Y-18368467D01*
X78726230Y-18371021D01*
X78547857Y-18426920D01*
X78536169Y-18431929D01*
X78372680Y-18522553D01*
X78362247Y-18529804D01*
X78220312Y-18651456D01*
X78211559Y-18660647D01*
X78096979Y-18808364D01*
X78090255Y-18819124D01*
X78007719Y-18986860D01*
X78003291Y-18998767D01*
X77985917Y-19065469D01*
X75178532Y-19065469D01*
X75121277Y-18909855D01*
X75115703Y-18898427D01*
X75017201Y-18739560D01*
X75009451Y-18729496D01*
X74881014Y-18593678D01*
X74871394Y-18585375D01*
X74718269Y-18478155D01*
X74707180Y-18471958D01*
X74535618Y-18397716D01*
X74523515Y-18393877D01*
X74352736Y-18358199D01*
X74338675Y-18359322D01*
X74335000Y-18369429D01*
X74335000Y-19064885D01*
X73827000Y-19064885D01*
X73827000Y-18377610D01*
X73822784Y-18363250D01*
X73810305Y-18361191D01*
X73738669Y-18368467D01*
X73726230Y-18371021D01*
X73547857Y-18426920D01*
X73536169Y-18431929D01*
X73372680Y-18522553D01*
X73362247Y-18529804D01*
X73220312Y-18651456D01*
X73211559Y-18660647D01*
X73096979Y-18808364D01*
X73090255Y-18819124D01*
X73007719Y-18986860D01*
X73003291Y-18998767D01*
X72985917Y-19065469D01*
X64068374Y-19065469D01*
X64156254Y-19032524D01*
X64171849Y-19023986D01*
X64273924Y-18947485D01*
X64286485Y-18934924D01*
X64362986Y-18832849D01*
X64371524Y-18817254D01*
X64416678Y-18696806D01*
X64420305Y-18681551D01*
X64425831Y-18630686D01*
X64426200Y-18623872D01*
X64426200Y-18001315D01*
X64421725Y-17986076D01*
X64420335Y-17984871D01*
X64412652Y-17983200D01*
X63340315Y-17983200D01*
X63325076Y-17987675D01*
X63323871Y-17989065D01*
X63322200Y-17996748D01*
X63322200Y-19069084D01*
X62814200Y-19069084D01*
X62814200Y-17457085D01*
X63322200Y-17457085D01*
X63326675Y-17472324D01*
X63328065Y-17473529D01*
X63335748Y-17475200D01*
X64408084Y-17475200D01*
X64423323Y-17470725D01*
X64424528Y-17469335D01*
X64426199Y-17461652D01*
X64426199Y-17012192D01*
X72128000Y-17012192D01*
X72128323Y-17018567D01*
X72142005Y-17153267D01*
X72144559Y-17165707D01*
X72198635Y-17338264D01*
X72203644Y-17349952D01*
X72291314Y-17508111D01*
X72298565Y-17518544D01*
X72416244Y-17655843D01*
X72425453Y-17664612D01*
X72568333Y-17775442D01*
X72579113Y-17782178D01*
X72741374Y-17862019D01*
X72753273Y-17866445D01*
X72809469Y-17881082D01*
X72823564Y-17880648D01*
X72827000Y-17872467D01*
X72827000Y-17870901D01*
X73335000Y-17870901D01*
X73338973Y-17884432D01*
X73345075Y-17885309D01*
X73494936Y-17830170D01*
X73506342Y-17824608D01*
X73660044Y-17729309D01*
X73670105Y-17721560D01*
X73801496Y-17597310D01*
X73809799Y-17587690D01*
X73913523Y-17439557D01*
X73919720Y-17428469D01*
X73991540Y-17262505D01*
X73995382Y-17250393D01*
X74032677Y-17071866D01*
X74033915Y-17062334D01*
X74034000Y-17059111D01*
X74034000Y-17012192D01*
X79128000Y-17012192D01*
X79128323Y-17018567D01*
X79142005Y-17153267D01*
X79144559Y-17165707D01*
X79198635Y-17338264D01*
X79203644Y-17349952D01*
X79291314Y-17508111D01*
X79298565Y-17518544D01*
X79416244Y-17655843D01*
X79425453Y-17664612D01*
X79568333Y-17775442D01*
X79579113Y-17782178D01*
X79741374Y-17862019D01*
X79753273Y-17866445D01*
X79809469Y-17881082D01*
X79823564Y-17880648D01*
X79827000Y-17872467D01*
X79827000Y-17870901D01*
X80335000Y-17870901D01*
X80338973Y-17884432D01*
X80345075Y-17885309D01*
X80494936Y-17830170D01*
X80506342Y-17824608D01*
X80660044Y-17729309D01*
X80670105Y-17721560D01*
X80801496Y-17597310D01*
X80809799Y-17587690D01*
X80913523Y-17439557D01*
X80919720Y-17428469D01*
X80991540Y-17262505D01*
X80995382Y-17250393D01*
X81032677Y-17071866D01*
X81033915Y-17062334D01*
X81034000Y-17059111D01*
X81034000Y-16909115D01*
X81029525Y-16893876D01*
X81028135Y-16892671D01*
X81020452Y-16891000D01*
X80353115Y-16891000D01*
X80337876Y-16895475D01*
X80336671Y-16896865D01*
X80335000Y-16904548D01*
X80335000Y-17870901D01*
X79827000Y-17870901D01*
X79827000Y-16909115D01*
X79822525Y-16893876D01*
X79821135Y-16892671D01*
X79813452Y-16891000D01*
X79146115Y-16891000D01*
X79130876Y-16895475D01*
X79129671Y-16896865D01*
X79128000Y-16904548D01*
X79128000Y-17012192D01*
X74034000Y-17012192D01*
X74034000Y-16909115D01*
X74029525Y-16893876D01*
X74028135Y-16892671D01*
X74020452Y-16891000D01*
X73353115Y-16891000D01*
X73337876Y-16895475D01*
X73336671Y-16896865D01*
X73335000Y-16904548D01*
X73335000Y-17870901D01*
X72827000Y-17870901D01*
X72827000Y-16909115D01*
X72822525Y-16893876D01*
X72821135Y-16892671D01*
X72813452Y-16891000D01*
X72146115Y-16891000D01*
X72130876Y-16895475D01*
X72129671Y-16896865D01*
X72128000Y-16904548D01*
X72128000Y-17012192D01*
X64426199Y-17012192D01*
X64426199Y-16834531D01*
X64425829Y-16827710D01*
X64420305Y-16776848D01*
X64416679Y-16761596D01*
X64371524Y-16641146D01*
X64362986Y-16625551D01*
X64286485Y-16523476D01*
X64273924Y-16510915D01*
X64171849Y-16434414D01*
X64156254Y-16425876D01*
X64035806Y-16380722D01*
X64020551Y-16377095D01*
X63969686Y-16371569D01*
X63962872Y-16371200D01*
X63340315Y-16371200D01*
X63325076Y-16375675D01*
X63323871Y-16377065D01*
X63322200Y-16384748D01*
X63322200Y-17457085D01*
X62814200Y-17457085D01*
X62814200Y-16389316D01*
X62809725Y-16374077D01*
X62808335Y-16372872D01*
X62800652Y-16371201D01*
X62173531Y-16371201D01*
X62166710Y-16371571D01*
X62115848Y-16377095D01*
X62100596Y-16380721D01*
X61980146Y-16425876D01*
X61964551Y-16434414D01*
X61862476Y-16510915D01*
X61849915Y-16523476D01*
X61773414Y-16625551D01*
X61764876Y-16641146D01*
X61719722Y-16761594D01*
X61716095Y-16776849D01*
X61710569Y-16827714D01*
X61710200Y-16834528D01*
X61710200Y-17209142D01*
X61690198Y-17277263D01*
X61636542Y-17323756D01*
X61566268Y-17333860D01*
X61501688Y-17304366D01*
X61472948Y-17268295D01*
X61469870Y-17262505D01*
X61407418Y-17145049D01*
X61334059Y-17055102D01*
X61281106Y-16990175D01*
X61281103Y-16990172D01*
X61277211Y-16985400D01*
X61259986Y-16971150D01*
X61123225Y-16858011D01*
X61123221Y-16858009D01*
X61118475Y-16854082D01*
X60937255Y-16756097D01*
X60740454Y-16695177D01*
X60734329Y-16694533D01*
X60734328Y-16694533D01*
X60541698Y-16674287D01*
X60541696Y-16674287D01*
X60535569Y-16673643D01*
X60448729Y-16681546D01*
X60336542Y-16691755D01*
X60336539Y-16691756D01*
X60330403Y-16692314D01*
X60132772Y-16750480D01*
X59950202Y-16845926D01*
X59945401Y-16849786D01*
X59945398Y-16849788D01*
X59871610Y-16909115D01*
X59789647Y-16975015D01*
X59657224Y-17132830D01*
X59654256Y-17138228D01*
X59654253Y-17138233D01*
X59562922Y-17304366D01*
X59557976Y-17313362D01*
X59495684Y-17509732D01*
X59494998Y-17515849D01*
X59494997Y-17515853D01*
X59473407Y-17708337D01*
X59472720Y-17714462D01*
X49282800Y-17714462D01*
X49282800Y-15715700D01*
X49302802Y-15647579D01*
X49356458Y-15601086D01*
X49408800Y-15589700D01*
X72177803Y-15589700D01*
X72245924Y-15609702D01*
G37*
G04 #@! TD.AperFunction*
M02*
