M48
; DRILL file {KiCad (6.0.7)} date Wed Nov 23 08:20:27 2022
; FORMAT={-:-/ absolute / metric / decimal}
; #@! TF.CreationDate,2022-11-23T08:20:27-05:00
; #@! TF.GenerationSoftware,Kicad,Pcbnew,(6.0.7)
; #@! TF.FileFunction,Plated,1,4,PTH
FMAT,2
METRIC
; #@! TA.AperFunction,Plated,PTH,ViaDrill
T1C0.300
; #@! TA.AperFunction,Plated,PTH,ComponentDrill
T2C0.350
; #@! TA.AperFunction,Plated,PTH,ComponentDrill
T3C0.500
; #@! TA.AperFunction,Plated,PTH,ComponentDrill
T4C0.550
; #@! TA.AperFunction,Plated,PTH,ComponentDrill
T5C1.000
; #@! TA.AperFunction,Plated,PTH,ComponentDrill
T6C1.100
; #@! TA.AperFunction,Plated,PTH,ComponentDrill
T7C1.500
%
G90
G05
T1
X50.521Y-16.662
X52.172Y-16.662
X56.109Y-36.373
X56.236Y-41.123
X57.048Y-28.194
X58.242Y-43.485
X58.242Y-46.634
X58.268Y-44.602
X58.268Y-45.618
X59.919Y-39.827
X61.316Y-36.424
X62.524Y-64.313
X64.465Y-32.487
X65.786Y-36.195
X65.964Y-21.006
X65.964Y-22.657
X65.964Y-24.282
X66.37Y-61.544
X66.396Y-58.217
X66.396Y-59.868
X67.361Y-50.571
X67.361Y-52.476
X67.869Y-21.006
X67.869Y-22.657
X67.869Y-24.282
X68.275Y-61.544
X68.301Y-58.217
X68.301Y-59.868
X68.809Y-42.723
X69.037Y-55.448
X69.215Y-48.387
X69.279Y-64.313
X69.494Y-36.347
X69.723Y-21.006
X69.723Y-22.657
X69.723Y-24.282
X69.875Y-43.485
X70.018Y-41.367
X70.256Y-61.595
X70.282Y-58.268
X70.282Y-59.919
X70.637Y-26.721
X70.764Y-47.168
X70.942Y-36.297
X71.247Y-33.553
X72.161Y-61.595
X72.187Y-58.268
X72.187Y-59.919
X72.263Y-50.241
X72.39Y-56.566
X73.228Y-28.727
X73.584Y-45.923
X73.913Y-32.067
X74.447Y-28.778
X75.108Y-31.064
X75.184Y-33.579
X75.184Y-53.594
X75.26Y-20.803
X75.311Y-32.334
X75.717Y-26.822
X75.717Y-28.473
X75.794Y-47.93
X75.844Y-46.634
X75.895Y-22.962
X75.895Y-24.613
X76.033Y-64.287
X76.403Y-55.067
X77.114Y-46.584
X77.394Y-47.981
X77.724Y-52.654
X78.08Y-22.987
X78.08Y-24.638
X78.08Y-26.848
X78.08Y-28.499
X78.384Y-34.315
X78.461Y-50.089
X79.273Y-32.436
X80.086Y-35.281
X81.051Y-37.109
X81.509Y-31.217
X81.763Y-21.184
X81.991Y-34.366
X82.525Y-50.698
X82.525Y-52.349
X82.788Y-64.414
X83.287Y-40.411
X83.515Y-32.258
X83.949Y-27.999
X84.582Y-40.275
X85.903Y-33.045
X85.903Y-34.696
X86.284Y-50.902
X86.284Y-52.553
X87.808Y-33.045
X87.808Y-34.696
X88.153Y-21.057
X88.189Y-50.902
X88.189Y-52.553
X89.542Y-64.389
X89.56Y-33.045
X89.56Y-34.696
X91.465Y-33.045
X91.465Y-34.696
X93.167Y-43.51
X93.167Y-45.161
X95.047Y-31.598
X95.072Y-43.51
X95.072Y-45.161
X95.809Y-28.981
X96.297Y-64.389
X96.952Y-29.947
X98.044Y-19.202
X99.517Y-19.329
X100.025Y-35.281
X100.025Y-36.932
X100.635Y-22.047
X100.635Y-23.698
X101.93Y-35.281
X101.93Y-36.932
X103.051Y-64.364
X103.403Y-41.072
X103.403Y-42.723
X103.734Y-35.281
X103.734Y-36.932
X103.81Y-16.662
X105.08Y-20.574
X105.308Y-29.693
X105.308Y-41.072
X105.308Y-42.723
X105.461Y-16.662
X105.639Y-35.281
X105.639Y-36.932
X107.823Y-35.281
X107.823Y-36.932
X109.728Y-17.145
X109.728Y-35.281
X109.728Y-36.932
X109.806Y-64.338
X111.531Y-35.281
X111.531Y-36.932
X113.436Y-35.281
X113.436Y-36.932
X113.538Y-43.942
X113.64Y-60.63
X113.843Y-51.46
X115.951Y-37.897
X116.129Y-54.635
X116.256Y-45.212
X116.561Y-64.313
X123.315Y-64.313
X125.273Y-17.145
X125.705Y-31.445
X128.118Y-64.262
X128.168Y-16.916
X128.219Y-50.292
X128.295Y-36.779
X128.346Y-43.536
X128.397Y-56.936
T2
X74.439Y-38.571
X74.439Y-39.846
X74.439Y-41.121
X75.714Y-38.571
X75.714Y-39.846
X75.714Y-41.121
X76.989Y-38.571
X76.989Y-39.846
X76.989Y-41.121
T5
X52.934Y-21.107
X52.934Y-23.647
X52.934Y-26.187
X52.934Y-28.727
X52.934Y-31.267
X52.934Y-33.807
X52.934Y-36.347
X52.934Y-38.887
X52.934Y-41.427
X52.934Y-43.967
X53.244Y-49.225
X53.244Y-51.765
X53.244Y-54.305
X53.244Y-56.845
X53.244Y-59.385
X53.244Y-61.925
X60.528Y-17.729
X63.068Y-17.729
X78.095Y-58.979
X80.546Y-24.46
X80.546Y-27.0
X80.635Y-58.979
X83.175Y-58.979
X87.975Y-58.979
X90.515Y-58.979
X93.055Y-58.979
X97.511Y-23.119
X97.511Y-25.659
X100.534Y-48.057
X100.534Y-50.597
X100.534Y-53.137
X100.534Y-55.677
X107.34Y-48.057
X107.34Y-50.597
X107.34Y-53.137
X107.34Y-55.677
X110.581Y-22.646
X110.581Y-25.146
X110.581Y-27.646
X125.081Y-22.646
X125.081Y-27.646
T6
X118.924Y-54.036
X118.924Y-58.536
X118.949Y-44.943
X118.949Y-49.443
X119.0Y-37.374
X119.0Y-41.874
X125.424Y-54.036
X125.424Y-58.536
X125.449Y-44.943
X125.449Y-49.443
X125.5Y-37.374
X125.5Y-41.874
T3
X73.081Y-16.962G85X73.081Y-16.312
G05
X80.081Y-16.962G85X80.081Y-16.312
G05
T4
X74.231Y-19.337G85X73.931Y-19.337
G05
X79.231Y-19.337G85X78.931Y-19.337
G05
T7
X117.431Y-19.546G85X118.731Y-19.546
G05
X117.431Y-30.746G85X118.731Y-30.746
G05
T0
M30
