G04 #@! TF.GenerationSoftware,KiCad,Pcbnew,6.0.6-3a73a75311~116~ubuntu20.04.1*
G04 #@! TF.CreationDate,2022-10-03T18:42:43-04:00*
G04 #@! TF.ProjectId,powerboard,706f7765-7262-46f6-9172-642e6b696361,rev?*
G04 #@! TF.SameCoordinates,Original*
G04 #@! TF.FileFunction,Legend,Bot*
G04 #@! TF.FilePolarity,Positive*
%FSLAX46Y46*%
G04 Gerber Fmt 4.6, Leading zero omitted, Abs format (unit mm)*
G04 Created by KiCad (PCBNEW 6.0.6-3a73a75311~116~ubuntu20.04.1) date 2022-10-03 18:42:43*
%MOMM*%
%LPD*%
G01*
G04 APERTURE LIST*
G04 Aperture macros list*
%AMRoundRect*
0 Rectangle with rounded corners*
0 $1 Rounding radius*
0 $2 $3 $4 $5 $6 $7 $8 $9 X,Y pos of 4 corners*
0 Add a 4 corners polygon primitive as box body*
4,1,4,$2,$3,$4,$5,$6,$7,$8,$9,$2,$3,0*
0 Add four circle primitives for the rounded corners*
1,1,$1+$1,$2,$3*
1,1,$1+$1,$4,$5*
1,1,$1+$1,$6,$7*
1,1,$1+$1,$8,$9*
0 Add four rect primitives between the rounded corners*
20,1,$1+$1,$2,$3,$4,$5,0*
20,1,$1+$1,$4,$5,$6,$7,0*
20,1,$1+$1,$6,$7,$8,$9,0*
20,1,$1+$1,$8,$9,$2,$3,0*%
G04 Aperture macros list end*
%ADD10C,0.150000*%
%ADD11C,0.120000*%
%ADD12C,2.000000*%
%ADD13R,1.700000X1.700000*%
%ADD14O,1.700000X1.700000*%
%ADD15O,0.890000X1.550000*%
%ADD16O,1.250000X0.950000*%
%ADD17R,2.000000X2.000000*%
%ADD18R,3.200000X2.000000*%
%ADD19RoundRect,0.140000X-0.170000X0.140000X-0.170000X-0.140000X0.170000X-0.140000X0.170000X0.140000X0*%
%ADD20RoundRect,0.140000X0.170000X-0.140000X0.170000X0.140000X-0.170000X0.140000X-0.170000X-0.140000X0*%
%ADD21RoundRect,0.140000X0.140000X0.170000X-0.140000X0.170000X-0.140000X-0.170000X0.140000X-0.170000X0*%
%ADD22RoundRect,0.140000X-0.140000X-0.170000X0.140000X-0.170000X0.140000X0.170000X-0.140000X0.170000X0*%
G04 APERTURE END LIST*
D10*
X76760342Y-34307542D02*
X76807961Y-34259923D01*
X76855580Y-34117066D01*
X76855580Y-34021828D01*
X76807961Y-33878971D01*
X76712723Y-33783733D01*
X76617485Y-33736114D01*
X76427009Y-33688495D01*
X76284152Y-33688495D01*
X76093676Y-33736114D01*
X75998438Y-33783733D01*
X75903200Y-33878971D01*
X75855580Y-34021828D01*
X75855580Y-34117066D01*
X75903200Y-34259923D01*
X75950819Y-34307542D01*
X76855580Y-35259923D02*
X76855580Y-34688495D01*
X76855580Y-34974209D02*
X75855580Y-34974209D01*
X75998438Y-34878971D01*
X76093676Y-34783733D01*
X76141295Y-34688495D01*
X75855580Y-35878971D02*
X75855580Y-35974209D01*
X75903200Y-36069447D01*
X75950819Y-36117066D01*
X76046057Y-36164685D01*
X76236533Y-36212304D01*
X76474628Y-36212304D01*
X76665104Y-36164685D01*
X76760342Y-36117066D01*
X76807961Y-36069447D01*
X76855580Y-35974209D01*
X76855580Y-35878971D01*
X76807961Y-35783733D01*
X76760342Y-35736114D01*
X76665104Y-35688495D01*
X76474628Y-35640876D01*
X76236533Y-35640876D01*
X76046057Y-35688495D01*
X75950819Y-35736114D01*
X75903200Y-35783733D01*
X75855580Y-35878971D01*
X76401657Y-44286466D02*
X76354038Y-44334085D01*
X76306419Y-44476942D01*
X76306419Y-44572180D01*
X76354038Y-44715038D01*
X76449276Y-44810276D01*
X76544514Y-44857895D01*
X76734990Y-44905514D01*
X76877847Y-44905514D01*
X77068323Y-44857895D01*
X77163561Y-44810276D01*
X77258800Y-44715038D01*
X77306419Y-44572180D01*
X77306419Y-44476942D01*
X77258800Y-44334085D01*
X77211180Y-44286466D01*
X77306419Y-43429323D02*
X77306419Y-43619800D01*
X77258800Y-43715038D01*
X77211180Y-43762657D01*
X77068323Y-43857895D01*
X76877847Y-43905514D01*
X76496895Y-43905514D01*
X76401657Y-43857895D01*
X76354038Y-43810276D01*
X76306419Y-43715038D01*
X76306419Y-43524561D01*
X76354038Y-43429323D01*
X76401657Y-43381704D01*
X76496895Y-43334085D01*
X76734990Y-43334085D01*
X76830228Y-43381704D01*
X76877847Y-43429323D01*
X76925466Y-43524561D01*
X76925466Y-43715038D01*
X76877847Y-43810276D01*
X76830228Y-43857895D01*
X76734990Y-43905514D01*
X81116466Y-40438342D02*
X81164085Y-40485961D01*
X81306942Y-40533580D01*
X81402180Y-40533580D01*
X81545038Y-40485961D01*
X81640276Y-40390723D01*
X81687895Y-40295485D01*
X81735514Y-40105009D01*
X81735514Y-39962152D01*
X81687895Y-39771676D01*
X81640276Y-39676438D01*
X81545038Y-39581200D01*
X81402180Y-39533580D01*
X81306942Y-39533580D01*
X81164085Y-39581200D01*
X81116466Y-39628819D01*
X80164085Y-40533580D02*
X80735514Y-40533580D01*
X80449800Y-40533580D02*
X80449800Y-39533580D01*
X80545038Y-39676438D01*
X80640276Y-39771676D01*
X80735514Y-39819295D01*
X71575657Y-38666657D02*
X71528038Y-38714276D01*
X71480419Y-38857133D01*
X71480419Y-38952371D01*
X71528038Y-39095228D01*
X71623276Y-39190466D01*
X71718514Y-39238085D01*
X71908990Y-39285704D01*
X72051847Y-39285704D01*
X72242323Y-39238085D01*
X72337561Y-39190466D01*
X72432800Y-39095228D01*
X72480419Y-38952371D01*
X72480419Y-38857133D01*
X72432800Y-38714276D01*
X72385180Y-38666657D01*
X71480419Y-37714276D02*
X71480419Y-38285704D01*
X71480419Y-37999990D02*
X72480419Y-37999990D01*
X72337561Y-38095228D01*
X72242323Y-38190466D01*
X72194704Y-38285704D01*
X72480419Y-37380942D02*
X72480419Y-36761895D01*
X72099466Y-37095228D01*
X72099466Y-36952371D01*
X72051847Y-36857133D01*
X72004228Y-36809514D01*
X71908990Y-36761895D01*
X71670895Y-36761895D01*
X71575657Y-36809514D01*
X71528038Y-36857133D01*
X71480419Y-36952371D01*
X71480419Y-37238085D01*
X71528038Y-37333323D01*
X71575657Y-37380942D01*
X73506057Y-35625066D02*
X73458438Y-35672685D01*
X73410819Y-35815542D01*
X73410819Y-35910780D01*
X73458438Y-36053638D01*
X73553676Y-36148876D01*
X73648914Y-36196495D01*
X73839390Y-36244114D01*
X73982247Y-36244114D01*
X74172723Y-36196495D01*
X74267961Y-36148876D01*
X74363200Y-36053638D01*
X74410819Y-35910780D01*
X74410819Y-35815542D01*
X74363200Y-35672685D01*
X74315580Y-35625066D01*
X73982247Y-35053638D02*
X74029866Y-35148876D01*
X74077485Y-35196495D01*
X74172723Y-35244114D01*
X74220342Y-35244114D01*
X74315580Y-35196495D01*
X74363200Y-35148876D01*
X74410819Y-35053638D01*
X74410819Y-34863161D01*
X74363200Y-34767923D01*
X74315580Y-34720304D01*
X74220342Y-34672685D01*
X74172723Y-34672685D01*
X74077485Y-34720304D01*
X74029866Y-34767923D01*
X73982247Y-34863161D01*
X73982247Y-35053638D01*
X73934628Y-35148876D01*
X73887009Y-35196495D01*
X73791771Y-35244114D01*
X73601295Y-35244114D01*
X73506057Y-35196495D01*
X73458438Y-35148876D01*
X73410819Y-35053638D01*
X73410819Y-34863161D01*
X73458438Y-34767923D01*
X73506057Y-34720304D01*
X73601295Y-34672685D01*
X73791771Y-34672685D01*
X73887009Y-34720304D01*
X73934628Y-34767923D01*
X73982247Y-34863161D01*
X72509142Y-41603657D02*
X72461523Y-41556038D01*
X72318666Y-41508419D01*
X72223428Y-41508419D01*
X72080571Y-41556038D01*
X71985333Y-41651276D01*
X71937714Y-41746514D01*
X71890095Y-41936990D01*
X71890095Y-42079847D01*
X71937714Y-42270323D01*
X71985333Y-42365561D01*
X72080571Y-42460800D01*
X72223428Y-42508419D01*
X72318666Y-42508419D01*
X72461523Y-42460800D01*
X72509142Y-42413180D01*
X73461523Y-41508419D02*
X72890095Y-41508419D01*
X73175809Y-41508419D02*
X73175809Y-42508419D01*
X73080571Y-42365561D01*
X72985333Y-42270323D01*
X72890095Y-42222704D01*
X74366285Y-42508419D02*
X73890095Y-42508419D01*
X73842476Y-42032228D01*
X73890095Y-42079847D01*
X73985333Y-42127466D01*
X74223428Y-42127466D01*
X74318666Y-42079847D01*
X74366285Y-42032228D01*
X74413904Y-41936990D01*
X74413904Y-41698895D01*
X74366285Y-41603657D01*
X74318666Y-41556038D01*
X74223428Y-41508419D01*
X73985333Y-41508419D01*
X73890095Y-41556038D01*
X73842476Y-41603657D01*
X78382857Y-35523466D02*
X78335238Y-35571085D01*
X78287619Y-35713942D01*
X78287619Y-35809180D01*
X78335238Y-35952038D01*
X78430476Y-36047276D01*
X78525714Y-36094895D01*
X78716190Y-36142514D01*
X78859047Y-36142514D01*
X79049523Y-36094895D01*
X79144761Y-36047276D01*
X79240000Y-35952038D01*
X79287619Y-35809180D01*
X79287619Y-35713942D01*
X79240000Y-35571085D01*
X79192380Y-35523466D01*
X78287619Y-35047276D02*
X78287619Y-34856800D01*
X78335238Y-34761561D01*
X78382857Y-34713942D01*
X78525714Y-34618704D01*
X78716190Y-34571085D01*
X79097142Y-34571085D01*
X79192380Y-34618704D01*
X79240000Y-34666323D01*
X79287619Y-34761561D01*
X79287619Y-34952038D01*
X79240000Y-35047276D01*
X79192380Y-35094895D01*
X79097142Y-35142514D01*
X78859047Y-35142514D01*
X78763809Y-35094895D01*
X78716190Y-35047276D01*
X78668571Y-34952038D01*
X78668571Y-34761561D01*
X78716190Y-34666323D01*
X78763809Y-34618704D01*
X78859047Y-34571085D01*
X75566542Y-35190133D02*
X75614161Y-35142514D01*
X75661780Y-34999657D01*
X75661780Y-34904419D01*
X75614161Y-34761561D01*
X75518923Y-34666323D01*
X75423685Y-34618704D01*
X75233209Y-34571085D01*
X75090352Y-34571085D01*
X74899876Y-34618704D01*
X74804638Y-34666323D01*
X74709400Y-34761561D01*
X74661780Y-34904419D01*
X74661780Y-34999657D01*
X74709400Y-35142514D01*
X74757019Y-35190133D01*
X74661780Y-36094895D02*
X74661780Y-35618704D01*
X75137971Y-35571085D01*
X75090352Y-35618704D01*
X75042733Y-35713942D01*
X75042733Y-35952038D01*
X75090352Y-36047276D01*
X75137971Y-36094895D01*
X75233209Y-36142514D01*
X75471304Y-36142514D01*
X75566542Y-36094895D01*
X75614161Y-36047276D01*
X75661780Y-35952038D01*
X75661780Y-35713942D01*
X75614161Y-35618704D01*
X75566542Y-35571085D01*
X77979542Y-35164733D02*
X78027161Y-35117114D01*
X78074780Y-34974257D01*
X78074780Y-34879019D01*
X78027161Y-34736161D01*
X77931923Y-34640923D01*
X77836685Y-34593304D01*
X77646209Y-34545685D01*
X77503352Y-34545685D01*
X77312876Y-34593304D01*
X77217638Y-34640923D01*
X77122400Y-34736161D01*
X77074780Y-34879019D01*
X77074780Y-34974257D01*
X77122400Y-35117114D01*
X77170019Y-35164733D01*
X77074780Y-35498066D02*
X77074780Y-36164733D01*
X78074780Y-35736161D01*
X81541857Y-42267142D02*
X81589476Y-42314761D01*
X81732333Y-42362380D01*
X81827571Y-42362380D01*
X81970428Y-42314761D01*
X82065666Y-42219523D01*
X82113285Y-42124285D01*
X82160904Y-41933809D01*
X82160904Y-41790952D01*
X82113285Y-41600476D01*
X82065666Y-41505238D01*
X81970428Y-41410000D01*
X81827571Y-41362380D01*
X81732333Y-41362380D01*
X81589476Y-41410000D01*
X81541857Y-41457619D01*
X80589476Y-42362380D02*
X81160904Y-42362380D01*
X80875190Y-42362380D02*
X80875190Y-41362380D01*
X80970428Y-41505238D01*
X81065666Y-41600476D01*
X81160904Y-41648095D01*
X80208523Y-41457619D02*
X80160904Y-41410000D01*
X80065666Y-41362380D01*
X79827571Y-41362380D01*
X79732333Y-41410000D01*
X79684714Y-41457619D01*
X79637095Y-41552857D01*
X79637095Y-41648095D01*
X79684714Y-41790952D01*
X80256142Y-42362380D01*
X79637095Y-42362380D01*
X81211657Y-39219142D02*
X81259276Y-39266761D01*
X81402133Y-39314380D01*
X81497371Y-39314380D01*
X81640228Y-39266761D01*
X81735466Y-39171523D01*
X81783085Y-39076285D01*
X81830704Y-38885809D01*
X81830704Y-38742952D01*
X81783085Y-38552476D01*
X81735466Y-38457238D01*
X81640228Y-38362000D01*
X81497371Y-38314380D01*
X81402133Y-38314380D01*
X81259276Y-38362000D01*
X81211657Y-38409619D01*
X80259276Y-39314380D02*
X80830704Y-39314380D01*
X80544990Y-39314380D02*
X80544990Y-38314380D01*
X80640228Y-38457238D01*
X80735466Y-38552476D01*
X80830704Y-38600095D01*
X79402133Y-38647714D02*
X79402133Y-39314380D01*
X79640228Y-38266761D02*
X79878323Y-38981047D01*
X79259276Y-38981047D01*
X75055457Y-45092857D02*
X75007838Y-45140476D01*
X74960219Y-45283333D01*
X74960219Y-45378571D01*
X75007838Y-45521428D01*
X75103076Y-45616666D01*
X75198314Y-45664285D01*
X75388790Y-45711904D01*
X75531647Y-45711904D01*
X75722123Y-45664285D01*
X75817361Y-45616666D01*
X75912600Y-45521428D01*
X75960219Y-45378571D01*
X75960219Y-45283333D01*
X75912600Y-45140476D01*
X75864980Y-45092857D01*
X74960219Y-44140476D02*
X74960219Y-44711904D01*
X74960219Y-44426190D02*
X75960219Y-44426190D01*
X75817361Y-44521428D01*
X75722123Y-44616666D01*
X75674504Y-44711904D01*
X74960219Y-43188095D02*
X74960219Y-43759523D01*
X74960219Y-43473809D02*
X75960219Y-43473809D01*
X75817361Y-43569047D01*
X75722123Y-43664285D01*
X75674504Y-43759523D01*
X76560000Y-37306364D02*
X76560000Y-37522036D01*
X75840000Y-37306364D02*
X75840000Y-37522036D01*
X76221000Y-42322636D02*
X76221000Y-42106964D01*
X76941000Y-42322636D02*
X76941000Y-42106964D01*
D11*
X78365236Y-40263400D02*
X78149564Y-40263400D01*
X78365236Y-39543400D02*
X78149564Y-39543400D01*
D10*
X72792000Y-37814364D02*
X72792000Y-38030036D01*
X73512000Y-37814364D02*
X73512000Y-38030036D01*
X73782600Y-37306364D02*
X73782600Y-37522036D01*
X74502600Y-37306364D02*
X74502600Y-37522036D01*
X73221964Y-40483200D02*
X73437636Y-40483200D01*
X73221964Y-41203200D02*
X73437636Y-41203200D01*
X78541200Y-37280964D02*
X78541200Y-37496636D01*
X77821200Y-37280964D02*
X77821200Y-37496636D01*
X74824000Y-37306364D02*
X74824000Y-37522036D01*
X75544000Y-37306364D02*
X75544000Y-37522036D01*
X76830600Y-37280964D02*
X76830600Y-37496636D01*
X77550600Y-37280964D02*
X77550600Y-37496636D01*
X78390636Y-41304800D02*
X78174964Y-41304800D01*
X78390636Y-40584800D02*
X78174964Y-40584800D01*
X78365236Y-38527400D02*
X78149564Y-38527400D01*
X78365236Y-39247400D02*
X78149564Y-39247400D01*
X75899600Y-42322636D02*
X75899600Y-42106964D01*
X75179600Y-42322636D02*
X75179600Y-42106964D01*
%LPC*%
D12*
X125500200Y-37374000D03*
X119000200Y-37374000D03*
X125500200Y-41874000D03*
X119000200Y-41874000D03*
D13*
X87975200Y-58978800D03*
D14*
X90515200Y-58978800D03*
X93055200Y-58978800D03*
D15*
X80081000Y-16637000D03*
D16*
X74081000Y-19337000D03*
D15*
X73081000Y-16637000D03*
D16*
X79081000Y-19337000D03*
D12*
X125424000Y-54036400D03*
X118924000Y-54036400D03*
X125424000Y-58536400D03*
X118924000Y-58536400D03*
D13*
X107340400Y-55676800D03*
D14*
X107340400Y-53136800D03*
X107340400Y-50596800D03*
X107340400Y-48056800D03*
D13*
X53219200Y-62153800D03*
D14*
X53219200Y-59613800D03*
X53219200Y-57073800D03*
X53219200Y-54533800D03*
X53219200Y-51993800D03*
X53219200Y-49453800D03*
D13*
X78094600Y-58978800D03*
D14*
X80634600Y-58978800D03*
X83174600Y-58978800D03*
D13*
X100533600Y-55676800D03*
D14*
X100533600Y-53136800D03*
X100533600Y-50596800D03*
X100533600Y-48056800D03*
D13*
X63068200Y-17729200D03*
D14*
X60528200Y-17729200D03*
D17*
X110580600Y-22646000D03*
D12*
X110580600Y-27646000D03*
X110580600Y-25146000D03*
D18*
X118080600Y-30746000D03*
X118080600Y-19546000D03*
D12*
X125080600Y-27646000D03*
X125080600Y-22646000D03*
D13*
X96926400Y-25709800D03*
D14*
X96926400Y-23169800D03*
D12*
X125449400Y-44943200D03*
X118949400Y-44943200D03*
X118949400Y-49443200D03*
X125449400Y-49443200D03*
D13*
X80545750Y-24460200D03*
D14*
X80545750Y-27000200D03*
D13*
X52933600Y-43967400D03*
D14*
X52933600Y-41427400D03*
X52933600Y-38887400D03*
X52933600Y-36347400D03*
X52933600Y-33807400D03*
X52933600Y-31267400D03*
X52933600Y-28727400D03*
X52933600Y-26187400D03*
X52933600Y-23647400D03*
X52933600Y-21107400D03*
D19*
X76200000Y-36934200D03*
X76200000Y-37894200D03*
D20*
X76581000Y-42694800D03*
X76581000Y-41734800D03*
D21*
X78737400Y-39903400D03*
X77777400Y-39903400D03*
D19*
X73152000Y-37442200D03*
X73152000Y-38402200D03*
X74142600Y-36934200D03*
X74142600Y-37894200D03*
D22*
X72849800Y-40843200D03*
X73809800Y-40843200D03*
D19*
X78181200Y-36908800D03*
X78181200Y-37868800D03*
X75184000Y-36934200D03*
X75184000Y-37894200D03*
X77190600Y-36908800D03*
X77190600Y-37868800D03*
D21*
X78762800Y-40944800D03*
X77802800Y-40944800D03*
X78737400Y-38887400D03*
X77777400Y-38887400D03*
D20*
X75539600Y-42694800D03*
X75539600Y-41734800D03*
M02*
