%FSLAX45Y45*%
G04 Gerber Fmt 4.5, Leading zero omitted, Abs format (unit mm)*
G04 Created by KiCad (PCBNEW 6.0.6-3a73a75311~116~ubuntu20.04.1) date 2022-09-29 13:11:06*
%MOMM*%
%LPD*%
G01*
G04 APERTURE LIST*
%TA.AperFunction,Profile*%
%ADD10C,0.100000*%
%TD*%
%ADD11C,0.200000*%
%ADD12C,0.030000*%
%ADD13C,0.035000*%
%ADD14C,0.050000*%
%ADD15C,0.055000*%
%ADD16C,0.100000*%
%ADD17C,0.110000*%
%ADD18C,0.150000*%
G04 APERTURE END LIST*
D10*
X13008610Y-6588760D02*
X4888230Y-6588760D01*
X4888230Y-6588760D02*
X4888230Y-1518920D01*
X4888230Y-1518920D02*
X13008610Y-1518920D01*
X13008610Y-1518920D02*
X13008610Y-6588760D01*
D11*
D12*
X5037060Y-1651240D02*
X5067060Y-1681240D01*
X5067060Y-1651240D02*
X5037060Y-1681240D01*
X5202160Y-1651240D02*
X5232160Y-1681240D01*
X5232160Y-1651240D02*
X5202160Y-1681240D01*
X5577830Y-6207500D02*
X5607830Y-6237500D01*
X5607830Y-6207500D02*
X5577830Y-6237500D01*
X5595860Y-3622280D02*
X5625860Y-3652280D01*
X5625860Y-3622280D02*
X5595860Y-3652280D01*
X5598150Y-5981440D02*
X5628150Y-6011440D01*
X5628150Y-5981440D02*
X5598150Y-6011440D01*
X5608560Y-4097260D02*
X5638560Y-4127260D01*
X5638560Y-4097260D02*
X5608560Y-4127260D01*
X5689840Y-2804400D02*
X5719840Y-2834400D01*
X5719840Y-2804400D02*
X5689840Y-2834400D01*
X5809220Y-2563100D02*
X5839220Y-2593100D01*
X5839220Y-2563100D02*
X5809220Y-2593100D01*
X5809220Y-4333480D02*
X5839220Y-4363480D01*
X5839220Y-4333480D02*
X5809220Y-4363480D01*
X5809220Y-4648440D02*
X5839220Y-4678440D01*
X5839220Y-4648440D02*
X5809220Y-4678440D01*
X5811760Y-4445240D02*
X5841760Y-4475240D01*
X5841760Y-4445240D02*
X5811760Y-4475240D01*
X5811760Y-4546840D02*
X5841760Y-4576840D01*
X5841760Y-4546840D02*
X5811760Y-4576840D01*
X5976860Y-3967720D02*
X6006860Y-3997720D01*
X6006860Y-3967720D02*
X5976860Y-3997720D01*
X6050520Y-3629900D02*
X6080520Y-3659900D01*
X6080520Y-3629900D02*
X6050520Y-3659900D01*
X6237392Y-6416280D02*
X6267392Y-6446280D01*
X6267392Y-6416280D02*
X6237392Y-6446280D01*
X6294360Y-2017000D02*
X6324360Y-2047000D01*
X6324360Y-2017000D02*
X6294360Y-2047000D01*
X6294360Y-3238740D02*
X6324360Y-3268740D01*
X6324360Y-3238740D02*
X6294360Y-3268740D01*
X6540740Y-2954260D02*
X6570740Y-2984260D01*
X6570740Y-2954260D02*
X6540740Y-2984260D01*
X6578840Y-3619740D02*
X6608840Y-3649740D01*
X6608840Y-3619740D02*
X6578840Y-3649740D01*
X6616940Y-2154160D02*
X6646940Y-2184160D01*
X6646940Y-2154160D02*
X6616940Y-2184160D01*
X6616940Y-2319260D02*
X6646940Y-2349260D01*
X6646940Y-2319260D02*
X6616940Y-2349260D01*
X6624560Y-5806680D02*
X6654560Y-5836680D01*
X6654560Y-5806680D02*
X6624560Y-5836680D01*
X6624560Y-5971780D02*
X6654560Y-6001780D01*
X6654560Y-5971780D02*
X6624560Y-6001780D01*
X6807440Y-2154160D02*
X6837440Y-2184160D01*
X6837440Y-2154160D02*
X6807440Y-2184160D01*
X6807440Y-2319260D02*
X6837440Y-2349260D01*
X6837440Y-2319260D02*
X6807440Y-2349260D01*
X6815060Y-5806680D02*
X6845060Y-5836680D01*
X6845060Y-5806680D02*
X6815060Y-5836680D01*
X6815060Y-5971780D02*
X6845060Y-6001780D01*
X6845060Y-5971780D02*
X6815060Y-6001780D01*
X6865860Y-4257280D02*
X6895860Y-4287280D01*
X6895860Y-4257280D02*
X6865860Y-4287280D01*
X6912850Y-6416280D02*
X6942850Y-6446280D01*
X6942850Y-6416280D02*
X6912850Y-6446280D01*
X6972540Y-4333480D02*
X7002540Y-4363480D01*
X7002540Y-4333480D02*
X6972540Y-4363480D01*
X6986765Y-4121718D02*
X7016765Y-4151718D01*
X7016765Y-4121718D02*
X6986765Y-4151718D01*
X7028420Y-2626600D02*
X7058420Y-2656600D01*
X7058420Y-2626600D02*
X7028420Y-2656600D01*
X7079220Y-3614660D02*
X7109220Y-3644660D01*
X7109220Y-3614660D02*
X7079220Y-3644660D01*
X7211300Y-5009120D02*
X7241300Y-5039120D01*
X7241300Y-5009120D02*
X7211300Y-5039120D01*
X7353540Y-2850120D02*
X7383540Y-2880120D01*
X7383540Y-2850120D02*
X7353540Y-2880120D01*
X7439900Y-3101580D02*
X7469900Y-3131580D01*
X7469900Y-3101580D02*
X7439900Y-3131580D01*
X7480540Y-4666220D02*
X7510540Y-4696220D01*
X7510540Y-4666220D02*
X7480540Y-4696220D01*
X7503400Y-5344400D02*
X7533400Y-5374400D01*
X7533400Y-5344400D02*
X7503400Y-5374400D01*
X7511020Y-2065260D02*
X7541020Y-2095260D01*
X7541020Y-2065260D02*
X7511020Y-2095260D01*
X7513560Y-3309860D02*
X7543560Y-3339860D01*
X7543560Y-3309860D02*
X7513560Y-3339860D01*
X7521180Y-2911080D02*
X7551180Y-2941080D01*
X7551180Y-2911080D02*
X7521180Y-2941080D01*
X7588309Y-6413740D02*
X7618309Y-6443740D01*
X7618309Y-6413740D02*
X7588309Y-6443740D01*
X7632940Y-4846560D02*
X7662940Y-4876560D01*
X7662940Y-4846560D02*
X7632940Y-4876560D01*
X7691360Y-4643360D02*
X7721360Y-4673360D01*
X7721360Y-4643360D02*
X7691360Y-4673360D01*
X7823440Y-3416540D02*
X7853440Y-3446540D01*
X7853440Y-3416540D02*
X7823440Y-3446540D01*
X7894560Y-4750040D02*
X7924560Y-4780040D01*
X7924560Y-4750040D02*
X7894560Y-4780040D01*
X7912340Y-3228580D02*
X7942340Y-3258580D01*
X7942340Y-3228580D02*
X7912340Y-3258580D01*
X7993620Y-3513060D02*
X8023620Y-3543060D01*
X8023620Y-3513060D02*
X7993620Y-3543060D01*
X8090140Y-3695940D02*
X8120140Y-3725940D01*
X8120140Y-3695940D02*
X8090140Y-3725940D01*
X8161260Y-2103360D02*
X8191260Y-2133360D01*
X8191260Y-2103360D02*
X8161260Y-2133360D01*
X8184120Y-3421620D02*
X8214120Y-3451620D01*
X8214120Y-3421620D02*
X8184120Y-3451620D01*
X8237460Y-5054840D02*
X8267460Y-5084840D01*
X8267460Y-5054840D02*
X8237460Y-5084840D01*
X8237460Y-5219940D02*
X8267460Y-5249940D01*
X8267460Y-5219940D02*
X8237460Y-5249940D01*
X8263767Y-6426440D02*
X8293767Y-6456440D01*
X8293767Y-6426440D02*
X8263767Y-6456440D01*
X8280640Y-3629900D02*
X8310640Y-3659900D01*
X8310640Y-3629900D02*
X8280640Y-3659900D01*
X8379935Y-2784855D02*
X8409935Y-2814855D01*
X8409935Y-2784855D02*
X8379935Y-2814855D01*
X8400020Y-4010900D02*
X8430020Y-4040900D01*
X8430020Y-4010900D02*
X8400020Y-4040900D01*
X8575280Y-3289540D02*
X8605280Y-3319540D01*
X8605280Y-3289540D02*
X8575280Y-3319540D01*
X8575280Y-3454640D02*
X8605280Y-3484640D01*
X8605280Y-3454640D02*
X8575280Y-3484640D01*
X8575280Y-3604500D02*
X8605280Y-3634500D01*
X8605280Y-3604500D02*
X8575280Y-3634500D01*
X8598140Y-4015980D02*
X8628140Y-4045980D01*
X8628140Y-4015980D02*
X8598140Y-4045980D01*
X8613380Y-5075160D02*
X8643380Y-5105160D01*
X8643380Y-5075160D02*
X8613380Y-5105160D01*
X8613380Y-5240260D02*
X8643380Y-5270260D01*
X8643380Y-5240260D02*
X8613380Y-5270260D01*
X8765780Y-3289540D02*
X8795780Y-3319540D01*
X8795780Y-3289540D02*
X8765780Y-3319540D01*
X8765780Y-3454640D02*
X8795780Y-3484640D01*
X8795780Y-3454640D02*
X8765780Y-3484640D01*
X8765780Y-3604500D02*
X8795780Y-3634500D01*
X8795780Y-3604500D02*
X8765780Y-3634500D01*
X8803880Y-5075160D02*
X8833880Y-5105160D01*
X8833880Y-5075160D02*
X8803880Y-5105160D01*
X8803880Y-5240260D02*
X8833880Y-5270260D01*
X8833880Y-5240260D02*
X8803880Y-5270260D01*
X8939226Y-6423900D02*
X8969226Y-6453900D01*
X8969226Y-6423900D02*
X8939226Y-6453900D01*
X8941040Y-3289540D02*
X8971040Y-3319540D01*
X8971040Y-3289540D02*
X8941040Y-3319540D01*
X8941040Y-3454640D02*
X8971040Y-3484640D01*
X8971040Y-3454640D02*
X8941040Y-3484640D01*
X8941040Y-3604500D02*
X8971040Y-3634500D01*
X8971040Y-3604500D02*
X8941040Y-3634500D01*
X9131540Y-3289540D02*
X9161540Y-3319540D01*
X9161540Y-3289540D02*
X9131540Y-3319540D01*
X9131540Y-3454640D02*
X9161540Y-3484640D01*
X9161540Y-3454640D02*
X9131540Y-3484640D01*
X9131540Y-3604500D02*
X9161540Y-3634500D01*
X9161540Y-3604500D02*
X9131540Y-3634500D01*
X9301720Y-4336020D02*
X9331720Y-4366020D01*
X9331720Y-4336020D02*
X9301720Y-4366020D01*
X9301720Y-4501120D02*
X9331720Y-4531120D01*
X9331720Y-4501120D02*
X9301720Y-4531120D01*
X9339820Y-2100820D02*
X9369820Y-2130820D01*
X9369820Y-2100820D02*
X9339820Y-2130820D01*
X9492220Y-4336020D02*
X9522220Y-4366020D01*
X9522220Y-4336020D02*
X9492220Y-4366020D01*
X9492220Y-4501120D02*
X9522220Y-4531120D01*
X9522220Y-4501120D02*
X9492220Y-4531120D01*
X9614685Y-6423900D02*
X9644685Y-6453900D01*
X9644685Y-6423900D02*
X9614685Y-6453900D01*
X9789400Y-1905240D02*
X9819400Y-1935240D01*
X9819400Y-1905240D02*
X9789400Y-1935240D01*
X9974820Y-1930640D02*
X10004820Y-1960640D01*
X10004820Y-1930640D02*
X9974820Y-1960640D01*
X9987520Y-3513060D02*
X10017520Y-3543060D01*
X10017520Y-3513060D02*
X9987520Y-3543060D01*
X9987520Y-3678160D02*
X10017520Y-3708160D01*
X10017520Y-3678160D02*
X9987520Y-3708160D01*
X10178020Y-3513060D02*
X10208020Y-3543060D01*
X10208020Y-3513060D02*
X10178020Y-3543060D01*
X10178020Y-3678160D02*
X10208020Y-3708160D01*
X10208020Y-3678160D02*
X10178020Y-3708160D01*
X10290143Y-6421360D02*
X10320143Y-6451360D01*
X10320143Y-6421360D02*
X10290143Y-6451360D01*
X10325340Y-4092180D02*
X10355340Y-4122180D01*
X10355340Y-4092180D02*
X10325340Y-4122180D01*
X10325340Y-4257280D02*
X10355340Y-4287280D01*
X10355340Y-4257280D02*
X10325340Y-4287280D01*
X10358360Y-3513060D02*
X10388360Y-3543060D01*
X10388360Y-3513060D02*
X10358360Y-3543060D01*
X10358360Y-3678160D02*
X10388360Y-3708160D01*
X10388360Y-3678160D02*
X10358360Y-3708160D01*
X10365980Y-1651240D02*
X10395980Y-1681240D01*
X10395980Y-1651240D02*
X10365980Y-1681240D01*
X10490440Y-1943340D02*
X10520440Y-1973340D01*
X10520440Y-1943340D02*
X10490440Y-1973340D01*
X10495520Y-3043160D02*
X10525520Y-3073160D01*
X10525520Y-3043160D02*
X10495520Y-3073160D01*
X10515840Y-4092180D02*
X10545840Y-4122180D01*
X10545840Y-4092180D02*
X10515840Y-4122180D01*
X10515840Y-4257280D02*
X10545840Y-4287280D01*
X10545840Y-4257280D02*
X10515840Y-4287280D01*
X10531080Y-1651240D02*
X10561080Y-1681240D01*
X10561080Y-1651240D02*
X10531080Y-1681240D01*
X10548860Y-3513060D02*
X10578860Y-3543060D01*
X10578860Y-3513060D02*
X10548860Y-3543060D01*
X10548860Y-3678160D02*
X10578860Y-3708160D01*
X10578860Y-3678160D02*
X10548860Y-3708160D01*
X10696180Y-1943340D02*
X10726180Y-1973340D01*
X10726180Y-1943340D02*
X10696180Y-1973340D01*
X10696180Y-3040620D02*
X10726180Y-3070620D01*
X10726180Y-3040620D02*
X10696180Y-3070620D01*
X10767300Y-3513060D02*
X10797300Y-3543060D01*
X10797300Y-3513060D02*
X10767300Y-3543060D01*
X10767300Y-3678160D02*
X10797300Y-3708160D01*
X10797300Y-3678160D02*
X10767300Y-3708160D01*
X10957800Y-1699500D02*
X10987800Y-1729500D01*
X10987800Y-1699500D02*
X10957800Y-1729500D01*
X10957800Y-3513060D02*
X10987800Y-3543060D01*
X10987800Y-3513060D02*
X10957800Y-3543060D01*
X10957800Y-3678160D02*
X10987800Y-3708160D01*
X10987800Y-3678160D02*
X10957800Y-3708160D01*
X10965602Y-6418820D02*
X10995602Y-6448820D01*
X10995602Y-6418820D02*
X10965602Y-6448820D01*
X11138140Y-3513060D02*
X11168140Y-3543060D01*
X11168140Y-3513060D02*
X11138140Y-3543060D01*
X11138140Y-3678160D02*
X11168140Y-3708160D01*
X11168140Y-3678160D02*
X11138140Y-3708160D01*
X11305780Y-5915900D02*
X11335780Y-5945900D01*
X11335780Y-5915900D02*
X11305780Y-5945900D01*
X11328640Y-3513060D02*
X11358640Y-3543060D01*
X11358640Y-3513060D02*
X11328640Y-3543060D01*
X11328640Y-3678160D02*
X11358640Y-3708160D01*
X11358640Y-3678160D02*
X11328640Y-3708160D01*
X11338800Y-4379200D02*
X11368800Y-4409200D01*
X11368800Y-4379200D02*
X11338800Y-4409200D01*
X11369280Y-5131040D02*
X11399280Y-5161040D01*
X11399280Y-5131040D02*
X11369280Y-5161040D01*
X11580100Y-3774680D02*
X11610100Y-3804680D01*
X11610100Y-3774680D02*
X11580100Y-3804680D01*
X11597880Y-5448540D02*
X11627880Y-5478540D01*
X11627880Y-5448540D02*
X11597880Y-5478540D01*
X11610580Y-4506200D02*
X11640580Y-4536200D01*
X11640580Y-4506200D02*
X11610580Y-4536200D01*
X11641060Y-6416280D02*
X11671060Y-6446280D01*
X11671060Y-6416280D02*
X11641060Y-6446280D01*
X12316518Y-6416280D02*
X12346518Y-6446280D01*
X12346518Y-6416280D02*
X12316518Y-6446280D01*
X12512280Y-1699500D02*
X12542280Y-1729500D01*
X12542280Y-1699500D02*
X12512280Y-1729500D01*
X12781520Y-2245600D02*
X12811520Y-2275600D01*
X12811520Y-2245600D02*
X12781520Y-2275600D01*
X12784060Y-3269220D02*
X12814060Y-3299220D01*
X12814060Y-3269220D02*
X12784060Y-3299220D01*
X12791680Y-3035540D02*
X12821680Y-3065540D01*
X12821680Y-3035540D02*
X12791680Y-3065540D01*
X12796760Y-6411200D02*
X12826760Y-6441200D01*
X12826760Y-6411200D02*
X12796760Y-6441200D01*
X12801840Y-1676640D02*
X12831840Y-1706640D01*
X12831840Y-1676640D02*
X12801840Y-1706640D01*
X12806920Y-5014200D02*
X12836920Y-5044200D01*
X12836920Y-5014200D02*
X12806920Y-5044200D01*
X12814540Y-3662920D02*
X12844540Y-3692920D01*
X12844540Y-3662920D02*
X12814540Y-3692920D01*
X12819620Y-4338560D02*
X12849620Y-4368560D01*
X12849620Y-4338560D02*
X12819620Y-4368560D01*
X12824700Y-5678592D02*
X12854700Y-5708592D01*
X12854700Y-5678592D02*
X12824700Y-5708592D01*
D13*
X7461440Y-3857065D02*
G75*
G03*
X7461440Y-3857065I-17500J0D01*
G01*
X7461440Y-3984565D02*
G75*
G03*
X7461440Y-3984565I-17500J0D01*
G01*
X7461440Y-4112065D02*
G75*
G03*
X7461440Y-4112065I-17500J0D01*
G01*
X7588940Y-3857065D02*
G75*
G03*
X7588940Y-3857065I-17500J0D01*
G01*
X7588940Y-3984565D02*
G75*
G03*
X7588940Y-3984565I-17500J0D01*
G01*
X7588940Y-4112065D02*
G75*
G03*
X7588940Y-4112065I-17500J0D01*
G01*
X7716440Y-3857065D02*
G75*
G03*
X7716440Y-3857065I-17500J0D01*
G01*
X7716440Y-3984565D02*
G75*
G03*
X7716440Y-3984565I-17500J0D01*
G01*
X7716440Y-4112065D02*
G75*
G03*
X7716440Y-4112065I-17500J0D01*
G01*
D14*
X7308100Y-1638700D02*
X7308100Y-1688700D01*
X7283100Y-1663700D02*
X7333100Y-1663700D01*
D11*
X7333100Y-1696200D02*
X7333100Y-1631200D01*
X7283100Y-1696200D02*
X7283100Y-1631200D01*
X7333100Y-1631200D02*
G75*
G03*
X7283100Y-1631200I-25000J0D01*
G01*
X7283100Y-1696200D02*
G75*
G03*
X7333100Y-1696200I25000J0D01*
G01*
D14*
X8008100Y-1638700D02*
X8008100Y-1688700D01*
X7983100Y-1663700D02*
X8033100Y-1663700D01*
D11*
X8033100Y-1696200D02*
X8033100Y-1631200D01*
X7983100Y-1696200D02*
X7983100Y-1631200D01*
X8033100Y-1631200D02*
G75*
G03*
X7983100Y-1631200I-25000J0D01*
G01*
X7983100Y-1696200D02*
G75*
G03*
X8033100Y-1696200I25000J0D01*
G01*
D15*
X7427546Y-1953146D02*
X7427546Y-1914254D01*
X7388654Y-1914254D01*
X7388654Y-1953146D01*
X7427546Y-1953146D01*
D11*
X7423100Y-1906200D02*
X7393100Y-1906200D01*
X7423100Y-1961200D02*
X7393100Y-1961200D01*
X7393100Y-1906200D02*
G75*
G03*
X7393100Y-1961200I0J-27500D01*
G01*
X7423100Y-1961200D02*
G75*
G03*
X7423100Y-1906200I0J27500D01*
G01*
D15*
X7927546Y-1953146D02*
X7927546Y-1914254D01*
X7888654Y-1914254D01*
X7888654Y-1953146D01*
X7927546Y-1953146D01*
D11*
X7923100Y-1906200D02*
X7893100Y-1906200D01*
X7923100Y-1961200D02*
X7893100Y-1961200D01*
X7893100Y-1906200D02*
G75*
G03*
X7893100Y-1961200I0J-27500D01*
G01*
X7923100Y-1961200D02*
G75*
G03*
X7923100Y-1906200I0J27500D01*
G01*
D16*
X5293360Y-2160740D02*
X5343360Y-2110740D01*
X5293360Y-2060740D01*
X5243360Y-2110740D01*
X5293360Y-2160740D01*
X5293360Y-2414740D02*
X5343360Y-2364740D01*
X5293360Y-2314740D01*
X5243360Y-2364740D01*
X5293360Y-2414740D01*
X5293360Y-2668740D02*
X5343360Y-2618740D01*
X5293360Y-2568740D01*
X5243360Y-2618740D01*
X5293360Y-2668740D01*
X5293360Y-2922740D02*
X5343360Y-2872740D01*
X5293360Y-2822740D01*
X5243360Y-2872740D01*
X5293360Y-2922740D01*
X5293360Y-3176740D02*
X5343360Y-3126740D01*
X5293360Y-3076740D01*
X5243360Y-3126740D01*
X5293360Y-3176740D01*
X5293360Y-3430740D02*
X5343360Y-3380740D01*
X5293360Y-3330740D01*
X5243360Y-3380740D01*
X5293360Y-3430740D01*
X5293360Y-3684740D02*
X5343360Y-3634740D01*
X5293360Y-3584740D01*
X5243360Y-3634740D01*
X5293360Y-3684740D01*
X5293360Y-3938740D02*
X5343360Y-3888740D01*
X5293360Y-3838740D01*
X5243360Y-3888740D01*
X5293360Y-3938740D01*
X5293360Y-4192740D02*
X5343360Y-4142740D01*
X5293360Y-4092740D01*
X5243360Y-4142740D01*
X5293360Y-4192740D01*
X5293360Y-4446740D02*
X5343360Y-4396740D01*
X5293360Y-4346740D01*
X5243360Y-4396740D01*
X5293360Y-4446740D01*
X5321920Y-4995380D02*
X5371920Y-4945380D01*
X5321920Y-4895380D01*
X5271920Y-4945380D01*
X5321920Y-4995380D01*
X5321920Y-5249380D02*
X5371920Y-5199380D01*
X5321920Y-5149380D01*
X5271920Y-5199380D01*
X5321920Y-5249380D01*
X5321920Y-5503380D02*
X5371920Y-5453380D01*
X5321920Y-5403380D01*
X5271920Y-5453380D01*
X5321920Y-5503380D01*
X5321920Y-5757380D02*
X5371920Y-5707380D01*
X5321920Y-5657380D01*
X5271920Y-5707380D01*
X5321920Y-5757380D01*
X5321920Y-6011380D02*
X5371920Y-5961380D01*
X5321920Y-5911380D01*
X5271920Y-5961380D01*
X5321920Y-6011380D01*
X5321920Y-6265380D02*
X5371920Y-6215380D01*
X5321920Y-6165380D01*
X5271920Y-6215380D01*
X5321920Y-6265380D01*
X6052820Y-1822920D02*
X6102820Y-1772920D01*
X6052820Y-1722920D01*
X6002820Y-1772920D01*
X6052820Y-1822920D01*
X6306820Y-1822920D02*
X6356820Y-1772920D01*
X6306820Y-1722920D01*
X6256820Y-1772920D01*
X6306820Y-1822920D01*
X7809460Y-5947880D02*
X7859460Y-5897880D01*
X7809460Y-5847880D01*
X7759460Y-5897880D01*
X7809460Y-5947880D01*
X8054575Y-2496020D02*
X8104575Y-2446020D01*
X8054575Y-2396020D01*
X8004575Y-2446020D01*
X8054575Y-2496020D01*
X8054575Y-2750020D02*
X8104575Y-2700020D01*
X8054575Y-2650020D01*
X8004575Y-2700020D01*
X8054575Y-2750020D01*
X8063460Y-5947880D02*
X8113460Y-5897880D01*
X8063460Y-5847880D01*
X8013460Y-5897880D01*
X8063460Y-5947880D01*
X8317460Y-5947880D02*
X8367460Y-5897880D01*
X8317460Y-5847880D01*
X8267460Y-5897880D01*
X8317460Y-5947880D01*
X8797520Y-5947880D02*
X8847520Y-5897880D01*
X8797520Y-5847880D01*
X8747520Y-5897880D01*
X8797520Y-5947880D01*
X9051520Y-5947880D02*
X9101520Y-5897880D01*
X9051520Y-5847880D01*
X9001520Y-5897880D01*
X9051520Y-5947880D01*
X9305520Y-5947880D02*
X9355520Y-5897880D01*
X9305520Y-5847880D01*
X9255520Y-5897880D01*
X9305520Y-5947880D01*
X9692640Y-2366980D02*
X9742640Y-2316980D01*
X9692640Y-2266980D01*
X9642640Y-2316980D01*
X9692640Y-2366980D01*
X9692640Y-2620980D02*
X9742640Y-2570980D01*
X9692640Y-2520980D01*
X9642640Y-2570980D01*
X9692640Y-2620980D01*
X10053360Y-4855680D02*
X10103360Y-4805680D01*
X10053360Y-4755680D01*
X10003360Y-4805680D01*
X10053360Y-4855680D01*
X10053360Y-5109680D02*
X10103360Y-5059680D01*
X10053360Y-5009680D01*
X10003360Y-5059680D01*
X10053360Y-5109680D01*
X10053360Y-5363680D02*
X10103360Y-5313680D01*
X10053360Y-5263680D01*
X10003360Y-5313680D01*
X10053360Y-5363680D01*
X10053360Y-5617680D02*
X10103360Y-5567680D01*
X10053360Y-5517680D01*
X10003360Y-5567680D01*
X10053360Y-5617680D01*
X10734040Y-4855680D02*
X10784040Y-4805680D01*
X10734040Y-4755680D01*
X10684040Y-4805680D01*
X10734040Y-4855680D01*
X10734040Y-5109680D02*
X10784040Y-5059680D01*
X10734040Y-5009680D01*
X10684040Y-5059680D01*
X10734040Y-5109680D01*
X10734040Y-5363680D02*
X10784040Y-5313680D01*
X10734040Y-5263680D01*
X10684040Y-5313680D01*
X10734040Y-5363680D01*
X10734040Y-5617680D02*
X10784040Y-5567680D01*
X10734040Y-5517680D01*
X10684040Y-5567680D01*
X10734040Y-5617680D01*
X11058060Y-2314600D02*
X11108060Y-2264600D01*
X11058060Y-2214600D01*
X11008060Y-2264600D01*
X11058060Y-2314600D01*
X11058060Y-2564600D02*
X11108060Y-2514600D01*
X11058060Y-2464600D01*
X11008060Y-2514600D01*
X11058060Y-2564600D01*
X11058060Y-2814600D02*
X11108060Y-2764600D01*
X11058060Y-2714600D01*
X11008060Y-2764600D01*
X11058060Y-2814600D01*
X12508060Y-2314600D02*
X12558060Y-2264600D01*
X12508060Y-2214600D01*
X12458060Y-2264600D01*
X12508060Y-2314600D01*
X12508060Y-2814600D02*
X12558060Y-2764600D01*
X12508060Y-2714600D01*
X12458060Y-2764600D01*
X12508060Y-2814600D01*
D17*
X11837400Y-5348640D02*
X11947400Y-5458640D01*
X11947400Y-5348640D02*
X11837400Y-5458640D01*
X11947400Y-5403640D02*
G75*
G03*
X11947400Y-5403640I-55000J0D01*
G01*
X11837400Y-5798640D02*
X11947400Y-5908640D01*
X11947400Y-5798640D02*
X11837400Y-5908640D01*
X11947400Y-5853640D02*
G75*
G03*
X11947400Y-5853640I-55000J0D01*
G01*
X11839940Y-4439320D02*
X11949940Y-4549320D01*
X11949940Y-4439320D02*
X11839940Y-4549320D01*
X11949940Y-4494320D02*
G75*
G03*
X11949940Y-4494320I-55000J0D01*
G01*
X11839940Y-4889320D02*
X11949940Y-4999320D01*
X11949940Y-4889320D02*
X11839940Y-4999320D01*
X11949940Y-4944320D02*
G75*
G03*
X11949940Y-4944320I-55000J0D01*
G01*
X11845020Y-3682400D02*
X11955020Y-3792400D01*
X11955020Y-3682400D02*
X11845020Y-3792400D01*
X11955020Y-3737400D02*
G75*
G03*
X11955020Y-3737400I-55000J0D01*
G01*
X11845020Y-4132400D02*
X11955020Y-4242400D01*
X11955020Y-4132400D02*
X11845020Y-4242400D01*
X11955020Y-4187400D02*
G75*
G03*
X11955020Y-4187400I-55000J0D01*
G01*
X12487400Y-5348640D02*
X12597400Y-5458640D01*
X12597400Y-5348640D02*
X12487400Y-5458640D01*
X12597400Y-5403640D02*
G75*
G03*
X12597400Y-5403640I-55000J0D01*
G01*
X12487400Y-5798640D02*
X12597400Y-5908640D01*
X12597400Y-5798640D02*
X12487400Y-5908640D01*
X12597400Y-5853640D02*
G75*
G03*
X12597400Y-5853640I-55000J0D01*
G01*
X12489940Y-4439320D02*
X12599940Y-4549320D01*
X12599940Y-4439320D02*
X12489940Y-4549320D01*
X12599940Y-4494320D02*
G75*
G03*
X12599940Y-4494320I-55000J0D01*
G01*
X12489940Y-4889320D02*
X12599940Y-4999320D01*
X12599940Y-4889320D02*
X12489940Y-4999320D01*
X12599940Y-4944320D02*
G75*
G03*
X12599940Y-4944320I-55000J0D01*
G01*
X12495020Y-3682400D02*
X12605020Y-3792400D01*
X12605020Y-3682400D02*
X12495020Y-3792400D01*
X12605020Y-3737400D02*
G75*
G03*
X12605020Y-3737400I-55000J0D01*
G01*
X12495020Y-4132400D02*
X12605020Y-4242400D01*
X12605020Y-4132400D02*
X12495020Y-4242400D01*
X12605020Y-4187400D02*
G75*
G03*
X12605020Y-4187400I-55000J0D01*
G01*
D18*
X11733060Y-1879600D02*
X11883060Y-2029600D01*
X11883060Y-1879600D02*
X11733060Y-2029600D01*
X11808060Y-1879600D02*
X11808060Y-2029600D01*
X11733060Y-1954600D02*
X11883060Y-1954600D01*
D11*
X11743060Y-2029600D02*
X11873060Y-2029600D01*
X11743060Y-1879600D02*
X11873060Y-1879600D01*
X11873060Y-2029600D02*
G75*
G03*
X11873060Y-1879600I0J75000D01*
G01*
X11743060Y-1879600D02*
G75*
G03*
X11743060Y-2029600I0J-75000D01*
G01*
D18*
X11733060Y-2999600D02*
X11883060Y-3149600D01*
X11883060Y-2999600D02*
X11733060Y-3149600D01*
X11808060Y-2999600D02*
X11808060Y-3149600D01*
X11733060Y-3074600D02*
X11883060Y-3074600D01*
D11*
X11743060Y-3149600D02*
X11873060Y-3149600D01*
X11743060Y-2999600D02*
X11873060Y-2999600D01*
X11873060Y-3149600D02*
G75*
G03*
X11873060Y-2999600I0J75000D01*
G01*
X11743060Y-2999600D02*
G75*
G03*
X11743060Y-3149600I0J-75000D01*
G01*
X5140849Y-6904236D02*
X5140849Y-6704236D01*
X5188468Y-6704236D01*
X5217040Y-6713760D01*
X5236087Y-6732808D01*
X5245611Y-6751855D01*
X5255135Y-6789950D01*
X5255135Y-6818522D01*
X5245611Y-6856617D01*
X5236087Y-6875665D01*
X5217040Y-6894712D01*
X5188468Y-6904236D01*
X5140849Y-6904236D01*
X5340849Y-6904236D02*
X5340849Y-6770903D01*
X5340849Y-6808998D02*
X5350373Y-6789950D01*
X5359897Y-6780427D01*
X5378944Y-6770903D01*
X5397992Y-6770903D01*
X5464659Y-6904236D02*
X5464659Y-6770903D01*
X5464659Y-6704236D02*
X5455135Y-6713760D01*
X5464659Y-6723284D01*
X5474182Y-6713760D01*
X5464659Y-6704236D01*
X5464659Y-6723284D01*
X5588468Y-6904236D02*
X5569420Y-6894712D01*
X5559897Y-6875665D01*
X5559897Y-6704236D01*
X5693230Y-6904236D02*
X5674182Y-6894712D01*
X5664658Y-6875665D01*
X5664658Y-6704236D01*
X5921801Y-6904236D02*
X5921801Y-6704236D01*
X5988468Y-6847093D01*
X6055135Y-6704236D01*
X6055135Y-6904236D01*
X6236087Y-6904236D02*
X6236087Y-6799474D01*
X6226563Y-6780427D01*
X6207516Y-6770903D01*
X6169420Y-6770903D01*
X6150373Y-6780427D01*
X6236087Y-6894712D02*
X6217039Y-6904236D01*
X6169420Y-6904236D01*
X6150373Y-6894712D01*
X6140849Y-6875665D01*
X6140849Y-6856617D01*
X6150373Y-6837569D01*
X6169420Y-6828046D01*
X6217039Y-6828046D01*
X6236087Y-6818522D01*
X6331325Y-6770903D02*
X6331325Y-6970903D01*
X6331325Y-6780427D02*
X6350373Y-6770903D01*
X6388468Y-6770903D01*
X6407516Y-6780427D01*
X6417039Y-6789950D01*
X6426563Y-6808998D01*
X6426563Y-6866141D01*
X6417039Y-6885188D01*
X6407516Y-6894712D01*
X6388468Y-6904236D01*
X6350373Y-6904236D01*
X6331325Y-6894712D01*
X6512278Y-6885188D02*
X6521801Y-6894712D01*
X6512278Y-6904236D01*
X6502754Y-6894712D01*
X6512278Y-6885188D01*
X6512278Y-6904236D01*
X6512278Y-6780427D02*
X6521801Y-6789950D01*
X6512278Y-6799474D01*
X6502754Y-6789950D01*
X6512278Y-6780427D01*
X6512278Y-6799474D01*
D12*
X4853230Y-7218760D02*
X4883230Y-7248760D01*
X4883230Y-7218760D02*
X4853230Y-7248760D01*
D11*
X5178944Y-7124236D02*
X5197992Y-7124236D01*
X5217040Y-7133760D01*
X5226563Y-7143284D01*
X5236087Y-7162331D01*
X5245611Y-7200427D01*
X5245611Y-7248046D01*
X5236087Y-7286141D01*
X5226563Y-7305188D01*
X5217040Y-7314712D01*
X5197992Y-7324236D01*
X5178944Y-7324236D01*
X5159897Y-7314712D01*
X5150373Y-7305188D01*
X5140849Y-7286141D01*
X5131325Y-7248046D01*
X5131325Y-7200427D01*
X5140849Y-7162331D01*
X5150373Y-7143284D01*
X5159897Y-7133760D01*
X5178944Y-7124236D01*
X5331325Y-7305188D02*
X5340849Y-7314712D01*
X5331325Y-7324236D01*
X5321801Y-7314712D01*
X5331325Y-7305188D01*
X5331325Y-7324236D01*
X5407516Y-7124236D02*
X5531325Y-7124236D01*
X5464659Y-7200427D01*
X5493230Y-7200427D01*
X5512278Y-7209950D01*
X5521801Y-7219474D01*
X5531325Y-7238522D01*
X5531325Y-7286141D01*
X5521801Y-7305188D01*
X5512278Y-7314712D01*
X5493230Y-7324236D01*
X5436087Y-7324236D01*
X5417040Y-7314712D01*
X5407516Y-7305188D01*
X5655135Y-7124236D02*
X5674182Y-7124236D01*
X5693230Y-7133760D01*
X5702754Y-7143284D01*
X5712278Y-7162331D01*
X5721801Y-7200427D01*
X5721801Y-7248046D01*
X5712278Y-7286141D01*
X5702754Y-7305188D01*
X5693230Y-7314712D01*
X5674182Y-7324236D01*
X5655135Y-7324236D01*
X5636087Y-7314712D01*
X5626563Y-7305188D01*
X5617039Y-7286141D01*
X5607516Y-7248046D01*
X5607516Y-7200427D01*
X5617039Y-7162331D01*
X5626563Y-7143284D01*
X5636087Y-7133760D01*
X5655135Y-7124236D01*
X5845611Y-7124236D02*
X5864658Y-7124236D01*
X5883706Y-7133760D01*
X5893230Y-7143284D01*
X5902754Y-7162331D01*
X5912278Y-7200427D01*
X5912278Y-7248046D01*
X5902754Y-7286141D01*
X5893230Y-7305188D01*
X5883706Y-7314712D01*
X5864658Y-7324236D01*
X5845611Y-7324236D01*
X5826563Y-7314712D01*
X5817039Y-7305188D01*
X5807516Y-7286141D01*
X5797992Y-7248046D01*
X5797992Y-7200427D01*
X5807516Y-7162331D01*
X5817039Y-7143284D01*
X5826563Y-7133760D01*
X5845611Y-7124236D01*
X5997992Y-7324236D02*
X5997992Y-7190903D01*
X5997992Y-7209950D02*
X6007516Y-7200427D01*
X6026563Y-7190903D01*
X6055135Y-7190903D01*
X6074182Y-7200427D01*
X6083706Y-7219474D01*
X6083706Y-7324236D01*
X6083706Y-7219474D02*
X6093230Y-7200427D01*
X6112278Y-7190903D01*
X6140849Y-7190903D01*
X6159897Y-7200427D01*
X6169420Y-7219474D01*
X6169420Y-7324236D01*
X6264658Y-7324236D02*
X6264658Y-7190903D01*
X6264658Y-7209950D02*
X6274182Y-7200427D01*
X6293230Y-7190903D01*
X6321801Y-7190903D01*
X6340849Y-7200427D01*
X6350373Y-7219474D01*
X6350373Y-7324236D01*
X6350373Y-7219474D02*
X6359897Y-7200427D01*
X6378944Y-7190903D01*
X6407516Y-7190903D01*
X6426563Y-7200427D01*
X6436087Y-7219474D01*
X6436087Y-7324236D01*
X6826563Y-7114712D02*
X6655135Y-7371855D01*
X7083706Y-7124236D02*
X7102754Y-7124236D01*
X7121801Y-7133760D01*
X7131325Y-7143284D01*
X7140849Y-7162331D01*
X7150373Y-7200427D01*
X7150373Y-7248046D01*
X7140849Y-7286141D01*
X7131325Y-7305188D01*
X7121801Y-7314712D01*
X7102754Y-7324236D01*
X7083706Y-7324236D01*
X7064658Y-7314712D01*
X7055135Y-7305188D01*
X7045611Y-7286141D01*
X7036087Y-7248046D01*
X7036087Y-7200427D01*
X7045611Y-7162331D01*
X7055135Y-7143284D01*
X7064658Y-7133760D01*
X7083706Y-7124236D01*
X7236087Y-7305188D02*
X7245611Y-7314712D01*
X7236087Y-7324236D01*
X7226563Y-7314712D01*
X7236087Y-7305188D01*
X7236087Y-7324236D01*
X7369420Y-7124236D02*
X7388468Y-7124236D01*
X7407516Y-7133760D01*
X7417039Y-7143284D01*
X7426563Y-7162331D01*
X7436087Y-7200427D01*
X7436087Y-7248046D01*
X7426563Y-7286141D01*
X7417039Y-7305188D01*
X7407516Y-7314712D01*
X7388468Y-7324236D01*
X7369420Y-7324236D01*
X7350373Y-7314712D01*
X7340849Y-7305188D01*
X7331325Y-7286141D01*
X7321801Y-7248046D01*
X7321801Y-7200427D01*
X7331325Y-7162331D01*
X7340849Y-7143284D01*
X7350373Y-7133760D01*
X7369420Y-7124236D01*
X7626563Y-7324236D02*
X7512278Y-7324236D01*
X7569420Y-7324236D02*
X7569420Y-7124236D01*
X7550373Y-7152808D01*
X7531325Y-7171855D01*
X7512278Y-7181379D01*
X7817039Y-7324236D02*
X7702754Y-7324236D01*
X7759897Y-7324236D02*
X7759897Y-7124236D01*
X7740849Y-7152808D01*
X7721801Y-7171855D01*
X7702754Y-7181379D01*
X7931325Y-7209950D02*
X7912278Y-7200427D01*
X7902754Y-7190903D01*
X7893230Y-7171855D01*
X7893230Y-7162331D01*
X7902754Y-7143284D01*
X7912278Y-7133760D01*
X7931325Y-7124236D01*
X7969420Y-7124236D01*
X7988468Y-7133760D01*
X7997992Y-7143284D01*
X8007516Y-7162331D01*
X8007516Y-7171855D01*
X7997992Y-7190903D01*
X7988468Y-7200427D01*
X7969420Y-7209950D01*
X7931325Y-7209950D01*
X7912278Y-7219474D01*
X7902754Y-7228998D01*
X7893230Y-7248046D01*
X7893230Y-7286141D01*
X7902754Y-7305188D01*
X7912278Y-7314712D01*
X7931325Y-7324236D01*
X7969420Y-7324236D01*
X7988468Y-7314712D01*
X7997992Y-7305188D01*
X8007516Y-7286141D01*
X8007516Y-7248046D01*
X7997992Y-7228998D01*
X7988468Y-7219474D01*
X7969420Y-7209950D01*
X8083706Y-7124236D02*
X8083706Y-7162331D01*
X8159897Y-7124236D02*
X8159897Y-7162331D01*
X8455135Y-7400427D02*
X8445611Y-7390903D01*
X8426563Y-7362331D01*
X8417040Y-7343284D01*
X8407516Y-7314712D01*
X8397992Y-7267093D01*
X8397992Y-7228998D01*
X8407516Y-7181379D01*
X8417040Y-7152808D01*
X8426563Y-7133760D01*
X8445611Y-7105188D01*
X8455135Y-7095665D01*
X8636087Y-7324236D02*
X8521801Y-7324236D01*
X8578944Y-7324236D02*
X8578944Y-7124236D01*
X8559897Y-7152808D01*
X8540849Y-7171855D01*
X8521801Y-7181379D01*
X8702754Y-7124236D02*
X8826563Y-7124236D01*
X8759897Y-7200427D01*
X8788468Y-7200427D01*
X8807516Y-7209950D01*
X8817040Y-7219474D01*
X8826563Y-7238522D01*
X8826563Y-7286141D01*
X8817040Y-7305188D01*
X8807516Y-7314712D01*
X8788468Y-7324236D01*
X8731325Y-7324236D01*
X8712278Y-7314712D01*
X8702754Y-7305188D01*
X8950373Y-7124236D02*
X8969420Y-7124236D01*
X8988468Y-7133760D01*
X8997992Y-7143284D01*
X9007516Y-7162331D01*
X9017040Y-7200427D01*
X9017040Y-7248046D01*
X9007516Y-7286141D01*
X8997992Y-7305188D01*
X8988468Y-7314712D01*
X8969420Y-7324236D01*
X8950373Y-7324236D01*
X8931325Y-7314712D01*
X8921801Y-7305188D01*
X8912278Y-7286141D01*
X8902754Y-7248046D01*
X8902754Y-7200427D01*
X8912278Y-7162331D01*
X8921801Y-7143284D01*
X8931325Y-7133760D01*
X8950373Y-7124236D01*
X9255135Y-7324236D02*
X9255135Y-7124236D01*
X9340849Y-7324236D02*
X9340849Y-7219474D01*
X9331325Y-7200427D01*
X9312278Y-7190903D01*
X9283706Y-7190903D01*
X9264659Y-7200427D01*
X9255135Y-7209950D01*
X9464659Y-7324236D02*
X9445611Y-7314712D01*
X9436087Y-7305188D01*
X9426563Y-7286141D01*
X9426563Y-7228998D01*
X9436087Y-7209950D01*
X9445611Y-7200427D01*
X9464659Y-7190903D01*
X9493230Y-7190903D01*
X9512278Y-7200427D01*
X9521801Y-7209950D01*
X9531325Y-7228998D01*
X9531325Y-7286141D01*
X9521801Y-7305188D01*
X9512278Y-7314712D01*
X9493230Y-7324236D01*
X9464659Y-7324236D01*
X9645611Y-7324236D02*
X9626563Y-7314712D01*
X9617040Y-7295665D01*
X9617040Y-7124236D01*
X9797992Y-7314712D02*
X9778944Y-7324236D01*
X9740849Y-7324236D01*
X9721801Y-7314712D01*
X9712278Y-7295665D01*
X9712278Y-7219474D01*
X9721801Y-7200427D01*
X9740849Y-7190903D01*
X9778944Y-7190903D01*
X9797992Y-7200427D01*
X9807516Y-7219474D01*
X9807516Y-7238522D01*
X9712278Y-7257569D01*
X9883706Y-7314712D02*
X9902754Y-7324236D01*
X9940849Y-7324236D01*
X9959897Y-7314712D01*
X9969420Y-7295665D01*
X9969420Y-7286141D01*
X9959897Y-7267093D01*
X9940849Y-7257569D01*
X9912278Y-7257569D01*
X9893230Y-7248046D01*
X9883706Y-7228998D01*
X9883706Y-7219474D01*
X9893230Y-7200427D01*
X9912278Y-7190903D01*
X9940849Y-7190903D01*
X9959897Y-7200427D01*
X10036087Y-7400427D02*
X10045611Y-7390903D01*
X10064659Y-7362331D01*
X10074182Y-7343284D01*
X10083706Y-7314712D01*
X10093230Y-7267093D01*
X10093230Y-7228998D01*
X10083706Y-7181379D01*
X10074182Y-7152808D01*
X10064659Y-7133760D01*
X10045611Y-7105188D01*
X10036087Y-7095665D01*
D13*
X4883230Y-7497760D02*
G75*
G03*
X4883230Y-7497760I-17500J0D01*
G01*
D11*
X5178944Y-7388236D02*
X5197992Y-7388236D01*
X5217040Y-7397760D01*
X5226563Y-7407284D01*
X5236087Y-7426331D01*
X5245611Y-7464427D01*
X5245611Y-7512046D01*
X5236087Y-7550141D01*
X5226563Y-7569188D01*
X5217040Y-7578712D01*
X5197992Y-7588236D01*
X5178944Y-7588236D01*
X5159897Y-7578712D01*
X5150373Y-7569188D01*
X5140849Y-7550141D01*
X5131325Y-7512046D01*
X5131325Y-7464427D01*
X5140849Y-7426331D01*
X5150373Y-7407284D01*
X5159897Y-7397760D01*
X5178944Y-7388236D01*
X5331325Y-7569188D02*
X5340849Y-7578712D01*
X5331325Y-7588236D01*
X5321801Y-7578712D01*
X5331325Y-7569188D01*
X5331325Y-7588236D01*
X5407516Y-7388236D02*
X5531325Y-7388236D01*
X5464659Y-7464427D01*
X5493230Y-7464427D01*
X5512278Y-7473950D01*
X5521801Y-7483474D01*
X5531325Y-7502522D01*
X5531325Y-7550141D01*
X5521801Y-7569188D01*
X5512278Y-7578712D01*
X5493230Y-7588236D01*
X5436087Y-7588236D01*
X5417040Y-7578712D01*
X5407516Y-7569188D01*
X5712278Y-7388236D02*
X5617039Y-7388236D01*
X5607516Y-7483474D01*
X5617039Y-7473950D01*
X5636087Y-7464427D01*
X5683706Y-7464427D01*
X5702754Y-7473950D01*
X5712278Y-7483474D01*
X5721801Y-7502522D01*
X5721801Y-7550141D01*
X5712278Y-7569188D01*
X5702754Y-7578712D01*
X5683706Y-7588236D01*
X5636087Y-7588236D01*
X5617039Y-7578712D01*
X5607516Y-7569188D01*
X5845611Y-7388236D02*
X5864658Y-7388236D01*
X5883706Y-7397760D01*
X5893230Y-7407284D01*
X5902754Y-7426331D01*
X5912278Y-7464427D01*
X5912278Y-7512046D01*
X5902754Y-7550141D01*
X5893230Y-7569188D01*
X5883706Y-7578712D01*
X5864658Y-7588236D01*
X5845611Y-7588236D01*
X5826563Y-7578712D01*
X5817039Y-7569188D01*
X5807516Y-7550141D01*
X5797992Y-7512046D01*
X5797992Y-7464427D01*
X5807516Y-7426331D01*
X5817039Y-7407284D01*
X5826563Y-7397760D01*
X5845611Y-7388236D01*
X5997992Y-7588236D02*
X5997992Y-7454903D01*
X5997992Y-7473950D02*
X6007516Y-7464427D01*
X6026563Y-7454903D01*
X6055135Y-7454903D01*
X6074182Y-7464427D01*
X6083706Y-7483474D01*
X6083706Y-7588236D01*
X6083706Y-7483474D02*
X6093230Y-7464427D01*
X6112278Y-7454903D01*
X6140849Y-7454903D01*
X6159897Y-7464427D01*
X6169420Y-7483474D01*
X6169420Y-7588236D01*
X6264658Y-7588236D02*
X6264658Y-7454903D01*
X6264658Y-7473950D02*
X6274182Y-7464427D01*
X6293230Y-7454903D01*
X6321801Y-7454903D01*
X6340849Y-7464427D01*
X6350373Y-7483474D01*
X6350373Y-7588236D01*
X6350373Y-7483474D02*
X6359897Y-7464427D01*
X6378944Y-7454903D01*
X6407516Y-7454903D01*
X6426563Y-7464427D01*
X6436087Y-7483474D01*
X6436087Y-7588236D01*
X6826563Y-7378712D02*
X6655135Y-7635855D01*
X7083706Y-7388236D02*
X7102754Y-7388236D01*
X7121801Y-7397760D01*
X7131325Y-7407284D01*
X7140849Y-7426331D01*
X7150373Y-7464427D01*
X7150373Y-7512046D01*
X7140849Y-7550141D01*
X7131325Y-7569188D01*
X7121801Y-7578712D01*
X7102754Y-7588236D01*
X7083706Y-7588236D01*
X7064658Y-7578712D01*
X7055135Y-7569188D01*
X7045611Y-7550141D01*
X7036087Y-7512046D01*
X7036087Y-7464427D01*
X7045611Y-7426331D01*
X7055135Y-7407284D01*
X7064658Y-7397760D01*
X7083706Y-7388236D01*
X7236087Y-7569188D02*
X7245611Y-7578712D01*
X7236087Y-7588236D01*
X7226563Y-7578712D01*
X7236087Y-7569188D01*
X7236087Y-7588236D01*
X7369420Y-7388236D02*
X7388468Y-7388236D01*
X7407516Y-7397760D01*
X7417039Y-7407284D01*
X7426563Y-7426331D01*
X7436087Y-7464427D01*
X7436087Y-7512046D01*
X7426563Y-7550141D01*
X7417039Y-7569188D01*
X7407516Y-7578712D01*
X7388468Y-7588236D01*
X7369420Y-7588236D01*
X7350373Y-7578712D01*
X7340849Y-7569188D01*
X7331325Y-7550141D01*
X7321801Y-7512046D01*
X7321801Y-7464427D01*
X7331325Y-7426331D01*
X7340849Y-7407284D01*
X7350373Y-7397760D01*
X7369420Y-7388236D01*
X7626563Y-7588236D02*
X7512278Y-7588236D01*
X7569420Y-7588236D02*
X7569420Y-7388236D01*
X7550373Y-7416808D01*
X7531325Y-7435855D01*
X7512278Y-7445379D01*
X7693230Y-7388236D02*
X7817039Y-7388236D01*
X7750373Y-7464427D01*
X7778944Y-7464427D01*
X7797992Y-7473950D01*
X7807516Y-7483474D01*
X7817039Y-7502522D01*
X7817039Y-7550141D01*
X7807516Y-7569188D01*
X7797992Y-7578712D01*
X7778944Y-7588236D01*
X7721801Y-7588236D01*
X7702754Y-7578712D01*
X7693230Y-7569188D01*
X7931325Y-7473950D02*
X7912278Y-7464427D01*
X7902754Y-7454903D01*
X7893230Y-7435855D01*
X7893230Y-7426331D01*
X7902754Y-7407284D01*
X7912278Y-7397760D01*
X7931325Y-7388236D01*
X7969420Y-7388236D01*
X7988468Y-7397760D01*
X7997992Y-7407284D01*
X8007516Y-7426331D01*
X8007516Y-7435855D01*
X7997992Y-7454903D01*
X7988468Y-7464427D01*
X7969420Y-7473950D01*
X7931325Y-7473950D01*
X7912278Y-7483474D01*
X7902754Y-7492998D01*
X7893230Y-7512046D01*
X7893230Y-7550141D01*
X7902754Y-7569188D01*
X7912278Y-7578712D01*
X7931325Y-7588236D01*
X7969420Y-7588236D01*
X7988468Y-7578712D01*
X7997992Y-7569188D01*
X8007516Y-7550141D01*
X8007516Y-7512046D01*
X7997992Y-7492998D01*
X7988468Y-7483474D01*
X7969420Y-7473950D01*
X8083706Y-7388236D02*
X8083706Y-7426331D01*
X8159897Y-7388236D02*
X8159897Y-7426331D01*
X8455135Y-7664427D02*
X8445611Y-7654903D01*
X8426563Y-7626331D01*
X8417040Y-7607284D01*
X8407516Y-7578712D01*
X8397992Y-7531093D01*
X8397992Y-7492998D01*
X8407516Y-7445379D01*
X8417040Y-7416808D01*
X8426563Y-7397760D01*
X8445611Y-7369188D01*
X8455135Y-7359665D01*
X8540849Y-7588236D02*
X8578944Y-7588236D01*
X8597992Y-7578712D01*
X8607516Y-7569188D01*
X8626563Y-7540617D01*
X8636087Y-7502522D01*
X8636087Y-7426331D01*
X8626563Y-7407284D01*
X8617040Y-7397760D01*
X8597992Y-7388236D01*
X8559897Y-7388236D01*
X8540849Y-7397760D01*
X8531325Y-7407284D01*
X8521801Y-7426331D01*
X8521801Y-7473950D01*
X8531325Y-7492998D01*
X8540849Y-7502522D01*
X8559897Y-7512046D01*
X8597992Y-7512046D01*
X8617040Y-7502522D01*
X8626563Y-7492998D01*
X8636087Y-7473950D01*
X8874182Y-7588236D02*
X8874182Y-7388236D01*
X8959897Y-7588236D02*
X8959897Y-7483474D01*
X8950373Y-7464427D01*
X8931325Y-7454903D01*
X8902754Y-7454903D01*
X8883706Y-7464427D01*
X8874182Y-7473950D01*
X9083706Y-7588236D02*
X9064659Y-7578712D01*
X9055135Y-7569188D01*
X9045611Y-7550141D01*
X9045611Y-7492998D01*
X9055135Y-7473950D01*
X9064659Y-7464427D01*
X9083706Y-7454903D01*
X9112278Y-7454903D01*
X9131325Y-7464427D01*
X9140849Y-7473950D01*
X9150373Y-7492998D01*
X9150373Y-7550141D01*
X9140849Y-7569188D01*
X9131325Y-7578712D01*
X9112278Y-7588236D01*
X9083706Y-7588236D01*
X9264659Y-7588236D02*
X9245611Y-7578712D01*
X9236087Y-7559665D01*
X9236087Y-7388236D01*
X9417040Y-7578712D02*
X9397992Y-7588236D01*
X9359897Y-7588236D01*
X9340849Y-7578712D01*
X9331325Y-7559665D01*
X9331325Y-7483474D01*
X9340849Y-7464427D01*
X9359897Y-7454903D01*
X9397992Y-7454903D01*
X9417040Y-7464427D01*
X9426563Y-7483474D01*
X9426563Y-7502522D01*
X9331325Y-7521569D01*
X9502754Y-7578712D02*
X9521801Y-7588236D01*
X9559897Y-7588236D01*
X9578944Y-7578712D01*
X9588468Y-7559665D01*
X9588468Y-7550141D01*
X9578944Y-7531093D01*
X9559897Y-7521569D01*
X9531325Y-7521569D01*
X9512278Y-7512046D01*
X9502754Y-7492998D01*
X9502754Y-7483474D01*
X9512278Y-7464427D01*
X9531325Y-7454903D01*
X9559897Y-7454903D01*
X9578944Y-7464427D01*
X9655135Y-7664427D02*
X9664659Y-7654903D01*
X9683706Y-7626331D01*
X9693230Y-7607284D01*
X9702754Y-7578712D01*
X9712278Y-7531093D01*
X9712278Y-7492998D01*
X9702754Y-7445379D01*
X9693230Y-7416808D01*
X9683706Y-7397760D01*
X9664659Y-7369188D01*
X9655135Y-7359665D01*
D14*
X4858230Y-7736760D02*
X4858230Y-7786760D01*
X4833230Y-7761760D02*
X4883230Y-7761760D01*
D11*
X5178944Y-7652236D02*
X5197992Y-7652236D01*
X5217040Y-7661760D01*
X5226563Y-7671284D01*
X5236087Y-7690331D01*
X5245611Y-7728427D01*
X5245611Y-7776046D01*
X5236087Y-7814141D01*
X5226563Y-7833188D01*
X5217040Y-7842712D01*
X5197992Y-7852236D01*
X5178944Y-7852236D01*
X5159897Y-7842712D01*
X5150373Y-7833188D01*
X5140849Y-7814141D01*
X5131325Y-7776046D01*
X5131325Y-7728427D01*
X5140849Y-7690331D01*
X5150373Y-7671284D01*
X5159897Y-7661760D01*
X5178944Y-7652236D01*
X5331325Y-7833188D02*
X5340849Y-7842712D01*
X5331325Y-7852236D01*
X5321801Y-7842712D01*
X5331325Y-7833188D01*
X5331325Y-7852236D01*
X5521801Y-7652236D02*
X5426563Y-7652236D01*
X5417040Y-7747474D01*
X5426563Y-7737950D01*
X5445611Y-7728427D01*
X5493230Y-7728427D01*
X5512278Y-7737950D01*
X5521801Y-7747474D01*
X5531325Y-7766522D01*
X5531325Y-7814141D01*
X5521801Y-7833188D01*
X5512278Y-7842712D01*
X5493230Y-7852236D01*
X5445611Y-7852236D01*
X5426563Y-7842712D01*
X5417040Y-7833188D01*
X5655135Y-7652236D02*
X5674182Y-7652236D01*
X5693230Y-7661760D01*
X5702754Y-7671284D01*
X5712278Y-7690331D01*
X5721801Y-7728427D01*
X5721801Y-7776046D01*
X5712278Y-7814141D01*
X5702754Y-7833188D01*
X5693230Y-7842712D01*
X5674182Y-7852236D01*
X5655135Y-7852236D01*
X5636087Y-7842712D01*
X5626563Y-7833188D01*
X5617039Y-7814141D01*
X5607516Y-7776046D01*
X5607516Y-7728427D01*
X5617039Y-7690331D01*
X5626563Y-7671284D01*
X5636087Y-7661760D01*
X5655135Y-7652236D01*
X5845611Y-7652236D02*
X5864658Y-7652236D01*
X5883706Y-7661760D01*
X5893230Y-7671284D01*
X5902754Y-7690331D01*
X5912278Y-7728427D01*
X5912278Y-7776046D01*
X5902754Y-7814141D01*
X5893230Y-7833188D01*
X5883706Y-7842712D01*
X5864658Y-7852236D01*
X5845611Y-7852236D01*
X5826563Y-7842712D01*
X5817039Y-7833188D01*
X5807516Y-7814141D01*
X5797992Y-7776046D01*
X5797992Y-7728427D01*
X5807516Y-7690331D01*
X5817039Y-7671284D01*
X5826563Y-7661760D01*
X5845611Y-7652236D01*
X5997992Y-7852236D02*
X5997992Y-7718903D01*
X5997992Y-7737950D02*
X6007516Y-7728427D01*
X6026563Y-7718903D01*
X6055135Y-7718903D01*
X6074182Y-7728427D01*
X6083706Y-7747474D01*
X6083706Y-7852236D01*
X6083706Y-7747474D02*
X6093230Y-7728427D01*
X6112278Y-7718903D01*
X6140849Y-7718903D01*
X6159897Y-7728427D01*
X6169420Y-7747474D01*
X6169420Y-7852236D01*
X6264658Y-7852236D02*
X6264658Y-7718903D01*
X6264658Y-7737950D02*
X6274182Y-7728427D01*
X6293230Y-7718903D01*
X6321801Y-7718903D01*
X6340849Y-7728427D01*
X6350373Y-7747474D01*
X6350373Y-7852236D01*
X6350373Y-7747474D02*
X6359897Y-7728427D01*
X6378944Y-7718903D01*
X6407516Y-7718903D01*
X6426563Y-7728427D01*
X6436087Y-7747474D01*
X6436087Y-7852236D01*
X6826563Y-7642712D02*
X6655135Y-7899855D01*
X7083706Y-7652236D02*
X7102754Y-7652236D01*
X7121801Y-7661760D01*
X7131325Y-7671284D01*
X7140849Y-7690331D01*
X7150373Y-7728427D01*
X7150373Y-7776046D01*
X7140849Y-7814141D01*
X7131325Y-7833188D01*
X7121801Y-7842712D01*
X7102754Y-7852236D01*
X7083706Y-7852236D01*
X7064658Y-7842712D01*
X7055135Y-7833188D01*
X7045611Y-7814141D01*
X7036087Y-7776046D01*
X7036087Y-7728427D01*
X7045611Y-7690331D01*
X7055135Y-7671284D01*
X7064658Y-7661760D01*
X7083706Y-7652236D01*
X7236087Y-7833188D02*
X7245611Y-7842712D01*
X7236087Y-7852236D01*
X7226563Y-7842712D01*
X7236087Y-7833188D01*
X7236087Y-7852236D01*
X7369420Y-7652236D02*
X7388468Y-7652236D01*
X7407516Y-7661760D01*
X7417039Y-7671284D01*
X7426563Y-7690331D01*
X7436087Y-7728427D01*
X7436087Y-7776046D01*
X7426563Y-7814141D01*
X7417039Y-7833188D01*
X7407516Y-7842712D01*
X7388468Y-7852236D01*
X7369420Y-7852236D01*
X7350373Y-7842712D01*
X7340849Y-7833188D01*
X7331325Y-7814141D01*
X7321801Y-7776046D01*
X7321801Y-7728427D01*
X7331325Y-7690331D01*
X7340849Y-7671284D01*
X7350373Y-7661760D01*
X7369420Y-7652236D01*
X7626563Y-7852236D02*
X7512278Y-7852236D01*
X7569420Y-7852236D02*
X7569420Y-7652236D01*
X7550373Y-7680808D01*
X7531325Y-7699855D01*
X7512278Y-7709379D01*
X7721801Y-7852236D02*
X7759897Y-7852236D01*
X7778944Y-7842712D01*
X7788468Y-7833188D01*
X7807516Y-7804617D01*
X7817039Y-7766522D01*
X7817039Y-7690331D01*
X7807516Y-7671284D01*
X7797992Y-7661760D01*
X7778944Y-7652236D01*
X7740849Y-7652236D01*
X7721801Y-7661760D01*
X7712278Y-7671284D01*
X7702754Y-7690331D01*
X7702754Y-7737950D01*
X7712278Y-7756998D01*
X7721801Y-7766522D01*
X7740849Y-7776046D01*
X7778944Y-7776046D01*
X7797992Y-7766522D01*
X7807516Y-7756998D01*
X7817039Y-7737950D01*
X7883706Y-7652236D02*
X8017039Y-7652236D01*
X7931325Y-7852236D01*
X8083706Y-7652236D02*
X8083706Y-7690331D01*
X8159897Y-7652236D02*
X8159897Y-7690331D01*
X8455135Y-7928427D02*
X8445611Y-7918903D01*
X8426563Y-7890331D01*
X8417040Y-7871284D01*
X8407516Y-7842712D01*
X8397992Y-7795093D01*
X8397992Y-7756998D01*
X8407516Y-7709379D01*
X8417040Y-7680808D01*
X8426563Y-7661760D01*
X8445611Y-7633188D01*
X8455135Y-7623665D01*
X8569420Y-7652236D02*
X8588468Y-7652236D01*
X8607516Y-7661760D01*
X8617040Y-7671284D01*
X8626563Y-7690331D01*
X8636087Y-7728427D01*
X8636087Y-7776046D01*
X8626563Y-7814141D01*
X8617040Y-7833188D01*
X8607516Y-7842712D01*
X8588468Y-7852236D01*
X8569420Y-7852236D01*
X8550373Y-7842712D01*
X8540849Y-7833188D01*
X8531325Y-7814141D01*
X8521801Y-7776046D01*
X8521801Y-7728427D01*
X8531325Y-7690331D01*
X8540849Y-7671284D01*
X8550373Y-7661760D01*
X8569420Y-7652236D01*
X8874182Y-7852236D02*
X8874182Y-7652236D01*
X8959897Y-7852236D02*
X8959897Y-7747474D01*
X8950373Y-7728427D01*
X8931325Y-7718903D01*
X8902754Y-7718903D01*
X8883706Y-7728427D01*
X8874182Y-7737950D01*
X9083706Y-7852236D02*
X9064659Y-7842712D01*
X9055135Y-7833188D01*
X9045611Y-7814141D01*
X9045611Y-7756998D01*
X9055135Y-7737950D01*
X9064659Y-7728427D01*
X9083706Y-7718903D01*
X9112278Y-7718903D01*
X9131325Y-7728427D01*
X9140849Y-7737950D01*
X9150373Y-7756998D01*
X9150373Y-7814141D01*
X9140849Y-7833188D01*
X9131325Y-7842712D01*
X9112278Y-7852236D01*
X9083706Y-7852236D01*
X9264659Y-7852236D02*
X9245611Y-7842712D01*
X9236087Y-7823665D01*
X9236087Y-7652236D01*
X9417040Y-7842712D02*
X9397992Y-7852236D01*
X9359897Y-7852236D01*
X9340849Y-7842712D01*
X9331325Y-7823665D01*
X9331325Y-7747474D01*
X9340849Y-7728427D01*
X9359897Y-7718903D01*
X9397992Y-7718903D01*
X9417040Y-7728427D01*
X9426563Y-7747474D01*
X9426563Y-7766522D01*
X9331325Y-7785569D01*
X9502754Y-7842712D02*
X9521801Y-7852236D01*
X9559897Y-7852236D01*
X9578944Y-7842712D01*
X9588468Y-7823665D01*
X9588468Y-7814141D01*
X9578944Y-7795093D01*
X9559897Y-7785569D01*
X9531325Y-7785569D01*
X9512278Y-7776046D01*
X9502754Y-7756998D01*
X9502754Y-7747474D01*
X9512278Y-7728427D01*
X9531325Y-7718903D01*
X9559897Y-7718903D01*
X9578944Y-7728427D01*
X9826563Y-7776046D02*
X9978944Y-7776046D01*
X9902754Y-7852236D02*
X9902754Y-7699855D01*
X10217040Y-7671284D02*
X10226563Y-7661760D01*
X10245611Y-7652236D01*
X10293230Y-7652236D01*
X10312278Y-7661760D01*
X10321801Y-7671284D01*
X10331325Y-7690331D01*
X10331325Y-7709379D01*
X10321801Y-7737950D01*
X10207516Y-7852236D01*
X10331325Y-7852236D01*
X10559897Y-7842712D02*
X10578944Y-7852236D01*
X10617040Y-7852236D01*
X10636087Y-7842712D01*
X10645611Y-7823665D01*
X10645611Y-7814141D01*
X10636087Y-7795093D01*
X10617040Y-7785569D01*
X10588468Y-7785569D01*
X10569420Y-7776046D01*
X10559897Y-7756998D01*
X10559897Y-7747474D01*
X10569420Y-7728427D01*
X10588468Y-7718903D01*
X10617040Y-7718903D01*
X10636087Y-7728427D01*
X10759897Y-7852236D02*
X10740849Y-7842712D01*
X10731325Y-7823665D01*
X10731325Y-7652236D01*
X10864659Y-7852236D02*
X10845611Y-7842712D01*
X10836087Y-7833188D01*
X10826563Y-7814141D01*
X10826563Y-7756998D01*
X10836087Y-7737950D01*
X10845611Y-7728427D01*
X10864659Y-7718903D01*
X10893230Y-7718903D01*
X10912278Y-7728427D01*
X10921801Y-7737950D01*
X10931325Y-7756998D01*
X10931325Y-7814141D01*
X10921801Y-7833188D01*
X10912278Y-7842712D01*
X10893230Y-7852236D01*
X10864659Y-7852236D01*
X10988468Y-7718903D02*
X11064659Y-7718903D01*
X11017040Y-7652236D02*
X11017040Y-7823665D01*
X11026563Y-7842712D01*
X11045611Y-7852236D01*
X11064659Y-7852236D01*
X11121801Y-7842712D02*
X11140849Y-7852236D01*
X11178944Y-7852236D01*
X11197992Y-7842712D01*
X11207516Y-7823665D01*
X11207516Y-7814141D01*
X11197992Y-7795093D01*
X11178944Y-7785569D01*
X11150373Y-7785569D01*
X11131325Y-7776046D01*
X11121801Y-7756998D01*
X11121801Y-7747474D01*
X11131325Y-7728427D01*
X11150373Y-7718903D01*
X11178944Y-7718903D01*
X11197992Y-7728427D01*
X11274182Y-7928427D02*
X11283706Y-7918903D01*
X11302754Y-7890331D01*
X11312278Y-7871284D01*
X11321801Y-7842712D01*
X11331325Y-7795093D01*
X11331325Y-7756998D01*
X11321801Y-7709379D01*
X11312278Y-7680808D01*
X11302754Y-7661760D01*
X11283706Y-7633188D01*
X11274182Y-7623665D01*
D15*
X4875176Y-8045206D02*
X4875176Y-8006314D01*
X4836284Y-8006314D01*
X4836284Y-8045206D01*
X4875176Y-8045206D01*
D11*
X5178944Y-7916236D02*
X5197992Y-7916236D01*
X5217040Y-7925760D01*
X5226563Y-7935284D01*
X5236087Y-7954331D01*
X5245611Y-7992427D01*
X5245611Y-8040046D01*
X5236087Y-8078141D01*
X5226563Y-8097188D01*
X5217040Y-8106712D01*
X5197992Y-8116236D01*
X5178944Y-8116236D01*
X5159897Y-8106712D01*
X5150373Y-8097188D01*
X5140849Y-8078141D01*
X5131325Y-8040046D01*
X5131325Y-7992427D01*
X5140849Y-7954331D01*
X5150373Y-7935284D01*
X5159897Y-7925760D01*
X5178944Y-7916236D01*
X5331325Y-8097188D02*
X5340849Y-8106712D01*
X5331325Y-8116236D01*
X5321801Y-8106712D01*
X5331325Y-8097188D01*
X5331325Y-8116236D01*
X5521801Y-7916236D02*
X5426563Y-7916236D01*
X5417040Y-8011474D01*
X5426563Y-8001950D01*
X5445611Y-7992427D01*
X5493230Y-7992427D01*
X5512278Y-8001950D01*
X5521801Y-8011474D01*
X5531325Y-8030522D01*
X5531325Y-8078141D01*
X5521801Y-8097188D01*
X5512278Y-8106712D01*
X5493230Y-8116236D01*
X5445611Y-8116236D01*
X5426563Y-8106712D01*
X5417040Y-8097188D01*
X5712278Y-7916236D02*
X5617039Y-7916236D01*
X5607516Y-8011474D01*
X5617039Y-8001950D01*
X5636087Y-7992427D01*
X5683706Y-7992427D01*
X5702754Y-8001950D01*
X5712278Y-8011474D01*
X5721801Y-8030522D01*
X5721801Y-8078141D01*
X5712278Y-8097188D01*
X5702754Y-8106712D01*
X5683706Y-8116236D01*
X5636087Y-8116236D01*
X5617039Y-8106712D01*
X5607516Y-8097188D01*
X5845611Y-7916236D02*
X5864658Y-7916236D01*
X5883706Y-7925760D01*
X5893230Y-7935284D01*
X5902754Y-7954331D01*
X5912278Y-7992427D01*
X5912278Y-8040046D01*
X5902754Y-8078141D01*
X5893230Y-8097188D01*
X5883706Y-8106712D01*
X5864658Y-8116236D01*
X5845611Y-8116236D01*
X5826563Y-8106712D01*
X5817039Y-8097188D01*
X5807516Y-8078141D01*
X5797992Y-8040046D01*
X5797992Y-7992427D01*
X5807516Y-7954331D01*
X5817039Y-7935284D01*
X5826563Y-7925760D01*
X5845611Y-7916236D01*
X5997992Y-8116236D02*
X5997992Y-7982903D01*
X5997992Y-8001950D02*
X6007516Y-7992427D01*
X6026563Y-7982903D01*
X6055135Y-7982903D01*
X6074182Y-7992427D01*
X6083706Y-8011474D01*
X6083706Y-8116236D01*
X6083706Y-8011474D02*
X6093230Y-7992427D01*
X6112278Y-7982903D01*
X6140849Y-7982903D01*
X6159897Y-7992427D01*
X6169420Y-8011474D01*
X6169420Y-8116236D01*
X6264658Y-8116236D02*
X6264658Y-7982903D01*
X6264658Y-8001950D02*
X6274182Y-7992427D01*
X6293230Y-7982903D01*
X6321801Y-7982903D01*
X6340849Y-7992427D01*
X6350373Y-8011474D01*
X6350373Y-8116236D01*
X6350373Y-8011474D02*
X6359897Y-7992427D01*
X6378944Y-7982903D01*
X6407516Y-7982903D01*
X6426563Y-7992427D01*
X6436087Y-8011474D01*
X6436087Y-8116236D01*
X6826563Y-7906712D02*
X6655135Y-8163855D01*
X7083706Y-7916236D02*
X7102754Y-7916236D01*
X7121801Y-7925760D01*
X7131325Y-7935284D01*
X7140849Y-7954331D01*
X7150373Y-7992427D01*
X7150373Y-8040046D01*
X7140849Y-8078141D01*
X7131325Y-8097188D01*
X7121801Y-8106712D01*
X7102754Y-8116236D01*
X7083706Y-8116236D01*
X7064658Y-8106712D01*
X7055135Y-8097188D01*
X7045611Y-8078141D01*
X7036087Y-8040046D01*
X7036087Y-7992427D01*
X7045611Y-7954331D01*
X7055135Y-7935284D01*
X7064658Y-7925760D01*
X7083706Y-7916236D01*
X7236087Y-8097188D02*
X7245611Y-8106712D01*
X7236087Y-8116236D01*
X7226563Y-8106712D01*
X7236087Y-8097188D01*
X7236087Y-8116236D01*
X7369420Y-7916236D02*
X7388468Y-7916236D01*
X7407516Y-7925760D01*
X7417039Y-7935284D01*
X7426563Y-7954331D01*
X7436087Y-7992427D01*
X7436087Y-8040046D01*
X7426563Y-8078141D01*
X7417039Y-8097188D01*
X7407516Y-8106712D01*
X7388468Y-8116236D01*
X7369420Y-8116236D01*
X7350373Y-8106712D01*
X7340849Y-8097188D01*
X7331325Y-8078141D01*
X7321801Y-8040046D01*
X7321801Y-7992427D01*
X7331325Y-7954331D01*
X7340849Y-7935284D01*
X7350373Y-7925760D01*
X7369420Y-7916236D01*
X7512278Y-7935284D02*
X7521801Y-7925760D01*
X7540849Y-7916236D01*
X7588468Y-7916236D01*
X7607516Y-7925760D01*
X7617039Y-7935284D01*
X7626563Y-7954331D01*
X7626563Y-7973379D01*
X7617039Y-8001950D01*
X7502754Y-8116236D01*
X7626563Y-8116236D01*
X7817039Y-8116236D02*
X7702754Y-8116236D01*
X7759897Y-8116236D02*
X7759897Y-7916236D01*
X7740849Y-7944808D01*
X7721801Y-7963855D01*
X7702754Y-7973379D01*
X7883706Y-7916236D02*
X8017039Y-7916236D01*
X7931325Y-8116236D01*
X8083706Y-7916236D02*
X8083706Y-7954331D01*
X8159897Y-7916236D02*
X8159897Y-7954331D01*
X8455135Y-8192427D02*
X8445611Y-8182903D01*
X8426563Y-8154331D01*
X8417040Y-8135284D01*
X8407516Y-8106712D01*
X8397992Y-8059093D01*
X8397992Y-8020998D01*
X8407516Y-7973379D01*
X8417040Y-7944808D01*
X8426563Y-7925760D01*
X8445611Y-7897188D01*
X8455135Y-7887665D01*
X8569420Y-7916236D02*
X8588468Y-7916236D01*
X8607516Y-7925760D01*
X8617040Y-7935284D01*
X8626563Y-7954331D01*
X8636087Y-7992427D01*
X8636087Y-8040046D01*
X8626563Y-8078141D01*
X8617040Y-8097188D01*
X8607516Y-8106712D01*
X8588468Y-8116236D01*
X8569420Y-8116236D01*
X8550373Y-8106712D01*
X8540849Y-8097188D01*
X8531325Y-8078141D01*
X8521801Y-8040046D01*
X8521801Y-7992427D01*
X8531325Y-7954331D01*
X8540849Y-7935284D01*
X8550373Y-7925760D01*
X8569420Y-7916236D01*
X8874182Y-8116236D02*
X8874182Y-7916236D01*
X8959897Y-8116236D02*
X8959897Y-8011474D01*
X8950373Y-7992427D01*
X8931325Y-7982903D01*
X8902754Y-7982903D01*
X8883706Y-7992427D01*
X8874182Y-8001950D01*
X9083706Y-8116236D02*
X9064659Y-8106712D01*
X9055135Y-8097188D01*
X9045611Y-8078141D01*
X9045611Y-8020998D01*
X9055135Y-8001950D01*
X9064659Y-7992427D01*
X9083706Y-7982903D01*
X9112278Y-7982903D01*
X9131325Y-7992427D01*
X9140849Y-8001950D01*
X9150373Y-8020998D01*
X9150373Y-8078141D01*
X9140849Y-8097188D01*
X9131325Y-8106712D01*
X9112278Y-8116236D01*
X9083706Y-8116236D01*
X9264659Y-8116236D02*
X9245611Y-8106712D01*
X9236087Y-8087665D01*
X9236087Y-7916236D01*
X9417040Y-8106712D02*
X9397992Y-8116236D01*
X9359897Y-8116236D01*
X9340849Y-8106712D01*
X9331325Y-8087665D01*
X9331325Y-8011474D01*
X9340849Y-7992427D01*
X9359897Y-7982903D01*
X9397992Y-7982903D01*
X9417040Y-7992427D01*
X9426563Y-8011474D01*
X9426563Y-8030522D01*
X9331325Y-8049569D01*
X9502754Y-8106712D02*
X9521801Y-8116236D01*
X9559897Y-8116236D01*
X9578944Y-8106712D01*
X9588468Y-8087665D01*
X9588468Y-8078141D01*
X9578944Y-8059093D01*
X9559897Y-8049569D01*
X9531325Y-8049569D01*
X9512278Y-8040046D01*
X9502754Y-8020998D01*
X9502754Y-8011474D01*
X9512278Y-7992427D01*
X9531325Y-7982903D01*
X9559897Y-7982903D01*
X9578944Y-7992427D01*
X9826563Y-8040046D02*
X9978944Y-8040046D01*
X9902754Y-8116236D02*
X9902754Y-7963855D01*
X10217040Y-7935284D02*
X10226563Y-7925760D01*
X10245611Y-7916236D01*
X10293230Y-7916236D01*
X10312278Y-7925760D01*
X10321801Y-7935284D01*
X10331325Y-7954331D01*
X10331325Y-7973379D01*
X10321801Y-8001950D01*
X10207516Y-8116236D01*
X10331325Y-8116236D01*
X10559897Y-8106712D02*
X10578944Y-8116236D01*
X10617040Y-8116236D01*
X10636087Y-8106712D01*
X10645611Y-8087665D01*
X10645611Y-8078141D01*
X10636087Y-8059093D01*
X10617040Y-8049569D01*
X10588468Y-8049569D01*
X10569420Y-8040046D01*
X10559897Y-8020998D01*
X10559897Y-8011474D01*
X10569420Y-7992427D01*
X10588468Y-7982903D01*
X10617040Y-7982903D01*
X10636087Y-7992427D01*
X10759897Y-8116236D02*
X10740849Y-8106712D01*
X10731325Y-8087665D01*
X10731325Y-7916236D01*
X10864659Y-8116236D02*
X10845611Y-8106712D01*
X10836087Y-8097188D01*
X10826563Y-8078141D01*
X10826563Y-8020998D01*
X10836087Y-8001950D01*
X10845611Y-7992427D01*
X10864659Y-7982903D01*
X10893230Y-7982903D01*
X10912278Y-7992427D01*
X10921801Y-8001950D01*
X10931325Y-8020998D01*
X10931325Y-8078141D01*
X10921801Y-8097188D01*
X10912278Y-8106712D01*
X10893230Y-8116236D01*
X10864659Y-8116236D01*
X10988468Y-7982903D02*
X11064659Y-7982903D01*
X11017040Y-7916236D02*
X11017040Y-8087665D01*
X11026563Y-8106712D01*
X11045611Y-8116236D01*
X11064659Y-8116236D01*
X11121801Y-8106712D02*
X11140849Y-8116236D01*
X11178944Y-8116236D01*
X11197992Y-8106712D01*
X11207516Y-8087665D01*
X11207516Y-8078141D01*
X11197992Y-8059093D01*
X11178944Y-8049569D01*
X11150373Y-8049569D01*
X11131325Y-8040046D01*
X11121801Y-8020998D01*
X11121801Y-8011474D01*
X11131325Y-7992427D01*
X11150373Y-7982903D01*
X11178944Y-7982903D01*
X11197992Y-7992427D01*
X11274182Y-8192427D02*
X11283706Y-8182903D01*
X11302754Y-8154331D01*
X11312278Y-8135284D01*
X11321801Y-8106712D01*
X11331325Y-8059093D01*
X11331325Y-8020998D01*
X11321801Y-7973379D01*
X11312278Y-7944808D01*
X11302754Y-7925760D01*
X11283706Y-7897188D01*
X11274182Y-7887665D01*
D16*
X4833230Y-8339760D02*
X4883230Y-8289760D01*
X4833230Y-8239760D01*
X4783230Y-8289760D01*
X4833230Y-8339760D01*
D11*
X5245611Y-8380236D02*
X5131325Y-8380236D01*
X5188468Y-8380236D02*
X5188468Y-8180236D01*
X5169420Y-8208808D01*
X5150373Y-8227855D01*
X5131325Y-8237379D01*
X5331325Y-8361188D02*
X5340849Y-8370712D01*
X5331325Y-8380236D01*
X5321801Y-8370712D01*
X5331325Y-8361188D01*
X5331325Y-8380236D01*
X5464659Y-8180236D02*
X5483706Y-8180236D01*
X5502754Y-8189760D01*
X5512278Y-8199284D01*
X5521801Y-8218331D01*
X5531325Y-8256427D01*
X5531325Y-8304046D01*
X5521801Y-8342141D01*
X5512278Y-8361188D01*
X5502754Y-8370712D01*
X5483706Y-8380236D01*
X5464659Y-8380236D01*
X5445611Y-8370712D01*
X5436087Y-8361188D01*
X5426563Y-8342141D01*
X5417040Y-8304046D01*
X5417040Y-8256427D01*
X5426563Y-8218331D01*
X5436087Y-8199284D01*
X5445611Y-8189760D01*
X5464659Y-8180236D01*
X5655135Y-8180236D02*
X5674182Y-8180236D01*
X5693230Y-8189760D01*
X5702754Y-8199284D01*
X5712278Y-8218331D01*
X5721801Y-8256427D01*
X5721801Y-8304046D01*
X5712278Y-8342141D01*
X5702754Y-8361188D01*
X5693230Y-8370712D01*
X5674182Y-8380236D01*
X5655135Y-8380236D01*
X5636087Y-8370712D01*
X5626563Y-8361188D01*
X5617039Y-8342141D01*
X5607516Y-8304046D01*
X5607516Y-8256427D01*
X5617039Y-8218331D01*
X5626563Y-8199284D01*
X5636087Y-8189760D01*
X5655135Y-8180236D01*
X5845611Y-8180236D02*
X5864658Y-8180236D01*
X5883706Y-8189760D01*
X5893230Y-8199284D01*
X5902754Y-8218331D01*
X5912278Y-8256427D01*
X5912278Y-8304046D01*
X5902754Y-8342141D01*
X5893230Y-8361188D01*
X5883706Y-8370712D01*
X5864658Y-8380236D01*
X5845611Y-8380236D01*
X5826563Y-8370712D01*
X5817039Y-8361188D01*
X5807516Y-8342141D01*
X5797992Y-8304046D01*
X5797992Y-8256427D01*
X5807516Y-8218331D01*
X5817039Y-8199284D01*
X5826563Y-8189760D01*
X5845611Y-8180236D01*
X5997992Y-8380236D02*
X5997992Y-8246903D01*
X5997992Y-8265950D02*
X6007516Y-8256427D01*
X6026563Y-8246903D01*
X6055135Y-8246903D01*
X6074182Y-8256427D01*
X6083706Y-8275474D01*
X6083706Y-8380236D01*
X6083706Y-8275474D02*
X6093230Y-8256427D01*
X6112278Y-8246903D01*
X6140849Y-8246903D01*
X6159897Y-8256427D01*
X6169420Y-8275474D01*
X6169420Y-8380236D01*
X6264658Y-8380236D02*
X6264658Y-8246903D01*
X6264658Y-8265950D02*
X6274182Y-8256427D01*
X6293230Y-8246903D01*
X6321801Y-8246903D01*
X6340849Y-8256427D01*
X6350373Y-8275474D01*
X6350373Y-8380236D01*
X6350373Y-8275474D02*
X6359897Y-8256427D01*
X6378944Y-8246903D01*
X6407516Y-8246903D01*
X6426563Y-8256427D01*
X6436087Y-8275474D01*
X6436087Y-8380236D01*
X6826563Y-8170712D02*
X6655135Y-8427855D01*
X7083706Y-8180236D02*
X7102754Y-8180236D01*
X7121801Y-8189760D01*
X7131325Y-8199284D01*
X7140849Y-8218331D01*
X7150373Y-8256427D01*
X7150373Y-8304046D01*
X7140849Y-8342141D01*
X7131325Y-8361188D01*
X7121801Y-8370712D01*
X7102754Y-8380236D01*
X7083706Y-8380236D01*
X7064658Y-8370712D01*
X7055135Y-8361188D01*
X7045611Y-8342141D01*
X7036087Y-8304046D01*
X7036087Y-8256427D01*
X7045611Y-8218331D01*
X7055135Y-8199284D01*
X7064658Y-8189760D01*
X7083706Y-8180236D01*
X7236087Y-8361188D02*
X7245611Y-8370712D01*
X7236087Y-8380236D01*
X7226563Y-8370712D01*
X7236087Y-8361188D01*
X7236087Y-8380236D01*
X7369420Y-8180236D02*
X7388468Y-8180236D01*
X7407516Y-8189760D01*
X7417039Y-8199284D01*
X7426563Y-8218331D01*
X7436087Y-8256427D01*
X7436087Y-8304046D01*
X7426563Y-8342141D01*
X7417039Y-8361188D01*
X7407516Y-8370712D01*
X7388468Y-8380236D01*
X7369420Y-8380236D01*
X7350373Y-8370712D01*
X7340849Y-8361188D01*
X7331325Y-8342141D01*
X7321801Y-8304046D01*
X7321801Y-8256427D01*
X7331325Y-8218331D01*
X7340849Y-8199284D01*
X7350373Y-8189760D01*
X7369420Y-8180236D01*
X7502754Y-8180236D02*
X7626563Y-8180236D01*
X7559897Y-8256427D01*
X7588468Y-8256427D01*
X7607516Y-8265950D01*
X7617039Y-8275474D01*
X7626563Y-8294522D01*
X7626563Y-8342141D01*
X7617039Y-8361188D01*
X7607516Y-8370712D01*
X7588468Y-8380236D01*
X7531325Y-8380236D01*
X7512278Y-8370712D01*
X7502754Y-8361188D01*
X7721801Y-8380236D02*
X7759897Y-8380236D01*
X7778944Y-8370712D01*
X7788468Y-8361188D01*
X7807516Y-8332617D01*
X7817039Y-8294522D01*
X7817039Y-8218331D01*
X7807516Y-8199284D01*
X7797992Y-8189760D01*
X7778944Y-8180236D01*
X7740849Y-8180236D01*
X7721801Y-8189760D01*
X7712278Y-8199284D01*
X7702754Y-8218331D01*
X7702754Y-8265950D01*
X7712278Y-8284998D01*
X7721801Y-8294522D01*
X7740849Y-8304046D01*
X7778944Y-8304046D01*
X7797992Y-8294522D01*
X7807516Y-8284998D01*
X7817039Y-8265950D01*
X7988468Y-8246903D02*
X7988468Y-8380236D01*
X7940849Y-8170712D02*
X7893230Y-8313569D01*
X8017039Y-8313569D01*
X8083706Y-8180236D02*
X8083706Y-8218331D01*
X8159897Y-8180236D02*
X8159897Y-8218331D01*
X8455135Y-8456427D02*
X8445611Y-8446903D01*
X8426563Y-8418331D01*
X8417040Y-8399284D01*
X8407516Y-8370712D01*
X8397992Y-8323093D01*
X8397992Y-8284998D01*
X8407516Y-8237379D01*
X8417040Y-8208808D01*
X8426563Y-8189760D01*
X8445611Y-8161188D01*
X8455135Y-8151665D01*
X8617040Y-8246903D02*
X8617040Y-8380236D01*
X8569420Y-8170712D02*
X8521801Y-8313569D01*
X8645611Y-8313569D01*
X8826563Y-8380236D02*
X8712278Y-8380236D01*
X8769420Y-8380236D02*
X8769420Y-8180236D01*
X8750373Y-8208808D01*
X8731325Y-8227855D01*
X8712278Y-8237379D01*
X9064659Y-8380236D02*
X9064659Y-8180236D01*
X9150373Y-8380236D02*
X9150373Y-8275474D01*
X9140849Y-8256427D01*
X9121801Y-8246903D01*
X9093230Y-8246903D01*
X9074182Y-8256427D01*
X9064659Y-8265950D01*
X9274182Y-8380236D02*
X9255135Y-8370712D01*
X9245611Y-8361188D01*
X9236087Y-8342141D01*
X9236087Y-8284998D01*
X9245611Y-8265950D01*
X9255135Y-8256427D01*
X9274182Y-8246903D01*
X9302754Y-8246903D01*
X9321801Y-8256427D01*
X9331325Y-8265950D01*
X9340849Y-8284998D01*
X9340849Y-8342141D01*
X9331325Y-8361188D01*
X9321801Y-8370712D01*
X9302754Y-8380236D01*
X9274182Y-8380236D01*
X9455135Y-8380236D02*
X9436087Y-8370712D01*
X9426563Y-8351665D01*
X9426563Y-8180236D01*
X9607516Y-8370712D02*
X9588468Y-8380236D01*
X9550373Y-8380236D01*
X9531325Y-8370712D01*
X9521801Y-8351665D01*
X9521801Y-8275474D01*
X9531325Y-8256427D01*
X9550373Y-8246903D01*
X9588468Y-8246903D01*
X9607516Y-8256427D01*
X9617040Y-8275474D01*
X9617040Y-8294522D01*
X9521801Y-8313569D01*
X9693230Y-8370712D02*
X9712278Y-8380236D01*
X9750373Y-8380236D01*
X9769420Y-8370712D01*
X9778944Y-8351665D01*
X9778944Y-8342141D01*
X9769420Y-8323093D01*
X9750373Y-8313569D01*
X9721801Y-8313569D01*
X9702754Y-8304046D01*
X9693230Y-8284998D01*
X9693230Y-8275474D01*
X9702754Y-8256427D01*
X9721801Y-8246903D01*
X9750373Y-8246903D01*
X9769420Y-8256427D01*
X9845611Y-8456427D02*
X9855135Y-8446903D01*
X9874182Y-8418331D01*
X9883706Y-8399284D01*
X9893230Y-8370712D01*
X9902754Y-8323093D01*
X9902754Y-8284998D01*
X9893230Y-8237379D01*
X9883706Y-8208808D01*
X9874182Y-8189760D01*
X9855135Y-8161188D01*
X9845611Y-8151665D01*
D17*
X4773230Y-8498760D02*
X4883230Y-8608760D01*
X4883230Y-8498760D02*
X4773230Y-8608760D01*
X4883230Y-8553760D02*
G75*
G03*
X4883230Y-8553760I-55000J0D01*
G01*
D11*
X5245611Y-8644236D02*
X5131325Y-8644236D01*
X5188468Y-8644236D02*
X5188468Y-8444236D01*
X5169420Y-8472808D01*
X5150373Y-8491855D01*
X5131325Y-8501379D01*
X5331325Y-8625189D02*
X5340849Y-8634712D01*
X5331325Y-8644236D01*
X5321801Y-8634712D01*
X5331325Y-8625189D01*
X5331325Y-8644236D01*
X5531325Y-8644236D02*
X5417040Y-8644236D01*
X5474182Y-8644236D02*
X5474182Y-8444236D01*
X5455135Y-8472808D01*
X5436087Y-8491855D01*
X5417040Y-8501379D01*
X5655135Y-8444236D02*
X5674182Y-8444236D01*
X5693230Y-8453760D01*
X5702754Y-8463284D01*
X5712278Y-8482331D01*
X5721801Y-8520427D01*
X5721801Y-8568046D01*
X5712278Y-8606141D01*
X5702754Y-8625189D01*
X5693230Y-8634712D01*
X5674182Y-8644236D01*
X5655135Y-8644236D01*
X5636087Y-8634712D01*
X5626563Y-8625189D01*
X5617039Y-8606141D01*
X5607516Y-8568046D01*
X5607516Y-8520427D01*
X5617039Y-8482331D01*
X5626563Y-8463284D01*
X5636087Y-8453760D01*
X5655135Y-8444236D01*
X5845611Y-8444236D02*
X5864658Y-8444236D01*
X5883706Y-8453760D01*
X5893230Y-8463284D01*
X5902754Y-8482331D01*
X5912278Y-8520427D01*
X5912278Y-8568046D01*
X5902754Y-8606141D01*
X5893230Y-8625189D01*
X5883706Y-8634712D01*
X5864658Y-8644236D01*
X5845611Y-8644236D01*
X5826563Y-8634712D01*
X5817039Y-8625189D01*
X5807516Y-8606141D01*
X5797992Y-8568046D01*
X5797992Y-8520427D01*
X5807516Y-8482331D01*
X5817039Y-8463284D01*
X5826563Y-8453760D01*
X5845611Y-8444236D01*
X5997992Y-8644236D02*
X5997992Y-8510903D01*
X5997992Y-8529950D02*
X6007516Y-8520427D01*
X6026563Y-8510903D01*
X6055135Y-8510903D01*
X6074182Y-8520427D01*
X6083706Y-8539474D01*
X6083706Y-8644236D01*
X6083706Y-8539474D02*
X6093230Y-8520427D01*
X6112278Y-8510903D01*
X6140849Y-8510903D01*
X6159897Y-8520427D01*
X6169420Y-8539474D01*
X6169420Y-8644236D01*
X6264658Y-8644236D02*
X6264658Y-8510903D01*
X6264658Y-8529950D02*
X6274182Y-8520427D01*
X6293230Y-8510903D01*
X6321801Y-8510903D01*
X6340849Y-8520427D01*
X6350373Y-8539474D01*
X6350373Y-8644236D01*
X6350373Y-8539474D02*
X6359897Y-8520427D01*
X6378944Y-8510903D01*
X6407516Y-8510903D01*
X6426563Y-8520427D01*
X6436087Y-8539474D01*
X6436087Y-8644236D01*
X6826563Y-8434712D02*
X6655135Y-8691855D01*
X7083706Y-8444236D02*
X7102754Y-8444236D01*
X7121801Y-8453760D01*
X7131325Y-8463284D01*
X7140849Y-8482331D01*
X7150373Y-8520427D01*
X7150373Y-8568046D01*
X7140849Y-8606141D01*
X7131325Y-8625189D01*
X7121801Y-8634712D01*
X7102754Y-8644236D01*
X7083706Y-8644236D01*
X7064658Y-8634712D01*
X7055135Y-8625189D01*
X7045611Y-8606141D01*
X7036087Y-8568046D01*
X7036087Y-8520427D01*
X7045611Y-8482331D01*
X7055135Y-8463284D01*
X7064658Y-8453760D01*
X7083706Y-8444236D01*
X7236087Y-8625189D02*
X7245611Y-8634712D01*
X7236087Y-8644236D01*
X7226563Y-8634712D01*
X7236087Y-8625189D01*
X7236087Y-8644236D01*
X7369420Y-8444236D02*
X7388468Y-8444236D01*
X7407516Y-8453760D01*
X7417039Y-8463284D01*
X7426563Y-8482331D01*
X7436087Y-8520427D01*
X7436087Y-8568046D01*
X7426563Y-8606141D01*
X7417039Y-8625189D01*
X7407516Y-8634712D01*
X7388468Y-8644236D01*
X7369420Y-8644236D01*
X7350373Y-8634712D01*
X7340849Y-8625189D01*
X7331325Y-8606141D01*
X7321801Y-8568046D01*
X7321801Y-8520427D01*
X7331325Y-8482331D01*
X7340849Y-8463284D01*
X7350373Y-8453760D01*
X7369420Y-8444236D01*
X7607516Y-8510903D02*
X7607516Y-8644236D01*
X7559897Y-8434712D02*
X7512278Y-8577570D01*
X7636087Y-8577570D01*
X7693230Y-8444236D02*
X7817039Y-8444236D01*
X7750373Y-8520427D01*
X7778944Y-8520427D01*
X7797992Y-8529950D01*
X7807516Y-8539474D01*
X7817039Y-8558522D01*
X7817039Y-8606141D01*
X7807516Y-8625189D01*
X7797992Y-8634712D01*
X7778944Y-8644236D01*
X7721801Y-8644236D01*
X7702754Y-8634712D01*
X7693230Y-8625189D01*
X7883706Y-8444236D02*
X8007516Y-8444236D01*
X7940849Y-8520427D01*
X7969420Y-8520427D01*
X7988468Y-8529950D01*
X7997992Y-8539474D01*
X8007516Y-8558522D01*
X8007516Y-8606141D01*
X7997992Y-8625189D01*
X7988468Y-8634712D01*
X7969420Y-8644236D01*
X7912278Y-8644236D01*
X7893230Y-8634712D01*
X7883706Y-8625189D01*
X8083706Y-8444236D02*
X8083706Y-8482331D01*
X8159897Y-8444236D02*
X8159897Y-8482331D01*
X8455135Y-8720427D02*
X8445611Y-8710903D01*
X8426563Y-8682331D01*
X8417040Y-8663284D01*
X8407516Y-8634712D01*
X8397992Y-8587093D01*
X8397992Y-8548998D01*
X8407516Y-8501379D01*
X8417040Y-8472808D01*
X8426563Y-8453760D01*
X8445611Y-8425189D01*
X8455135Y-8415665D01*
X8636087Y-8644236D02*
X8521801Y-8644236D01*
X8578944Y-8644236D02*
X8578944Y-8444236D01*
X8559897Y-8472808D01*
X8540849Y-8491855D01*
X8521801Y-8501379D01*
X8712278Y-8463284D02*
X8721801Y-8453760D01*
X8740849Y-8444236D01*
X8788468Y-8444236D01*
X8807516Y-8453760D01*
X8817040Y-8463284D01*
X8826563Y-8482331D01*
X8826563Y-8501379D01*
X8817040Y-8529950D01*
X8702754Y-8644236D01*
X8826563Y-8644236D01*
X9064659Y-8644236D02*
X9064659Y-8444236D01*
X9150373Y-8644236D02*
X9150373Y-8539474D01*
X9140849Y-8520427D01*
X9121801Y-8510903D01*
X9093230Y-8510903D01*
X9074182Y-8520427D01*
X9064659Y-8529950D01*
X9274182Y-8644236D02*
X9255135Y-8634712D01*
X9245611Y-8625189D01*
X9236087Y-8606141D01*
X9236087Y-8548998D01*
X9245611Y-8529950D01*
X9255135Y-8520427D01*
X9274182Y-8510903D01*
X9302754Y-8510903D01*
X9321801Y-8520427D01*
X9331325Y-8529950D01*
X9340849Y-8548998D01*
X9340849Y-8606141D01*
X9331325Y-8625189D01*
X9321801Y-8634712D01*
X9302754Y-8644236D01*
X9274182Y-8644236D01*
X9455135Y-8644236D02*
X9436087Y-8634712D01*
X9426563Y-8615665D01*
X9426563Y-8444236D01*
X9607516Y-8634712D02*
X9588468Y-8644236D01*
X9550373Y-8644236D01*
X9531325Y-8634712D01*
X9521801Y-8615665D01*
X9521801Y-8539474D01*
X9531325Y-8520427D01*
X9550373Y-8510903D01*
X9588468Y-8510903D01*
X9607516Y-8520427D01*
X9617040Y-8539474D01*
X9617040Y-8558522D01*
X9521801Y-8577570D01*
X9693230Y-8634712D02*
X9712278Y-8644236D01*
X9750373Y-8644236D01*
X9769420Y-8634712D01*
X9778944Y-8615665D01*
X9778944Y-8606141D01*
X9769420Y-8587093D01*
X9750373Y-8577570D01*
X9721801Y-8577570D01*
X9702754Y-8568046D01*
X9693230Y-8548998D01*
X9693230Y-8539474D01*
X9702754Y-8520427D01*
X9721801Y-8510903D01*
X9750373Y-8510903D01*
X9769420Y-8520427D01*
X9845611Y-8720427D02*
X9855135Y-8710903D01*
X9874182Y-8682331D01*
X9883706Y-8663284D01*
X9893230Y-8634712D01*
X9902754Y-8587093D01*
X9902754Y-8548998D01*
X9893230Y-8501379D01*
X9883706Y-8472808D01*
X9874182Y-8453760D01*
X9855135Y-8425189D01*
X9845611Y-8415665D01*
D18*
X4733230Y-8742760D02*
X4883230Y-8892760D01*
X4883230Y-8742760D02*
X4733230Y-8892760D01*
X4808230Y-8742760D02*
X4808230Y-8892760D01*
X4733230Y-8817760D02*
X4883230Y-8817760D01*
D11*
X5245611Y-8908236D02*
X5131325Y-8908236D01*
X5188468Y-8908236D02*
X5188468Y-8708236D01*
X5169420Y-8736808D01*
X5150373Y-8755855D01*
X5131325Y-8765379D01*
X5331325Y-8889189D02*
X5340849Y-8898712D01*
X5331325Y-8908236D01*
X5321801Y-8898712D01*
X5331325Y-8889189D01*
X5331325Y-8908236D01*
X5521801Y-8708236D02*
X5426563Y-8708236D01*
X5417040Y-8803474D01*
X5426563Y-8793950D01*
X5445611Y-8784427D01*
X5493230Y-8784427D01*
X5512278Y-8793950D01*
X5521801Y-8803474D01*
X5531325Y-8822522D01*
X5531325Y-8870141D01*
X5521801Y-8889189D01*
X5512278Y-8898712D01*
X5493230Y-8908236D01*
X5445611Y-8908236D01*
X5426563Y-8898712D01*
X5417040Y-8889189D01*
X5655135Y-8708236D02*
X5674182Y-8708236D01*
X5693230Y-8717760D01*
X5702754Y-8727284D01*
X5712278Y-8746331D01*
X5721801Y-8784427D01*
X5721801Y-8832046D01*
X5712278Y-8870141D01*
X5702754Y-8889189D01*
X5693230Y-8898712D01*
X5674182Y-8908236D01*
X5655135Y-8908236D01*
X5636087Y-8898712D01*
X5626563Y-8889189D01*
X5617039Y-8870141D01*
X5607516Y-8832046D01*
X5607516Y-8784427D01*
X5617039Y-8746331D01*
X5626563Y-8727284D01*
X5636087Y-8717760D01*
X5655135Y-8708236D01*
X5845611Y-8708236D02*
X5864658Y-8708236D01*
X5883706Y-8717760D01*
X5893230Y-8727284D01*
X5902754Y-8746331D01*
X5912278Y-8784427D01*
X5912278Y-8832046D01*
X5902754Y-8870141D01*
X5893230Y-8889189D01*
X5883706Y-8898712D01*
X5864658Y-8908236D01*
X5845611Y-8908236D01*
X5826563Y-8898712D01*
X5817039Y-8889189D01*
X5807516Y-8870141D01*
X5797992Y-8832046D01*
X5797992Y-8784427D01*
X5807516Y-8746331D01*
X5817039Y-8727284D01*
X5826563Y-8717760D01*
X5845611Y-8708236D01*
X5997992Y-8908236D02*
X5997992Y-8774903D01*
X5997992Y-8793950D02*
X6007516Y-8784427D01*
X6026563Y-8774903D01*
X6055135Y-8774903D01*
X6074182Y-8784427D01*
X6083706Y-8803474D01*
X6083706Y-8908236D01*
X6083706Y-8803474D02*
X6093230Y-8784427D01*
X6112278Y-8774903D01*
X6140849Y-8774903D01*
X6159897Y-8784427D01*
X6169420Y-8803474D01*
X6169420Y-8908236D01*
X6264658Y-8908236D02*
X6264658Y-8774903D01*
X6264658Y-8793950D02*
X6274182Y-8784427D01*
X6293230Y-8774903D01*
X6321801Y-8774903D01*
X6340849Y-8784427D01*
X6350373Y-8803474D01*
X6350373Y-8908236D01*
X6350373Y-8803474D02*
X6359897Y-8784427D01*
X6378944Y-8774903D01*
X6407516Y-8774903D01*
X6426563Y-8784427D01*
X6436087Y-8803474D01*
X6436087Y-8908236D01*
X6826563Y-8698712D02*
X6655135Y-8955855D01*
X7083706Y-8708236D02*
X7102754Y-8708236D01*
X7121801Y-8717760D01*
X7131325Y-8727284D01*
X7140849Y-8746331D01*
X7150373Y-8784427D01*
X7150373Y-8832046D01*
X7140849Y-8870141D01*
X7131325Y-8889189D01*
X7121801Y-8898712D01*
X7102754Y-8908236D01*
X7083706Y-8908236D01*
X7064658Y-8898712D01*
X7055135Y-8889189D01*
X7045611Y-8870141D01*
X7036087Y-8832046D01*
X7036087Y-8784427D01*
X7045611Y-8746331D01*
X7055135Y-8727284D01*
X7064658Y-8717760D01*
X7083706Y-8708236D01*
X7236087Y-8889189D02*
X7245611Y-8898712D01*
X7236087Y-8908236D01*
X7226563Y-8898712D01*
X7236087Y-8889189D01*
X7236087Y-8908236D01*
X7369420Y-8708236D02*
X7388468Y-8708236D01*
X7407516Y-8717760D01*
X7417039Y-8727284D01*
X7426563Y-8746331D01*
X7436087Y-8784427D01*
X7436087Y-8832046D01*
X7426563Y-8870141D01*
X7417039Y-8889189D01*
X7407516Y-8898712D01*
X7388468Y-8908236D01*
X7369420Y-8908236D01*
X7350373Y-8898712D01*
X7340849Y-8889189D01*
X7331325Y-8870141D01*
X7321801Y-8832046D01*
X7321801Y-8784427D01*
X7331325Y-8746331D01*
X7340849Y-8727284D01*
X7350373Y-8717760D01*
X7369420Y-8708236D01*
X7617039Y-8708236D02*
X7521801Y-8708236D01*
X7512278Y-8803474D01*
X7521801Y-8793950D01*
X7540849Y-8784427D01*
X7588468Y-8784427D01*
X7607516Y-8793950D01*
X7617039Y-8803474D01*
X7626563Y-8822522D01*
X7626563Y-8870141D01*
X7617039Y-8889189D01*
X7607516Y-8898712D01*
X7588468Y-8908236D01*
X7540849Y-8908236D01*
X7521801Y-8898712D01*
X7512278Y-8889189D01*
X7721801Y-8908236D02*
X7759897Y-8908236D01*
X7778944Y-8898712D01*
X7788468Y-8889189D01*
X7807516Y-8860617D01*
X7817039Y-8822522D01*
X7817039Y-8746331D01*
X7807516Y-8727284D01*
X7797992Y-8717760D01*
X7778944Y-8708236D01*
X7740849Y-8708236D01*
X7721801Y-8717760D01*
X7712278Y-8727284D01*
X7702754Y-8746331D01*
X7702754Y-8793950D01*
X7712278Y-8812998D01*
X7721801Y-8822522D01*
X7740849Y-8832046D01*
X7778944Y-8832046D01*
X7797992Y-8822522D01*
X7807516Y-8812998D01*
X7817039Y-8793950D01*
X8007516Y-8908236D02*
X7893230Y-8908236D01*
X7950373Y-8908236D02*
X7950373Y-8708236D01*
X7931325Y-8736808D01*
X7912278Y-8755855D01*
X7893230Y-8765379D01*
X8083706Y-8708236D02*
X8083706Y-8746331D01*
X8159897Y-8708236D02*
X8159897Y-8746331D01*
X8455135Y-8984427D02*
X8445611Y-8974903D01*
X8426563Y-8946331D01*
X8417040Y-8927284D01*
X8407516Y-8898712D01*
X8397992Y-8851093D01*
X8397992Y-8812998D01*
X8407516Y-8765379D01*
X8417040Y-8736808D01*
X8426563Y-8717760D01*
X8445611Y-8689189D01*
X8455135Y-8679665D01*
X8569420Y-8708236D02*
X8588468Y-8708236D01*
X8607516Y-8717760D01*
X8617040Y-8727284D01*
X8626563Y-8746331D01*
X8636087Y-8784427D01*
X8636087Y-8832046D01*
X8626563Y-8870141D01*
X8617040Y-8889189D01*
X8607516Y-8898712D01*
X8588468Y-8908236D01*
X8569420Y-8908236D01*
X8550373Y-8898712D01*
X8540849Y-8889189D01*
X8531325Y-8870141D01*
X8521801Y-8832046D01*
X8521801Y-8784427D01*
X8531325Y-8746331D01*
X8540849Y-8727284D01*
X8550373Y-8717760D01*
X8569420Y-8708236D01*
X8874182Y-8908236D02*
X8874182Y-8708236D01*
X8959897Y-8908236D02*
X8959897Y-8803474D01*
X8950373Y-8784427D01*
X8931325Y-8774903D01*
X8902754Y-8774903D01*
X8883706Y-8784427D01*
X8874182Y-8793950D01*
X9083706Y-8908236D02*
X9064659Y-8898712D01*
X9055135Y-8889189D01*
X9045611Y-8870141D01*
X9045611Y-8812998D01*
X9055135Y-8793950D01*
X9064659Y-8784427D01*
X9083706Y-8774903D01*
X9112278Y-8774903D01*
X9131325Y-8784427D01*
X9140849Y-8793950D01*
X9150373Y-8812998D01*
X9150373Y-8870141D01*
X9140849Y-8889189D01*
X9131325Y-8898712D01*
X9112278Y-8908236D01*
X9083706Y-8908236D01*
X9264659Y-8908236D02*
X9245611Y-8898712D01*
X9236087Y-8879665D01*
X9236087Y-8708236D01*
X9417040Y-8898712D02*
X9397992Y-8908236D01*
X9359897Y-8908236D01*
X9340849Y-8898712D01*
X9331325Y-8879665D01*
X9331325Y-8803474D01*
X9340849Y-8784427D01*
X9359897Y-8774903D01*
X9397992Y-8774903D01*
X9417040Y-8784427D01*
X9426563Y-8803474D01*
X9426563Y-8822522D01*
X9331325Y-8841570D01*
X9502754Y-8898712D02*
X9521801Y-8908236D01*
X9559897Y-8908236D01*
X9578944Y-8898712D01*
X9588468Y-8879665D01*
X9588468Y-8870141D01*
X9578944Y-8851093D01*
X9559897Y-8841570D01*
X9531325Y-8841570D01*
X9512278Y-8832046D01*
X9502754Y-8812998D01*
X9502754Y-8803474D01*
X9512278Y-8784427D01*
X9531325Y-8774903D01*
X9559897Y-8774903D01*
X9578944Y-8784427D01*
X9826563Y-8832046D02*
X9978944Y-8832046D01*
X9902754Y-8908236D02*
X9902754Y-8755855D01*
X10217040Y-8727284D02*
X10226563Y-8717760D01*
X10245611Y-8708236D01*
X10293230Y-8708236D01*
X10312278Y-8717760D01*
X10321801Y-8727284D01*
X10331325Y-8746331D01*
X10331325Y-8765379D01*
X10321801Y-8793950D01*
X10207516Y-8908236D01*
X10331325Y-8908236D01*
X10559897Y-8898712D02*
X10578944Y-8908236D01*
X10617040Y-8908236D01*
X10636087Y-8898712D01*
X10645611Y-8879665D01*
X10645611Y-8870141D01*
X10636087Y-8851093D01*
X10617040Y-8841570D01*
X10588468Y-8841570D01*
X10569420Y-8832046D01*
X10559897Y-8812998D01*
X10559897Y-8803474D01*
X10569420Y-8784427D01*
X10588468Y-8774903D01*
X10617040Y-8774903D01*
X10636087Y-8784427D01*
X10759897Y-8908236D02*
X10740849Y-8898712D01*
X10731325Y-8879665D01*
X10731325Y-8708236D01*
X10864659Y-8908236D02*
X10845611Y-8898712D01*
X10836087Y-8889189D01*
X10826563Y-8870141D01*
X10826563Y-8812998D01*
X10836087Y-8793950D01*
X10845611Y-8784427D01*
X10864659Y-8774903D01*
X10893230Y-8774903D01*
X10912278Y-8784427D01*
X10921801Y-8793950D01*
X10931325Y-8812998D01*
X10931325Y-8870141D01*
X10921801Y-8889189D01*
X10912278Y-8898712D01*
X10893230Y-8908236D01*
X10864659Y-8908236D01*
X10988468Y-8774903D02*
X11064659Y-8774903D01*
X11017040Y-8708236D02*
X11017040Y-8879665D01*
X11026563Y-8898712D01*
X11045611Y-8908236D01*
X11064659Y-8908236D01*
X11121801Y-8898712D02*
X11140849Y-8908236D01*
X11178944Y-8908236D01*
X11197992Y-8898712D01*
X11207516Y-8879665D01*
X11207516Y-8870141D01*
X11197992Y-8851093D01*
X11178944Y-8841570D01*
X11150373Y-8841570D01*
X11131325Y-8832046D01*
X11121801Y-8812998D01*
X11121801Y-8803474D01*
X11131325Y-8784427D01*
X11150373Y-8774903D01*
X11178944Y-8774903D01*
X11197992Y-8784427D01*
X11274182Y-8984427D02*
X11283706Y-8974903D01*
X11302754Y-8946331D01*
X11312278Y-8927284D01*
X11321801Y-8898712D01*
X11331325Y-8851093D01*
X11331325Y-8812998D01*
X11321801Y-8765379D01*
X11312278Y-8736808D01*
X11302754Y-8717760D01*
X11283706Y-8689189D01*
X11274182Y-8679665D01*
M02*
