G04 #@! TF.GenerationSoftware,KiCad,Pcbnew,(6.0.7)*
G04 #@! TF.CreationDate,2022-11-23T08:19:57-05:00*
G04 #@! TF.ProjectId,powerboard,706f7765-7262-46f6-9172-642e6b696361,rev?*
G04 #@! TF.SameCoordinates,Original*
G04 #@! TF.FileFunction,Copper,L1,Top*
G04 #@! TF.FilePolarity,Positive*
%FSLAX46Y46*%
G04 Gerber Fmt 4.6, Leading zero omitted, Abs format (unit mm)*
G04 Created by KiCad (PCBNEW (6.0.7)) date 2022-11-23 08:19:57*
%MOMM*%
%LPD*%
G01*
G04 APERTURE LIST*
G04 Aperture macros list*
%AMRoundRect*
0 Rectangle with rounded corners*
0 $1 Rounding radius*
0 $2 $3 $4 $5 $6 $7 $8 $9 X,Y pos of 4 corners*
0 Add a 4 corners polygon primitive as box body*
4,1,4,$2,$3,$4,$5,$6,$7,$8,$9,$2,$3,0*
0 Add four circle primitives for the rounded corners*
1,1,$1+$1,$2,$3*
1,1,$1+$1,$4,$5*
1,1,$1+$1,$6,$7*
1,1,$1+$1,$8,$9*
0 Add four rect primitives between the rounded corners*
20,1,$1+$1,$2,$3,$4,$5,0*
20,1,$1+$1,$4,$5,$6,$7,0*
20,1,$1+$1,$6,$7,$8,$9,0*
20,1,$1+$1,$8,$9,$2,$3,0*%
G04 Aperture macros list end*
G04 #@! TA.AperFunction,ComponentPad*
%ADD10C,2.000000*%
G04 #@! TD*
G04 #@! TA.AperFunction,SMDPad,CuDef*
%ADD11RoundRect,0.200000X0.200000X0.275000X-0.200000X0.275000X-0.200000X-0.275000X0.200000X-0.275000X0*%
G04 #@! TD*
G04 #@! TA.AperFunction,ComponentPad*
%ADD12R,1.700000X1.700000*%
G04 #@! TD*
G04 #@! TA.AperFunction,ComponentPad*
%ADD13O,1.700000X1.700000*%
G04 #@! TD*
G04 #@! TA.AperFunction,SMDPad,CuDef*
%ADD14R,0.400000X1.350000*%
G04 #@! TD*
G04 #@! TA.AperFunction,ComponentPad*
%ADD15O,0.890000X1.550000*%
G04 #@! TD*
G04 #@! TA.AperFunction,SMDPad,CuDef*
%ADD16R,1.500000X1.550000*%
G04 #@! TD*
G04 #@! TA.AperFunction,SMDPad,CuDef*
%ADD17R,1.200000X1.550000*%
G04 #@! TD*
G04 #@! TA.AperFunction,ComponentPad*
%ADD18O,1.250000X0.950000*%
G04 #@! TD*
G04 #@! TA.AperFunction,SMDPad,CuDef*
%ADD19RoundRect,0.225000X0.225000X0.250000X-0.225000X0.250000X-0.225000X-0.250000X0.225000X-0.250000X0*%
G04 #@! TD*
G04 #@! TA.AperFunction,SMDPad,CuDef*
%ADD20RoundRect,0.250000X0.250000X0.475000X-0.250000X0.475000X-0.250000X-0.475000X0.250000X-0.475000X0*%
G04 #@! TD*
G04 #@! TA.AperFunction,SMDPad,CuDef*
%ADD21RoundRect,0.225000X-0.225000X-0.250000X0.225000X-0.250000X0.225000X0.250000X-0.225000X0.250000X0*%
G04 #@! TD*
G04 #@! TA.AperFunction,SMDPad,CuDef*
%ADD22RoundRect,0.218750X-0.218750X-0.256250X0.218750X-0.256250X0.218750X0.256250X-0.218750X0.256250X0*%
G04 #@! TD*
G04 #@! TA.AperFunction,SMDPad,CuDef*
%ADD23RoundRect,0.200000X-0.200000X-0.275000X0.200000X-0.275000X0.200000X0.275000X-0.200000X0.275000X0*%
G04 #@! TD*
G04 #@! TA.AperFunction,SMDPad,CuDef*
%ADD24RoundRect,0.140000X0.140000X0.170000X-0.140000X0.170000X-0.140000X-0.170000X0.140000X-0.170000X0*%
G04 #@! TD*
G04 #@! TA.AperFunction,SMDPad,CuDef*
%ADD25RoundRect,0.225000X0.250000X-0.225000X0.250000X0.225000X-0.250000X0.225000X-0.250000X-0.225000X0*%
G04 #@! TD*
G04 #@! TA.AperFunction,SMDPad,CuDef*
%ADD26RoundRect,0.140000X0.170000X-0.140000X0.170000X0.140000X-0.170000X0.140000X-0.170000X-0.140000X0*%
G04 #@! TD*
G04 #@! TA.AperFunction,SMDPad,CuDef*
%ADD27RoundRect,0.140000X-0.170000X0.140000X-0.170000X-0.140000X0.170000X-0.140000X0.170000X0.140000X0*%
G04 #@! TD*
G04 #@! TA.AperFunction,SMDPad,CuDef*
%ADD28RoundRect,0.150000X-0.512500X-0.150000X0.512500X-0.150000X0.512500X0.150000X-0.512500X0.150000X0*%
G04 #@! TD*
G04 #@! TA.AperFunction,ComponentPad*
%ADD29R,2.000000X2.000000*%
G04 #@! TD*
G04 #@! TA.AperFunction,ComponentPad*
%ADD30R,3.200000X2.000000*%
G04 #@! TD*
G04 #@! TA.AperFunction,SMDPad,CuDef*
%ADD31R,1.700000X0.650000*%
G04 #@! TD*
G04 #@! TA.AperFunction,SMDPad,CuDef*
%ADD32R,1.400000X1.200000*%
G04 #@! TD*
G04 #@! TA.AperFunction,SMDPad,CuDef*
%ADD33RoundRect,0.135000X0.185000X-0.135000X0.185000X0.135000X-0.185000X0.135000X-0.185000X-0.135000X0*%
G04 #@! TD*
G04 #@! TA.AperFunction,SMDPad,CuDef*
%ADD34RoundRect,0.050000X-0.387500X-0.050000X0.387500X-0.050000X0.387500X0.050000X-0.387500X0.050000X0*%
G04 #@! TD*
G04 #@! TA.AperFunction,SMDPad,CuDef*
%ADD35RoundRect,0.050000X-0.050000X-0.387500X0.050000X-0.387500X0.050000X0.387500X-0.050000X0.387500X0*%
G04 #@! TD*
G04 #@! TA.AperFunction,ComponentPad*
%ADD36C,0.600000*%
G04 #@! TD*
G04 #@! TA.AperFunction,SMDPad,CuDef*
%ADD37RoundRect,0.144000X-1.456000X-1.456000X1.456000X-1.456000X1.456000X1.456000X-1.456000X1.456000X0*%
G04 #@! TD*
G04 #@! TA.AperFunction,SMDPad,CuDef*
%ADD38RoundRect,0.200000X0.275000X-0.200000X0.275000X0.200000X-0.275000X0.200000X-0.275000X-0.200000X0*%
G04 #@! TD*
G04 #@! TA.AperFunction,SMDPad,CuDef*
%ADD39RoundRect,0.250000X-1.450000X0.312500X-1.450000X-0.312500X1.450000X-0.312500X1.450000X0.312500X0*%
G04 #@! TD*
G04 #@! TA.AperFunction,SMDPad,CuDef*
%ADD40RoundRect,0.250000X-0.250000X-0.475000X0.250000X-0.475000X0.250000X0.475000X-0.250000X0.475000X0*%
G04 #@! TD*
G04 #@! TA.AperFunction,ViaPad*
%ADD41C,0.800000*%
G04 #@! TD*
G04 #@! TA.AperFunction,Conductor*
%ADD42C,0.400000*%
G04 #@! TD*
G04 #@! TA.AperFunction,Conductor*
%ADD43C,0.200000*%
G04 #@! TD*
G04 #@! TA.AperFunction,Conductor*
%ADD44C,1.000000*%
G04 #@! TD*
G04 #@! TA.AperFunction,Conductor*
%ADD45C,0.293370*%
G04 #@! TD*
G04 #@! TA.AperFunction,Conductor*
%ADD46C,0.250000*%
G04 #@! TD*
G04 #@! TA.AperFunction,Conductor*
%ADD47C,0.600000*%
G04 #@! TD*
G04 #@! TA.AperFunction,Conductor*
%ADD48C,0.300000*%
G04 #@! TD*
G04 #@! TA.AperFunction,Conductor*
%ADD49C,0.261112*%
G04 #@! TD*
G04 APERTURE END LIST*
D10*
X125500200Y-37374000D03*
X119000200Y-37374000D03*
X125500200Y-41874000D03*
X119000200Y-41874000D03*
D11*
X74485000Y-48615600D03*
X72835000Y-48615600D03*
D12*
X87975200Y-58978800D03*
D13*
X90515200Y-58978800D03*
X93055200Y-58978800D03*
D14*
X77881000Y-19337000D03*
X77231000Y-19337000D03*
X76581000Y-19337000D03*
X75931000Y-19337000D03*
X75281000Y-19337000D03*
D15*
X80081000Y-16637000D03*
D16*
X75581000Y-16637000D03*
D17*
X79481000Y-16637000D03*
D18*
X74081000Y-19337000D03*
D15*
X73081000Y-16637000D03*
D18*
X79081000Y-19337000D03*
D16*
X77581000Y-16637000D03*
D17*
X73681000Y-16637000D03*
D19*
X70955200Y-50165000D03*
X69405200Y-50165000D03*
D20*
X92075000Y-17018000D03*
X90175000Y-17018000D03*
D10*
X125424000Y-54036400D03*
X118924000Y-54036400D03*
X125424000Y-58536400D03*
X118924000Y-58536400D03*
D20*
X85051750Y-23195200D03*
X83151750Y-23195200D03*
D21*
X115150600Y-39700200D03*
X116700600Y-39700200D03*
D22*
X59461300Y-45821600D03*
X61036300Y-45821600D03*
D20*
X85051750Y-25227200D03*
X83151750Y-25227200D03*
D23*
X114999000Y-59306400D03*
X116649000Y-59306400D03*
D12*
X107340400Y-55676800D03*
D13*
X107340400Y-53136800D03*
X107340400Y-50596800D03*
X107340400Y-48056800D03*
D24*
X128115000Y-30962600D03*
X127155000Y-30962600D03*
D25*
X71805800Y-28486400D03*
X71805800Y-26936400D03*
D12*
X53244200Y-49224800D03*
D13*
X53244200Y-51764800D03*
X53244200Y-54304800D03*
X53244200Y-56844800D03*
X53244200Y-59384800D03*
X53244200Y-61924800D03*
D21*
X115074400Y-56184800D03*
X116624400Y-56184800D03*
D20*
X85077150Y-19131200D03*
X83177150Y-19131200D03*
D21*
X115125200Y-47040800D03*
X116675200Y-47040800D03*
D23*
X60008000Y-24180800D03*
X61658000Y-24180800D03*
X115075200Y-50215800D03*
X116725200Y-50215800D03*
D11*
X108267000Y-22529800D03*
X106617000Y-22529800D03*
D26*
X105105200Y-22463400D03*
X105105200Y-21503400D03*
D27*
X105308400Y-27637800D03*
X105308400Y-28597800D03*
D11*
X64629800Y-40335200D03*
X62979800Y-40335200D03*
X116750600Y-41173400D03*
X115100600Y-41173400D03*
D12*
X78094600Y-58978800D03*
D13*
X80634600Y-58978800D03*
X83174600Y-58978800D03*
D12*
X100533600Y-55676800D03*
D13*
X100533600Y-53136800D03*
X100533600Y-50596800D03*
X100533600Y-48056800D03*
D20*
X92075000Y-21031200D03*
X90175000Y-21031200D03*
D12*
X63068200Y-17729200D03*
D13*
X60528200Y-17729200D03*
D11*
X64629800Y-44983400D03*
X62979800Y-44983400D03*
D28*
X85656650Y-27020400D03*
X85656650Y-27970400D03*
X85656650Y-28920400D03*
X87931650Y-28920400D03*
X87931650Y-27020400D03*
D29*
X110580600Y-22646000D03*
D10*
X110580600Y-27646000D03*
X110580600Y-25146000D03*
D30*
X118080600Y-30746000D03*
X118080600Y-19546000D03*
D10*
X125080600Y-27646000D03*
X125080600Y-22646000D03*
D11*
X64629800Y-41884600D03*
X62979800Y-41884600D03*
D21*
X73672400Y-50215800D03*
X75222400Y-50215800D03*
D20*
X85074800Y-17119600D03*
X83174800Y-17119600D03*
D23*
X115100600Y-42646600D03*
X116750600Y-42646600D03*
D20*
X92075000Y-19024600D03*
X90175000Y-19024600D03*
D31*
X62415400Y-28752800D03*
X62415400Y-30022800D03*
X62415400Y-31292800D03*
X62415400Y-32562800D03*
X69715400Y-32562800D03*
X69715400Y-31292800D03*
X69715400Y-30022800D03*
X69715400Y-28752800D03*
D32*
X73540800Y-51905800D03*
X71340800Y-51905800D03*
X71340800Y-53605800D03*
X73540800Y-53605800D03*
D22*
X59461300Y-42595800D03*
X61036300Y-42595800D03*
X59461300Y-44196000D03*
X61036300Y-44196000D03*
D20*
X92075000Y-23037800D03*
X90175000Y-23037800D03*
D33*
X76377800Y-31294800D03*
X76377800Y-30274800D03*
D11*
X116649000Y-57734200D03*
X114999000Y-57734200D03*
D22*
X59461300Y-47447200D03*
X61036300Y-47447200D03*
D11*
X116725200Y-48641000D03*
X115075200Y-48641000D03*
D12*
X97510600Y-25659000D03*
D13*
X97510600Y-23119000D03*
D20*
X85077150Y-21163200D03*
X83177150Y-21163200D03*
D10*
X125449400Y-44943200D03*
X118949400Y-44943200D03*
X118949400Y-49443200D03*
X125449400Y-49443200D03*
D11*
X108368600Y-27838400D03*
X106718600Y-27838400D03*
D12*
X80545750Y-24460200D03*
D13*
X80545750Y-27000200D03*
D34*
X72276900Y-37245650D03*
X72276900Y-37645650D03*
X72276900Y-38045650D03*
X72276900Y-38445650D03*
X72276900Y-38845650D03*
X72276900Y-39245650D03*
X72276900Y-39645650D03*
X72276900Y-40045650D03*
X72276900Y-40445650D03*
X72276900Y-40845650D03*
X72276900Y-41245650D03*
X72276900Y-41645650D03*
X72276900Y-42045650D03*
X72276900Y-42445650D03*
D35*
X73114400Y-43283150D03*
X73514400Y-43283150D03*
X73914400Y-43283150D03*
X74314400Y-43283150D03*
X74714400Y-43283150D03*
X75114400Y-43283150D03*
X75514400Y-43283150D03*
X75914400Y-43283150D03*
X76314400Y-43283150D03*
X76714400Y-43283150D03*
X77114400Y-43283150D03*
X77514400Y-43283150D03*
X77914400Y-43283150D03*
X78314400Y-43283150D03*
D34*
X79151900Y-42445650D03*
X79151900Y-42045650D03*
X79151900Y-41645650D03*
X79151900Y-41245650D03*
X79151900Y-40845650D03*
X79151900Y-40445650D03*
X79151900Y-40045650D03*
X79151900Y-39645650D03*
X79151900Y-39245650D03*
X79151900Y-38845650D03*
X79151900Y-38445650D03*
X79151900Y-38045650D03*
X79151900Y-37645650D03*
X79151900Y-37245650D03*
D35*
X78314400Y-36408150D03*
X77914400Y-36408150D03*
X77514400Y-36408150D03*
X77114400Y-36408150D03*
X76714400Y-36408150D03*
X76314400Y-36408150D03*
X75914400Y-36408150D03*
X75514400Y-36408150D03*
X75114400Y-36408150D03*
X74714400Y-36408150D03*
X74314400Y-36408150D03*
X73914400Y-36408150D03*
X73514400Y-36408150D03*
X73114400Y-36408150D03*
D36*
X76989400Y-41120650D03*
X74439400Y-39845650D03*
X75714400Y-39845650D03*
X74439400Y-41120650D03*
X75714400Y-41120650D03*
D37*
X75714400Y-39845650D03*
D36*
X76989400Y-38570650D03*
X74439400Y-38570650D03*
X75714400Y-38570650D03*
X76989400Y-39845650D03*
D38*
X127457200Y-29527000D03*
X127457200Y-27877000D03*
D39*
X90881200Y-27047100D03*
X90881200Y-31322100D03*
D12*
X52933600Y-43967400D03*
D13*
X52933600Y-41427400D03*
X52933600Y-38887400D03*
X52933600Y-36347400D03*
X52933600Y-33807400D03*
X52933600Y-31267400D03*
X52933600Y-28727400D03*
X52933600Y-26187400D03*
X52933600Y-23647400D03*
X52933600Y-21107400D03*
D20*
X92075000Y-25069800D03*
X90175000Y-25069800D03*
D40*
X97856000Y-17729200D03*
X99756000Y-17729200D03*
D11*
X64629800Y-43434000D03*
X62979800Y-43434000D03*
D33*
X77444600Y-31294800D03*
X77444600Y-30274800D03*
D41*
X65963800Y-24282400D03*
X103403400Y-42722800D03*
X70637400Y-26720800D03*
X100025200Y-35280600D03*
X99517200Y-19329400D03*
X66395600Y-58216800D03*
X89560400Y-33045400D03*
X52171600Y-16662400D03*
X101930200Y-35280600D03*
X93167200Y-45161200D03*
X81991200Y-34366200D03*
X116255800Y-45212000D03*
X72390000Y-56565800D03*
X58267600Y-44602400D03*
X113436400Y-36931600D03*
X72186800Y-59918600D03*
X67868800Y-24282400D03*
X75717400Y-26822400D03*
X77724000Y-52654200D03*
X88188800Y-50901600D03*
X89560400Y-34696400D03*
X81508600Y-31216600D03*
X81762600Y-21183600D03*
X88188800Y-52552600D03*
X103403400Y-41071800D03*
X67360800Y-50571400D03*
X75107800Y-31064200D03*
X65786000Y-36195000D03*
X105308400Y-41071800D03*
X72186800Y-58267600D03*
X76403200Y-55067200D03*
X105638600Y-36931600D03*
X75717400Y-28473400D03*
X111531400Y-35280600D03*
X67360800Y-52476400D03*
X125704600Y-31445200D03*
X66395600Y-59867800D03*
X123315185Y-64312800D03*
X68300600Y-59867800D03*
X100634800Y-23698200D03*
X93167200Y-43510200D03*
X111531400Y-36931600D03*
X82524600Y-50698400D03*
X91465400Y-34696400D03*
X70281800Y-59918600D03*
X78460600Y-50088800D03*
X105079800Y-20574000D03*
X72263000Y-50241200D03*
X103809800Y-16662400D03*
X101930200Y-36931600D03*
X115951000Y-37896800D03*
X96951800Y-29946600D03*
X95072200Y-43510200D03*
X78079600Y-26847800D03*
X89542260Y-64389000D03*
X91465400Y-33045400D03*
X95072200Y-45161200D03*
X75895200Y-22961600D03*
X69215000Y-48387000D03*
X75260200Y-20802600D03*
X116128800Y-54635400D03*
X70764400Y-47167800D03*
X113436400Y-35280600D03*
X62523920Y-64312800D03*
X66370200Y-61544200D03*
X109728000Y-17145000D03*
X109728000Y-36931600D03*
X107823000Y-35280600D03*
X82524600Y-52349400D03*
X74447400Y-28778200D03*
X103051430Y-64363600D03*
X77393800Y-47980600D03*
X58267600Y-45618400D03*
X95808800Y-28981400D03*
X107823000Y-36931600D03*
X73913500Y-32067147D03*
X103733600Y-36931600D03*
X71247000Y-33553400D03*
X116560600Y-64312800D03*
X88153200Y-21056600D03*
X65963800Y-21005800D03*
X79273400Y-32435800D03*
X69278505Y-64312800D03*
X68300600Y-58216800D03*
X83949350Y-27998550D03*
X75793600Y-47929800D03*
X100634800Y-22047200D03*
X105638600Y-35280600D03*
X69723000Y-24282400D03*
X76033090Y-64287400D03*
X70281800Y-58267600D03*
X109728000Y-35280600D03*
X72161400Y-61595000D03*
X128346200Y-43535600D03*
X128219200Y-50292000D03*
X69723000Y-22656800D03*
X68275200Y-61544200D03*
X128295400Y-36779200D03*
X73583602Y-45923002D03*
X78079600Y-28498800D03*
X85902800Y-33045400D03*
X67868800Y-22656800D03*
X64465200Y-32486600D03*
X75184000Y-53594000D03*
X69494400Y-36347400D03*
X105308400Y-42722800D03*
X125272800Y-17145000D03*
X87807800Y-34696400D03*
X85902800Y-34696400D03*
X100025200Y-36931600D03*
X65963800Y-22656800D03*
X83515200Y-32258000D03*
X86283800Y-50901600D03*
X70256400Y-61595000D03*
X128397000Y-56935917D03*
X58242200Y-46634400D03*
X86283800Y-52552600D03*
X75895200Y-24612600D03*
X128117600Y-64262000D03*
X105460800Y-16662400D03*
X58242200Y-43484800D03*
X69723000Y-21005800D03*
X103733600Y-35280600D03*
X67868800Y-21005800D03*
X105308400Y-29692600D03*
X78079600Y-22987000D03*
X57048400Y-28194000D03*
X96296845Y-64389000D03*
X50520600Y-16662400D03*
X84582000Y-40274815D03*
X78079600Y-24638000D03*
X69037200Y-55448200D03*
X128168400Y-16916400D03*
X87807800Y-33045400D03*
X95046800Y-31597600D03*
X82787675Y-64414400D03*
X109806015Y-64338200D03*
X80086200Y-35280600D03*
X81051400Y-37109400D03*
X70942200Y-36296600D03*
X70017647Y-41367178D03*
X75844400Y-46634400D03*
X83286600Y-40411400D03*
X73228200Y-28727400D03*
X113842800Y-51460400D03*
X113639600Y-60629800D03*
X113538000Y-43942000D03*
X98044000Y-19202400D03*
X75311000Y-32334200D03*
X75184000Y-33578800D03*
X77114400Y-46583600D03*
X78384400Y-34315400D03*
X61315600Y-36423600D03*
X56235600Y-41122600D03*
X59918600Y-39827200D03*
X56108600Y-36372800D03*
X69875400Y-43484800D03*
X68808600Y-42722800D03*
D42*
X75281000Y-19337000D02*
X75281000Y-16937000D01*
D43*
X58699300Y-46634400D02*
X59461300Y-47396400D01*
D44*
X75581000Y-16637000D02*
X73681000Y-16637000D01*
D45*
X118949400Y-37374000D02*
X125449400Y-37374000D01*
D42*
X75172200Y-53605800D02*
X75184000Y-53594000D01*
D43*
X73997805Y-45923002D02*
X73583602Y-45923002D01*
D44*
X90175000Y-17018000D02*
X90175000Y-25069800D01*
D43*
X59258100Y-45618400D02*
X59461300Y-45821600D01*
X58699300Y-43484800D02*
X59461300Y-42722800D01*
D44*
X90175000Y-21031200D02*
X88178600Y-21031200D01*
D43*
X105079800Y-21183000D02*
X105105200Y-21208400D01*
D42*
X70955200Y-50165000D02*
X72186800Y-50165000D01*
D45*
X118924000Y-54036400D02*
X125424000Y-54036400D01*
X116624400Y-56184800D02*
X116624400Y-55131000D01*
D43*
X99517200Y-19329400D02*
X99517200Y-19203000D01*
X74714400Y-43283150D02*
X74714400Y-42367200D01*
D44*
X83177150Y-21163200D02*
X83177150Y-19131200D01*
D43*
X64465200Y-32486600D02*
X64389000Y-32562800D01*
D42*
X73672400Y-50215800D02*
X72288400Y-50215800D01*
D44*
X81762600Y-21183600D02*
X83156750Y-21183600D01*
D43*
X64389000Y-32562800D02*
X62415400Y-32562800D01*
D42*
X72186800Y-50165000D02*
X72263000Y-50241200D01*
D43*
X58267600Y-45618400D02*
X59258100Y-45618400D01*
D44*
X74081000Y-17037000D02*
X73681000Y-16637000D01*
D43*
X59461300Y-44246800D02*
X58623200Y-44246800D01*
D42*
X75260200Y-19352800D02*
X75281000Y-19332000D01*
D43*
X74714400Y-40845650D02*
X75714400Y-39845650D01*
D42*
X74714400Y-42367200D02*
X74714400Y-40845650D01*
X72288400Y-50215800D02*
X72263000Y-50241200D01*
X83151750Y-21188600D02*
X83177150Y-21163200D01*
D43*
X74714400Y-45206407D02*
X73997805Y-45923002D01*
D44*
X83174800Y-17068800D02*
X83174800Y-19128850D01*
D42*
X85628500Y-27998550D02*
X85656650Y-27970400D01*
D44*
X75581000Y-16637000D02*
X77581000Y-16637000D01*
D46*
X125704600Y-31445200D02*
X126545400Y-31445200D01*
X105308400Y-29692600D02*
X105308400Y-28597800D01*
D43*
X58242200Y-46634400D02*
X58699300Y-46634400D01*
D42*
X70955200Y-51520200D02*
X70955200Y-50165000D01*
D47*
X99581000Y-19139200D02*
X99581000Y-17729200D01*
D44*
X79081000Y-19337000D02*
X79081000Y-17037000D01*
D43*
X105079800Y-20574000D02*
X105079800Y-21183000D01*
D45*
X116675200Y-47040800D02*
X116675200Y-45631400D01*
X116700600Y-38646400D02*
X116700600Y-39700200D01*
D43*
X58242200Y-43484800D02*
X58699300Y-43484800D01*
D42*
X75260200Y-20802600D02*
X75260200Y-19352800D01*
D46*
X126545400Y-31445200D02*
X127002600Y-30988000D01*
D45*
X115951000Y-37896800D02*
X116700600Y-38646400D01*
D44*
X83151750Y-25227200D02*
X83151750Y-23195200D01*
D43*
X70637400Y-26720800D02*
X71945200Y-26720800D01*
D45*
X116624400Y-55131000D02*
X116128800Y-54635400D01*
D44*
X77581000Y-16637000D02*
X79481000Y-16637000D01*
D42*
X85605850Y-28021200D02*
X85583200Y-27998550D01*
X83156750Y-21183600D02*
X83177150Y-21163200D01*
X71340800Y-51905800D02*
X70955200Y-51520200D01*
D44*
X83151750Y-23195200D02*
X83151750Y-21188600D01*
X79081000Y-17037000D02*
X79481000Y-16637000D01*
D43*
X99517200Y-19203000D02*
X99581000Y-19139200D01*
D42*
X75281000Y-16937000D02*
X75581000Y-16637000D01*
D47*
X83949350Y-27998550D02*
X85628500Y-27998550D01*
D44*
X74081000Y-19337000D02*
X74081000Y-17037000D01*
D43*
X74714400Y-43283150D02*
X74714400Y-45206407D01*
D42*
X83174800Y-19128850D02*
X83177150Y-19131200D01*
X73540800Y-53605800D02*
X75172200Y-53605800D01*
X85583200Y-27998550D02*
X83949350Y-27998550D01*
D43*
X58623200Y-44246800D02*
X58267600Y-44602400D01*
D45*
X116675200Y-45631400D02*
X116255800Y-45212000D01*
X79806800Y-35788600D02*
X80086200Y-35509200D01*
D47*
X98031000Y-19189400D02*
X98031000Y-17729200D01*
D45*
X75311000Y-32334200D02*
X76174600Y-33197800D01*
D43*
X73202800Y-28752800D02*
X71390400Y-28752800D01*
X76174600Y-35483800D02*
X76314400Y-35623600D01*
D46*
X69715400Y-28752800D02*
X71390400Y-28752800D01*
D45*
X70942200Y-36626800D02*
X71399400Y-37084000D01*
D43*
X75914400Y-35715508D02*
X76006308Y-35623600D01*
X71586450Y-37245650D02*
X72276900Y-37245650D01*
X79984600Y-37261800D02*
X79968450Y-37245650D01*
X71424800Y-37084000D02*
X71586450Y-37245650D01*
D45*
X80873600Y-37287200D02*
X80848200Y-37261800D01*
D43*
X75914400Y-36408150D02*
X75914400Y-35715508D01*
D45*
X71399400Y-37084000D02*
X71424800Y-37084000D01*
D43*
X75914400Y-45980200D02*
X75914400Y-43283150D01*
X76314400Y-36408150D02*
X76314400Y-35623600D01*
D45*
X83286600Y-40436800D02*
X83159600Y-40563800D01*
X76174600Y-33197800D02*
X76174600Y-35483800D01*
D43*
X113538000Y-43942000D02*
X113805200Y-43942000D01*
X70736550Y-40845650D02*
X72276900Y-40845650D01*
D45*
X113944400Y-51346600D02*
X115075200Y-50215800D01*
D43*
X76006308Y-35623600D02*
X76314400Y-35623600D01*
D45*
X75914400Y-46564400D02*
X75914400Y-45980200D01*
D43*
X73228200Y-28727400D02*
X73202800Y-28752800D01*
X81051400Y-37109400D02*
X80873600Y-37287200D01*
X78282800Y-35280600D02*
X77914400Y-35649000D01*
D45*
X80391000Y-40563800D02*
X80238600Y-40716200D01*
D43*
X98044000Y-19202400D02*
X98031000Y-19189400D01*
D45*
X70017647Y-41367178D02*
X70490825Y-40894000D01*
D43*
X79968450Y-37245650D02*
X79151900Y-37245650D01*
X75844400Y-46634400D02*
X75914400Y-46564400D01*
X77914400Y-35649000D02*
X77914400Y-36408150D01*
X78314400Y-36408150D02*
X78314400Y-36036400D01*
D45*
X70490825Y-40894000D02*
X70688200Y-40894000D01*
X83159600Y-40563800D02*
X80391000Y-40563800D01*
D43*
X113639600Y-60629800D02*
X113675600Y-60629800D01*
X70688200Y-40894000D02*
X70736550Y-40845650D01*
D45*
X80848200Y-37261800D02*
X79984600Y-37261800D01*
X78562200Y-35788600D02*
X79806800Y-35788600D01*
D43*
X80238600Y-40716200D02*
X80109150Y-40845650D01*
X80109150Y-40845650D02*
X79151900Y-40845650D01*
D45*
X113675600Y-60629800D02*
X114999000Y-59306400D01*
X113805200Y-43942000D02*
X115100600Y-42646600D01*
X78282800Y-35280600D02*
X80086200Y-35280600D01*
D43*
X80086200Y-35509200D02*
X80086200Y-35280600D01*
X70942200Y-36296600D02*
X70942200Y-36626800D01*
X83286600Y-40411400D02*
X83286600Y-40436800D01*
X78314400Y-36036400D02*
X78562200Y-35788600D01*
X77514400Y-36408150D02*
X77514400Y-37327900D01*
D45*
X77647800Y-35052000D02*
X78384400Y-34315400D01*
D48*
X76301600Y-42189400D02*
X76327000Y-42164000D01*
D45*
X76555600Y-45821600D02*
X77114400Y-46380400D01*
D47*
X77647800Y-37461300D02*
X75517900Y-37461300D01*
X77952600Y-37766100D02*
X77647800Y-37461300D01*
D45*
X77114400Y-46380400D02*
X77114400Y-46583600D01*
D43*
X76314400Y-43283150D02*
X76314400Y-42532200D01*
X76314400Y-45593100D02*
X76314400Y-43283150D01*
X77514400Y-35185400D02*
X77514400Y-36408150D01*
X77647800Y-35052000D02*
X77514400Y-35185400D01*
X76504800Y-45783500D02*
X76314400Y-45593100D01*
D47*
X76327000Y-42164000D02*
X77546200Y-42164000D01*
D43*
X75514400Y-36408150D02*
X75514400Y-36940625D01*
D45*
X75565000Y-33959800D02*
X75565000Y-35433200D01*
D43*
X75514400Y-36940625D02*
X75514400Y-37457800D01*
D45*
X75184000Y-33578800D02*
X75565000Y-33959800D01*
D43*
X75514400Y-35534600D02*
X75514400Y-36940625D01*
D47*
X77546200Y-42164000D02*
X77952600Y-41757600D01*
X77952600Y-41757600D02*
X77952600Y-37766100D01*
D43*
X75514400Y-37457800D02*
X75517900Y-37461300D01*
X77514400Y-37327900D02*
X77647800Y-37461300D01*
D47*
X76301600Y-42443400D02*
X76301600Y-42189400D01*
D42*
X70293600Y-53605800D02*
X69405200Y-52717400D01*
D45*
X72686484Y-46718916D02*
X73842954Y-46718916D01*
X75067715Y-45494155D02*
X75067715Y-45484800D01*
D42*
X69405200Y-50165000D02*
X69405200Y-49974800D01*
D43*
X75114400Y-43283150D02*
X75114400Y-45484800D01*
D45*
X73842954Y-46718916D02*
X74409300Y-46152570D01*
D42*
X71340800Y-53605800D02*
X70293600Y-53605800D01*
X69405200Y-49974800D02*
X71780400Y-47599600D01*
D45*
X74409300Y-46152570D02*
X75067715Y-45494155D01*
D42*
X69405200Y-52717400D02*
X69405200Y-50165000D01*
X71780400Y-47599600D02*
X71805800Y-47599600D01*
X71805800Y-47599600D02*
X72034400Y-47371000D01*
D45*
X72034400Y-47371000D02*
X72686484Y-46718916D01*
D42*
X75222400Y-50224200D02*
X73540800Y-51905800D01*
X74485000Y-49478400D02*
X75222400Y-50215800D01*
X75222400Y-50215800D02*
X75222400Y-50224200D01*
X74485000Y-48615600D02*
X74485000Y-49478400D01*
D43*
X115075200Y-47090800D02*
X115125200Y-47040800D01*
X115075200Y-48641000D02*
X115075200Y-47090800D01*
D45*
X115125200Y-47040800D02*
X108343400Y-40259000D01*
X86654285Y-39562685D02*
X86498200Y-39562685D01*
D43*
X86498200Y-39559000D02*
X83049885Y-39559000D01*
D45*
X108343400Y-40259000D02*
X87350600Y-40259000D01*
X87350600Y-40259000D02*
X86654285Y-39562685D01*
D43*
X83049885Y-39559000D02*
X82563235Y-40045650D01*
X82563235Y-40045650D02*
X79151900Y-40045650D01*
D45*
X114999000Y-57734200D02*
X114999000Y-56260200D01*
X81174285Y-44877685D02*
X78161515Y-44877685D01*
X84099400Y-47802800D02*
X81174285Y-44877685D01*
X108483400Y-61950600D02*
X86715600Y-61950600D01*
D43*
X77514400Y-44183886D02*
X78161515Y-44831000D01*
D45*
X114999000Y-57734200D02*
X112699800Y-57734200D01*
D43*
X114999000Y-56260200D02*
X115074400Y-56184800D01*
D45*
X85750400Y-60985400D02*
X85750400Y-56997600D01*
X86715600Y-61950600D02*
X85750400Y-60985400D01*
X84099400Y-55346600D02*
X84099400Y-47802800D01*
X112699800Y-57734200D02*
X108483400Y-61950600D01*
D43*
X77514400Y-43283150D02*
X77514400Y-44183886D01*
D45*
X85750400Y-56997600D02*
X84099400Y-55346600D01*
D43*
X87045800Y-39243000D02*
X87147400Y-39243000D01*
X114693400Y-39243000D02*
X115150600Y-39700200D01*
X86918800Y-39116000D02*
X87045800Y-39243000D01*
D45*
X115100600Y-41173400D02*
X115100600Y-39750200D01*
D43*
X115100600Y-39750200D02*
X115150600Y-39700200D01*
D45*
X87147400Y-39243000D02*
X114693400Y-39243000D01*
D43*
X79151900Y-39645650D02*
X82020350Y-39645650D01*
X82020350Y-39645650D02*
X82550000Y-39116000D01*
X82550000Y-39116000D02*
X86918800Y-39116000D01*
D49*
X77444600Y-30251400D02*
X77444600Y-30274800D01*
X77231000Y-20367001D02*
X77138156Y-20459845D01*
X77231000Y-19332000D02*
X77231000Y-20367001D01*
X77138156Y-20459845D02*
X77138156Y-29944956D01*
X77138156Y-29944956D02*
X77444600Y-30251400D01*
X76673844Y-20459845D02*
X76673844Y-30004156D01*
X76581000Y-20367001D02*
X76673844Y-20459845D01*
X76673844Y-30004156D02*
X76648444Y-30004156D01*
X76648444Y-30004156D02*
X76377800Y-30274800D01*
X76581000Y-19332000D02*
X76581000Y-20367001D01*
D42*
X60008000Y-24180800D02*
X60528200Y-23660600D01*
X60528200Y-23660600D02*
X60528200Y-17729200D01*
D43*
X70942200Y-37414200D02*
X69392800Y-37414200D01*
D45*
X69011800Y-37033200D02*
X69392800Y-37414200D01*
D43*
X71173650Y-37645650D02*
X70942200Y-37414200D01*
D45*
X61315600Y-36423600D02*
X61315600Y-36906200D01*
X61442600Y-37033200D02*
X69011800Y-37033200D01*
X56235600Y-41122600D02*
X55930800Y-41427400D01*
X61315600Y-36906200D02*
X61442600Y-37033200D01*
X55930800Y-41427400D02*
X52933600Y-41427400D01*
D43*
X72276900Y-37645650D02*
X71173650Y-37645650D01*
X68496835Y-38847625D02*
X68450150Y-38894310D01*
D45*
X60375800Y-39319200D02*
X68025260Y-39319200D01*
D43*
X69221348Y-38845650D02*
X69219373Y-38847625D01*
X72276900Y-38845650D02*
X69221348Y-38845650D01*
D45*
X59918600Y-39776400D02*
X60375800Y-39319200D01*
X59918600Y-39827200D02*
X59918600Y-39776400D01*
D43*
X69219373Y-38847625D02*
X68496835Y-38847625D01*
D45*
X56083200Y-36347400D02*
X52933600Y-36347400D01*
X56108600Y-36372800D02*
X56083200Y-36347400D01*
X68025260Y-39319200D02*
X68450150Y-38894310D01*
D43*
X69273720Y-37896800D02*
X69262950Y-37907570D01*
X70840600Y-37896800D02*
X69273720Y-37896800D01*
D45*
X69188440Y-37907570D02*
X69076070Y-37795200D01*
D43*
X72276900Y-38045650D02*
X70989450Y-38045650D01*
D45*
X55803800Y-33807400D02*
X52933600Y-33807400D01*
D43*
X70989450Y-38045650D02*
X70840600Y-37896800D01*
D45*
X69262950Y-37907570D02*
X69188440Y-37907570D01*
X69076070Y-37795200D02*
X59791600Y-37795200D01*
X59791600Y-37795200D02*
X55803800Y-33807400D01*
D43*
X69077847Y-38357443D02*
X69034350Y-38400940D01*
X70735557Y-38357443D02*
X69077847Y-38357443D01*
D45*
X53263800Y-38557200D02*
X52933600Y-38887400D01*
D43*
X72276900Y-38445650D02*
X70823764Y-38445650D01*
D45*
X69034350Y-38400940D02*
X68245790Y-38400940D01*
X68089530Y-38557200D02*
X53263800Y-38557200D01*
D43*
X70823764Y-38445650D02*
X70735557Y-38357443D01*
D45*
X68245790Y-38400940D02*
X68089530Y-38557200D01*
D47*
X90854500Y-27020400D02*
X90881200Y-27047100D01*
X87931650Y-27020400D02*
X90854500Y-27020400D01*
D43*
X76714400Y-31631400D02*
X76377800Y-31294800D01*
X76714400Y-36408150D02*
X76714400Y-31631400D01*
X77137800Y-31601600D02*
X77444600Y-31294800D01*
X77114400Y-36408150D02*
X77114400Y-31601600D01*
X77114400Y-31601600D02*
X77137800Y-31601600D01*
D45*
X61632600Y-27970000D02*
X62415400Y-28752800D01*
X70129400Y-35382200D02*
X61061600Y-35382200D01*
D43*
X73114400Y-36408150D02*
X73114400Y-35648400D01*
D45*
X59867800Y-29387800D02*
X60502800Y-28752800D01*
X59867800Y-34188400D02*
X59867800Y-29387800D01*
D43*
X73114400Y-35648400D02*
X72848200Y-35382200D01*
X72848200Y-35382200D02*
X70129400Y-35382200D01*
D45*
X61658000Y-24180800D02*
X61658000Y-25755600D01*
X61061600Y-35382200D02*
X59867800Y-34188400D01*
X60502800Y-28752800D02*
X62415400Y-28752800D01*
X61632600Y-25781000D02*
X61632600Y-27970000D01*
D43*
X61658000Y-25755600D02*
X61632600Y-25781000D01*
D42*
X72835000Y-48615600D02*
X72835000Y-47506106D01*
D45*
X74996543Y-46263057D02*
X74047314Y-47212286D01*
D43*
X75514400Y-45770600D02*
X75021943Y-46263057D01*
X75021943Y-46263057D02*
X74996543Y-46263057D01*
X75514400Y-43283150D02*
X75514400Y-45770600D01*
D45*
X74047314Y-47212286D02*
X73132914Y-47212286D01*
D42*
X72835000Y-47506106D02*
X73058110Y-47282996D01*
D45*
X118949400Y-49443200D02*
X125449400Y-49443200D01*
X116725200Y-50215800D02*
X117497800Y-49443200D01*
X117497800Y-49443200D02*
X118949400Y-49443200D01*
X116725200Y-48641000D02*
X116725200Y-50215800D01*
X116649000Y-57734200D02*
X116649000Y-59306400D01*
X118924000Y-58536400D02*
X125424000Y-58536400D01*
X116649000Y-59306400D02*
X117419000Y-58536400D01*
X117419000Y-58536400D02*
X118924000Y-58536400D01*
X117451200Y-41874000D02*
X118949400Y-41874000D01*
X116750600Y-41173400D02*
X117451200Y-41874000D01*
X118949400Y-41874000D02*
X125449400Y-41874000D01*
D43*
X116750600Y-41173400D02*
X116750600Y-42646600D01*
D46*
X61240400Y-30642800D02*
X61240400Y-33212800D01*
D43*
X73514400Y-36408150D02*
X73514400Y-35482715D01*
D46*
X62208277Y-34180677D02*
X69146523Y-34180677D01*
X61860400Y-30022800D02*
X61240400Y-30642800D01*
X61240400Y-33212800D02*
X62208277Y-34180677D01*
D43*
X69926200Y-34925000D02*
X69164200Y-34163000D01*
X72956685Y-34925000D02*
X69926200Y-34925000D01*
D46*
X62415400Y-30022800D02*
X61860400Y-30022800D01*
D43*
X73514400Y-35482715D02*
X72956685Y-34925000D01*
X67791677Y-33755677D02*
X69246800Y-33755677D01*
X65328800Y-31292800D02*
X62415400Y-31292800D01*
X69920486Y-34353600D02*
X69329886Y-33763000D01*
X69246800Y-33763000D02*
X69240400Y-33756600D01*
X65328800Y-31292800D02*
X67791677Y-33755677D01*
X69329886Y-33763000D02*
X69246800Y-33763000D01*
X72961600Y-34353600D02*
X69920486Y-34353600D01*
X73914400Y-36408150D02*
X73914400Y-35306400D01*
X73914400Y-35306400D02*
X72961600Y-34353600D01*
X69806086Y-32562800D02*
X69760743Y-32517457D01*
X71736486Y-32562800D02*
X69806086Y-32562800D01*
X74314400Y-36408150D02*
X74314400Y-35140714D01*
X74314400Y-35140714D02*
X71736486Y-32562800D01*
X74714400Y-34975028D02*
X71032172Y-31292800D01*
X71032172Y-31292800D02*
X69715400Y-31292800D01*
X74714400Y-36408150D02*
X74714400Y-34975028D01*
X70561200Y-30022800D02*
X69715400Y-30022800D01*
X75114400Y-36408150D02*
X75114400Y-34576000D01*
X75114400Y-34576000D02*
X70561200Y-30022800D01*
X71289150Y-42045650D02*
X71145400Y-42189400D01*
X71289150Y-42045650D02*
X72276900Y-42045650D01*
D45*
X69875400Y-43459400D02*
X71145400Y-42189400D01*
D43*
X69875400Y-43484800D02*
X69875400Y-43459400D01*
D45*
X68808600Y-42722800D02*
X69037200Y-42494200D01*
X70876350Y-41645650D02*
X70927150Y-41645650D01*
X70027800Y-42494200D02*
X70876350Y-41645650D01*
D43*
X70927150Y-41645650D02*
X72276900Y-41645650D01*
D45*
X69037200Y-42494200D02*
X70027800Y-42494200D01*
D43*
X82321400Y-38582600D02*
X82058350Y-38845650D01*
D45*
X127076200Y-32842200D02*
X128066800Y-31851600D01*
X82550000Y-38582600D02*
X94685086Y-38582600D01*
X100425486Y-32842200D02*
X127076200Y-32842200D01*
D43*
X100400086Y-32867600D02*
X100425486Y-32842200D01*
X100400086Y-32867600D02*
X100406200Y-32867600D01*
X128066800Y-30126400D02*
X127254000Y-29313600D01*
X82550000Y-38582600D02*
X82321400Y-38582600D01*
X82058350Y-38845650D02*
X79151900Y-38845650D01*
D45*
X94685086Y-38582600D02*
X100400086Y-32867600D01*
X128066800Y-31851600D02*
X128066800Y-30126400D01*
D46*
X106518000Y-27637800D02*
X106718600Y-27838400D01*
D45*
X103949800Y-27596800D02*
X105105200Y-27596800D01*
X82677000Y-37871400D02*
X83083400Y-37465000D01*
D43*
X82677000Y-37871400D02*
X82359727Y-37871400D01*
X81785477Y-38445650D02*
X79151900Y-38445650D01*
D45*
X105308400Y-27637800D02*
X106518000Y-27637800D01*
D43*
X82359727Y-37871400D02*
X81785477Y-38445650D01*
D45*
X83083400Y-37465000D02*
X94081600Y-37465000D01*
X94081600Y-37465000D02*
X103949800Y-27596800D01*
D43*
X74314400Y-44202254D02*
X72413549Y-46103105D01*
D45*
X55928400Y-56466600D02*
X56378400Y-56466600D01*
X56528400Y-56616600D02*
X59842400Y-56616600D01*
X70355895Y-46103105D02*
X72290505Y-46103105D01*
X59842400Y-56616600D02*
X70355895Y-46103105D01*
D43*
X74314400Y-43283150D02*
X74314400Y-44202254D01*
X72413549Y-46103105D02*
X72290505Y-46103105D01*
D45*
X53721000Y-56616600D02*
X55778400Y-56616600D01*
X56528400Y-56616600D02*
G75*
G02*
X56453400Y-56541600I0J75000D01*
G01*
X55853400Y-56541600D02*
G75*
G02*
X55778400Y-56616600I-75000J0D01*
G01*
X55928400Y-56466600D02*
G75*
G03*
X55853400Y-56541600I0J-75000D01*
G01*
X56453400Y-56541600D02*
G75*
G03*
X56378400Y-56466600I-75000J0D01*
G01*
X56027600Y-53776600D02*
X56027600Y-53276600D01*
X60807600Y-54076600D02*
X69274465Y-45609735D01*
X56927600Y-54076600D02*
X60807600Y-54076600D01*
D43*
X73914400Y-44010914D02*
X73914400Y-43283150D01*
X72315579Y-45609735D02*
X72093865Y-45609735D01*
D45*
X69274465Y-45609735D02*
X72093865Y-45609735D01*
X53721000Y-54076600D02*
X55727600Y-54076600D01*
D43*
X72315579Y-45609735D02*
X73914400Y-44010914D01*
D45*
X56627600Y-53276600D02*
X56627600Y-53776600D01*
X56927600Y-54076600D02*
G75*
G02*
X56627600Y-53776600I0J300000D01*
G01*
X56327600Y-52976600D02*
G75*
G03*
X56027600Y-53276600I0J-300000D01*
G01*
X56627600Y-53276600D02*
G75*
G03*
X56327600Y-52976600I-300000J0D01*
G01*
X56027600Y-53776600D02*
G75*
G02*
X55727600Y-54076600I-300000J0D01*
G01*
X79375000Y-46177200D02*
X80213200Y-47015400D01*
X80213200Y-57816200D02*
X80639600Y-58242600D01*
X77851000Y-46177200D02*
X79375000Y-46177200D01*
X80213200Y-47015400D02*
X80213200Y-57816200D01*
D43*
X76714400Y-45040600D02*
X77851000Y-46177200D01*
X76714400Y-43283150D02*
X76714400Y-45040600D01*
D45*
X77793314Y-45466000D02*
X80175000Y-45466000D01*
X81254600Y-46075600D02*
X81254600Y-57058800D01*
D43*
X77542757Y-45215443D02*
X77793314Y-45466000D01*
X77114400Y-43283150D02*
X77114400Y-44787086D01*
D45*
X81254600Y-57058800D02*
X83174600Y-58978800D01*
X81254600Y-46075600D02*
X80645000Y-45466000D01*
X80645000Y-45466000D02*
X80175000Y-45466000D01*
D43*
X77114400Y-44787086D02*
X77542757Y-45215443D01*
D45*
X82575400Y-45110400D02*
X83972400Y-45110400D01*
D43*
X78327200Y-44431000D02*
X77914400Y-44018200D01*
D45*
X83972400Y-45110400D02*
X89865200Y-51003200D01*
X89865200Y-57592600D02*
X90515200Y-58242600D01*
D43*
X77914400Y-44018200D02*
X77914400Y-43283150D01*
X82042000Y-44577000D02*
X81896000Y-44431000D01*
X81896000Y-44431000D02*
X78327200Y-44431000D01*
D45*
X82042000Y-44577000D02*
X82575400Y-45110400D01*
X89865200Y-51003200D02*
X89865200Y-57592600D01*
X85509200Y-44031000D02*
X93065600Y-51587400D01*
X93065600Y-51587400D02*
X93065600Y-58968400D01*
X93065600Y-58968400D02*
X93055200Y-58978800D01*
X82435600Y-44031000D02*
X85509200Y-44031000D01*
D43*
X78529775Y-44031000D02*
X82435600Y-44031000D01*
X78314400Y-43815625D02*
X78529775Y-44031000D01*
X78314400Y-43283150D02*
X78314400Y-43815625D01*
D45*
X98247200Y-41859200D02*
X103454200Y-47066200D01*
X88573243Y-41859200D02*
X81991200Y-41859200D01*
X105613200Y-55676800D02*
X107340400Y-55676800D01*
X88573243Y-41859200D02*
X98247200Y-41859200D01*
X103454200Y-53517800D02*
X105613200Y-55676800D01*
X81991200Y-41859200D02*
X81051400Y-41859200D01*
D43*
X79151900Y-41645650D02*
X80380650Y-41645650D01*
X80380650Y-41645650D02*
X80594200Y-41859200D01*
X80594200Y-41859200D02*
X81051400Y-41859200D01*
D45*
X103454200Y-47066200D02*
X103454200Y-53517800D01*
D43*
X83729235Y-41245650D02*
X83953885Y-41021000D01*
D45*
X99593400Y-41021000D02*
X104724200Y-46151800D01*
X104724200Y-52959000D02*
X104902000Y-53136800D01*
D43*
X79151900Y-41245650D02*
X83729235Y-41245650D01*
D45*
X83953885Y-41021000D02*
X99593400Y-41021000D01*
X104724200Y-46151800D02*
X104724200Y-52959000D01*
X104902000Y-53136800D02*
X107340400Y-53136800D01*
X103479600Y-25400000D02*
X103479600Y-23876000D01*
D43*
X81619791Y-38045650D02*
X82505241Y-37160200D01*
D45*
X106617000Y-22529800D02*
X105171600Y-22529800D01*
D46*
X105105200Y-22463400D02*
X104892200Y-22463400D01*
D43*
X79151900Y-38045650D02*
X81619791Y-38045650D01*
D46*
X105171600Y-22529800D02*
X105105200Y-22463400D01*
D45*
X83597441Y-36068000D02*
X92811600Y-36068000D01*
X92811600Y-36068000D02*
X103479600Y-25400000D01*
X103479600Y-23876000D02*
X104892200Y-22463400D01*
X82505241Y-37160200D02*
X83597441Y-36068000D01*
D43*
X72243263Y-45116365D02*
X72177241Y-45116365D01*
D45*
X53721000Y-51536600D02*
X57759600Y-51536600D01*
X68370835Y-45116365D02*
X72177241Y-45116365D01*
X61950600Y-51536600D02*
X68370835Y-45116365D01*
X59134600Y-50811600D02*
X59134600Y-51261600D01*
D43*
X73514400Y-43283150D02*
X73514400Y-43845228D01*
D45*
X58034600Y-51811600D02*
X58034600Y-52261600D01*
X58584600Y-52261600D02*
X58584600Y-50811600D01*
X59409600Y-51536600D02*
X61950600Y-51536600D01*
D43*
X73514400Y-43845228D02*
X72243263Y-45116365D01*
D45*
X59134600Y-50811600D02*
G75*
G03*
X58859600Y-50536600I-275000J0D01*
G01*
X58584600Y-52261600D02*
G75*
G02*
X58309600Y-52536600I-275000J0D01*
G01*
X58859600Y-50536600D02*
G75*
G03*
X58584600Y-50811600I0J-275000D01*
G01*
X58309600Y-52536600D02*
G75*
G02*
X58034600Y-52261600I0J275000D01*
G01*
X59409600Y-51536600D02*
G75*
G02*
X59134600Y-51261600I0J275000D01*
G01*
X58034600Y-51811600D02*
G75*
G03*
X57759600Y-51536600I-275000J0D01*
G01*
D43*
X73114400Y-43573200D02*
X72085200Y-44602400D01*
D45*
X72085200Y-44602400D02*
X67564000Y-44602400D01*
X63169800Y-48996600D02*
X53721000Y-48996600D01*
D43*
X73114400Y-43283150D02*
X73114400Y-43573200D01*
D45*
X67564000Y-44602400D02*
X63169800Y-48996600D01*
D43*
X61036300Y-42722800D02*
X61036300Y-42278700D01*
X61036300Y-42278700D02*
X62979800Y-40335200D01*
X61773800Y-43090600D02*
X62979800Y-41884600D01*
X61036300Y-44246800D02*
X61773800Y-43509300D01*
X61773800Y-43509300D02*
X61773800Y-43090600D01*
X61773800Y-45084100D02*
X61773800Y-44640000D01*
X61036300Y-45821600D02*
X61773800Y-45084100D01*
X61773800Y-44640000D02*
X62979800Y-43434000D01*
X61036300Y-47396400D02*
X62979800Y-45452900D01*
X62979800Y-45452900D02*
X62979800Y-44983400D01*
X72276900Y-39245650D02*
X69313950Y-39245650D01*
X68224400Y-40335200D02*
X64629800Y-40335200D01*
X69313950Y-39245650D02*
X68224400Y-40335200D01*
X69479636Y-39645650D02*
X72276900Y-39645650D01*
X67240686Y-41884600D02*
X69479636Y-39645650D01*
X64629800Y-41884600D02*
X67240686Y-41884600D01*
X64629800Y-43434000D02*
X66268600Y-43434000D01*
X69656950Y-40045650D02*
X72276900Y-40045650D01*
X66268600Y-43434000D02*
X69656950Y-40045650D01*
X65303400Y-44983400D02*
X69841150Y-40445650D01*
X69841150Y-40445650D02*
X72276900Y-40445650D01*
X64629800Y-44983400D02*
X65303400Y-44983400D01*
D45*
X86918800Y-43230800D02*
X99304000Y-55616000D01*
X99304000Y-55616000D02*
X100533600Y-55616000D01*
D43*
X79809050Y-42445650D02*
X80594200Y-43230800D01*
X79151900Y-42445650D02*
X79809050Y-42445650D01*
D45*
X80594200Y-43230800D02*
X86918800Y-43230800D01*
X89103200Y-42494200D02*
X99685000Y-53076000D01*
D43*
X79151900Y-42045650D02*
X79974736Y-42045650D01*
X79974736Y-42045650D02*
X80423286Y-42494200D01*
D45*
X99685000Y-53076000D02*
X100533600Y-53076000D01*
D43*
X80423286Y-42494200D02*
X80822800Y-42494200D01*
D45*
X80822800Y-42494200D02*
X89103200Y-42494200D01*
D47*
X85281850Y-28898550D02*
X82898950Y-28898550D01*
D44*
X85656650Y-25832100D02*
X85051750Y-25227200D01*
D42*
X85051750Y-21188600D02*
X85077150Y-21163200D01*
D47*
X81244400Y-26827600D02*
X83322500Y-26827600D01*
X82666800Y-27396400D02*
X82931000Y-27132200D01*
D44*
X85051750Y-25227200D02*
X85051750Y-23195200D01*
X85656650Y-26687550D02*
X85656650Y-25832100D01*
X85077150Y-19131200D02*
X85077150Y-21163200D01*
D47*
X82666800Y-28666400D02*
X82666800Y-27396400D01*
X82898950Y-28898550D02*
X82666800Y-28666400D01*
D44*
X85074800Y-17068800D02*
X85074800Y-19128850D01*
D47*
X83134200Y-26847800D02*
X85618700Y-26847800D01*
D44*
X85051750Y-23195200D02*
X85051750Y-21188600D01*
D42*
X85074800Y-19128850D02*
X85077150Y-19131200D01*
D44*
X85648800Y-26695400D02*
X85656650Y-26687550D01*
D47*
X77978000Y-21176100D02*
X80203000Y-23401100D01*
D42*
X80203000Y-24117450D02*
X80545750Y-24460200D01*
D47*
X80203000Y-23401100D02*
X80203000Y-24117450D01*
D42*
X77870800Y-19928900D02*
X77870800Y-21113000D01*
D43*
X125080600Y-27646000D02*
X127226200Y-27646000D01*
X127226200Y-27646000D02*
X127457200Y-27877000D01*
D45*
X110580600Y-22646000D02*
X108383200Y-22646000D01*
D46*
X108383200Y-22646000D02*
X108267000Y-22529800D01*
X110388200Y-27838400D02*
X110580600Y-27646000D01*
D45*
X108368600Y-27838400D02*
X110388200Y-27838400D01*
D44*
X92075000Y-25069800D02*
X92075000Y-16422500D01*
D47*
X88726100Y-31322100D02*
X89205256Y-31322100D01*
D44*
X93934200Y-25659000D02*
X93934200Y-30754400D01*
X93345000Y-25069800D02*
X93934200Y-25659000D01*
X97510600Y-25659000D02*
X93934200Y-25659000D01*
X93366500Y-31322100D02*
X92673164Y-31322100D01*
X92075000Y-25069800D02*
X93345000Y-25069800D01*
D47*
X87931650Y-30527650D02*
X88726100Y-31322100D01*
X87931650Y-28920400D02*
X87931650Y-30527650D01*
D44*
X93934200Y-30754400D02*
X93366500Y-31322100D01*
M02*
