G04 #@! TF.GenerationSoftware,KiCad,Pcbnew,(6.0.7)*
G04 #@! TF.CreationDate,2022-09-29T16:42:06-04:00*
G04 #@! TF.ProjectId,powerboard,706f7765-7262-46f6-9172-642e6b696361,rev?*
G04 #@! TF.SameCoordinates,Original*
G04 #@! TF.FileFunction,Legend,Top*
G04 #@! TF.FilePolarity,Positive*
%FSLAX46Y46*%
G04 Gerber Fmt 4.6, Leading zero omitted, Abs format (unit mm)*
G04 Created by KiCad (PCBNEW (6.0.7)) date 2022-09-29 16:42:06*
%MOMM*%
%LPD*%
G01*
G04 APERTURE LIST*
G04 Aperture macros list*
%AMRoundRect*
0 Rectangle with rounded corners*
0 $1 Rounding radius*
0 $2 $3 $4 $5 $6 $7 $8 $9 X,Y pos of 4 corners*
0 Add a 4 corners polygon primitive as box body*
4,1,4,$2,$3,$4,$5,$6,$7,$8,$9,$2,$3,0*
0 Add four circle primitives for the rounded corners*
1,1,$1+$1,$2,$3*
1,1,$1+$1,$4,$5*
1,1,$1+$1,$6,$7*
1,1,$1+$1,$8,$9*
0 Add four rect primitives between the rounded corners*
20,1,$1+$1,$2,$3,$4,$5,0*
20,1,$1+$1,$4,$5,$6,$7,0*
20,1,$1+$1,$6,$7,$8,$9,0*
20,1,$1+$1,$8,$9,$2,$3,0*%
G04 Aperture macros list end*
%ADD10C,0.150000*%
%ADD11C,0.200000*%
%ADD12C,0.120000*%
%ADD13C,2.000000*%
%ADD14RoundRect,0.200000X0.200000X0.275000X-0.200000X0.275000X-0.200000X-0.275000X0.200000X-0.275000X0*%
%ADD15R,1.700000X1.700000*%
%ADD16O,1.700000X1.700000*%
%ADD17R,0.400000X1.350000*%
%ADD18O,0.890000X1.550000*%
%ADD19R,1.500000X1.550000*%
%ADD20R,1.200000X1.550000*%
%ADD21O,1.250000X0.950000*%
%ADD22RoundRect,0.225000X0.225000X0.250000X-0.225000X0.250000X-0.225000X-0.250000X0.225000X-0.250000X0*%
%ADD23RoundRect,0.250000X-0.250000X-0.475000X0.250000X-0.475000X0.250000X0.475000X-0.250000X0.475000X0*%
%ADD24RoundRect,0.250000X0.250000X0.475000X-0.250000X0.475000X-0.250000X-0.475000X0.250000X-0.475000X0*%
%ADD25RoundRect,0.225000X-0.225000X-0.250000X0.225000X-0.250000X0.225000X0.250000X-0.225000X0.250000X0*%
%ADD26RoundRect,0.218750X-0.218750X-0.256250X0.218750X-0.256250X0.218750X0.256250X-0.218750X0.256250X0*%
%ADD27RoundRect,0.200000X-0.200000X-0.275000X0.200000X-0.275000X0.200000X0.275000X-0.200000X0.275000X0*%
%ADD28RoundRect,0.140000X0.170000X-0.140000X0.170000X0.140000X-0.170000X0.140000X-0.170000X-0.140000X0*%
%ADD29RoundRect,0.200000X-0.275000X0.200000X-0.275000X-0.200000X0.275000X-0.200000X0.275000X0.200000X0*%
%ADD30RoundRect,0.140000X-0.170000X0.140000X-0.170000X-0.140000X0.170000X-0.140000X0.170000X0.140000X0*%
%ADD31RoundRect,0.150000X-0.512500X-0.150000X0.512500X-0.150000X0.512500X0.150000X-0.512500X0.150000X0*%
%ADD32R,2.000000X2.000000*%
%ADD33R,3.200000X2.000000*%
%ADD34R,1.700000X0.650000*%
%ADD35R,1.400000X1.200000*%
%ADD36RoundRect,0.135000X0.185000X-0.135000X0.185000X0.135000X-0.185000X0.135000X-0.185000X-0.135000X0*%
%ADD37RoundRect,0.200000X0.275000X-0.200000X0.275000X0.200000X-0.275000X0.200000X-0.275000X-0.200000X0*%
%ADD38RoundRect,0.050000X-0.387500X-0.050000X0.387500X-0.050000X0.387500X0.050000X-0.387500X0.050000X0*%
%ADD39RoundRect,0.050000X-0.050000X-0.387500X0.050000X-0.387500X0.050000X0.387500X-0.050000X0.387500X0*%
%ADD40RoundRect,0.144000X-1.456000X-1.456000X1.456000X-1.456000X1.456000X1.456000X-1.456000X1.456000X0*%
%ADD41RoundRect,0.250000X1.450000X-0.312500X1.450000X0.312500X-1.450000X0.312500X-1.450000X-0.312500X0*%
G04 APERTURE END LIST*
D10*
X55753095Y-20124800D02*
X55657857Y-20077180D01*
X55515000Y-20077180D01*
X55372142Y-20124800D01*
X55276904Y-20220038D01*
X55229285Y-20315276D01*
X55181666Y-20505752D01*
X55181666Y-20648609D01*
X55229285Y-20839085D01*
X55276904Y-20934323D01*
X55372142Y-21029561D01*
X55515000Y-21077180D01*
X55610238Y-21077180D01*
X55753095Y-21029561D01*
X55800714Y-20981942D01*
X55800714Y-20648609D01*
X55610238Y-20648609D01*
X56229285Y-21077180D02*
X56229285Y-20077180D01*
X56800714Y-21077180D01*
X56800714Y-20077180D01*
X57276904Y-21077180D02*
X57276904Y-20077180D01*
X57515000Y-20077180D01*
X57657857Y-20124800D01*
X57753095Y-20220038D01*
X57800714Y-20315276D01*
X57848333Y-20505752D01*
X57848333Y-20648609D01*
X57800714Y-20839085D01*
X57753095Y-20934323D01*
X57657857Y-21029561D01*
X57515000Y-21077180D01*
X57276904Y-21077180D01*
X56221333Y-51893742D02*
X56173714Y-51941361D01*
X56030857Y-51988980D01*
X55935619Y-51988980D01*
X55792761Y-51941361D01*
X55697523Y-51846123D01*
X55649904Y-51750885D01*
X55602285Y-51560409D01*
X55602285Y-51417552D01*
X55649904Y-51227076D01*
X55697523Y-51131838D01*
X55792761Y-51036600D01*
X55935619Y-50988980D01*
X56030857Y-50988980D01*
X56173714Y-51036600D01*
X56221333Y-51084219D01*
X56602285Y-51941361D02*
X56745142Y-51988980D01*
X56983238Y-51988980D01*
X57078476Y-51941361D01*
X57126095Y-51893742D01*
X57173714Y-51798504D01*
X57173714Y-51703266D01*
X57126095Y-51608028D01*
X57078476Y-51560409D01*
X56983238Y-51512790D01*
X56792761Y-51465171D01*
X56697523Y-51417552D01*
X56649904Y-51369933D01*
X56602285Y-51274695D01*
X56602285Y-51179457D01*
X56649904Y-51084219D01*
X56697523Y-51036600D01*
X56792761Y-50988980D01*
X57030857Y-50988980D01*
X57173714Y-51036600D01*
D11*
X128188980Y-57687980D02*
X127712790Y-58021314D01*
X128188980Y-58259409D02*
X127188980Y-58259409D01*
X127188980Y-57878457D01*
X127236600Y-57783219D01*
X127284219Y-57735600D01*
X127379457Y-57687980D01*
X127522314Y-57687980D01*
X127617552Y-57735600D01*
X127665171Y-57783219D01*
X127712790Y-57878457D01*
X127712790Y-58259409D01*
X127665171Y-57259409D02*
X127665171Y-56926076D01*
X128188980Y-56783219D02*
X128188980Y-57259409D01*
X127188980Y-57259409D01*
X127188980Y-56783219D01*
X128141361Y-56402266D02*
X128188980Y-56259409D01*
X128188980Y-56021314D01*
X128141361Y-55926076D01*
X128093742Y-55878457D01*
X127998504Y-55830838D01*
X127903266Y-55830838D01*
X127808028Y-55878457D01*
X127760409Y-55926076D01*
X127712790Y-56021314D01*
X127665171Y-56211790D01*
X127617552Y-56307028D01*
X127569933Y-56354647D01*
X127474695Y-56402266D01*
X127379457Y-56402266D01*
X127284219Y-56354647D01*
X127236600Y-56307028D01*
X127188980Y-56211790D01*
X127188980Y-55973695D01*
X127236600Y-55830838D01*
X127665171Y-55402266D02*
X127665171Y-55068933D01*
X128188980Y-54926076D02*
X128188980Y-55402266D01*
X127188980Y-55402266D01*
X127188980Y-54926076D01*
X127188980Y-54640361D02*
X127188980Y-54068933D01*
X128188980Y-54354647D02*
X127188980Y-54354647D01*
D10*
X54937209Y-43622980D02*
X55556257Y-43622980D01*
X55222923Y-44003933D01*
X55365780Y-44003933D01*
X55461019Y-44051552D01*
X55508638Y-44099171D01*
X55556257Y-44194409D01*
X55556257Y-44432504D01*
X55508638Y-44527742D01*
X55461019Y-44575361D01*
X55365780Y-44622980D01*
X55080066Y-44622980D01*
X54984828Y-44575361D01*
X54937209Y-44527742D01*
X55984828Y-44527742D02*
X56032447Y-44575361D01*
X55984828Y-44622980D01*
X55937209Y-44575361D01*
X55984828Y-44527742D01*
X55984828Y-44622980D01*
X56365780Y-43622980D02*
X56984828Y-43622980D01*
X56651495Y-44003933D01*
X56794352Y-44003933D01*
X56889590Y-44051552D01*
X56937209Y-44099171D01*
X56984828Y-44194409D01*
X56984828Y-44432504D01*
X56937209Y-44527742D01*
X56889590Y-44575361D01*
X56794352Y-44622980D01*
X56508638Y-44622980D01*
X56413400Y-44575361D01*
X56365780Y-44527742D01*
X57270542Y-43622980D02*
X57603876Y-44622980D01*
X57937209Y-43622980D01*
X56097561Y-54433742D02*
X56049942Y-54481361D01*
X55907085Y-54528980D01*
X55811847Y-54528980D01*
X55668990Y-54481361D01*
X55573752Y-54386123D01*
X55526133Y-54290885D01*
X55478514Y-54100409D01*
X55478514Y-53957552D01*
X55526133Y-53767076D01*
X55573752Y-53671838D01*
X55668990Y-53576600D01*
X55811847Y-53528980D01*
X55907085Y-53528980D01*
X56049942Y-53576600D01*
X56097561Y-53624219D01*
X57002323Y-54528980D02*
X56526133Y-54528980D01*
X56526133Y-53528980D01*
X57335657Y-54528980D02*
X57335657Y-53528980D01*
X57907085Y-54528980D02*
X57478514Y-53957552D01*
X57907085Y-53528980D02*
X57335657Y-54100409D01*
X109385266Y-53770161D02*
X109528124Y-53817780D01*
X109766219Y-53817780D01*
X109861457Y-53770161D01*
X109909076Y-53722542D01*
X109956695Y-53627304D01*
X109956695Y-53532066D01*
X109909076Y-53436828D01*
X109861457Y-53389209D01*
X109766219Y-53341590D01*
X109575743Y-53293971D01*
X109480505Y-53246352D01*
X109432886Y-53198733D01*
X109385266Y-53103495D01*
X109385266Y-53008257D01*
X109432886Y-52913019D01*
X109480505Y-52865400D01*
X109575743Y-52817780D01*
X109813838Y-52817780D01*
X109956695Y-52865400D01*
X110956695Y-53722542D02*
X110909076Y-53770161D01*
X110766219Y-53817780D01*
X110670981Y-53817780D01*
X110528124Y-53770161D01*
X110432886Y-53674923D01*
X110385266Y-53579685D01*
X110337647Y-53389209D01*
X110337647Y-53246352D01*
X110385266Y-53055876D01*
X110432886Y-52960638D01*
X110528124Y-52865400D01*
X110670981Y-52817780D01*
X110766219Y-52817780D01*
X110909076Y-52865400D01*
X110956695Y-52913019D01*
X111861457Y-53817780D02*
X111385266Y-53817780D01*
X111385266Y-52817780D01*
X111956695Y-53913019D02*
X112718600Y-53913019D01*
X113147171Y-52817780D02*
X113242409Y-52817780D01*
X113337647Y-52865400D01*
X113385266Y-52913019D01*
X113432886Y-53008257D01*
X113480505Y-53198733D01*
X113480505Y-53436828D01*
X113432886Y-53627304D01*
X113385266Y-53722542D01*
X113337647Y-53770161D01*
X113242409Y-53817780D01*
X113147171Y-53817780D01*
X113051933Y-53770161D01*
X113004314Y-53722542D01*
X112956695Y-53627304D01*
X112909076Y-53436828D01*
X112909076Y-53198733D01*
X112956695Y-53008257D01*
X113004314Y-52913019D01*
X113051933Y-52865400D01*
X113147171Y-52817780D01*
X56373733Y-49423580D02*
X56040400Y-48947390D01*
X55802304Y-49423580D02*
X55802304Y-48423580D01*
X56183257Y-48423580D01*
X56278495Y-48471200D01*
X56326114Y-48518819D01*
X56373733Y-48614057D01*
X56373733Y-48756914D01*
X56326114Y-48852152D01*
X56278495Y-48899771D01*
X56183257Y-48947390D01*
X55802304Y-48947390D01*
X56707066Y-48423580D02*
X57373733Y-49423580D01*
X57373733Y-48423580D02*
X56707066Y-49423580D01*
D11*
X127214380Y-49650352D02*
X127214380Y-49459876D01*
X127262000Y-49364638D01*
X127357238Y-49269400D01*
X127547714Y-49221780D01*
X127881047Y-49221780D01*
X128071523Y-49269400D01*
X128166761Y-49364638D01*
X128214380Y-49459876D01*
X128214380Y-49650352D01*
X128166761Y-49745590D01*
X128071523Y-49840828D01*
X127881047Y-49888447D01*
X127547714Y-49888447D01*
X127357238Y-49840828D01*
X127262000Y-49745590D01*
X127214380Y-49650352D01*
X128119142Y-48221780D02*
X128166761Y-48269400D01*
X128214380Y-48412257D01*
X128214380Y-48507495D01*
X128166761Y-48650352D01*
X128071523Y-48745590D01*
X127976285Y-48793209D01*
X127785809Y-48840828D01*
X127642952Y-48840828D01*
X127452476Y-48793209D01*
X127357238Y-48745590D01*
X127262000Y-48650352D01*
X127214380Y-48507495D01*
X127214380Y-48412257D01*
X127262000Y-48269400D01*
X127309619Y-48221780D01*
X127214380Y-47936066D02*
X127214380Y-47364638D01*
X128214380Y-47650352D02*
X127214380Y-47650352D01*
X128309619Y-47269400D02*
X128309619Y-46507495D01*
X127214380Y-46269400D02*
X128023904Y-46269400D01*
X128119142Y-46221780D01*
X128166761Y-46174161D01*
X128214380Y-46078923D01*
X128214380Y-45888447D01*
X128166761Y-45793209D01*
X128119142Y-45745590D01*
X128023904Y-45697971D01*
X127214380Y-45697971D01*
X128214380Y-45221780D02*
X127214380Y-45221780D01*
X127214380Y-44840828D01*
X127262000Y-44745590D01*
X127309619Y-44697971D01*
X127404857Y-44650352D01*
X127547714Y-44650352D01*
X127642952Y-44697971D01*
X127690571Y-44745590D01*
X127738190Y-44840828D01*
X127738190Y-45221780D01*
D10*
X80138638Y-60699829D02*
X80091019Y-60842686D01*
X80091019Y-61080781D01*
X80138638Y-61176019D01*
X80186257Y-61223638D01*
X80281495Y-61271257D01*
X80376733Y-61271257D01*
X80471971Y-61223638D01*
X80519590Y-61176019D01*
X80567209Y-61080781D01*
X80614828Y-60890305D01*
X80662447Y-60795067D01*
X80710066Y-60747448D01*
X80805304Y-60699829D01*
X80900542Y-60699829D01*
X80995780Y-60747448D01*
X81043400Y-60795067D01*
X81091019Y-60890305D01*
X81091019Y-61128400D01*
X81043400Y-61271257D01*
X81091019Y-61604591D02*
X80091019Y-61842686D01*
X80805304Y-62033162D01*
X80091019Y-62223638D01*
X81091019Y-62461734D01*
X80186257Y-63414114D02*
X80138638Y-63366495D01*
X80091019Y-63223638D01*
X80091019Y-63128400D01*
X80138638Y-62985543D01*
X80233876Y-62890305D01*
X80329114Y-62842686D01*
X80519590Y-62795067D01*
X80662447Y-62795067D01*
X80852923Y-62842686D01*
X80948161Y-62890305D01*
X81043400Y-62985543D01*
X81091019Y-63128400D01*
X81091019Y-63223638D01*
X81043400Y-63366495D01*
X80995780Y-63414114D01*
X80091019Y-64318876D02*
X80091019Y-63842686D01*
X81091019Y-63842686D01*
X80091019Y-64652210D02*
X81091019Y-64652210D01*
X80091019Y-65223638D02*
X80662447Y-64795067D01*
X81091019Y-65223638D02*
X80519590Y-64652210D01*
X92587819Y-61318876D02*
X93064009Y-60985543D01*
X92587819Y-60747447D02*
X93587819Y-60747447D01*
X93587819Y-61128400D01*
X93540200Y-61223638D01*
X93492580Y-61271257D01*
X93397342Y-61318876D01*
X93254485Y-61318876D01*
X93159247Y-61271257D01*
X93111628Y-61223638D01*
X93064009Y-61128400D01*
X93064009Y-60747447D01*
X93587819Y-61652209D02*
X92587819Y-62318876D01*
X93587819Y-62318876D02*
X92587819Y-61652209D01*
X92492580Y-62461733D02*
X92492580Y-63223638D01*
X93587819Y-63652209D02*
X93587819Y-63747447D01*
X93540200Y-63842686D01*
X93492580Y-63890305D01*
X93397342Y-63937924D01*
X93206866Y-63985543D01*
X92968771Y-63985543D01*
X92778295Y-63937924D01*
X92683057Y-63890305D01*
X92635438Y-63842686D01*
X92587819Y-63747447D01*
X92587819Y-63652209D01*
X92635438Y-63556971D01*
X92683057Y-63509352D01*
X92778295Y-63461733D01*
X92968771Y-63414114D01*
X93206866Y-63414114D01*
X93397342Y-63461733D01*
X93492580Y-63509352D01*
X93540200Y-63556971D01*
X93587819Y-63652209D01*
X94408809Y-47102780D02*
X95027857Y-47102780D01*
X94694523Y-47483733D01*
X94837380Y-47483733D01*
X94932619Y-47531352D01*
X94980238Y-47578971D01*
X95027857Y-47674209D01*
X95027857Y-47912304D01*
X94980238Y-48007542D01*
X94932619Y-48055161D01*
X94837380Y-48102780D01*
X94551666Y-48102780D01*
X94456428Y-48055161D01*
X94408809Y-48007542D01*
X95456428Y-48007542D02*
X95504047Y-48055161D01*
X95456428Y-48102780D01*
X95408809Y-48055161D01*
X95456428Y-48007542D01*
X95456428Y-48102780D01*
X95837380Y-47102780D02*
X96456428Y-47102780D01*
X96123095Y-47483733D01*
X96265952Y-47483733D01*
X96361190Y-47531352D01*
X96408809Y-47578971D01*
X96456428Y-47674209D01*
X96456428Y-47912304D01*
X96408809Y-48007542D01*
X96361190Y-48055161D01*
X96265952Y-48102780D01*
X95980238Y-48102780D01*
X95885000Y-48055161D01*
X95837380Y-48007542D01*
X96742142Y-47102780D02*
X97075476Y-48102780D01*
X97408809Y-47102780D01*
X109267809Y-47813980D02*
X109886857Y-47813980D01*
X109553523Y-48194933D01*
X109696380Y-48194933D01*
X109791619Y-48242552D01*
X109839238Y-48290171D01*
X109886857Y-48385409D01*
X109886857Y-48623504D01*
X109839238Y-48718742D01*
X109791619Y-48766361D01*
X109696380Y-48813980D01*
X109410666Y-48813980D01*
X109315428Y-48766361D01*
X109267809Y-48718742D01*
X110315428Y-48718742D02*
X110363047Y-48766361D01*
X110315428Y-48813980D01*
X110267809Y-48766361D01*
X110315428Y-48718742D01*
X110315428Y-48813980D01*
X110696380Y-47813980D02*
X111315428Y-47813980D01*
X110982095Y-48194933D01*
X111124952Y-48194933D01*
X111220190Y-48242552D01*
X111267809Y-48290171D01*
X111315428Y-48385409D01*
X111315428Y-48623504D01*
X111267809Y-48718742D01*
X111220190Y-48766361D01*
X111124952Y-48813980D01*
X110839238Y-48813980D01*
X110744000Y-48766361D01*
X110696380Y-48718742D01*
X111601142Y-47813980D02*
X111934476Y-48813980D01*
X112267809Y-47813980D01*
D11*
X98706609Y-61318580D02*
X98230419Y-61318580D01*
X98230419Y-60318580D01*
X99468514Y-61318580D02*
X99468514Y-60794771D01*
X99420895Y-60699533D01*
X99325657Y-60651914D01*
X99135180Y-60651914D01*
X99039942Y-60699533D01*
X99468514Y-61270961D02*
X99373276Y-61318580D01*
X99135180Y-61318580D01*
X99039942Y-61270961D01*
X98992323Y-61175723D01*
X98992323Y-61080485D01*
X99039942Y-60985247D01*
X99135180Y-60937628D01*
X99373276Y-60937628D01*
X99468514Y-60890009D01*
X99944704Y-60651914D02*
X99944704Y-61318580D01*
X99944704Y-60747152D02*
X99992323Y-60699533D01*
X100087561Y-60651914D01*
X100230419Y-60651914D01*
X100325657Y-60699533D01*
X100373276Y-60794771D01*
X100373276Y-61318580D01*
X101278038Y-61318580D02*
X101278038Y-60318580D01*
X101278038Y-61270961D02*
X101182800Y-61318580D01*
X100992323Y-61318580D01*
X100897085Y-61270961D01*
X100849466Y-61223342D01*
X100801847Y-61128104D01*
X100801847Y-60842390D01*
X100849466Y-60747152D01*
X100897085Y-60699533D01*
X100992323Y-60651914D01*
X101182800Y-60651914D01*
X101278038Y-60699533D01*
X101658990Y-60651914D02*
X101897085Y-61318580D01*
X102135180Y-60651914D02*
X101897085Y-61318580D01*
X101801847Y-61556676D01*
X101754228Y-61604295D01*
X101658990Y-61651914D01*
X102516133Y-60651914D02*
X102516133Y-61318580D01*
X102516133Y-60747152D02*
X102563752Y-60699533D01*
X102658990Y-60651914D01*
X102801847Y-60651914D01*
X102897085Y-60699533D01*
X102944704Y-60794771D01*
X102944704Y-61318580D01*
X104516133Y-60794771D02*
X104182800Y-60794771D01*
X104182800Y-61318580D02*
X104182800Y-60318580D01*
X104658990Y-60318580D01*
X105039942Y-61318580D02*
X105039942Y-60651914D01*
X105039942Y-60842390D02*
X105087561Y-60747152D01*
X105135180Y-60699533D01*
X105230419Y-60651914D01*
X105325657Y-60651914D01*
X106087561Y-61318580D02*
X106087561Y-60794771D01*
X106039942Y-60699533D01*
X105944704Y-60651914D01*
X105754228Y-60651914D01*
X105658990Y-60699533D01*
X106087561Y-61270961D02*
X105992323Y-61318580D01*
X105754228Y-61318580D01*
X105658990Y-61270961D01*
X105611371Y-61175723D01*
X105611371Y-61080485D01*
X105658990Y-60985247D01*
X105754228Y-60937628D01*
X105992323Y-60937628D01*
X106087561Y-60890009D01*
X106563752Y-60651914D02*
X106563752Y-61318580D01*
X106563752Y-60747152D02*
X106611371Y-60699533D01*
X106706609Y-60651914D01*
X106849466Y-60651914D01*
X106944704Y-60699533D01*
X106992323Y-60794771D01*
X106992323Y-61318580D01*
X107897085Y-61270961D02*
X107801847Y-61318580D01*
X107611371Y-61318580D01*
X107516133Y-61270961D01*
X107468514Y-61223342D01*
X107420895Y-61128104D01*
X107420895Y-60842390D01*
X107468514Y-60747152D01*
X107516133Y-60699533D01*
X107611371Y-60651914D01*
X107801847Y-60651914D01*
X107897085Y-60699533D01*
X108325657Y-61318580D02*
X108325657Y-60651914D01*
X108325657Y-60318580D02*
X108278038Y-60366200D01*
X108325657Y-60413819D01*
X108373276Y-60366200D01*
X108325657Y-60318580D01*
X108325657Y-60413819D01*
X108754228Y-61270961D02*
X108849466Y-61318580D01*
X109039942Y-61318580D01*
X109135180Y-61270961D01*
X109182800Y-61175723D01*
X109182800Y-61128104D01*
X109135180Y-61032866D01*
X109039942Y-60985247D01*
X108897085Y-60985247D01*
X108801847Y-60937628D01*
X108754228Y-60842390D01*
X108754228Y-60794771D01*
X108801847Y-60699533D01*
X108897085Y-60651914D01*
X109039942Y-60651914D01*
X109135180Y-60699533D01*
X99135180Y-61928580D02*
X99135180Y-62642866D01*
X99087561Y-62785723D01*
X98992323Y-62880961D01*
X98849466Y-62928580D01*
X98754228Y-62928580D01*
X100039942Y-62928580D02*
X100039942Y-62404771D01*
X99992323Y-62309533D01*
X99897085Y-62261914D01*
X99706609Y-62261914D01*
X99611371Y-62309533D01*
X100039942Y-62880961D02*
X99944704Y-62928580D01*
X99706609Y-62928580D01*
X99611371Y-62880961D01*
X99563752Y-62785723D01*
X99563752Y-62690485D01*
X99611371Y-62595247D01*
X99706609Y-62547628D01*
X99944704Y-62547628D01*
X100039942Y-62500009D01*
X100944704Y-62880961D02*
X100849466Y-62928580D01*
X100658990Y-62928580D01*
X100563752Y-62880961D01*
X100516133Y-62833342D01*
X100468514Y-62738104D01*
X100468514Y-62452390D01*
X100516133Y-62357152D01*
X100563752Y-62309533D01*
X100658990Y-62261914D01*
X100849466Y-62261914D01*
X100944704Y-62309533D01*
X101516133Y-62928580D02*
X101420895Y-62880961D01*
X101373276Y-62833342D01*
X101325657Y-62738104D01*
X101325657Y-62452390D01*
X101373276Y-62357152D01*
X101420895Y-62309533D01*
X101516133Y-62261914D01*
X101658990Y-62261914D01*
X101754228Y-62309533D01*
X101801847Y-62357152D01*
X101849466Y-62452390D01*
X101849466Y-62738104D01*
X101801847Y-62833342D01*
X101754228Y-62880961D01*
X101658990Y-62928580D01*
X101516133Y-62928580D01*
X102278038Y-62928580D02*
X102278038Y-61928580D01*
X102278038Y-62309533D02*
X102373276Y-62261914D01*
X102563752Y-62261914D01*
X102658990Y-62309533D01*
X102706609Y-62357152D01*
X102754228Y-62452390D01*
X102754228Y-62738104D01*
X102706609Y-62833342D01*
X102658990Y-62880961D01*
X102563752Y-62928580D01*
X102373276Y-62928580D01*
X102278038Y-62880961D01*
X103944704Y-62928580D02*
X103944704Y-61928580D01*
X104278038Y-62642866D01*
X104611371Y-61928580D01*
X104611371Y-62928580D01*
X105468514Y-62880961D02*
X105373276Y-62928580D01*
X105182800Y-62928580D01*
X105087561Y-62880961D01*
X105039942Y-62785723D01*
X105039942Y-62404771D01*
X105087561Y-62309533D01*
X105182800Y-62261914D01*
X105373276Y-62261914D01*
X105468514Y-62309533D01*
X105516133Y-62404771D01*
X105516133Y-62500009D01*
X105039942Y-62595247D01*
X106373276Y-62928580D02*
X106373276Y-62404771D01*
X106325657Y-62309533D01*
X106230419Y-62261914D01*
X106039942Y-62261914D01*
X105944704Y-62309533D01*
X106373276Y-62880961D02*
X106278038Y-62928580D01*
X106039942Y-62928580D01*
X105944704Y-62880961D01*
X105897085Y-62785723D01*
X105897085Y-62690485D01*
X105944704Y-62595247D01*
X106039942Y-62547628D01*
X106278038Y-62547628D01*
X106373276Y-62500009D01*
X106992323Y-62928580D02*
X106897085Y-62880961D01*
X106849466Y-62785723D01*
X106849466Y-61928580D01*
X107754228Y-62880961D02*
X107658990Y-62928580D01*
X107468514Y-62928580D01*
X107373276Y-62880961D01*
X107325657Y-62785723D01*
X107325657Y-62404771D01*
X107373276Y-62309533D01*
X107468514Y-62261914D01*
X107658990Y-62261914D01*
X107754228Y-62309533D01*
X107801847Y-62404771D01*
X107801847Y-62500009D01*
X107325657Y-62595247D01*
X108135180Y-62261914D02*
X108373276Y-62928580D01*
X108611371Y-62261914D02*
X108373276Y-62928580D01*
X108278038Y-63166676D01*
X108230419Y-63214295D01*
X108135180Y-63261914D01*
D10*
X90997019Y-60604590D02*
X90997019Y-61176018D01*
X89997019Y-60890304D02*
X90997019Y-60890304D01*
X90997019Y-61414114D02*
X89997019Y-62080780D01*
X90997019Y-62080780D02*
X89997019Y-61414114D01*
X89901780Y-62223638D02*
X89901780Y-62985542D01*
X90997019Y-63414114D02*
X90997019Y-63509352D01*
X90949400Y-63604590D01*
X90901780Y-63652209D01*
X90806542Y-63699828D01*
X90616066Y-63747447D01*
X90377971Y-63747447D01*
X90187495Y-63699828D01*
X90092257Y-63652209D01*
X90044638Y-63604590D01*
X89997019Y-63509352D01*
X89997019Y-63414114D01*
X90044638Y-63318876D01*
X90092257Y-63271257D01*
X90187495Y-63223638D01*
X90377971Y-63176018D01*
X90616066Y-63176018D01*
X90806542Y-63223638D01*
X90901780Y-63271257D01*
X90949400Y-63318876D01*
X90997019Y-63414114D01*
X82729438Y-60699829D02*
X82681819Y-60842686D01*
X82681819Y-61080781D01*
X82729438Y-61176019D01*
X82777057Y-61223638D01*
X82872295Y-61271257D01*
X82967533Y-61271257D01*
X83062771Y-61223638D01*
X83110390Y-61176019D01*
X83158009Y-61080781D01*
X83205628Y-60890305D01*
X83253247Y-60795067D01*
X83300866Y-60747448D01*
X83396104Y-60699829D01*
X83491342Y-60699829D01*
X83586580Y-60747448D01*
X83634200Y-60795067D01*
X83681819Y-60890305D01*
X83681819Y-61128400D01*
X83634200Y-61271257D01*
X83681819Y-61604591D02*
X82681819Y-61842686D01*
X83396104Y-62033162D01*
X82681819Y-62223638D01*
X83681819Y-62461733D01*
X82681819Y-62842686D02*
X83681819Y-62842686D01*
X83681819Y-63080781D01*
X83634200Y-63223638D01*
X83538961Y-63318876D01*
X83443723Y-63366495D01*
X83253247Y-63414114D01*
X83110390Y-63414114D01*
X82919914Y-63366495D01*
X82824676Y-63318876D01*
X82729438Y-63223638D01*
X82681819Y-63080781D01*
X82681819Y-62842686D01*
D11*
X127214380Y-43125590D02*
X127214380Y-42935114D01*
X127262000Y-42839876D01*
X127357238Y-42744638D01*
X127547714Y-42697019D01*
X127881047Y-42697019D01*
X128071523Y-42744638D01*
X128166761Y-42839876D01*
X128214380Y-42935114D01*
X128214380Y-43125590D01*
X128166761Y-43220828D01*
X128071523Y-43316066D01*
X127881047Y-43363685D01*
X127547714Y-43363685D01*
X127357238Y-43316066D01*
X127262000Y-43220828D01*
X127214380Y-43125590D01*
X128119142Y-41697019D02*
X128166761Y-41744638D01*
X128214380Y-41887495D01*
X128214380Y-41982733D01*
X128166761Y-42125590D01*
X128071523Y-42220828D01*
X127976285Y-42268447D01*
X127785809Y-42316066D01*
X127642952Y-42316066D01*
X127452476Y-42268447D01*
X127357238Y-42220828D01*
X127262000Y-42125590D01*
X127214380Y-41982733D01*
X127214380Y-41887495D01*
X127262000Y-41744638D01*
X127309619Y-41697019D01*
X127214380Y-41411304D02*
X127214380Y-40839876D01*
X128214380Y-41125590D02*
X127214380Y-41125590D01*
X128309619Y-40744638D02*
X128309619Y-39982733D01*
X128214380Y-39744638D02*
X127214380Y-39744638D01*
X127214380Y-39506542D01*
X127262000Y-39363685D01*
X127357238Y-39268447D01*
X127452476Y-39220828D01*
X127642952Y-39173209D01*
X127785809Y-39173209D01*
X127976285Y-39220828D01*
X128071523Y-39268447D01*
X128166761Y-39363685D01*
X128214380Y-39506542D01*
X128214380Y-39744638D01*
X127214380Y-38554161D02*
X127214380Y-38363685D01*
X127262000Y-38268447D01*
X127357238Y-38173209D01*
X127547714Y-38125590D01*
X127881047Y-38125590D01*
X128071523Y-38173209D01*
X128166761Y-38268447D01*
X128214380Y-38363685D01*
X128214380Y-38554161D01*
X128166761Y-38649400D01*
X128071523Y-38744638D01*
X127881047Y-38792257D01*
X127547714Y-38792257D01*
X127357238Y-38744638D01*
X127262000Y-38649400D01*
X127214380Y-38554161D01*
X127214380Y-37792257D02*
X128214380Y-37554161D01*
X127500095Y-37363685D01*
X128214380Y-37173209D01*
X127214380Y-36935114D01*
X128214380Y-36554161D02*
X127214380Y-36554161D01*
X128214380Y-35982733D01*
X127214380Y-35982733D01*
D10*
X94456428Y-53490761D02*
X94599286Y-53538380D01*
X94837381Y-53538380D01*
X94932619Y-53490761D01*
X94980238Y-53443142D01*
X95027857Y-53347904D01*
X95027857Y-53252666D01*
X94980238Y-53157428D01*
X94932619Y-53109809D01*
X94837381Y-53062190D01*
X94646905Y-53014571D01*
X94551667Y-52966952D01*
X94504048Y-52919333D01*
X94456428Y-52824095D01*
X94456428Y-52728857D01*
X94504048Y-52633619D01*
X94551667Y-52586000D01*
X94646905Y-52538380D01*
X94885000Y-52538380D01*
X95027857Y-52586000D01*
X96027857Y-53443142D02*
X95980238Y-53490761D01*
X95837381Y-53538380D01*
X95742143Y-53538380D01*
X95599286Y-53490761D01*
X95504048Y-53395523D01*
X95456428Y-53300285D01*
X95408809Y-53109809D01*
X95408809Y-52966952D01*
X95456428Y-52776476D01*
X95504048Y-52681238D01*
X95599286Y-52586000D01*
X95742143Y-52538380D01*
X95837381Y-52538380D01*
X95980238Y-52586000D01*
X96027857Y-52633619D01*
X96932619Y-53538380D02*
X96456428Y-53538380D01*
X96456428Y-52538380D01*
X97027857Y-53633619D02*
X97789762Y-53633619D01*
X98551667Y-53538380D02*
X97980238Y-53538380D01*
X98265952Y-53538380D02*
X98265952Y-52538380D01*
X98170714Y-52681238D01*
X98075476Y-52776476D01*
X97980238Y-52824095D01*
X57045409Y-59701180D02*
X57664457Y-59701180D01*
X57331123Y-60082133D01*
X57473980Y-60082133D01*
X57569219Y-60129752D01*
X57616838Y-60177371D01*
X57664457Y-60272609D01*
X57664457Y-60510704D01*
X57616838Y-60605942D01*
X57569219Y-60653561D01*
X57473980Y-60701180D01*
X57188266Y-60701180D01*
X57093028Y-60653561D01*
X57045409Y-60605942D01*
X58093028Y-60605942D02*
X58140647Y-60653561D01*
X58093028Y-60701180D01*
X58045409Y-60653561D01*
X58093028Y-60605942D01*
X58093028Y-60701180D01*
X58473980Y-59701180D02*
X59093028Y-59701180D01*
X58759695Y-60082133D01*
X58902552Y-60082133D01*
X58997790Y-60129752D01*
X59045409Y-60177371D01*
X59093028Y-60272609D01*
X59093028Y-60510704D01*
X59045409Y-60605942D01*
X58997790Y-60653561D01*
X58902552Y-60701180D01*
X58616838Y-60701180D01*
X58521600Y-60653561D01*
X58473980Y-60605942D01*
X59378742Y-59701180D02*
X59712076Y-60701180D01*
X60045409Y-59701180D01*
X109829695Y-50300000D02*
X109734457Y-50252380D01*
X109591600Y-50252380D01*
X109448742Y-50300000D01*
X109353504Y-50395238D01*
X109305885Y-50490476D01*
X109258266Y-50680952D01*
X109258266Y-50823809D01*
X109305885Y-51014285D01*
X109353504Y-51109523D01*
X109448742Y-51204761D01*
X109591600Y-51252380D01*
X109686838Y-51252380D01*
X109829695Y-51204761D01*
X109877314Y-51157142D01*
X109877314Y-50823809D01*
X109686838Y-50823809D01*
X110305885Y-51252380D02*
X110305885Y-50252380D01*
X110877314Y-51252380D01*
X110877314Y-50252380D01*
X111353504Y-51252380D02*
X111353504Y-50252380D01*
X111591600Y-50252380D01*
X111734457Y-50300000D01*
X111829695Y-50395238D01*
X111877314Y-50490476D01*
X111924933Y-50680952D01*
X111924933Y-50823809D01*
X111877314Y-51014285D01*
X111829695Y-51109523D01*
X111734457Y-51204761D01*
X111591600Y-51252380D01*
X111353504Y-51252380D01*
X95027857Y-50046000D02*
X94932619Y-49998380D01*
X94789762Y-49998380D01*
X94646904Y-50046000D01*
X94551666Y-50141238D01*
X94504047Y-50236476D01*
X94456428Y-50426952D01*
X94456428Y-50569809D01*
X94504047Y-50760285D01*
X94551666Y-50855523D01*
X94646904Y-50950761D01*
X94789762Y-50998380D01*
X94885000Y-50998380D01*
X95027857Y-50950761D01*
X95075476Y-50903142D01*
X95075476Y-50569809D01*
X94885000Y-50569809D01*
X95504047Y-50998380D02*
X95504047Y-49998380D01*
X96075476Y-50998380D01*
X96075476Y-49998380D01*
X96551666Y-50998380D02*
X96551666Y-49998380D01*
X96789762Y-49998380D01*
X96932619Y-50046000D01*
X97027857Y-50141238D01*
X97075476Y-50236476D01*
X97123095Y-50426952D01*
X97123095Y-50569809D01*
X97075476Y-50760285D01*
X97027857Y-50855523D01*
X96932619Y-50950761D01*
X96789762Y-50998380D01*
X96551666Y-50998380D01*
X57810495Y-61831600D02*
X57715257Y-61783980D01*
X57572400Y-61783980D01*
X57429542Y-61831600D01*
X57334304Y-61926838D01*
X57286685Y-62022076D01*
X57239066Y-62212552D01*
X57239066Y-62355409D01*
X57286685Y-62545885D01*
X57334304Y-62641123D01*
X57429542Y-62736361D01*
X57572400Y-62783980D01*
X57667638Y-62783980D01*
X57810495Y-62736361D01*
X57858114Y-62688742D01*
X57858114Y-62355409D01*
X57667638Y-62355409D01*
X58286685Y-62783980D02*
X58286685Y-61783980D01*
X58858114Y-62783980D01*
X58858114Y-61783980D01*
X59334304Y-62783980D02*
X59334304Y-61783980D01*
X59572400Y-61783980D01*
X59715257Y-61831600D01*
X59810495Y-61926838D01*
X59858114Y-62022076D01*
X59905733Y-62212552D01*
X59905733Y-62355409D01*
X59858114Y-62545885D01*
X59810495Y-62641123D01*
X59715257Y-62736361D01*
X59572400Y-62783980D01*
X59334304Y-62783980D01*
X109358371Y-56310161D02*
X109501228Y-56357780D01*
X109739323Y-56357780D01*
X109834561Y-56310161D01*
X109882180Y-56262542D01*
X109929800Y-56167304D01*
X109929800Y-56072066D01*
X109882180Y-55976828D01*
X109834561Y-55929209D01*
X109739323Y-55881590D01*
X109548847Y-55833971D01*
X109453609Y-55786352D01*
X109405990Y-55738733D01*
X109358371Y-55643495D01*
X109358371Y-55548257D01*
X109405990Y-55453019D01*
X109453609Y-55405400D01*
X109548847Y-55357780D01*
X109786942Y-55357780D01*
X109929800Y-55405400D01*
X110358371Y-56357780D02*
X110358371Y-55357780D01*
X110596466Y-55357780D01*
X110739323Y-55405400D01*
X110834561Y-55500638D01*
X110882180Y-55595876D01*
X110929800Y-55786352D01*
X110929800Y-55929209D01*
X110882180Y-56119685D01*
X110834561Y-56214923D01*
X110739323Y-56310161D01*
X110596466Y-56357780D01*
X110358371Y-56357780D01*
X111310752Y-56072066D02*
X111786942Y-56072066D01*
X111215514Y-56357780D02*
X111548847Y-55357780D01*
X111882180Y-56357780D01*
X111977419Y-56453019D02*
X112739323Y-56453019D01*
X113167895Y-55357780D02*
X113263133Y-55357780D01*
X113358371Y-55405400D01*
X113405990Y-55453019D01*
X113453609Y-55548257D01*
X113501228Y-55738733D01*
X113501228Y-55976828D01*
X113453609Y-56167304D01*
X113405990Y-56262542D01*
X113358371Y-56310161D01*
X113263133Y-56357780D01*
X113167895Y-56357780D01*
X113072657Y-56310161D01*
X113025038Y-56262542D01*
X112977419Y-56167304D01*
X112929800Y-55976828D01*
X112929800Y-55738733D01*
X112977419Y-55548257D01*
X113025038Y-55453019D01*
X113072657Y-55405400D01*
X113167895Y-55357780D01*
X78401800Y-61569695D02*
X78449419Y-61474457D01*
X78449419Y-61331600D01*
X78401800Y-61188742D01*
X78306561Y-61093504D01*
X78211323Y-61045885D01*
X78020847Y-60998266D01*
X77877990Y-60998266D01*
X77687514Y-61045885D01*
X77592276Y-61093504D01*
X77497038Y-61188742D01*
X77449419Y-61331600D01*
X77449419Y-61426838D01*
X77497038Y-61569695D01*
X77544657Y-61617314D01*
X77877990Y-61617314D01*
X77877990Y-61426838D01*
X77449419Y-62045885D02*
X78449419Y-62045885D01*
X77449419Y-62617314D01*
X78449419Y-62617314D01*
X77449419Y-63093504D02*
X78449419Y-63093504D01*
X78449419Y-63331600D01*
X78401800Y-63474457D01*
X78306561Y-63569695D01*
X78211323Y-63617314D01*
X78020847Y-63664933D01*
X77877990Y-63664933D01*
X77687514Y-63617314D01*
X77592276Y-63569695D01*
X77497038Y-63474457D01*
X77449419Y-63331600D01*
X77449419Y-63093504D01*
X88282400Y-61569695D02*
X88330019Y-61474457D01*
X88330019Y-61331600D01*
X88282400Y-61188742D01*
X88187161Y-61093504D01*
X88091923Y-61045885D01*
X87901447Y-60998266D01*
X87758590Y-60998266D01*
X87568114Y-61045885D01*
X87472876Y-61093504D01*
X87377638Y-61188742D01*
X87330019Y-61331600D01*
X87330019Y-61426838D01*
X87377638Y-61569695D01*
X87425257Y-61617314D01*
X87758590Y-61617314D01*
X87758590Y-61426838D01*
X87330019Y-62045885D02*
X88330019Y-62045885D01*
X87330019Y-62617314D01*
X88330019Y-62617314D01*
X87330019Y-63093504D02*
X88330019Y-63093504D01*
X88330019Y-63331600D01*
X88282400Y-63474457D01*
X88187161Y-63569695D01*
X88091923Y-63617314D01*
X87901447Y-63664933D01*
X87758590Y-63664933D01*
X87568114Y-63617314D01*
X87472876Y-63569695D01*
X87377638Y-63474457D01*
X87330019Y-63331600D01*
X87330019Y-63093504D01*
X94456429Y-56310161D02*
X94599286Y-56357780D01*
X94837381Y-56357780D01*
X94932619Y-56310161D01*
X94980238Y-56262542D01*
X95027858Y-56167304D01*
X95027858Y-56072066D01*
X94980238Y-55976828D01*
X94932619Y-55929209D01*
X94837381Y-55881590D01*
X94646905Y-55833971D01*
X94551667Y-55786352D01*
X94504048Y-55738733D01*
X94456429Y-55643495D01*
X94456429Y-55548257D01*
X94504048Y-55453019D01*
X94551667Y-55405400D01*
X94646905Y-55357780D01*
X94885000Y-55357780D01*
X95027858Y-55405400D01*
X95456429Y-56357780D02*
X95456429Y-55357780D01*
X95694524Y-55357780D01*
X95837381Y-55405400D01*
X95932619Y-55500638D01*
X95980238Y-55595876D01*
X96027858Y-55786352D01*
X96027858Y-55929209D01*
X95980238Y-56119685D01*
X95932619Y-56214923D01*
X95837381Y-56310161D01*
X95694524Y-56357780D01*
X95456429Y-56357780D01*
X96408810Y-56072066D02*
X96885000Y-56072066D01*
X96313572Y-56357780D02*
X96646905Y-55357780D01*
X96980238Y-56357780D01*
X97075477Y-56453019D02*
X97837381Y-56453019D01*
X98599286Y-56357780D02*
X98027858Y-56357780D01*
X98313572Y-56357780D02*
X98313572Y-55357780D01*
X98218334Y-55500638D01*
X98123096Y-55595876D01*
X98027858Y-55643495D01*
X65505152Y-19080171D02*
X65648009Y-19127790D01*
X65695628Y-19175409D01*
X65743247Y-19270647D01*
X65743247Y-19413504D01*
X65695628Y-19508742D01*
X65648009Y-19556361D01*
X65552771Y-19603980D01*
X65171819Y-19603980D01*
X65171819Y-18603980D01*
X65505152Y-18603980D01*
X65600390Y-18651600D01*
X65648009Y-18699219D01*
X65695628Y-18794457D01*
X65695628Y-18889695D01*
X65648009Y-18984933D01*
X65600390Y-19032552D01*
X65505152Y-19080171D01*
X65171819Y-19080171D01*
X66314676Y-19603980D02*
X66219438Y-19556361D01*
X66171819Y-19508742D01*
X66124200Y-19413504D01*
X66124200Y-19127790D01*
X66171819Y-19032552D01*
X66219438Y-18984933D01*
X66314676Y-18937314D01*
X66457533Y-18937314D01*
X66552771Y-18984933D01*
X66600390Y-19032552D01*
X66648009Y-19127790D01*
X66648009Y-19413504D01*
X66600390Y-19508742D01*
X66552771Y-19556361D01*
X66457533Y-19603980D01*
X66314676Y-19603980D01*
X67219438Y-19603980D02*
X67124200Y-19556361D01*
X67076580Y-19508742D01*
X67028961Y-19413504D01*
X67028961Y-19127790D01*
X67076580Y-19032552D01*
X67124200Y-18984933D01*
X67219438Y-18937314D01*
X67362295Y-18937314D01*
X67457533Y-18984933D01*
X67505152Y-19032552D01*
X67552771Y-19127790D01*
X67552771Y-19413504D01*
X67505152Y-19508742D01*
X67457533Y-19556361D01*
X67362295Y-19603980D01*
X67219438Y-19603980D01*
X67838485Y-18937314D02*
X68219438Y-18937314D01*
X67981342Y-18603980D02*
X67981342Y-19461123D01*
X68028961Y-19556361D01*
X68124200Y-19603980D01*
X68219438Y-19603980D01*
D11*
X114716276Y-16673580D02*
X115049609Y-17673580D01*
X115382942Y-16673580D01*
X115906752Y-16673580D02*
X116097228Y-16673580D01*
X116192466Y-16721200D01*
X116287704Y-16816438D01*
X116335323Y-17006914D01*
X116335323Y-17340247D01*
X116287704Y-17530723D01*
X116192466Y-17625961D01*
X116097228Y-17673580D01*
X115906752Y-17673580D01*
X115811514Y-17625961D01*
X115716276Y-17530723D01*
X115668657Y-17340247D01*
X115668657Y-17006914D01*
X115716276Y-16816438D01*
X115811514Y-16721200D01*
X115906752Y-16673580D01*
X117240085Y-17673580D02*
X116763895Y-17673580D01*
X116763895Y-16673580D01*
X117573419Y-16673580D02*
X117573419Y-17483104D01*
X117621038Y-17578342D01*
X117668657Y-17625961D01*
X117763895Y-17673580D01*
X117954371Y-17673580D01*
X118049609Y-17625961D01*
X118097228Y-17578342D01*
X118144847Y-17483104D01*
X118144847Y-16673580D01*
X118621038Y-17673580D02*
X118621038Y-16673580D01*
X118954371Y-17387866D01*
X119287704Y-16673580D01*
X119287704Y-17673580D01*
X119763895Y-17149771D02*
X120097228Y-17149771D01*
X120240085Y-17673580D02*
X119763895Y-17673580D01*
X119763895Y-16673580D01*
X120240085Y-16673580D01*
D10*
X55753095Y-56043580D02*
X56324523Y-56043580D01*
X56038809Y-57043580D02*
X56038809Y-56043580D01*
X56562619Y-56043580D02*
X57229285Y-57043580D01*
X57229285Y-56043580D02*
X56562619Y-57043580D01*
X120891466Y-35685361D02*
X121034323Y-35732980D01*
X121272419Y-35732980D01*
X121367657Y-35685361D01*
X121415276Y-35637742D01*
X121462895Y-35542504D01*
X121462895Y-35447266D01*
X121415276Y-35352028D01*
X121367657Y-35304409D01*
X121272419Y-35256790D01*
X121081942Y-35209171D01*
X120986704Y-35161552D01*
X120939085Y-35113933D01*
X120891466Y-35018695D01*
X120891466Y-34923457D01*
X120939085Y-34828219D01*
X120986704Y-34780600D01*
X121081942Y-34732980D01*
X121320038Y-34732980D01*
X121462895Y-34780600D01*
X121796228Y-34732980D02*
X122034323Y-35732980D01*
X122224800Y-35018695D01*
X122415276Y-35732980D01*
X122653371Y-34732980D01*
X122939085Y-34732980D02*
X123558133Y-34732980D01*
X123224800Y-35113933D01*
X123367657Y-35113933D01*
X123462895Y-35161552D01*
X123510514Y-35209171D01*
X123558133Y-35304409D01*
X123558133Y-35542504D01*
X123510514Y-35637742D01*
X123462895Y-35685361D01*
X123367657Y-35732980D01*
X123081942Y-35732980D01*
X122986704Y-35685361D01*
X122939085Y-35637742D01*
X76185733Y-48966380D02*
X75852400Y-48490190D01*
X75614304Y-48966380D02*
X75614304Y-47966380D01*
X75995257Y-47966380D01*
X76090495Y-48014000D01*
X76138114Y-48061619D01*
X76185733Y-48156857D01*
X76185733Y-48299714D01*
X76138114Y-48394952D01*
X76090495Y-48442571D01*
X75995257Y-48490190D01*
X75614304Y-48490190D01*
X77090495Y-47966380D02*
X76614304Y-47966380D01*
X76566685Y-48442571D01*
X76614304Y-48394952D01*
X76709542Y-48347333D01*
X76947638Y-48347333D01*
X77042876Y-48394952D01*
X77090495Y-48442571D01*
X77138114Y-48537809D01*
X77138114Y-48775904D01*
X77090495Y-48871142D01*
X77042876Y-48918761D01*
X76947638Y-48966380D01*
X76709542Y-48966380D01*
X76614304Y-48918761D01*
X76566685Y-48871142D01*
X85097580Y-59312133D02*
X85811866Y-59312133D01*
X85954723Y-59359752D01*
X86049961Y-59454990D01*
X86097580Y-59597847D01*
X86097580Y-59693085D01*
X85097580Y-58931180D02*
X85097580Y-58264514D01*
X86097580Y-58693085D01*
X70710466Y-19035780D02*
X70710466Y-19750066D01*
X70662847Y-19892923D01*
X70567609Y-19988161D01*
X70424752Y-20035780D01*
X70329514Y-20035780D01*
X71710466Y-20035780D02*
X71139038Y-20035780D01*
X71424752Y-20035780D02*
X71424752Y-19035780D01*
X71329514Y-19178638D01*
X71234276Y-19273876D01*
X71139038Y-19321495D01*
X67759342Y-51995342D02*
X67711723Y-52042961D01*
X67568866Y-52090580D01*
X67473628Y-52090580D01*
X67330771Y-52042961D01*
X67235533Y-51947723D01*
X67187914Y-51852485D01*
X67140295Y-51662009D01*
X67140295Y-51519152D01*
X67187914Y-51328676D01*
X67235533Y-51233438D01*
X67330771Y-51138200D01*
X67473628Y-51090580D01*
X67568866Y-51090580D01*
X67711723Y-51138200D01*
X67759342Y-51185819D01*
X68711723Y-52090580D02*
X68140295Y-52090580D01*
X68426009Y-52090580D02*
X68426009Y-51090580D01*
X68330771Y-51233438D01*
X68235533Y-51328676D01*
X68140295Y-51376295D01*
X69045057Y-51090580D02*
X69711723Y-51090580D01*
X69283152Y-52090580D01*
X93083142Y-25630142D02*
X93035523Y-25677761D01*
X92892666Y-25725380D01*
X92797428Y-25725380D01*
X92654571Y-25677761D01*
X92559333Y-25582523D01*
X92511714Y-25487285D01*
X92464095Y-25296809D01*
X92464095Y-25153952D01*
X92511714Y-24963476D01*
X92559333Y-24868238D01*
X92654571Y-24773000D01*
X92797428Y-24725380D01*
X92892666Y-24725380D01*
X93035523Y-24773000D01*
X93083142Y-24820619D01*
X93416476Y-24725380D02*
X94035523Y-24725380D01*
X93702190Y-25106333D01*
X93845047Y-25106333D01*
X93940285Y-25153952D01*
X93987904Y-25201571D01*
X94035523Y-25296809D01*
X94035523Y-25534904D01*
X93987904Y-25630142D01*
X93940285Y-25677761D01*
X93845047Y-25725380D01*
X93559333Y-25725380D01*
X93464095Y-25677761D01*
X93416476Y-25630142D01*
X94416476Y-24820619D02*
X94464095Y-24773000D01*
X94559333Y-24725380D01*
X94797428Y-24725380D01*
X94892666Y-24773000D01*
X94940285Y-24820619D01*
X94987904Y-24915857D01*
X94987904Y-25011095D01*
X94940285Y-25153952D01*
X94368857Y-25725380D01*
X94987904Y-25725380D01*
X120967666Y-61288561D02*
X121110523Y-61336180D01*
X121348619Y-61336180D01*
X121443857Y-61288561D01*
X121491476Y-61240942D01*
X121539095Y-61145704D01*
X121539095Y-61050466D01*
X121491476Y-60955228D01*
X121443857Y-60907609D01*
X121348619Y-60859990D01*
X121158142Y-60812371D01*
X121062904Y-60764752D01*
X121015285Y-60717133D01*
X120967666Y-60621895D01*
X120967666Y-60526657D01*
X121015285Y-60431419D01*
X121062904Y-60383800D01*
X121158142Y-60336180D01*
X121396238Y-60336180D01*
X121539095Y-60383800D01*
X121872428Y-60336180D02*
X122110523Y-61336180D01*
X122301000Y-60621895D01*
X122491476Y-61336180D01*
X122729571Y-60336180D01*
X123062904Y-60431419D02*
X123110523Y-60383800D01*
X123205761Y-60336180D01*
X123443857Y-60336180D01*
X123539095Y-60383800D01*
X123586714Y-60431419D01*
X123634333Y-60526657D01*
X123634333Y-60621895D01*
X123586714Y-60764752D01*
X123015285Y-61336180D01*
X123634333Y-61336180D01*
X86625133Y-23547342D02*
X86577514Y-23594961D01*
X86434657Y-23642580D01*
X86339419Y-23642580D01*
X86196561Y-23594961D01*
X86101323Y-23499723D01*
X86053704Y-23404485D01*
X86006085Y-23214009D01*
X86006085Y-23071152D01*
X86053704Y-22880676D01*
X86101323Y-22785438D01*
X86196561Y-22690200D01*
X86339419Y-22642580D01*
X86434657Y-22642580D01*
X86577514Y-22690200D01*
X86625133Y-22737819D01*
X87006085Y-22737819D02*
X87053704Y-22690200D01*
X87148942Y-22642580D01*
X87387038Y-22642580D01*
X87482276Y-22690200D01*
X87529895Y-22737819D01*
X87577514Y-22833057D01*
X87577514Y-22928295D01*
X87529895Y-23071152D01*
X86958466Y-23642580D01*
X87577514Y-23642580D01*
X112387142Y-40133542D02*
X112339523Y-40181161D01*
X112196666Y-40228780D01*
X112101428Y-40228780D01*
X111958571Y-40181161D01*
X111863333Y-40085923D01*
X111815714Y-39990685D01*
X111768095Y-39800209D01*
X111768095Y-39657352D01*
X111815714Y-39466876D01*
X111863333Y-39371638D01*
X111958571Y-39276400D01*
X112101428Y-39228780D01*
X112196666Y-39228780D01*
X112339523Y-39276400D01*
X112387142Y-39324019D01*
X112768095Y-39324019D02*
X112815714Y-39276400D01*
X112910952Y-39228780D01*
X113149047Y-39228780D01*
X113244285Y-39276400D01*
X113291904Y-39324019D01*
X113339523Y-39419257D01*
X113339523Y-39514495D01*
X113291904Y-39657352D01*
X112720476Y-40228780D01*
X113339523Y-40228780D01*
X114291904Y-40228780D02*
X113720476Y-40228780D01*
X114006190Y-40228780D02*
X114006190Y-39228780D01*
X113910952Y-39371638D01*
X113815714Y-39466876D01*
X113720476Y-39514495D01*
X86529942Y-25604742D02*
X86482323Y-25652361D01*
X86339466Y-25699980D01*
X86244228Y-25699980D01*
X86101371Y-25652361D01*
X86006133Y-25557123D01*
X85958514Y-25461885D01*
X85910895Y-25271409D01*
X85910895Y-25128552D01*
X85958514Y-24938076D01*
X86006133Y-24842838D01*
X86101371Y-24747600D01*
X86244228Y-24699980D01*
X86339466Y-24699980D01*
X86482323Y-24747600D01*
X86529942Y-24795219D01*
X86910895Y-24795219D02*
X86958514Y-24747600D01*
X87053752Y-24699980D01*
X87291847Y-24699980D01*
X87387085Y-24747600D01*
X87434704Y-24795219D01*
X87482323Y-24890457D01*
X87482323Y-24985695D01*
X87434704Y-25128552D01*
X86863276Y-25699980D01*
X87482323Y-25699980D01*
X88339466Y-24699980D02*
X88148990Y-24699980D01*
X88053752Y-24747600D01*
X88006133Y-24795219D01*
X87910895Y-24938076D01*
X87863276Y-25128552D01*
X87863276Y-25509504D01*
X87910895Y-25604742D01*
X87958514Y-25652361D01*
X88053752Y-25699980D01*
X88244228Y-25699980D01*
X88339466Y-25652361D01*
X88387085Y-25604742D01*
X88434704Y-25509504D01*
X88434704Y-25271409D01*
X88387085Y-25176171D01*
X88339466Y-25128552D01*
X88244228Y-25080933D01*
X88053752Y-25080933D01*
X87958514Y-25128552D01*
X87910895Y-25176171D01*
X87863276Y-25271409D01*
X113218933Y-59761380D02*
X112885600Y-59285190D01*
X112647504Y-59761380D02*
X112647504Y-58761380D01*
X113028457Y-58761380D01*
X113123695Y-58809000D01*
X113171314Y-58856619D01*
X113218933Y-58951857D01*
X113218933Y-59094714D01*
X113171314Y-59189952D01*
X113123695Y-59237571D01*
X113028457Y-59285190D01*
X112647504Y-59285190D01*
X113552266Y-58761380D02*
X114218933Y-58761380D01*
X113790361Y-59761380D01*
X107007066Y-57459180D02*
X107007066Y-58173466D01*
X106959447Y-58316323D01*
X106864209Y-58411561D01*
X106721352Y-58459180D01*
X106626114Y-58459180D01*
X107626114Y-57887752D02*
X107530876Y-57840133D01*
X107483257Y-57792514D01*
X107435638Y-57697276D01*
X107435638Y-57649657D01*
X107483257Y-57554419D01*
X107530876Y-57506800D01*
X107626114Y-57459180D01*
X107816590Y-57459180D01*
X107911828Y-57506800D01*
X107959447Y-57554419D01*
X108007066Y-57649657D01*
X108007066Y-57697276D01*
X107959447Y-57792514D01*
X107911828Y-57840133D01*
X107816590Y-57887752D01*
X107626114Y-57887752D01*
X107530876Y-57935371D01*
X107483257Y-57982990D01*
X107435638Y-58078228D01*
X107435638Y-58268704D01*
X107483257Y-58363942D01*
X107530876Y-58411561D01*
X107626114Y-58459180D01*
X107816590Y-58459180D01*
X107911828Y-58411561D01*
X107959447Y-58363942D01*
X108007066Y-58268704D01*
X108007066Y-58078228D01*
X107959447Y-57982990D01*
X107911828Y-57935371D01*
X107816590Y-57887752D01*
X126527342Y-25592066D02*
X126574961Y-25639685D01*
X126622580Y-25782542D01*
X126622580Y-25877780D01*
X126574961Y-26020638D01*
X126479723Y-26115876D01*
X126384485Y-26163495D01*
X126194009Y-26211114D01*
X126051152Y-26211114D01*
X125860676Y-26163495D01*
X125765438Y-26115876D01*
X125670200Y-26020638D01*
X125622580Y-25877780D01*
X125622580Y-25782542D01*
X125670200Y-25639685D01*
X125717819Y-25592066D01*
X125622580Y-25258733D02*
X125622580Y-24639685D01*
X126003533Y-24973019D01*
X126003533Y-24830161D01*
X126051152Y-24734923D01*
X126098771Y-24687304D01*
X126194009Y-24639685D01*
X126432104Y-24639685D01*
X126527342Y-24687304D01*
X126574961Y-24734923D01*
X126622580Y-24830161D01*
X126622580Y-25115876D01*
X126574961Y-25211114D01*
X126527342Y-25258733D01*
X72051942Y-25680942D02*
X72004323Y-25728561D01*
X71861466Y-25776180D01*
X71766228Y-25776180D01*
X71623371Y-25728561D01*
X71528133Y-25633323D01*
X71480514Y-25538085D01*
X71432895Y-25347609D01*
X71432895Y-25204752D01*
X71480514Y-25014276D01*
X71528133Y-24919038D01*
X71623371Y-24823800D01*
X71766228Y-24776180D01*
X71861466Y-24776180D01*
X72004323Y-24823800D01*
X72051942Y-24871419D01*
X73004323Y-25776180D02*
X72432895Y-25776180D01*
X72718609Y-25776180D02*
X72718609Y-24776180D01*
X72623371Y-24919038D01*
X72528133Y-25014276D01*
X72432895Y-25061895D01*
X73861466Y-24776180D02*
X73670990Y-24776180D01*
X73575752Y-24823800D01*
X73528133Y-24871419D01*
X73432895Y-25014276D01*
X73385276Y-25204752D01*
X73385276Y-25585704D01*
X73432895Y-25680942D01*
X73480514Y-25728561D01*
X73575752Y-25776180D01*
X73766228Y-25776180D01*
X73861466Y-25728561D01*
X73909085Y-25680942D01*
X73956704Y-25585704D01*
X73956704Y-25347609D01*
X73909085Y-25252371D01*
X73861466Y-25204752D01*
X73766228Y-25157133D01*
X73575752Y-25157133D01*
X73480514Y-25204752D01*
X73432895Y-25252371D01*
X73385276Y-25347609D01*
X51152466Y-64323980D02*
X51152466Y-65038266D01*
X51104847Y-65181123D01*
X51009609Y-65276361D01*
X50866752Y-65323980D01*
X50771514Y-65323980D01*
X51533419Y-64323980D02*
X52152466Y-64323980D01*
X51819133Y-64704933D01*
X51961990Y-64704933D01*
X52057228Y-64752552D01*
X52104847Y-64800171D01*
X52152466Y-64895409D01*
X52152466Y-65133504D01*
X52104847Y-65228742D01*
X52057228Y-65276361D01*
X51961990Y-65323980D01*
X51676276Y-65323980D01*
X51581038Y-65276361D01*
X51533419Y-65228742D01*
X115054142Y-55170342D02*
X115006523Y-55217961D01*
X114863666Y-55265580D01*
X114768428Y-55265580D01*
X114625571Y-55217961D01*
X114530333Y-55122723D01*
X114482714Y-55027485D01*
X114435095Y-54837009D01*
X114435095Y-54694152D01*
X114482714Y-54503676D01*
X114530333Y-54408438D01*
X114625571Y-54313200D01*
X114768428Y-54265580D01*
X114863666Y-54265580D01*
X115006523Y-54313200D01*
X115054142Y-54360819D01*
X115435095Y-54360819D02*
X115482714Y-54313200D01*
X115577952Y-54265580D01*
X115816047Y-54265580D01*
X115911285Y-54313200D01*
X115958904Y-54360819D01*
X116006523Y-54456057D01*
X116006523Y-54551295D01*
X115958904Y-54694152D01*
X115387476Y-55265580D01*
X116006523Y-55265580D01*
X116625571Y-54265580D02*
X116720809Y-54265580D01*
X116816047Y-54313200D01*
X116863666Y-54360819D01*
X116911285Y-54456057D01*
X116958904Y-54646533D01*
X116958904Y-54884628D01*
X116911285Y-55075104D01*
X116863666Y-55170342D01*
X116816047Y-55217961D01*
X116720809Y-55265580D01*
X116625571Y-55265580D01*
X116530333Y-55217961D01*
X116482714Y-55170342D01*
X116435095Y-55075104D01*
X116387476Y-54884628D01*
X116387476Y-54646533D01*
X116435095Y-54456057D01*
X116482714Y-54360819D01*
X116530333Y-54313200D01*
X116625571Y-54265580D01*
X86555342Y-19584942D02*
X86507723Y-19632561D01*
X86364866Y-19680180D01*
X86269628Y-19680180D01*
X86126771Y-19632561D01*
X86031533Y-19537323D01*
X85983914Y-19442085D01*
X85936295Y-19251609D01*
X85936295Y-19108752D01*
X85983914Y-18918276D01*
X86031533Y-18823038D01*
X86126771Y-18727800D01*
X86269628Y-18680180D01*
X86364866Y-18680180D01*
X86507723Y-18727800D01*
X86555342Y-18775419D01*
X86936295Y-18775419D02*
X86983914Y-18727800D01*
X87079152Y-18680180D01*
X87317247Y-18680180D01*
X87412485Y-18727800D01*
X87460104Y-18775419D01*
X87507723Y-18870657D01*
X87507723Y-18965895D01*
X87460104Y-19108752D01*
X86888676Y-19680180D01*
X87507723Y-19680180D01*
X87841057Y-18680180D02*
X88507723Y-18680180D01*
X88079152Y-19680180D01*
X112336342Y-47397942D02*
X112288723Y-47445561D01*
X112145866Y-47493180D01*
X112050628Y-47493180D01*
X111907771Y-47445561D01*
X111812533Y-47350323D01*
X111764914Y-47255085D01*
X111717295Y-47064609D01*
X111717295Y-46921752D01*
X111764914Y-46731276D01*
X111812533Y-46636038D01*
X111907771Y-46540800D01*
X112050628Y-46493180D01*
X112145866Y-46493180D01*
X112288723Y-46540800D01*
X112336342Y-46588419D01*
X113288723Y-47493180D02*
X112717295Y-47493180D01*
X113003009Y-47493180D02*
X113003009Y-46493180D01*
X112907771Y-46636038D01*
X112812533Y-46731276D01*
X112717295Y-46778895D01*
X113764914Y-47493180D02*
X113955390Y-47493180D01*
X114050628Y-47445561D01*
X114098247Y-47397942D01*
X114193485Y-47255085D01*
X114241104Y-47064609D01*
X114241104Y-46683657D01*
X114193485Y-46588419D01*
X114145866Y-46540800D01*
X114050628Y-46493180D01*
X113860152Y-46493180D01*
X113764914Y-46540800D01*
X113717295Y-46588419D01*
X113669676Y-46683657D01*
X113669676Y-46921752D01*
X113717295Y-47016990D01*
X113764914Y-47064609D01*
X113860152Y-47112228D01*
X114050628Y-47112228D01*
X114145866Y-47064609D01*
X114193485Y-47016990D01*
X114241104Y-46921752D01*
X63130133Y-24607780D02*
X62796800Y-24131590D01*
X62558704Y-24607780D02*
X62558704Y-23607780D01*
X62939657Y-23607780D01*
X63034895Y-23655400D01*
X63082514Y-23703019D01*
X63130133Y-23798257D01*
X63130133Y-23941114D01*
X63082514Y-24036352D01*
X63034895Y-24083971D01*
X62939657Y-24131590D01*
X62558704Y-24131590D01*
X63463466Y-23607780D02*
X64082514Y-23607780D01*
X63749180Y-23988733D01*
X63892038Y-23988733D01*
X63987276Y-24036352D01*
X64034895Y-24083971D01*
X64082514Y-24179209D01*
X64082514Y-24417304D01*
X64034895Y-24512542D01*
X63987276Y-24560161D01*
X63892038Y-24607780D01*
X63606323Y-24607780D01*
X63511085Y-24560161D01*
X63463466Y-24512542D01*
X113269733Y-50668180D02*
X112936400Y-50191990D01*
X112698304Y-50668180D02*
X112698304Y-49668180D01*
X113079257Y-49668180D01*
X113174495Y-49715800D01*
X113222114Y-49763419D01*
X113269733Y-49858657D01*
X113269733Y-50001514D01*
X113222114Y-50096752D01*
X113174495Y-50144371D01*
X113079257Y-50191990D01*
X112698304Y-50191990D01*
X114126876Y-49668180D02*
X113936400Y-49668180D01*
X113841161Y-49715800D01*
X113793542Y-49763419D01*
X113698304Y-49906276D01*
X113650685Y-50096752D01*
X113650685Y-50477704D01*
X113698304Y-50572942D01*
X113745923Y-50620561D01*
X113841161Y-50668180D01*
X114031638Y-50668180D01*
X114126876Y-50620561D01*
X114174495Y-50572942D01*
X114222114Y-50477704D01*
X114222114Y-50239609D01*
X114174495Y-50144371D01*
X114126876Y-50096752D01*
X114031638Y-50049133D01*
X113841161Y-50049133D01*
X113745923Y-50096752D01*
X113698304Y-50144371D01*
X113650685Y-50239609D01*
X108917980Y-22588457D02*
X108441790Y-22921790D01*
X108917980Y-23159885D02*
X107917980Y-23159885D01*
X107917980Y-22778933D01*
X107965600Y-22683695D01*
X108013219Y-22636076D01*
X108108457Y-22588457D01*
X108251314Y-22588457D01*
X108346552Y-22636076D01*
X108394171Y-22683695D01*
X108441790Y-22778933D01*
X108441790Y-23159885D01*
X108917980Y-21636076D02*
X108917980Y-22207504D01*
X108917980Y-21921790D02*
X107917980Y-21921790D01*
X108060838Y-22017028D01*
X108156076Y-22112266D01*
X108203695Y-22207504D01*
X107917980Y-21302742D02*
X107917980Y-20683695D01*
X108298933Y-21017028D01*
X108298933Y-20874171D01*
X108346552Y-20778933D01*
X108394171Y-20731314D01*
X108489409Y-20683695D01*
X108727504Y-20683695D01*
X108822742Y-20731314D01*
X108870361Y-20778933D01*
X108917980Y-20874171D01*
X108917980Y-21159885D01*
X108870361Y-21255123D01*
X108822742Y-21302742D01*
X104302342Y-22626257D02*
X104349961Y-22673876D01*
X104397580Y-22816733D01*
X104397580Y-22911971D01*
X104349961Y-23054828D01*
X104254723Y-23150066D01*
X104159485Y-23197685D01*
X103969009Y-23245304D01*
X103826152Y-23245304D01*
X103635676Y-23197685D01*
X103540438Y-23150066D01*
X103445200Y-23054828D01*
X103397580Y-22911971D01*
X103397580Y-22816733D01*
X103445200Y-22673876D01*
X103492819Y-22626257D01*
X103492819Y-22245304D02*
X103445200Y-22197685D01*
X103397580Y-22102447D01*
X103397580Y-21864352D01*
X103445200Y-21769114D01*
X103492819Y-21721495D01*
X103588057Y-21673876D01*
X103683295Y-21673876D01*
X103826152Y-21721495D01*
X104397580Y-22292923D01*
X104397580Y-21673876D01*
X103397580Y-21340542D02*
X103397580Y-20721495D01*
X103778533Y-21054828D01*
X103778533Y-20911971D01*
X103826152Y-20816733D01*
X103873771Y-20769114D01*
X103969009Y-20721495D01*
X104207104Y-20721495D01*
X104302342Y-20769114D01*
X104349961Y-20816733D01*
X104397580Y-20911971D01*
X104397580Y-21197685D01*
X104349961Y-21292923D01*
X104302342Y-21340542D01*
X105462342Y-26550857D02*
X105509961Y-26598476D01*
X105557580Y-26741333D01*
X105557580Y-26836571D01*
X105509961Y-26979428D01*
X105414723Y-27074666D01*
X105319485Y-27122285D01*
X105129009Y-27169904D01*
X104986152Y-27169904D01*
X104795676Y-27122285D01*
X104700438Y-27074666D01*
X104605200Y-26979428D01*
X104557580Y-26836571D01*
X104557580Y-26741333D01*
X104605200Y-26598476D01*
X104652819Y-26550857D01*
X104652819Y-26169904D02*
X104605200Y-26122285D01*
X104557580Y-26027047D01*
X104557580Y-25788952D01*
X104605200Y-25693714D01*
X104652819Y-25646095D01*
X104748057Y-25598476D01*
X104843295Y-25598476D01*
X104986152Y-25646095D01*
X105557580Y-26217523D01*
X105557580Y-25598476D01*
X104890914Y-24741333D02*
X105557580Y-24741333D01*
X104509961Y-24979428D02*
X105224247Y-25217523D01*
X105224247Y-24598476D01*
X66006742Y-40812980D02*
X65673409Y-40336790D01*
X65435314Y-40812980D02*
X65435314Y-39812980D01*
X65816266Y-39812980D01*
X65911504Y-39860600D01*
X65959123Y-39908219D01*
X66006742Y-40003457D01*
X66006742Y-40146314D01*
X65959123Y-40241552D01*
X65911504Y-40289171D01*
X65816266Y-40336790D01*
X65435314Y-40336790D01*
X66959123Y-40812980D02*
X66387695Y-40812980D01*
X66673409Y-40812980D02*
X66673409Y-39812980D01*
X66578171Y-39955838D01*
X66482933Y-40051076D01*
X66387695Y-40098695D01*
X67863885Y-39812980D02*
X67387695Y-39812980D01*
X67340076Y-40289171D01*
X67387695Y-40241552D01*
X67482933Y-40193933D01*
X67721028Y-40193933D01*
X67816266Y-40241552D01*
X67863885Y-40289171D01*
X67911504Y-40384409D01*
X67911504Y-40622504D01*
X67863885Y-40717742D01*
X67816266Y-40765361D01*
X67721028Y-40812980D01*
X67482933Y-40812980D01*
X67387695Y-40765361D01*
X67340076Y-40717742D01*
X112336342Y-41676580D02*
X112003009Y-41200390D01*
X111764914Y-41676580D02*
X111764914Y-40676580D01*
X112145866Y-40676580D01*
X112241104Y-40724200D01*
X112288723Y-40771819D01*
X112336342Y-40867057D01*
X112336342Y-41009914D01*
X112288723Y-41105152D01*
X112241104Y-41152771D01*
X112145866Y-41200390D01*
X111764914Y-41200390D01*
X113288723Y-41676580D02*
X112717295Y-41676580D01*
X113003009Y-41676580D02*
X113003009Y-40676580D01*
X112907771Y-40819438D01*
X112812533Y-40914676D01*
X112717295Y-40962295D01*
X114241104Y-41676580D02*
X113669676Y-41676580D01*
X113955390Y-41676580D02*
X113955390Y-40676580D01*
X113860152Y-40819438D01*
X113764914Y-40914676D01*
X113669676Y-40962295D01*
X75892066Y-55967380D02*
X75892066Y-56681666D01*
X75844447Y-56824523D01*
X75749209Y-56919761D01*
X75606352Y-56967380D01*
X75511114Y-56967380D01*
X76844447Y-55967380D02*
X76368257Y-55967380D01*
X76320638Y-56443571D01*
X76368257Y-56395952D01*
X76463495Y-56348333D01*
X76701590Y-56348333D01*
X76796828Y-56395952D01*
X76844447Y-56443571D01*
X76892066Y-56538809D01*
X76892066Y-56776904D01*
X76844447Y-56872142D01*
X76796828Y-56919761D01*
X76701590Y-56967380D01*
X76463495Y-56967380D01*
X76368257Y-56919761D01*
X76320638Y-56872142D01*
X100200266Y-57459180D02*
X100200266Y-58173466D01*
X100152647Y-58316323D01*
X100057409Y-58411561D01*
X99914552Y-58459180D01*
X99819314Y-58459180D01*
X100724076Y-58459180D02*
X100914552Y-58459180D01*
X101009790Y-58411561D01*
X101057409Y-58363942D01*
X101152647Y-58221085D01*
X101200266Y-58030609D01*
X101200266Y-57649657D01*
X101152647Y-57554419D01*
X101105028Y-57506800D01*
X101009790Y-57459180D01*
X100819314Y-57459180D01*
X100724076Y-57506800D01*
X100676457Y-57554419D01*
X100628838Y-57649657D01*
X100628838Y-57887752D01*
X100676457Y-57982990D01*
X100724076Y-58030609D01*
X100819314Y-58078228D01*
X101009790Y-58078228D01*
X101105028Y-58030609D01*
X101152647Y-57982990D01*
X101200266Y-57887752D01*
X93032342Y-21540742D02*
X92984723Y-21588361D01*
X92841866Y-21635980D01*
X92746628Y-21635980D01*
X92603771Y-21588361D01*
X92508533Y-21493123D01*
X92460914Y-21397885D01*
X92413295Y-21207409D01*
X92413295Y-21064552D01*
X92460914Y-20874076D01*
X92508533Y-20778838D01*
X92603771Y-20683600D01*
X92746628Y-20635980D01*
X92841866Y-20635980D01*
X92984723Y-20683600D01*
X93032342Y-20731219D01*
X93365676Y-20635980D02*
X93984723Y-20635980D01*
X93651390Y-21016933D01*
X93794247Y-21016933D01*
X93889485Y-21064552D01*
X93937104Y-21112171D01*
X93984723Y-21207409D01*
X93984723Y-21445504D01*
X93937104Y-21540742D01*
X93889485Y-21588361D01*
X93794247Y-21635980D01*
X93508533Y-21635980D01*
X93413295Y-21588361D01*
X93365676Y-21540742D01*
X94603771Y-20635980D02*
X94699009Y-20635980D01*
X94794247Y-20683600D01*
X94841866Y-20731219D01*
X94889485Y-20826457D01*
X94937104Y-21016933D01*
X94937104Y-21255028D01*
X94889485Y-21445504D01*
X94841866Y-21540742D01*
X94794247Y-21588361D01*
X94699009Y-21635980D01*
X94603771Y-21635980D01*
X94508533Y-21588361D01*
X94460914Y-21540742D01*
X94413295Y-21445504D01*
X94365676Y-21255028D01*
X94365676Y-21016933D01*
X94413295Y-20826457D01*
X94460914Y-20731219D01*
X94508533Y-20683600D01*
X94603771Y-20635980D01*
X65351066Y-16902180D02*
X65351066Y-17616466D01*
X65303447Y-17759323D01*
X65208209Y-17854561D01*
X65065352Y-17902180D01*
X64970114Y-17902180D01*
X65779638Y-16997419D02*
X65827257Y-16949800D01*
X65922495Y-16902180D01*
X66160590Y-16902180D01*
X66255828Y-16949800D01*
X66303447Y-16997419D01*
X66351066Y-17092657D01*
X66351066Y-17187895D01*
X66303447Y-17330752D01*
X65732019Y-17902180D01*
X66351066Y-17902180D01*
X65981342Y-45486580D02*
X65648009Y-45010390D01*
X65409914Y-45486580D02*
X65409914Y-44486580D01*
X65790866Y-44486580D01*
X65886104Y-44534200D01*
X65933723Y-44581819D01*
X65981342Y-44677057D01*
X65981342Y-44819914D01*
X65933723Y-44915152D01*
X65886104Y-44962771D01*
X65790866Y-45010390D01*
X65409914Y-45010390D01*
X66933723Y-45486580D02*
X66362295Y-45486580D01*
X66648009Y-45486580D02*
X66648009Y-44486580D01*
X66552771Y-44629438D01*
X66457533Y-44724676D01*
X66362295Y-44772295D01*
X67505152Y-44915152D02*
X67409914Y-44867533D01*
X67362295Y-44819914D01*
X67314676Y-44724676D01*
X67314676Y-44677057D01*
X67362295Y-44581819D01*
X67409914Y-44534200D01*
X67505152Y-44486580D01*
X67695628Y-44486580D01*
X67790866Y-44534200D01*
X67838485Y-44581819D01*
X67886104Y-44677057D01*
X67886104Y-44724676D01*
X67838485Y-44819914D01*
X67790866Y-44867533D01*
X67695628Y-44915152D01*
X67505152Y-44915152D01*
X67409914Y-44962771D01*
X67362295Y-45010390D01*
X67314676Y-45105628D01*
X67314676Y-45296104D01*
X67362295Y-45391342D01*
X67409914Y-45438961D01*
X67505152Y-45486580D01*
X67695628Y-45486580D01*
X67790866Y-45438961D01*
X67838485Y-45391342D01*
X67886104Y-45296104D01*
X67886104Y-45105628D01*
X67838485Y-45010390D01*
X67790866Y-44962771D01*
X67695628Y-44915152D01*
X85979095Y-30008580D02*
X85979095Y-30818104D01*
X86026714Y-30913342D01*
X86074333Y-30960961D01*
X86169571Y-31008580D01*
X86360047Y-31008580D01*
X86455285Y-30960961D01*
X86502904Y-30913342D01*
X86550523Y-30818104D01*
X86550523Y-30008580D01*
X86979095Y-30103819D02*
X87026714Y-30056200D01*
X87121952Y-30008580D01*
X87360047Y-30008580D01*
X87455285Y-30056200D01*
X87502904Y-30103819D01*
X87550523Y-30199057D01*
X87550523Y-30294295D01*
X87502904Y-30437152D01*
X86931476Y-31008580D01*
X87550523Y-31008580D01*
X121831266Y-17676761D02*
X121974123Y-17724380D01*
X122212219Y-17724380D01*
X122307457Y-17676761D01*
X122355076Y-17629142D01*
X122402695Y-17533904D01*
X122402695Y-17438666D01*
X122355076Y-17343428D01*
X122307457Y-17295809D01*
X122212219Y-17248190D01*
X122021742Y-17200571D01*
X121926504Y-17152952D01*
X121878885Y-17105333D01*
X121831266Y-17010095D01*
X121831266Y-16914857D01*
X121878885Y-16819619D01*
X121926504Y-16772000D01*
X122021742Y-16724380D01*
X122259838Y-16724380D01*
X122402695Y-16772000D01*
X122736028Y-16724380D02*
X122974123Y-17724380D01*
X123164600Y-17010095D01*
X123355076Y-17724380D01*
X123593171Y-16724380D01*
X124402695Y-17057714D02*
X124402695Y-17724380D01*
X124164600Y-16676761D02*
X123926504Y-17391047D01*
X124545552Y-17391047D01*
X66057542Y-42438580D02*
X65724209Y-41962390D01*
X65486114Y-42438580D02*
X65486114Y-41438580D01*
X65867066Y-41438580D01*
X65962304Y-41486200D01*
X66009923Y-41533819D01*
X66057542Y-41629057D01*
X66057542Y-41771914D01*
X66009923Y-41867152D01*
X65962304Y-41914771D01*
X65867066Y-41962390D01*
X65486114Y-41962390D01*
X67009923Y-42438580D02*
X66438495Y-42438580D01*
X66724209Y-42438580D02*
X66724209Y-41438580D01*
X66628971Y-41581438D01*
X66533733Y-41676676D01*
X66438495Y-41724295D01*
X67867066Y-41438580D02*
X67676590Y-41438580D01*
X67581352Y-41486200D01*
X67533733Y-41533819D01*
X67438495Y-41676676D01*
X67390876Y-41867152D01*
X67390876Y-42248104D01*
X67438495Y-42343342D01*
X67486114Y-42390961D01*
X67581352Y-42438580D01*
X67771828Y-42438580D01*
X67867066Y-42390961D01*
X67914685Y-42343342D01*
X67962304Y-42248104D01*
X67962304Y-42010009D01*
X67914685Y-41914771D01*
X67867066Y-41867152D01*
X67771828Y-41819533D01*
X67581352Y-41819533D01*
X67486114Y-41867152D01*
X67438495Y-41914771D01*
X67390876Y-42010009D01*
X76827142Y-51690542D02*
X76779523Y-51738161D01*
X76636666Y-51785780D01*
X76541428Y-51785780D01*
X76398571Y-51738161D01*
X76303333Y-51642923D01*
X76255714Y-51547685D01*
X76208095Y-51357209D01*
X76208095Y-51214352D01*
X76255714Y-51023876D01*
X76303333Y-50928638D01*
X76398571Y-50833400D01*
X76541428Y-50785780D01*
X76636666Y-50785780D01*
X76779523Y-50833400D01*
X76827142Y-50881019D01*
X77779523Y-51785780D02*
X77208095Y-51785780D01*
X77493809Y-51785780D02*
X77493809Y-50785780D01*
X77398571Y-50928638D01*
X77303333Y-51023876D01*
X77208095Y-51071495D01*
X78350952Y-51214352D02*
X78255714Y-51166733D01*
X78208095Y-51119114D01*
X78160476Y-51023876D01*
X78160476Y-50976257D01*
X78208095Y-50881019D01*
X78255714Y-50833400D01*
X78350952Y-50785780D01*
X78541428Y-50785780D01*
X78636666Y-50833400D01*
X78684285Y-50881019D01*
X78731904Y-50976257D01*
X78731904Y-51023876D01*
X78684285Y-51119114D01*
X78636666Y-51166733D01*
X78541428Y-51214352D01*
X78350952Y-51214352D01*
X78255714Y-51261971D01*
X78208095Y-51309590D01*
X78160476Y-51404828D01*
X78160476Y-51595304D01*
X78208095Y-51690542D01*
X78255714Y-51738161D01*
X78350952Y-51785780D01*
X78541428Y-51785780D01*
X78636666Y-51738161D01*
X78684285Y-51690542D01*
X78731904Y-51595304D01*
X78731904Y-51404828D01*
X78684285Y-51309590D01*
X78636666Y-51261971D01*
X78541428Y-51214352D01*
X86555342Y-17476742D02*
X86507723Y-17524361D01*
X86364866Y-17571980D01*
X86269628Y-17571980D01*
X86126771Y-17524361D01*
X86031533Y-17429123D01*
X85983914Y-17333885D01*
X85936295Y-17143409D01*
X85936295Y-17000552D01*
X85983914Y-16810076D01*
X86031533Y-16714838D01*
X86126771Y-16619600D01*
X86269628Y-16571980D01*
X86364866Y-16571980D01*
X86507723Y-16619600D01*
X86555342Y-16667219D01*
X86936295Y-16667219D02*
X86983914Y-16619600D01*
X87079152Y-16571980D01*
X87317247Y-16571980D01*
X87412485Y-16619600D01*
X87460104Y-16667219D01*
X87507723Y-16762457D01*
X87507723Y-16857695D01*
X87460104Y-17000552D01*
X86888676Y-17571980D01*
X87507723Y-17571980D01*
X88412485Y-16571980D02*
X87936295Y-16571980D01*
X87888676Y-17048171D01*
X87936295Y-17000552D01*
X88031533Y-16952933D01*
X88269628Y-16952933D01*
X88364866Y-17000552D01*
X88412485Y-17048171D01*
X88460104Y-17143409D01*
X88460104Y-17381504D01*
X88412485Y-17476742D01*
X88364866Y-17524361D01*
X88269628Y-17571980D01*
X88031533Y-17571980D01*
X87936295Y-17524361D01*
X87888676Y-17476742D01*
X112361742Y-43022780D02*
X112028409Y-42546590D01*
X111790314Y-43022780D02*
X111790314Y-42022780D01*
X112171266Y-42022780D01*
X112266504Y-42070400D01*
X112314123Y-42118019D01*
X112361742Y-42213257D01*
X112361742Y-42356114D01*
X112314123Y-42451352D01*
X112266504Y-42498971D01*
X112171266Y-42546590D01*
X111790314Y-42546590D01*
X113314123Y-43022780D02*
X112742695Y-43022780D01*
X113028409Y-43022780D02*
X113028409Y-42022780D01*
X112933171Y-42165638D01*
X112837933Y-42260876D01*
X112742695Y-42308495D01*
X113933171Y-42022780D02*
X114028409Y-42022780D01*
X114123647Y-42070400D01*
X114171266Y-42118019D01*
X114218885Y-42213257D01*
X114266504Y-42403733D01*
X114266504Y-42641828D01*
X114218885Y-42832304D01*
X114171266Y-42927542D01*
X114123647Y-42975161D01*
X114028409Y-43022780D01*
X113933171Y-43022780D01*
X113837933Y-42975161D01*
X113790314Y-42927542D01*
X113742695Y-42832304D01*
X113695076Y-42641828D01*
X113695076Y-42403733D01*
X113742695Y-42213257D01*
X113790314Y-42118019D01*
X113837933Y-42070400D01*
X113933171Y-42022780D01*
X93108542Y-23547342D02*
X93060923Y-23594961D01*
X92918066Y-23642580D01*
X92822828Y-23642580D01*
X92679971Y-23594961D01*
X92584733Y-23499723D01*
X92537114Y-23404485D01*
X92489495Y-23214009D01*
X92489495Y-23071152D01*
X92537114Y-22880676D01*
X92584733Y-22785438D01*
X92679971Y-22690200D01*
X92822828Y-22642580D01*
X92918066Y-22642580D01*
X93060923Y-22690200D01*
X93108542Y-22737819D01*
X93441876Y-22642580D02*
X94060923Y-22642580D01*
X93727590Y-23023533D01*
X93870447Y-23023533D01*
X93965685Y-23071152D01*
X94013304Y-23118771D01*
X94060923Y-23214009D01*
X94060923Y-23452104D01*
X94013304Y-23547342D01*
X93965685Y-23594961D01*
X93870447Y-23642580D01*
X93584733Y-23642580D01*
X93489495Y-23594961D01*
X93441876Y-23547342D01*
X95013304Y-23642580D02*
X94441876Y-23642580D01*
X94727590Y-23642580D02*
X94727590Y-22642580D01*
X94632352Y-22785438D01*
X94537114Y-22880676D01*
X94441876Y-22928295D01*
X65303495Y-26430180D02*
X65303495Y-27239704D01*
X65351114Y-27334942D01*
X65398733Y-27382561D01*
X65493971Y-27430180D01*
X65684447Y-27430180D01*
X65779685Y-27382561D01*
X65827304Y-27334942D01*
X65874923Y-27239704D01*
X65874923Y-26430180D01*
X66779685Y-26763514D02*
X66779685Y-27430180D01*
X66541590Y-26382561D02*
X66303495Y-27096847D01*
X66922542Y-27096847D01*
X71964609Y-55181990D02*
X71964609Y-55658180D01*
X71631276Y-54658180D02*
X71964609Y-55181990D01*
X72297942Y-54658180D01*
X73155085Y-55658180D02*
X72583657Y-55658180D01*
X72869371Y-55658180D02*
X72869371Y-54658180D01*
X72774133Y-54801038D01*
X72678895Y-54896276D01*
X72583657Y-54943895D01*
X93057742Y-19534142D02*
X93010123Y-19581761D01*
X92867266Y-19629380D01*
X92772028Y-19629380D01*
X92629171Y-19581761D01*
X92533933Y-19486523D01*
X92486314Y-19391285D01*
X92438695Y-19200809D01*
X92438695Y-19057952D01*
X92486314Y-18867476D01*
X92533933Y-18772238D01*
X92629171Y-18677000D01*
X92772028Y-18629380D01*
X92867266Y-18629380D01*
X93010123Y-18677000D01*
X93057742Y-18724619D01*
X93438695Y-18724619D02*
X93486314Y-18677000D01*
X93581552Y-18629380D01*
X93819647Y-18629380D01*
X93914885Y-18677000D01*
X93962504Y-18724619D01*
X94010123Y-18819857D01*
X94010123Y-18915095D01*
X93962504Y-19057952D01*
X93391076Y-19629380D01*
X94010123Y-19629380D01*
X94486314Y-19629380D02*
X94676790Y-19629380D01*
X94772028Y-19581761D01*
X94819647Y-19534142D01*
X94914885Y-19391285D01*
X94962504Y-19200809D01*
X94962504Y-18819857D01*
X94914885Y-18724619D01*
X94867266Y-18677000D01*
X94772028Y-18629380D01*
X94581552Y-18629380D01*
X94486314Y-18677000D01*
X94438695Y-18724619D01*
X94391076Y-18819857D01*
X94391076Y-19057952D01*
X94438695Y-19153190D01*
X94486314Y-19200809D01*
X94581552Y-19248428D01*
X94772028Y-19248428D01*
X94867266Y-19200809D01*
X94914885Y-19153190D01*
X94962504Y-19057952D01*
X74763333Y-30602180D02*
X74430000Y-30125990D01*
X74191904Y-30602180D02*
X74191904Y-29602180D01*
X74572857Y-29602180D01*
X74668095Y-29649800D01*
X74715714Y-29697419D01*
X74763333Y-29792657D01*
X74763333Y-29935514D01*
X74715714Y-30030752D01*
X74668095Y-30078371D01*
X74572857Y-30125990D01*
X74191904Y-30125990D01*
X75715714Y-30602180D02*
X75144285Y-30602180D01*
X75430000Y-30602180D02*
X75430000Y-29602180D01*
X75334761Y-29745038D01*
X75239523Y-29840276D01*
X75144285Y-29887895D01*
X113193533Y-58262780D02*
X112860200Y-57786590D01*
X112622104Y-58262780D02*
X112622104Y-57262780D01*
X113003057Y-57262780D01*
X113098295Y-57310400D01*
X113145914Y-57358019D01*
X113193533Y-57453257D01*
X113193533Y-57596114D01*
X113145914Y-57691352D01*
X113098295Y-57738971D01*
X113003057Y-57786590D01*
X112622104Y-57786590D01*
X113669723Y-58262780D02*
X113860200Y-58262780D01*
X113955438Y-58215161D01*
X114003057Y-58167542D01*
X114098295Y-58024685D01*
X114145914Y-57834209D01*
X114145914Y-57453257D01*
X114098295Y-57358019D01*
X114050676Y-57310400D01*
X113955438Y-57262780D01*
X113764961Y-57262780D01*
X113669723Y-57310400D01*
X113622104Y-57358019D01*
X113574485Y-57453257D01*
X113574485Y-57691352D01*
X113622104Y-57786590D01*
X113669723Y-57834209D01*
X113764961Y-57881828D01*
X113955438Y-57881828D01*
X114050676Y-57834209D01*
X114098295Y-57786590D01*
X114145914Y-57691352D01*
X113320533Y-49017180D02*
X112987200Y-48540990D01*
X112749104Y-49017180D02*
X112749104Y-48017180D01*
X113130057Y-48017180D01*
X113225295Y-48064800D01*
X113272914Y-48112419D01*
X113320533Y-48207657D01*
X113320533Y-48350514D01*
X113272914Y-48445752D01*
X113225295Y-48493371D01*
X113130057Y-48540990D01*
X112749104Y-48540990D01*
X113891961Y-48445752D02*
X113796723Y-48398133D01*
X113749104Y-48350514D01*
X113701485Y-48255276D01*
X113701485Y-48207657D01*
X113749104Y-48112419D01*
X113796723Y-48064800D01*
X113891961Y-48017180D01*
X114082438Y-48017180D01*
X114177676Y-48064800D01*
X114225295Y-48112419D01*
X114272914Y-48207657D01*
X114272914Y-48255276D01*
X114225295Y-48350514D01*
X114177676Y-48398133D01*
X114082438Y-48445752D01*
X113891961Y-48445752D01*
X113796723Y-48493371D01*
X113749104Y-48540990D01*
X113701485Y-48636228D01*
X113701485Y-48826704D01*
X113749104Y-48921942D01*
X113796723Y-48969561D01*
X113891961Y-49017180D01*
X114082438Y-49017180D01*
X114177676Y-48969561D01*
X114225295Y-48921942D01*
X114272914Y-48826704D01*
X114272914Y-48636228D01*
X114225295Y-48540990D01*
X114177676Y-48493371D01*
X114082438Y-48445752D01*
X96980476Y-27676780D02*
X96980476Y-28391066D01*
X96932857Y-28533923D01*
X96837619Y-28629161D01*
X96694761Y-28676780D01*
X96599523Y-28676780D01*
X97980476Y-28676780D02*
X97409047Y-28676780D01*
X97694761Y-28676780D02*
X97694761Y-27676780D01*
X97599523Y-27819638D01*
X97504285Y-27914876D01*
X97409047Y-27962495D01*
X98932857Y-28676780D02*
X98361428Y-28676780D01*
X98647142Y-28676780D02*
X98647142Y-27676780D01*
X98551904Y-27819638D01*
X98456666Y-27914876D01*
X98361428Y-27962495D01*
X86608492Y-21596542D02*
X86560873Y-21644161D01*
X86418016Y-21691780D01*
X86322778Y-21691780D01*
X86179921Y-21644161D01*
X86084683Y-21548923D01*
X86037064Y-21453685D01*
X85989445Y-21263209D01*
X85989445Y-21120352D01*
X86037064Y-20929876D01*
X86084683Y-20834638D01*
X86179921Y-20739400D01*
X86322778Y-20691780D01*
X86418016Y-20691780D01*
X86560873Y-20739400D01*
X86608492Y-20787019D01*
X86989445Y-20787019D02*
X87037064Y-20739400D01*
X87132302Y-20691780D01*
X87370397Y-20691780D01*
X87465635Y-20739400D01*
X87513254Y-20787019D01*
X87560873Y-20882257D01*
X87560873Y-20977495D01*
X87513254Y-21120352D01*
X86941826Y-21691780D01*
X87560873Y-21691780D01*
X88132302Y-21120352D02*
X88037064Y-21072733D01*
X87989445Y-21025114D01*
X87941826Y-20929876D01*
X87941826Y-20882257D01*
X87989445Y-20787019D01*
X88037064Y-20739400D01*
X88132302Y-20691780D01*
X88322778Y-20691780D01*
X88418016Y-20739400D01*
X88465635Y-20787019D01*
X88513254Y-20882257D01*
X88513254Y-20929876D01*
X88465635Y-21025114D01*
X88418016Y-21072733D01*
X88322778Y-21120352D01*
X88132302Y-21120352D01*
X88037064Y-21167971D01*
X87989445Y-21215590D01*
X87941826Y-21310828D01*
X87941826Y-21501304D01*
X87989445Y-21596542D01*
X88037064Y-21644161D01*
X88132302Y-21691780D01*
X88322778Y-21691780D01*
X88418016Y-21644161D01*
X88465635Y-21596542D01*
X88513254Y-21501304D01*
X88513254Y-21310828D01*
X88465635Y-21215590D01*
X88418016Y-21167971D01*
X88322778Y-21120352D01*
X120815266Y-52042961D02*
X120958123Y-52090580D01*
X121196219Y-52090580D01*
X121291457Y-52042961D01*
X121339076Y-51995342D01*
X121386695Y-51900104D01*
X121386695Y-51804866D01*
X121339076Y-51709628D01*
X121291457Y-51662009D01*
X121196219Y-51614390D01*
X121005742Y-51566771D01*
X120910504Y-51519152D01*
X120862885Y-51471533D01*
X120815266Y-51376295D01*
X120815266Y-51281057D01*
X120862885Y-51185819D01*
X120910504Y-51138200D01*
X121005742Y-51090580D01*
X121243838Y-51090580D01*
X121386695Y-51138200D01*
X121720028Y-51090580D02*
X121958123Y-52090580D01*
X122148600Y-51376295D01*
X122339076Y-52090580D01*
X122577171Y-51090580D01*
X123481933Y-52090580D02*
X122910504Y-52090580D01*
X123196219Y-52090580D02*
X123196219Y-51090580D01*
X123100980Y-51233438D01*
X123005742Y-51328676D01*
X122910504Y-51376295D01*
X107462580Y-26068257D02*
X106986390Y-26401590D01*
X107462580Y-26639685D02*
X106462580Y-26639685D01*
X106462580Y-26258733D01*
X106510200Y-26163495D01*
X106557819Y-26115876D01*
X106653057Y-26068257D01*
X106795914Y-26068257D01*
X106891152Y-26115876D01*
X106938771Y-26163495D01*
X106986390Y-26258733D01*
X106986390Y-26639685D01*
X107462580Y-25115876D02*
X107462580Y-25687304D01*
X107462580Y-25401590D02*
X106462580Y-25401590D01*
X106605438Y-25496828D01*
X106700676Y-25592066D01*
X106748295Y-25687304D01*
X106795914Y-24258733D02*
X107462580Y-24258733D01*
X106414961Y-24496828D02*
X107129247Y-24734923D01*
X107129247Y-24115876D01*
X81158626Y-28997580D02*
X81158626Y-29711866D01*
X81111007Y-29854723D01*
X81015769Y-29949961D01*
X80872911Y-29997580D01*
X80777673Y-29997580D01*
X82158626Y-29997580D02*
X81587197Y-29997580D01*
X81872911Y-29997580D02*
X81872911Y-28997580D01*
X81777673Y-29140438D01*
X81682435Y-29235676D01*
X81587197Y-29283295D01*
X82777673Y-28997580D02*
X82872911Y-28997580D01*
X82968150Y-29045200D01*
X83015769Y-29092819D01*
X83063388Y-29188057D01*
X83111007Y-29378533D01*
X83111007Y-29616628D01*
X83063388Y-29807104D01*
X83015769Y-29902342D01*
X82968150Y-29949961D01*
X82872911Y-29997580D01*
X82777673Y-29997580D01*
X82682435Y-29949961D01*
X82634816Y-29902342D01*
X82587197Y-29807104D01*
X82539578Y-29616628D01*
X82539578Y-29378533D01*
X82587197Y-29188057D01*
X82634816Y-29092819D01*
X82682435Y-29045200D01*
X82777673Y-28997580D01*
X80834019Y-42512745D02*
X80024495Y-42512745D01*
X79929257Y-42560364D01*
X79881638Y-42607983D01*
X79834019Y-42703221D01*
X79834019Y-42893697D01*
X79881638Y-42988935D01*
X79929257Y-43036554D01*
X80024495Y-43084173D01*
X80834019Y-43084173D01*
X80834019Y-43465126D02*
X80834019Y-44084173D01*
X80453066Y-43750840D01*
X80453066Y-43893697D01*
X80405447Y-43988935D01*
X80357828Y-44036554D01*
X80262590Y-44084173D01*
X80024495Y-44084173D01*
X79929257Y-44036554D01*
X79881638Y-43988935D01*
X79834019Y-43893697D01*
X79834019Y-43607983D01*
X79881638Y-43512745D01*
X79929257Y-43465126D01*
X129484380Y-28608257D02*
X129008190Y-28941590D01*
X129484380Y-29179685D02*
X128484380Y-29179685D01*
X128484380Y-28798733D01*
X128532000Y-28703495D01*
X128579619Y-28655876D01*
X128674857Y-28608257D01*
X128817714Y-28608257D01*
X128912952Y-28655876D01*
X128960571Y-28703495D01*
X129008190Y-28798733D01*
X129008190Y-29179685D01*
X129484380Y-27655876D02*
X129484380Y-28227304D01*
X129484380Y-27941590D02*
X128484380Y-27941590D01*
X128627238Y-28036828D01*
X128722476Y-28132066D01*
X128770095Y-28227304D01*
X128579619Y-27274923D02*
X128532000Y-27227304D01*
X128484380Y-27132066D01*
X128484380Y-26893971D01*
X128532000Y-26798733D01*
X128579619Y-26751114D01*
X128674857Y-26703495D01*
X128770095Y-26703495D01*
X128912952Y-26751114D01*
X129484380Y-27322542D01*
X129484380Y-26703495D01*
X93229133Y-33700980D02*
X92752942Y-33700980D01*
X92752942Y-32700980D01*
X94086276Y-33700980D02*
X93514847Y-33700980D01*
X93800561Y-33700980D02*
X93800561Y-32700980D01*
X93705323Y-32843838D01*
X93610085Y-32939076D01*
X93514847Y-32986695D01*
X53844866Y-46137580D02*
X53844866Y-46851866D01*
X53797247Y-46994723D01*
X53702009Y-47089961D01*
X53559152Y-47137580D01*
X53463914Y-47137580D01*
X54749628Y-46470914D02*
X54749628Y-47137580D01*
X54511533Y-46089961D02*
X54273438Y-46804247D01*
X54892485Y-46804247D01*
X93051333Y-17502142D02*
X93003714Y-17549761D01*
X92860857Y-17597380D01*
X92765619Y-17597380D01*
X92622761Y-17549761D01*
X92527523Y-17454523D01*
X92479904Y-17359285D01*
X92432285Y-17168809D01*
X92432285Y-17025952D01*
X92479904Y-16835476D01*
X92527523Y-16740238D01*
X92622761Y-16645000D01*
X92765619Y-16597380D01*
X92860857Y-16597380D01*
X93003714Y-16645000D01*
X93051333Y-16692619D01*
X93908476Y-16930714D02*
X93908476Y-17597380D01*
X93670380Y-16549761D02*
X93432285Y-17264047D01*
X94051333Y-17264047D01*
X63104733Y-26284180D02*
X62771400Y-25807990D01*
X62533304Y-26284180D02*
X62533304Y-25284180D01*
X62914257Y-25284180D01*
X63009495Y-25331800D01*
X63057114Y-25379419D01*
X63104733Y-25474657D01*
X63104733Y-25617514D01*
X63057114Y-25712752D01*
X63009495Y-25760371D01*
X62914257Y-25807990D01*
X62533304Y-25807990D01*
X63961876Y-25617514D02*
X63961876Y-26284180D01*
X63723780Y-25236561D02*
X63485685Y-25950847D01*
X64104733Y-25950847D01*
X98163142Y-16406342D02*
X98115523Y-16453961D01*
X97972666Y-16501580D01*
X97877428Y-16501580D01*
X97734571Y-16453961D01*
X97639333Y-16358723D01*
X97591714Y-16263485D01*
X97544095Y-16073009D01*
X97544095Y-15930152D01*
X97591714Y-15739676D01*
X97639333Y-15644438D01*
X97734571Y-15549200D01*
X97877428Y-15501580D01*
X97972666Y-15501580D01*
X98115523Y-15549200D01*
X98163142Y-15596819D01*
X98544095Y-15596819D02*
X98591714Y-15549200D01*
X98686952Y-15501580D01*
X98925047Y-15501580D01*
X99020285Y-15549200D01*
X99067904Y-15596819D01*
X99115523Y-15692057D01*
X99115523Y-15787295D01*
X99067904Y-15930152D01*
X98496476Y-16501580D01*
X99115523Y-16501580D01*
X99496476Y-15596819D02*
X99544095Y-15549200D01*
X99639333Y-15501580D01*
X99877428Y-15501580D01*
X99972666Y-15549200D01*
X100020285Y-15596819D01*
X100067904Y-15692057D01*
X100067904Y-15787295D01*
X100020285Y-15930152D01*
X99448857Y-16501580D01*
X100067904Y-16501580D01*
X65981342Y-43911780D02*
X65648009Y-43435590D01*
X65409914Y-43911780D02*
X65409914Y-42911780D01*
X65790866Y-42911780D01*
X65886104Y-42959400D01*
X65933723Y-43007019D01*
X65981342Y-43102257D01*
X65981342Y-43245114D01*
X65933723Y-43340352D01*
X65886104Y-43387971D01*
X65790866Y-43435590D01*
X65409914Y-43435590D01*
X66933723Y-43911780D02*
X66362295Y-43911780D01*
X66648009Y-43911780D02*
X66648009Y-42911780D01*
X66552771Y-43054638D01*
X66457533Y-43149876D01*
X66362295Y-43197495D01*
X67267057Y-42911780D02*
X67933723Y-42911780D01*
X67505152Y-43911780D01*
X78931433Y-31361680D02*
X78598100Y-30885490D01*
X78360004Y-31361680D02*
X78360004Y-30361680D01*
X78740957Y-30361680D01*
X78836195Y-30409300D01*
X78883814Y-30456919D01*
X78931433Y-30552157D01*
X78931433Y-30695014D01*
X78883814Y-30790252D01*
X78836195Y-30837871D01*
X78740957Y-30885490D01*
X78360004Y-30885490D01*
X79312385Y-30456919D02*
X79360004Y-30409300D01*
X79455242Y-30361680D01*
X79693338Y-30361680D01*
X79788576Y-30409300D01*
X79836195Y-30456919D01*
X79883814Y-30552157D01*
X79883814Y-30647395D01*
X79836195Y-30790252D01*
X79264766Y-31361680D01*
X79883814Y-31361680D01*
X125750200Y-40374000D02*
X125750200Y-38874000D01*
X120000200Y-42874000D02*
X124500200Y-42874000D01*
X124500200Y-36374000D02*
X120000200Y-36374000D01*
X118750200Y-38874000D02*
X118750200Y-40374000D01*
X73897258Y-48093100D02*
X73422742Y-48093100D01*
X73897258Y-49138100D02*
X73422742Y-49138100D01*
D12*
X89245200Y-60308800D02*
X89245200Y-57648800D01*
X89245200Y-60308800D02*
X94385200Y-60308800D01*
X86645200Y-60308800D02*
X86645200Y-58978800D01*
X94385200Y-60308800D02*
X94385200Y-57648800D01*
X89245200Y-57648800D02*
X94385200Y-57648800D01*
X87975200Y-60308800D02*
X86645200Y-60308800D01*
X72821000Y-17617000D02*
X72821000Y-19597000D01*
X80341000Y-19597000D02*
X79921000Y-19597000D01*
X72821000Y-15647000D02*
X72821000Y-15247000D01*
X72821000Y-19597000D02*
X73241000Y-19597000D01*
X78341000Y-19827000D02*
X78341000Y-20277000D01*
X80341000Y-17617000D02*
X80341000Y-19597000D01*
X80341000Y-15247000D02*
X80341000Y-15647000D01*
X77891000Y-20277000D02*
X78341000Y-20277000D01*
D10*
X70320780Y-50675000D02*
X70039620Y-50675000D01*
X70320780Y-49655000D02*
X70039620Y-49655000D01*
D12*
X90315148Y-25931800D02*
X90837652Y-25931800D01*
X90315148Y-24461800D02*
X90837652Y-24461800D01*
D10*
X119924000Y-59536400D02*
X124424000Y-59536400D01*
X125674000Y-57036400D02*
X125674000Y-55536400D01*
X118674000Y-55536400D02*
X118674000Y-57036400D01*
X124424000Y-53036400D02*
X119924000Y-53036400D01*
D12*
X84363002Y-23930200D02*
X83840498Y-23930200D01*
X84363002Y-22460200D02*
X83840498Y-22460200D01*
D10*
X115785020Y-39190200D02*
X116066180Y-39190200D01*
X115785020Y-40210200D02*
X116066180Y-40210200D01*
D12*
X58763800Y-46556600D02*
X61048800Y-46556600D01*
X58763800Y-45086600D02*
X58763800Y-46556600D01*
X61048800Y-45086600D02*
X58763800Y-45086600D01*
X84363002Y-25962200D02*
X83840498Y-25962200D01*
X84363002Y-24492200D02*
X83840498Y-24492200D01*
D10*
X115586742Y-59828900D02*
X116061258Y-59828900D01*
X115586742Y-58783900D02*
X116061258Y-58783900D01*
D12*
X108670400Y-57006800D02*
X107340400Y-57006800D01*
X108670400Y-54406800D02*
X106010400Y-54406800D01*
X108670400Y-46726800D02*
X106010400Y-46726800D01*
X108670400Y-55676800D02*
X108670400Y-57006800D01*
X106010400Y-54406800D02*
X106010400Y-46726800D01*
X108670400Y-54406800D02*
X108670400Y-46726800D01*
X126970200Y-25533236D02*
X126970200Y-25317564D01*
X127690200Y-25533236D02*
X127690200Y-25317564D01*
D10*
X72860780Y-27230800D02*
X72579620Y-27230800D01*
X72860780Y-26210800D02*
X72579620Y-26210800D01*
D12*
X51779200Y-60883800D02*
X49119200Y-60883800D01*
X43119200Y-59993800D02*
X43119200Y-59233800D01*
X49119200Y-49833800D02*
X43119200Y-49833800D01*
X51779200Y-58343800D02*
X49119200Y-58343800D01*
X54489200Y-62153800D02*
X54489200Y-63423800D01*
X43119200Y-54153800D02*
X49119200Y-54153800D01*
X49119200Y-63483800D02*
X51779200Y-63483800D01*
X52176271Y-59993800D02*
X51779200Y-59993800D01*
X49119200Y-62353800D02*
X43119200Y-62353800D01*
X49119200Y-48123800D02*
X49119200Y-63483800D01*
X51779200Y-55803800D02*
X49119200Y-55803800D01*
X43119200Y-51613800D02*
X49119200Y-51613800D01*
X52176271Y-52373800D02*
X51779200Y-52373800D01*
X52176271Y-49833800D02*
X51779200Y-49833800D01*
X49119200Y-62113800D02*
X43119200Y-62113800D01*
X54489200Y-63423800D02*
X53219200Y-63423800D01*
X51779200Y-63483800D02*
X51779200Y-48123800D01*
X43119200Y-52373800D02*
X43119200Y-51613800D01*
X52176271Y-49073800D02*
X51779200Y-49073800D01*
X52176271Y-54913800D02*
X51779200Y-54913800D01*
X51779200Y-50723800D02*
X49119200Y-50723800D01*
X43119200Y-54913800D02*
X43119200Y-54153800D01*
X43119200Y-57453800D02*
X43119200Y-56693800D01*
X52176271Y-59233800D02*
X51779200Y-59233800D01*
X52109200Y-61773800D02*
X51779200Y-61773800D01*
X43119200Y-49833800D02*
X43119200Y-49073800D01*
X43119200Y-49073800D02*
X49119200Y-49073800D01*
X51779200Y-53263800D02*
X49119200Y-53263800D01*
X49119200Y-52373800D02*
X43119200Y-52373800D01*
X52176271Y-56693800D02*
X51779200Y-56693800D01*
X43119200Y-61773800D02*
X49119200Y-61773800D01*
X52176271Y-57453800D02*
X51779200Y-57453800D01*
X49119200Y-61873800D02*
X43119200Y-61873800D01*
X49119200Y-57453800D02*
X43119200Y-57453800D01*
X43119200Y-62533800D02*
X43119200Y-61773800D01*
X43119200Y-56693800D02*
X49119200Y-56693800D01*
X49119200Y-62473800D02*
X43119200Y-62473800D01*
X49119200Y-59993800D02*
X43119200Y-59993800D01*
X51779200Y-48123800D02*
X49119200Y-48123800D01*
X49119200Y-62533800D02*
X43119200Y-62533800D01*
X49119200Y-61993800D02*
X43119200Y-61993800D01*
X43119200Y-59233800D02*
X49119200Y-59233800D01*
X52176271Y-51613800D02*
X51779200Y-51613800D01*
X52176271Y-54153800D02*
X51779200Y-54153800D01*
X49119200Y-62233800D02*
X43119200Y-62233800D01*
X49119200Y-54913800D02*
X43119200Y-54913800D01*
X52109200Y-62533800D02*
X51779200Y-62533800D01*
D10*
X115708820Y-55674800D02*
X115989980Y-55674800D01*
X115708820Y-56694800D02*
X115989980Y-56694800D01*
D12*
X84388402Y-19866200D02*
X83865898Y-19866200D01*
X84388402Y-18396200D02*
X83865898Y-18396200D01*
D10*
X115759620Y-46530800D02*
X116040780Y-46530800D01*
X115759620Y-47550800D02*
X116040780Y-47550800D01*
X60595742Y-23658300D02*
X61070258Y-23658300D01*
X60595742Y-24703300D02*
X61070258Y-24703300D01*
X115662942Y-49693300D02*
X116137458Y-49693300D01*
X115662942Y-50738300D02*
X116137458Y-50738300D01*
D12*
X106513100Y-21708342D02*
X106513100Y-22182858D01*
X107558100Y-21708342D02*
X107558100Y-22182858D01*
X105465200Y-22091236D02*
X105465200Y-21875564D01*
X104745200Y-22091236D02*
X104745200Y-21875564D01*
X105465200Y-28263964D02*
X105465200Y-28479636D01*
X104745200Y-28263964D02*
X104745200Y-28479636D01*
X64042058Y-40857700D02*
X63567542Y-40857700D01*
X64042058Y-39812700D02*
X63567542Y-39812700D01*
D10*
X116162858Y-40650900D02*
X115688342Y-40650900D01*
X116162858Y-41695900D02*
X115688342Y-41695900D01*
D12*
X79364600Y-60308800D02*
X79364600Y-57648800D01*
X78094600Y-60308800D02*
X76764600Y-60308800D01*
X79364600Y-60308800D02*
X84504600Y-60308800D01*
X84504600Y-60308800D02*
X84504600Y-57648800D01*
X76764600Y-60308800D02*
X76764600Y-58978800D01*
X79364600Y-57648800D02*
X84504600Y-57648800D01*
X101863600Y-55676800D02*
X101863600Y-57006800D01*
X101863600Y-57006800D02*
X100533600Y-57006800D01*
X101863600Y-46726800D02*
X99203600Y-46726800D01*
X101863600Y-54406800D02*
X101863600Y-46726800D01*
X99203600Y-54406800D02*
X99203600Y-46726800D01*
X101863600Y-54406800D02*
X99203600Y-54406800D01*
X90315148Y-20448600D02*
X90837652Y-20448600D01*
X90315148Y-21918600D02*
X90837652Y-21918600D01*
D10*
X61798200Y-19059200D02*
X59198200Y-19059200D01*
X64398200Y-16399200D02*
X64398200Y-17729200D01*
X61798200Y-16399200D02*
X61798200Y-19059200D01*
X63068200Y-16399200D02*
X64398200Y-16399200D01*
X59198200Y-16399200D02*
X59198200Y-19059200D01*
X61798200Y-16399200D02*
X59198200Y-16399200D01*
D12*
X64042058Y-44460900D02*
X63567542Y-44460900D01*
X64042058Y-45505900D02*
X63567542Y-45505900D01*
D10*
X86794150Y-29530400D02*
X87594150Y-29530400D01*
X86794150Y-26410400D02*
X87594150Y-26410400D01*
X86794150Y-29530400D02*
X85994150Y-29530400D01*
X86794150Y-26410400D02*
X84994150Y-26410400D01*
D12*
X120080600Y-19246000D02*
X124180600Y-19246000D01*
X116080600Y-19246000D02*
X111980600Y-19246000D01*
X116080600Y-31046000D02*
X111980600Y-31046000D01*
X118080600Y-24646000D02*
X118080600Y-25646000D01*
X110580600Y-21346000D02*
X110280600Y-21046000D01*
X124180600Y-19246000D02*
X124180600Y-21646000D01*
X124180600Y-23846000D02*
X124180600Y-26446000D01*
X124180600Y-31046000D02*
X120080600Y-31046000D01*
X111980600Y-19246000D02*
X111980600Y-31046000D01*
X117580600Y-25146000D02*
X118580600Y-25146000D01*
X110280600Y-21046000D02*
X110880600Y-21046000D01*
X110880600Y-21046000D02*
X110580600Y-21346000D01*
X124180600Y-28646000D02*
X124180600Y-31046000D01*
X121080600Y-25146000D02*
G75*
G03*
X121080600Y-25146000I-3000000J0D01*
G01*
X64042058Y-41362100D02*
X63567542Y-41362100D01*
X64042058Y-42407100D02*
X63567542Y-42407100D01*
D10*
X74306820Y-49705800D02*
X74587980Y-49705800D01*
X74306820Y-50725800D02*
X74587980Y-50725800D01*
D12*
X84386052Y-16384600D02*
X83863548Y-16384600D01*
X84386052Y-17854600D02*
X83863548Y-17854600D01*
D10*
X115688342Y-42124100D02*
X116162858Y-42124100D01*
X115688342Y-43169100D02*
X116162858Y-43169100D01*
D12*
X90315148Y-22455200D02*
X90837652Y-22455200D01*
X90315148Y-23925200D02*
X90837652Y-23925200D01*
D10*
X68815400Y-27902800D02*
X68815400Y-28202800D01*
X63315400Y-33412800D02*
X63315400Y-33112800D01*
X63315400Y-27902800D02*
X68815400Y-27902800D01*
X68815400Y-33412800D02*
X68815400Y-33112800D01*
X63315400Y-33412800D02*
X68815400Y-33412800D01*
X63315400Y-28107800D02*
X61565400Y-28107800D01*
X63315400Y-27902800D02*
X63315400Y-28107800D01*
D12*
X74440800Y-54405800D02*
X74440800Y-51105800D01*
X74440800Y-51105800D02*
X70440800Y-51105800D01*
X58763800Y-41860800D02*
X58763800Y-43330800D01*
X61048800Y-41860800D02*
X58763800Y-41860800D01*
X58763800Y-43330800D02*
X61048800Y-43330800D01*
X58763800Y-43461000D02*
X58763800Y-44931000D01*
X58763800Y-44931000D02*
X61048800Y-44931000D01*
X61048800Y-43461000D02*
X58763800Y-43461000D01*
X90315148Y-18442000D02*
X90837652Y-18442000D01*
X90315148Y-19912000D02*
X90837652Y-19912000D01*
D10*
X75997800Y-30938441D02*
X75997800Y-30631159D01*
X76757800Y-30938441D02*
X76757800Y-30631159D01*
X116061258Y-58256700D02*
X115586742Y-58256700D01*
X116061258Y-57211700D02*
X115586742Y-57211700D01*
D12*
X58763800Y-48182200D02*
X61048800Y-48182200D01*
X58763800Y-46712200D02*
X58763800Y-48182200D01*
X61048800Y-46712200D02*
X58763800Y-46712200D01*
D10*
X116137458Y-48118500D02*
X115662942Y-48118500D01*
X116137458Y-49163500D02*
X115662942Y-49163500D01*
D12*
X98256400Y-27039800D02*
X96926400Y-27039800D01*
X98256400Y-25709800D02*
X98256400Y-27039800D01*
X98256400Y-24439800D02*
X98256400Y-21839800D01*
X95596400Y-24439800D02*
X95596400Y-21839800D01*
X98256400Y-24439800D02*
X95596400Y-24439800D01*
X98256400Y-21839800D02*
X95596400Y-21839800D01*
X84388402Y-20428200D02*
X83865898Y-20428200D01*
X84388402Y-21898200D02*
X83865898Y-21898200D01*
D10*
X125699400Y-47943200D02*
X125699400Y-46443200D01*
X118699400Y-46443200D02*
X118699400Y-47943200D01*
X124449400Y-43943200D02*
X119949400Y-43943200D01*
X119949400Y-50443200D02*
X124449400Y-50443200D01*
D12*
X106513100Y-28609058D02*
X106513100Y-28134542D01*
X107558100Y-28609058D02*
X107558100Y-28134542D01*
X79215750Y-25730200D02*
X79215750Y-28330200D01*
X79215750Y-25730200D02*
X81875750Y-25730200D01*
X79215750Y-24460200D02*
X79215750Y-23130200D01*
X81875750Y-25730200D02*
X81875750Y-28330200D01*
X79215750Y-23130200D02*
X80545750Y-23130200D01*
X79215750Y-28330200D02*
X81875750Y-28330200D01*
D10*
X72754400Y-43455650D02*
X72104400Y-43455650D01*
X78674400Y-36235650D02*
X79324400Y-36235650D01*
X79324400Y-36235650D02*
X79324400Y-36885650D01*
X72104400Y-43455650D02*
X72104400Y-42805650D01*
X78674400Y-43455650D02*
X79324400Y-43455650D01*
X79324400Y-43455650D02*
X79324400Y-42805650D01*
X72754400Y-36235650D02*
X72104400Y-36235650D01*
D12*
X127979700Y-28939258D02*
X127979700Y-28464742D01*
X126934700Y-28939258D02*
X126934700Y-28464742D01*
D10*
X92591200Y-30570852D02*
X92591200Y-27798348D01*
X89171200Y-30570852D02*
X89171200Y-27798348D01*
D12*
X51603600Y-42697400D02*
X51603600Y-19777400D01*
X51603600Y-45297400D02*
X51603600Y-43967400D01*
X54263600Y-42697400D02*
X51603600Y-42697400D01*
X52933600Y-45297400D02*
X51603600Y-45297400D01*
X54263600Y-19777400D02*
X51603600Y-19777400D01*
X54263600Y-42697400D02*
X54263600Y-19777400D01*
X90315148Y-17880000D02*
X90837652Y-17880000D01*
X90315148Y-16410000D02*
X90837652Y-16410000D01*
D10*
X60570342Y-26303500D02*
X61044858Y-26303500D01*
X60570342Y-25258500D02*
X61044858Y-25258500D01*
D12*
X98544748Y-16994200D02*
X99067252Y-16994200D01*
X98544748Y-18464200D02*
X99067252Y-18464200D01*
X64042058Y-42911500D02*
X63567542Y-42911500D01*
X64042058Y-43956500D02*
X63567542Y-43956500D01*
D10*
X77824600Y-30938441D02*
X77824600Y-30631159D01*
X77064600Y-30938441D02*
X77064600Y-30631159D01*
%LPC*%
D13*
X125500200Y-37374000D03*
X119000200Y-37374000D03*
X125500200Y-41874000D03*
X119000200Y-41874000D03*
D14*
X74485000Y-48615600D03*
X72835000Y-48615600D03*
D15*
X87975200Y-58978800D03*
D16*
X90515200Y-58978800D03*
X93055200Y-58978800D03*
D17*
X77881000Y-19337000D03*
X77231000Y-19337000D03*
X76581000Y-19337000D03*
X75931000Y-19337000D03*
X75281000Y-19337000D03*
D18*
X80081000Y-16637000D03*
D19*
X75581000Y-16637000D03*
D20*
X79481000Y-16637000D03*
D21*
X74081000Y-19337000D03*
D18*
X73081000Y-16637000D03*
D21*
X79081000Y-19337000D03*
D19*
X77581000Y-16637000D03*
D20*
X73681000Y-16637000D03*
D22*
X70955200Y-50165000D03*
X69405200Y-50165000D03*
D23*
X89626400Y-25196800D03*
X91526400Y-25196800D03*
D13*
X125424000Y-54036400D03*
X118924000Y-54036400D03*
X125424000Y-58536400D03*
X118924000Y-58536400D03*
D24*
X85051750Y-23195200D03*
X83151750Y-23195200D03*
D25*
X115150600Y-39700200D03*
X116700600Y-39700200D03*
D26*
X59461300Y-45821600D03*
X61036300Y-45821600D03*
D24*
X85051750Y-25227200D03*
X83151750Y-25227200D03*
D27*
X114999000Y-59306400D03*
X116649000Y-59306400D03*
D15*
X107340400Y-55676800D03*
D16*
X107340400Y-53136800D03*
X107340400Y-50596800D03*
X107340400Y-48056800D03*
D28*
X127330200Y-25905400D03*
X127330200Y-24945400D03*
D22*
X73495200Y-26720800D03*
X71945200Y-26720800D03*
D15*
X53219200Y-62153800D03*
D16*
X53219200Y-59613800D03*
X53219200Y-57073800D03*
X53219200Y-54533800D03*
X53219200Y-51993800D03*
X53219200Y-49453800D03*
D25*
X115074400Y-56184800D03*
X116624400Y-56184800D03*
D24*
X85077150Y-19131200D03*
X83177150Y-19131200D03*
D25*
X115125200Y-47040800D03*
X116675200Y-47040800D03*
D27*
X60008000Y-24180800D03*
X61658000Y-24180800D03*
X115075200Y-50215800D03*
X116725200Y-50215800D03*
D29*
X107035600Y-21120600D03*
X107035600Y-22770600D03*
D28*
X105105200Y-22463400D03*
X105105200Y-21503400D03*
D30*
X105105200Y-27891800D03*
X105105200Y-28851800D03*
D14*
X64629800Y-40335200D03*
X62979800Y-40335200D03*
X116750600Y-41173400D03*
X115100600Y-41173400D03*
D15*
X78094600Y-58978800D03*
D16*
X80634600Y-58978800D03*
X83174600Y-58978800D03*
D15*
X100533600Y-55676800D03*
D16*
X100533600Y-53136800D03*
X100533600Y-50596800D03*
X100533600Y-48056800D03*
D23*
X89626400Y-21183600D03*
X91526400Y-21183600D03*
D15*
X63068200Y-17729200D03*
D16*
X60528200Y-17729200D03*
D14*
X64629800Y-44983400D03*
X62979800Y-44983400D03*
D31*
X85656650Y-27020400D03*
X85656650Y-27970400D03*
X85656650Y-28920400D03*
X87931650Y-28920400D03*
X87931650Y-27020400D03*
D32*
X110580600Y-22646000D03*
D13*
X110580600Y-27646000D03*
X110580600Y-25146000D03*
D33*
X118080600Y-30746000D03*
X118080600Y-19546000D03*
D13*
X125080600Y-27646000D03*
X125080600Y-22646000D03*
D14*
X64629800Y-41884600D03*
X62979800Y-41884600D03*
D25*
X73672400Y-50215800D03*
X75222400Y-50215800D03*
D24*
X85074800Y-17119600D03*
X83174800Y-17119600D03*
D27*
X115100600Y-42646600D03*
X116750600Y-42646600D03*
D23*
X89626400Y-23190200D03*
X91526400Y-23190200D03*
D34*
X62415400Y-28752800D03*
X62415400Y-30022800D03*
X62415400Y-31292800D03*
X62415400Y-32562800D03*
X69715400Y-32562800D03*
X69715400Y-31292800D03*
X69715400Y-30022800D03*
X69715400Y-28752800D03*
D35*
X73540800Y-51905800D03*
X71340800Y-51905800D03*
X71340800Y-53605800D03*
X73540800Y-53605800D03*
D26*
X59461300Y-42595800D03*
X61036300Y-42595800D03*
X59461300Y-44196000D03*
X61036300Y-44196000D03*
D23*
X89626400Y-19177000D03*
X91526400Y-19177000D03*
D36*
X76377800Y-31294800D03*
X76377800Y-30274800D03*
D14*
X116649000Y-57734200D03*
X114999000Y-57734200D03*
D26*
X59461300Y-47447200D03*
X61036300Y-47447200D03*
D14*
X116725200Y-48641000D03*
X115075200Y-48641000D03*
D15*
X96926400Y-25709800D03*
D16*
X96926400Y-23169800D03*
D24*
X85077150Y-21163200D03*
X83177150Y-21163200D03*
D13*
X125449400Y-44943200D03*
X118949400Y-44943200D03*
X118949400Y-49443200D03*
X125449400Y-49443200D03*
D37*
X107035600Y-29196800D03*
X107035600Y-27546800D03*
D15*
X80545750Y-24460200D03*
D16*
X80545750Y-27000200D03*
D38*
X72276900Y-37245650D03*
X72276900Y-37645650D03*
X72276900Y-38045650D03*
X72276900Y-38445650D03*
X72276900Y-38845650D03*
X72276900Y-39245650D03*
X72276900Y-39645650D03*
X72276900Y-40045650D03*
X72276900Y-40445650D03*
X72276900Y-40845650D03*
X72276900Y-41245650D03*
X72276900Y-41645650D03*
X72276900Y-42045650D03*
X72276900Y-42445650D03*
D39*
X73114400Y-43283150D03*
X73514400Y-43283150D03*
X73914400Y-43283150D03*
X74314400Y-43283150D03*
X74714400Y-43283150D03*
X75114400Y-43283150D03*
X75514400Y-43283150D03*
X75914400Y-43283150D03*
X76314400Y-43283150D03*
X76714400Y-43283150D03*
X77114400Y-43283150D03*
X77514400Y-43283150D03*
X77914400Y-43283150D03*
X78314400Y-43283150D03*
D38*
X79151900Y-42445650D03*
X79151900Y-42045650D03*
X79151900Y-41645650D03*
X79151900Y-41245650D03*
X79151900Y-40845650D03*
X79151900Y-40445650D03*
X79151900Y-40045650D03*
X79151900Y-39645650D03*
X79151900Y-39245650D03*
X79151900Y-38845650D03*
X79151900Y-38445650D03*
X79151900Y-38045650D03*
X79151900Y-37645650D03*
X79151900Y-37245650D03*
D39*
X78314400Y-36408150D03*
X77914400Y-36408150D03*
X77514400Y-36408150D03*
X77114400Y-36408150D03*
X76714400Y-36408150D03*
X76314400Y-36408150D03*
X75914400Y-36408150D03*
X75514400Y-36408150D03*
X75114400Y-36408150D03*
X74714400Y-36408150D03*
X74314400Y-36408150D03*
X73914400Y-36408150D03*
X73514400Y-36408150D03*
X73114400Y-36408150D03*
D40*
X75714400Y-39845650D03*
D37*
X127457200Y-29527000D03*
X127457200Y-27877000D03*
D41*
X90881200Y-31322100D03*
X90881200Y-27047100D03*
D15*
X52933600Y-43967400D03*
D16*
X52933600Y-41427400D03*
X52933600Y-38887400D03*
X52933600Y-36347400D03*
X52933600Y-33807400D03*
X52933600Y-31267400D03*
X52933600Y-28727400D03*
X52933600Y-26187400D03*
X52933600Y-23647400D03*
X52933600Y-21107400D03*
D23*
X89626400Y-17145000D03*
X91526400Y-17145000D03*
D27*
X59982600Y-25781000D03*
X61632600Y-25781000D03*
D23*
X97856000Y-17729200D03*
X99756000Y-17729200D03*
D14*
X64629800Y-43434000D03*
X62979800Y-43434000D03*
D36*
X77444600Y-31294800D03*
X77444600Y-30274800D03*
M02*
